<svg width="64" height="64" viewBox="0 0 64 64" fill="none" xmlns="http://www.w3.org/2000/svg">
<path fill-rule="evenodd" clip-rule="evenodd" d="M32 0C6.4 0 0 6.4 0 32C0 57.6 6.4 64 32 64C57.6 64 64 57.6 64 32C64 6.4 57.6 0 32 0Z" fill="#0F1010"/>
<path fill-rule="evenodd" clip-rule="evenodd" d="M29.3325 17.2466H20.0365H18.7995L17.922 18.1184L14.8855 21.1355L14 22.0153V23.2636V40.1476V41.3959L14.8855 42.2758L17.922 45.2928L18.7995 46.1647H20.0365H29.3325V53.4112H35.3325V46.1647H44.6284H45.8654L46.7429 45.2928L49.7794 42.2758L50.6649 41.3959V40.1476V23.2636V22.0153L49.7794 21.1355L46.7429 18.1184L45.8654 17.2466H44.6284H35.3325V10H29.3325V17.2466ZM35.3325 40.1647V23.2466H43.3914L44.6649 24.5119V38.8993L43.3914 40.1647H35.3325ZM29.3325 40.1647V23.2466H21.2735L20 24.5119V38.8993L21.2735 40.1647H29.3325Z" fill="white"/>
</svg>
