<?xml version="1.0" encoding="UTF-8"?>
<!DOCTYPE svg  PUBLIC '-//W3C//DTD SVG 1.1//EN'  'http://www.w3.org/Graphics/SVG/1.1/DTD/svg11.dtd'>
<svg version="1.1" xmlns="http://www.w3.org/2000/svg">
<defs>
<font id="GolosText-Regular" horiz-adv-x="670">
<font-face font-family="Golos Text" font-weight="400" ascent="774" bbox="-968 -230 1190 955" cap-height="700" descent="-226" panose-1="2 11 5 3 2 2 2 2 2 4" underline-position="-100" underline-thickness="50" unicode-range="U+000D-FEFF" units-per-em="1000" x-height="530"/>
<missing-glyph d="M50 512h400v-512h-400v512zM442 8v496h-384v-496h384z" horiz-adv-x="500"/>
<glyph d="M50 512h400v-512h-400v512zM442 8v496h-384v-496h384z" glyph-name=".notdef" horiz-adv-x="500"/>
<glyph glyph-name="uni0000" horiz-adv-x="0"/>
<glyph glyph-name="uni0000" horiz-adv-x="0"/>
<glyph glyph-name="uni000D" horiz-adv-x="250" unicode=""/>
<glyph glyph-name="space" horiz-adv-x="250" unicode=" "/>
<glyph d="M150 -10q-29 0 -49.5 20.5t-20.5 49.5q0 30 20.5 50t49.5 20t49.5 -20t20.5 -50q0 -29 -20.5 -49.5t-49.5 -20.5zM106 700h88v-480h-88v480z" glyph-name="exclam" horiz-adv-x="300" unicode="!"/>
<glyph d="M65 700h90v-200h-90v200zM235 700h90v-200h-90v200z" glyph-name="quotedbl" horiz-adv-x="390" unicode='"'/>
<glyph d="M406 272l29 156h-162l-29 -156h162zM147 198h-82v74h95l29 156h-85v74h99l37 198h84l-37 -198h162l37 198h84l-37 -198h82v-74h-96l-29 -156h86v-74h-99l-37 -198h-84l37 198h-162l-37 -198h-84z" glyph-name="numbersign" horiz-adv-x="680" unicode="#"/>
<glyph d="M278 -8q-53 5 -92 21.5t-66 42t-43 58.5t-22 71h94q5 -23 17 -43.5t32.5 -35.5t50.5 -23.5t71 -8.5q84 0 127.5 32t43.5 79q0 29 -9.5 49t-32 35t-59 27t-89.5 24q-59 13 -101.5 28.5t-70 39t-41 56.5t-13.5 81q0 35 13.5 66t40 55t64 40t85.5 21v93h84v-93 q91 -11 138.5 -61.5t59.5 -120.5h-94q-5 21 -15 39.5t-27.5 32t-43 21.5t-60.5 8q-72 0 -111.5 -29.5t-39.5 -71.5q0 -27 10 -46.5t31 -34t53.5 -25t77.5 -20.5q65 -14 111.5 -31.5t76 -42.5t43 -59t13.5 -81q0 -38 -15 -71t-43.5 -58.5t-70 -42t-94.5 -21.5v-112h-84v112z " glyph-name="dollar" horiz-adv-x="640" unicode="$"/>
<glyph d="M610 700h100l-480 -700h-100zM190 370q-35 0 -64.5 12t-50.5 33.5t-33 52t-12 67.5v10q0 37 12 67t33 52t50.5 34t64.5 12t64.5 -12t50.5 -34t33 -52t12 -67v-10q0 -37 -12 -67.5t-33 -52t-50.5 -33.5t-64.5 -12zM190 446q34 0 54 22t20 67v10q0 45 -20 67t-54 22 t-54 -22t-20 -67v-10q0 -45 20 -67t54 -22zM650 -9q-35 0 -64.5 12t-50.5 33.5t-33 52t-12 67.5v10q0 37 12 67t33 52t50.5 34t64.5 12t64.5 -12t50.5 -34t33 -52t12 -67v-10q0 -37 -12 -67.5t-33 -52t-50.5 -33.5t-64.5 -12zM650 67q34 0 54 22t20 67v10q0 45 -20 67 t-54 22t-54 -22t-20 -67v-10q0 -45 20 -67t54 -22z" glyph-name="percent" horiz-adv-x="840" unicode="%"/>
<glyph d="M203 560q0 -13 2.5 -24.5t8.5 -24t17 -28t29 -36.5q30 22 47.5 38.5t26 30t11 24t2.5 20.5q0 31 -20.5 51.5t-51.5 20.5q-30 0 -51 -21t-21 -51zM285 68q87 0 147 58l-190 211q-30 -23 -48.5 -41.5t-28.5 -35.5t-13.5 -34t-3.5 -36q0 -54 35.5 -88t101.5 -34zM285 -10 q-53 0 -95 15t-71 41.5t-44 63t-15 80.5q0 28 6.5 53.5t21.5 50.5t39.5 50t61.5 53q-24 28 -38.5 49t-22.5 39.5t-10.5 36t-2.5 38.5q0 32 11.5 59.5t32.5 47.5t50.5 31.5t65.5 11.5t65.5 -11.5t50.5 -31.5t32.5 -47.5t11.5 -59.5q0 -18 -5.5 -37.5t-19 -40.5t-37.5 -44.5 t-60 -50.5l169 -188q25 58 25 131h88q0 -60 -13.5 -110t-38.5 -90l117 -130h-114l-58 63q-40 -35 -91.5 -54t-111.5 -19z" glyph-name="ampersand" unicode="&amp;"/>
<glyph d="M65 700h90v-200h-90v200z" glyph-name="quotesingle" horiz-adv-x="220" unicode="'"/>
<glyph d="M90 260q0 98 27.5 178t61.5 139q39 68 89 123h102q-54 -55 -95 -123q-18 -29 -35 -64t-30.5 -75t-21.5 -84.5t-8 -93.5v-20q0 -49 8 -94t21.5 -85t30.5 -75t35 -64q41 -69 95 -122h-106q-49 53 -87 122q-33 58 -60 139t-27 179v20z" glyph-name="parenleft" horiz-adv-x="380" unicode="("/>
<glyph d="M290.011 240.031q0 -97.9873 -27.4961 -177.978q-27.4971 -79.9902 -61.4932 -138.983q-38.9951 -67.9912 -88.9883 -122.984h-101.988q53.9941 54.9932 94.9883 122.984q17.998 28.9961 34.9961 63.9922t30.4961 74.9912t21.498 84.4893 q7.99805 44.4951 7.99805 93.4883v19.998q0 48.9941 -7.99805 93.9883q-8 44.9951 -21.498 84.9902t-30.4961 74.9902q-16.998 34.9961 -34.9961 63.9922q-40.9941 68.9922 -94.9883 121.985h105.987q48.9941 -52.9932 86.9893 -121.985q32.9961 -57.9922 59.9932 -138.982 q26.9961 -80.9902 26.9961 -178.979v-19.998z" glyph-name="parenright" horiz-adv-x="380" unicode=")"/>
<glyph d="M195 473l-104 -66l-36 62l110 56l-110 56l36 62l104 -66l-6 123h72l-6 -123l104 66l36 -62l-110 -56l110 -56l-36 -62l-104 66l6 -123h-72z" glyph-name="asterisk" horiz-adv-x="450" unicode="*"/>
<glyph d="M231 319h-181v82h181v184h88v-184h181v-82h-181v-184h-88v184z" glyph-name="plus" horiz-adv-x="550" unicode="+"/>
<glyph d="M95 0v110h110v-110l-100 -150h-50z" glyph-name="comma" horiz-adv-x="300" unicode=","/>
<glyph d="M40 321h300v-82h-300v82z" glyph-name="hyphen" horiz-adv-x="380" unicode="-"/>
<glyph d="M150 -10q-29 0 -49.5 20.5t-20.5 49.5q0 30 20.5 50t49.5 20t49.5 -20t20.5 -50q0 -29 -20.5 -49.5t-49.5 -20.5z" glyph-name="period" horiz-adv-x="300" unicode="."/>
<glyph d="M356 700h84l-316 -900h-84z" glyph-name="slash" horiz-adv-x="480" unicode="/"/>
<glyph d="M310 72q31 0 59.5 11.5t50 42t34 84.5t12.5 140v20q0 78 -12.5 128t-34 79t-50 40t-59.5 11q-32 0 -60 -11t-49.5 -40t-34 -79t-12.5 -128v-20q0 -86 12.5 -140t34 -84.5t49.5 -42t60 -11.5zM310 -10q-51 0 -96.5 17t-79.5 58.5t-54 111t-20 173.5v20q0 97 20 162 t54 104.5t79.5 56.5t96.5 17t96.5 -17t79.5 -56.5t54 -104.5t20 -162v-20q0 -104 -20 -173.5t-54 -111t-79.5 -58.5t-96.5 -17z" glyph-name="zero" horiz-adv-x="620" unicode="0"/>
<glyph d="M55 82h167v515l-167 -119v102l169 120h94v-618h137v-82h-400v82z" glyph-name="one" horiz-adv-x="485" unicode="1"/>
<glyph d="M40 77l280 243q32 27 52.5 49t32.5 41.5t16.5 38.5t4.5 41q0 59 -35 97.5t-96 38.5q-73 0 -112 -39.5t-39 -111.5h-94q0 51 17.5 94.5t50 74.5t77.5 48.5t100 17.5q53 0 95 -16.5t71 -46t44 -69.5t15 -88q0 -36 -11 -67t-30.5 -59t-47 -54.5t-60.5 -54.5l-209 -173h368 v-82h-490v77z" glyph-name="two" horiz-adv-x="580" unicode="2"/>
<glyph d="M285 -10q-57 0 -101.5 15.5t-75.5 42.5t-47 63.5t-16 78.5h94q0 -51 35 -83.5t111 -32.5t111 33.5t35 87.5q0 56 -35.5 90.5t-110.5 34.5h-75v80h75q72 0 104 30.5t32 84.5q0 52 -31 81.5t-105 29.5q-71 0 -103.5 -30.5t-32.5 -75.5h-94q0 39 15.5 74t45 60.5t72 40.5 t97.5 15t98 -15t72.5 -40t44.5 -59t15 -71q0 -60 -31.5 -101.5t-88.5 -58.5q60 -19 95 -62t35 -118q0 -40 -16 -75.5t-46.5 -62t-75.5 -42t-102 -15.5z" glyph-name="three" horiz-adv-x="585" unicode="3"/>
<glyph d="M376 251v339l-256 -339h256zM376 169h-356v72l346 459h104v-449h90v-82h-90v-169h-94v169z" glyph-name="four" horiz-adv-x="610" unicode="4"/>
<glyph d="M290 -10q-57 0 -99 15.5t-70.5 41t-43.5 57.5t-17 66h94q5 -38 40.5 -67t95.5 -29q68 0 107 42.5t39 118.5q0 43 -12.5 74t-33 50t-46.5 28t-54 9q-54 0 -84.5 -20t-46.5 -46h-84v370h415v-82h-321v-195q52 57 136 57q104 0 164.5 -63t60.5 -182q0 -56 -17.5 -101.5 t-49 -77.5t-76 -49t-97.5 -17z" glyph-name="five" horiz-adv-x="580" unicode="5"/>
<glyph d="M307 74q73 0 111 37t38 107v10q0 69 -38 106t-111 37t-111 -37t-38 -106v-10q0 -69 38 -106.5t111 -37.5zM315 -10q-58 0 -105 19t-80.5 58.5t-51.5 99.5t-18 143v20q0 103 21 175.5t57 118t84 66t103 20.5q81 0 136.5 -38.5t73.5 -116.5h-94q-28 71 -116 71 q-38 0 -70 -13t-55.5 -43t-37.5 -80t-16 -125q14 24 34 41.5t43.5 28t48.5 15.5t48 5q105 0 167.5 -58.5t62.5 -167.5v-10q0 -50 -18.5 -92t-50.5 -72.5t-75 -47.5t-91 -17z" glyph-name="six" horiz-adv-x="605" unicode="6"/>
<glyph d="M392 618h-372v82h470v-77l-250 -623h-100z" glyph-name="seven" horiz-adv-x="530" unicode="7"/>
<glyph d="M305 395q60 8 98 38.5t38 86.5q0 51 -33.5 78.5t-102.5 27.5q-70 0 -103 -27.5t-33 -78.5q0 -56 38 -86.5t98 -38.5zM305 74q43 0 73 9.5t48.5 25t26.5 37t8 45.5q0 28 -11.5 51t-32.5 40.5t-49.5 28t-62.5 14.5q-34 -4 -62.5 -14.5t-49.5 -27.5t-32.5 -40.5t-11.5 -51.5 q0 -24 8 -45.5t26.5 -37t48.5 -25t73 -9.5zM305 -10q-62 0 -109 15t-78.5 41t-47 61.5t-15.5 77.5q0 60 38 107.5t112 67.5q-27 9 -50.5 24.5t-41.5 36.5t-28 47.5t-10 56.5q0 39 15 73t44 58.5t72 39t99 14.5t99 -14.5t72 -39t44 -58.5t15 -73q0 -60 -37.5 -102t-92.5 -63 q75 -25 112.5 -66t37.5 -109q0 -42 -15.5 -77.5t-47 -61.5t-78.5 -41t-109 -15z" glyph-name="eight" horiz-adv-x="610" unicode="8"/>
<glyph d="M298 329q73 0 111 37t38 106v10q0 68 -38.5 106t-110.5 38q-73 0 -111 -36.5t-38 -107.5v-10q0 -69 38 -106t111 -37zM285 -10q-85 0 -141 38.5t-74 116.5h94q28 -71 121 -71q36 0 67 13t54 43t37 80t16 125q-14 -24 -34 -41.5t-43.5 -28t-48.5 -15.5t-48 -5 q-105 0 -167.5 58.5t-62.5 167.5v10q0 50 18.5 92t50.5 72.5t75 47.5t91 17q118 0 186.5 -77t68.5 -243v-20q0 -103 -21 -175.5t-56.5 -118t-82.5 -66t-100 -20.5z" glyph-name="nine" horiz-adv-x="605" unicode="9"/>
<glyph d="M150 -10q-29 0 -49.5 20.5t-20.5 49.5q0 30 20.5 50t49.5 20t49.5 -20t20.5 -50q0 -29 -20.5 -49.5t-49.5 -20.5zM150 400q-29 0 -49.5 20.5t-20.5 49.5q0 30 20.5 50t49.5 20t49.5 -20t20.5 -50q0 -29 -20.5 -49.5t-49.5 -20.5z" glyph-name="colon" horiz-adv-x="300" unicode=":"/>
<glyph d="M95 0v110h110v-110l-100 -150h-50zM150 400q-29 0 -49.5 20.5t-20.5 49.5q0 30 20.5 50t49.5 20t49.5 -20t20.5 -50q0 -29 -20.5 -49.5t-49.5 -20.5z" glyph-name="semicolon" horiz-adv-x="300" unicode=";"/>
<glyph d="M50 321v78l450 201v-94l-340 -144l340 -144v-98z" glyph-name="less" horiz-adv-x="550" unicode="&lt;"/>
<glyph d="M50 501h450v-82h-450v82zM50 301h450v-82h-450v82z" glyph-name="equal" horiz-adv-x="550" unicode="="/>
<glyph d="M500 399v-78l-450 -201v94l340 144l-340 144v98z" glyph-name="greater" horiz-adv-x="550" unicode="&gt;"/>
<glyph d="M255 -10q-29 0 -49.5 20.5t-20.5 49.5q0 30 20.5 50t49.5 20t49.5 -20t20.5 -50q0 -29 -20.5 -49.5t-49.5 -20.5zM210 250q0 19 2.5 35.5t11 33t24 34.5t41.5 40q42 36 64 65t22 62q0 48 -32 79t-88 31t-88 -31t-32 -79h-90q0 41 14.5 75.5t42 60t66.5 40t87 14.5 t87 -14.5t66.5 -40t42 -60t14.5 -75.5q0 -28 -9 -53t-24.5 -47.5t-35.5 -43t-41 -38.5q-17 -14 -28 -26.5t-17.5 -24t-9 -23t-2.5 -24.5v-20h-88v30z" glyph-name="question" horiz-adv-x="510" unicode="?"/>
<glyph d="M490 93q54 0 88 34t34 88v70q0 54 -34 88t-88 34q-51 0 -81.5 -35t-30.5 -112v-20q0 -77 30.5 -112t81.5 -35zM520 -210q-101 0 -185.5 34t-145.5 95t-95 145.5t-34 185.5q0 99 34.5 183.5t95 146t142.5 96t178 34.5q101 0 184 -32t142 -88t91.5 -133t32.5 -167 q0 -69 -16 -121t-44 -86t-66.5 -51t-83.5 -17q-22 0 -42 4.5t-37 15.5t-29 30t-17 48q-23 -44 -56.5 -71t-93.5 -27q-41 0 -75 14t-58.5 42t-38 70.5t-13.5 98.5v20q0 56 13.5 98.5t38 70.5t58.5 42t75 14q57 0 90.5 -25t46.5 -55v70h88v-284q0 -29 3.5 -48t10 -30t16 -15.5 t20.5 -4.5q27 0 49.5 10t38.5 33.5t25 61t9 92.5q0 83 -29.5 147t-79.5 107.5t-115.5 65.5t-137.5 22q-78 0 -144 -28t-114.5 -78t-76 -120.5t-27.5 -155.5q0 -87 27 -157.5t76 -120.5t117.5 -77t151.5 -27t138.5 15.5t91.5 36.5v-85q-38 -20 -92.5 -32.5t-137.5 -12.5z" glyph-name="at" horiz-adv-x="1020" unicode="@"/>
<glyph d="M216 256h234l-117 324zM481 174h-296l-67 -174h-98l268 700h94l268 -700h-102z" glyph-name="A" unicode="A"/>
<glyph d="M350 399q42 0 70 8t45 23t24 35t7 44t-7 44.5t-24 34.5t-45 22t-70 8h-156v-219h156zM370 82q45 0 75 8.5t48 24t25.5 37.5t7.5 49t-7.5 49.5t-25.5 38t-48.5 24t-75.5 8.5h-175v-239h176zM100 700h250q63 0 108 -14t74.5 -38.5t43.5 -59t14 -75.5q0 -54 -30 -92.5 t-74 -55.5q62 -14 98 -56.5t36 -110.5q0 -43 -14 -79t-44 -62.5t-77.5 -41.5t-114.5 -15h-270v700z" glyph-name="B" unicode="B"/>
<glyph d="M355 -10q-59 0 -112 20.5t-94 64t-65 110.5t-24 160v20q0 90 24 155t65 107t94 62.5t112 20.5q57 0 104.5 -15t83.5 -43t58.5 -69t28.5 -93h-100q-14 68 -59 102t-116 34q-37 0 -72 -14t-62.5 -44.5t-44 -80.5t-16.5 -122v-20q0 -76 18 -127.5t46 -83.5t63 -46t68 -14 q78 0 122 38t53 98h100q-8 -58 -32 -99.5t-60.5 -68.5t-83 -39.5t-99.5 -12.5z" glyph-name="C" horiz-adv-x="680" unicode="C"/>
<glyph d="M285 82q59 0 106.5 15t80.5 46.5t50.5 81.5t17.5 120v20q0 67 -17 115t-49 78.5t-77.5 45t-101.5 14.5h-101v-536h91zM100 700h205q79 0 141 -21.5t105 -63.5t66 -105t23 -145v-20q0 -84 -23.5 -148.5t-68 -108t-108.5 -66t-145 -22.5h-195v700z" glyph-name="D" horiz-adv-x="700" unicode="D"/>
<glyph d="M100 700h450v-82h-356v-217h326v-82h-326v-237h356v-82h-450v700z" glyph-name="E" horiz-adv-x="610" unicode="E"/>
<glyph d="M100 700h450v-82h-356v-227h326v-82h-326v-309h-94v700z" glyph-name="F" horiz-adv-x="595" unicode="F"/>
<glyph d="M365 -10q-62 0 -117.5 20.5t-97 64t-66 110.5t-24.5 160v20q0 90 24.5 155t66 107t97 62.5t117.5 20.5q51 0 95 -14.5t79 -41.5t59.5 -66t36.5 -88h-100q-22 66 -69 96t-101 30q-41 0 -78 -14t-65.5 -44.5t-45 -80.5t-16.5 -122v-20q0 -76 18 -127.5t47.5 -83.5t66 -46 t73.5 -14q83 0 135 47t60 154h-175v80h265v-30q0 -81 -20 -143.5t-56.5 -105t-89.5 -64.5t-119 -22z" glyph-name="G" horiz-adv-x="705" unicode="G"/>
<glyph d="M100 700h94v-299h372v299h94v-700h-94v319h-372v-319h-94v700z" glyph-name="H" horiz-adv-x="760" unicode="H"/>
<glyph d="M110 700h94v-700h-94v700z" glyph-name="I" horiz-adv-x="314" unicode="I"/>
<glyph d="M235 -10q-104 0 -155 51.5t-55 138.5h92q4 -50 31 -78t87 -28q31 0 55 8t39.5 28.5t23.5 54.5t8 85v450h94v-450q0 -140 -54 -200t-166 -60z" glyph-name="J" horiz-adv-x="555" unicode="J"/>
<glyph d="M100 700h94v-369l329 369h117l-260 -288l280 -412h-116l-225 348l-125 -137v-211h-94v700z" glyph-name="K" horiz-adv-x="690" unicode="K"/>
<glyph d="M100 700h94v-618h356v-82h-450v700z" glyph-name="L" horiz-adv-x="570" unicode="L"/>
<glyph d="M100 700h98l234 -445l234 445h94v-700h-94v530l-201 -380h-70l-201 380v-530h-94v700z" glyph-name="M" horiz-adv-x="860" unicode="M"/>
<glyph d="M100 700h92l376 -545v545h92v-700h-92l-376 545v-545h-92v700z" glyph-name="N" horiz-adv-x="760" unicode="N"/>
<glyph d="M370 74q41 0 79 15t67 47.5t46.5 84t17.5 124.5v20q0 69 -17.5 118.5t-46.5 81t-67 46.5t-79 15t-79 -15t-67 -46.5t-46.5 -81t-17.5 -118.5v-20q0 -73 17.5 -124.5t46.5 -84t67 -47.5t79 -15zM370 -10q-60 0 -116 20.5t-99 63.5t-69 110t-26 161v20q0 90 26 155 t69 107.5t99 62.5t116 20t116 -20t99 -62.5t69 -107.5t26 -155v-20q0 -94 -26 -161t-69 -110t-99 -63.5t-116 -20.5z" glyph-name="O" horiz-adv-x="740" unicode="O"/>
<glyph d="M335 352q50 0 84.5 9.5t56 26.5t31 42t9.5 55t-9.5 55t-31 42t-56 26.5t-84.5 9.5h-141v-266h141zM100 700h240q69 0 120 -16t84.5 -44.5t49.5 -68t16 -86.5t-16 -86.5t-49.5 -68t-84.5 -44.5t-120 -16h-146v-270h-94v700z" glyph-name="P" horiz-adv-x="655" unicode="P"/>
<glyph d="M370 74q29 0 56.5 7.5t51.5 22.5l-108 109l57 57l108 -109q21 32 33 77.5t12 106.5v20q0 69 -17.5 118.5t-46.5 81t-67 46.5t-79 15t-79 -15t-67 -46.5t-46.5 -81t-17.5 -118.5v-20q0 -73 17.5 -124.5t46.5 -84t67 -47.5t79 -15zM370 -10q-60 0 -116 20.5t-99 63.5 t-69 110t-26 161v20q0 90 26 155t69 107.5t99 62.5t116 20t116 -20t99 -62.5t69 -107.5t26 -155v-20q0 -85 -21 -146.5t-56 -104.5l67 -67l-57 -57l-70 69q-38 -25 -82 -37t-91 -12z" glyph-name="Q" horiz-adv-x="740" unicode="Q"/>
<glyph d="M335 362q97 0 139 35.5t42 92.5t-42 92.5t-139 35.5h-141v-256h141zM100 700h245q66 0 115.5 -16t82.5 -44t50 -66.5t17 -83.5q0 -70 -41.5 -122.5t-122.5 -73.5l184 -294h-111l-167 282h-158v-282h-94v700z" glyph-name="R" horiz-adv-x="680" unicode="R"/>
<glyph d="M320 -10q-63 0 -110 15t-79 41.5t-50.5 62t-25.5 76.5h94q5 -23 17 -43.5t32.5 -35.5t50.5 -23.5t71 -8.5q84 0 127.5 32t43.5 79q0 29 -9.5 49t-32 35t-59 27t-89.5 24q-59 13 -101.5 28.5t-70 39t-41 56.5t-13.5 81q0 39 17 72.5t48.5 58.5t77 39.5t102.5 14.5 q56 0 98 -14.5t71.5 -39.5t46.5 -58.5t24 -72.5h-94q-5 21 -15 39.5t-27.5 32t-43 21.5t-60.5 8q-72 0 -111.5 -29.5t-39.5 -71.5q0 -27 10 -46.5t31 -34t53.5 -25t77.5 -20.5q65 -14 111.5 -31.5t76 -42.5t43 -59t13.5 -81q0 -41 -18 -76.5t-52 -62t-83 -41.5t-112 -15z " glyph-name="S" horiz-adv-x="640" unicode="S"/>
<glyph d="M263 618h-243v82h580v-82h-243v-618h-94v618z" glyph-name="T" horiz-adv-x="620" unicode="T"/>
<glyph d="M365 -10q-63 0 -113.5 18t-86.5 55t-55.5 93.5t-19.5 133.5v410h94v-410q0 -114 48 -165t133 -51t133 51t48 165v410h94v-410q0 -77 -19.5 -133.5t-55.5 -93.5t-86.5 -55t-113.5 -18z" glyph-name="U" horiz-adv-x="730" unicode="U"/>
<glyph d="M20 700h102l219 -580l211 580h98l-263 -700h-94z" glyph-name="V" unicode="V"/>
<glyph d="M30 700h100l144 -550l164 550h84l167 -550l145 550h96l-188 -700h-94l-170 550l-166 -550h-94z" glyph-name="W" horiz-adv-x="960" unicode="W"/>
<glyph d="M277 357l-237 343h104l187 -271l189 271h100l-236 -341l246 -359h-106l-195 288l-197 -288h-102z" glyph-name="X" horiz-adv-x="660" unicode="X"/>
<glyph d="M283 277l-273 423h108l211 -326l197 326h104l-253 -423v-277h-94v277z" glyph-name="Y" horiz-adv-x="640" unicode="Y"/>
<glyph d="M45 77l392 541h-382v82h490v-77l-392 -541h402v-82h-510v77z" glyph-name="Z" horiz-adv-x="600" unicode="Z"/>
<glyph d="M130 700h180v-74h-96v-752h96v-74h-180v900z" glyph-name="bracketleft" horiz-adv-x="380" unicode="["/>
<glyph d="M40 700h84l316 -900h-84z" glyph-name="backslash" horiz-adv-x="480" unicode="\"/>
<glyph d="M250.016 -199.914h-179.978v73.9902h95.9883v751.908h-95.9883v73.9912h179.978v-899.89z" glyph-name="bracketright" horiz-adv-x="380" unicode="]"/>
<glyph d="M234 700h82l184 -260h-96l-131 185l-131 -185h-92z" glyph-name="asciicircum" horiz-adv-x="550" unicode="^"/>
<glyph d="M0 -63h500v-74h-500v74z" glyph-name="underscore" horiz-adv-x="500" unicode="_"/>
<glyph d="M20 740h110l110 -160h-70z" glyph-name="grave" horiz-adv-x="260" unicode="`"/>
<glyph d="M250 70q31 0 58.5 8.5t48.5 25t33 40.5t12 56v36h-157q-49 0 -77 -19.5t-28 -61.5q0 -37 26.5 -61t83.5 -24zM231 -10q-44 0 -77.5 12.5t-56.5 34.5t-35 52t-12 66q0 79 46.5 114t133.5 35h172v36q0 68 -30.5 94t-91.5 26q-57 0 -83 -21.5t-29 -48.5h-88q2 32 17.5 59.5 t42 47.5t63.5 31.5t82 11.5q94 0 149.5 -44.5t55.5 -145.5v-215q0 -42 0.5 -73.5t4.5 -61.5h-77q-3 23 -4 43.5t-1 46.5q-21 -42 -68 -71t-114 -29z" glyph-name="a" horiz-adv-x="565" unicode="a"/>
<glyph d="M330 68q32 0 60 12.5t48.5 36.5t32 60t11.5 83v20q0 43 -11.5 77t-32 57.5t-48.5 35.5t-60 12q-36 0 -66 -11.5t-51 -32t-33 -48.5t-12 -60v-80q0 -36 12 -66t33 -51t51 -33t66 -12zM350 -10q-68 0 -118 30.5t-70 79.5v-100h-82v700h88v-265q23 49 70.5 77t111.5 28 q99 0 159.5 -65.5t60.5 -194.5v-20q0 -68 -16 -118.5t-45 -84t-69.5 -50.5t-89.5 -17z" glyph-name="b" horiz-adv-x="615" unicode="b"/>
<glyph d="M285 -10q-51 0 -95 16.5t-76 50t-50.5 84.5t-18.5 119v20q0 64 20 113t53 81.5t76.5 49t90.5 16.5t84.5 -13t65 -36t45 -54t25.5 -67h-90q-8 19 -18.5 35.5t-26 28.5t-36.5 19t-49 7q-29 0 -56 -10.5t-48 -32t-33.5 -55.5t-12.5 -82v-20q0 -51 12.5 -87.5t33.5 -59 t48 -33t56 -10.5q49 0 82.5 24t47.5 66h90q-19 -79 -78 -124.5t-142 -45.5z" glyph-name="c" horiz-adv-x="545" unicode="c"/>
<glyph d="M285 68q36 0 66 12t51 33t33 51t12 66v80q0 32 -12 60t-33 48.5t-51 32t-66 11.5q-32 0 -60 -12t-48.5 -35.5t-32 -57.5t-11.5 -77v-20q0 -47 11.5 -83t32 -60t48.5 -36.5t60 -12.5zM265 -10q-49 0 -89.5 17t-69.5 50.5t-45 84t-16 118.5v20q0 63 16.5 111.5t45.5 81.5 t69.5 50t88.5 17q64 0 111.5 -28t70.5 -77v265h88v-700h-82v100q-20 -49 -70 -79.5t-118 -30.5z" glyph-name="d" horiz-adv-x="615" unicode="d"/>
<glyph d="M295 460q-31 0 -60 -8.5t-51.5 -27t-36.5 -46.5t-14 -67h319q-1 41 -13.5 69.5t-33.5 46t-49.5 25.5t-60.5 8zM300 -10q-51 0 -97 16t-81 49.5t-56 84.5t-21 120v20q0 66 20 114.5t53.5 81t78 48.5t93.5 16q117 0 181 -64t64 -181v-56h-402q0 -47 15 -79t39 -52t53.5 -29 t59.5 -9q60 0 92.5 20t46.5 55h86q-8 -38 -28.5 -67t-50 -48.5t-67 -29.5t-79.5 -10z" glyph-name="e" horiz-adv-x="580" unicode="e"/>
<glyph d="M110 452h-75v78h75v10q0 83 38.5 124t121.5 41q30 0 75 -3v-80q-15 2 -32.5 2.5t-32.5 0.5q-46 0 -64 -18.5t-18 -66.5v-10h137v-78h-137v-452h-88v452z" glyph-name="f" horiz-adv-x="365" unicode="f"/>
<glyph d="M285 78q36 0 66 11.5t51 32.5t33 50t12 63v80q0 30 -12 57t-33 47t-51 31.5t-66 11.5q-32 0 -60 -12t-48.5 -35t-32 -55.5t-11.5 -74.5v-20q0 -45 11.5 -80t32 -59t48.5 -36t60 -12zM290 -210q-58 0 -99 11.5t-67.5 31.5t-40.5 47.5t-18 59.5h92q5 -16 14 -29t24 -22 t38.5 -14t56.5 -5q81 0 119 39t38 111v85q-23 -53 -70.5 -79t-111.5 -26q-49 0 -89.5 17t-69.5 50t-45 82.5t-16 115.5v20q0 61 16.5 108.5t45.5 80t69.5 49.5t88.5 17q68 0 118 -30.5t70 -79.5v100h82v-510q0 -108 -63 -169t-182 -61z" glyph-name="g" horiz-adv-x="615" unicode="g"/>
<glyph d="M80 700h88v-265q10 21 26 40t38 33.5t50 23t61 8.5q100 0 148.5 -53.5t48.5 -156.5v-330h-88v310q0 74 -31 112t-104 38q-39 0 -67.5 -13t-46.5 -34t-26.5 -48t-8.5 -55v-310h-88v700z" glyph-name="h" horiz-adv-x="615" unicode="h"/>
<glyph d="M90 530h88v-530h-88v530zM134 600q-26 0 -43 17t-17 43t17 43t43 17t43 -17t17 -43t-17 -43t-43 -17z" glyph-name="i" horiz-adv-x="268" unicode="i"/>
<glyph d="M18 -210q-11 0 -25 0.5t-25 2.5v80q8 -2 17.5 -2.5t17.5 -0.5q25 0 42 5.5t27 20t14 39.5t4 65v530h88v-530q0 -62 -8.5 -102.5t-27.5 -64.5t-49.5 -33.5t-74.5 -9.5zM134 600q-26 0 -43 17t-17 43t17 43t43 17t43 -17t17 -43t-17 -43t-43 -17z" glyph-name="j" horiz-adv-x="268" unicode="j"/>
<glyph d="M80 700h88v-414l244 244h108l-220 -219l240 -311h-112l-191 250l-69 -65v-185h-88v700z" glyph-name="k" horiz-adv-x="565" unicode="k"/>
<glyph d="M240 -5q-83 0 -119 40t-36 130v535h88v-535q0 -52 17 -71t60 -19q11 0 19 0.5t16 1.5v-78q-8 -2 -22.5 -3t-22.5 -1z" glyph-name="l" horiz-adv-x="320" unicode="l"/>
<glyph d="M80 530h82v-100q17 49 58.5 79.5t94.5 30.5q69 0 106 -29.5t51 -75.5q26 49 66.5 77t97.5 28q82 0 128 -49.5t46 -155.5v-335h-88v315q0 79 -27.5 112t-83.5 33q-24 0 -46 -10t-39 -29t-27 -46t-10 -60v-315h-88v315q0 79 -28 112t-83 33q-24 0 -46 -10t-39 -29t-27 -46 t-10 -60v-315h-88v530z" glyph-name="m" horiz-adv-x="885" unicode="m"/>
<glyph d="M80 530h82v-100q9 22 25 42t38.5 35t52 24t65.5 9q100 0 148.5 -53.5t48.5 -156.5v-330h-88v310q0 74 -31 112t-104 38q-39 0 -67.5 -13t-46.5 -34t-26.5 -48t-8.5 -55v-310h-88v530z" glyph-name="n" horiz-adv-x="615" unicode="n"/>
<glyph d="M300 70q30 0 60 10.5t53 33t37.5 58.5t14.5 88v20q0 48 -14.5 82t-37.5 56t-53 32t-60 10t-60 -10t-53 -32t-37.5 -56t-14.5 -82v-20q0 -52 14.5 -88t37.5 -58.5t53 -33t60 -10.5zM300 -10q-51 0 -97 16.5t-81 50t-56 84.5t-21 119v20q0 64 21 113t56 81.5t81 49t97 16.5 t97 -16.5t81 -49t56 -81.5t21 -113v-20q0 -68 -21 -119t-56 -84.5t-81 -50t-97 -16.5z" glyph-name="o" horiz-adv-x="600" unicode="o"/>
<glyph d="M330 68q32 0 60 12.5t48.5 36.5t32 60t11.5 83v20q0 43 -11.5 77t-32 57.5t-48.5 35.5t-60 12q-36 0 -66 -11.5t-51 -32t-33 -48.5t-12 -60v-80q0 -36 12 -66t33 -51t51 -33t66 -12zM80 530h82v-100q27 53 75.5 81.5t112.5 28.5q100 0 160 -65.5t60 -194.5v-20 q0 -68 -16 -118.5t-45 -84t-69.5 -50.5t-89.5 -17q-68 0 -113.5 30t-68.5 75v-295h-88v730z" glyph-name="p" horiz-adv-x="615" unicode="p"/>
<glyph d="M285 68q36 0 66 12t51 33t33 51t12 66v80q0 32 -12 60t-33 48.5t-51 32t-66 11.5q-32 0 -60 -12t-48.5 -35.5t-32 -57.5t-11.5 -77v-20q0 -47 11.5 -83t32 -60t48.5 -36.5t60 -12.5zM447 95q-23 -49 -70.5 -77t-111.5 -28q-49 0 -89.5 17t-69.5 50.5t-45 84t-16 118.5v20 q0 63 16.5 111.5t45.5 81.5t69.5 50t88.5 17q68 0 118 -30.5t70 -79.5v100h82v-730h-88v295z" glyph-name="q" horiz-adv-x="615" unicode="q"/>
<glyph d="M80 530h82v-100q17 47 56.5 78.5t96.5 31.5q20 0 32.5 -2t22.5 -5v-82q-13 5 -25.5 7t-34.5 2q-30 0 -56 -11t-45 -30.5t-30 -47.5t-11 -61v-310h-88v530z" glyph-name="r" horiz-adv-x="390" unicode="r"/>
<glyph d="M265 -10q-53 0 -91.5 12.5t-65.5 33.5t-42 49t-21 60h88q7 -32 37.5 -55.5t94.5 -23.5q37 0 62 6.5t40.5 17t22.5 25t7 30.5q0 17 -6.5 30t-23 23.5t-45 19t-71.5 14.5q-44 6 -79.5 17.5t-60 30.5t-38 45.5t-13.5 64.5q0 30 13 57t39 48t64 33t89 12q47 0 82 -12.5 t59.5 -33.5t38.5 -49t20 -60h-88q-8 35 -34 57t-78 22q-65 0 -91 -21.5t-26 -52.5q0 -18 6.5 -31t22 -23t41 -16.5t63.5 -11.5q49 -6 87 -17.5t64 -31t39.5 -47.5t13.5 -67q0 -32 -13.5 -60t-40.5 -49t-68.5 -33.5t-97.5 -12.5z" glyph-name="s" horiz-adv-x="530" unicode="s"/>
<glyph d="M275 -5q-85 0 -122.5 38.5t-37.5 116.5v302h-80v78h80v120h88v-120h142v-78h-142v-292q0 -45 19 -65t73 -20q30 0 60 3v-78q-19 -2 -38 -3.5t-42 -1.5z" glyph-name="t" horiz-adv-x="400" unicode="t"/>
<glyph d="M267 -10q-96 0 -144 55t-48 170v315h88v-310q0 -74 30.5 -112t99.5 -38q37 0 64.5 13t45 34t26 48t8.5 55v310h88v-530h-82v100q-9 -22 -24.5 -42t-38 -35t-51 -24t-62.5 -9z" glyph-name="u" horiz-adv-x="605" unicode="u"/>
<glyph d="M20 530h98l172 -440l156 440h94l-200 -530h-100z" glyph-name="v" horiz-adv-x="560" unicode="v"/>
<glyph d="M30 530h96l102 -410l138 410h78l143 -410l101 410h92l-145 -530h-88l-144 410l-140 -410h-88z" glyph-name="w" horiz-adv-x="810" unicode="w"/>
<glyph d="M224 269l-189 261h102l140 -193l140 193h98l-189 -256l199 -274h-104l-148 207l-148 -207h-100z" glyph-name="x" horiz-adv-x="550" unicode="x"/>
<glyph d="M150 -210q-15 0 -30 3v80q15 -3 30 -3t26 5t21 19t21.5 39.5t26.5 66.5l-225 530h98l172 -430l156 430h94l-200 -530q-21 -56 -40 -96t-40.5 -65.5t-47.5 -37t-62 -11.5z" glyph-name="y" horiz-adv-x="560" unicode="y"/>
<glyph d="M40 73l314 379h-304v78h410v-73l-314 -379h324v-78h-430v73z" glyph-name="z" horiz-adv-x="510" unicode="z"/>
<glyph d="M280 -200q-68 0 -104 36t-36 104v223q0 23 -13.5 36.5t-36.5 13.5v74q23 0 36.5 13.5t13.5 36.5v223q0 68 36 104t104 36h40v-74h-40q-56 0 -56 -56v-250q0 -30 -13.5 -46t-36.5 -24q23 -8 36.5 -24t13.5 -46v-250q0 -56 56 -56h40v-74h-40z" glyph-name="braceleft" horiz-adv-x="380" unicode="{"/>
<glyph d="M128 700h84v-900h-84v900z" glyph-name="bar" horiz-adv-x="340" unicode="|"/>
<glyph d="M100.034 699.976q67.9912 0 103.987 -35.9951q35.9961 -35.9961 35.9961 -103.988v-222.973q0 -22.9971 13.498 -36.4951t36.4951 -13.498v-73.9912q-22.9971 0 -36.4951 -13.498q-13.498 -13.499 -13.498 -36.4961v-222.973q0 -67.9922 -35.9961 -103.987 t-103.987 -35.9951h-39.9951v73.9902h39.9951q55.9932 0 55.9932 55.9932v249.97q0 29.9961 13.498 45.9941q13.499 15.998 36.4961 23.9971q-22.9971 7.99902 -36.4961 23.9971q-13.498 15.998 -13.498 45.9941v249.97q0 55.9932 -55.9932 55.9932h-39.9951v73.9912 h39.9951z" glyph-name="braceright" horiz-adv-x="380" unicode="}"/>
<glyph d="M370 280q-32 0 -58 12t-49 26t-44.5 26t-43.5 12q-20 0 -34 -10t-24 -21q-11 -13 -19 -30l-63 40q13 29 33 52q17 20 44.5 36.5t67.5 16.5q32 0 58 -12t49 -26t44 -26t44 -12q20 0 34 9.5t24 20.5q11 13 19 31l63 -40q-13 -30 -33 -53q-17 -20 -45 -36t-67 -16z" glyph-name="asciitilde" horiz-adv-x="550" unicode="~"/>
<glyph glyph-name="uni00A0" horiz-adv-x="250" unicode=" "/>
<glyph d="M150 400q-29 0 -49.5 20.5t-20.5 49.5q0 30 20.5 50t49.5 20t49.5 -20t20.5 -50q0 -29 -20.5 -49.5t-49.5 -20.5zM106 310h88v-510h-88v510z" glyph-name="exclamdown" horiz-adv-x="300" unicode="¡"/>
<glyph d="M243 -7q-43 6 -79.5 25.5t-62.5 53t-41 80.5t-15 108v20q0 57 15.5 101.5t42.5 77t63 52t77 25.5v94h84v-93q75 -11 119.5 -57.5t58.5 -109.5h-90q-8 19 -18.5 35.5t-26 28.5t-36.5 19t-49 7q-29 0 -56 -10.5t-48 -32t-33.5 -55.5t-12.5 -82v-20q0 -51 12.5 -87.5 t33.5 -59t48 -33t56 -10.5q49 0 82.5 24t47.5 66h90q-17 -69 -64 -112t-114 -54v-114h-84v113z" glyph-name="cent" horiz-adv-x="545" unicode="¢"/>
<glyph d="M60 82h90v227h-80v72h80v119q0 49 15 88t43 66t67.5 41.5t87.5 14.5q47 0 84.5 -13.5t64 -38.5t41.5 -59t17 -74h-94q-4 48 -31.5 74.5t-81.5 26.5q-58 0 -88.5 -29.5t-30.5 -96.5v-119h181v-72h-181v-227h326v-82h-510v82z" glyph-name="sterling" horiz-adv-x="630" unicode="£"/>
<glyph d="M275 252q22 0 41.5 8.5t33.5 23t22.5 34t8.5 42.5t-8.5 42.5t-22.5 34t-33.5 23t-41.5 8.5t-41.5 -8.5t-33.5 -23t-22.5 -34t-8.5 -42.5t8.5 -42.5t22.5 -34t33.5 -23t41.5 -8.5zM35 179l79 79q-14 23 -21.5 48t-7.5 54q0 28 7.5 53.5t21.5 47.5l-79 80l59 59l79 -80 q47 30 102 30q28 0 53.5 -8t47.5 -22l80 80l59 -59l-80 -80q14 -22 22 -47.5t8 -53.5q0 -55 -30 -102l80 -79l-59 -59l-80 79q-22 -14 -47.5 -21.5t-53.5 -7.5q-29 0 -54 7.5t-48 21.5l-79 -79z" glyph-name="currency" horiz-adv-x="550" unicode="¤"/>
<glyph d="M273 156h-193v72h193v84h-193v72h134l-189 316h108l186 -316l182 316h104l-183 -316h138v-72h-193v-84h193v-72h-193v-156h-94v156z" glyph-name="yen" horiz-adv-x="630" unicode="¥"/>
<glyph d="M128 700h84v-370h-84v370zM128 170h84v-370h-84v370z" glyph-name="brokenbar" horiz-adv-x="340" unicode="¦"/>
<glyph d="M280 142q51 0 84.5 30t33.5 77q0 23 -9 43t-25 34.5t-37.5 23t-46.5 8.5q-51 0 -84.5 -30.5t-33.5 -77.5t33.5 -77.5t84.5 -30.5zM280 -210q-41 0 -73.5 12.5t-55 34t-34.5 50.5t-12 63h94q0 -75 81 -75t81 77q0 18 -7 32t-25 27.5t-48.5 27.5t-78.5 33q-60 24 -96 69.5 t-36 108.5q0 57 33 100.5t90 67.5q-39 23 -63.5 52.5t-24.5 77.5q0 34 12 64t34.5 51.5t55 34t73.5 12.5t73.5 -12.5t55 -34.5t34.5 -52t12 -66h-94q0 81 -81 81q-38 0 -59.5 -21t-21.5 -57q0 -18 7 -32t25 -27.5t49 -27.5t78 -33q60 -24 96 -70.5t36 -108.5 q0 -57 -33.5 -100t-89.5 -67q38 -22 63 -52t25 -78q0 -35 -12 -64.5t-34.5 -51t-55 -34t-73.5 -12.5z" glyph-name="section" horiz-adv-x="560" unicode="§"/>
<glyph d="M282 602q-24 0 -41 17t-17 41t17 41t41 17t41 -17t17 -41t-17 -41t-41 -17zM78 602q-24 0 -41 17t-17 41t17 41t41 17t41 -17t17 -41t-17 -41t-41 -17z" glyph-name="dieresis" horiz-adv-x="360" unicode="¨"/>
<glyph d="M415 140q-40 0 -73 13.5t-57 40t-37 64.5t-13 87v10q0 48 13.5 86.5t37.5 64.5t57 40t72 14q76 0 119 -38t51 -92h-80q-8 27 -30 44.5t-60 17.5q-45 0 -72.5 -32t-27.5 -105v-10q0 -72 28 -104.5t72 -32.5q42 0 62 18t28 49h80q-4 -27 -17 -51.5t-34.5 -43t-51.5 -29.5 t-67 -11zM415 66q58 0 109.5 21.5t89 59.5t59.5 90t22 113q0 60 -22 112t-59.5 90.5t-89 60t-109.5 21.5q-59 0 -110 -21.5t-88.5 -60t-59.5 -90.5t-22 -112t21.5 -112t59.5 -90.5t89 -60t110 -21.5zM415 -10q-76 0 -141.5 28t-114 76.5t-76.5 114t-28 141.5q0 75 28 140.5 t77 114.5t114.5 77t140.5 28q76 0 141.5 -28t114 -76.5t76.5 -114t28 -141.5q0 -75 -28 -140.5t-77 -114.5t-114.5 -77t-140.5 -28z" glyph-name="copyright" horiz-adv-x="830" unicode="©"/>
<glyph d="M170 436q38 0 59.5 18.5t21.5 45.5v18h-81q-27 0 -38 -12.5t-11 -30.5t11.5 -28.5t37.5 -10.5zM155 370q-62 0 -91 27t-29 75q0 45 30.5 72.5t94.5 27.5h91v13q0 59 -56 59q-28 0 -39 -8.5t-15 -25.5h-86q4 45 36 72.5t104 27.5q75 0 107.5 -30.5t32.5 -94.5v-125 q0 -26 1 -45.5t4 -34.5h-72q-3 15 -4 25t-1 26q-12 -23 -39 -42t-69 -19z" glyph-name="ordfeminine" horiz-adv-x="380" unicode="ª"/>
<glyph d="M40 236v78l220 186v-98l-150 -125l150 -125v-102zM270 236v78l220 186v-98l-150 -125l150 -125v-102z" glyph-name="guillemotleft" horiz-adv-x="550" unicode="«"/>
<glyph d="M412 319h-362v82h450v-250h-88v168z" glyph-name="logicalnot" horiz-adv-x="550" unicode="¬"/>
<glyph d="M40 321h300v-82h-300v82z" glyph-name="uni00AD" horiz-adv-x="380" unicode="­"/>
<glyph d="M326 435q38 0 51.5 11t13.5 34t-13.5 34t-51.5 11h-37v-90h37zM225 575h105q67 0 96 -25t29 -70q0 -33 -16 -56t-51 -33l67 -116h-70l-60 110h-36v-110h-64v300zM330 200q45 0 85 17.5t69.5 48t47 71.5t17.5 88t-17.5 88t-47 71.5t-69.5 48t-85 17.5t-85 -17.5t-69.5 -48 t-47 -71.5t-17.5 -88t17.5 -88t47 -71.5t69.5 -48t85 -17.5zM330 140q-59 0 -111 22.5t-90.5 61t-61 90.5t-22.5 111t22.5 111t61 90.5t90.5 61t111 22.5t111 -22.5t90.5 -61t61 -90.5t22.5 -111t-22.5 -111t-61 -90.5t-90.5 -61t-111 -22.5z" glyph-name="registered" horiz-adv-x="660" unicode="®"/>
<glyph d="M20 694h260v-68h-260v68z" glyph-name="macron" horiz-adv-x="300" unicode="¯"/>
<glyph d="M195 476q33 0 56 23t23 56t-23 56t-56 23t-56 -23t-23 -56t23 -56t56 -23zM195 400q-32 0 -60.5 12t-49.5 33t-33 49.5t-12 60.5t12 60.5t33 49.5t49.5 33t60.5 12t60.5 -12t49.5 -33t33 -49.5t12 -60.5t-12 -60.5t-33 -49.5t-49.5 -33t-60.5 -12z" glyph-name="degree" horiz-adv-x="390" unicode="°"/>
<glyph d="M231 369h-181v82h181v184h88v-184h181v-82h-181v-99h-88v99zM50 171h450v-82h-450v82z" glyph-name="plusminus" horiz-adv-x="550" unicode="±"/>
<glyph d="M30 444l149 128q19 16 30.5 28.5t18 23t9 20.5t2.5 21q0 20 -15.5 34.5t-43.5 14.5t-43.5 -14.5t-15.5 -34.5h-86q0 53 38.5 89t106.5 36t106.5 -36t38.5 -89q0 -39 -24 -71.5t-75 -72.5l-84 -67h188v-74h-300v64z" glyph-name="uni00B2" horiz-adv-x="360" unicode="²"/>
<glyph d="M185 370q-38 0 -66.5 9.5t-48.5 26t-30 38.5t-10 46h86q0 -44 69 -44q35 0 52 14t17 38q0 25 -16.5 38.5t-53.5 13.5h-49v70h49q30 0 45 13.5t15 35.5q0 20 -14 32.5t-45 12.5q-27 0 -43 -10t-16 -29h-86q0 48 37 81.5t108 33.5q72 0 108.5 -32.5t36.5 -81.5 q0 -39 -17.5 -57t-47.5 -29q30 -11 52.5 -33.5t22.5 -64.5q0 -25 -10 -47.5t-30 -39t-49 -26t-66 -9.5z" glyph-name="uni00B3" horiz-adv-x="370" unicode="³"/>
<glyph d="M130 740h110l-150 -160h-70z" glyph-name="acute" horiz-adv-x="260" unicode="´"/>
<glyph d="M80 530h88v-310q0 -74 30.5 -112t99.5 -38q37 0 64.5 13t45 34t26 48t8.5 55v310h88v-530h-82v100q-9 -22 -24.5 -42t-38 -35t-51 -24t-62.5 -9q-62 0 -104 27v-217h-88v730z" glyph-name="mu" horiz-adv-x="610" unicode="µ"/>
<glyph d="M195 306q-32 8 -59.5 26.5t-47.5 44t-31.5 57t-11.5 66.5q0 41 16 77.5t43 63.5t63.5 43t77.5 16h280v-900h-84v820h-162v-820h-84v506z" glyph-name="paragraph" horiz-adv-x="625" unicode="¶"/>
<glyph d="M150 205q-29 0 -49.5 20.5t-20.5 49.5q0 30 20.5 50t49.5 20t49.5 -20t20.5 -50q0 -29 -20.5 -49.5t-49.5 -20.5z" glyph-name="periodcentered" horiz-adv-x="300" unicode="·"/>
<glyph d="M80 -210q-25 0 -41 3q-10 1 -19 3v60q6 -1 14 -2q7 -1 16 -1.5t20 -0.5q28 0 40 10.5t12 24.5q0 12 -10 23t-47 11l17 89h60l-7 -48q20 -5 33 -13.5t20 -19t9.5 -22t2.5 -22.5q0 -43 -29 -69t-91 -26z" glyph-name="cedilla" horiz-adv-x="220" unicode="¸"/>
<glyph d="M129 690l-104 -74v86l110 78h80v-400h-86v310z" glyph-name="uni00B9" horiz-adv-x="250" unicode="¹"/>
<glyph d="M190 446q34 0 54 22t20 67v10q0 45 -20 67t-54 22t-54 -22t-20 -67v-10q0 -45 20 -67t54 -22zM190 370q-35 0 -64.5 12t-50.5 33.5t-33 52t-12 67.5v10q0 37 12 67t33 52t50.5 34t64.5 12t64.5 -12t50.5 -34t33 -52t12 -67v-10q0 -37 -12 -67.5t-33 -52t-50.5 -33.5 t-64.5 -12z" glyph-name="ordmasculine" horiz-adv-x="380" unicode="º"/>
<glyph d="M280 314v-78l-220 -186v98l150 125l-150 125v102zM510 314v-78l-220 -186v98l150 125l-150 125v102z" glyph-name="guillemotright" horiz-adv-x="550" unicode="»"/>
<glyph d="M630 700h100l-480 -700h-100zM129 611l-104 -74v86l110 78h80v-400h-86v310zM674 84h-194v64l187 253h93v-243h40v-74h-40v-83h-86v83zM674 158v148l-105 -148h105z" glyph-name="onequarter" horiz-adv-x="840" unicode="¼"/>
<glyph d="M630 700h100l-480 -700h-100zM129 611l-104 -74v86l110 78h80v-400h-86v310zM570 65l149 128q19 16 30.5 28.5t18 23t9 20.5t2.5 21q0 20 -15.5 34.5t-43.5 14.5t-43.5 -14.5t-15.5 -34.5h-86q0 53 38.5 89t106.5 36t106.5 -36t38.5 -89q0 -39 -24 -71.5t-75 -72.5 l-84 -67h188v-74h-300v64z" glyph-name="onehalf" horiz-adv-x="900" unicode="½"/>
<glyph d="M660 700h100l-480 -700h-100zM185 291q-38 0 -66.5 9.5t-48.5 26t-30 38.5t-10 46h86q0 -44 69 -44q35 0 52 14t17 38q0 25 -16.5 38.5t-53.5 13.5h-49v70h49q30 0 45 13.5t15 35.5q0 20 -14 32.5t-45 12.5q-27 0 -43 -10t-16 -29h-86q0 48 37 81.5t108 33.5 q72 0 108.5 -32.5t36.5 -81.5q0 -39 -17.5 -57t-47.5 -29q30 -11 52.5 -33.5t22.5 -64.5q0 -25 -10 -47.5t-30 -39t-49 -26t-66 -9.5zM704 84h-194v64l187 253h93v-243h40v-74h-40v-83h-86v83zM704 158v148l-105 -148h105z" glyph-name="threequarters" horiz-adv-x="870" unicode="¾"/>
<glyph d="M250 400q-29 0 -49.5 20.5t-20.5 49.5q0 30 20.5 50t49.5 20t49.5 -20t20.5 -50q0 -29 -20.5 -49.5t-49.5 -20.5zM250 -210q-48 0 -87 14.5t-66.5 40t-42 60t-14.5 75.5q0 28 9 53t24.5 47.5t35.5 43t41 38.5q17 14 28 26.5t17.5 24t9 23t2.5 24.5v50h88v-60 q0 -19 -2.5 -35.5t-11 -33t-24 -34.5t-41.5 -40q-42 -36 -64 -65t-22 -62q0 -48 32 -79t88 -31t88 31t32 79h90q0 -41 -14.5 -75.5t-42 -60t-66.5 -40t-87 -14.5z" glyph-name="questiondown" horiz-adv-x="500" unicode="¿"/>
<glyph d="M481 174h-296l-67 -174h-98l268 700h94l268 -700h-102zM216 256h234l-117 324zM145 900h119l111 -150h-80z" glyph-name="Agrave" unicode="À"/>
<glyph d="M481 174h-296l-67 -174h-98l268 700h94l268 -700h-102zM216 256h234l-117 324zM405 900h120l-150 -150h-80z" glyph-name="Aacute" unicode="Á"/>
<glyph d="M481 174h-296l-67 -174h-98l268 700h94l268 -700h-102zM216 256h234l-117 324zM285 900h99l111 -150h-80l-80 80l-80 -80h-80z" glyph-name="Acircumflex" unicode="Â"/>
<glyph d="M481 174h-296l-67 -174h-98l268 700h94l268 -700h-102zM216 256h234l-117 324zM405 760q-24 0 -42.5 7t-34 15.5t-29.5 15.5t-29 7q-11 0 -18.5 -6t-12.5 -14q-5 -9 -9 -20l-65 20q7 29 20 52q11 20 30.5 36.5t49.5 16.5q24 0 42.5 -7t34 -15.5t29.5 -15.5t29 -7 q11 0 18.5 6t12.5 14q5 9 9 20l65 -20q-7 -30 -20 -53q-11 -20 -30.5 -36t-49.5 -16z" glyph-name="Atilde" unicode="Ã"/>
<glyph d="M481 174h-296l-67 -174h-98l268 700h94l268 -700h-102zM216 256h234l-117 324zM225 765q-25 0 -42.5 17.5t-17.5 42.5t17.5 42.5t42.5 17.5t42.5 -17.5t17.5 -42.5t-17.5 -42.5t-42.5 -17.5zM445 765q-25 0 -42.5 17.5t-17.5 42.5t17.5 42.5t42.5 17.5t42.5 -17.5 t17.5 -42.5t-17.5 -42.5t-42.5 -17.5z" glyph-name="Adieresis" unicode="Ä"/>
<glyph d="M481 174h-296l-67 -174h-98l268 700h94l268 -700h-102zM216 256h234l-117 324zM335 735q-26 0 -47.5 8.5t-38 23t-25.5 34.5t-9 44t9 44t25.5 34.5t38 23t47.5 8.5q25 0 47 -8.5t38.5 -23t25.5 -34.5t9 -44t-9 -44t-25.5 -34.5t-38.5 -23t-47 -8.5zM335 795q22 0 36 14 t14 36t-14 36t-36 14t-36 -14t-14 -36t14 -36t36 -14z" glyph-name="Aring" unicode="Å"/>
<glyph d="M440 256v320l-177 -320h177zM419 700h471v-82h-356v-217h326v-82h-326v-237h356v-82h-450v174h-225l-101 -174h-104z" glyph-name="AE" horiz-adv-x="950" unicode="Æ"/>
<glyph d="M355 -10q-59 0 -112 20.5t-94 64t-65 110.5t-24 160v20q0 90 24 155t65 107t94 62.5t112 20.5q57 0 104.5 -15t83.5 -43t58.5 -69t28.5 -93h-100q-14 68 -59 102t-116 34q-37 0 -72 -14t-62.5 -44.5t-44 -80.5t-16.5 -122v-20q0 -76 18 -127.5t46 -83.5t63 -46t68 -14 q78 0 122 38t53 98h100q-8 -58 -32 -99.5t-60.5 -68.5t-83 -39.5t-99.5 -12.5zM325 -210q-25 0 -41 3q-10 1 -19 3v62q6 -1 14 -2q7 -1 16 -1.5t20 -0.5q28 0 39 9.5t11 23.5q0 12 -9.5 22t-47.5 10l17 91h64l-7 -48q39 -10 51 -32t12 -45q0 -43 -29 -69t-91 -26z" glyph-name="Ccedilla" horiz-adv-x="680" unicode="Ç"/>
<glyph d="M100 700h450v-82h-356v-217h326v-82h-326v-237h356v-82h-450v700zM135 900h119l111 -150h-80z" glyph-name="Egrave" horiz-adv-x="610" unicode="È"/>
<glyph d="M100 700h450v-82h-356v-217h326v-82h-326v-237h356v-82h-450v700zM395 900h120l-150 -150h-80z" glyph-name="Eacute" horiz-adv-x="610" unicode="É"/>
<glyph d="M100 700h450v-82h-356v-217h326v-82h-326v-237h356v-82h-450v700zM275 900h99l111 -150h-80l-80 80l-80 -80h-80z" glyph-name="Ecircumflex" horiz-adv-x="610" unicode="Ê"/>
<glyph d="M100 700h450v-82h-356v-217h326v-82h-326v-237h356v-82h-450v700zM215 765q-25 0 -42.5 17.5t-17.5 42.5t17.5 42.5t42.5 17.5t42.5 -17.5t17.5 -42.5t-17.5 -42.5t-42.5 -17.5zM435 765q-25 0 -42.5 17.5t-17.5 42.5t17.5 42.5t42.5 17.5t42.5 -17.5t17.5 -42.5 t-17.5 -42.5t-42.5 -17.5z" glyph-name="Edieresis" horiz-adv-x="610" unicode="Ë"/>
<glyph d="M110 700h94v-700h-94v700zM-32 900h119l111 -150h-80z" glyph-name="Igrave" horiz-adv-x="314" unicode="Ì"/>
<glyph d="M110 700h94v-700h-94v700zM227 900h120l-150 -150h-80z" glyph-name="Iacute" horiz-adv-x="314" unicode="Í"/>
<glyph d="M110 700h94v-700h-94v700zM108 900h99l111 -150h-80l-80 80l-80 -80h-80z" glyph-name="Icircumflex" horiz-adv-x="314" unicode="Î"/>
<glyph d="M110 700h94v-700h-94v700zM48 765q-25 0 -42.5 17.5t-17.5 42.5t17.5 42.5t42.5 17.5t42.5 -17.5t17.5 -42.5t-17.5 -42.5t-42.5 -17.5zM268 765q-25 0 -42.5 17.5t-17.5 42.5t17.5 42.5t42.5 17.5t42.5 -17.5t17.5 -42.5t-17.5 -42.5t-42.5 -17.5z" glyph-name="Idieresis" horiz-adv-x="314" unicode="Ï"/>
<glyph d="M300 82q59 0 106.5 15t80.5 46.5t50.5 81.5t17.5 120v20q0 67 -17 115t-49 78.5t-77.5 45t-101.5 14.5h-101v-227h176v-72h-176v-237h91zM115 319h-80v72h80v309h205q79 0 141 -21.5t105 -63.5t66 -105t23 -145v-20q0 -84 -23.5 -148.5t-68 -108t-108.5 -66t-145 -22.5 h-195v319z" glyph-name="Eth" horiz-adv-x="715" unicode="Ð"/>
<glyph d="M100 700h92l376 -545v545h92v-700h-92l-376 545v-545h-92v700zM450 760q-24 0 -42.5 7t-34 15.5t-29.5 15.5t-29 7q-11 0 -18.5 -6t-12.5 -14q-5 -9 -9 -20l-65 20q7 29 20 52q11 20 30.5 36.5t49.5 16.5q24 0 42.5 -7t34 -15.5t29.5 -15.5t29 -7q11 0 18.5 6t12.5 14 q5 9 9 20l65 -20q-7 -30 -20 -53q-11 -20 -30.5 -36t-49.5 -16z" glyph-name="Ntilde" horiz-adv-x="760" unicode="Ñ"/>
<glyph d="M370 -10q-60 0 -116 20.5t-99 63.5t-69 110t-26 161v20q0 90 26 155t69 107.5t99 62.5t116 20t116 -20t99 -62.5t69 -107.5t26 -155v-20q0 -94 -26 -161t-69 -110t-99 -63.5t-116 -20.5zM370 74q41 0 79 15t67 47.5t46.5 84t17.5 124.5v20q0 69 -17.5 118.5t-46.5 81 t-67 46.5t-79 15t-79 -15t-67 -46.5t-46.5 -81t-17.5 -118.5v-20q0 -73 17.5 -124.5t46.5 -84t67 -47.5t79 -15zM180 900h119l111 -150h-80z" glyph-name="Ograve" horiz-adv-x="740" unicode="Ò"/>
<glyph d="M370 -10q-60 0 -116 20.5t-99 63.5t-69 110t-26 161v20q0 90 26 155t69 107.5t99 62.5t116 20t116 -20t99 -62.5t69 -107.5t26 -155v-20q0 -94 -26 -161t-69 -110t-99 -63.5t-116 -20.5zM370 74q41 0 79 15t67 47.5t46.5 84t17.5 124.5v20q0 69 -17.5 118.5t-46.5 81 t-67 46.5t-79 15t-79 -15t-67 -46.5t-46.5 -81t-17.5 -118.5v-20q0 -73 17.5 -124.5t46.5 -84t67 -47.5t79 -15zM440 900h120l-150 -150h-80z" glyph-name="Oacute" horiz-adv-x="740" unicode="Ó"/>
<glyph d="M370 -10q-60 0 -116 20.5t-99 63.5t-69 110t-26 161v20q0 90 26 155t69 107.5t99 62.5t116 20t116 -20t99 -62.5t69 -107.5t26 -155v-20q0 -94 -26 -161t-69 -110t-99 -63.5t-116 -20.5zM370 74q41 0 79 15t67 47.5t46.5 84t17.5 124.5v20q0 69 -17.5 118.5t-46.5 81 t-67 46.5t-79 15t-79 -15t-67 -46.5t-46.5 -81t-17.5 -118.5v-20q0 -73 17.5 -124.5t46.5 -84t67 -47.5t79 -15zM320 900h99l111 -150h-80l-80 80l-80 -80h-80z" glyph-name="Ocircumflex" horiz-adv-x="740" unicode="Ô"/>
<glyph d="M370 -10q-60 0 -116 20.5t-99 63.5t-69 110t-26 161v20q0 90 26 155t69 107.5t99 62.5t116 20t116 -20t99 -62.5t69 -107.5t26 -155v-20q0 -94 -26 -161t-69 -110t-99 -63.5t-116 -20.5zM370 74q41 0 79 15t67 47.5t46.5 84t17.5 124.5v20q0 69 -17.5 118.5t-46.5 81 t-67 46.5t-79 15t-79 -15t-67 -46.5t-46.5 -81t-17.5 -118.5v-20q0 -73 17.5 -124.5t46.5 -84t67 -47.5t79 -15zM440 760q-24 0 -42.5 7t-34 15.5t-29.5 15.5t-29 7q-11 0 -18.5 -6t-12.5 -14q-5 -9 -9 -20l-65 20q7 29 20 52q11 20 30.5 36.5t49.5 16.5q24 0 42.5 -7 t34 -15.5t29.5 -15.5t29 -7q11 0 18.5 6t12.5 14q5 9 9 20l65 -20q-7 -30 -20 -53q-11 -20 -30.5 -36t-49.5 -16z" glyph-name="Otilde" horiz-adv-x="740" unicode="Õ"/>
<glyph d="M370 -10q-60 0 -116 20.5t-99 63.5t-69 110t-26 161v20q0 90 26 155t69 107.5t99 62.5t116 20t116 -20t99 -62.5t69 -107.5t26 -155v-20q0 -94 -26 -161t-69 -110t-99 -63.5t-116 -20.5zM370 74q41 0 79 15t67 47.5t46.5 84t17.5 124.5v20q0 69 -17.5 118.5t-46.5 81 t-67 46.5t-79 15t-79 -15t-67 -46.5t-46.5 -81t-17.5 -118.5v-20q0 -73 17.5 -124.5t46.5 -84t67 -47.5t79 -15zM260 765q-25 0 -42.5 17.5t-17.5 42.5t17.5 42.5t42.5 17.5t42.5 -17.5t17.5 -42.5t-17.5 -42.5t-42.5 -17.5zM480 765q-25 0 -42.5 17.5t-17.5 42.5t17.5 42.5 t42.5 17.5t42.5 -17.5t17.5 -42.5t-17.5 -42.5t-42.5 -17.5z" glyph-name="Odieresis" horiz-adv-x="740" unicode="Ö"/>
<glyph d="M75 219l141 141l-141 141l59 59l141 -141l141 141l59 -59l-141 -141l141 -141l-59 -59l-141 141l-141 -141z" glyph-name="multiply" horiz-adv-x="550" unicode="×"/>
<glyph d="M370 626q-41 0 -79 -15t-67 -46.5t-46.5 -81t-17.5 -118.5v-20q0 -52 8.5 -92.5t24.5 -71.5l313 394q-29 26 -63.5 38.5t-72.5 12.5zM370 74q41 0 79 15t67 47.5t46.5 84t17.5 124.5v20q0 48 -8.5 86.5t-24.5 68.5l-313 -395q29 -26 63.5 -38.5t72.5 -12.5zM370 -10 q-53 0 -102 15.5t-91 47.5l-50 -63l-52 42l55 70q-32 43 -51 102.5t-19 140.5v20q0 90 26 155t69 107.5t99 62.5t116 20q53 0 102 -15.5t91 -47.5l50 63l52 -42l-55 -69q32 -42 51 -100t19 -134v-20q0 -94 -26 -161t-69 -110t-99 -63.5t-116 -20.5z" glyph-name="Oslash" horiz-adv-x="740" unicode="Ø"/>
<glyph d="M365 -10q-63 0 -113.5 18t-86.5 55t-55.5 93.5t-19.5 133.5v410h94v-410q0 -114 48 -165t133 -51t133 51t48 165v410h94v-410q0 -77 -19.5 -133.5t-55.5 -93.5t-86.5 -55t-113.5 -18zM175 900h119l111 -150h-80z" glyph-name="Ugrave" horiz-adv-x="730" unicode="Ù"/>
<glyph d="M365 -10q-63 0 -113.5 18t-86.5 55t-55.5 93.5t-19.5 133.5v410h94v-410q0 -114 48 -165t133 -51t133 51t48 165v410h94v-410q0 -77 -19.5 -133.5t-55.5 -93.5t-86.5 -55t-113.5 -18zM435 900h120l-150 -150h-80z" glyph-name="Uacute" horiz-adv-x="730" unicode="Ú"/>
<glyph d="M365 -10q-63 0 -113.5 18t-86.5 55t-55.5 93.5t-19.5 133.5v410h94v-410q0 -114 48 -165t133 -51t133 51t48 165v410h94v-410q0 -77 -19.5 -133.5t-55.5 -93.5t-86.5 -55t-113.5 -18zM315 900h99l111 -150h-80l-80 80l-80 -80h-80z" glyph-name="Ucircumflex" horiz-adv-x="730" unicode="Û"/>
<glyph d="M365 -10q-63 0 -113.5 18t-86.5 55t-55.5 93.5t-19.5 133.5v410h94v-410q0 -114 48 -165t133 -51t133 51t48 165v410h94v-410q0 -77 -19.5 -133.5t-55.5 -93.5t-86.5 -55t-113.5 -18zM255 765q-25 0 -42.5 17.5t-17.5 42.5t17.5 42.5t42.5 17.5t42.5 -17.5t17.5 -42.5 t-17.5 -42.5t-42.5 -17.5zM475 765q-25 0 -42.5 17.5t-17.5 42.5t17.5 42.5t42.5 17.5t42.5 -17.5t17.5 -42.5t-17.5 -42.5t-42.5 -17.5z" glyph-name="Udieresis" horiz-adv-x="730" unicode="Ü"/>
<glyph d="M283 277l-273 423h108l211 -326l197 326h104l-253 -423v-277h-94v277zM392 900h120l-150 -150h-80z" glyph-name="Yacute" horiz-adv-x="640" unicode="Ý"/>
<glyph d="M335 227q50 0 84.5 9.5t56 26.5t31 42t9.5 55t-9.5 55t-31 42t-56 26.5t-84.5 9.5h-141v-266h141zM100 700h94v-125h146q69 0 120 -16t84.5 -44.5t49.5 -68t16 -86.5t-16 -86.5t-49.5 -68t-84.5 -44.5t-120 -16h-146v-145h-94v700z" glyph-name="Thorn" horiz-adv-x="655" unicode="Þ"/>
<glyph d="M80 485q0 53 15 95t42.5 71t66 44t86.5 15q47 0 84 -13.5t63 -36.5t39.5 -55.5t13.5 -69.5q0 -51 -26 -91t-74 -57q38 -6 65 -23t43.5 -41t24 -52t7.5 -56v-9q0 -105 -56 -158t-179 -53q-11 0 -25 0.5t-25 2.5v80q11 -2 25 -2.5t25 -0.5q76 0 111.5 34t35.5 97v9 q0 63 -35.5 96.5t-111.5 33.5h-20v70h15q54 0 83 28.5t29 79.5q0 50 -29 78.5t-83 28.5t-88 -37t-34 -108v-485h-88v485z" glyph-name="germandbls" horiz-adv-x="580" unicode="ß"/>
<glyph d="M231 -10q-44 0 -77.5 12.5t-56.5 34.5t-35 52t-12 66q0 79 46.5 114t133.5 35h172v36q0 68 -30.5 94t-91.5 26q-57 0 -83 -21.5t-29 -48.5h-88q2 32 17.5 59.5t42 47.5t63.5 31.5t82 11.5q94 0 149.5 -44.5t55.5 -145.5v-215q0 -42 0.5 -73.5t4.5 -61.5h-77 q-3 23 -4 43.5t-1 46.5q-21 -42 -68 -71t-114 -29zM250 70q31 0 58.5 8.5t48.5 25t33 40.5t12 56v36h-157q-49 0 -77 -19.5t-28 -61.5q0 -37 26.5 -61t83.5 -24zM100 740h110l110 -160h-70z" glyph-name="agrave" horiz-adv-x="565" unicode="à"/>
<glyph d="M231 -10q-44 0 -77.5 12.5t-56.5 34.5t-35 52t-12 66q0 79 46.5 114t133.5 35h172v36q0 68 -30.5 94t-91.5 26q-57 0 -83 -21.5t-29 -48.5h-88q2 32 17.5 59.5t42 47.5t63.5 31.5t82 11.5q94 0 149.5 -44.5t55.5 -145.5v-215q0 -42 0.5 -73.5t4.5 -61.5h-77 q-3 23 -4 43.5t-1 46.5q-21 -42 -68 -71t-114 -29zM250 70q31 0 58.5 8.5t48.5 25t33 40.5t12 56v36h-157q-49 0 -77 -19.5t-28 -61.5q0 -37 26.5 -61t83.5 -24zM360 740h110l-150 -160h-70z" glyph-name="aacute" horiz-adv-x="565" unicode="á"/>
<glyph d="M231 -10q-44 0 -77.5 12.5t-56.5 34.5t-35 52t-12 66q0 79 46.5 114t133.5 35h172v36q0 68 -30.5 94t-91.5 26q-57 0 -83 -21.5t-29 -48.5h-88q2 32 17.5 59.5t42 47.5t63.5 31.5t82 11.5q94 0 149.5 -44.5t55.5 -145.5v-215q0 -42 0.5 -73.5t4.5 -61.5h-77 q-3 23 -4 43.5t-1 46.5q-21 -42 -68 -71t-114 -29zM250 70q31 0 58.5 8.5t48.5 25t33 40.5t12 56v36h-157q-49 0 -77 -19.5t-28 -61.5q0 -37 26.5 -61t83.5 -24zM240 740h90l110 -160h-70l-85 91l-85 -91h-70z" glyph-name="acircumflex" horiz-adv-x="565" unicode="â"/>
<glyph d="M231 -10q-44 0 -77.5 12.5t-56.5 34.5t-35 52t-12 66q0 79 46.5 114t133.5 35h172v36q0 68 -30.5 94t-91.5 26q-57 0 -83 -21.5t-29 -48.5h-88q2 32 17.5 59.5t42 47.5t63.5 31.5t82 11.5q94 0 149.5 -44.5t55.5 -145.5v-215q0 -42 0.5 -73.5t4.5 -61.5h-77 q-3 23 -4 43.5t-1 46.5q-21 -42 -68 -71t-114 -29zM250 70q31 0 58.5 8.5t48.5 25t33 40.5t12 56v36h-157q-49 0 -77 -19.5t-28 -61.5q0 -37 26.5 -61t83.5 -24zM343 600q-23 0 -39.5 7t-30 16t-25.5 16t-25 7q-11 0 -18 -6.5t-11 -14.5q-4 -9 -6 -20l-55 15q6 28 17 50 q10 19 27 34.5t46 15.5q22 0 39 -7t30.5 -16t25.5 -16t25 -7q11 0 18 6t11 14q4 9 6 21l55 -15q-6 -28 -17 -50q-10 -19 -27.5 -34.5t-45.5 -15.5z" glyph-name="atilde" horiz-adv-x="565" unicode="ã"/>
<glyph d="M231 -10q-44 0 -77.5 12.5t-56.5 34.5t-35 52t-12 66q0 79 46.5 114t133.5 35h172v36q0 68 -30.5 94t-91.5 26q-57 0 -83 -21.5t-29 -48.5h-88q2 32 17.5 59.5t42 47.5t63.5 31.5t82 11.5q94 0 149.5 -44.5t55.5 -145.5v-215q0 -42 0.5 -73.5t4.5 -61.5h-77 q-3 23 -4 43.5t-1 46.5q-21 -42 -68 -71t-114 -29zM250 70q31 0 58.5 8.5t48.5 25t33 40.5t12 56v36h-157q-49 0 -77 -19.5t-28 -61.5q0 -37 26.5 -61t83.5 -24zM183 602q-24 0 -41 17t-17 41t17 41t41 17t41 -17t17 -41t-17 -41t-41 -17zM387 602q-24 0 -41 17t-17 41 t17 41t41 17t41 -17t17 -41t-17 -41t-41 -17z" glyph-name="adieresis" horiz-adv-x="565" unicode="ä"/>
<glyph d="M231 -10q-44 0 -77.5 12.5t-56.5 34.5t-35 52t-12 66q0 79 46.5 114t133.5 35h172v36q0 68 -30.5 94t-91.5 26q-57 0 -83 -21.5t-29 -48.5h-88q2 32 17.5 59.5t42 47.5t63.5 31.5t82 11.5q94 0 149.5 -44.5t55.5 -145.5v-215q0 -42 0.5 -73.5t4.5 -61.5h-77 q-3 23 -4 43.5t-1 46.5q-21 -42 -68 -71t-114 -29zM250 70q31 0 58.5 8.5t48.5 25t33 40.5t12 56v36h-157q-49 0 -77 -19.5t-28 -61.5q0 -37 26.5 -61t83.5 -24zM285 575q-24 0 -45 8t-36.5 22t-24.5 33t-9 42q0 22 9 41.5t24.5 33.5t36.5 22t45 8t45 -8t36.5 -22 t24.5 -33.5t9 -41.5q0 -23 -9 -42t-24.5 -33t-36.5 -22t-45 -8zM285 633q21 0 34 13t13 34t-13 34t-34 13t-34 -13t-13 -34t13 -34t34 -13z" glyph-name="aring" horiz-adv-x="565" unicode="å"/>
<glyph d="M650 460q-31 0 -60 -9t-51.5 -27.5t-36.5 -47t-14 -67.5h319q-1 41 -13.5 69.5t-33.5 46.5t-49.5 26.5t-60.5 8.5zM251 70q30 0 57.5 8.5t48.5 25t33 40.5t12 56v41h-156q-50 0 -78 -21t-28 -65q0 -37 27 -61t84 -24zM241 -10q-47 0 -83 12.5t-60 34.5t-36 52t-12 66 q0 82 47.5 118t131.5 36h173v31q0 68 -30.5 94t-91.5 26q-57 0 -83 -21.5t-29 -48.5h-88q2 32 17.5 59.5t42 47.5t62.5 31.5t78 11.5q66 0 114.5 -22.5t71.5 -67.5q30 47 73 68.5t106 21.5q117 0 181 -64t64 -181v-54h-402q0 -47 15 -80t39 -53t53.5 -29t59.5 -9 q60 0 92.5 20t46.5 55h86q-8 -38 -28.5 -67t-50 -48.5t-67 -29.5t-79.5 -10q-64 0 -118.5 29t-86.5 86q-29 -53 -78.5 -84t-130.5 -31z" glyph-name="ae" horiz-adv-x="935" unicode="æ"/>
<glyph d="M285 -10q-51 0 -95 16.5t-76 50t-50.5 84.5t-18.5 119v20q0 64 20 113t53 81.5t76.5 49t90.5 16.5t84.5 -13t65 -36t45 -54t25.5 -67h-90q-8 19 -18.5 35.5t-26 28.5t-36.5 19t-49 7q-29 0 -56 -10.5t-48 -32t-33.5 -55.5t-12.5 -82v-20q0 -51 12.5 -87.5t33.5 -59 t48 -33t56 -10.5q49 0 82.5 24t47.5 66h90q-19 -79 -78 -124.5t-142 -45.5zM255 -210q-25 0 -41 3q-10 1 -19 3v60q6 -1 14 -2q7 -1 16 -1.5t20 -0.5q28 0 40 10.5t12 24.5q0 12 -10 23t-47 11l17 89h60l-7 -48q20 -5 33 -13.5t20 -19t9.5 -22t2.5 -22.5q0 -43 -29 -69 t-91 -26z" glyph-name="ccedilla" horiz-adv-x="545" unicode="ç"/>
<glyph d="M300 -10q-51 0 -97 16t-81 49.5t-56 84.5t-21 120v20q0 66 20 114.5t53.5 81t78 48.5t93.5 16q117 0 181 -64t64 -181v-56h-402q0 -47 15 -79t39 -52t53.5 -29t59.5 -9q60 0 92.5 20t46.5 55h86q-8 -38 -28.5 -67t-50 -48.5t-67 -29.5t-79.5 -10zM295 460q-31 0 -60 -8.5 t-51.5 -27t-36.5 -46.5t-14 -67h319q-1 41 -13.5 69.5t-33.5 46t-49.5 25.5t-60.5 8zM105 740h110l110 -160h-70z" glyph-name="egrave" horiz-adv-x="580" unicode="è"/>
<glyph d="M300 -10q-51 0 -97 16t-81 49.5t-56 84.5t-21 120v20q0 66 20 114.5t53.5 81t78 48.5t93.5 16q117 0 181 -64t64 -181v-56h-402q0 -47 15 -79t39 -52t53.5 -29t59.5 -9q60 0 92.5 20t46.5 55h86q-8 -38 -28.5 -67t-50 -48.5t-67 -29.5t-79.5 -10zM295 460q-31 0 -60 -8.5 t-51.5 -27t-36.5 -46.5t-14 -67h319q-1 41 -13.5 69.5t-33.5 46t-49.5 25.5t-60.5 8zM365 740h110l-150 -160h-70z" glyph-name="eacute" horiz-adv-x="580" unicode="é"/>
<glyph d="M300 -10q-51 0 -97 16t-81 49.5t-56 84.5t-21 120v20q0 66 20 114.5t53.5 81t78 48.5t93.5 16q117 0 181 -64t64 -181v-56h-402q0 -47 15 -79t39 -52t53.5 -29t59.5 -9q60 0 92.5 20t46.5 55h86q-8 -38 -28.5 -67t-50 -48.5t-67 -29.5t-79.5 -10zM295 460q-31 0 -60 -8.5 t-51.5 -27t-36.5 -46.5t-14 -67h319q-1 41 -13.5 69.5t-33.5 46t-49.5 25.5t-60.5 8zM245 740h90l110 -160h-70l-85 91l-85 -91h-70z" glyph-name="ecircumflex" horiz-adv-x="580" unicode="ê"/>
<glyph d="M300 -10q-51 0 -97 16t-81 49.5t-56 84.5t-21 120v20q0 66 20 114.5t53.5 81t78 48.5t93.5 16q117 0 181 -64t64 -181v-56h-402q0 -47 15 -79t39 -52t53.5 -29t59.5 -9q60 0 92.5 20t46.5 55h86q-8 -38 -28.5 -67t-50 -48.5t-67 -29.5t-79.5 -10zM295 460q-31 0 -60 -8.5 t-51.5 -27t-36.5 -46.5t-14 -67h319q-1 41 -13.5 69.5t-33.5 46t-49.5 25.5t-60.5 8zM188 602q-24 0 -41 17t-17 41t17 41t41 17t41 -17t17 -41t-17 -41t-41 -17zM392 602q-24 0 -41 17t-17 41t17 41t41 17t41 -17t17 -41t-17 -41t-41 -17z" glyph-name="edieresis" horiz-adv-x="580" unicode="ë"/>
<glyph d="M90 530h88v-530h-88v530zM-50 740h110l110 -160h-70z" glyph-name="igrave" horiz-adv-x="268" unicode="ì"/>
<glyph d="M90 530h88v-530h-88v530zM209 740h110l-150 -160h-70z" glyph-name="iacute" horiz-adv-x="268" unicode="í"/>
<glyph d="M90 530h88v-530h-88v530zM90 740h90l110 -160h-70l-85 91l-85 -91h-70z" glyph-name="icircumflex" horiz-adv-x="268" unicode="î"/>
<glyph d="M90 530h88v-530h-88v530zM33 602q-24 0 -41 17t-17 41t17 41t41 17t41 -17t17 -41t-17 -41t-41 -17zM237 602q-24 0 -41 17t-17 41t17 41t41 17t41 -17t17 -41t-17 -41t-41 -17z" glyph-name="idieresis" horiz-adv-x="268" unicode="ï"/>
<glyph d="M305 70q30 0 60 10t53 32t37.5 56t14.5 82v20q0 44 -14.5 76t-37.5 53t-53 31t-60 10t-60 -10t-53 -31t-37.5 -53t-14.5 -76v-20q0 -48 14.5 -82t37.5 -56t53 -32t60 -10zM305 -10q-51 0 -97 16.5t-81 49t-56 81t-21 113.5v20q0 61 20.5 107.5t54 78t75.5 48t85 16.5 q54 0 96 -17t71 -53q-23 65 -63 104.5t-102 68.5l-26 -49l-46 21l25 47q-17 7 -34.5 13t-37.5 13l22 74q23 -8 45 -15.5t42 -15.5l25 47l46 -21l-25 -47q66 -32 111.5 -72t73.5 -89.5t40 -109t12 -129.5v-20q0 -72 -21 -125t-56 -87.5t-81 -51t-97 -16.5z" glyph-name="eth" horiz-adv-x="600" unicode="ð"/>
<glyph d="M80 530h82v-100q9 22 25 42t38.5 35t52 24t65.5 9q100 0 148.5 -53.5t48.5 -156.5v-330h-88v310q0 74 -31 112t-104 38q-39 0 -67.5 -13t-46.5 -34t-26.5 -48t-8.5 -55v-310h-88v530zM370 600q-23 0 -39.5 7t-30 16t-25.5 16t-25 7q-11 0 -18 -6.5t-11 -14.5 q-4 -9 -6 -20l-55 15q6 28 17 50q10 19 27 34.5t46 15.5q22 0 39 -7t30.5 -16t25.5 -16t25 -7q11 0 18 6t11 14q4 9 6 21l55 -15q-6 -28 -17 -50q-10 -19 -27.5 -34.5t-45.5 -15.5z" glyph-name="ntilde" horiz-adv-x="615" unicode="ñ"/>
<glyph d="M300 -10q-51 0 -97 16.5t-81 50t-56 84.5t-21 119v20q0 64 21 113t56 81.5t81 49t97 16.5t97 -16.5t81 -49t56 -81.5t21 -113v-20q0 -68 -21 -119t-56 -84.5t-81 -50t-97 -16.5zM300 70q30 0 60 10.5t53 33t37.5 58.5t14.5 88v20q0 48 -14.5 82t-37.5 56t-53 32t-60 10 t-60 -10t-53 -32t-37.5 -56t-14.5 -82v-20q0 -52 14.5 -88t37.5 -58.5t53 -33t60 -10.5zM115 740h110l110 -160h-70z" glyph-name="ograve" horiz-adv-x="600" unicode="ò"/>
<glyph d="M300 -10q-51 0 -97 16.5t-81 50t-56 84.5t-21 119v20q0 64 21 113t56 81.5t81 49t97 16.5t97 -16.5t81 -49t56 -81.5t21 -113v-20q0 -68 -21 -119t-56 -84.5t-81 -50t-97 -16.5zM300 70q30 0 60 10.5t53 33t37.5 58.5t14.5 88v20q0 48 -14.5 82t-37.5 56t-53 32t-60 10 t-60 -10t-53 -32t-37.5 -56t-14.5 -82v-20q0 -52 14.5 -88t37.5 -58.5t53 -33t60 -10.5zM375 740h110l-150 -160h-70z" glyph-name="oacute" horiz-adv-x="600" unicode="ó"/>
<glyph d="M300 -10q-51 0 -97 16.5t-81 50t-56 84.5t-21 119v20q0 64 21 113t56 81.5t81 49t97 16.5t97 -16.5t81 -49t56 -81.5t21 -113v-20q0 -68 -21 -119t-56 -84.5t-81 -50t-97 -16.5zM300 70q30 0 60 10.5t53 33t37.5 58.5t14.5 88v20q0 48 -14.5 82t-37.5 56t-53 32t-60 10 t-60 -10t-53 -32t-37.5 -56t-14.5 -82v-20q0 -52 14.5 -88t37.5 -58.5t53 -33t60 -10.5zM255 740h90l110 -160h-70l-85 91l-85 -91h-70z" glyph-name="ocircumflex" horiz-adv-x="600" unicode="ô"/>
<glyph d="M300 -10q-51 0 -97 16.5t-81 50t-56 84.5t-21 119v20q0 64 21 113t56 81.5t81 49t97 16.5t97 -16.5t81 -49t56 -81.5t21 -113v-20q0 -68 -21 -119t-56 -84.5t-81 -50t-97 -16.5zM300 70q30 0 60 10.5t53 33t37.5 58.5t14.5 88v20q0 48 -14.5 82t-37.5 56t-53 32t-60 10 t-60 -10t-53 -32t-37.5 -56t-14.5 -82v-20q0 -52 14.5 -88t37.5 -58.5t53 -33t60 -10.5zM360 600q-23 0 -39.5 7t-30 16t-25.5 16t-25 7q-11 0 -18 -6.5t-11 -14.5q-4 -9 -6 -20l-55 15q6 28 17 50q10 19 27 34.5t46 15.5q22 0 39 -7t30.5 -16t25.5 -16t25 -7q11 0 18 6 t11 14q4 9 6 21l55 -15q-6 -28 -17 -50q-10 -19 -27.5 -34.5t-45.5 -15.5z" glyph-name="otilde" horiz-adv-x="600" unicode="õ"/>
<glyph d="M300 -10q-51 0 -97 16.5t-81 50t-56 84.5t-21 119v20q0 64 21 113t56 81.5t81 49t97 16.5t97 -16.5t81 -49t56 -81.5t21 -113v-20q0 -68 -21 -119t-56 -84.5t-81 -50t-97 -16.5zM300 70q30 0 60 10.5t53 33t37.5 58.5t14.5 88v20q0 48 -14.5 82t-37.5 56t-53 32t-60 10 t-60 -10t-53 -32t-37.5 -56t-14.5 -82v-20q0 -52 14.5 -88t37.5 -58.5t53 -33t60 -10.5zM198 602q-24 0 -41 17t-17 41t17 41t41 17t41 -17t17 -41t-17 -41t-41 -17zM402 602q-24 0 -41 17t-17 41t17 41t41 17t41 -17t17 -41t-17 -41t-41 -17z" glyph-name="odieresis" horiz-adv-x="600" unicode="ö"/>
<glyph d="M275 461q-29 0 -49.5 20.5t-20.5 49.5q0 30 20.5 50t49.5 20t49.5 -20t20.5 -50q0 -29 -20.5 -49.5t-49.5 -20.5zM275 119q-29 0 -49.5 20.5t-20.5 49.5q0 30 20.5 50t49.5 20t49.5 -20t20.5 -50q0 -29 -20.5 -49.5t-49.5 -20.5zM50 401h450v-82h-450v82z" glyph-name="divide" horiz-adv-x="550" unicode="÷"/>
<glyph d="M300 460q-30 0 -60 -10t-53 -32t-37.5 -56t-14.5 -82v-20q0 -36 7 -64.5t20 -50.5l240 282q-23 17 -49 25t-53 8zM300 70q30 0 60 10.5t53 33t37.5 58.5t14.5 88v20q0 32 -7 58t-19 46l-240 -281q22 -17 48 -25t53 -8zM300 -10q-44 0 -84 12t-73 36l-41 -48l-42 36l43 51 q-27 33 -42.5 78t-15.5 105v20q0 64 21 113t56 81.5t81 49t97 16.5q44 0 84 -12t73 -36l41 48l42 -38l-42 -49q26 -32 41.5 -75t15.5 -98v-20q0 -68 -21 -119t-56 -84.5t-81 -50t-97 -16.5z" glyph-name="oslash" horiz-adv-x="600" unicode="ø"/>
<glyph d="M267 -10q-96 0 -144 55t-48 170v315h88v-310q0 -74 30.5 -112t99.5 -38q37 0 64.5 13t45 34t26 48t8.5 55v310h88v-530h-82v100q-9 -22 -24.5 -42t-38 -35t-51 -24t-62.5 -9zM115 740h110l110 -160h-70z" glyph-name="ugrave" horiz-adv-x="605" unicode="ù"/>
<glyph d="M267 -10q-96 0 -144 55t-48 170v315h88v-310q0 -74 30.5 -112t99.5 -38q37 0 64.5 13t45 34t26 48t8.5 55v310h88v-530h-82v100q-9 -22 -24.5 -42t-38 -35t-51 -24t-62.5 -9zM375 740h110l-150 -160h-70z" glyph-name="uacute" horiz-adv-x="605" unicode="ú"/>
<glyph d="M267 -10q-96 0 -144 55t-48 170v315h88v-310q0 -74 30.5 -112t99.5 -38q37 0 64.5 13t45 34t26 48t8.5 55v310h88v-530h-82v100q-9 -22 -24.5 -42t-38 -35t-51 -24t-62.5 -9zM255 740h90l110 -160h-70l-85 91l-85 -91h-70z" glyph-name="ucircumflex" horiz-adv-x="605" unicode="û"/>
<glyph d="M267 -10q-96 0 -144 55t-48 170v315h88v-310q0 -74 30.5 -112t99.5 -38q37 0 64.5 13t45 34t26 48t8.5 55v310h88v-530h-82v100q-9 -22 -24.5 -42t-38 -35t-51 -24t-62.5 -9zM198 602q-24 0 -41 17t-17 41t17 41t41 17t41 -17t17 -41t-17 -41t-41 -17zM402 602 q-24 0 -41 17t-17 41t17 41t41 17t41 -17t17 -41t-17 -41t-41 -17z" glyph-name="udieresis" horiz-adv-x="605" unicode="ü"/>
<glyph d="M150 -210q-15 0 -30 3v80q15 -3 30 -3t26 5t21 19t21.5 39.5t26.5 66.5l-225 530h98l172 -430l156 430h94l-200 -530q-21 -56 -40 -96t-40.5 -65.5t-47.5 -37t-62 -11.5zM357 740h110l-150 -160h-70z" glyph-name="yacute" horiz-adv-x="560" unicode="ý"/>
<glyph d="M330 68q32 0 60 12.5t48.5 36.5t32 60t11.5 83v20q0 43 -11.5 77t-32 57.5t-48.5 35.5t-60 12q-36 0 -66 -11.5t-51 -32t-33 -48.5t-12 -60v-80q0 -36 12 -66t33 -51t51 -33t66 -12zM80 700h88v-265q23 49 70.5 77t111.5 28q50 0 91 -16.5t69.5 -49t44 -81.5t15.5 -113 v-20q0 -67 -16 -117.5t-45 -84.5t-69.5 -51t-89.5 -17q-68 0 -113.5 30t-68.5 75v-295h-88v900z" glyph-name="thorn" horiz-adv-x="615" unicode="þ"/>
<glyph d="M150 -210q-15 0 -30 3v80q15 -3 30 -3t26 5t21 19t21.5 39.5t26.5 66.5l-225 530h98l172 -430l156 430h94l-200 -530q-21 -56 -40 -96t-40.5 -65.5t-47.5 -37t-62 -11.5zM180 602q-24 0 -41 17t-17 41t17 41t41 17t41 -17t17 -41t-17 -41t-41 -17zM384 602q-24 0 -41 17 t-17 41t17 41t41 17t41 -17t17 -41t-17 -41t-41 -17z" glyph-name="ydieresis" horiz-adv-x="560" unicode="ÿ"/>
<glyph d="M90 530h88v-530h-88v530z" glyph-name="dotlessi" horiz-adv-x="268" unicode="ı"/>
<glyph d="M120 272l-100 -57v82l100 57v346h94v-292l176 102v-82l-176 -102v-244h356v-82h-450v272z" glyph-name="Lslash" horiz-adv-x="590" unicode="Ł"/>
<glyph d="M255 -5q-83 0 -119 40t-36 130v181l-80 -46v78l80 46v276h88v-225l112 65v-78l-112 -65v-232q0 -52 17 -71t60 -19q11 0 19 0.5t16 1.5v-78q-8 -2 -22.5 -3t-22.5 -1z" glyph-name="lslash" horiz-adv-x="340" unicode="ł"/>
<glyph d="M370 74q41 0 79 15t67 47.5t46.5 84t17.5 124.5v20q0 69 -17.5 118.5t-46.5 81t-67 46.5t-79 15t-79 -15t-67 -46.5t-46.5 -81t-17.5 -118.5v-20q0 -73 17.5 -124.5t46.5 -84t67 -47.5t79 -15zM370 -10q-60 0 -116 20.5t-99 63.5t-69 110t-26 161v20q0 90 26 155 t69 107.5t99 62.5t116 20q63 0 118 -21t92 -66v77h450v-82h-356v-217h326v-82h-326v-237h356v-82h-450v78q-37 -47 -92 -67.5t-118 -20.5z" glyph-name="OE" horiz-adv-x="1090" unicode="Œ"/>
<glyph d="M715 460q-31 0 -60 -8.5t-51.5 -27t-36.5 -46.5t-14 -67h319q-1 41 -13.5 69.5t-33.5 46t-49.5 25.5t-60.5 8zM300 70q30 0 60 10.5t53 33t37.5 58.5t14.5 88v20q0 48 -14.5 82t-37.5 56t-53 32t-60 10t-60 -10t-53 -32t-37.5 -56t-14.5 -82v-20q0 -52 14.5 -88 t37.5 -58.5t53 -33t60 -10.5zM300 -10q-51 0 -97 16.5t-81 50t-56 84.5t-21 119v20q0 64 21 113t56 81.5t81 49t97 16.5q66 0 121 -28t87 -84q31 57 84 84.5t118 27.5q117 0 181 -64t64 -181v-56h-402q0 -47 15 -79t39 -52t53.5 -29t59.5 -9q60 0 92.5 20t46.5 55h86 q-8 -38 -28.5 -67t-50 -48.5t-67 -29.5t-79.5 -10q-68 0 -123.5 28t-87.5 88q-32 -59 -87 -87.5t-122 -28.5z" glyph-name="oe" horiz-adv-x="1000" unicode="œ"/>
<glyph d="M320 -10q-63 0 -110 15t-79 41.5t-50.5 62t-25.5 76.5h94q5 -23 17 -43.5t32.5 -35.5t50.5 -23.5t71 -8.5q84 0 127.5 32t43.5 79q0 29 -9.5 49t-32 35t-59 27t-89.5 24q-59 13 -101.5 28.5t-70 39t-41 56.5t-13.5 81q0 39 17 72.5t48.5 58.5t77 39.5t102.5 14.5 q56 0 98 -14.5t71.5 -39.5t46.5 -58.5t24 -72.5h-94q-5 21 -15 39.5t-27.5 32t-43 21.5t-60.5 8q-72 0 -111.5 -29.5t-39.5 -71.5q0 -27 10 -46.5t31 -34t53.5 -25t77.5 -20.5q65 -14 111.5 -31.5t76 -42.5t43 -59t13.5 -81q0 -41 -18 -76.5t-52 -62t-83 -41.5t-112 -15z M160 900h80l80 -80l80 80h80l-111 -150h-99z" glyph-name="Scaron" horiz-adv-x="640" unicode="Š"/>
<glyph d="M265 -10q-53 0 -91.5 12.5t-65.5 33.5t-42 49t-21 60h88q7 -32 37.5 -55.5t94.5 -23.5q37 0 62 6.5t40.5 17t22.5 25t7 30.5q0 17 -6.5 30t-23 23.5t-45 19t-71.5 14.5q-44 6 -79.5 17.5t-60 30.5t-38 45.5t-13.5 64.5q0 30 13 57t39 48t64 33t89 12q47 0 82 -12.5 t59.5 -33.5t38.5 -49t20 -60h-88q-8 35 -34 57t-78 22q-65 0 -91 -21.5t-26 -52.5q0 -18 6.5 -31t22 -23t41 -16.5t63.5 -11.5q49 -6 87 -17.5t64 -31t39.5 -47.5t13.5 -67q0 -32 -13.5 -60t-40.5 -49t-68.5 -33.5t-97.5 -12.5zM110 740h70l85 -91l85 91h70l-110 -160h-90z " glyph-name="scaron" horiz-adv-x="530" unicode="š"/>
<glyph d="M283 277l-273 423h108l211 -326l197 326h104l-253 -423v-277h-94v277zM212 765q-25 0 -42.5 17.5t-17.5 42.5t17.5 42.5t42.5 17.5t42.5 -17.5t17.5 -42.5t-17.5 -42.5t-42.5 -17.5zM432 765q-25 0 -42.5 17.5t-17.5 42.5t17.5 42.5t42.5 17.5t42.5 -17.5t17.5 -42.5 t-17.5 -42.5t-42.5 -17.5z" glyph-name="Ydieresis" horiz-adv-x="640" unicode="Ÿ"/>
<glyph d="M45 77l392 541h-382v82h490v-77l-392 -541h402v-82h-510v77zM140 900h80l80 -80l80 80h80l-111 -150h-99z" glyph-name="Zcaron" horiz-adv-x="600" unicode="Ž"/>
<glyph d="M40 73l314 379h-304v78h410v-73l-314 -379h324v-78h-430v73zM100 740h70l85 -91l85 91h70l-110 -160h-90z" glyph-name="zcaron" horiz-adv-x="510" unicode="ž"/>
<glyph d="M48 -210q-8 0 -24 0.5t-31 2.5v80q8 -2 22.5 -2.5t22.5 -0.5q38 0 55 18.5t17 66.5v497h-75v78h75v10q0 83 38.5 124t121.5 41q30 0 75 -3v-80q-15 2 -32.5 2.5t-32.5 0.5q-46 0 -64 -18.5t-18 -66.5v-10h137v-78h-137v-497q0 -165 -150 -165z" glyph-name="florin" horiz-adv-x="370" unicode="ƒ"/>
<glyph d="M18 -210q-11 0 -25 0.5t-25 2.5v80q8 -2 17.5 -2.5t17.5 -0.5q25 0 42 5.5t27 20t14 39.5t4 65v530h88v-530q0 -62 -8.5 -102.5t-27.5 -64.5t-49.5 -33.5t-74.5 -9.5z" glyph-name="uni0237" horiz-adv-x="268" unicode="ȷ"/>
<glyph d="M95 590v110h110v-110l-100 -150h-50z" glyph-name="uni02BC" horiz-adv-x="275" unicode="ʼ"/>
<glyph d="M130 740h90l110 -160h-70l-85 91l-85 -91h-70z" glyph-name="circumflex" horiz-adv-x="350" unicode="ˆ"/>
<glyph d="M20 740h70l85 -91l85 91h70l-110 -160h-90z" glyph-name="caron" horiz-adv-x="350" unicode="ˇ"/>
<glyph d="M80 600q-26 0 -43 17t-17 43t17 43t43 17t43 -17t17 -43t-17 -43t-43 -17z" glyph-name="dotaccent" horiz-adv-x="160" unicode="˙"/>
<glyph d="M135 633q21 0 34 13t13 34t-13 34t-34 13t-34 -13t-13 -34t13 -34t34 -13zM135 575q-24 0 -45 8t-36.5 22t-24.5 33t-9 42q0 22 9 41.5t24.5 33.5t36.5 22t45 8t45 -8t36.5 -22t24.5 -33.5t9 -41.5q0 -23 -9 -42t-24.5 -33t-36.5 -22t-45 -8z" glyph-name="ring" horiz-adv-x="270" unicode="˚"/>
<glyph d="M230 600q-23 0 -39.5 7t-30 16t-25.5 16t-25 7q-11 0 -18 -6.5t-11 -14.5q-4 -9 -6 -20l-55 15q6 28 17 50q10 19 27 34.5t46 15.5q22 0 39 -7t30.5 -16t25.5 -16t25 -7q11 0 18 6t11 14q4 9 6 21l55 -15q-6 -28 -17 -50q-10 -19 -27.5 -34.5t-45.5 -15.5z" glyph-name="tilde" horiz-adv-x="340" unicode="˜"/>
<glyph d="M232 580l130 160h110l-170 -160h-70zM52 580l110 160h110l-150 -160h-70z" glyph-name="hungarumlaut" horiz-adv-x="520" unicode="˝"/>
<glyph d="M100 700h450v-82h-356v-217h326v-82h-326v-237h356v-82h-450v700zM215 765q-25 0 -42.5 17.5t-17.5 42.5t17.5 42.5t42.5 17.5t42.5 -17.5t17.5 -42.5t-17.5 -42.5t-42.5 -17.5zM435 765q-25 0 -42.5 17.5t-17.5 42.5t17.5 42.5t42.5 17.5t42.5 -17.5t17.5 -42.5 t-17.5 -42.5t-42.5 -17.5z" glyph-name="uni0401" horiz-adv-x="610" unicode="Ё"/>
<glyph d="M263 618h-243v82h580v-82h-243v-226q26 17 74 31t109 14q117 0 176 -56t59 -155v-20q0 -99 -59 -155t-176 -56q-8 0 -25 0.5t-25 2.5v84q8 -2 20 -2.5t20 -0.5q80 0 115.5 32.5t35.5 94.5v20q0 62 -35.5 94.5t-115.5 32.5q-61 0 -104 -15t-69 -32v-306h-94v618z" glyph-name="uni0402" horiz-adv-x="820" unicode="Ђ"/>
<glyph d="M100 700h440v-82h-346v-618h-94v700zM393 900h120l-150 -150h-80z" glyph-name="uni0403" horiz-adv-x="560" unicode="Ѓ"/>
<glyph d="M355 -10q-59 0 -112 19t-94 61.5t-65 110t-24 164.5v20q0 93 24 159t65 107t94 60t112 19q57 0 104.5 -15t83.5 -43t58.5 -69t28.5 -93h-100q-14 68 -59 102t-116 34q-35 0 -68.5 -11t-60.5 -38t-45 -71.5t-21 -110.5h280v-80h-280q4 -71 23 -117t46.5 -74t60.5 -39 t65 -11q78 0 122 38t53 98h100q-8 -58 -32 -99.5t-60.5 -68.5t-83 -39.5t-99.5 -12.5z" glyph-name="uni0404" horiz-adv-x="680" unicode="Є"/>
<glyph d="M320 -10q-63 0 -110 15t-79 41.5t-50.5 62t-25.5 76.5h94q5 -23 17 -43.5t32.5 -35.5t50.5 -23.5t71 -8.5q84 0 127.5 32t43.5 79q0 29 -9.5 49t-32 35t-59 27t-89.5 24q-59 13 -101.5 28.5t-70 39t-41 56.5t-13.5 81q0 39 17 72.5t48.5 58.5t77 39.5t102.5 14.5 q56 0 98 -14.5t71.5 -39.5t46.5 -58.5t24 -72.5h-94q-5 21 -15 39.5t-27.5 32t-43 21.5t-60.5 8q-72 0 -111.5 -29.5t-39.5 -71.5q0 -27 10 -46.5t31 -34t53.5 -25t77.5 -20.5q65 -14 111.5 -31.5t76 -42.5t43 -59t13.5 -81q0 -41 -18 -76.5t-52 -62t-83 -41.5t-112 -15z " glyph-name="uni0405" horiz-adv-x="640" unicode="Ѕ"/>
<glyph d="M110 700h94v-700h-94v700z" glyph-name="uni0406" horiz-adv-x="314" unicode="І"/>
<glyph d="M110 700h94v-700h-94v700zM48 765q-25 0 -42.5 17.5t-17.5 42.5t17.5 42.5t42.5 17.5t42.5 -17.5t17.5 -42.5t-17.5 -42.5t-42.5 -17.5zM268 765q-25 0 -42.5 17.5t-17.5 42.5t17.5 42.5t42.5 17.5t42.5 -17.5t17.5 -42.5t-17.5 -42.5t-42.5 -17.5z" glyph-name="uni0407" horiz-adv-x="314" unicode="Ї"/>
<glyph d="M235 -10q-104 0 -155 51.5t-55 138.5h92q4 -50 31 -78t87 -28q31 0 55 8t39.5 28.5t23.5 54.5t8 85v450h94v-450q0 -140 -54 -200t-166 -60z" glyph-name="uni0408" horiz-adv-x="555" unicode="Ј"/>
<glyph d="M735 82q100 0 140.5 33.5t40.5 94.5t-40.5 94.5t-140.5 33.5h-130v-256h130zM55 -10q-15 0 -30 3v92q5 -1 15 -1q20 0 35.5 6.5t27 24t20 49.5t13.5 82.5t7 122.5t2 171v160h460v-280h135q69 0 120 -15t84.5 -43t49.5 -66.5t16 -85.5t-16 -85.5t-49.5 -66.5t-84.5 -43 t-120 -15h-229v618h-272v-98q0 -111 -5 -193.5t-15 -141.5t-25 -97t-35.5 -59.5t-46.5 -30t-57 -8.5z" glyph-name="uni0409" horiz-adv-x="1055" unicode="Љ"/>
<glyph d="M785 82q50 0 84.5 8.5t56 24.5t31 39t9.5 52q0 28 -9.5 51t-31 39t-56 24.5t-84.5 8.5h-135v-247h135zM100 700h94v-289h362v289h94v-289h140q142 0 206 -55.5t64 -149.5q0 -95 -64 -150.5t-206 -55.5h-234v329h-362v-329h-94v700z" glyph-name="uni040A" horiz-adv-x="1105" unicode="Њ"/>
<glyph d="M263 618h-243v82h580v-82h-243v-226q26 17 74 31t109 14q123 0 179 -55.5t56 -176.5v-205h-94v205q0 79 -35 113.5t-116 34.5q-62 0 -104.5 -15t-68.5 -32v-306h-94v618z" glyph-name="uni040B" horiz-adv-x="835" unicode="Ћ"/>
<glyph d="M100 700h94v-301h80l274 301h112l-306 -334l316 -366h-120l-276 321h-80v-321h-94v700zM443 900h120l-150 -150h-80z" glyph-name="uni040C" horiz-adv-x="700" unicode="Ќ"/>
<glyph d="M205 -10q-11 0 -21.5 0.5t-18.5 1.5v84q8 -1 18.5 -1.5t21.5 -0.5q21 0 36 3.5t26.5 13t21 25.5t20.5 42l-289 542h102l234 -445l198 445h96l-255 -563q-17 -38 -35 -66t-40 -46t-50 -26.5t-65 -8.5zM338 750q-85 0 -127.5 38t-42.5 112h88q0 -46 21 -66t61 -20 q41 0 62.5 20t21.5 66h86q0 -74 -42.5 -112t-127.5 -38z" glyph-name="uni040E" unicode="Ў"/>
<glyph d="M325 0h-225v700h94v-618h352v618h94v-700h-225v-130h-90v130z" glyph-name="uni040F" horiz-adv-x="740" unicode="Џ"/>
<glyph d="M481 174h-296l-67 -174h-98l268 700h94l268 -700h-102zM216 256h234l-117 324z" glyph-name="uni0410" unicode="А"/>
<glyph d="M345 82q100 0 140.5 33.5t40.5 94.5t-40.5 94.5t-140.5 33.5h-151v-256h151zM100 700h455v-81h-361v-199h156q69 0 120 -15t84.5 -43t49.5 -66.5t16 -85.5t-16 -85.5t-49.5 -66.5t-84.5 -43t-120 -15h-250v700z" glyph-name="uni0411" horiz-adv-x="665" unicode="Б"/>
<glyph d="M100 700h250q63 0 108 -14t74.5 -38.5t43.5 -59t14 -75.5q0 -54 -30 -92.5t-74 -55.5q62 -14 98 -56.5t36 -110.5q0 -43 -14 -79t-44 -62.5t-77.5 -41.5t-114.5 -15h-270v700zM370 82q45 0 75 8.5t48 24t25.5 37.5t7.5 49t-7.5 49.5t-25.5 38t-48.5 24t-75.5 8.5h-175 v-239h176zM350 399q42 0 70 8t45 23t24 35t7 44t-7 44.5t-24 34.5t-45 22t-70 8h-156v-219h156z" glyph-name="uni0412" unicode="В"/>
<glyph d="M100 700h440v-82h-346v-618h-94v700z" glyph-name="uni0413" horiz-adv-x="560" unicode="Г"/>
<glyph d="M521 82v536h-269v-78q0 -152 -13.5 -263t-43.5 -195h326zM20 82h75q19 38 32 94t20 120.5t10 133t3 130.5v140h455v-618h85v-212h-90v130h-500v-130h-90v212z" glyph-name="uni0414" horiz-adv-x="730" unicode="Д"/>
<glyph d="M100 700h450v-82h-356v-217h326v-82h-326v-237h356v-82h-450v700z" glyph-name="uni0415" horiz-adv-x="610" unicode="Е"/>
<glyph d="M288 364l-248 336h104l219 -301h70v301h94v-301h70l221 301h102l-248 -333l258 -367h-110l-223 321h-70v-321h-94v321h-70l-225 -321h-108z" glyph-name="uni0416" horiz-adv-x="960" unicode="Ж"/>
<glyph d="M321 -10q-62 0 -110 15.5t-82 43.5t-54 66.5t-24 84.5h94q8 -57 54 -91.5t122 -34.5q93 0 134.5 33t41.5 89q0 54 -40 89.5t-131 35.5h-95v78h95q75 0 110.5 32.5t35.5 82.5t-38 81t-113 31q-80 0 -117.5 -30.5t-43.5 -80.5h-94q4 42 21.5 78t49.5 62t78 40.5t106 14.5 q121 0 183 -54t62 -142q0 -55 -31.5 -93.5t-83.5 -55.5q63 -15 101.5 -58t38.5 -111q0 -45 -17.5 -82.5t-52 -65t-84.5 -43t-116 -15.5z" glyph-name="uni0417" horiz-adv-x="640" unicode="З"/>
<glyph d="M100 700h94v-550l372 550h94v-700h-94v550l-372 -550h-94v700z" glyph-name="uni0418" horiz-adv-x="760" unicode="И"/>
<glyph d="M100 700h94v-550l372 550h94v-700h-94v550l-372 -550h-94v700zM380 750q-85 0 -127.5 38t-42.5 112h88q0 -46 21 -66t61 -20q41 0 62.5 20t21.5 66h86q0 -74 -42.5 -112t-127.5 -38z" glyph-name="uni0419" horiz-adv-x="760" unicode="Й"/>
<glyph d="M100 700h94v-301h80l274 301h112l-306 -334l316 -366h-120l-276 321h-80v-321h-94v700z" glyph-name="uni041A" horiz-adv-x="700" unicode="К"/>
<glyph d="M55 -10q-15 0 -30 3v92q5 -1 15 -1q20 0 35.5 6.5t27 24t20 49.5t13.5 82.5t7 122.5t2 171v160h470v-700h-94v618h-282v-98q0 -111 -5 -193.5t-15 -141.5t-25 -97t-35.5 -59.5t-46.5 -30t-57 -8.5z" glyph-name="uni041B" horiz-adv-x="715" unicode="Л"/>
<glyph d="M100 700h98l234 -445l234 445h94v-700h-94v530l-201 -380h-70l-201 380v-530h-94v700z" glyph-name="uni041C" horiz-adv-x="860" unicode="М"/>
<glyph d="M100 700h94v-299h372v299h94v-700h-94v319h-372v-319h-94v700z" glyph-name="uni041D" horiz-adv-x="760" unicode="Н"/>
<glyph d="M370 -10q-60 0 -116 20.5t-99 63.5t-69 110t-26 161v20q0 90 26 155t69 107.5t99 62.5t116 20t116 -20t99 -62.5t69 -107.5t26 -155v-20q0 -94 -26 -161t-69 -110t-99 -63.5t-116 -20.5zM370 74q41 0 79 15t67 47.5t46.5 84t17.5 124.5v20q0 69 -17.5 118.5t-46.5 81 t-67 46.5t-79 15t-79 -15t-67 -46.5t-46.5 -81t-17.5 -118.5v-20q0 -73 17.5 -124.5t46.5 -84t67 -47.5t79 -15z" glyph-name="uni041E" horiz-adv-x="740" unicode="О"/>
<glyph d="M100 700h550v-700h-94v618h-362v-618h-94v700z" glyph-name="uni041F" horiz-adv-x="750" unicode="П"/>
<glyph d="M100 700h240q69 0 120 -16t84.5 -44.5t49.5 -68t16 -86.5t-16 -86.5t-49.5 -68t-84.5 -44.5t-120 -16h-146v-270h-94v700zM335 352q50 0 84.5 9.5t56 26.5t31 42t9.5 55t-9.5 55t-31 42t-56 26.5t-84.5 9.5h-141v-266h141z" glyph-name="uni0420" horiz-adv-x="655" unicode="Р"/>
<glyph d="M355 -10q-59 0 -112 20.5t-94 64t-65 110.5t-24 160v20q0 90 24 155t65 107t94 62.5t112 20.5q57 0 104.5 -15t83.5 -43t58.5 -69t28.5 -93h-100q-14 68 -59 102t-116 34q-37 0 -72 -14t-62.5 -44.5t-44 -80.5t-16.5 -122v-20q0 -76 18 -127.5t46 -83.5t63 -46t68 -14 q78 0 122 38t53 98h100q-8 -58 -32 -99.5t-60.5 -68.5t-83 -39.5t-99.5 -12.5z" glyph-name="uni0421" horiz-adv-x="680" unicode="С"/>
<glyph d="M263 618h-243v82h580v-82h-243v-618h-94v618z" glyph-name="uni0422" horiz-adv-x="620" unicode="Т"/>
<glyph d="M205 -10q-11 0 -21.5 0.5t-18.5 1.5v84q8 -1 18.5 -1.5t21.5 -0.5q21 0 36 3.5t26.5 13t21 25.5t20.5 42l-289 542h102l234 -445l198 445h96l-255 -563q-17 -38 -35 -66t-40 -46t-50 -26.5t-65 -8.5z" glyph-name="uni0423" unicode="У"/>
<glyph d="M155 350q0 -51 15 -92t44 -70t71.5 -45t97.5 -16v446q-55 0 -97.5 -15.5t-71.5 -43t-44 -64.5t-15 -80v-20zM705 370q0 43 -15 80t-44 64.5t-71.5 43t-97.5 15.5v-446q55 0 97.5 16t71.5 45t44 70t15 92v20zM383 43q-77 0 -138 22t-103 62.5t-64.5 97t-22.5 125.5v20 q0 61 22.5 114t64.5 91t103 60t138 22v73h94v-73q77 0 138 -22t103 -60t64.5 -91t22.5 -114v-20q0 -69 -22.5 -125.5t-64.5 -97t-103 -62.5t-138 -22v-73h-94v73z" glyph-name="uni0424" horiz-adv-x="860" unicode="Ф"/>
<glyph d="M277 357l-237 343h104l187 -271l189 271h100l-236 -341l246 -359h-106l-195 288l-197 -288h-102z" glyph-name="uni0425" horiz-adv-x="660" unicode="Х"/>
<glyph d="M645 0h-545v700h94v-618h352v618h94v-618h95v-212h-90v130z" glyph-name="uni0426" horiz-adv-x="765" unicode="Ц"/>
<glyph d="M476 308q-26 -17 -73 -31t-108 -14q-123 0 -179 55.5t-56 176.5v205h94v-205q0 -79 35 -113.5t116 -34.5q62 0 103.5 15t67.5 32v306h94v-700h-94v308z" glyph-name="uni0427" unicode="Ч"/>
<glyph d="M100 700h94v-618h244v618h94v-618h244v618h94v-700h-770v700z" glyph-name="uni0428" horiz-adv-x="970" unicode="Ш"/>
<glyph d="M100 700h94v-618h244v618h94v-618h244v618h94v-618h95v-212h-90v130h-775v700z" glyph-name="uni0429" horiz-adv-x="995" unicode="Щ"/>
<glyph d="M415 82q100 0 140.5 33.5t40.5 94.5t-40.5 94.5t-140.5 33.5h-141v-256h141zM180 618h-160v82h254v-280h146q69 0 120 -15t84.5 -43t49.5 -66.5t16 -85.5t-16 -85.5t-49.5 -66.5t-84.5 -43t-120 -15h-240v618z" glyph-name="uni042A" horiz-adv-x="735" unicode="Ъ"/>
<glyph d="M696 700h94v-700h-94v700zM315 82q100 0 140.5 33.5t40.5 94.5t-40.5 94.5t-140.5 33.5h-121v-256h121zM100 700h94v-280h126q69 0 120 -15t84.5 -43t49.5 -66.5t16 -85.5t-16 -85.5t-49.5 -66.5t-84.5 -43t-120 -15h-220v700z" glyph-name="uni042B" horiz-adv-x="890" unicode="Ы"/>
<glyph d="M335 82q100 0 140.5 33.5t40.5 94.5t-40.5 94.5t-140.5 33.5h-141v-256h141zM100 700h94v-280h146q69 0 120 -15t84.5 -43t49.5 -66.5t16 -85.5t-16 -85.5t-49.5 -66.5t-84.5 -43t-120 -15h-240v700z" glyph-name="uni042C" horiz-adv-x="655" unicode="Ь"/>
<glyph d="M325 -10q-53 0 -99.5 12.5t-83 39.5t-60.5 68.5t-32 99.5h100q9 -60 53 -98t122 -38q31 0 64 11t61 39t47 74t22 117h-279v80h279q-3 66 -20.5 110.5t-44.5 71.5t-60.5 38t-68.5 11q-71 0 -116 -34t-59 -102h-100q6 52 28.5 93t58.5 69t83.5 43t104.5 15q58 0 111.5 -19 t94.5 -60t65 -107t24 -159v-20q0 -97 -24 -164.5t-65 -110t-94.5 -61.5t-111.5 -19z" glyph-name="uni042D" horiz-adv-x="680" unicode="Э"/>
<glyph d="M605 74q37 0 71 15t59 47.5t40 84t15 124.5v20q0 69 -15 118.5t-40 81t-59 46.5t-71 15q-38 0 -71.5 -15t-58.5 -46.5t-40 -81t-15 -118.5v-20q0 -73 15 -124.5t40 -84t58.5 -47.5t71.5 -15zM100 700h94v-299h133q4 82 27.5 140.5t60.5 96t86 55t104 17.5q58 0 110 -19.5 t91 -61t61.5 -107t22.5 -157.5v-20q0 -96 -22.5 -163t-61.5 -110t-91 -62.5t-110 -19.5q-56 0 -105.5 18t-87 58t-60.5 102t-26 151h-132v-319h-94v700z" glyph-name="uni042E" horiz-adv-x="950" unicode="Ю"/>
<glyph d="M169 490q0 -57 42 -92.5t139 -35.5h141v256h-141q-97 0 -139 -35.5t-42 -92.5zM237 294q-81 22 -121.5 74.5t-40.5 121.5q0 45 17 83.5t50 66.5t82.5 44t115.5 16h245v-700h-94v282h-162l-178 -282h-106z" glyph-name="uni042F" horiz-adv-x="685" unicode="Я"/>
<glyph d="M231 -10q-44 0 -77.5 12.5t-56.5 34.5t-35 52t-12 66q0 79 46.5 114t133.5 35h172v36q0 68 -30.5 94t-91.5 26q-57 0 -83 -21.5t-29 -48.5h-88q2 32 17.5 59.5t42 47.5t63.5 31.5t82 11.5q94 0 149.5 -44.5t55.5 -145.5v-215q0 -42 0.5 -73.5t4.5 -61.5h-77 q-3 23 -4 43.5t-1 46.5q-21 -42 -68 -71t-114 -29zM250 70q31 0 58.5 8.5t48.5 25t33 40.5t12 56v36h-157q-49 0 -77 -19.5t-28 -61.5q0 -37 26.5 -61t83.5 -24z" glyph-name="uni0430" horiz-adv-x="565" unicode="а"/>
<glyph d="M300 70q70 0 115 48.5t45 141.5v20q0 39 -12 70t-33 53.5t-50.5 34.5t-64.5 12t-64.5 -12t-50.5 -34.5t-33 -53.5t-12 -70v-20q0 -44 12.5 -79.5t34.5 -60t51 -37.5t62 -13zM300 -10q-53 0 -98.5 20t-79 58.5t-53 94.5t-19.5 127v20q0 90 13 160.5t44.5 120t83 77.5 t129.5 32q63 3 110 5.5t80 19.5v-85q-16 -9 -58.5 -14t-116.5 -7q-48 -1 -84.5 -12t-62 -35t-40 -62.5t-18.5 -94.5q24 53 74 84t116 31q51 0 93 -17.5t72.5 -49.5t47.5 -78.5t17 -104.5v-20q0 -62 -19 -111.5t-52 -85t-79 -54.5t-100 -19z" glyph-name="uni0431" horiz-adv-x="595" unicode="б"/>
<glyph d="M310 306q57 0 79.5 20t22.5 55q0 33 -22.5 52t-79.5 19h-142v-146h142zM330 78q56 0 79 20t23 57q0 38 -23 58.5t-79 20.5h-162v-156h162zM80 530h230q98 0 144 -40.5t46 -104.5q0 -17 -6 -34.5t-16.5 -32.5t-25 -26t-32.5 -17q49 -12 74.5 -45.5t25.5 -78.5 q0 -69 -46 -110t-144 -41h-250v530z" glyph-name="uni0432" horiz-adv-x="565" unicode="в"/>
<glyph d="M80 530h360v-78h-272v-452h-88v530z" glyph-name="uni0433" horiz-adv-x="460" unicode="г"/>
<glyph d="M417 78v374h-196v-82q0 -42 -3 -83.5t-9 -79t-14.5 -71t-19.5 -58.5h242zM20 78h65q11 15 20 46t16 73t10.5 91.5t3.5 101.5v140h370v-452h75v-203h-84v125h-392v-125h-84v203z" glyph-name="uni0434" horiz-adv-x="605" unicode="д"/>
<glyph d="M300 -10q-51 0 -97 16t-81 49.5t-56 84.5t-21 120v20q0 66 20 114.5t53.5 81t78 48.5t93.5 16q117 0 181 -64t64 -181v-56h-402q0 -47 15 -79t39 -52t53.5 -29t59.5 -9q60 0 92.5 20t46.5 55h86q-8 -38 -28.5 -67t-50 -48.5t-67 -29.5t-79.5 -10zM295 460q-31 0 -60 -8.5 t-51.5 -27t-36.5 -46.5t-14 -67h319q-1 41 -13.5 69.5t-33.5 46t-49.5 25.5t-60.5 8z" glyph-name="uni0435" horiz-adv-x="580" unicode="е"/>
<glyph d="M225 273l-190 257h98l162 -222h61v222h88v-222h60l165 222h96l-190 -254l200 -276h-104l-167 232h-60v-232h-88v232h-61l-168 -232h-102z" glyph-name="uni0436" horiz-adv-x="800" unicode="ж"/>
<glyph d="M260 -10q-100 0 -157 42t-63 118h88q7 -39 41.5 -59.5t90.5 -20.5q69 0 100.5 23.5t31.5 56.5q0 39 -26 61.5t-90 22.5h-91v72h85q55 0 78.5 21t23.5 59q0 30 -28 52t-84 22q-61 0 -88.5 -19.5t-33.5 -55.5h-88q3 33 18.5 61.5t42.5 49.5t64.5 32.5t84.5 11.5 q51 0 88.5 -11.5t62.5 -32t37 -48.5t12 -62q0 -38 -19 -66.5t-61 -44.5q56 -15 78 -48t22 -77q0 -33 -14 -62t-41.5 -50.5t-69 -34.5t-95.5 -13z" glyph-name="uni0437" horiz-adv-x="525" unicode="з"/>
<glyph d="M80 530h88v-400l274 400h88v-530h-88v400l-274 -400h-88v530z" glyph-name="uni0438" horiz-adv-x="610" unicode="и"/>
<glyph d="M80 530h88v-400l274 400h88v-530h-88v400l-274 -400h-88v530zM305 595q-78 0 -114 33.5t-36 96.5h86q0 -68 64 -68q66 0 66 68h84q0 -63 -36 -96.5t-114 -33.5z" glyph-name="uni0439" horiz-adv-x="610" unicode="й"/>
<glyph d="M80 530h88v-222h70l198 222h104l-230 -254l240 -276h-112l-200 232h-70v-232h-88v530z" glyph-name="uni043A" horiz-adv-x="575" unicode="к"/>
<glyph d="M55 -10q-15 0 -30 3v88q5 -1 15 -1q22 0 38.5 14t26.5 49t15 95t5 152v140h380v-530h-88v452h-204v-82q0 -111 -10 -184t-29.5 -116.5t-49.5 -61.5t-69 -18z" glyph-name="uni043B" horiz-adv-x="585" unicode="л"/>
<glyph d="M80 530h94l189 -330l189 330h88v-530h-88v385l-157 -270h-70l-157 270v-385h-88v530z" glyph-name="uni043C" horiz-adv-x="720" unicode="м"/>
<glyph d="M80 530h88v-221h274v221h88v-530h-88v231h-274v-231h-88v530z" glyph-name="uni043D" horiz-adv-x="610" unicode="н"/>
<glyph d="M300 -10q-51 0 -97 16.5t-81 50t-56 84.5t-21 119v20q0 64 21 113t56 81.5t81 49t97 16.5t97 -16.5t81 -49t56 -81.5t21 -113v-20q0 -68 -21 -119t-56 -84.5t-81 -50t-97 -16.5zM300 70q30 0 60 10.5t53 33t37.5 58.5t14.5 88v20q0 48 -14.5 82t-37.5 56t-53 32t-60 10 t-60 -10t-53 -32t-37.5 -56t-14.5 -82v-20q0 -52 14.5 -88t37.5 -58.5t53 -33t60 -10.5z" glyph-name="uni043E" horiz-adv-x="600" unicode="о"/>
<glyph d="M80 530h440v-530h-88v452h-264v-452h-88v530z" glyph-name="uni043F" horiz-adv-x="600" unicode="п"/>
<glyph d="M80 530h82v-100q27 53 75.5 81.5t112.5 28.5q100 0 160 -65.5t60 -194.5v-20q0 -68 -16 -118.5t-45 -84t-69.5 -50.5t-89.5 -17q-68 0 -113.5 30t-68.5 75v-295h-88v730zM330 68q32 0 60 12.5t48.5 36.5t32 60t11.5 83v20q0 43 -11.5 77t-32 57.5t-48.5 35.5t-60 12 q-36 0 -66 -11.5t-51 -32t-33 -48.5t-12 -60v-80q0 -36 12 -66t33 -51t51 -33t66 -12z" glyph-name="uni0440" horiz-adv-x="615" unicode="р"/>
<glyph d="M285 -10q-51 0 -95 16.5t-76 50t-50.5 84.5t-18.5 119v20q0 64 20 113t53 81.5t76.5 49t90.5 16.5t84.5 -13t65 -36t45 -54t25.5 -67h-90q-8 19 -18.5 35.5t-26 28.5t-36.5 19t-49 7q-29 0 -56 -10.5t-48 -32t-33.5 -55.5t-12.5 -82v-20q0 -51 12.5 -87.5t33.5 -59 t48 -33t56 -10.5q49 0 82.5 24t47.5 66h90q-19 -79 -78 -124.5t-142 -45.5z" glyph-name="uni0441" horiz-adv-x="545" unicode="с"/>
<glyph d="M201 452h-181v78h450v-78h-181v-452h-88v452z" glyph-name="uni0442" horiz-adv-x="490" unicode="т"/>
<glyph d="M150 -210q-15 0 -30 3v80q15 -3 30 -3t26 5t21 19t21.5 39.5t26.5 66.5l-225 530h98l172 -430l156 430h94l-200 -530q-21 -56 -40 -96t-40.5 -65.5t-47.5 -37t-62 -11.5z" glyph-name="uni0443" horiz-adv-x="560" unicode="у"/>
<glyph d="M135 259q0 -97 46.5 -143t145.5 -46v390q-99 0 -145.5 -45t-46.5 -136v-20zM605 279q0 91 -46.5 136t-145.5 45v-390q99 0 145.5 46t46.5 143v20zM326 -10q-138 0 -209.5 70t-71.5 199v20q0 123 71.5 192t209.5 69v160h88v-160q138 0 209.5 -69t71.5 -192v-20 q0 -129 -71.5 -199t-209.5 -70v-190h-88v190z" glyph-name="uni0444" horiz-adv-x="740" unicode="ф"/>
<glyph d="M224 269l-189 261h102l140 -193l140 193h98l-189 -256l199 -274h-104l-148 207l-148 -207h-100z" glyph-name="uni0445" horiz-adv-x="550" unicode="х"/>
<glyph d="M511 0h-431v530h88v-452h254v452h88v-452h85v-203h-84v125z" glyph-name="uni0446" horiz-adv-x="620" unicode="ц"/>
<glyph d="M387 211q-23 -14 -55.5 -25t-81.5 -11q-46 0 -82.5 10t-61.5 32t-38 57t-13 86v170h88v-155q0 -34 6.5 -57t21.5 -37t38 -20t56 -6q45 0 77 9t45 19v247h88v-530h-88v211z" glyph-name="uni0447" horiz-adv-x="555" unicode="ч"/>
<glyph d="M80 530h88v-452h193v452h88v-452h193v452h88v-530h-650v530z" glyph-name="uni0448" horiz-adv-x="810" unicode="ш"/>
<glyph d="M731 0h-651v530h88v-452h193v452h88v-452h193v452h88v-452h85v-203h-84v125z" glyph-name="uni0449" horiz-adv-x="840" unicode="щ"/>
<glyph d="M370 78q62 0 87 22t25 65t-25 65t-87 22h-122v-174h122zM160 452h-140v78h228v-200h127q100 0 147.5 -44t47.5 -122q0 -76 -47.5 -120t-147.5 -44h-215v452z" glyph-name="uni044A" horiz-adv-x="605" unicode="ъ"/>
<glyph d="M552 530h88v-530h-88v530zM270 78q62 0 87 22t25 65t-25 65t-87 22h-102v-174h102zM80 530h88v-200h107q100 0 147.5 -44t47.5 -122q0 -76 -47.5 -120t-147.5 -44h-195v530z" glyph-name="uni044B" horiz-adv-x="720" unicode="ы"/>
<glyph d="M290 78q62 0 87 22t25 65t-25 65t-87 22h-122v-174h122zM80 530h88v-200h127q100 0 147.5 -44t47.5 -122q0 -76 -47.5 -120t-147.5 -44h-215v530z" glyph-name="uni044C" horiz-adv-x="525" unicode="ь"/>
<glyph d="M260 -10q-83 0 -142 45.5t-78 124.5h90q14 -42 47.5 -66t82.5 -24q30 0 55.5 9t45 28t32.5 49.5t16 74.5h-209v78h209q-7 80 -48 115.5t-101 35.5q-28 0 -49 -7t-36.5 -19t-26.5 -28.5t-18 -35.5h-90q7 36 25 67t45.5 54t65 36t84.5 13q51 0 94.5 -16.5t76 -49t51 -81.5 t18.5 -113v-20q0 -68 -18 -119t-49.5 -84.5t-76 -50t-96.5 -16.5z" glyph-name="uni044D" horiz-adv-x="545" unicode="э"/>
<glyph d="M485 70q30 0 58 10.5t49.5 33t34.5 58.5t13 88v20q0 48 -13 82t-34.5 56t-49.5 32t-58 10t-58 -10t-49.5 -32t-34.5 -56t-13 -82v-20q0 -52 13 -88t34.5 -58.5t49.5 -33t58 -10.5zM80 530h88v-221h75q4 57 25 100.5t53.5 72.5t74.5 43.5t89 14.5q51 0 95.5 -16.5 t77.5 -49t52.5 -81.5t19.5 -113v-20q0 -68 -19.5 -119t-52.5 -84.5t-77.5 -50t-95.5 -16.5q-47 0 -89.5 14.5t-75 44.5t-53 75.5t-24.5 106.5h-75v-231h-88v530z" glyph-name="uni044E" horiz-adv-x="775" unicode="ю"/>
<glyph d="M148 366q0 -42 24.5 -64t82.5 -22h147v172h-147q-58 0 -82.5 -22t-24.5 -64zM184 210q-66 15 -95 54.5t-29 101.5q0 78 47.5 121t152.5 43h230v-530h-88v202h-135l-129 -202h-98z" glyph-name="uni044F" horiz-adv-x="570" unicode="я"/>
<glyph d="M300 -10q-51 0 -97 16t-81 49.5t-56 84.5t-21 120v20q0 66 20 114.5t53.5 81t78 48.5t93.5 16q117 0 181 -64t64 -181v-56h-402q0 -47 15 -79t39 -52t53.5 -29t59.5 -9q60 0 92.5 20t46.5 55h86q-8 -38 -28.5 -67t-50 -48.5t-67 -29.5t-79.5 -10zM295 460q-31 0 -60 -8.5 t-51.5 -27t-36.5 -46.5t-14 -67h319q-1 41 -13.5 69.5t-33.5 46t-49.5 25.5t-60.5 8zM188 602q-24 0 -41 17t-17 41t17 41t41 17t41 -17t17 -41t-17 -41t-41 -17zM392 602q-24 0 -41 17t-17 41t17 41t41 17t41 -17t17 -41t-17 -41t-41 -17z" glyph-name="uni0451" horiz-adv-x="580" unicode="ё"/>
<glyph d="M110 456h-90v74h90v170h88v-170h232v-74h-232v-161q10 21 26 40t37.5 33.5t48.5 23t58 8.5q96 0 144 -53.5t48 -156.5v-190q0 -62 -8.5 -102.5t-27.5 -64.5t-49.5 -33.5t-74.5 -9.5q-11 0 -25 0.5t-25 2.5v80q8 -2 17.5 -2.5t17.5 -0.5q25 0 42 5.5t27 20t14 39.5t4 65 v170q0 74 -30.5 112t-99.5 38q-38 0 -65 -13t-44.5 -34t-26 -48t-8.5 -55v-170h-88v456z" glyph-name="uni0452" horiz-adv-x="620" unicode="ђ"/>
<glyph d="M80 530h360v-78h-272v-452h-88v530zM335 740h110l-150 -160h-70z" glyph-name="uni0453" horiz-adv-x="460" unicode="ѓ"/>
<glyph d="M285 -10q-51 0 -95 16.5t-76 50t-50.5 84.5t-18.5 119v20q0 64 20 113t53 81.5t76.5 49t90.5 16.5t84.5 -13t65 -36t45 -54t25.5 -67h-90q-8 19 -18.5 35.5t-26 28.5t-36.5 19t-49 7q-26 0 -51.5 -8.5t-45.5 -27t-34 -47t-18 -68.5h209v-78h-209q3 -44 17 -74.5 t34.5 -49.5t45.5 -28t52 -9q49 0 82.5 24t47.5 66h90q-19 -79 -78 -124.5t-142 -45.5z" glyph-name="uni0454" horiz-adv-x="545" unicode="є"/>
<glyph d="M265 -10q-53 0 -91.5 12.5t-65.5 33.5t-42 49t-21 60h88q7 -32 37.5 -55.5t94.5 -23.5q37 0 62 6.5t40.5 17t22.5 25t7 30.5q0 17 -6.5 30t-23 23.5t-45 19t-71.5 14.5q-44 6 -79.5 17.5t-60 30.5t-38 45.5t-13.5 64.5q0 30 13 57t39 48t64 33t89 12q47 0 82 -12.5 t59.5 -33.5t38.5 -49t20 -60h-88q-8 35 -34 57t-78 22q-65 0 -91 -21.5t-26 -52.5q0 -18 6.5 -31t22 -23t41 -16.5t63.5 -11.5q49 -6 87 -17.5t64 -31t39.5 -47.5t13.5 -67q0 -32 -13.5 -60t-40.5 -49t-68.5 -33.5t-97.5 -12.5z" glyph-name="uni0455" horiz-adv-x="530" unicode="ѕ"/>
<glyph d="M90 530h88v-530h-88v530zM134 600q-26 0 -43 17t-17 43t17 43t43 17t43 -17t17 -43t-17 -43t-43 -17z" glyph-name="uni0456" horiz-adv-x="268" unicode="і"/>
<glyph d="M90 530h88v-530h-88v530zM33 602q-24 0 -41 17t-17 41t17 41t41 17t41 -17t17 -41t-17 -41t-41 -17zM237 602q-24 0 -41 17t-17 41t17 41t41 17t41 -17t17 -41t-17 -41t-41 -17z" glyph-name="uni0457" horiz-adv-x="268" unicode="ї"/>
<glyph d="M18 -210q-11 0 -25 0.5t-25 2.5v80q8 -2 17.5 -2.5t17.5 -0.5q25 0 42 5.5t27 20t14 39.5t4 65v530h88v-530q0 -62 -8.5 -102.5t-27.5 -64.5t-49.5 -33.5t-74.5 -9.5zM134 600q-26 0 -43 17t-17 43t17 43t43 17t43 -17t17 -43t-17 -43t-43 -17z" glyph-name="uni0458" horiz-adv-x="268" unicode="ј"/>
<glyph d="M605 76q62 0 87 22t25 67t-25 67t-87 22h-110v-178h110zM55 -10q-15 0 -30 3v88q5 -1 15 -1q22 0 38.5 14t26.5 49t15 95t5 152v140h370v-200h115q100 0 147.5 -44t47.5 -122q0 -76 -47.5 -120t-147.5 -44h-203v452h-194v-82q0 -111 -10 -184t-29.5 -116.5t-49.5 -61.5 t-69 -18z" glyph-name="uni0459" horiz-adv-x="840" unicode="љ"/>
<glyph d="M645 78q58 0 82.5 21.5t24.5 62.5t-24.5 62.5t-82.5 21.5h-122v-168h122zM80 530h88v-206h267v206h88v-206h127q96 0 143 -43.5t47 -118.5t-47 -118.5t-143 -43.5h-215v246h-267v-246h-88v530z" glyph-name="uni045A" horiz-adv-x="875" unicode="њ"/>
<glyph d="M110 456h-90v74h90v170h88v-170h232v-74h-232v-161q10 21 26 40t37.5 33.5t48.5 23t58 8.5q96 0 144 -53.5t48 -156.5v-190h-88v170q0 74 -30.5 112t-99.5 38q-38 0 -65 -13t-44.5 -34t-26 -48t-8.5 -55v-170h-88v456z" glyph-name="uni045B" horiz-adv-x="620" unicode="ћ"/>
<glyph d="M80 530h88v-222h70l198 222h104l-230 -254l240 -276h-112l-200 232h-70v-232h-88v530zM377 740h110l-150 -160h-70z" glyph-name="uni045C" horiz-adv-x="575" unicode="ќ"/>
<glyph d="M150 -210q-15 0 -30 3v80q15 -3 30 -3t26 5t21 19t21.5 39.5t26.5 66.5l-225 530h98l172 -430l156 430h94l-200 -530q-21 -56 -40 -96t-40.5 -65.5t-47.5 -37t-62 -11.5zM282 595q-78 0 -114 33.5t-36 96.5h86q0 -68 64 -68q66 0 66 68h84q0 -63 -36 -96.5t-114 -33.5z " glyph-name="uni045E" horiz-adv-x="560" unicode="ў"/>
<glyph d="M252 0h-172v530h88v-452h254v452h88v-530h-172v-125h-86v125z" glyph-name="uni045F" horiz-adv-x="590" unicode="џ"/>
<glyph d="M100 700h350v130h90v-212h-346v-618h-94v700z" glyph-name="uni0490" horiz-adv-x="560" unicode="Ґ"/>
<glyph d="M80 530h276v125h84v-203h-272v-452h-88v530z" glyph-name="uni0491" horiz-adv-x="460" unicode="ґ"/>
<glyph d="M100 700h440v-82h-346v-217h196v-82h-196v-319h-94v319h-80v82h80v299z" glyph-name="uni0492" horiz-adv-x="560" unicode="Ғ"/>
<glyph d="M35 309h80v221h360v-78h-272v-143h177v-78h-177v-231h-88v231h-80v78z" glyph-name="uni0493" horiz-adv-x="495" unicode="ғ"/>
<glyph d="M100 700h418v-82h-324v-230q7 6 20.5 14t33.5 16t46.5 13.5t59.5 5.5q44 0 82.5 -12t66.5 -37t44 -64t16 -92v-244q0 -97 -46.5 -142.5t-146.5 -45.5h-33v77h23q63 0 88.5 26t25.5 89v228q0 71 -35 102.5t-105 31.5q-52 0 -87.5 -19.5t-52.5 -39.5v-295h-94v700z" glyph-name="uni0494" horiz-adv-x="633" unicode="Ҕ"/>
<glyph d="M80 530h360v-78h-272v-133q23 14 55 25t81 11q93 0 144 -42t51 -143v-170q0 -62 -8.5 -102.5t-27.5 -64.5t-49.5 -33.5t-74.5 -9.5q-11 0 -25 0.5t-25 2.5v80q8 -2 17.5 -2.5t17.5 -0.5q25 0 42 5.5t27 20t14 39.5t4 65v155q0 68 -28 94t-94 26q-45 0 -76 -9t-45 -19 v-247h-88v530z" glyph-name="uni0495" horiz-adv-x="559" unicode="ҕ"/>
<glyph d="M856 -130v130h-36l-223 321h-70v-321h-94v321h-70l-225 -321h-108l258 364l-248 336h104l219 -301h70v301h94v-301h70l221 301h102l-248 -333l200 -285h74v-212h-90z" glyph-name="uni0496" horiz-adv-x="976" unicode="Җ"/>
<glyph d="M707 -125v125h-36l-167 232h-60v-232h-88v232h-61l-168 -232h-102l200 273l-190 257h98l162 -222h61v222h88v-222h60l165 222h96l-190 -254l143 -198h73v-203h-84z" glyph-name="uni0497" horiz-adv-x="816" unicode="җ"/>
<glyph d="M275 -130v123q-35 3 -64 12q-48 16 -82 44t-54 66.5t-24 84.5h94q8 -57 54 -91.5t122 -34.5q93 0 134.5 33t41.5 89q0 54 -40 89.5t-131 35.5h-95v78h95q75 0 110.5 32.5t35.5 82.5t-38 81t-113 31q-80 0 -117.5 -30.5t-43.5 -80.5h-94q4 42 21.5 78t49.5 62t78 40.5 t106 14.5q121 0 183 -54t62 -142q0 -55 -31.5 -93.5t-83.5 -55.5q63 -15 101.5 -58t38.5 -111q0 -45 -17.5 -82.5t-52 -65t-84.5 -43.5q-33 -9 -72 -13v-122h-90z" glyph-name="uni0498" horiz-adv-x="640" unicode="Ҙ"/>
<glyph d="M217 -125v117q-70 8 -114 40q-57 42 -63 118h88q7 -39 41.5 -59.5t90.5 -20.5q69 0 100.5 23.5t31.5 56.5q0 39 -26 61.5t-90 22.5h-91v72h85q55 0 78.5 21t23.5 59q0 30 -28 52t-84 22q-61 0 -88.5 -19.5t-33.5 -55.5h-88q3 33 18.5 61.5t42.5 49.5t64.5 32.5t84.5 11.5 q51 0 88.5 -11.5t62.5 -32t37 -48.5t12 -62q0 -38 -19 -66.5t-61 -44.5q56 -15 78 -48t22 -77q0 -33 -14 -62t-41.5 -50.5t-69.5 -34.5q-24 -7 -52 -11v-117h-86z" glyph-name="uni0499" horiz-adv-x="525" unicode="ҙ"/>
<glyph d="M596 -130v130h-46l-276 321h-80v-321h-94v700h94v-301h80l274 301h112l-306 -334l245 -284h87v-212h-90z" glyph-name="uni049A" horiz-adv-x="716" unicode="Қ"/>
<glyph d="M474 -125v125h-36l-200 232h-70v-232h-88v530h88v-222h70l198 222h104l-230 -254l172 -198h76v-203h-84z" glyph-name="uni049B" horiz-adv-x="583" unicode="қ"/>
<glyph d="M100 700h94v-305h54v117h85v-117h17l202 305h107l-232 -341l252 -359h-114l-215 314h-17v-114h-85v114h-54v-314h-94v700z" glyph-name="uni049C" horiz-adv-x="709" unicode="Ҝ"/>
<glyph d="M80 530h89v-222h34v95h75v-95h10l160 222h99l-186 -257l202 -273h-104l-170 232h-11v-102h-75v102h-34v-232h-89v530z" glyph-name="uni049D" horiz-adv-x="588" unicode="ҝ"/>
<glyph d="M20 700h254v-301h80l274 301h112l-306 -334l316 -366h-120l-276 321h-80v-321h-94v618h-160v82z" glyph-name="uni04A0" horiz-adv-x="780" unicode="Ҡ"/>
<glyph d="M20 530h228v-222h70l198 222h104l-230 -254l240 -276h-112l-200 232h-70v-232h-88v452h-140v78z" glyph-name="uni04A1" horiz-adv-x="655" unicode="ҡ"/>
<glyph d="M655 -130v130h-89v319h-372v-319h-94v700h94v-299h372v299h94v-618h85v-212h-90z" glyph-name="uni04A2" horiz-adv-x="775" unicode="Ң"/>
<glyph d="M521 -125v125h-79v231h-274v-231h-88v530h88v-221h274v221h88v-452h75v-203h-84z" glyph-name="uni04A3" horiz-adv-x="630" unicode="ң"/>
<glyph d="M100 0v700h94v-299h372v299h440v-82h-346v-618h-94v319h-372v-319h-94z" glyph-name="uni04A4" horiz-adv-x="1026" unicode="Ҥ"/>
<glyph d="M442 231h-274v-231h-88v530h88v-221h274v221h360v-78h-272v-452h-88v231z" glyph-name="uni04A5" horiz-adv-x="822" unicode="ҥ"/>
<glyph d="M315 -130v123q-37 4 -72 17q-53 21 -94 64.5t-65 110.5t-24 160v20q0 90 24 155t65 107t94 62.5t112 20.5q57 0 104.5 -15t83.5 -43t58.5 -69t28.5 -93h-100q-14 68 -59 102t-116 34q-37 0 -72 -14t-62.5 -44.5t-44 -80.5t-16.5 -122v-20q0 -76 18 -127.5t46 -83.5 t63 -46t68 -14q78 0 122 38t53 98h100q-8 -58 -32 -99.5t-60.5 -68.5t-83.5 -40q-23 -6 -49 -9v-123h-90z" glyph-name="uni04AA" horiz-adv-x="680" unicode="Ҫ"/>
<glyph d="M243 -125v118q-28 4 -53 13q-44 17 -76 50.5t-50.5 84.5t-18.5 119v20q0 64 20 113t53 81.5t76.5 49t90.5 16.5t84.5 -13t65 -36t45 -54t25.5 -67h-90q-8 19 -18.5 35.5t-26 28.5t-36.5 19t-49 7q-29 0 -56 -10.5t-48 -32t-33.5 -55.5t-12.5 -82v-20q0 -51 12.5 -87.5 t33.5 -59t48 -33t56 -10.5q49 0 82.5 24t47.5 66h90q-19 -79 -78 -125q-43 -33 -98 -41v-119h-86z" glyph-name="uni04AB" horiz-adv-x="545" unicode="ҫ"/>
<glyph d="M283 0v277l-273 423h108l211 -326l197 326h104l-253 -423v-277h-94z" glyph-name="uni04AE" horiz-adv-x="640" unicode="Ү"/>
<glyph d="M245 -230v219l-225 541h98l172 -440l156 440h94l-207 -546v-214h-88z" glyph-name="uni04AF" horiz-adv-x="560" unicode="ү"/>
<glyph d="M268 219h-146v82h143l-244 399h107l186 -306l172 306h103l-225 -399h133v-82h-135v-219h-94v219z" glyph-name="uni04B0" horiz-adv-x="599" unicode="Ұ"/>
<glyph d="M114 77h98l-192 453h99l159 -398l143 398h95l-177 -453h106v-77h-123v-230h-88v230h-120v77z" glyph-name="uni04B1" horiz-adv-x="536" unicode="ұ"/>
<glyph d="M564 -130v130h-40l-195 288l-197 -288h-102l247 357l-237 343h104l187 -271l189 271h100l-236 -341l190 -277h80v-212h-90z" glyph-name="uni04B2" horiz-adv-x="684" unicode="Ҳ"/>
<glyph d="M457 -125v125h-36l-148 207l-148 -207h-100l199 269l-189 261h102l140 -193l140 193h98l-189 -256l142 -196h73v-203h-84z" glyph-name="uni04B3" horiz-adv-x="566" unicode="ҳ"/>
<glyph d="M476 0v308q-26 -17 -73 -31t-108 -14q-123 0 -179 55.5t-56 176.5v205h94v-205q0 -79 35 -113.5t116 -34.5q63 0 104 15t67 32v306h94v-618h95v-212h-90v130h-99z" glyph-name="uni04B6" horiz-adv-x="695" unicode="Ҷ"/>
<glyph d="M476 0h-89v211q-23 -14 -55.5 -25t-81.5 -11q-93 0 -144 42t-51 143v170h88v-155q0 -68 28 -94t94 -26q45 0 77 9t45 19v247h88v-452h85v-203h-84v125z" glyph-name="uni04B7" horiz-adv-x="585" unicode="ҷ"/>
<glyph d="M438 0v334q-22 -17 -50 -28.5t-57 -16.5v-99h-85v93q-59 3 -98.5 20.5t-63.5 50t-34 78t-10 103.5v165h94v-165q0 -38 4.5 -67.5t17 -50.5t34.5 -33.5t56 -16.5v135h85v-133q31 7 58 21.5t49 39.5v270h94v-700h-94z" glyph-name="uni04B8" horiz-adv-x="632" unicode="Ҹ"/>
<glyph d="M387 237q-17 -11 -37.5 -19t-49.5 -13v-84h-75v81q-41 3 -72.5 14t-53 33t-33 56t-11.5 81v144h88v-129q0 -57 19 -83.5t63 -33.5v90h75v-91q32 3 54.5 10.5t32.5 15.5v221h88v-530h-88v237z" glyph-name="uni04B9" horiz-adv-x="555" unicode="ҹ"/>
<glyph d="M194 700v-285q26 17 74 31t114 14q118 0 173 -55.5t55 -176.5v-228h-94v228q0 79 -35 113.5t-117 34.5q-62 0 -103 -15t-67 -32v-329h-94v700h94z" glyph-name="uni04BA" horiz-adv-x="655" unicode="Һ"/>
<glyph d="M80 0v700h88v-265q20 42 64 73.5t111 31.5q100 0 148.5 -53.5t48.5 -156.5v-330h-88v310q0 75 -31 112.5t-104 37.5q-39 0 -67.5 -13t-46.5 -34t-26.5 -48t-8.5 -55v-310h-88z" glyph-name="uni04BB" horiz-adv-x="615" unicode="һ"/>
<glyph d="M110 700h94v-700h-94v700z" glyph-name="uni04C0" horiz-adv-x="314" unicode="Ӏ"/>
<glyph d="M100 700h94v-305h106l212 305h107l-219 -310q33 -5 64.5 -20t55.5 -40.5t38.5 -61t14.5 -80.5v-200q0 -97 -46.5 -142.5t-146.5 -45.5h-33v77h23q63 0 88.5 26t25.5 89v179q0 73 -41.5 108t-113.5 35h-135v-314h-94v700z" glyph-name="uni04C3" horiz-adv-x="643" unicode="Ӄ"/>
<glyph d="M297 -118q9 -2 16.5 -3t14.5 -1q37 0 50 29t13 93v100q0 69 -34.5 100.5t-88.5 31.5h-99v-232h-89v530h89v-222h71l168 222h99l-177 -230q72 -14 111 -60t39 -128v-137q0 -85 -33 -131t-96 -46q-27 0 -54 7v77z" glyph-name="uni04C4" horiz-adv-x="540" unicode="ӄ"/>
<glyph d="M100 700h94v-299h372v299h94v-700q0 -59 -9.5 -98t-30.5 -61.5t-55.5 -31.5t-85.5 -9h-2v82h2q25 0 41.5 5.5t26.5 19t14.5 36t4.5 57.5v319h-372v-319h-94v700z" glyph-name="uni04C7" horiz-adv-x="760" unicode="Ӈ"/>
<glyph d="M80 530h88v-221h274v221h88v-555q0 -85 -33 -131t-96 -46q-27 0 -54 7v77q9 -2 16.5 -3t14.5 -1q37 0 50.5 29t13.5 93v231h-274v-231h-88v530z" glyph-name="uni04C8" horiz-adv-x="610" unicode="ӈ"/>
<glyph d="M381 82h95v226q-26 -17 -73 -31t-108 -14q-123 0 -179 55.5t-56 176.5v205h94v-205q0 -79 35 -113.5t116 -34.5q63 0 104 15t67 32v306h94v-700h-99v-130h-90v212z" glyph-name="uni04CB" unicode="Ӌ"/>
<glyph d="M314 78h73v133q-23 -14 -55.5 -25t-81.5 -11q-93 0 -144 42t-51 143v170h88v-155q0 -68 28 -94t94 -26q45 0 77 9t45 19v247h88v-530h-77v-125h-84v203z" glyph-name="uni04CC" horiz-adv-x="555" unicode="ӌ"/>
<glyph d="M85 0v700h88v-700h-88z" glyph-name="uni04CF" horiz-adv-x="258" unicode="ӏ"/>
<glyph d="M481 174h-296l-67 -174h-98l268 700h94l268 -700h-102zM216 256h234l-117 324zM335 753q-85 0 -127.5 38t-42.5 112h88q0 -46 21 -66t61 -20q41 0 62.5 20t21.5 66h86q0 -74 -42.5 -112t-127.5 -38z" glyph-name="uni04D0" unicode="Ӑ"/>
<glyph d="M231 -10q-44 0 -77.5 12.5t-56.5 34.5t-35 52t-12 66q0 79 46.5 114t133.5 35h172v36q0 68 -30.5 94t-91.5 26q-57 0 -83 -21.5t-29 -48.5h-88q2 32 17.5 59.5t42 47.5t63.5 31.5t82 11.5q94 0 149.5 -44.5t55.5 -145.5v-215q0 -42 0.5 -73.5t4.5 -61.5h-77 q-3 23 -4 43.5t-1 46.5q-21 -42 -68 -71t-114 -29zM250 70q31 0 58.5 8.5t48.5 25t33 40.5t12 56v36h-157q-49 0 -77 -19.5t-28 -61.5q0 -37 26.5 -61t83.5 -24zM285 596q-78 0 -114 33.5t-36 96.5h86q0 -68 64 -68q66 0 66 68h84q0 -63 -36 -96.5t-114 -33.5z" glyph-name="uni04D1" horiz-adv-x="565" unicode="ӑ"/>
<glyph d="M481 174h-296l-67 -174h-98l268 700h94l268 -700h-102zM216 256h234l-117 324zM224 765q-25 0 -42.5 17.5t-17.5 42.5t17.5 42.5t42.5 17.5t42.5 -17.5t17.5 -42.5t-17.5 -42.5t-42.5 -17.5zM444 765q-25 0 -42.5 17.5t-17.5 42.5t17.5 42.5t42.5 17.5t42.5 -17.5 t17.5 -42.5t-17.5 -42.5t-42.5 -17.5z" glyph-name="uni04D2" unicode="Ӓ"/>
<glyph d="M231 -10q-44 0 -77.5 12.5t-56.5 34.5t-35 52t-12 66q0 79 46.5 114t133.5 35h172v36q0 68 -30.5 94t-91.5 26q-57 0 -83 -21.5t-29 -48.5h-88q2 32 17.5 59.5t42 47.5t63.5 31.5t82 11.5q94 0 149.5 -44.5t55.5 -145.5v-215q0 -42 0.5 -73.5t4.5 -61.5h-77 q-3 23 -4 43.5t-1 46.5q-21 -42 -68 -71t-114 -29zM250 70q31 0 58.5 8.5t48.5 25t33 40.5t12 56v36h-157q-49 0 -77 -19.5t-28 -61.5q0 -37 26.5 -61t83.5 -24zM181 602q-24 0 -41 17t-17 41t17 41t41 17t41 -17t17 -41t-17 -41t-41 -17zM385 602q-24 0 -41 17t-17 41 t17 41t41 17t41 -17t17 -41t-17 -41t-41 -17z" glyph-name="uni04D3" horiz-adv-x="565" unicode="ӓ"/>
<glyph d="M419 700h471v-82h-356v-217h326v-82h-326v-237h356v-82h-450v174h-225l-101 -174h-104zM440 256v320l-177 -320h177z" glyph-name="uni04D4" horiz-adv-x="950" unicode="Ӕ"/>
<glyph d="M241 -10q-47 0 -83 12.5t-60 34.5t-36 52t-12 66q0 82 47.5 118t131.5 36h173v31q0 68 -30.5 94t-91.5 26q-57 0 -83 -21.5t-29 -48.5h-88q2 32 17.5 59.5t42 47.5t62.5 31.5t78 11.5q66 0 114.5 -22.5t71.5 -67.5q30 47 73 68.5t106 21.5q117 0 181 -64t64 -181v-54 h-402q0 -47 15 -80t39 -53t53.5 -29t59.5 -9q60 0 92.5 20t46.5 55h86q-8 -38 -28.5 -67t-50 -48.5t-67 -29.5t-79.5 -10q-64 0 -118.5 29t-86.5 86q-29 -53 -78.5 -84t-130.5 -31zM251 70q30 0 57.5 8.5t48.5 25t33 40.5t12 56v41h-156q-50 0 -78 -21t-28 -65q0 -37 27 -61 t84 -24zM650 460q-31 0 -60 -9t-51.5 -27.5t-36.5 -47t-14 -67.5h319q-1 41 -13.5 69.5t-33.5 46.5t-49.5 26.5t-60.5 8.5z" glyph-name="uni04D5" horiz-adv-x="935" unicode="ӕ"/>
<glyph d="M100 700h450v-82h-356v-217h326v-82h-326v-237h356v-82h-450v700zM325 750q-85 0 -127.5 38t-42.5 112h88q0 -46 21 -66t61 -20q41 0 62.5 20t21.5 66h86q0 -74 -42.5 -112t-127.5 -38z" glyph-name="uni04D6" horiz-adv-x="610" unicode="Ӗ"/>
<glyph d="M300 -10q-51 0 -97 16t-81 49.5t-56 84.5t-21 120v20q0 66 20 114.5t53.5 81t78 48.5t93.5 16q117 0 181 -64t64 -181v-56h-402q0 -47 15 -79t39 -52t53.5 -29t59.5 -9q60 0 92.5 20t46.5 55h86q-8 -38 -28.5 -67t-50 -48.5t-67 -29.5t-79.5 -10zM295 460q-31 0 -60 -8.5 t-51.5 -27t-36.5 -46.5t-14 -67h319q-1 41 -13.5 69.5t-33.5 46t-49.5 25.5t-60.5 8zM290 595q-78 0 -114 33.5t-36 96.5h86q0 -68 64 -68q66 0 66 68h84q0 -63 -36 -96.5t-114 -33.5z" glyph-name="uni04D7" horiz-adv-x="580" unicode="ӗ"/>
<glyph d="M335 74q37 0 73 12.5t65.5 41.5t48.5 76t22 115h-389q4 -69 18.5 -115.5t38 -75.5t54.5 -41.5t69 -12.5zM335 -10q-64 0 -115.5 20.5t-88 64t-56.5 110.5t-20 160v56h489q-3 61 -21 104t-45.5 70t-62 39t-70.5 12q-58 0 -105.5 -30t-69.5 -96h-100q24 99 96 154.5 t177 55.5q61 0 115.5 -20.5t96 -62.5t66 -107t24.5 -155v-20q0 -93 -24.5 -160t-66.5 -110.5t-98.5 -64t-120.5 -20.5z" glyph-name="uni04D8" horiz-adv-x="705" unicode="Ә"/>
<glyph d="M128 219q1 -41 13.5 -69.5t33.5 -46t49.5 -25.5t60.5 -8q31 0 60 8.5t51.5 27t36.5 46.5t14 67h-319zM280 540q51 0 97 -16t81 -49.5t56 -84.5t21 -120v-20q0 -66 -20 -114.5t-53.5 -81t-78 -48.5t-93.5 -16q-118 0 -181.5 63.5t-63.5 181.5v56h402q0 46 -15 78.5 t-39 52.5t-53.5 29t-59.5 9q-60 0 -92.5 -20t-46.5 -55h-86q8 38 28.5 67t50 48.5t67 29.5t79.5 10z" glyph-name="uni04D9" horiz-adv-x="580" unicode="ә"/>
<glyph d="M335 -10q-64 0 -115.5 20.5t-88 64t-56.5 110.5t-20 160v56h489q-3 61 -21 104t-45.5 70t-62 39t-70.5 12q-58 0 -105.5 -30t-69.5 -96h-100q24 99 96 154.5t177 55.5q61 0 115.5 -20.5t96 -62.5t66 -107t24.5 -155v-20q0 -93 -24.5 -160t-66.5 -110.5t-98.5 -64 t-120.5 -20.5zM335 74q37 0 73 12.5t65.5 41.5t48.5 76t22 115h-389q4 -69 18.5 -115.5t38 -75.5t54.5 -41.5t69 -12.5zM243 765q-25 0 -42.5 17.5t-17.5 42.5t17.5 42.5t42.5 17.5t42.5 -17.5t17.5 -42.5t-17.5 -42.5t-42.5 -17.5zM463 765q-25 0 -42.5 17.5t-17.5 42.5 t17.5 42.5t42.5 17.5t42.5 -17.5t17.5 -42.5t-17.5 -42.5t-42.5 -17.5z" glyph-name="uni04DA" horiz-adv-x="705" unicode="Ӛ"/>
<glyph d="M280 540q51 0 97 -16t81 -49.5t56 -84.5t21 -120v-20q0 -66 -20 -114.5t-53.5 -81t-78 -48.5t-93.5 -16q-118 0 -181.5 63.5t-63.5 181.5v56h402q0 46 -15 78.5t-39 52.5t-53.5 29t-59.5 9q-60 0 -92.5 -20t-46.5 -55h-86q8 38 28.5 67t50 48.5t67 29.5t79.5 10zM128 219 q1 -41 13.5 -69.5t33.5 -46t49.5 -25.5t60.5 -8q31 0 60 8.5t51.5 27t36.5 46.5t14 67h-319zM177 602q-24 0 -41 17t-17 41t17 41t41 17t41 -17t17 -41t-17 -41t-41 -17zM381 602q-24 0 -41 17t-17 41t17 41t41 17t41 -17t17 -41t-17 -41t-41 -17z" glyph-name="uni04DB" horiz-adv-x="580" unicode="ӛ"/>
<glyph d="M288 364l-248 336h104l219 -301h70v301h94v-301h70l221 301h102l-248 -333l258 -367h-110l-223 321h-70v-321h-94v321h-70l-225 -321h-108zM369 765q-25 0 -42.5 17.5t-17.5 42.5t17.5 42.5t42.5 17.5t42.5 -17.5t17.5 -42.5t-17.5 -42.5t-42.5 -17.5zM589 765 q-25 0 -42.5 17.5t-17.5 42.5t17.5 42.5t42.5 17.5t42.5 -17.5t17.5 -42.5t-17.5 -42.5t-42.5 -17.5z" glyph-name="uni04DC" horiz-adv-x="960" unicode="Ӝ"/>
<glyph d="M225 273l-190 257h98l162 -222h61v222h88v-222h60l165 222h96l-190 -254l200 -276h-104l-167 232h-60v-232h-88v232h-61l-168 -232h-102zM298 602q-24 0 -41 17t-17 41t17 41t41 17t41 -17t17 -41t-17 -41t-41 -17zM502 602q-24 0 -41 17t-17 41t17 41t41 17t41 -17 t17 -41t-17 -41t-41 -17z" glyph-name="uni04DD" horiz-adv-x="800" unicode="ӝ"/>
<glyph d="M321 -10q-62 0 -110 15.5t-82 43.5t-54 66.5t-24 84.5h94q8 -57 54 -91.5t122 -34.5q93 0 134.5 33t41.5 89q0 54 -40 89.5t-131 35.5h-95v78h95q75 0 110.5 32.5t35.5 82.5t-38 81t-113 31q-80 0 -117.5 -30.5t-43.5 -80.5h-94q4 42 21.5 78t49.5 62t78 40.5t106 14.5 q121 0 183 -54t62 -142q0 -55 -31.5 -93.5t-83.5 -55.5q63 -15 101.5 -58t38.5 -111q0 -45 -17.5 -82.5t-52 -65t-84.5 -43t-116 -15.5zM209 765q-25 0 -42.5 17.5t-17.5 42.5t17.5 42.5t42.5 17.5t42.5 -17.5t17.5 -42.5t-17.5 -42.5t-42.5 -17.5zM429 765 q-25 0 -42.5 17.5t-17.5 42.5t17.5 42.5t42.5 17.5t42.5 -17.5t17.5 -42.5t-17.5 -42.5t-42.5 -17.5z" glyph-name="uni04DE" horiz-adv-x="640" unicode="Ӟ"/>
<glyph d="M260 -10q-100 0 -157 42t-63 118h88q7 -39 41.5 -59.5t90.5 -20.5q69 0 100.5 23.5t31.5 56.5q0 39 -26 61.5t-90 22.5h-91v72h85q55 0 78.5 21t23.5 59q0 30 -28 52t-84 22q-61 0 -88.5 -19.5t-33.5 -55.5h-88q3 33 18.5 61.5t42.5 49.5t64.5 32.5t84.5 11.5 q51 0 88.5 -11.5t62.5 -32t37 -48.5t12 -62q0 -38 -19 -66.5t-61 -44.5q56 -15 78 -48t22 -77q0 -33 -14 -62t-41.5 -50.5t-69 -34.5t-95.5 -13zM161 602q-24 0 -41 17t-17 41t17 41t41 17t41 -17t17 -41t-17 -41t-41 -17zM365 602q-24 0 -41 17t-17 41t17 41t41 17t41 -17 t17 -41t-17 -41t-41 -17z" glyph-name="uni04DF" horiz-adv-x="525" unicode="ӟ"/>
<glyph d="M100 700h94v-550l372 550h94v-700h-94v550l-372 -550h-94v700zM250 864h260v-68h-260v68z" glyph-name="uni04E2" horiz-adv-x="760" unicode="Ӣ"/>
<glyph d="M80 530h88v-400l274 400h88v-530h-88v400l-274 -400h-88v530zM175 694h260v-68h-260v68z" glyph-name="uni04E3" horiz-adv-x="610" unicode="ӣ"/>
<glyph d="M100 700h94v-550l372 550h94v-700h-94v550l-372 -550h-94v700zM269 765q-25 0 -42.5 17.5t-17.5 42.5t17.5 42.5t42.5 17.5t42.5 -17.5t17.5 -42.5t-17.5 -42.5t-42.5 -17.5zM489 765q-25 0 -42.5 17.5t-17.5 42.5t17.5 42.5t42.5 17.5t42.5 -17.5t17.5 -42.5 t-17.5 -42.5t-42.5 -17.5z" glyph-name="uni04E4" horiz-adv-x="760" unicode="Ӥ"/>
<glyph d="M80 530h88v-400l274 400h88v-530h-88v400l-274 -400h-88v530zM203 602q-24 0 -41 17t-17 41t17 41t41 17t41 -17t17 -41t-17 -41t-41 -17zM407 602q-24 0 -41 17t-17 41t17 41t41 17t41 -17t17 -41t-17 -41t-41 -17z" glyph-name="uni04E5" horiz-adv-x="610" unicode="ӥ"/>
<glyph d="M370 -10q-60 0 -116 20.5t-99 63.5t-69 110t-26 161v20q0 90 26 155t69 107.5t99 62.5t116 20t116 -20t99 -62.5t69 -107.5t26 -155v-20q0 -94 -26 -161t-69 -110t-99 -63.5t-116 -20.5zM370 74q41 0 79 15t67 47.5t46.5 84t17.5 124.5v20q0 69 -17.5 118.5t-46.5 81 t-67 46.5t-79 15t-79 -15t-67 -46.5t-46.5 -81t-17.5 -118.5v-20q0 -73 17.5 -124.5t46.5 -84t67 -47.5t79 -15zM260 765q-25 0 -42.5 17.5t-17.5 42.5t17.5 42.5t42.5 17.5t42.5 -17.5t17.5 -42.5t-17.5 -42.5t-42.5 -17.5zM480 765q-25 0 -42.5 17.5t-17.5 42.5t17.5 42.5 t42.5 17.5t42.5 -17.5t17.5 -42.5t-17.5 -42.5t-42.5 -17.5z" glyph-name="uni04E6" horiz-adv-x="740" unicode="Ӧ"/>
<glyph d="M300 -10q-51 0 -97 16.5t-81 50t-56 84.5t-21 119v20q0 64 21 113t56 81.5t81 49t97 16.5t97 -16.5t81 -49t56 -81.5t21 -113v-20q0 -68 -21 -119t-56 -84.5t-81 -50t-97 -16.5zM300 70q30 0 60 10.5t53 33t37.5 58.5t14.5 88v20q0 48 -14.5 82t-37.5 56t-53 32t-60 10 t-60 -10t-53 -32t-37.5 -56t-14.5 -82v-20q0 -52 14.5 -88t37.5 -58.5t53 -33t60 -10.5zM198 602q-24 0 -41 17t-17 41t17 41t41 17t41 -17t17 -41t-17 -41t-41 -17zM402 602q-24 0 -41 17t-17 41t17 41t41 17t41 -17t17 -41t-17 -41t-41 -17z" glyph-name="uni04E7" horiz-adv-x="600" unicode="ӧ"/>
<glyph d="M370 626q-39 0 -75 -13.5t-64.5 -41.5t-47.5 -71.5t-23 -104.5h419q-4 61 -22.5 104.5t-47 71.5t-64.5 41.5t-75 13.5zM370 74q39 0 75 13.5t64.5 42.5t47 74.5t22.5 110.5h-419q4 -65 22.5 -110.5t47.5 -74.5t65 -42.5t75 -13.5zM370 -10q-60 0 -116 20.5t-99 63.5 t-69 110t-26 161v20q0 90 26 155t69 107.5t99 62.5t116 20t116 -20t99 -62.5t69 -107.5t26 -155v-20q0 -94 -26 -161t-69 -110t-99 -63.5t-116 -20.5z" glyph-name="uni04E8" horiz-adv-x="740" unicode="Ө"/>
<glyph d="M300 460q-28 0 -55 -8.5t-49.5 -26.5t-38.5 -46.5t-20 -67.5h326q-5 39 -20.5 67.5t-38 46.5t-49.5 26.5t-55 8.5zM300 70q28 0 56.5 9t51 29.5t38 52.5t18.5 78h-329q3 -46 18.5 -78t38.5 -52.5t51 -29.5t57 -9zM300 -10q-51 0 -97 16.5t-81 50t-56 84.5t-21 119v20 q0 64 21 113t56 81.5t81 49t97 16.5t97 -16.5t81 -49t56 -81.5t21 -113v-20q0 -68 -21 -119t-56 -84.5t-81 -50t-97 -16.5z" glyph-name="uni04E9" horiz-adv-x="600" unicode="ө"/>
<glyph d="M370 -10q-60 0 -116 20.5t-99 63.5t-69 110t-26 161v20q0 90 26 155t69 107.5t99 62.5t116 20t116 -20t99 -62.5t69 -107.5t26 -155v-20q0 -94 -26 -161t-69 -110t-99 -63.5t-116 -20.5zM370 74q39 0 75 13.5t64.5 42.5t47 74.5t22.5 110.5h-419q4 -65 22.5 -110.5 t47.5 -74.5t65 -42.5t75 -13.5zM370 626q-39 0 -75 -13.5t-64.5 -41.5t-47.5 -71.5t-23 -104.5h419q-4 61 -22.5 104.5t-47 71.5t-64.5 41.5t-75 13.5zM260 765q-25 0 -42.5 17.5t-17.5 42.5t17.5 42.5t42.5 17.5t42.5 -17.5t17.5 -42.5t-17.5 -42.5t-42.5 -17.5zM480 765 q-25 0 -42.5 17.5t-17.5 42.5t17.5 42.5t42.5 17.5t42.5 -17.5t17.5 -42.5t-17.5 -42.5t-42.5 -17.5z" glyph-name="uni04EA" horiz-adv-x="740" unicode="Ӫ"/>
<glyph d="M300 -10q-51 0 -97 16.5t-81 50t-56 84.5t-21 119v20q0 64 21 113t56 81.5t81 49t97 16.5t97 -16.5t81 -49t56 -81.5t21 -113v-20q0 -68 -21 -119t-56 -84.5t-81 -50t-97 -16.5zM300 70q28 0 56.5 9t51 29.5t38 52.5t18.5 78h-329q3 -46 18.5 -78t38.5 -52.5t51 -29.5 t57 -9zM300 460q-28 0 -55 -8.5t-49.5 -26.5t-38.5 -46.5t-20 -67.5h326q-5 39 -20.5 67.5t-38 46.5t-49.5 26.5t-55 8.5zM198 602q-24 0 -41 17t-17 41t17 41t41 17t41 -17t17 -41t-17 -41t-41 -17zM402 602q-24 0 -41 17t-17 41t17 41t41 17t41 -17t17 -41t-17 -41 t-41 -17z" glyph-name="uni04EB" horiz-adv-x="600" unicode="ӫ"/>
<glyph d="M205 -10q-11 0 -21.5 0.5t-18.5 1.5v84q8 -1 18.5 -1.5t21.5 -0.5q21 0 36 3.5t26.5 13t21 25.5t20.5 42l-289 542h102l234 -445l198 445h96l-255 -563q-17 -38 -35 -66t-40 -46t-50 -26.5t-65 -8.5zM205 864h260v-68h-260v68z" glyph-name="uni04EE" unicode="Ӯ"/>
<glyph d="M150 -210q-15 0 -30 3v80q15 -3 30 -3t26 5t21 19t21.5 39.5t26.5 66.5l-225 530h98l172 -430l156 430h94l-200 -530q-21 -56 -40 -96t-40.5 -65.5t-47.5 -37t-62 -11.5zM150 694h260v-68h-260v68z" glyph-name="uni04EF" horiz-adv-x="560" unicode="ӯ"/>
<glyph d="M205 -10q-11 0 -21.5 0.5t-18.5 1.5v84q8 -1 18.5 -1.5t21.5 -0.5q21 0 36 3.5t26.5 13t21 25.5t20.5 42l-289 542h102l234 -445l198 445h96l-255 -563q-17 -38 -35 -66t-40 -46t-50 -26.5t-65 -8.5zM225 765q-25 0 -42.5 17.5t-17.5 42.5t17.5 42.5t42.5 17.5 t42.5 -17.5t17.5 -42.5t-17.5 -42.5t-42.5 -17.5zM445 765q-25 0 -42.5 17.5t-17.5 42.5t17.5 42.5t42.5 17.5t42.5 -17.5t17.5 -42.5t-17.5 -42.5t-42.5 -17.5z" glyph-name="uni04F0" unicode="Ӱ"/>
<glyph d="M150 -210q-15 0 -30 3v80q15 -3 30 -3t26 5t21 19t21.5 39.5t26.5 66.5l-225 530h98l172 -430l156 430h94l-200 -530q-21 -56 -40 -96t-40.5 -65.5t-47.5 -37t-62 -11.5zM185 602q-24 0 -41 17t-17 41t17 41t41 17t41 -17t17 -41t-17 -41t-41 -17zM389 602q-24 0 -41 17 t-17 41t17 41t41 17t41 -17t17 -41t-17 -41t-41 -17z" glyph-name="uni04F1" horiz-adv-x="560" unicode="ӱ"/>
<glyph d="M205 -10q-11 0 -21.5 0.5t-18.5 1.5v84q8 -1 18.5 -1.5t21.5 -0.5q21 0 36 3.5t26.5 13t21 25.5t20.5 42l-289 542h102l234 -445l198 445h96l-255 -563q-17 -38 -35 -66t-40 -46t-50 -26.5t-65 -8.5zM329 900h103l-136 -150h-82zM502 900h103l-161 -150h-82z" glyph-name="uni04F2" unicode="Ӳ"/>
<glyph d="M150 -210q-15 0 -30 3v80q15 -3 30 -3t26 5t21 19t21.5 39.5t26.5 66.5l-225 530h98l172 -430l156 430h94l-200 -530q-21 -56 -40 -96t-40.5 -65.5t-47.5 -37t-62 -11.5zM159 580l110 160h110l-150 -160h-70zM339 580l130 160h110l-170 -160h-70z" glyph-name="uni04F3" horiz-adv-x="560" unicode="ӳ"/>
<glyph d="M476 308q-26 -17 -73 -31t-108 -14q-123 0 -179 55.5t-56 176.5v205h94v-205q0 -79 35 -113.5t116 -34.5q62 0 103.5 15t67.5 32v306h94v-700h-94v308zM225 765q-25 0 -42.5 17.5t-17.5 42.5t17.5 42.5t42.5 17.5t42.5 -17.5t17.5 -42.5t-17.5 -42.5t-42.5 -17.5z M445 765q-25 0 -42.5 17.5t-17.5 42.5t17.5 42.5t42.5 17.5t42.5 -17.5t17.5 -42.5t-17.5 -42.5t-42.5 -17.5z" glyph-name="uni04F4" unicode="Ӵ"/>
<glyph d="M387 211q-23 -14 -55.5 -25t-81.5 -11q-46 0 -82.5 10t-61.5 32t-38 57t-13 86v170h88v-155q0 -34 6.5 -57t21.5 -37t38 -20t56 -6q45 0 77 9t45 19v247h88v-530h-88v211zM167 602q-24 0 -41 17t-17 41t17 41t41 17t41 -17t17 -41t-17 -41t-41 -17zM371 602q-24 0 -41 17 t-17 41t17 41t41 17t41 -17t17 -41t-17 -41t-41 -17z" glyph-name="uni04F5" horiz-adv-x="555" unicode="ӵ"/>
<glyph d="M100 700h94v-280h126q69 0 120 -15t84.5 -43t49.5 -66.5t16 -85.5t-16 -85.5t-49.5 -66.5t-84.5 -43t-120 -15h-220v700zM315 82q100 0 140.5 33.5t40.5 94.5t-40.5 94.5t-140.5 33.5h-121v-256h121zM696 700h94v-700h-94v700zM335 765q-25 0 -42.5 17.5t-17.5 42.5 t17.5 42.5t42.5 17.5t42.5 -17.5t17.5 -42.5t-17.5 -42.5t-42.5 -17.5zM555 765q-25 0 -42.5 17.5t-17.5 42.5t17.5 42.5t42.5 17.5t42.5 -17.5t17.5 -42.5t-17.5 -42.5t-42.5 -17.5z" glyph-name="uni04F8" horiz-adv-x="890" unicode="Ӹ"/>
<glyph d="M80 530h88v-200h107q100 0 147.5 -44t47.5 -122q0 -76 -47.5 -120t-147.5 -44h-195v530zM270 78q62 0 87 22t25 65t-25 65t-87 22h-102v-174h102zM552 530h88v-530h-88v530zM261 602q-24 0 -41 17t-17 41t17 41t41 17t41 -17t17 -41t-17 -41t-41 -17zM465 602 q-24 0 -41 17t-17 41t17 41t41 17t41 -17t17 -41t-17 -41t-41 -17z" glyph-name="uni04F9" horiz-adv-x="720" unicode="ӹ"/>
<glyph d="M432 -118h1q25 0 42 5.5t27 19t14.5 36t4.5 57.5v618h-282v-98q0 -111 -5 -193.5t-15 -141.5t-25 -97t-35.5 -59.5t-46.5 -30t-57 -8.5q-15 0 -30 3v92q3 -1 15 -1q20 0 35.5 6.5t27 24t20 49.5t13.5 82.5t7 122.5t2 171v160h470v-700q0 -60 -9.5 -98.5t-30.5 -61 t-56 -31.5t-86 -9h-1v82z" glyph-name="uni0512" horiz-adv-x="715" unicode="Ԓ"/>
<glyph d="M322 -118q9 -2 16.5 -3t14.5 -1q37 0 50.5 29t13.5 93v452h-204v-82q0 -111 -10 -184t-29.5 -116.5t-49.5 -61.5t-69 -18q-15 0 -30 3v88q3 -1 15 -1q22 0 38.5 14t26.5 49t15 95t5 152v140h380v-555q0 -85 -33 -131t-96 -46q-27 0 -54 7v77z" glyph-name="uni0513" horiz-adv-x="585" unicode="ԓ"/>
<glyph d="M344 707q71 0 116 -20t70.5 -52.5t34.5 -72.5t9 -79l-161 -99q56 -5 92 -21.5t56.5 -42t28.5 -57t8 -65.5q0 -43 -15.5 -79t-46 -62.5t-77.5 -41.5t-110 -15h-26v82h24q84 0 121 32t37 87t-34.5 87t-118.5 32h-44v80l173 109q0 49 -34 82.5t-100 33.5q-78 0 -116.5 -43.5 t-38.5 -126.5v-455h-94v466q0 49 16.5 93t48 77t77 52t104.5 19z" glyph-name="uni1E9E" horiz-adv-x="648" unicode="ẞ"/>
<glyph glyph-name="uni2009" horiz-adv-x="154" unicode=" "/>
<glyph d="M40 321h300v-82h-300v82z" glyph-name="uni2010" horiz-adv-x="380" unicode="‐"/>
<glyph d="M40 321h300v-82h-300v82z" glyph-name="uni2011" horiz-adv-x="380" unicode="‑"/>
<glyph d="M53 401h475v-82h-475v82z" glyph-name="figuredash" horiz-adv-x="581" unicode="‒"/>
<glyph d="M40 321h450v-82h-450v82z" glyph-name="endash" horiz-adv-x="530" unicode="–"/>
<glyph d="M40 321h650v-82h-650v82z" glyph-name="emdash" horiz-adv-x="730" unicode="—"/>
<glyph d="M205.012 550v-109.986h-109.986v109.986l99.9873 149.981h49.9941z" glyph-name="quoteleft" horiz-adv-x="300" unicode="‘"/>
<glyph d="M95 590v110h110v-110l-100 -150h-50z" glyph-name="quoteright" horiz-adv-x="300" unicode="’"/>
<glyph d="M95 0v110h110v-110l-100 -150h-50z" glyph-name="quotesinglbase" horiz-adv-x="300" unicode="‚"/>
<glyph d="M205.012 550v-109.986h-109.986v109.986l99.9873 149.981h49.9941zM395.012 550v-109.986h-109.986v109.986l99.9873 149.981h49.9941z" glyph-name="quotedblleft" horiz-adv-x="490" unicode="“"/>
<glyph d="M95 590v110h110v-110l-100 -150h-50zM285 590v110h110v-110l-100 -150h-50z" glyph-name="quotedblright" horiz-adv-x="490" unicode="”"/>
<glyph d="M95 0v110h110v-110l-100 -150h-50zM285 0v110h110v-110l-100 -150h-50z" glyph-name="quotedblbase" horiz-adv-x="490" unicode="„"/>
<glyph d="M233 456h-188v74h188v170h84v-170h188v-74h-188v-656h-84v656z" glyph-name="dagger" horiz-adv-x="550" unicode="†"/>
<glyph d="M233 0h-188v74h188v382h-188v74h188v170h84v-170h188v-74h-188v-382h188v-74h-188v-200h-84v200z" glyph-name="daggerdbl" horiz-adv-x="550" unicode="‡"/>
<glyph d="M200 155q-25 0 -47 9.5t-38 25.5t-25.5 38t-9.5 47t9.5 47t25.5 38t38 25.5t47 9.5t47 -9.5t38 -25.5t25.5 -38t9.5 -47t-9.5 -47t-25.5 -38t-38 -25.5t-47 -9.5z" glyph-name="bullet" horiz-adv-x="400" unicode="•"/>
<glyph d="M150 -10q-29 0 -49.5 20.5t-20.5 49.5q0 30 20.5 50t49.5 20t49.5 -20t20.5 -50q0 -29 -20.5 -49.5t-49.5 -20.5zM470 -10q-29 0 -49.5 20.5t-20.5 49.5q0 30 20.5 50t49.5 20t49.5 -20t20.5 -50q0 -29 -20.5 -49.5t-49.5 -20.5zM790 -10q-29 0 -49.5 20.5t-20.5 49.5 q0 30 20.5 50t49.5 20t49.5 -20t20.5 -50q0 -29 -20.5 -49.5t-49.5 -20.5z" glyph-name="ellipsis" horiz-adv-x="940" unicode="…"/>
<glyph glyph-name="uni202F" horiz-adv-x="154" unicode=" "/>
<glyph d="M610 700h100l-480 -700h-100zM190 370q-35 0 -64.5 12t-50.5 33.5t-33 52t-12 67.5v10q0 37 12 67t33 52t50.5 34t64.5 12t64.5 -12t50.5 -34t33 -52t12 -67v-10q0 -37 -12 -67.5t-33 -52t-50.5 -33.5t-64.5 -12zM190 446q34 0 54 22t20 67v10q0 45 -20 67t-54 22 t-54 -22t-20 -67v-10q0 -45 20 -67t54 -22zM650 -9q-35 0 -64.5 12t-50.5 33.5t-33 52t-12 67.5v10q0 37 12 67t33 52t50.5 34t64.5 12t64.5 -12t50.5 -34t33 -52t12 -67v-10q0 -37 -12 -67.5t-33 -52t-50.5 -33.5t-64.5 -12zM650 67q34 0 54 22t20 67v10q0 45 -20 67 t-54 22t-54 -22t-20 -67v-10q0 -45 20 -67t54 -22zM1030 -9q-35 0 -64.5 12t-50.5 33.5t-33 52t-12 67.5v10q0 37 12 67t33 52t50.5 34t64.5 12t64.5 -12t50.5 -34t33 -52t12 -67v-10q0 -37 -12 -67.5t-33 -52t-50.5 -33.5t-64.5 -12zM1030 67q34 0 54 22t20 67v10 q0 45 -20 67t-54 22t-54 -22t-20 -67v-10q0 -45 20 -67t54 -22z" glyph-name="perthousand" horiz-adv-x="1220" unicode="‰"/>
<glyph d="M40 236v78l220 186v-98l-150 -125l150 -125v-102z" glyph-name="guilsinglleft" horiz-adv-x="320" unicode="‹"/>
<glyph d="M280 314v-78l-220 -186v98l150 125l-150 125v102z" glyph-name="guilsinglright" horiz-adv-x="320" unicode="›"/>
<glyph d="M280 700h100l-480 -700h-100z" glyph-name="fraction" horiz-adv-x="180" unicode="⁄"/>
<glyph d="M214 537v148l-105 -148h105zM214 463h-194v64l187 253h93v-243h40v-74h-40v-83h-86v83z" glyph-name="uni2074" horiz-adv-x="380" unicode="⁴"/>
<glyph d="M365 -10q-50 0 -93.5 14.5t-78.5 45.5t-59.5 78.5t-35.5 112.5h-68v72h61q-1 8 -1 16v16v20v16t1 16h-61v72h69q11 62 35.5 107.5t59.5 75t78.5 44t92.5 14.5q114 0 178 -57.5t77 -162.5h-100q-14 68 -49 102t-106 34q-59 0 -104 -36t-62 -121h221v-72h-229q-1 -8 -1 -16 v-16v-20v-16t1 -16h229v-72h-221q9 -46 26 -78t39 -51.5t48 -28.5t53 -9q39 0 66.5 10t45.5 28t28 43t15 55h100q-16 -116 -82.5 -168t-172.5 -52z" glyph-name="Euro" unicode="€"/>
<glyph d="M305 -10q-49 0 -86.5 12t-62.5 33t-38 49.5t-13 60.5q0 29 7.5 51t25.5 48h-78v72h490v-72h-312q-23 -27 -33 -48t-10 -51q0 -32 25.5 -53.5t84.5 -21.5q58 0 82 21.5t28 53.5h90q-2 -32 -14.5 -60.5t-37.5 -49.5t-61.5 -33t-86.5 -12zM60 472h314q18 23 24.5 39.5 t6.5 43.5q0 35 -23 55t-77 20q-52 0 -74 -21.5t-26 -53.5h-90q2 31 14.5 59.5t36 49.5t58 33.5t81.5 12.5q46 0 81.5 -11.5t59.5 -32t36.5 -48t12.5 -58.5q0 -26 -6 -45.5t-19 -42.5h80v-72h-490v72z" glyph-name="uni20B4" horiz-adv-x="610" unicode="₴"/>
<glyph d="M263 0v452h-243v82h580v-82h-243v-452h-94zM20 700h580v-82h-580v82z" glyph-name="uni20B8" horiz-adv-x="620" unicode="₸"/>
<glyph d="M335 352q86 0 123.5 36t37.5 97t-37.5 97t-123.5 36h-121v-266h121zM120 114h-90v72h90v84h-90v82h90v348h220q62 0 108.5 -16t78 -44.5t47.5 -68t16 -86.5t-16 -86.5t-47.5 -68t-78 -44.5t-108.5 -16h-126v-84h236v-72h-236v-114h-94v114z" glyph-name="uni20BD" horiz-adv-x="640" unicode="₽"/>
<glyph d="M750 307h300v-74h-300v74zM900 446q34 0 54 22t20 67v10q0 45 -20 67t-54 22t-54 -22t-20 -67v-10q0 -45 20 -67t54 -22zM900 370q-35 0 -64.5 12t-50.5 33.5t-33 52t-12 67.5v10q0 37 12 67t33 52t50.5 34t64.5 12t64.5 -12t50.5 -34t33 -52t12 -67v-10q0 -37 -12 -67.5 t-33 -52t-50.5 -33.5t-64.5 -12zM100 700h92l376 -545v545h92v-700h-92l-376 545v-545h-92v700z" glyph-name="uni2116" horiz-adv-x="1095" unicode="№"/>
<glyph d="M430 700h89l122 -231l123 231h86v-400h-86v270l-99 -186h-50l-99 186v-270h-86v400zM147 626h-127v74h340v-74h-127v-326h-86v326z" glyph-name="trademark" horiz-adv-x="885" unicode="™"/>
<glyph d="M15 350l300 300h115l-259 -259h554v-82h-554l259 -259h-115z" glyph-name="arrowleft" horiz-adv-x="750" unicode="←"/>
<glyph d="M331 550l-256 -255v115l300 300l300 -300v-115l-256 255v-550h-88v550z" glyph-name="arrowup" horiz-adv-x="750" unicode="↑"/>
<glyph d="M579 309h-554v82h554l-259 259h115l300 -300l-300 -300h-115z" glyph-name="arrowright" horiz-adv-x="750" unicode="→"/>
<glyph d="M75 290v115l256 -255v550h88v-550l256 255v-115l-300 -300z" glyph-name="arrowdown" horiz-adv-x="750" unicode="↓"/>
<glyph d="M157 506v-356l-82 82v418h418l82 -82h-356l456 -456l-62 -62z" glyph-name="uni2196" horiz-adv-x="750" unicode="↖"/>
<glyph d="M75 108l460 460h-360l82 82h418v-418l-82 -82v360l-460 -460z" glyph-name="uni2197" horiz-adv-x="750" unicode="↗"/>
<glyph d="M175 132h356l-456 456l62 62l456 -456v356l82 -82v-418h-418z" glyph-name="uni2198" horiz-adv-x="750" unicode="↘"/>
<glyph d="M75 468l82 82v-360l460 460l58 -58l-460 -460h360l-82 -82h-418v418z" glyph-name="uni2199" horiz-adv-x="750" unicode="↙"/>
<glyph d="M148 82h369l-184 498zM285 700h100l265 -700h-630z" glyph-name="Delta" unicode="∆"/>
<glyph d="M50 401h450v-82h-450v82z" glyph-name="minus" horiz-adv-x="550" unicode="−"/>
<glyph d="M400 700h90l-340 -700h-90z" glyph-name="uni2215" horiz-adv-x="550" unicode="∕"/>
<glyph d="M10 391h120l139 -366l171 775h140v-82h-70l-182 -818h-105l-156 409h-57v82z" glyph-name="radical" horiz-adv-x="590" unicode="√"/>
<glyph d="M370 380q-32 0 -58 12t-49 26t-44.5 26t-43.5 12q-20 0 -34 -10t-24 -21q-11 -13 -19 -30l-63 40q13 29 33 52q17 20 44.5 36.5t67.5 16.5q32 0 58 -12t49 -26t44 -26t44 -12q20 0 34 9.5t24 20.5q11 13 19 31l63 -40q-13 -30 -33 -53q-17 -20 -45 -36t-67 -16zM370 180 q-32 0 -58 12t-49 26t-44.5 26t-43.5 12q-20 0 -34 -10t-24 -21q-11 -13 -19 -30l-63 40q13 29 33 52q17 20 44.5 36.5t67.5 16.5q32 0 58 -12t49 -26t44 -26t44 -12q20 0 34 9.5t24 20.5q11 13 19 31l63 -40q-13 -30 -33 -53q-17 -20 -45 -36t-67 -16z" glyph-name="approxequal" horiz-adv-x="550" unicode="≈"/>
<glyph d="M50 401v78l450 201v-94l-340 -144l340 -144v-98zM50 171h450v-82h-450v82z" glyph-name="lessequal" horiz-adv-x="550" unicode="≤"/>
<glyph d="M500 479v-78l-450 -201v94l340 144l-340 144v98zM50 171h450v-82h-450v82z" glyph-name="greaterequal" horiz-adv-x="550" unicode="≥"/>
<glyph d="M60 250l204 450h96l-204 -450l204 -450h-98z" glyph-name="angleleft" horiz-adv-x="380" unicode="〈"/>
<glyph d="M320.008 250.03l-203.976 -449.944h-95.9883l203.976 449.944l-203.976 449.945h97.9883z" glyph-name="angleright" horiz-adv-x="380" unicode="〉"/>
<glyph d="M-224 740h110l-150 -160h-70z" glyph-name="uniF400" horiz-adv-x="0" unicode=""/>
<glyph d="M-858 900h120l-150 -150h-80z" glyph-name="uniF401" horiz-adv-x="0" unicode=""/>
<glyph d="M80 -210q-25 0 -41 3q-10 1 -19 3v62q6 -1 14 -2q7 -1 16 -1.5t20 -0.5q28 0 39 9.5t11 23.5q0 12 -9.5 22t-47.5 10l17 91h64l-7 -48q39 -10 51 -32t12 -45q0 -43 -29 -69t-91 -26z" glyph-name="uniF407" horiz-adv-x="220" unicode=""/>
<glyph d="M130 900h99l111 -150h-80l-80 80l-80 -80h-80z" glyph-name="uniF408" horiz-adv-x="360" unicode=""/>
<glyph d="M95 590v110h110v-110l-100 -150h-50z" glyph-name="uniF40A" horiz-adv-x="275" unicode=""/>
<glyph d="M82 763q-26 0 -44 18t-18 44t18 44t44 18t44 -18t18 -44t-18 -44t-44 -18z" glyph-name="uniF40B" horiz-adv-x="164" unicode=""/>
<glyph d="M140 795q22 0 36 14t14 36t-14 36t-36 14t-36 -14t-14 -36t14 -36t36 -14zM140 735q-26 0 -47.5 8.5t-38 23t-25.5 34.5t-9 44t9 44t25.5 34.5t38 23t47.5 8.5q25 0 47 -8.5t38.5 -23t25.5 -34.5t9 -44t-9 -44t-25.5 -34.5t-38.5 -23t-47 -8.5z" glyph-name="uniF40C" horiz-adv-x="280" unicode=""/>
<glyph d="M260 760q-24 0 -42.5 7t-34 15.5t-29.5 15.5t-29 7q-11 0 -18.5 -6t-12.5 -14q-5 -9 -9 -20l-65 20q7 29 20 52q11 20 30.5 36.5t49.5 16.5q24 0 42.5 -7t34 -15.5t29.5 -15.5t29 -7q11 0 18.5 6t12.5 14q5 9 9 20l65 -20q-7 -30 -20 -53q-11 -20 -30.5 -36t-49.5 -16z " glyph-name="uniF40D" horiz-adv-x="380" unicode=""/>
<glyph d="M355 -10q-59 0 -112 20.5t-94 64t-65 110.5t-24 160v20q0 90 24 155t65 107t94 62.5t112 20.5q57 0 104.5 -15t83.5 -43t58.5 -69t28.5 -93h-100q-14 68 -59 102t-116 34q-37 0 -72 -14t-62.5 -44.5t-44 -80.5t-16.5 -122v-20q0 -76 18 -127.5t46 -83.5t63 -46t68 -14 q78 0 122 38t53 98h100q-8 -58 -32 -99.5t-60.5 -68.5t-83 -39.5t-99.5 -12.5zM325 -210q-25 0 -41 3q-10 1 -19 3v62q6 -1 14 -2q7 -1 16 -1.5t20 -0.5q28 0 39 9.5t11 23.5q0 12 -9.5 22t-47.5 10l17 91h64l-7 -48q39 -10 51 -32t12 -45q0 -43 -29 -69t-91 -26z" glyph-name="uni04AA.alt02" horiz-adv-x="680" unicode=""/>
<glyph d="M285 -10q-51 0 -95 16.5t-76 50t-50.5 84.5t-18.5 119v20q0 64 20 113t53 81.5t76.5 49t90.5 16.5t84.5 -13t65 -36t45 -54t25.5 -67h-90q-8 19 -18.5 35.5t-26 28.5t-36.5 19t-49 7q-29 0 -56 -10.5t-48 -32t-33.5 -55.5t-12.5 -82v-20q0 -51 12.5 -87.5t33.5 -59 t48 -33t56 -10.5q49 0 82.5 24t47.5 66h90q-19 -79 -78 -124.5t-142 -45.5zM255 -210q-25 0 -41 3q-10 1 -19 3v60q6 -1 14 -2q7 -1 16 -1.5t20 -0.5q28 0 40 10.5t12 24.5q0 12 -10 23t-47 11l17 89h60l-7 -48q20 -5 33 -13.5t20 -19t9.5 -22t2.5 -22.5q0 -43 -29 -69 t-91 -26z" glyph-name="uni04AB.alt02" horiz-adv-x="545" unicode=""/>
<glyph d="M100 700h94v-280h126q69 0 120 -15t84.5 -43t49.5 -66.5t16 -85.5t-16 -85.5t-49.5 -66.5t-84.5 -43t-120 -15h-220v700zM315 82q100 0 140.5 33.5t40.5 94.5t-40.5 94.5t-140.5 33.5h-121v-256h121zM696 700h94v-700h-94v700zM445 750q-85 0 -127.5 38t-42.5 112h88 q0 -46 21 -66t61 -20q41 0 62.5 20t21.5 66h86q0 -74 -42.5 -112t-127.5 -38z" glyph-name="uniF536" horiz-adv-x="890" unicode=""/>
<glyph d="M80 530h88v-200h107q100 0 147.5 -44t47.5 -122q0 -76 -47.5 -120t-147.5 -44h-195v530zM270 78q62 0 87 22t25 65t-25 65t-87 22h-102v-174h102zM552 530h88v-530h-88v530zM360 595q-78 0 -114 33.5t-36 96.5h86q0 -68 64 -68q66 0 66 68h84q0 -63 -36 -96.5t-114 -33.5 z" glyph-name="uniF537" horiz-adv-x="720" unicode=""/>
<glyph d="M100 700h450v-82h-356v-227h326v-82h-326v-309h-94v700z" glyph-name="uni0492.alt" horiz-adv-x="595" unicode=""/>
<glyph d="M80 0v530h360v-78h-272v-143h177v-78h-177v-231h-88z" glyph-name="uni0493.alt" horiz-adv-x="460" unicode=""/>
<glyph d="M40 391h300v-82h-300v82z" glyph-name="uniF6BA" horiz-adv-x="380" unicode=""/>
<glyph d="M40 391h450v-82h-450v82z" glyph-name="uniF6BB" horiz-adv-x="530" unicode=""/>
<glyph d="M40 391h650v-82h-650v82z" glyph-name="uniF6BC" horiz-adv-x="730" unicode=""/>
<glyph d="M130 900h120l-150 -150h-80z" glyph-name="uniF6C9" horiz-adv-x="270" unicode=""/>
<glyph d="M20 900h80l80 -80l80 80h80l-111 -150h-99z" glyph-name="uniF6CA" horiz-adv-x="360" unicode=""/>
<glyph d="M300 765q-25 0 -42.5 17.5t-17.5 42.5t17.5 42.5t42.5 17.5t42.5 -17.5t17.5 -42.5t-17.5 -42.5t-42.5 -17.5zM80 765q-25 0 -42.5 17.5t-17.5 42.5t17.5 42.5t42.5 17.5t42.5 -17.5t17.5 -42.5t-17.5 -42.5t-42.5 -17.5z" glyph-name="uniF6CB" horiz-adv-x="380" unicode=""/>
<glyph d="M20 900h119l111 -150h-80z" glyph-name="uniF6CE" horiz-adv-x="270" unicode=""/>
<glyph d="M349 900h103l-161 -150h-82zM176 900h103l-136 -150h-82z" glyph-name="uniF6CF" horiz-adv-x="500" unicode=""/>
<glyph d="M20 861h280v-72h-280v72z" glyph-name="uniF6D0" horiz-adv-x="320" unicode=""/>
<glyph d="M190 750q-85 0 -127.5 38t-42.5 112h88q0 -46 21 -66t61 -20q41 0 62.5 20t21.5 66h86q0 -74 -42.5 -112t-127.5 -38z" glyph-name="uniF6D1" horiz-adv-x="380" unicode=""/>
<glyph d="M170 595q-78 0 -114 33.5t-36 96.5h86q0 -68 64 -68q66 0 66 68h84q0 -63 -36 -96.5t-114 -33.5z" glyph-name="uniF6D4" horiz-adv-x="340" unicode=""/>
<glyph d="M310 72q75 0 120.5 48t45.5 140v20q0 83 -46 130.5t-120 47.5q-75 0 -120.5 -46.5t-45.5 -131.5v-20q0 -91 46 -139.5t120 -48.5zM310 -10q-122 0 -191 70t-69 200v20q0 59 18.5 107t52.5 82t82 52.5t107 18.5q122 0 191 -69t69 -191v-20q0 -63 -18.5 -113t-52.5 -85 t-82 -53.5t-107 -18.5z" glyph-name="uniF730" horiz-adv-x="620" unicode=""/>
<glyph d="M234 427l-174 -119v102l176 120h94v-530h-96v427z" glyph-name="uniF731" horiz-adv-x="430" unicode=""/>
<glyph d="M55 77l180 123q49 33 79.5 56.5t47.5 42t23 35t6 36.5q0 36 -28.5 61t-82.5 25q-66 0 -98.5 -32t-32.5 -89h-94q0 44 16 81.5t45 65t71 43t93 15.5q48 0 86 -13t64.5 -35.5t40.5 -54t14 -67.5q0 -32 -9 -58t-32 -52.5t-63 -57t-102 -71.5l-74 -49h280v-82h-430v77z" glyph-name="uniF732" horiz-adv-x="550" unicode=""/>
<glyph d="M270 -210q-53 0 -95.5 16.5t-72.5 45.5t-46 68.5t-16 84.5h94q0 -58 33.5 -94.5t102.5 -36.5t102.5 36t33.5 90q0 71 -37.5 103t-108.5 32h-55v80h55q69 0 102.5 30t33.5 95q0 52 -30 84t-96 32q-63 0 -94.5 -34t-31.5 -87h-94q0 43 15 80.5t43.5 65t69.5 43.5t92 16 q52 0 92.5 -15t69 -40.5t43.5 -60.5t15 -74q0 -64 -30.5 -108.5t-79.5 -61.5q53 -19 86.5 -65t33.5 -125q0 -40 -16 -76t-45.5 -63.5t-72 -44t-96.5 -16.5z" glyph-name="uniF733" horiz-adv-x="560" unicode=""/>
<glyph d="M356 82v338l-236 -338h236zM356 0h-336v72l326 458h104v-448h90v-82h-90v-200h-94v200z" glyph-name="uniF734" horiz-adv-x="560" unicode=""/>
<glyph d="M295 -210q-55 0 -96 16.5t-69 43t-43 60.5t-17 70h94q5 -46 39.5 -76t91.5 -30q64 0 102.5 43.5t38.5 127.5q0 45 -11.5 77.5t-31 53.5t-45 30.5t-53.5 9.5q-27 0 -47 -5.5t-35 -14.5t-25.5 -21t-18.5 -25h-84v380h405v-82h-311v-205q26 27 60 42t76 15q100 0 157.5 -64 t57.5 -191q0 -60 -17.5 -107.5t-48.5 -80.5t-74.5 -50t-94.5 -17z" glyph-name="uniF735" horiz-adv-x="590" unicode=""/>
<glyph d="M297 74q66 0 102.5 37t36.5 107v10q0 69 -36.5 106t-102.5 37t-102.5 -37t-36.5 -106v-10q0 -69 36.5 -106.5t102.5 -37.5zM305 -10q-56 0 -101.5 18.5t-77.5 57.5t-49 99.5t-17 144.5v20q0 103 20.5 175.5t56 118t81.5 66t97 20.5q74 0 128 -38.5t72 -116.5h-94 q-14 36 -42.5 53.5t-63.5 17.5q-34 0 -64 -13t-52.5 -43t-36.5 -80t-16 -125q28 49 72.5 69.5t91.5 20.5q49 0 89.5 -15t69.5 -43.5t45 -71t16 -96.5v-10q0 -50 -18.5 -92t-49.5 -72.5t-71.5 -47.5t-85.5 -17z" glyph-name="uniF736" horiz-adv-x="580" unicode=""/>
<glyph d="M372 448h-352v82h450v-77l-260 -653h-100z" glyph-name="uniF737" horiz-adv-x="510" unicode=""/>
<glyph d="M295 395q26 4 49 13.5t40 25t27 37t10 49.5q0 51 -32.5 78.5t-93.5 27.5q-63 0 -94.5 -27.5t-31.5 -78.5q0 -28 10 -49.5t27 -37t40 -25t49 -13.5zM295 74q39 0 67 9.5t45.5 25t25.5 37t8 45.5q0 28 -11.5 51t-31.5 40.5t-46.5 28t-56.5 14.5q-30 -4 -56.5 -14.5 t-46.5 -27.5t-31.5 -40.5t-11.5 -51.5q0 -24 8 -45.5t25.5 -37t45.5 -25t67 -9.5zM295 -10q-59 0 -103.5 14t-75 39.5t-46 60t-15.5 76.5q0 30 9.5 58t27.5 52t44 42t59 28q-54 17 -87 61t-33 104q0 39 15 73t43 58.5t69 39t93 14.5t93 -14.5t69 -39t43 -58.5t15 -73 q0 -60 -32.5 -102t-87.5 -63q67 -25 103.5 -68.5t36.5 -111.5q0 -42 -15.5 -76.5t-46 -60t-75.5 -39.5t-103 -14z" glyph-name="uniF738" horiz-adv-x="590" unicode=""/>
<glyph d="M283 139q69 0 104 40.5t35 112.5v10q0 72 -35.5 113t-103.5 41q-69 0 -104 -39.5t-35 -114.5v-10q0 -72 35 -112.5t104 -40.5zM270 -210q-37 0 -70 9.5t-60 29t-46.5 48.5t-28.5 68h94q28 -71 111 -71q34 0 63 13t51 44t35 83.5t15 130.5q-28 -49 -72.5 -69.5 t-91.5 -20.5q-102 0 -161 59.5t-59 176.5v10q0 54 17.5 98t48.5 75.5t71.5 48.5t87.5 17q114 0 179.5 -83t65.5 -257v-20q0 -107 -20 -181t-54 -120.5t-79.5 -67.5t-96.5 -21z" glyph-name="uniF739" horiz-adv-x="580" unicode=""/>
<glyph glyph-name="uniFEFF" horiz-adv-x="0" unicode="﻿"/>
</font>
</defs>
</svg>
