<?xml version="1.0" encoding="UTF-8"?>
<!DOCTYPE svg  PUBLIC '-//W3C//DTD SVG 1.1//EN'  'http://www.w3.org/Graphics/SVG/1.1/DTD/svg11.dtd'>
<svg version="1.1" xmlns="http://www.w3.org/2000/svg">
<defs>
<font id="GolosText-Bold" horiz-adv-x="580">
<font-face font-family="Golos Text" font-weight="700" ascent="774" bbox="-1025 -227 1205 960" cap-height="700" descent="-226" panose-1="2 11 8 3 2 2 2 2 2 4" underline-position="-100" underline-thickness="50" unicode-range="U+000D-FEFF" units-per-em="1000" x-height="530"/>
<missing-glyph d="M50 512h400v-512h-400v512zM442 8v496h-384v-496h384z" horiz-adv-x="500"/>
<glyph d="M50 512h400v-512h-400v512zM442 8v496h-384v-496h384z" glyph-name=".notdef" horiz-adv-x="500"/>
<glyph glyph-name="uni0000" horiz-adv-x="0"/>
<glyph glyph-name="uni0000" horiz-adv-x="0"/>
<glyph glyph-name="uni000D" horiz-adv-x="250" unicode=""/>
<glyph glyph-name="space" horiz-adv-x="250" unicode=" "/>
<glyph d="M160 -13q-40 0 -67.5 27.5t-27.5 67.5t27.5 67.5t67.5 27.5t67.5 -27.5t27.5 -67.5t-27.5 -67.5t-67.5 -27.5zM83 700h154v-460h-154v460z" glyph-name="exclam" horiz-adv-x="320" unicode="!"/>
<glyph d="M50 700h140v-260h-140v260zM270 700h140v-260h-140v260z" glyph-name="quotedbl" horiz-adv-x="460" unicode='"'/>
<glyph d="M384 288l23 124h-112l-23 -124h112zM119 182h-84v106h103l23 124h-87v106h107l34 182h134l-34 -182h112l34 182h134l-34 -182h84v-106h-104l-23 -124h88v-106h-107l-34 -182h-134l34 182h-112l-34 -182h-134z" glyph-name="numbersign" horiz-adv-x="680" unicode="#"/>
<glyph d="M265 -9q-112 13 -167.5 67.5t-57.5 141.5h180q8 -38 35 -55.5t80 -17.5q115 0 115 64q0 21 -11 34.5t-32 24t-52 18.5t-72 17q-52 12 -93.5 28.5t-70 42.5t-44 62.5t-15.5 87.5q0 84 54 136t151 66v92h140v-92q102 -13 153 -64t57 -134h-180q-6 32 -29 47.5t-71 15.5 q-53 0 -74 -17t-21 -44q0 -37 38.5 -54t111.5 -31q54 -11 98.5 -26.5t76 -41t48.5 -62t17 -89.5q0 -91 -59 -146.5t-166 -69.5v-112h-140v111z" glyph-name="dollar" horiz-adv-x="670" unicode="$"/>
<glyph d="M575 700h160l-480 -700h-160zM186 367q-81 0 -128 46t-47 122v10q0 76 47 122t128 46t128 -46t47 -122v-10q0 -76 -47 -122t-128 -46zM186 485q14 0 23 11t9 39v10q0 28 -9 39t-23 11t-23 -11t-9 -39v-10q0 -28 9 -39t23 -11zM645 -12q-81 0 -128 46t-47 122v10 q0 76 47 122t128 46t128 -46t47 -122v-10q0 -76 -47 -122t-128 -46zM645 106q14 0 23 11t9 39v10q0 28 -9 39t-23 11t-23 -11t-9 -39v-10q0 -28 9 -39t23 -11z" glyph-name="percent" horiz-adv-x="830" unicode="%"/>
<glyph d="M248 556q0 -15 7.5 -32.5t24.5 -40.5q18 15 28 26.5t15.5 20t7 15.5t1.5 15q0 16 -11 25.5t-31 9.5q-22 0 -32 -11t-10 -28zM300 115q27 0 54 6.5t45 18.5l-139 153q-18 -16 -29.5 -29t-17.5 -25t-8 -24t-2 -25q0 -32 26 -53.5t71 -21.5zM300 -13q-66 0 -114 15.5 t-79.5 43t-46.5 64.5t-15 80q0 24 5.5 47t19 47t37.5 51t62 59q-32 36 -50.5 73.5t-18.5 92.5q0 31 12 58.5t36.5 48.5t62.5 33.5t89 12.5q48 0 82 -14t55.5 -35.5t32 -49t10.5 -54.5q0 -26 -4.5 -47t-17 -41.5t-34.5 -42.5t-56 -50l105 -118q9 39 9 84h158 q0 -63 -14.5 -115.5t-40.5 -94.5l120 -135h-178l-36 39q-83 -52 -191 -52z" glyph-name="ampersand" horiz-adv-x="710" unicode="&amp;"/>
<glyph d="M50 700h140v-260h-140v260z" glyph-name="quotesingle" horiz-adv-x="240" unicode="'"/>
<glyph d="M60 260q0 109 25 191t56 138q36 65 82 111h157q-49 -46 -88 -111q-33 -56 -60.5 -138t-27.5 -191v-20q0 -109 27.5 -191t60.5 -138q39 -65 88 -111h-159q-46 46 -81 111q-30 56 -55 138t-25 191v20z" glyph-name="parenleft" horiz-adv-x="380" unicode="("/>
<glyph d="M320.008 240.031q0 -108.986 -24.9971 -190.977q-24.9971 -81.9893 -55.9932 -137.982q-35.9961 -64.9922 -81.9902 -110.986h-156.98q48.9932 45.9941 87.9883 110.986q32.9961 55.9932 60.4932 137.982q27.4971 81.9902 27.4971 190.977v19.998 q0 108.986 -27.4971 190.977t-60.4932 137.983q-38.9951 64.9922 -87.9883 110.986h158.98q45.9941 -45.9941 80.9902 -110.986q29.9961 -55.9932 54.9932 -137.983t24.9971 -190.977v-19.998z" glyph-name="parenright" horiz-adv-x="380" unicode=")"/>
<glyph d="M184 453l-85 -67l-59 103l104 36l-104 36l59 103l85 -67l-12 103h106l-12 -103l86 67l58 -103l-104 -36l104 -36l-59 -103l-85 67l12 -103h-106z" glyph-name="asterisk" horiz-adv-x="450" unicode="*"/>
<glyph d="M213 286h-178v148h178v181h154v-181h178v-148h-178v-181h-154v181z" glyph-name="plus" unicode="+"/>
<glyph d="M80 0v150h160v-150l-122 -165h-78z" glyph-name="comma" horiz-adv-x="320" unicode=","/>
<glyph d="M25 354h330v-148h-330v148z" glyph-name="hyphen" horiz-adv-x="380" unicode="-"/>
<glyph d="M160 -13q-40 0 -67.5 27.5t-27.5 67.5t27.5 67.5t67.5 27.5t67.5 -27.5t27.5 -67.5t-27.5 -67.5t-67.5 -27.5z" glyph-name="period" horiz-adv-x="320" unicode="."/>
<glyph d="M336 700h134l-326 -900h-134z" glyph-name="slash" horiz-adv-x="480" unicode="/"/>
<glyph d="M325 135q20 0 38.5 10t32 34.5t21.5 66t8 104.5v20q0 55 -8 92.5t-21.5 60.5t-32 32.5t-38.5 9.5t-38.5 -9.5t-32 -32.5t-21.5 -60.5t-8 -92.5v-20q0 -63 8 -104.5t21.5 -66t32 -34.5t38.5 -10zM325 -13q-59 0 -110 19.5t-89 62.5t-59.5 112.5t-21.5 168.5v20 q0 92 21.5 157t59.5 106.5t89 60.5t110 19t110 -19t89 -60.5t59.5 -106.5t21.5 -157v-20q0 -99 -21.5 -168.5t-59.5 -112.5t-89 -62.5t-110 -19.5z" glyph-name="zero" horiz-adv-x="650" unicode="0"/>
<glyph d="M40 148h155v371l-155 -110v180l156 111h179v-552h125v-148h-460v148z" glyph-name="one" horiz-adv-x="515" unicode="1"/>
<glyph d="M25 128l232 192q34 28 58 50.5t39.5 42.5t23 38.5t7.5 38.5q0 35 -19.5 54t-55.5 19q-95 0 -95 -118h-180q0 128 68.5 198t206.5 70q64 0 112 -16.5t80 -46t47.5 -70.5t15.5 -90q0 -36 -12.5 -69t-35 -64t-53.5 -60t-67 -57l-121 -92h299v-148h-550v128z" glyph-name="two" horiz-adv-x="610" unicode="2"/>
<glyph d="M300 -13q-67 0 -117.5 18.5t-84.5 51.5t-51 78.5t-17 99.5h180q0 -49 22.5 -73.5t72.5 -24.5q43 0 64 21t21 58q0 38 -21.5 58t-68.5 20h-59v132h59q80 0 80 71q0 31 -19.5 48.5t-55.5 17.5q-85 0 -85 -88h-180q0 112 67.5 175t192.5 63q62 0 110.5 -14.5t81.5 -40 t50.5 -61t17.5 -78.5q0 -57 -32 -97t-86 -57q63 -17 95.5 -58t32.5 -107q0 -48 -19 -87t-54 -67t-85 -43.5t-112 -15.5z" glyph-name="three" horiz-adv-x="610" unicode="3"/>
<glyph d="M334 284v217l-153 -217h153zM334 136h-314v123l326 441h168v-416h76v-148h-76v-136h-180v136z" glyph-name="four" horiz-adv-x="625" unicode="4"/>
<glyph d="M305 -13q-72 0 -121 18.5t-79.5 49.5t-44.5 72.5t-15 87.5h174q2 -40 25 -64.5t61 -24.5q47 0 67.5 29.5t20.5 83.5q0 57 -25 79.5t-63 22.5q-53 0 -82 -41h-163v400h476v-147h-303v-98q42 31 115 31q50 0 92 -15.5t72 -46.5t46.5 -76.5t16.5 -106.5q0 -58 -19 -105 t-54 -80t-85 -51t-112 -18z" glyph-name="five" horiz-adv-x="610" unicode="5"/>
<glyph d="M320 127q44 0 69.5 25.5t25.5 70.5v10q0 44 -25.5 69.5t-69.5 25.5t-69.5 -25.5t-25.5 -69.5v-10q0 -45 25.5 -70.5t69.5 -25.5zM330 -13q-139 0 -212 79.5t-73 258.5v20q0 99 21.5 168.5t60 114t93 65t120.5 20.5q104 0 166.5 -42.5t73.5 -145.5h-170q-14 48 -75 48 q-26 0 -47 -8t-36 -28.5t-24.5 -55t-10.5 -86.5q24 35 67 49t92 14q105 0 162 -59.5t57 -158.5v-11q0 -55 -19 -99.5t-54 -76t-83.5 -49t-108.5 -17.5z" glyph-name="six" horiz-adv-x="635" unicode="6"/>
<glyph d="M338 553h-318v147h500v-127l-220 -573h-190z" glyph-name="seven" horiz-adv-x="545" unicode="7"/>
<glyph d="M320 419q38 7 64 26t26 57q0 36 -24 54.5t-66 18.5t-66 -18t-24 -55q0 -38 26.5 -56.5t63.5 -26.5zM320 125q54 0 82 21.5t28 59.5q0 41 -32.5 64t-77.5 31q-45 -8 -77.5 -31t-32.5 -64q0 -38 29.5 -59.5t80.5 -21.5zM320 -13q-64 0 -116 14.5t-88.5 41.5t-56 65.5 t-19.5 86.5q0 58 35 104t104 64q-52 17 -85.5 58t-33.5 98q0 43 17.5 79t50.5 61.5t81.5 39.5t110.5 14t110.5 -14t81.5 -39.5t50.5 -61.5t17.5 -79q0 -57 -33 -97t-86 -59q69 -20 104 -63t35 -105q0 -48 -19.5 -86.5t-56 -65.5t-88.5 -41.5t-116 -14.5z" glyph-name="eight" horiz-adv-x="640" unicode="8"/>
<glyph d="M315 372q44 0 69.5 25.5t25.5 70.5v9q0 43 -26.5 69.5t-68.5 26.5q-44 0 -69.5 -25.5t-25.5 -69.5v-10q0 -45 25.5 -70.5t69.5 -25.5zM300 -13q-107 0 -170.5 43.5t-74.5 144.5h170q7 -23 26 -35.5t54 -12.5q24 0 44 8t35 28.5t23.5 54.5t10.5 87q-24 -35 -67 -49 t-91 -14q-106 0 -163 59.5t-57 159.5v10q0 55 19 99.5t54 76t83.5 49t108.5 17.5q69 0 122.5 -18.5t89.5 -59t54.5 -105t18.5 -155.5v-20q0 -99 -21.5 -168.5t-59.5 -114t-91.5 -65t-117.5 -20.5z" glyph-name="nine" horiz-adv-x="635" unicode="9"/>
<glyph d="M160 -13q-40 0 -67.5 27.5t-27.5 67.5t27.5 67.5t67.5 27.5t67.5 -27.5t27.5 -67.5t-27.5 -67.5t-67.5 -27.5zM160 353q-40 0 -67.5 27.5t-27.5 67.5t27.5 67.5t67.5 27.5t67.5 -27.5t27.5 -67.5t-27.5 -67.5t-67.5 -27.5z" glyph-name="colon" horiz-adv-x="320" unicode=":"/>
<glyph d="M80 0v150h160v-150l-122 -165h-78zM160 353q-40 0 -67.5 27.5t-27.5 67.5t27.5 67.5t67.5 27.5t67.5 -27.5t27.5 -67.5t-27.5 -67.5t-67.5 -27.5z" glyph-name="semicolon" horiz-adv-x="320" unicode=";"/>
<glyph d="M35 297v126l510 232v-180l-270 -112l270 -112v-186z" glyph-name="less" unicode="&lt;"/>
<glyph d="M35 564h510v-148h-510v148zM35 304h510v-148h-510v148z" glyph-name="equal" unicode="="/>
<glyph d="M545 423v-126l-510 -232v180l270 112l-270 112v186z" glyph-name="greater" unicode="&gt;"/>
<glyph d="M270 -13q-40 0 -67.5 27.5t-27.5 67.5t27.5 67.5t67.5 27.5t67.5 -27.5t27.5 -67.5t-27.5 -67.5t-67.5 -27.5zM193 280q0 22 6.5 40.5t18.5 34.5t28.5 31t35.5 30q33 28 51.5 50.5t18.5 48.5q0 33 -20 51.5t-62 18.5q-40 0 -61 -21t-21 -59h-158q0 43 17 80.5t48 66 t75.5 45t99.5 16.5q58 0 103 -15t75.5 -41t46 -61t15.5 -76q0 -31 -7.5 -56t-20 -45.5t-28.5 -37.5t-32 -31q-26 -23 -41 -38t-22.5 -25t-9.5 -17.5t-2 -14.5v-15h-154v40z" glyph-name="question" horiz-adv-x="540" unicode="?"/>
<glyph d="M471 127q37 0 58 24.5t21 71.5v58q0 50 -21 73t-59 23q-36 0 -55 -25t-19 -85v-31q0 -58 19.5 -83.5t55.5 -25.5zM504 -213q-103 0 -187.5 31t-145 90.5t-93.5 147t-33 201.5q0 108 34 193t93.5 143.5t140 89.5t172.5 31q103 0 184.5 -27.5t138.5 -81.5t87 -133t30 -182 q0 -74 -16.5 -127.5t-45.5 -88.5t-68.5 -51.5t-86.5 -16.5q-44 0 -78.5 17t-48.5 68q-19 -42 -52.5 -64t-85.5 -22q-85 0 -135 57.5t-50 172.5v39q0 116 47.5 170t128.5 54q54 0 81.5 -19.5t40.5 -45.5v57h123v-279q0 -48 10 -65.5t39 -17.5q19 0 34.5 7.5t26 26t16 50 t5.5 78.5q0 85 -24 146t-67 99.5t-103 56.5t-131 18q-69 0 -128.5 -22t-103 -66t-68 -110t-24.5 -155q0 -92 24.5 -160.5t69.5 -114.5t108.5 -68.5t140.5 -22.5q74 0 128.5 16.5t92.5 39.5v-112q-40 -21 -92.5 -34.5t-128.5 -13.5z" glyph-name="at" horiz-adv-x="970" unicode="@"/>
<glyph d="M279 272h132l-66 208zM462 134h-234l-48 -134h-170l255 700h180l255 -700h-190z" glyph-name="A" horiz-adv-x="710" unicode="A"/>
<glyph d="M361 421q58 0 78.5 18.5t20.5 52.5q0 35 -20.5 52.5t-77.5 17.5h-112v-141h111zM375 138q65 0 90 19.5t25 60.5t-25.5 61t-91.5 20h-123v-161h125zM70 700h335q123 0 179 -48.5t56 -138.5q0 -54 -28 -92.5t-76 -55.5q62 -14 98 -56.5t36 -110.5q0 -92 -60.5 -145 t-194.5 -53h-345v700z" glyph-name="B" horiz-adv-x="705" unicode="B"/>
<glyph d="M370 -13q-72 0 -132 19.5t-102.5 62.5t-66.5 111t-24 166v19q0 92 25 158t69 108t103.5 62t127.5 20q61 0 114.5 -14t94 -44t66 -78t30.5 -117h-186q-5 28 -16 47.5t-27 32t-35.5 18t-40.5 5.5q-30 0 -55.5 -10.5t-44 -34t-29 -61.5t-10.5 -92v-21q0 -58 11.5 -97.5 t30.5 -64t44 -35t53 -10.5q51 0 81.5 24.5t37.5 78.5h186q-4 -70 -28.5 -118t-65 -78t-94.5 -43.5t-117 -13.5z" glyph-name="C" horiz-adv-x="710" unicode="C"/>
<glyph d="M315 148q34 0 64.5 10.5t54 33.5t37 61t13.5 92v20q0 51 -12.5 86.5t-34 58t-50.5 32.5t-62 10h-75v-404h65zM70 700h265q79 0 141 -21.5t105 -63.5t66 -105t23 -145v-20q0 -84 -23.5 -148.5t-68 -108t-108.5 -66t-145 -22.5h-255v700z" glyph-name="D" horiz-adv-x="715" unicode="D"/>
<glyph d="M70 700h510v-138h-330v-137h300v-130h-300v-157h330v-138h-510v700z" glyph-name="E" horiz-adv-x="625" unicode="E"/>
<glyph d="M70 700h495v-138h-315v-162h285v-130h-285v-270h-180v700z" glyph-name="F" horiz-adv-x="595" unicode="F"/>
<glyph d="M380 -13q-72 0 -133 20t-106 63.5t-70.5 111.5t-25.5 163v20q0 91 26 156.5t71 108t105 63t128 20.5q60 0 112 -14t92 -43.5t66.5 -75.5t34.5 -110h-186q-7 28 -20 46t-29 28.5t-34 14.5t-36 4q-32 0 -58.5 -10t-45.5 -33t-29.5 -61t-10.5 -94v-20q0 -56 11 -95.5 t30.5 -64.5t47 -36.5t60.5 -11.5q27 0 53.5 7t47 22t33.5 37.5t14 54.5h-128v114h295v-47q0 -90 -23.5 -154t-65.5 -105t-99.5 -60t-126.5 -19z" glyph-name="G" horiz-adv-x="735" unicode="G"/>
<glyph d="M70 700h180v-266h260v266h180v-700h-180v286h-260v-286h-180v700z" glyph-name="H" horiz-adv-x="760" unicode="H"/>
<glyph d="M80 700h180v-700h-180v700z" glyph-name="I" horiz-adv-x="340" unicode="I"/>
<glyph d="M260 -13q-116 0 -177 65.5t-63 187.5h170q2 -51 17 -77t53 -26q34 0 52 25.5t18 87.5v450h180v-450q0 -72 -18 -122t-51 -81.5t-79 -45.5t-102 -14z" glyph-name="J" horiz-adv-x="570" unicode="J"/>
<glyph d="M70 700h180v-281l244 281h196l-260 -288l280 -412h-210l-192 296l-58 -65v-231h-180v700z" glyph-name="K" horiz-adv-x="725" unicode="K"/>
<glyph d="M70 700h180v-552h300v-148h-480v700z" glyph-name="L" horiz-adv-x="570" unicode="L"/>
<glyph d="M70 700h184l194 -355l192 355h180v-700h-180v401l-145 -266h-100l-145 266v-401h-180v700z" glyph-name="M" horiz-adv-x="890" unicode="M"/>
<glyph d="M70 700h159l271 -390v390h190v-700h-170l-270 390v-390h-180v700z" glyph-name="N" horiz-adv-x="760" unicode="N"/>
<glyph d="M385 137q30 0 58 9.5t49 33t34 63.5t13 102v20q0 58 -13 96.5t-34 61t-49 31.5t-58 9t-58 -9t-49 -31.5t-34 -61t-13 -96.5v-20q0 -62 13 -102t34 -63.5t49 -33t58 -9.5zM385 -13q-69 0 -131 20t-108.5 63.5t-73.5 111t-27 163.5v20q0 92 27 158t73.5 108t108.5 62 t131 20t131 -20t108.5 -62t73.5 -108t27 -158v-20q0 -96 -27 -163.5t-73.5 -111t-108.5 -63.5t-131 -20z" glyph-name="O" horiz-adv-x="770" unicode="O"/>
<glyph d="M335 370q69 0 97 23t28 68t-28 68t-97 23h-85v-182h85zM70 700h285q146 0 215.5 -63.5t69.5 -175.5t-69.5 -175.5t-215.5 -63.5h-105v-222h-180v700z" glyph-name="P" horiz-adv-x="670" unicode="P"/>
<glyph d="M385 137q17 0 33.5 2.5t31.5 9.5l-95 96l85 85l86 -86q6 20 9.5 45t3.5 56v20q0 58 -13 96.5t-34 61t-49 31.5t-58 9t-58 -9t-49 -31.5t-34 -61t-13 -96.5v-20q0 -62 13 -102t34 -63.5t49 -33t58 -9.5zM385 -13q-69 0 -131 20t-108.5 63.5t-73.5 111t-27 163.5v20 q0 92 27 158t73.5 108t108.5 62t131 20t131 -20t108.5 -62t73.5 -108t27 -158v-20q0 -76 -17.5 -134t-48.5 -101l56 -55l-85 -85l-61 60q-40 -23 -86.5 -33t-97.5 -10z" glyph-name="Q" horiz-adv-x="770" unicode="Q"/>
<glyph d="M335 380q72 0 98.5 21.5t26.5 64.5t-26.5 64.5t-98.5 21.5h-85v-172h85zM70 700h305q131 0 198 -63t67 -171q0 -75 -35.5 -128.5t-106.5 -78.5l162 -259h-200l-136 240h-74v-240h-180v700z" glyph-name="R" horiz-adv-x="695" unicode="R"/>
<glyph d="M335 -13q-147 0 -219.5 57t-75.5 156h180q8 -38 35 -55.5t80 -17.5q115 0 115 64q0 21 -11 34.5t-32 24t-52 18.5t-72 17q-52 12 -93.5 28.5t-70 42.5t-44 62.5t-15.5 87.5q0 49 19 87.5t55 65t87 40.5t114 14q138 0 205.5 -53t74.5 -150h-180q-6 32 -29 47.5t-71 15.5 q-53 0 -74 -17t-21 -44q0 -37 38.5 -54t111.5 -31q54 -11 98.5 -26.5t76 -41t48.5 -62t17 -89.5q0 -104 -78 -162.5t-217 -58.5z" glyph-name="S" horiz-adv-x="670" unicode="S"/>
<glyph d="M235 552h-215v148h610v-148h-215v-552h-180v552z" glyph-name="T" horiz-adv-x="650" unicode="T"/>
<glyph d="M365 -13q-70 0 -126.5 18.5t-96 55t-61 91.5t-21.5 128v420h180v-399q0 -81 28 -122.5t97 -41.5q71 0 98 41.5t27 121.5v400h180v-420q0 -73 -21 -128t-60.5 -91.5t-96 -55t-127.5 -18.5z" glyph-name="U" horiz-adv-x="730" unicode="U"/>
<glyph d="M10 700h200l158 -470l152 470h180l-250 -700h-180z" glyph-name="V" horiz-adv-x="710" unicode="V"/>
<glyph d="M20 700h190l95 -434l110 434h170l123 -436l102 436h170l-180 -700h-180l-125 452l-115 -452h-180z" glyph-name="W" horiz-adv-x="1000" unicode="W"/>
<glyph d="M243 365l-218 335h199l137 -212l139 212h195l-217 -333l227 -367h-201l-146 245l-146 -245h-197z" glyph-name="X" horiz-adv-x="720" unicode="X"/>
<glyph d="M270 262l-260 438h208l146 -260l138 260h188l-240 -438v-262h-180v262z" glyph-name="Y" horiz-adv-x="700" unicode="Y"/>
<glyph d="M30 128l340 424h-335v148h555v-128l-340 -424h350v-148h-570v128z" glyph-name="Z" horiz-adv-x="630" unicode="Z"/>
<glyph d="M100 700h240v-106h-106v-688h106v-106h-240v900z" glyph-name="bracketleft" horiz-adv-x="380" unicode="["/>
<glyph d="M10 700h134l326 -900h-134z" glyph-name="backslash" horiz-adv-x="480" unicode="\"/>
<glyph d="M280.012 -199.914h-239.971v105.986h105.987v687.916h-105.987v105.987h239.971v-899.89z" glyph-name="bracketright" horiz-adv-x="380" unicode="]"/>
<glyph d="M213 700h154l183 -260h-180l-85 130l-85 -130h-170z" glyph-name="asciicircum" unicode="^"/>
<glyph d="M0 -47h500v-106h-500v106z" glyph-name="underscore" horiz-adv-x="500" unicode="_"/>
<glyph d="M20 740h160l110 -160h-120z" glyph-name="grave" horiz-adv-x="310" unicode="`"/>
<glyph d="M265 95q49 0 82.5 28t33.5 77v22h-121q-34 0 -50.5 -18t-16.5 -42q0 -29 16.5 -48t55.5 -19zM215 -13q-43 0 -76.5 13t-56.5 35.5t-35 53t-12 66.5q0 79 48.5 121t146.5 42h151v22q0 48 -23 66.5t-63 18.5q-38 0 -56 -12t-20 -38h-154q2 36 18 66.5t45.5 53t72.5 35.5 t99 13q52 0 95.5 -11.5t74.5 -37t48 -66t17 -98.5v-195q0 -42 2 -73.5t6 -61.5h-146q-2 17 -3.5 30t-1.5 32q-24 -32 -66.5 -53.5t-110.5 -21.5z" glyph-name="a" unicode="a"/>
<glyph d="M320 114q46 0 76.5 37t30.5 109v20q0 69 -29.5 102.5t-77.5 33.5q-49 0 -82.5 -30.5t-33.5 -90.5v-50q0 -63 33.5 -97t82.5 -34zM357 -13q-30 0 -56 7t-47 19t-36.5 27.5t-25.5 31.5v-72h-142v700h154v-237q27 39 67.5 59.5t85.5 20.5q112 0 170 -66t58 -197v-20 q0 -68 -16 -119t-46 -85t-72 -51.5t-94 -17.5z" glyph-name="b" horiz-adv-x="615" unicode="b"/>
<glyph d="M300 -13q-59 0 -108.5 17t-85.5 51t-56 85t-20 120v20q0 63 21.5 112t58 82.5t85.5 51t105 17.5q60 0 105.5 -16t76.5 -43.5t48 -64.5t20 -79h-158q-8 36 -29.5 55.5t-62.5 19.5q-49 0 -80.5 -33.5t-31.5 -101.5v-20q0 -74 30.5 -109t81.5 -35q35 0 59.5 18.5t32.5 55.5 h158q-3 -47 -22 -84.5t-51.5 -63.5t-77 -40.5t-99.5 -14.5z" glyph-name="c" horiz-adv-x="575" unicode="c"/>
<glyph d="M295 114q49 0 82.5 34t33.5 97v50q0 60 -33.5 90.5t-82.5 30.5q-48 0 -77.5 -33.5t-29.5 -102.5v-20q0 -72 30.5 -109t76.5 -37zM258 -13q-52 0 -94 17.5t-72 51.5t-46 85t-16 119v20q0 128 59.5 195.5t168.5 67.5q45 0 85.5 -20.5t67.5 -59.5v237h154v-700h-142v72 q-10 -16 -25.5 -31.5t-36.5 -27.5t-47 -19t-56 -7z" glyph-name="d" horiz-adv-x="615" unicode="d"/>
<glyph d="M300 421q-21 0 -40.5 -5t-35 -16.5t-25 -29.5t-10.5 -44h220q0 28 -9 46t-23.5 29t-34.5 15.5t-42 4.5zM305 -13q-58 0 -108.5 16.5t-87.5 50.5t-58 85.5t-21 120.5v20q0 66 20.5 115t56 82t84 49.5t104.5 16.5q131 0 198 -67.5t67 -195.5v-55h-372q1 -31 11 -52.5 t26 -35.5t36.5 -20.5t43.5 -6.5q44 0 69.5 13.5t33.5 36.5h142q-16 -87 -79 -130t-166 -43z" glyph-name="e" horiz-adv-x="590" unicode="e"/>
<glyph d="M80 404h-60v126h60v25q0 36 10 64t34 47.5t63.5 29.5t97.5 10q15 0 37.5 -0.5t37.5 -2.5v-128q-15 2 -32.5 2.5t-32.5 0.5q-35 0 -48 -10.5t-13 -27.5v-10h116v-126h-116v-404h-154v404z" glyph-name="f" horiz-adv-x="365" unicode="f"/>
<glyph d="M295 124q49 0 82.5 33.5t33.5 92.5v50q0 56 -33.5 86t-82.5 30q-48 0 -77.5 -32.5t-29.5 -98.5v-20q0 -69 30.5 -105t76.5 -36zM290 -213q-65 0 -109.5 12t-72.5 33.5t-41.5 52.5t-16.5 70h156q3 -9 8 -18t15 -16t24.5 -11.5t36.5 -4.5q60 0 90.5 27.5t30.5 87.5v57 q-27 -39 -67.5 -59.5t-85.5 -20.5q-52 0 -94 17t-72 50.5t-46 83.5t-16 117v20q0 126 61 192t167 66q31 0 56.5 -7t46.5 -19t36.5 -27.5t25.5 -31.5v72h142v-495q0 -124 -66.5 -186t-208.5 -62z" glyph-name="g" horiz-adv-x="615" unicode="g"/>
<glyph d="M50 700h154v-237q8 13 22 27t34.5 26t47.5 19.5t60 7.5q95 0 143.5 -51.5t48.5 -145.5v-346h-154v310q0 52 -22.5 78.5t-73.5 26.5q-56 0 -81 -30t-25 -75v-310h-154v700z" glyph-name="h" horiz-adv-x="605" unicode="h"/>
<glyph d="M60 530h154v-530h-154v530zM137 580q-43 0 -66.5 22.5t-23.5 57.5t23.5 57.5t66.5 22.5t66.5 -22.5t23.5 -57.5t-23.5 -57.5t-66.5 -22.5z" glyph-name="i" horiz-adv-x="274" unicode="i"/>
<glyph d="M24 -213q-11 0 -25 0.5t-25 2.5v128q8 -2 17.5 -2.5t17.5 -0.5q12 0 21.5 4t16 15t10 30.5t3.5 50.5v515h154v-530q0 -63 -9 -104t-30.5 -65.5t-58.5 -34t-92 -9.5zM137 580q-43 0 -66.5 22.5t-23.5 57.5t23.5 57.5t66.5 22.5t66.5 -22.5t23.5 -57.5t-23.5 -57.5 t-66.5 -22.5z" glyph-name="j" horiz-adv-x="274" unicode="j"/>
<glyph d="M50 700h154v-374l171 204h174l-186 -223l207 -307h-178l-133 200l-55 -64v-136h-154v700z" glyph-name="k" unicode="k"/>
<glyph d="M240 -6q-48 0 -83 8t-57.5 29.5t-33.5 59t-11 96.5v513h154v-490q0 -25 3 -42t10.5 -27t21.5 -14.5t35 -4.5q12 0 20 0.5t16 1.5v-127q-30 -3 -75 -3z" glyph-name="l" horiz-adv-x="335" unicode="l"/>
<glyph d="M50 530h145v-76q18 35 56 62t94 27q63 0 97.5 -24t50.5 -65q20 38 61.5 63.5t99.5 25.5q86 0 131 -48.5t45 -144.5v-350h-154v312q0 56 -17.5 79.5t-56.5 23.5q-35 0 -60 -27.5t-25 -75.5v-312h-154v312q0 56 -17.5 79.5t-56.5 23.5q-36 0 -60.5 -27.5t-24.5 -75.5v-312 h-154v530z" glyph-name="m" horiz-adv-x="875" unicode="m"/>
<glyph d="M50 530h142v-72q20 35 62.5 60t113.5 25q95 0 143.5 -51.5t48.5 -146.5v-345h-154v310q0 52 -22.5 78.5t-73.5 26.5q-28 0 -48 -8.5t-33 -22.5t-19 -33.5t-6 -40.5v-310h-154v530z" glyph-name="n" horiz-adv-x="605" unicode="n"/>
<glyph d="M300 115q54 0 83 39t29 106v20q0 60 -29 97.5t-83 37.5t-83 -37.5t-29 -97.5v-20q0 -69 29 -107t83 -38zM300 -13q-56 0 -105 16.5t-86 50.5t-58 85.5t-21 120.5v20q0 65 21 114t58 82t86 50t105 17t105 -17t86 -50t58 -82t21 -114v-20q0 -68 -21 -119.5t-58 -85.5 t-86 -51t-105 -17z" glyph-name="o" horiz-adv-x="600" unicode="o"/>
<glyph d="M320 114q46 0 76.5 37t30.5 109v20q0 69 -29.5 102.5t-77.5 33.5q-49 0 -82.5 -30.5t-33.5 -90.5v-50q0 -63 33.5 -97t82.5 -34zM50 530h142v-72q10 16 25.5 31.5t36.5 27.5t47 19t56 7q112 0 170 -66t58 -197v-20q0 -68 -16 -119t-46 -85t-72 -51.5t-94 -17.5 q-45 0 -85.5 20.5t-67.5 59.5v-267h-154v730z" glyph-name="p" horiz-adv-x="615" unicode="p"/>
<glyph d="M295 114q49 0 82.5 34t33.5 97v50q0 60 -33.5 90.5t-82.5 30.5q-48 0 -77.5 -33.5t-29.5 -102.5v-20q0 -72 30.5 -109t76.5 -37zM411 67q-27 -39 -67.5 -59.5t-85.5 -20.5q-52 0 -94 17.5t-72 51.5t-46 85t-16 119v20q0 128 59.5 195.5t168.5 67.5q30 0 56 -7t47 -19 t36.5 -27.5t25.5 -31.5v72h142v-730h-154v267z" glyph-name="q" horiz-adv-x="615" unicode="q"/>
<glyph d="M50 530h142v-72q6 13 18.5 28t29.5 28t38.5 21t46.5 8q17 0 27 -2t18 -4v-133q-5 3 -23 7t-42 4q-53 0 -77 -31t-24 -75v-309h-154v530z" glyph-name="r" horiz-adv-x="390" unicode="r"/>
<glyph d="M280 -13q-65 0 -111.5 13.5t-76.5 37t-45 55t-17 67.5h154q6 -23 26 -39t70 -16q51 0 73.5 14t22.5 37q0 9 -5 16.5t-18.5 14t-36.5 12.5t-59 12q-44 7 -83 18t-67.5 29.5t-45 47.5t-16.5 73q0 35 16 65t46.5 52t74 34.5t98.5 12.5q62 0 104.5 -15t69.5 -39.5t40 -55.5 t16 -63h-154q-6 26 -26 40.5t-50 14.5q-46 0 -63.5 -14t-17.5 -33q0 -21 28 -32.5t89 -19.5q43 -6 82 -17t68.5 -30.5t46.5 -49t17 -71.5q0 -76 -63.5 -123.5t-186.5 -47.5z" glyph-name="s" horiz-adv-x="560" unicode="s"/>
<glyph d="M275 -6q-50 0 -86 9.5t-59 31.5t-34 57.5t-11 87.5v224h-65v126h65v120h154v-120h121v-126h-121v-199q0 -45 14.5 -64t56.5 -19q30 0 60 3v-126q-19 -2 -40 -3.5t-55 -1.5z" glyph-name="t" horiz-adv-x="400" unicode="t"/>
<glyph d="M232 -13q-91 0 -139 52t-48 158v333h154v-309q0 -52 21.5 -79t69.5 -27q52 0 76.5 30.5t24.5 75.5v309h154v-530h-142v72q-20 -35 -63 -60t-108 -25z" glyph-name="u" horiz-adv-x="595" unicode="u"/>
<glyph d="M10 530h170l134 -353l122 353h154l-203 -530h-154z" glyph-name="v" horiz-adv-x="600" unicode="v"/>
<glyph d="M10 530h166l74 -326l93 326h144l100 -323l83 323h150l-148 -530h-154l-104 344l-102 -344h-154z" glyph-name="w" horiz-adv-x="830" unicode="w"/>
<glyph d="M179 276l-159 254h170l104 -162l100 162h166l-158 -249l168 -281h-171l-111 189l-111 -189h-167z" glyph-name="x" unicode="x"/>
<glyph d="M155 -213q-15 0 -30 3v128q15 -3 30 -3q29 0 45 19.5t34 66.5l-224 529h170l132 -353l125 353h153l-203 -530q-22 -56 -42 -96.5t-45.5 -66.5t-60 -38t-84.5 -12z" glyph-name="y" horiz-adv-x="600" unicode="y"/>
<glyph d="M25 106l254 298h-244v126h440v-105l-254 -299h264v-126h-460v106z" glyph-name="z" horiz-adv-x="510" unicode="z"/>
<glyph d="M280 -200q-79 0 -124.5 45.5t-45.5 124.5v177q0 23 -13.5 36.5t-36.5 13.5v106q23 0 36.5 14t13.5 36v177q0 79 45.5 124.5t124.5 45.5h70v-106h-40q-35 0 -50.5 -15.5t-15.5 -50.5v-208q0 -30 -13.5 -46t-36.5 -24q23 -8 36.5 -24t13.5 -46v-208q0 -35 15.5 -50.5 t50.5 -15.5h40v-106h-70z" glyph-name="braceleft" horiz-adv-x="380" unicode="{"/>
<glyph d="M103 700h134v-900h-134v900z" glyph-name="bar" horiz-adv-x="340" unicode="|"/>
<glyph d="M100.034 699.976q78.9902 0 124.484 -45.4941q45.4951 -45.4951 45.4951 -124.485v-176.979q0 -22.9971 13.498 -36.4951t36.4961 -13.498v-105.987q-22.998 0 -36.4961 -13.998q-13.498 -13.999 -13.498 -35.9961v-176.979q0 -78.9902 -45.4951 -124.484 q-45.4941 -45.4941 -124.484 -45.4941h-69.9912v105.986h39.9951q34.9951 0 50.4932 15.498t15.498 50.4941v207.975q0 29.9961 13.499 45.9941q13.498 15.998 36.4951 23.9971q-22.9971 7.99902 -36.4951 23.9971q-13.499 15.998 -13.499 45.9941v207.975 q0 34.9961 -15.498 50.4941t-50.4932 15.498h-39.9951v105.987h69.9912z" glyph-name="braceright" horiz-adv-x="380" unicode="}"/>
<glyph d="M385 248q-34 0 -60 11.5t-48.5 25.5t-43.5 25.5t-43 11.5q-14 0 -25.5 -9.5t-19.5 -20.5q-10 -13 -17 -29l-103 72q15 38 40 68q20 26 52.5 47.5t77.5 21.5q34 0 60 -11.5t48.5 -25.5t43 -25.5t43.5 -11.5q14 0 25.5 9t19.5 20q10 13 17 30l103 -72q-16 -39 -40 -69 q-21 -26 -53 -47t-77 -21z" glyph-name="asciitilde" unicode="~"/>
<glyph glyph-name="uni00A0" horiz-adv-x="250" unicode=" "/>
<glyph d="M160 353q-40 0 -67.5 27.5t-27.5 67.5t27.5 67.5t67.5 27.5t67.5 -27.5t27.5 -67.5t-27.5 -67.5t-67.5 -27.5zM83 290h154v-490h-154v490z" glyph-name="exclamdown" horiz-adv-x="320" unicode="¡"/>
<glyph d="M230 -6q-45 9 -81.5 29.5t-63 54t-41 79t-14.5 103.5v20q0 53 15 96t42 75t63.5 53.5t79.5 30.5v95h140v-94q86 -17 130.5 -71t49.5 -125h-158q-8 36 -29.5 55.5t-62.5 19.5q-49 0 -80.5 -33.5t-31.5 -101.5v-20q0 -74 30.5 -109t81.5 -35q35 0 59.5 18.5t32.5 55.5h158 q-6 -78 -53 -129t-127 -67v-114h-140v114z" glyph-name="cent" horiz-adv-x="575" unicode="¢"/>
<glyph d="M45 148h90v133h-80v118h80v101q0 101 61.5 157t181.5 56q118 0 175.5 -54t61.5 -149h-180q-4 29 -21 41t-36 12q-27 0 -45 -15.5t-18 -47.5v-101h155v-118h-155v-133h300v-148h-570v148z" glyph-name="sterling" horiz-adv-x="660" unicode="£"/>
<glyph d="M290 282q33 0 54.5 21.5t21.5 56.5t-21.5 56.5t-54.5 21.5t-54.5 -21.5t-21.5 -56.5t21.5 -56.5t54.5 -21.5zM35 194l62 62q-13 23 -20 49t-7 55q0 28 7 54.5t20 49.5l-62 62l89 89l62 -62q23 13 49 20t55 7q28 0 54.5 -7t49.5 -20l62 62l89 -89l-62 -62q13 -23 20 -49.5 t7 -54.5q0 -29 -7 -55t-20 -49l62 -62l-89 -89l-62 62q-23 -13 -49.5 -20t-54.5 -7q-29 0 -55 7t-49 20l-62 -62z" glyph-name="currency" unicode="¤"/>
<glyph d="M245 128h-180v118h180v48h-180v118h90l-145 288h208l121 -288l123 288h188l-139 -288h94v-118h-180v-48h180v-118h-180v-128h-180v128z" glyph-name="yen" horiz-adv-x="660" unicode="¥"/>
<glyph d="M103 700h134v-370h-134v370zM103 170h134v-370h-134v370z" glyph-name="brokenbar" horiz-adv-x="340" unicode="¦"/>
<glyph d="M290 190q26 0 45 17t19 43t-19 43t-45 17t-45 -17t-19 -43t19 -43t45 -17zM290 -213q-106 0 -160.5 50t-54.5 133h186q0 -33 29 -33q14 0 21.5 8t7.5 20t-5 22t-18.5 20.5t-38.5 22t-65 26.5q-66 25 -109 75t-43 119q0 55 28 99t75 72q-36 23 -52 56t-16 73q0 34 14 63.5 t41 51.5t67 35t93 13q106 0 160.5 -50t54.5 -133h-186q0 33 -29 33q-14 0 -21.5 -8t-7.5 -20t5.5 -21.5t21 -20t43.5 -23.5t73 -32q61 -25 98.5 -74.5t37.5 -113.5q0 -55 -28 -99.5t-75 -72.5q35 -23 51.5 -56t16.5 -72q0 -34 -14 -63.5t-41 -51.5t-67.5 -35t-92.5 -13z" glyph-name="section" unicode="§"/>
<glyph d="M318 580q-37 0 -59.5 22.5t-22.5 57.5t22.5 57.5t59.5 22.5t59.5 -22.5t22.5 -57.5t-22.5 -57.5t-59.5 -22.5zM102 580q-37 0 -59.5 22.5t-22.5 57.5t22.5 57.5t59.5 22.5t59.5 -22.5t22.5 -57.5t-22.5 -57.5t-59.5 -22.5z" glyph-name="dieresis" horiz-adv-x="420" unicode="¨"/>
<glyph d="M425 137q-93 0 -149 53t-56 155v10q0 48 15.5 86.5t43 65.5t65 41.5t81.5 14.5q39 0 73 -9t60 -28.5t42 -50.5t19 -75h-136q-8 34 -23 45.5t-35 11.5q-29 0 -49 -23t-20 -79v-10q0 -29 6 -48.5t15.5 -31.5t22 -17t25.5 -5q48 0 58 62h136q-3 -45 -18.5 -76.5t-41 -52 t-60 -30t-74.5 -9.5zM425 84q54 0 102.5 20.5t84.5 56t57 84t21 105.5t-21 105.5t-57 84t-84 56t-103 20.5t-103 -20.5t-84 -56t-57 -84t-21 -105.5t21 -105.5t57 -84t84 -56t103 -20.5zM425 -28q-81 0 -151.5 29t-122 79.5t-81.5 119.5t-30 150t30 150t81.5 120t122 79.5 t151.5 28.5t151 -28.5t122 -79.5t82 -120t30 -150t-30 -150t-82 -119.5t-122 -79.5t-151 -29z" glyph-name="copyright" horiz-adv-x="850" unicode="©"/>
<glyph d="M193 455q22 0 33 12.5t11 32.5v12h-37q-37 0 -37 -32q0 -14 9.5 -19.5t20.5 -5.5zM135 367q-62 0 -88.5 28.5t-26.5 76.5q0 24 7.5 43.5t25.5 33.5t48 21.5t74 7.5h62v7q0 23 -6.5 31.5t-20.5 8.5q-11 0 -18 -8.5t-9 -21.5h-143q4 57 43.5 87.5t126.5 30.5 q91 0 130.5 -32t39.5 -96v-125q0 -26 2.5 -45.5t5.5 -34.5h-135q-2 8 -3.5 16t-1.5 19q-13 -21 -44 -34.5t-69 -13.5z" glyph-name="ordfeminine" horiz-adv-x="410" unicode="ª"/>
<glyph d="M25 212v126l220 187v-162l-105 -86l105 -86v-166zM270 212v126l220 187v-162l-105 -86l105 -86v-166z" glyph-name="guillemotleft" horiz-adv-x="535" unicode="«"/>
<glyph d="M391 286h-356v148h510v-314h-154v166z" glyph-name="logicalnot" unicode="¬"/>
<glyph d="M25 354h330v-148h-330v148z" glyph-name="uni00AD" horiz-adv-x="380" unicode="­"/>
<glyph d="M311 445q29 0 39.5 8t10.5 21t-10.5 21t-39.5 8h-22v-58h22zM195 575h120q78 0 108.5 -26t30.5 -75q0 -67 -59 -88l45 -111h-100l-30 100h-21v-100h-94v300zM315 219q42 0 78.5 15.5t63 43t42 65t15.5 82.5t-15.5 82.5t-42 65t-63 43.5t-78.5 16t-78.5 -16t-63 -43.5 t-42 -65t-15.5 -82.5t15.5 -82.5t42 -65t63 -43t78.5 -15.5zM315 138q-59 0 -111 22.5t-90.5 61t-61 91t-22.5 112.5t22.5 112.5t61 91.5t90.5 61.5t111 22.5t111 -22.5t90.5 -61.5t61 -91.5t22.5 -112.5t-22.5 -112.5t-61 -91t-90.5 -61t-111 -22.5z" glyph-name="registered" horiz-adv-x="630" unicode="®"/>
<glyph d="M20 713h320v-106h-320v106z" glyph-name="macron" horiz-adv-x="360" unicode="¯"/>
<glyph d="M195 491q22 0 37 15t15 37t-15 37t-37 15t-37 -15t-15 -37t15 -37t37 -15zM195 373q-35 0 -66 13.5t-54 36.5t-36.5 54t-13.5 66t13.5 66t36.5 54t54 36.5t66 13.5t66 -13.5t54 -36.5t36.5 -54t13.5 -66t-13.5 -66t-36.5 -54t-54 -36.5t-66 -13.5z" glyph-name="degree" horiz-adv-x="390" unicode="°"/>
<glyph d="M213 336h-178v148h178v181h154v-181h178v-148h-178v-66h-154v66zM35 204h510v-148h-510v148z" glyph-name="plusminus" unicode="±"/>
<glyph d="M15 471l157 120q17 13 28 22t17 15.5t8 11.5t2 11q0 11 -7.5 17.5t-24.5 6.5q-14 0 -23 -10t-9 -30h-143q0 77 42 117.5t133 40.5q90 0 132.5 -36.5t42.5 -91.5q0 -18 -3.5 -34t-14.5 -32.5t-30.5 -35t-50.5 -40.5l-38 -27h142v-116h-360v91z" glyph-name="uni00B2" horiz-adv-x="390" unicode="²"/>
<glyph d="M200 367q-98 0 -141.5 40t-43.5 113h143q0 -35 42 -35q23 0 32.5 8t9.5 22q0 13 -10 21t-33 8h-34v82h34q33 0 33 26q0 23 -32 23q-14 0 -23 -6.5t-9 -23.5h-143q0 72 41 110t134 38q88 0 131.5 -33.5t43.5 -83.5q0 -39 -17.5 -57.5t-47.5 -28.5q30 -10 52.5 -33 t22.5 -65q0 -53 -44 -89t-141 -36z" glyph-name="uni00B3" horiz-adv-x="400" unicode="³"/>
<glyph d="M130 740h160l-150 -160h-120z" glyph-name="acute" horiz-adv-x="310" unicode="´"/>
<glyph d="M50 530h154v-309q0 -52 21.5 -79t69.5 -27q52 0 76.5 30.5t24.5 75.5v309h154v-530h-142v72q-20 -35 -63 -60t-108 -25q-18 0 -33 3v-190h-154v730z" glyph-name="mu" horiz-adv-x="600" unicode="µ"/>
<glyph d="M180 306q-32 8 -59.5 26.5t-47.5 44t-31.5 57t-11.5 66.5q0 41 16 77.5t43 63.5t63.5 43t77.5 16h340v-900h-134v774h-122v-774h-134v506z" glyph-name="paragraph" horiz-adv-x="640" unicode="¶"/>
<glyph d="M160 180q-40 0 -67.5 27.5t-27.5 67.5t27.5 67.5t67.5 27.5t67.5 -27.5t27.5 -67.5t-27.5 -67.5t-67.5 -27.5z" glyph-name="periodcentered" horiz-adv-x="320" unicode="·"/>
<glyph d="M95 -213q-19 0 -33 1t-23 3q-11 2 -19 5v80q6 -2 14 -3q13 -3 36 -3t32 7.5t9 15.5t-7 16.5t-36 8.5l17 92h84l-7 -45q37 -8 52.5 -31t15.5 -49q0 -45 -31 -71.5t-104 -26.5z" glyph-name="cedilla" horiz-adv-x="250" unicode="¸"/>
<glyph d="M112 627l-102 -72v147l110 78h140v-400h-148v247z" glyph-name="uni00B9" horiz-adv-x="290" unicode="¹"/>
<glyph d="M190 485q14 0 23 11t9 39v10q0 28 -9 39t-23 11t-23 -11t-9 -39v-10q0 -28 9 -39t23 -11zM190 367q-81 0 -128 46t-47 122v10q0 76 47 122t128 46t128 -46t47 -122v-10q0 -76 -47 -122t-128 -46z" glyph-name="ordmasculine" horiz-adv-x="380" unicode="º"/>
<glyph d="M265 338v-126l-220 -187v162l105 86l-105 86v166zM510 338v-126l-220 -187v162l105 86l-105 86v166z" glyph-name="guillemotright" horiz-adv-x="535" unicode="»"/>
<glyph d="M615 700h160l-480 -700h-160zM112 548l-102 -72v147l110 78h140v-400h-148v247zM662 63h-197v91l184 247h156v-222h40v-116h-40v-62h-143v62zM662 179v90l-59 -90h59z" glyph-name="onequarter" horiz-adv-x="870" unicode="¼"/>
<glyph d="M615 700h160l-480 -700h-160zM112 548l-102 -72v147l110 78h140v-400h-148v247zM555 92l157 120q17 13 28 22t17 15.5t8 11.5t2 11q0 11 -7.5 17.5t-24.5 6.5q-14 0 -23 -10t-9 -30h-143q0 77 42 117.5t133 40.5q90 0 132.5 -36.5t42.5 -91.5q0 -18 -3.5 -34t-14.5 -32.5 t-30.5 -35t-50.5 -40.5l-38 -27h142v-116h-360v91z" glyph-name="onehalf" horiz-adv-x="930" unicode="½"/>
<glyph d="M640 700h160l-480 -700h-160zM196 288q-98 0 -141.5 40t-43.5 113h143q0 -35 42 -35q23 0 32.5 8t9.5 22q0 13 -10 21t-33 8h-34v82h34q33 0 33 26q0 23 -32 23q-14 0 -23 -6.5t-9 -23.5h-143q0 72 41 110t134 38q88 0 131.5 -33.5t43.5 -83.5q0 -39 -17.5 -57.5 t-47.5 -28.5q30 -10 52.5 -33t22.5 -65q0 -53 -44 -89t-141 -36zM687 63h-197v91l184 247h156v-222h40v-116h-40v-62h-143v62zM687 179v90l-59 -90h59z" glyph-name="threequarters" horiz-adv-x="885" unicode="¾"/>
<glyph d="M270 353q-40 0 -67.5 27.5t-27.5 67.5t27.5 67.5t67.5 27.5t67.5 -27.5t27.5 -67.5t-27.5 -67.5t-67.5 -27.5zM270 -213q-59 0 -103.5 15t-75 41t-46 61t-15.5 76q0 31 7.5 56t20 45.5t28.5 37.5t32 31q26 23 41 38t22.5 25t9.5 17t2 15v45h154v-70q0 -22 -6.5 -40.5 t-18.5 -34.5t-28.5 -31t-35.5 -30q-33 -28 -51.5 -50.5t-18.5 -48.5q0 -33 20 -51.5t62 -18.5q40 0 61 21t21 59h158q0 -43 -17 -80.5t-48 -66t-75.5 -45t-99.5 -16.5z" glyph-name="questiondown" horiz-adv-x="540" unicode="¿"/>
<glyph d="M462 134h-234l-48 -134h-170l255 700h180l255 -700h-190zM279 272h132l-66 208zM140 900h170l110 -150h-130z" glyph-name="Agrave" horiz-adv-x="710" unicode="À"/>
<glyph d="M462 134h-234l-48 -134h-170l255 700h180l255 -700h-190zM279 272h132l-66 208zM400 900h170l-150 -150h-130z" glyph-name="Aacute" horiz-adv-x="710" unicode="Á"/>
<glyph d="M462 134h-234l-48 -134h-170l255 700h180l255 -700h-190zM279 272h132l-66 208zM275 900h160l110 -150h-130l-60 60l-60 -60h-130z" glyph-name="Acircumflex" horiz-adv-x="710" unicode="Â"/>
<glyph d="M462 134h-234l-48 -134h-170l255 700h180l255 -700h-190zM279 272h132l-66 208zM430 740q-28 0 -48 7t-36.5 15.5t-31.5 15.5t-34 7q-14 0 -23 -6t-15 -14q-7 -9 -12 -20l-75 55q10 30 27 55q14 20 38 37.5t60 17.5q28 0 48 -7t36.5 -15.5t31.5 -15.5t34 -7q13 0 22.5 6 t15.5 14q7 9 12 20l75 -55q-10 -31 -27 -55q-14 -21 -38.5 -38t-59.5 -17z" glyph-name="Atilde" horiz-adv-x="710" unicode="Ã"/>
<glyph d="M462 134h-234l-48 -134h-170l255 700h180l255 -700h-190zM279 272h132l-66 208zM230 740q-43 0 -66.5 25t-23.5 60t23.5 60t66.5 25t66.5 -25t23.5 -60t-23.5 -60t-66.5 -25zM480 740q-43 0 -66.5 25t-23.5 60t23.5 60t66.5 25t66.5 -25t23.5 -60t-23.5 -60t-66.5 -25z " glyph-name="Adieresis" horiz-adv-x="710" unicode="Ä"/>
<glyph d="M462 134h-234l-48 -134h-170l255 700h180l255 -700h-190zM279 272h132l-66 208zM355 730q-61 0 -98 31.5t-37 83.5t37 83.5t98 31.5t98 -31.5t37 -83.5t-37 -83.5t-98 -31.5zM355 815q21 0 33 7.5t12 22.5t-12 22.5t-33 7.5t-33 -7.5t-12 -22.5t12 -22.5t33 -7.5z" glyph-name="Aring" horiz-adv-x="710" unicode="Å"/>
<glyph d="M470 272v213l-119 -213h119zM420 700h560v-138h-330v-137h300v-130h-300v-157h330v-138h-510v134h-199l-79 -134h-182z" glyph-name="AE" horiz-adv-x="1025" unicode="Æ"/>
<glyph d="M370 -13q-72 0 -132 19.5t-102.5 62.5t-66.5 111t-24 166v19q0 92 25 158t69 108t103.5 62t127.5 20q61 0 114.5 -14t94 -44t66 -78t30.5 -117h-186q-5 28 -16 47.5t-27 32t-35.5 18t-40.5 5.5q-30 0 -55.5 -10.5t-44 -34t-29 -61.5t-10.5 -92v-21q0 -58 11.5 -97.5 t30.5 -64t44 -35t53 -10.5q51 0 81.5 24.5t37.5 78.5h186q-4 -70 -28.5 -118t-65 -78t-94.5 -43.5t-117 -13.5zM340 -213q-19 0 -33 1t-23 3q-11 2 -19 5v82q6 -2 14 -3q13 -3 36 -3t31 6.5t8 14.5t-8 15.5t-35 7.5l17 94h88l-7 -45q35 -8 50.5 -31t15.5 -49 q0 -45 -31 -71.5t-104 -26.5z" glyph-name="Ccedilla" horiz-adv-x="710" unicode="Ç"/>
<glyph d="M70 700h510v-138h-330v-137h300v-130h-300v-157h330v-138h-510v700zM110 900h170l110 -150h-130z" glyph-name="Egrave" horiz-adv-x="625" unicode="È"/>
<glyph d="M70 700h510v-138h-330v-137h300v-130h-300v-157h330v-138h-510v700zM370 900h170l-150 -150h-130z" glyph-name="Eacute" horiz-adv-x="625" unicode="É"/>
<glyph d="M70 700h510v-138h-330v-137h300v-130h-300v-157h330v-138h-510v700zM245 900h160l110 -150h-130l-60 60l-60 -60h-130z" glyph-name="Ecircumflex" horiz-adv-x="625" unicode="Ê"/>
<glyph d="M70 700h510v-138h-330v-137h300v-130h-300v-157h330v-138h-510v700zM195 740q-43 0 -66.5 25t-23.5 60t23.5 60t66.5 25t66.5 -25t23.5 -60t-23.5 -60t-66.5 -25zM445 740q-43 0 -66.5 25t-23.5 60t23.5 60t66.5 25t66.5 -25t23.5 -60t-23.5 -60t-66.5 -25z" glyph-name="Edieresis" horiz-adv-x="625" unicode="Ë"/>
<glyph d="M80 700h180v-700h-180v700zM-44 900h170l110 -150h-130z" glyph-name="Igrave" horiz-adv-x="340" unicode="Ì"/>
<glyph d="M80 700h180v-700h-180v700zM215 900h170l-150 -150h-130z" glyph-name="Iacute" horiz-adv-x="340" unicode="Í"/>
<glyph d="M80 700h180v-700h-180v700zM91 900h160l110 -150h-130l-60 60l-60 -60h-130z" glyph-name="Icircumflex" horiz-adv-x="340" unicode="Î"/>
<glyph d="M80 700h180v-700h-180v700zM46 740q-43 0 -66.5 25t-23.5 60t23.5 60t66.5 25t66.5 -25t23.5 -60t-23.5 -60t-66.5 -25zM296 740q-43 0 -66.5 25t-23.5 60t23.5 60t66.5 25t66.5 -25t23.5 -60t-23.5 -60t-66.5 -25z" glyph-name="Idieresis" horiz-adv-x="340" unicode="Ï"/>
<glyph d="M345 148q34 0 64.5 10.5t54 33.5t37 61t13.5 92v20q0 51 -12.5 86.5t-34 58t-50.5 32.5t-62 10h-75v-128h120v-138h-120v-138h65zM100 286h-80v138h80v276h265q79 0 141 -21.5t105 -63.5t66 -105t23 -145v-20q0 -84 -23.5 -148.5t-68 -108t-108.5 -66t-145 -22.5h-255 v286z" glyph-name="Eth" horiz-adv-x="745" unicode="Ð"/>
<glyph d="M70 700h159l271 -390v390h190v-700h-170l-270 390v-390h-180v700zM455 740q-28 0 -48 7t-36.5 15.5t-31.5 15.5t-34 7q-14 0 -23 -6t-15 -14q-7 -9 -12 -20l-75 55q10 30 27 55q14 20 38 37.5t60 17.5q28 0 48 -7t36.5 -15.5t31.5 -15.5t34 -7q13 0 22.5 6t15.5 14 q7 9 12 20l75 -55q-10 -31 -27 -55q-14 -21 -38.5 -38t-59.5 -17z" glyph-name="Ntilde" horiz-adv-x="760" unicode="Ñ"/>
<glyph d="M385 -13q-69 0 -131 20t-108.5 63.5t-73.5 111t-27 163.5v20q0 92 27 158t73.5 108t108.5 62t131 20t131 -20t108.5 -62t73.5 -108t27 -158v-20q0 -96 -27 -163.5t-73.5 -111t-108.5 -63.5t-131 -20zM385 137q30 0 58 9.5t49 33t34 63.5t13 102v20q0 58 -13 96.5t-34 61 t-49 31.5t-58 9t-58 -9t-49 -31.5t-34 -61t-13 -96.5v-20q0 -62 13 -102t34 -63.5t49 -33t58 -9.5zM170 900h170l110 -150h-130z" glyph-name="Ograve" horiz-adv-x="770" unicode="Ò"/>
<glyph d="M385 -13q-69 0 -131 20t-108.5 63.5t-73.5 111t-27 163.5v20q0 92 27 158t73.5 108t108.5 62t131 20t131 -20t108.5 -62t73.5 -108t27 -158v-20q0 -96 -27 -163.5t-73.5 -111t-108.5 -63.5t-131 -20zM385 137q30 0 58 9.5t49 33t34 63.5t13 102v20q0 58 -13 96.5t-34 61 t-49 31.5t-58 9t-58 -9t-49 -31.5t-34 -61t-13 -96.5v-20q0 -62 13 -102t34 -63.5t49 -33t58 -9.5zM430 900h170l-150 -150h-130z" glyph-name="Oacute" horiz-adv-x="770" unicode="Ó"/>
<glyph d="M385 -13q-69 0 -131 20t-108.5 63.5t-73.5 111t-27 163.5v20q0 92 27 158t73.5 108t108.5 62t131 20t131 -20t108.5 -62t73.5 -108t27 -158v-20q0 -96 -27 -163.5t-73.5 -111t-108.5 -63.5t-131 -20zM385 137q30 0 58 9.5t49 33t34 63.5t13 102v20q0 58 -13 96.5t-34 61 t-49 31.5t-58 9t-58 -9t-49 -31.5t-34 -61t-13 -96.5v-20q0 -62 13 -102t34 -63.5t49 -33t58 -9.5zM305 900h160l110 -150h-130l-60 60l-60 -60h-130z" glyph-name="Ocircumflex" horiz-adv-x="770" unicode="Ô"/>
<glyph d="M385 -13q-69 0 -131 20t-108.5 63.5t-73.5 111t-27 163.5v20q0 92 27 158t73.5 108t108.5 62t131 20t131 -20t108.5 -62t73.5 -108t27 -158v-20q0 -96 -27 -163.5t-73.5 -111t-108.5 -63.5t-131 -20zM385 137q30 0 58 9.5t49 33t34 63.5t13 102v20q0 58 -13 96.5t-34 61 t-49 31.5t-58 9t-58 -9t-49 -31.5t-34 -61t-13 -96.5v-20q0 -62 13 -102t34 -63.5t49 -33t58 -9.5zM460 740q-28 0 -48 7t-36.5 15.5t-31.5 15.5t-34 7q-14 0 -23 -6t-15 -14q-7 -9 -12 -20l-75 55q10 30 27 55q14 20 38 37.5t60 17.5q28 0 48 -7t36.5 -15.5t31.5 -15.5 t34 -7q13 0 22.5 6t15.5 14q7 9 12 20l75 -55q-10 -31 -27 -55q-14 -21 -38.5 -38t-59.5 -17z" glyph-name="Otilde" horiz-adv-x="770" unicode="Õ"/>
<glyph d="M385 -13q-69 0 -131 20t-108.5 63.5t-73.5 111t-27 163.5v20q0 92 27 158t73.5 108t108.5 62t131 20t131 -20t108.5 -62t73.5 -108t27 -158v-20q0 -96 -27 -163.5t-73.5 -111t-108.5 -63.5t-131 -20zM385 137q30 0 58 9.5t49 33t34 63.5t13 102v20q0 58 -13 96.5t-34 61 t-49 31.5t-58 9t-58 -9t-49 -31.5t-34 -61t-13 -96.5v-20q0 -62 13 -102t34 -63.5t49 -33t58 -9.5zM260 740q-43 0 -66.5 25t-23.5 60t23.5 60t66.5 25t66.5 -25t23.5 -60t-23.5 -60t-66.5 -25zM510 740q-43 0 -66.5 25t-23.5 60t23.5 60t66.5 25t66.5 -25t23.5 -60 t-23.5 -60t-66.5 -25z" glyph-name="Odieresis" horiz-adv-x="770" unicode="Ö"/>
<glyph d="M55 224l136 136l-136 136l99 99l136 -136l136 136l99 -99l-136 -136l136 -136l-99 -99l-136 136l-136 -136z" glyph-name="multiply" unicode="×"/>
<glyph d="M385 563q-30 0 -58 -9t-49 -31.5t-34 -61t-13 -96.5v-20q0 -55 11 -96l236 286q-20 15 -43.5 21.5t-49.5 6.5zM385 137q30 0 58 9.5t49 33t34 63.5t13 102v20q0 26 -2.5 47.5t-7.5 39.5l-237 -287q20 -16 43.5 -22t49.5 -6zM385 -13q-55 0 -105.5 12.5t-92.5 38.5 l-42 -51l-70 60l43 52q-35 43 -54 104t-19 142v20q0 92 27 158t73.5 108t108.5 62t131 20q55 0 105.5 -12.5t92.5 -38.5l42 51l70 -59l-43 -53q34 -42 53.5 -100t19.5 -136v-20q0 -96 -27 -163.5t-73.5 -111t-108.5 -63.5t-131 -20z" glyph-name="Oslash" horiz-adv-x="770" unicode="Ø"/>
<glyph d="M365 -13q-70 0 -126.5 18.5t-96 55t-61 91.5t-21.5 128v420h180v-399q0 -81 28 -122.5t97 -41.5q71 0 98 41.5t27 121.5v400h180v-420q0 -73 -21 -128t-60.5 -91.5t-96 -55t-127.5 -18.5zM150 900h170l110 -150h-130z" glyph-name="Ugrave" horiz-adv-x="730" unicode="Ù"/>
<glyph d="M365 -13q-70 0 -126.5 18.5t-96 55t-61 91.5t-21.5 128v420h180v-399q0 -81 28 -122.5t97 -41.5q71 0 98 41.5t27 121.5v400h180v-420q0 -73 -21 -128t-60.5 -91.5t-96 -55t-127.5 -18.5zM410 900h170l-150 -150h-130z" glyph-name="Uacute" horiz-adv-x="730" unicode="Ú"/>
<glyph d="M365 -13q-70 0 -126.5 18.5t-96 55t-61 91.5t-21.5 128v420h180v-399q0 -81 28 -122.5t97 -41.5q71 0 98 41.5t27 121.5v400h180v-420q0 -73 -21 -128t-60.5 -91.5t-96 -55t-127.5 -18.5zM285 900h160l110 -150h-130l-60 60l-60 -60h-130z" glyph-name="Ucircumflex" horiz-adv-x="730" unicode="Û"/>
<glyph d="M365 -13q-70 0 -126.5 18.5t-96 55t-61 91.5t-21.5 128v420h180v-399q0 -81 28 -122.5t97 -41.5q71 0 98 41.5t27 121.5v400h180v-420q0 -73 -21 -128t-60.5 -91.5t-96 -55t-127.5 -18.5zM240 740q-43 0 -66.5 25t-23.5 60t23.5 60t66.5 25t66.5 -25t23.5 -60t-23.5 -60 t-66.5 -25zM490 740q-43 0 -66.5 25t-23.5 60t23.5 60t66.5 25t66.5 -25t23.5 -60t-23.5 -60t-66.5 -25z" glyph-name="Udieresis" horiz-adv-x="730" unicode="Ü"/>
<glyph d="M270 262l-260 438h208l146 -260l138 260h188l-240 -438v-262h-180v262zM405 900h170l-150 -150h-130z" glyph-name="Yacute" horiz-adv-x="700" unicode="Ý"/>
<glyph d="M335 270q63 0 91 24t28 66t-28 67t-91 25h-85v-182h85zM70 700h180v-100h105q73 0 126.5 -16.5t89 -47.5t52.5 -75.5t17 -100.5q0 -111 -69.5 -174.5t-215.5 -63.5h-105v-122h-180v700z" glyph-name="Thorn" horiz-adv-x="670" unicode="Þ"/>
<glyph d="M50 470q0 118 61 180.5t179 62.5q58 0 101.5 -13.5t72 -37.5t42.5 -56.5t14 -70.5q0 -51 -26 -91t-74 -57q72 -13 106 -56.5t34 -115.5v-10q0 -105 -58.5 -158t-191.5 -53q-11 0 -25 0.5t-25 2.5v128q11 -2 25 -2.5t25 -0.5q96 0 96 95v10q0 45 -26.5 70t-84.5 25h-20 v116h15q34 0 55 19t21 55q0 37 -20.5 55t-55.5 18q-86 0 -86 -115v-470h-154v470z" glyph-name="germandbls" horiz-adv-x="595" unicode="ß"/>
<glyph d="M215 -13q-43 0 -76.5 13t-56.5 35.5t-35 53t-12 66.5q0 79 48.5 121t146.5 42h151v22q0 48 -23 66.5t-63 18.5q-38 0 -56 -12t-20 -38h-154q2 36 18 66.5t45.5 53t72.5 35.5t99 13q52 0 95.5 -11.5t74.5 -37t48 -66t17 -98.5v-195q0 -42 2 -73.5t6 -61.5h-146 q-2 17 -3.5 30t-1.5 32q-24 -32 -66.5 -53.5t-110.5 -21.5zM265 95q49 0 82.5 28t33.5 77v22h-121q-34 0 -50.5 -18t-16.5 -42q0 -29 16.5 -48t55.5 -19zM90 740h160l110 -160h-120z" glyph-name="agrave" unicode="à"/>
<glyph d="M215 -13q-43 0 -76.5 13t-56.5 35.5t-35 53t-12 66.5q0 79 48.5 121t146.5 42h151v22q0 48 -23 66.5t-63 18.5q-38 0 -56 -12t-20 -38h-154q2 36 18 66.5t45.5 53t72.5 35.5t99 13q52 0 95.5 -11.5t74.5 -37t48 -66t17 -98.5v-195q0 -42 2 -73.5t6 -61.5h-146 q-2 17 -3.5 30t-1.5 32q-24 -32 -66.5 -53.5t-110.5 -21.5zM265 95q49 0 82.5 28t33.5 77v22h-121q-34 0 -50.5 -18t-16.5 -42q0 -29 16.5 -48t55.5 -19zM350 740h160l-150 -160h-120z" glyph-name="aacute" unicode="á"/>
<glyph d="M215 -13q-43 0 -76.5 13t-56.5 35.5t-35 53t-12 66.5q0 79 48.5 121t146.5 42h151v22q0 48 -23 66.5t-63 18.5q-38 0 -56 -12t-20 -38h-154q2 36 18 66.5t45.5 53t72.5 35.5t99 13q52 0 95.5 -11.5t74.5 -37t48 -66t17 -98.5v-195q0 -42 2 -73.5t6 -61.5h-146 q-2 17 -3.5 30t-1.5 32q-24 -32 -66.5 -53.5t-110.5 -21.5zM265 95q49 0 82.5 28t33.5 77v22h-121q-34 0 -50.5 -18t-16.5 -42q0 -29 16.5 -48t55.5 -19zM225 740h150l110 -160h-120l-65 70l-65 -70h-120z" glyph-name="acircumflex" unicode="â"/>
<glyph d="M215 -13q-43 0 -76.5 13t-56.5 35.5t-35 53t-12 66.5q0 79 48.5 121t146.5 42h151v22q0 48 -23 66.5t-63 18.5q-38 0 -56 -12t-20 -38h-154q2 36 18 66.5t45.5 53t72.5 35.5t99 13q52 0 95.5 -11.5t74.5 -37t48 -66t17 -98.5v-195q0 -42 2 -73.5t6 -61.5h-146 q-2 17 -3.5 30t-1.5 32q-24 -32 -66.5 -53.5t-110.5 -21.5zM265 95q49 0 82.5 28t33.5 77v22h-121q-34 0 -50.5 -18t-16.5 -42q0 -29 16.5 -48t55.5 -19zM365 585q-24 0 -42 7t-32.5 15.5t-27.5 15.5t-28 7q-14 0 -23 -6t-15 -14q-7 -9 -12 -20l-65 45q10 28 26 50 q14 19 35.5 34.5t53.5 15.5q24 0 42 -7t32.5 -15.5t27.5 -15.5t28 -7q13 0 22.5 6t15.5 14q7 9 12 20l65 -45q-10 -28 -26 -50q-14 -19 -35.5 -34.5t-53.5 -15.5z" glyph-name="atilde" unicode="ã"/>
<glyph d="M215 -13q-43 0 -76.5 13t-56.5 35.5t-35 53t-12 66.5q0 79 48.5 121t146.5 42h151v22q0 48 -23 66.5t-63 18.5q-38 0 -56 -12t-20 -38h-154q2 36 18 66.5t45.5 53t72.5 35.5t99 13q52 0 95.5 -11.5t74.5 -37t48 -66t17 -98.5v-195q0 -42 2 -73.5t6 -61.5h-146 q-2 17 -3.5 30t-1.5 32q-24 -32 -66.5 -53.5t-110.5 -21.5zM265 95q49 0 82.5 28t33.5 77v22h-121q-34 0 -50.5 -18t-16.5 -42q0 -29 16.5 -48t55.5 -19zM192 580q-37 0 -59.5 22.5t-22.5 57.5t22.5 57.5t59.5 22.5t59.5 -22.5t22.5 -57.5t-22.5 -57.5t-59.5 -22.5zM408 580 q-37 0 -59.5 22.5t-22.5 57.5t22.5 57.5t59.5 22.5t59.5 -22.5t22.5 -57.5t-22.5 -57.5t-59.5 -22.5z" glyph-name="adieresis" unicode="ä"/>
<glyph d="M215 -13q-43 0 -76.5 13t-56.5 35.5t-35 53t-12 66.5q0 79 48.5 121t146.5 42h151v22q0 48 -23 66.5t-63 18.5q-38 0 -56 -12t-20 -38h-154q2 36 18 66.5t45.5 53t72.5 35.5t99 13q52 0 95.5 -11.5t74.5 -37t48 -66t17 -98.5v-195q0 -42 2 -73.5t6 -61.5h-146 q-2 17 -3.5 30t-1.5 32q-24 -32 -66.5 -53.5t-110.5 -21.5zM265 95q49 0 82.5 28t33.5 77v22h-121q-34 0 -50.5 -18t-16.5 -42q0 -29 16.5 -48t55.5 -19zM300 565q-57 0 -93.5 32t-36.5 83q0 25 9.5 46t27 36.5t41 24t52.5 8.5q28 0 52 -8.5t41.5 -24t27 -36.5t9.5 -46 t-9.5 -46t-27 -36.5t-41.5 -24t-52 -8.5zM300 648q19 0 30.5 8.5t11.5 23.5t-11.5 23.5t-30.5 8.5t-30.5 -8.5t-11.5 -23.5t11.5 -23.5t30.5 -8.5z" glyph-name="aring" unicode="å"/>
<glyph d="M645 421q-21 0 -40.5 -5.5t-35 -17.5t-25 -31.5t-10.5 -48.5h220q0 31 -9 51t-23.5 31.5t-34.5 16t-42 4.5zM266 95q48 0 81.5 28t33.5 77v22h-121q-34 0 -50.5 -18t-16.5 -42q0 -29 16.5 -48t56.5 -19zM215 -13q-43 0 -76.5 13t-56.5 35.5t-35 53t-12 66.5 q0 79 50.5 121t144.5 42h151v22q0 51 -23 68t-63 17q-38 0 -56 -12t-20 -38h-154q2 36 18 66.5t45.5 53t72.5 35.5t99 13q60 0 102 -16.5t68 -48.5q35 35 76.5 50t98.5 15q128 0 194 -67t66 -195v-59h-372q1 -30 11 -51t26 -34.5t36.5 -20t43.5 -6.5q44 0 69.5 13.5 t33.5 36.5h142q-16 -87 -79 -130t-166 -43q-69 0 -120 25.5t-80 69.5q-29 -42 -89.5 -68.5t-145.5 -26.5z" glyph-name="ae" horiz-adv-x="935" unicode="æ"/>
<glyph d="M300 -13q-59 0 -108.5 17t-85.5 51t-56 85t-20 120v20q0 63 21.5 112t58 82.5t85.5 51t105 17.5q60 0 105.5 -16t76.5 -43.5t48 -64.5t20 -79h-158q-8 36 -29.5 55.5t-62.5 19.5q-49 0 -80.5 -33.5t-31.5 -101.5v-20q0 -74 30.5 -109t81.5 -35q35 0 59.5 18.5t32.5 55.5 h158q-3 -47 -22 -84.5t-51.5 -63.5t-77 -40.5t-99.5 -14.5zM275 -213q-19 0 -33 1t-23 3q-11 2 -19 5v80q6 -2 14 -3q13 -3 36 -3t32 7.5t9 15.5t-7 16.5t-36 8.5l17 92h84l-7 -45q37 -8 52.5 -31t15.5 -49q0 -45 -31 -71.5t-104 -26.5z" glyph-name="ccedilla" horiz-adv-x="575" unicode="ç"/>
<glyph d="M305 -13q-58 0 -108.5 16.5t-87.5 50.5t-58 85.5t-21 120.5v20q0 66 20.5 115t56 82t84 49.5t104.5 16.5q131 0 198 -67.5t67 -195.5v-55h-372q1 -31 11 -52.5t26 -35.5t36.5 -20.5t43.5 -6.5q44 0 69.5 13.5t33.5 36.5h142q-16 -87 -79 -130t-166 -43zM300 421 q-21 0 -40.5 -5t-35 -16.5t-25 -29.5t-10.5 -44h220q0 28 -9 46t-23.5 29t-34.5 15.5t-42 4.5zM85 740h160l110 -160h-120z" glyph-name="egrave" horiz-adv-x="590" unicode="è"/>
<glyph d="M305 -13q-58 0 -108.5 16.5t-87.5 50.5t-58 85.5t-21 120.5v20q0 66 20.5 115t56 82t84 49.5t104.5 16.5q131 0 198 -67.5t67 -195.5v-55h-372q1 -31 11 -52.5t26 -35.5t36.5 -20.5t43.5 -6.5q44 0 69.5 13.5t33.5 36.5h142q-16 -87 -79 -130t-166 -43zM300 421 q-21 0 -40.5 -5t-35 -16.5t-25 -29.5t-10.5 -44h220q0 28 -9 46t-23.5 29t-34.5 15.5t-42 4.5zM345 740h160l-150 -160h-120z" glyph-name="eacute" horiz-adv-x="590" unicode="é"/>
<glyph d="M305 -13q-58 0 -108.5 16.5t-87.5 50.5t-58 85.5t-21 120.5v20q0 66 20.5 115t56 82t84 49.5t104.5 16.5q131 0 198 -67.5t67 -195.5v-55h-372q1 -31 11 -52.5t26 -35.5t36.5 -20.5t43.5 -6.5q44 0 69.5 13.5t33.5 36.5h142q-16 -87 -79 -130t-166 -43zM300 421 q-21 0 -40.5 -5t-35 -16.5t-25 -29.5t-10.5 -44h220q0 28 -9 46t-23.5 29t-34.5 15.5t-42 4.5zM220 740h150l110 -160h-120l-65 70l-65 -70h-120z" glyph-name="ecircumflex" horiz-adv-x="590" unicode="ê"/>
<glyph d="M305 -13q-58 0 -108.5 16.5t-87.5 50.5t-58 85.5t-21 120.5v20q0 66 20.5 115t56 82t84 49.5t104.5 16.5q131 0 198 -67.5t67 -195.5v-55h-372q1 -31 11 -52.5t26 -35.5t36.5 -20.5t43.5 -6.5q44 0 69.5 13.5t33.5 36.5h142q-16 -87 -79 -130t-166 -43zM300 421 q-21 0 -40.5 -5t-35 -16.5t-25 -29.5t-10.5 -44h220q0 28 -9 46t-23.5 29t-34.5 15.5t-42 4.5zM187 580q-37 0 -59.5 22.5t-22.5 57.5t22.5 57.5t59.5 22.5t59.5 -22.5t22.5 -57.5t-22.5 -57.5t-59.5 -22.5zM403 580q-37 0 -59.5 22.5t-22.5 57.5t22.5 57.5t59.5 22.5 t59.5 -22.5t22.5 -57.5t-22.5 -57.5t-59.5 -22.5z" glyph-name="edieresis" horiz-adv-x="590" unicode="ë"/>
<glyph d="M60 530h154v-530h-154v530zM-72 740h160l110 -160h-120z" glyph-name="igrave" horiz-adv-x="274" unicode="ì"/>
<glyph d="M60 530h154v-530h-154v530zM187 740h160l-150 -160h-120z" glyph-name="iacute" horiz-adv-x="274" unicode="í"/>
<glyph d="M60 530h154v-530h-154v530zM63 740h150l110 -160h-120l-65 70l-65 -70h-120z" glyph-name="icircumflex" horiz-adv-x="274" unicode="î"/>
<glyph d="M60 530h154v-530h-154v530zM30 580q-37 0 -59.5 22.5t-22.5 57.5t22.5 57.5t59.5 22.5t59.5 -22.5t22.5 -57.5t-22.5 -57.5t-59.5 -22.5zM246 580q-37 0 -59.5 22.5t-22.5 57.5t22.5 57.5t59.5 22.5t59.5 -22.5t22.5 -57.5t-22.5 -57.5t-59.5 -22.5z" glyph-name="idieresis" horiz-adv-x="274" unicode="ï"/>
<glyph d="M305 113q23 0 44 7.5t37.5 24t26 42.5t9.5 63v20q0 33 -9.5 57t-26 39.5t-37.5 23t-44 7.5t-44 -7.5t-37.5 -23t-26 -39.5t-9.5 -57v-20q0 -37 9.5 -63t26 -42.5t37.5 -24t44 -7.5zM305 -13q-54 0 -104 17t-88 50t-60.5 82t-22.5 114v20q0 61 22.5 108t58.5 79t81.5 49 t92.5 17q75 0 129 -40q-23 37 -56 64.5t-77 49.5l-26 -49l-71 34l24 45q-39 13 -84 27l41 108q51 -13 97 -30l24 46l71 -34l-22 -42q67 -33 113.5 -75.5t76 -94t42.5 -112t13 -130.5v-20q0 -72 -22.5 -125t-60.5 -88.5t-88 -52.5t-104 -17z" glyph-name="eth" horiz-adv-x="615" unicode="ð"/>
<glyph d="M50 530h142v-72q20 35 62.5 60t113.5 25q95 0 143.5 -51.5t48.5 -146.5v-345h-154v310q0 52 -22.5 78.5t-73.5 26.5q-28 0 -48 -8.5t-33 -22.5t-19 -33.5t-6 -40.5v-310h-154v530zM370 585q-24 0 -42 7t-32.5 15.5t-27.5 15.5t-28 7q-14 0 -23 -6t-15 -14q-7 -9 -12 -20 l-65 45q10 28 26 50q14 19 35.5 34.5t53.5 15.5q24 0 42 -7t32.5 -15.5t27.5 -15.5t28 -7q13 0 22.5 6t15.5 14q7 9 12 20l65 -45q-10 -28 -26 -50q-14 -19 -35.5 -34.5t-53.5 -15.5z" glyph-name="ntilde" horiz-adv-x="605" unicode="ñ"/>
<glyph d="M300 -13q-56 0 -105 16.5t-86 50.5t-58 85.5t-21 120.5v20q0 65 21 114t58 82t86 50t105 17t105 -17t86 -50t58 -82t21 -114v-20q0 -68 -21 -119.5t-58 -85.5t-86 -51t-105 -17zM300 115q54 0 83 39t29 106v20q0 60 -29 97.5t-83 37.5t-83 -37.5t-29 -97.5v-20 q0 -69 29 -107t83 -38zM90 740h160l110 -160h-120z" glyph-name="ograve" horiz-adv-x="600" unicode="ò"/>
<glyph d="M300 -13q-56 0 -105 16.5t-86 50.5t-58 85.5t-21 120.5v20q0 65 21 114t58 82t86 50t105 17t105 -17t86 -50t58 -82t21 -114v-20q0 -68 -21 -119.5t-58 -85.5t-86 -51t-105 -17zM300 115q54 0 83 39t29 106v20q0 60 -29 97.5t-83 37.5t-83 -37.5t-29 -97.5v-20 q0 -69 29 -107t83 -38zM350 740h160l-150 -160h-120z" glyph-name="oacute" horiz-adv-x="600" unicode="ó"/>
<glyph d="M300 -13q-56 0 -105 16.5t-86 50.5t-58 85.5t-21 120.5v20q0 65 21 114t58 82t86 50t105 17t105 -17t86 -50t58 -82t21 -114v-20q0 -68 -21 -119.5t-58 -85.5t-86 -51t-105 -17zM300 115q54 0 83 39t29 106v20q0 60 -29 97.5t-83 37.5t-83 -37.5t-29 -97.5v-20 q0 -69 29 -107t83 -38zM225 740h150l110 -160h-120l-65 70l-65 -70h-120z" glyph-name="ocircumflex" horiz-adv-x="600" unicode="ô"/>
<glyph d="M300 -13q-56 0 -105 16.5t-86 50.5t-58 85.5t-21 120.5v20q0 65 21 114t58 82t86 50t105 17t105 -17t86 -50t58 -82t21 -114v-20q0 -68 -21 -119.5t-58 -85.5t-86 -51t-105 -17zM300 115q54 0 83 39t29 106v20q0 60 -29 97.5t-83 37.5t-83 -37.5t-29 -97.5v-20 q0 -69 29 -107t83 -38zM365 585q-24 0 -42 7t-32.5 15.5t-27.5 15.5t-28 7q-14 0 -23 -6t-15 -14q-7 -9 -12 -20l-65 45q10 28 26 50q14 19 35.5 34.5t53.5 15.5q24 0 42 -7t32.5 -15.5t27.5 -15.5t28 -7q13 0 22.5 6t15.5 14q7 9 12 20l65 -45q-10 -28 -26 -50 q-14 -19 -35.5 -34.5t-53.5 -15.5z" glyph-name="otilde" horiz-adv-x="600" unicode="õ"/>
<glyph d="M300 -13q-56 0 -105 16.5t-86 50.5t-58 85.5t-21 120.5v20q0 65 21 114t58 82t86 50t105 17t105 -17t86 -50t58 -82t21 -114v-20q0 -68 -21 -119.5t-58 -85.5t-86 -51t-105 -17zM300 115q54 0 83 39t29 106v20q0 60 -29 97.5t-83 37.5t-83 -37.5t-29 -97.5v-20 q0 -69 29 -107t83 -38zM192 580q-37 0 -59.5 22.5t-22.5 57.5t22.5 57.5t59.5 22.5t59.5 -22.5t22.5 -57.5t-22.5 -57.5t-59.5 -22.5zM408 580q-37 0 -59.5 22.5t-22.5 57.5t22.5 57.5t59.5 22.5t59.5 -22.5t22.5 -57.5t-22.5 -57.5t-59.5 -22.5z" glyph-name="odieresis" horiz-adv-x="600" unicode="ö"/>
<glyph d="M290 494q-40 0 -67.5 27.5t-27.5 67.5t27.5 67.5t67.5 27.5t67.5 -27.5t27.5 -67.5t-27.5 -67.5t-67.5 -27.5zM290 36q-40 0 -67.5 27.5t-27.5 67.5t27.5 67.5t67.5 27.5t67.5 -27.5t27.5 -67.5t-27.5 -67.5t-67.5 -27.5zM35 434h510v-148h-510v148z" glyph-name="divide" unicode="÷"/>
<glyph d="M300 415q-54 0 -83 -37.5t-29 -97.5v-20q0 -36 7 -61l168 196q-26 20 -63 20zM300 115q54 0 83 39t29 106v20q0 14 -1.5 27t-5.5 24l-169 -197q25 -19 64 -19zM300 -13q-44 0 -83 10t-72 30l-34 -40l-56 48l34 40q-28 33 -43.5 79t-15.5 106v20q0 65 21 114t58 82t86 50 t105 17q87 0 155 -40l34 40l56 -48l-34 -40q28 -32 43.5 -75.5t15.5 -99.5v-20q0 -68 -21 -119.5t-58 -85.5t-86 -51t-105 -17z" glyph-name="oslash" horiz-adv-x="600" unicode="ø"/>
<glyph d="M232 -13q-91 0 -139 52t-48 158v333h154v-309q0 -52 21.5 -79t69.5 -27q52 0 76.5 30.5t24.5 75.5v309h154v-530h-142v72q-20 -35 -63 -60t-108 -25zM85 740h160l110 -160h-120z" glyph-name="ugrave" horiz-adv-x="595" unicode="ù"/>
<glyph d="M232 -13q-91 0 -139 52t-48 158v333h154v-309q0 -52 21.5 -79t69.5 -27q52 0 76.5 30.5t24.5 75.5v309h154v-530h-142v72q-20 -35 -63 -60t-108 -25zM345 740h160l-150 -160h-120z" glyph-name="uacute" horiz-adv-x="595" unicode="ú"/>
<glyph d="M232 -13q-91 0 -139 52t-48 158v333h154v-309q0 -52 21.5 -79t69.5 -27q52 0 76.5 30.5t24.5 75.5v309h154v-530h-142v72q-20 -35 -63 -60t-108 -25zM220 740h150l110 -160h-120l-65 70l-65 -70h-120z" glyph-name="ucircumflex" horiz-adv-x="595" unicode="û"/>
<glyph d="M232 -13q-91 0 -139 52t-48 158v333h154v-309q0 -52 21.5 -79t69.5 -27q52 0 76.5 30.5t24.5 75.5v309h154v-530h-142v72q-20 -35 -63 -60t-108 -25zM187 580q-37 0 -59.5 22.5t-22.5 57.5t22.5 57.5t59.5 22.5t59.5 -22.5t22.5 -57.5t-22.5 -57.5t-59.5 -22.5zM403 580 q-37 0 -59.5 22.5t-22.5 57.5t22.5 57.5t59.5 22.5t59.5 -22.5t22.5 -57.5t-22.5 -57.5t-59.5 -22.5z" glyph-name="udieresis" horiz-adv-x="595" unicode="ü"/>
<glyph d="M155 -213q-15 0 -30 3v128q15 -3 30 -3q29 0 45 19.5t34 66.5l-224 529h170l132 -353l125 353h153l-203 -530q-22 -56 -42 -96.5t-45.5 -66.5t-60 -38t-84.5 -12zM358 740h160l-150 -160h-120z" glyph-name="yacute" horiz-adv-x="600" unicode="ý"/>
<glyph d="M320 114q46 0 76.5 37t30.5 109v20q0 69 -29.5 102.5t-77.5 33.5q-49 0 -82.5 -30.5t-33.5 -90.5v-50q0 -63 33.5 -97t82.5 -34zM50 700h154v-238q27 40 66 60.5t87 20.5q112 0 170 -66t58 -197v-20q0 -68 -16 -119t-46 -85t-72 -51.5t-94 -17.5q-48 0 -87 20.5t-66 59.5 v-267h-154v900z" glyph-name="thorn" horiz-adv-x="615" unicode="þ"/>
<glyph d="M155 -213q-15 0 -30 3v128q15 -3 30 -3q29 0 45 19.5t34 66.5l-224 529h170l132 -353l125 353h153l-203 -530q-22 -56 -42 -96.5t-45.5 -66.5t-60 -38t-84.5 -12zM200 580q-37 0 -59.5 22.5t-22.5 57.5t22.5 57.5t59.5 22.5t59.5 -22.5t22.5 -57.5t-22.5 -57.5 t-59.5 -22.5zM416 580q-37 0 -59.5 22.5t-22.5 57.5t22.5 57.5t59.5 22.5t59.5 -22.5t22.5 -57.5t-22.5 -57.5t-59.5 -22.5z" glyph-name="ydieresis" horiz-adv-x="600" unicode="ÿ"/>
<glyph d="M60 530h154v-530h-154v530z" glyph-name="dotlessi" horiz-adv-x="274" unicode="ı"/>
<glyph d="M120 201l-100 -57v148l100 57v351h180v-247l150 87v-148l-150 -87v-157h300v-148h-480v201z" glyph-name="Lslash" horiz-adv-x="620" unicode="Ł"/>
<glyph d="M280 -6q-48 0 -83 8t-57.5 29.5t-33.5 59t-11 96.5v80l-80 -46v126l80 46v307h154v-218l106 61v-126l-106 -61v-146q0 -25 3 -42t10.5 -27t21.5 -14.5t35 -4.5q12 0 20 0.5t16 1.5v-127q-30 -3 -75 -3z" glyph-name="lslash" horiz-adv-x="380" unicode="ł"/>
<glyph d="M385 137q30 0 58 9.5t49 33t34 63.5t13 102v20q0 58 -13 96.5t-34 61t-49 31.5t-58 9t-58 -9t-49 -31.5t-34 -61t-13 -96.5v-20q0 -62 13 -102t34 -63.5t49 -33t58 -9.5zM375 -13q-66 0 -125.5 20t-105 63.5t-72.5 111t-27 163.5v20q0 92 27 158t72.5 108t105 62 t125.5 20q45 0 88.5 -12t81.5 -38v37h510v-138h-330v-138h300v-128h-300v-158h330v-138h-510v37q-38 -26 -81.5 -38t-88.5 -12z" glyph-name="OE" horiz-adv-x="1100" unicode="Œ"/>
<glyph d="M690 421q-21 0 -40.5 -5t-35 -16.5t-25 -29.5t-10.5 -44h220q0 28 -9 46t-23.5 29t-34.5 15.5t-42 4.5zM305 115q54 0 85.5 39t31.5 106v20q0 60 -31.5 97.5t-85.5 37.5t-85.5 -37.5t-31.5 -97.5v-20q0 -69 31.5 -107t85.5 -38zM305 -13q-56 0 -106 16.5t-87.5 50.5 t-59.5 85.5t-22 120.5v20q0 65 22 114t59.5 82t87.5 50t106 17q60 0 108.5 -19t83.5 -57q64 76 188 76q131 0 198 -67.5t67 -195.5v-55h-372q1 -31 11 -52.5t26 -35.5t36.5 -20.5t43.5 -6.5q44 0 69.5 13.5t33.5 36.5h142q-16 -87 -79 -130t-166 -43q-63 0 -113 19.5 t-84 59.5q-34 -40 -83.5 -59.5t-109.5 -19.5z" glyph-name="oe" horiz-adv-x="980" unicode="œ"/>
<glyph d="M335 -13q-147 0 -219.5 57t-75.5 156h180q8 -38 35 -55.5t80 -17.5q115 0 115 64q0 21 -11 34.5t-32 24t-52 18.5t-72 17q-52 12 -93.5 28.5t-70 42.5t-44 62.5t-15.5 87.5q0 49 19 87.5t55 65t87 40.5t114 14q138 0 205.5 -53t74.5 -150h-180q-6 32 -29 47.5t-71 15.5 q-53 0 -74 -17t-21 -44q0 -37 38.5 -54t111.5 -31q54 -11 98.5 -26.5t76 -41t48.5 -62t17 -89.5q0 -104 -78 -162.5t-217 -58.5zM145 900h130l60 -60l60 60h130l-110 -150h-160z" glyph-name="Scaron" horiz-adv-x="670" unicode="Š"/>
<glyph d="M280 -13q-65 0 -111.5 13.5t-76.5 37t-45 55t-17 67.5h154q6 -23 26 -39t70 -16q51 0 73.5 14t22.5 37q0 9 -5 16.5t-18.5 14t-36.5 12.5t-59 12q-44 7 -83 18t-67.5 29.5t-45 47.5t-16.5 73q0 35 16 65t46.5 52t74 34.5t98.5 12.5q62 0 104.5 -15t69.5 -39.5t40 -55.5 t16 -63h-154q-6 26 -26 40.5t-50 14.5q-46 0 -63.5 -14t-17.5 -33q0 -21 28 -32.5t89 -19.5q43 -6 82 -17t68.5 -30.5t46.5 -49t17 -71.5q0 -76 -63.5 -123.5t-186.5 -47.5zM95 740h120l65 -70l65 70h120l-110 -160h-150z" glyph-name="scaron" horiz-adv-x="560" unicode="š"/>
<glyph d="M270 262l-260 438h208l146 -260l138 260h188l-240 -438v-262h-180v262zM235 740q-43 0 -66.5 25t-23.5 60t23.5 60t66.5 25t66.5 -25t23.5 -60t-23.5 -60t-66.5 -25zM485 740q-43 0 -66.5 25t-23.5 60t23.5 60t66.5 25t66.5 -25t23.5 -60t-23.5 -60t-66.5 -25z" glyph-name="Ydieresis" horiz-adv-x="700" unicode="Ÿ"/>
<glyph d="M30 128l340 424h-335v148h555v-128l-340 -424h350v-148h-570v128zM125 900h130l60 -60l60 60h130l-110 -150h-160z" glyph-name="Zcaron" horiz-adv-x="630" unicode="Ž"/>
<glyph d="M25 106l254 298h-244v126h440v-105l-254 -299h264v-126h-460v106zM70 740h120l65 -70l65 70h120l-110 -160h-150z" glyph-name="zcaron" horiz-adv-x="510" unicode="ž"/>
<glyph d="M39 -213q-15 0 -27.5 0.5t-27.5 2.5v128q22 -3 45 -3q27 0 39 10.5t12 27.5v451h-60v126h60v25q0 36 10 64t34 47.5t63.5 29.5t97.5 10q15 0 37.5 -0.5t37.5 -2.5v-128q-15 2 -32.5 2.5t-32.5 0.5q-35 0 -48 -10.5t-13 -27.5v-10h116v-126h-116v-466q0 -36 -10 -64 t-33 -47.5t-60.5 -29.5t-91.5 -10z" glyph-name="florin" horiz-adv-x="370" unicode="ƒ"/>
<glyph d="M24 -213q-11 0 -25 0.5t-25 2.5v128q8 -2 17.5 -2.5t17.5 -0.5q12 0 21.5 4t16 15t10 30.5t3.5 50.5v515h154v-530q0 -63 -9 -104t-30.5 -65.5t-58.5 -34t-92 -9.5z" glyph-name="uni0237" horiz-adv-x="274" unicode="ȷ"/>
<glyph d="M80 550v150h160v-150l-122 -165h-78z" glyph-name="uni02BC" horiz-adv-x="295" unicode="ʼ"/>
<glyph d="M130 740h150l110 -160h-120l-65 70l-65 -70h-120z" glyph-name="circumflex" horiz-adv-x="410" unicode="ˆ"/>
<glyph d="M20 740h120l65 -70l65 70h120l-110 -160h-150z" glyph-name="caron" horiz-adv-x="410" unicode="ˇ"/>
<glyph d="M110 580q-43 0 -66.5 22.5t-23.5 57.5t23.5 57.5t66.5 22.5t66.5 -22.5t23.5 -57.5t-23.5 -57.5t-66.5 -22.5z" glyph-name="dotaccent" horiz-adv-x="220" unicode="˙"/>
<glyph d="M150 648q19 0 30.5 8.5t11.5 23.5t-11.5 23.5t-30.5 8.5t-30.5 -8.5t-11.5 -23.5t11.5 -23.5t30.5 -8.5zM150 565q-57 0 -93.5 32t-36.5 83q0 25 9.5 46t27 36.5t41 24t52.5 8.5q28 0 52 -8.5t41.5 -24t27 -36.5t9.5 -46t-9.5 -46t-27 -36.5t-41.5 -24t-52 -8.5z" glyph-name="ring" horiz-adv-x="300" unicode="˚"/>
<glyph d="M265 585q-24 0 -42 7t-32.5 15.5t-27.5 15.5t-28 7q-14 0 -23 -6t-15 -14q-7 -9 -12 -20l-65 45q10 28 26 50q14 19 35.5 34.5t53.5 15.5q24 0 42 -7t32.5 -15.5t27.5 -15.5t28 -7q13 0 22.5 6t15.5 14q7 9 12 20l65 -45q-10 -28 -26 -50q-14 -19 -35.5 -34.5 t-53.5 -15.5z" glyph-name="tilde" horiz-adv-x="400" unicode="˜"/>
<glyph d="M290 580l120 160h160l-160 -160h-120zM69 580l70 160h151l-110 -160h-111z" glyph-name="hungarumlaut" horiz-adv-x="620" unicode="˝"/>
<glyph d="M70 700h510v-138h-330v-137h300v-130h-300v-157h330v-138h-510v700zM200 740q-43 0 -66.5 25t-23.5 60t23.5 60t66.5 25t66.5 -25t23.5 -60t-23.5 -60t-66.5 -25zM450 740q-43 0 -66.5 25t-23.5 60t23.5 60t66.5 25t66.5 -25t23.5 -60t-23.5 -60t-66.5 -25z" glyph-name="uni0401" horiz-adv-x="625" unicode="Ё"/>
<glyph d="M235 552h-215v148h610v-148h-215v-131q26 17 68 30.5t102 13.5q102 0 161 -60t59 -169v-20q0 -103 -65 -162.5t-200 -59.5q-8 0 -25 0.5t-25 2.5v150q8 -2 20 -2.5t20 -0.5q45 0 67 20.5t22 55.5v20q0 34 -22 54.5t-67 20.5q-42 0 -69.5 -9.5t-45.5 -20.5v-285h-180v552z " glyph-name="uni0402" horiz-adv-x="835" unicode="Ђ"/>
<glyph d="M70 700h470v-148h-290v-552h-180v700zM350 900h170l-150 -150h-130z" glyph-name="uni0403" horiz-adv-x="560" unicode="Ѓ"/>
<glyph d="M370 -13q-72 0 -132 19.5t-102.5 62.5t-66.5 111t-24 166v19q0 92 25 158t69 108t103.5 62t127.5 20q61 0 114.5 -14t94 -44t66 -78t30.5 -117h-186q-5 28 -16.5 47.5t-27.5 32t-35.5 18t-39.5 5.5q-56 0 -91 -30.5t-45 -108.5h211v-138h-211q5 -43 17 -71.5t29.5 -46 t40 -24.5t48.5 -7q51 0 82 24.5t38 78.5h186q-4 -70 -28.5 -118t-65 -78t-94.5 -43.5t-117 -13.5z" glyph-name="uni0404" horiz-adv-x="710" unicode="Є"/>
<glyph d="M335 -13q-147 0 -219.5 57t-75.5 156h180q8 -38 35 -55.5t80 -17.5q115 0 115 64q0 21 -11 34.5t-32 24t-52 18.5t-72 17q-52 12 -93.5 28.5t-70 42.5t-44 62.5t-15.5 87.5q0 49 19 87.5t55 65t87 40.5t114 14q138 0 205.5 -53t74.5 -150h-180q-6 32 -29 47.5t-71 15.5 q-53 0 -74 -17t-21 -44q0 -37 38.5 -54t111.5 -31q54 -11 98.5 -26.5t76 -41t48.5 -62t17 -89.5q0 -104 -78 -162.5t-217 -58.5z" glyph-name="uni0405" horiz-adv-x="670" unicode="Ѕ"/>
<glyph d="M80 700h180v-700h-180v700z" glyph-name="uni0406" horiz-adv-x="340" unicode="І"/>
<glyph d="M80 700h180v-700h-180v700zM46 740q-43 0 -66.5 25t-23.5 60t23.5 60t66.5 25t66.5 -25t23.5 -60t-23.5 -60t-66.5 -25zM296 740q-43 0 -66.5 25t-23.5 60t23.5 60t66.5 25t66.5 -25t23.5 -60t-23.5 -60t-66.5 -25z" glyph-name="uni0407" horiz-adv-x="340" unicode="Ї"/>
<glyph d="M260 -13q-116 0 -177 65.5t-63 187.5h170q2 -51 17 -77t53 -26q34 0 52 25.5t18 87.5v450h180v-450q0 -72 -18 -122t-51 -81.5t-79 -45.5t-102 -14z" glyph-name="uni0408" horiz-adv-x="570" unicode="Ј"/>
<glyph d="M725 148q63 0 91 24t28 62t-28 62t-91 24h-75v-172h75zM70 -13q-8 0 -22.5 0.5t-22.5 2.5v158q5 -1 15 -1q24 0 41.5 9t28 43t15.5 100.5t5 180.5v220h520v-232h95q146 0 215.5 -63t69.5 -171t-69.5 -171t-215.5 -63h-275v553h-172v-93q0 -156 -16 -249t-45.5 -143 t-72 -65.5t-94.5 -15.5z" glyph-name="uni0409" horiz-adv-x="1060" unicode="Љ"/>
<glyph d="M770 148q56 0 80 20.5t24 53.5t-24 53.5t-80 20.5h-90v-148h90zM70 700h180v-256h250v256h180v-256h110q139 0 204.5 -59.5t65.5 -162.5t-65.5 -162.5t-204.5 -59.5h-290v296h-250v-296h-180v700z" glyph-name="uni040A" horiz-adv-x="1090" unicode="Њ"/>
<glyph d="M235 552h-215v148h610v-148h-215v-131q26 17 69 30.5t101 13.5q109 0 164.5 -54.5t55.5 -175.5v-235h-180v205q0 60 -25 85t-70 25q-42 0 -69.5 -9.5t-45.5 -20.5v-285h-180v552z" glyph-name="uni040B" horiz-adv-x="850" unicode="Ћ"/>
<glyph d="M70 700h180v-277h50l214 277h196l-270 -327l280 -373h-210l-210 297h-50v-297h-180v700zM427 900h170l-150 -150h-130z" glyph-name="uni040C" horiz-adv-x="735" unicode="Ќ"/>
<glyph d="M210 -13q-11 0 -21.5 1t-18.5 3v149l16 -2t19 -1q22 0 36 2.5t23 8.5t15 16t11 25l-280 511h182l186 -355l146 355h176l-234 -530q-23 -51 -45 -85.5t-51 -56.5t-67.5 -31.5t-92.5 -9.5zM358 740q-106 0 -153 43t-47 127h146q0 -41 12.5 -55.5t41.5 -14.5t41.5 14.5 t12.5 55.5h146q0 -84 -47 -127t-153 -43z" glyph-name="uni040E" horiz-adv-x="710" unicode="Ў"/>
<glyph d="M292 0h-222v700h180v-552h240v552h180v-700h-222v-130h-156v130z" glyph-name="uni040F" horiz-adv-x="740" unicode="Џ"/>
<glyph d="M462 134h-234l-48 -134h-170l255 700h180l255 -700h-190zM279 272h132l-66 208z" glyph-name="uni0410" horiz-adv-x="710" unicode="А"/>
<glyph d="M345 148q65 0 92 21.5t27 59.5t-27 59.5t-92 21.5h-95v-162h95zM70 700h515v-148h-335v-104h115q73 0 126.5 -15.5t89 -44t52.5 -69t17 -90.5q0 -108 -69.5 -168.5t-215.5 -60.5h-295v700z" glyph-name="uni0411" horiz-adv-x="680" unicode="Б"/>
<glyph d="M70 700h335q123 0 179 -48.5t56 -138.5q0 -54 -28 -92.5t-76 -55.5q62 -14 98 -56.5t36 -110.5q0 -92 -60.5 -145t-194.5 -53h-345v700zM375 138q65 0 90 19.5t25 60.5t-25.5 61t-91.5 20h-123v-161h125zM361 421q58 0 78.5 18.5t20.5 52.5q0 35 -20.5 52.5t-77.5 17.5 h-112v-141h111z" glyph-name="uni0412" horiz-adv-x="705" unicode="В"/>
<glyph d="M70 700h470v-148h-290v-552h-180v700z" glyph-name="uni0413" horiz-adv-x="560" unicode="Г"/>
<glyph d="M474 148v404h-166v-42q0 -122 -9.5 -210.5t-30.5 -151.5h206zM15 148h80q13 34 21.5 78.5t13.5 95t7.5 104t2.5 104.5v170h514v-552h71v-278h-156v130h-398v-130h-156v278z" glyph-name="uni0414" horiz-adv-x="750" unicode="Д"/>
<glyph d="M70 700h510v-138h-330v-137h300v-130h-300v-157h330v-138h-510v700z" glyph-name="uni0415" horiz-adv-x="625" unicode="Е"/>
<glyph d="M240 359l-215 341h190l165 -277h41v277h180v-277h40l172 277h182l-215 -327l225 -373h-196l-168 297h-40v-297h-180v297h-40l-176 -297h-190z" glyph-name="uni0416" horiz-adv-x="1020" unicode="Ж"/>
<glyph d="M335 -13q-147 0 -221.5 64.5t-78.5 178.5h186q4 -48 29 -75.5t85 -27.5t87 22t27 62q0 19 -5.5 35.5t-19 28t-38 18t-61.5 6.5h-64v122h64q28 0 47 6.5t30.5 17.5t16.5 25t5 29t-4 28.5t-14 23.5t-27.5 16t-43.5 6q-48 0 -72 -21.5t-27 -66.5h-186q4 116 73 172t212 56 t209 -51t66 -148q0 -55 -27.5 -93.5t-78.5 -55.5q64 -15 97.5 -57.5t33.5 -110.5q0 -47 -18 -85.5t-55 -66.5t-93.5 -43t-133.5 -15z" glyph-name="uni0417" horiz-adv-x="668" unicode="З"/>
<glyph d="M70 700h180v-420l275 420h165v-700h-180v420l-275 -420h-165v700z" glyph-name="uni0418" horiz-adv-x="760" unicode="И"/>
<glyph d="M70 700h180v-420l275 420h165v-700h-180v420l-275 -420h-165v700zM380 740q-106 0 -153 43t-47 127h146q0 -41 12.5 -55.5t41.5 -14.5t41.5 14.5t12.5 55.5h146q0 -84 -47 -127t-153 -43z" glyph-name="uni0419" horiz-adv-x="760" unicode="Й"/>
<glyph d="M70 700h180v-277h50l214 277h196l-270 -327l280 -373h-210l-210 297h-50v-297h-180v700z" glyph-name="uni041A" horiz-adv-x="735" unicode="К"/>
<glyph d="M70 -13q-8 0 -22.5 0.5t-22.5 2.5v158q5 -1 15 -1q24 0 41.5 9t28 43t15.5 100.5t5 180.5v220h530v-700h-180v553h-182v-93q0 -156 -16 -249t-45.5 -143t-72 -65.5t-94.5 -15.5z" glyph-name="uni041B" horiz-adv-x="730" unicode="Л"/>
<glyph d="M70 700h184l194 -355l192 355h180v-700h-180v401l-145 -266h-100l-145 266v-401h-180v700z" glyph-name="uni041C" horiz-adv-x="890" unicode="М"/>
<glyph d="M70 700h180v-266h260v266h180v-700h-180v286h-260v-286h-180v700z" glyph-name="uni041D" horiz-adv-x="760" unicode="Н"/>
<glyph d="M385 -13q-69 0 -131 20t-108.5 63.5t-73.5 111t-27 163.5v20q0 92 27 158t73.5 108t108.5 62t131 20t131 -20t108.5 -62t73.5 -108t27 -158v-20q0 -96 -27 -163.5t-73.5 -111t-108.5 -63.5t-131 -20zM385 137q30 0 58 9.5t49 33t34 63.5t13 102v20q0 58 -13 96.5t-34 61 t-49 31.5t-58 9t-58 -9t-49 -31.5t-34 -61t-13 -96.5v-20q0 -62 13 -102t34 -63.5t49 -33t58 -9.5z" glyph-name="uni041E" horiz-adv-x="770" unicode="О"/>
<glyph d="M70 700h610v-700h-180v552h-250v-552h-180v700z" glyph-name="uni041F" horiz-adv-x="750" unicode="П"/>
<glyph d="M70 700h285q146 0 215.5 -63.5t69.5 -175.5t-69.5 -175.5t-215.5 -63.5h-105v-222h-180v700zM335 370q69 0 97 23t28 68t-28 68t-97 23h-85v-182h85z" glyph-name="uni0420" horiz-adv-x="670" unicode="Р"/>
<glyph d="M370 -13q-72 0 -132 19.5t-102.5 62.5t-66.5 111t-24 166v19q0 92 25 158t69 108t103.5 62t127.5 20q61 0 114.5 -14t94 -44t66 -78t30.5 -117h-186q-5 28 -16 47.5t-27 32t-35.5 18t-40.5 5.5q-30 0 -55.5 -10.5t-44 -34t-29 -61.5t-10.5 -92v-21q0 -58 11.5 -97.5 t30.5 -64t44 -35t53 -10.5q51 0 81.5 24.5t37.5 78.5h186q-4 -70 -28.5 -118t-65 -78t-94.5 -43.5t-117 -13.5z" glyph-name="uni0421" horiz-adv-x="710" unicode="С"/>
<glyph d="M235 552h-215v148h610v-148h-215v-552h-180v552z" glyph-name="uni0422" horiz-adv-x="650" unicode="Т"/>
<glyph d="M210 -13q-11 0 -21.5 1t-18.5 3v149l16 -2t19 -1q22 0 36 2.5t23 8.5t15 16t11 25l-280 511h182l186 -355l146 355h176l-234 -530q-23 -51 -45 -85.5t-51 -56.5t-67.5 -31.5t-92.5 -9.5z" glyph-name="uni0423" horiz-adv-x="710" unicode="У"/>
<glyph d="M226 350q0 -92 38 -131t114 -39v340q-74 0 -113 -36t-39 -114v-20zM704 370q0 78 -40 114t-112 36v-340q74 0 113 39t39 131v20zM378 30q-78 0 -140.5 23t-106.5 65t-67.5 101t-23.5 131v20q0 64 23.5 119t67.5 95.5t106.5 63t140.5 22.5v60h174v-60q78 0 140.5 -22.5 t106.5 -63t67.5 -95.5t23.5 -119v-20q0 -72 -23.5 -131t-67.5 -101t-106.5 -65t-140.5 -23v-60h-174v60z" glyph-name="uni0424" horiz-adv-x="930" unicode="Ф"/>
<glyph d="M243 365l-218 335h199l137 -212l139 212h195l-217 -333l227 -367h-201l-146 245l-146 -245h-197z" glyph-name="uni0425" horiz-adv-x="720" unicode="Х"/>
<glyph d="M594 0h-524v700h180v-552h240v552h180v-552h80v-278h-156v130z" glyph-name="uni0426" horiz-adv-x="775" unicode="Ц"/>
<glyph d="M435 279q-26 -17 -69 -30.5t-101 -13.5q-109 0 -164.5 54.5t-55.5 175.5v235h180v-205q0 -60 25 -85t70 -25q42 0 69.5 9.5t45.5 20.5v285h180v-700h-180v279z" glyph-name="uni0427" horiz-adv-x="685" unicode="Ч"/>
<glyph d="M70 700h180v-552h160v552h180v-552h160v552h180v-700h-860v700z" glyph-name="uni0428" horiz-adv-x="1000" unicode="Ш"/>
<glyph d="M70 700h180v-552h160v552h180v-552h160v552h180v-552h80v-278h-156v130h-784v700z" glyph-name="uni0429" horiz-adv-x="1035" unicode="Щ"/>
<glyph d="M415 148q63 0 91 24t28 62t-28 62t-91 24h-85v-172h85zM150 552h-130v148h310v-232h105q146 0 215.5 -63t69.5 -171t-69.5 -171t-215.5 -63h-285v552z" glyph-name="uni042A" horiz-adv-x="750" unicode="Ъ"/>
<glyph d="M670 700h180v-700h-180v700zM315 148q63 0 91 24t28 62t-28 62t-91 24h-65v-172h65zM70 700h180v-232h85q146 0 215.5 -63t69.5 -171t-69.5 -171t-215.5 -63h-265v700z" glyph-name="uni042B" horiz-adv-x="920" unicode="Ы"/>
<glyph d="M335 148q63 0 91 24t28 62t-28 62t-91 24h-85v-172h85zM70 700h180v-232h105q146 0 215.5 -63t69.5 -171t-69.5 -171t-215.5 -63h-285v700z" glyph-name="uni042C" horiz-adv-x="670" unicode="Ь"/>
<glyph d="M340 -13q-63 0 -117 13.5t-94.5 43.5t-65 78t-28.5 118h186q7 -54 38 -78.5t82 -24.5q25 0 47.5 7t40.5 24.5t30 46t17 71.5h-211v138h210q-10 78 -45 108.5t-90 30.5q-20 0 -39.5 -5.5t-35.5 -18t-28 -32t-16 -47.5h-186q5 69 30.5 117t66 78t93.5 44t115 14 q68 0 127.5 -20t103.5 -62t69 -108t25 -158v-19q0 -98 -24 -166t-66.5 -111t-102.5 -62.5t-132 -19.5z" glyph-name="uni042D" horiz-adv-x="710" unicode="Э"/>
<glyph d="M625 137q26 0 49.5 9.5t41 33t28 63.5t10.5 102v20q0 58 -10.5 96.5t-28 61t-41 31.5t-49.5 9t-49.5 -9t-41 -31.5t-28 -61t-10.5 -96.5v-20q0 -62 10.5 -102t28 -63.5t41 -33t49.5 -9.5zM70 700h180v-266h70q9 73 35.5 126t66.5 87t92 50t111 16q66 0 123 -20t100 -62 t67.5 -108t24.5 -158v-20q0 -96 -24.5 -163.5t-67.5 -111t-100 -63.5t-123 -20q-60 0 -113 17t-93.5 53t-67 92.5t-33.5 136.5h-68v-286h-180v700z" glyph-name="uni042E" horiz-adv-x="985" unicode="Ю"/>
<glyph d="M240 466q0 -43 26.5 -64.5t98.5 -21.5h85v172h-85q-72 0 -98.5 -21.5t-26.5 -64.5zM200 259q-70 26 -105 79t-35 128q0 108 67 171t198 63h305v-700h-180v240h-93l-143 -240h-184z" glyph-name="uni042F" horiz-adv-x="700" unicode="Я"/>
<glyph d="M215 -13q-43 0 -76.5 13t-56.5 35.5t-35 53t-12 66.5q0 79 48.5 121t146.5 42h151v22q0 48 -23 66.5t-63 18.5q-38 0 -56 -12t-20 -38h-154q2 36 18 66.5t45.5 53t72.5 35.5t99 13q52 0 95.5 -11.5t74.5 -37t48 -66t17 -98.5v-195q0 -42 2 -73.5t6 -61.5h-146 q-2 17 -3.5 30t-1.5 32q-24 -32 -66.5 -53.5t-110.5 -21.5zM265 95q49 0 82.5 28t33.5 77v22h-121q-34 0 -50.5 -18t-16.5 -42q0 -29 16.5 -48t55.5 -19z" glyph-name="uni0430" unicode="а"/>
<glyph d="M305 115q54 0 83 34.5t29 90.5v21q0 59 -30 91.5t-82 32.5q-51 0 -81.5 -32t-30.5 -92v-17q0 -58 32 -93.5t80 -35.5zM305 -13q-58 0 -107.5 19.5t-85.5 58t-56.5 96t-20.5 134.5v20q0 89 14.5 159t48 119.5t87.5 77t134 31.5q31 1 62.5 2t60 3t52.5 6t41 12v-132 q-8 -5 -22.5 -8.5t-38.5 -6.5t-58 -5t-82 -3q-44 0 -75.5 -9t-53 -28.5t-33.5 -50t-17 -73.5q22 40 69 67t126 27q49 0 90.5 -14.5t71.5 -43t46.5 -72t16.5 -100.5v-19q0 -63 -21 -113t-57 -84t-85.5 -52t-106.5 -18z" glyph-name="uni0431" horiz-adv-x="605" unicode="б"/>
<glyph d="M307 323q40 0 54.5 12.5t14.5 33.5q0 22 -15 33.5t-54 11.5h-103v-91h103zM316 116q80 0 80 49q0 50 -80 50h-112v-99h112zM50 530h284q52 0 89.5 -10.5t61 -29.5t34.5 -44.5t11 -55.5q0 -38 -22 -70.5t-63 -43.5q49 -12 77 -46t28 -79q0 -69 -49 -110t-147 -41h-304v530 z" glyph-name="uni0432" unicode="в"/>
<glyph d="M50 530h390v-126h-236v-404h-154v530z" glyph-name="uni0433" horiz-adv-x="460" unicode="г"/>
<glyph d="M391 126v278h-139v-64q0 -75 -7.5 -127t-22.5 -87h169zM15 126h56q21 31 30 85.5t9 148.5v170h435v-404h60v-251h-130v125h-330v-125h-130v251z" glyph-name="uni0434" horiz-adv-x="625" unicode="д"/>
<glyph d="M305 -13q-58 0 -108.5 16.5t-87.5 50.5t-58 85.5t-21 120.5v20q0 66 20.5 115t56 82t84 49.5t104.5 16.5q131 0 198 -67.5t67 -195.5v-55h-372q1 -31 11 -52.5t26 -35.5t36.5 -20.5t43.5 -6.5q44 0 69.5 13.5t33.5 36.5h142q-16 -87 -79 -130t-166 -43zM300 421 q-21 0 -40.5 -5t-35 -16.5t-25 -29.5t-10.5 -44h220q0 28 -9 46t-23.5 29t-34.5 15.5t-42 4.5z" glyph-name="uni0435" horiz-adv-x="590" unicode="е"/>
<glyph d="M185 273l-164 257h162l120 -203h30v203h154v-203h30l127 203h156l-165 -246l175 -284h-170l-123 213h-30v-213h-154v213h-31l-128 -213h-164z" glyph-name="uni0436" horiz-adv-x="820" unicode="ж"/>
<glyph d="M276 -13q-129 0 -188 50t-63 143h158q2 -15 5.5 -27t13 -21t26.5 -13.5t46 -4.5q50 0 72 16.5t22 36.5q0 26 -20 38.5t-65 12.5h-69v102h61q77 0 77 49q0 20 -19 34t-58 14q-43 0 -61 -16t-21 -46h-158q5 94 66.5 141t173.5 47t171 -41.5t59 -114.5q0 -38 -18 -68 t-60 -44q58 -13 78.5 -44t20.5 -73q0 -37 -17 -68.5t-49 -54t-78.5 -35.5t-105.5 -13z" glyph-name="uni0437" horiz-adv-x="556" unicode="з"/>
<glyph d="M50 530h150v-320l225 320h135v-530h-150v320l-225 -320h-135v530z" glyph-name="uni0438" horiz-adv-x="610" unicode="и"/>
<glyph d="M50 530h150v-320l225 320h135v-530h-150v320l-225 -320h-135v530zM305 585q-98 0 -139 37.5t-41 112.5h136q0 -34 11 -47t33 -13t33 13t11 47h136q0 -75 -41 -112.5t-139 -37.5z" glyph-name="uni0439" horiz-adv-x="610" unicode="й"/>
<glyph d="M50 530h154v-201h40l148 201h168l-195 -249l205 -281h-182l-144 211h-40v-211h-154v530z" glyph-name="uni043A" unicode="к"/>
<glyph d="M65 -13q-8 0 -22.5 0.5t-22.5 2.5v134q5 -1 15 -1q17 0 30 10.5t22 35t13.5 64t4.5 97.5v200h440v-530h-154v404h-142v-94q0 -99 -12 -162t-35 -99t-57.5 -49t-79.5 -13z" glyph-name="uni043B" horiz-adv-x="595" unicode="л"/>
<glyph d="M50 530h187l126 -263l126 263h181v-530h-146v325l-114 -225h-100l-114 225v-325h-146v530z" glyph-name="uni043C" horiz-adv-x="720" unicode="м"/>
<glyph d="M50 530h154v-197h202v197h154v-530h-154v207h-202v-207h-154v530z" glyph-name="uni043D" horiz-adv-x="610" unicode="н"/>
<glyph d="M300 -13q-56 0 -105 16.5t-86 50.5t-58 85.5t-21 120.5v20q0 65 21 114t58 82t86 50t105 17t105 -17t86 -50t58 -82t21 -114v-20q0 -68 -21 -119.5t-58 -85.5t-86 -51t-105 -17zM300 115q54 0 83 39t29 106v20q0 60 -29 97.5t-83 37.5t-83 -37.5t-29 -97.5v-20 q0 -69 29 -107t83 -38z" glyph-name="uni043E" horiz-adv-x="600" unicode="о"/>
<glyph d="M50 530h500v-530h-154v404h-192v-404h-154v530z" glyph-name="uni043F" horiz-adv-x="600" unicode="п"/>
<glyph d="M50 530h142v-72q10 16 25.5 31.5t36.5 27.5t47 19t56 7q112 0 170 -66t58 -197v-20q0 -68 -16 -119t-46 -85t-72 -51.5t-94 -17.5q-45 0 -85.5 20.5t-67.5 59.5v-267h-154v730zM320 114q46 0 76.5 37t30.5 109v20q0 69 -29.5 102.5t-77.5 33.5q-49 0 -82.5 -30.5 t-33.5 -90.5v-50q0 -63 33.5 -97t82.5 -34z" glyph-name="uni0440" horiz-adv-x="615" unicode="р"/>
<glyph d="M300 -13q-59 0 -108.5 17t-85.5 51t-56 85t-20 120v20q0 63 21.5 112t58 82.5t85.5 51t105 17.5q60 0 105.5 -16t76.5 -43.5t48 -64.5t20 -79h-158q-8 36 -29.5 55.5t-62.5 19.5q-49 0 -80.5 -33.5t-31.5 -101.5v-20q0 -74 30.5 -109t81.5 -35q35 0 59.5 18.5t32.5 55.5 h158q-3 -47 -22 -84.5t-51.5 -63.5t-77 -40.5t-99.5 -14.5z" glyph-name="uni0441" horiz-adv-x="575" unicode="с"/>
<glyph d="M183 404h-163v126h480v-126h-163v-404h-154v404z" glyph-name="uni0442" horiz-adv-x="520" unicode="т"/>
<glyph d="M155 -213q-15 0 -30 3v128q15 -3 30 -3q29 0 45 19.5t34 66.5l-224 529h170l132 -353l125 353h153l-203 -530q-22 -56 -42 -96.5t-45.5 -66.5t-60 -38t-84.5 -12z" glyph-name="uni0443" horiz-adv-x="600" unicode="у"/>
<glyph d="M186 260q0 -71 31 -108t97 -37v300q-68 0 -98 -35t-30 -100v-20zM584 280q0 67 -31 101t-97 34v-300q66 0 97 37.5t31 107.5v20zM308 -13q-135 0 -206.5 69.5t-71.5 203.5v20q0 128 71.5 195.5t206.5 67.5v157h154v-157q134 0 206 -67.5t72 -195.5v-20q0 -134 -72 -203.5 t-206 -69.5v-187h-154v187z" glyph-name="uni0444" horiz-adv-x="770" unicode="ф"/>
<glyph d="M179 276l-159 254h170l104 -162l100 162h166l-158 -249l168 -281h-171l-111 189l-111 -189h-167z" glyph-name="uni0445" unicode="х"/>
<glyph d="M480 0h-430v530h154v-404h182v404h154v-404h70v-251h-130v125z" glyph-name="uni0446" horiz-adv-x="630" unicode="ц"/>
<glyph d="M361 186q-23 -13 -53 -24t-78 -11q-101 0 -148 48t-47 146v185h154v-170q0 -44 19 -62.5t67 -18.5q34 0 56 8.5t30 16.5v226h154v-530h-154v186z" glyph-name="uni0447" horiz-adv-x="575" unicode="ч"/>
<glyph d="M50 530h154v-404h139v404h154v-404h139v404h154v-530h-740v530z" glyph-name="uni0448" horiz-adv-x="840" unicode="ш"/>
<glyph d="M730 0h-680v530h154v-404h139v404h154v-404h139v404h154v-404h70v-251h-130v125z" glyph-name="uni0449" horiz-adv-x="880" unicode="щ"/>
<glyph d="M370 116q41 0 58.5 15.5t17.5 47.5q0 33 -17.5 48t-58.5 15h-86v-126h86zM130 404h-110v126h264v-172h106q104 0 157 -44t53 -135q0 -40 -11.5 -73t-37 -56.5t-65 -36.5t-96.5 -13h-260v404z" glyph-name="uni044A" horiz-adv-x="620" unicode="ъ"/>
<glyph d="M546 530h154v-530h-154v530zM270 116q41 0 58.5 15.5t17.5 47.5q0 33 -17.5 48t-58.5 15h-66v-126h66zM50 530h154v-172h86q104 0 157 -44t53 -135q0 -40 -11.5 -73t-37 -56.5t-65 -36.5t-96.5 -13h-240v530z" glyph-name="uni044B" horiz-adv-x="750" unicode="ы"/>
<glyph d="M300 116q41 0 58.5 15.5t17.5 47.5q0 33 -17.5 48t-58.5 15h-86v-126h86zM60 530h154v-172h106q104 0 157 -44t53 -135q0 -40 -11.5 -73t-37 -56.5t-65 -36.5t-96.5 -13h-260v530z" glyph-name="uni044C" horiz-adv-x="550" unicode="ь"/>
<glyph d="M275 -13q-54 0 -99 14.5t-77 40.5t-51.5 63.5t-22.5 84.5h158q8 -37 32.5 -55.5t59.5 -18.5q44 0 71.5 21.5t36.5 73.5h-158v118h157q-9 45 -37 65.5t-70 20.5q-41 0 -62.5 -19.5t-29.5 -55.5h-158q3 42 20 79t48 64.5t76.5 43.5t105.5 16q55 0 104.5 -17.5t86 -51 t58 -82.5t21.5 -112v-20q0 -69 -20.5 -120t-56.5 -85t-85.5 -51t-107.5 -17z" glyph-name="uni044D" horiz-adv-x="575" unicode="э"/>
<glyph d="M495 115q50 0 76 39t26 106v20q0 60 -26 97.5t-76 37.5t-76 -37.5t-26 -97.5v-20q0 -69 26 -107t76 -38zM50 530h154v-197h38q7 52 29 91t55 65.5t76 40t93 13.5q56 0 103.5 -17t82.5 -50t54.5 -82t19.5 -114v-20q0 -68 -19.5 -119.5t-54.5 -85.5t-82.5 -51t-103.5 -17 q-50 0 -93.5 13.5t-76.5 40.5t-54.5 68.5t-28.5 97.5h-38v-207h-154v530z" glyph-name="uni044E" horiz-adv-x="785" unicode="ю"/>
<glyph d="M199 347q0 -28 20.5 -41t50.5 -13h111v111h-111q-30 0 -50.5 -14t-20.5 -43zM160 196q-60 20 -87.5 59.5t-27.5 91.5q0 39 13.5 72.5t41.5 58t71.5 38.5t103.5 14h260v-530h-154v179h-76l-112 -179h-168z" glyph-name="uni044F" horiz-adv-x="585" unicode="я"/>
<glyph d="M305 -13q-58 0 -108.5 16.5t-87.5 50.5t-58 85.5t-21 120.5v20q0 66 20.5 115t56 82t84 49.5t104.5 16.5q131 0 198 -67.5t67 -195.5v-55h-372q1 -31 11 -52.5t26 -35.5t36.5 -20.5t43.5 -6.5q44 0 69.5 13.5t33.5 36.5h142q-16 -87 -79 -130t-166 -43zM300 421 q-21 0 -40.5 -5t-35 -16.5t-25 -29.5t-10.5 -44h220q0 28 -9 46t-23.5 29t-34.5 15.5t-42 4.5zM187 580q-37 0 -59.5 22.5t-22.5 57.5t22.5 57.5t59.5 22.5t59.5 -22.5t22.5 -57.5t-22.5 -57.5t-59.5 -22.5zM403 580q-37 0 -59.5 22.5t-22.5 57.5t22.5 57.5t59.5 22.5 t59.5 -22.5t22.5 -57.5t-22.5 -57.5t-59.5 -22.5z" glyph-name="uni0451" horiz-adv-x="590" unicode="ё"/>
<glyph d="M100 420h-90v110h90v170h154v-170h216v-110h-216v-127q8 13 22 27t34 26t46 19.5t57 7.5q91 0 139 -51.5t48 -145.5v-176q0 -63 -9 -104t-30.5 -65.5t-58.5 -34t-92 -9.5q-11 0 -25 0.5t-25 2.5v128q8 -2 17.5 -2.5t17.5 -0.5q12 0 21.5 4t16 15t10 30.5t3.5 50.5v125 q0 52 -21.5 78.5t-69.5 26.5q-52 0 -76.5 -30t-24.5 -75v-140h-154v420z" glyph-name="uni0452" horiz-adv-x="635" unicode="ђ"/>
<glyph d="M50 530h390v-126h-236v-404h-154v530zM295 740h160l-150 -160h-120z" glyph-name="uni0453" horiz-adv-x="460" unicode="ѓ"/>
<glyph d="M300 -13q-59 0 -108.5 17t-85.5 51t-56 85t-20 120v20q0 63 21.5 112t58 82.5t85.5 51t105 17.5q60 0 105.5 -16t76.5 -43.5t48 -64.5t20 -79h-158q-8 36 -29.5 55.5t-62.5 19.5q-42 0 -69.5 -21.5t-37.5 -64.5h157v-118h-158q9 -50 36.5 -72.5t71.5 -22.5 q35 0 59.5 18.5t32.5 55.5h158q-3 -47 -22 -84.5t-51.5 -63.5t-77 -40.5t-99.5 -14.5z" glyph-name="uni0454" horiz-adv-x="575" unicode="є"/>
<glyph d="M280 -13q-65 0 -111.5 13.5t-76.5 37t-45 55t-17 67.5h154q6 -23 26 -39t70 -16q51 0 73.5 14t22.5 37q0 9 -5 16.5t-18.5 14t-36.5 12.5t-59 12q-44 7 -83 18t-67.5 29.5t-45 47.5t-16.5 73q0 35 16 65t46.5 52t74 34.5t98.5 12.5q62 0 104.5 -15t69.5 -39.5t40 -55.5 t16 -63h-154q-6 26 -26 40.5t-50 14.5q-46 0 -63.5 -14t-17.5 -33q0 -21 28 -32.5t89 -19.5q43 -6 82 -17t68.5 -30.5t46.5 -49t17 -71.5q0 -76 -63.5 -123.5t-186.5 -47.5z" glyph-name="uni0455" horiz-adv-x="560" unicode="ѕ"/>
<glyph d="M60 530h154v-530h-154v530zM137 580q-43 0 -66.5 22.5t-23.5 57.5t23.5 57.5t66.5 22.5t66.5 -22.5t23.5 -57.5t-23.5 -57.5t-66.5 -22.5z" glyph-name="uni0456" horiz-adv-x="274" unicode="і"/>
<glyph d="M60 530h154v-530h-154v530zM30 580q-37 0 -59.5 22.5t-22.5 57.5t22.5 57.5t59.5 22.5t59.5 -22.5t22.5 -57.5t-22.5 -57.5t-59.5 -22.5zM246 580q-37 0 -59.5 22.5t-22.5 57.5t22.5 57.5t59.5 22.5t59.5 -22.5t22.5 -57.5t-22.5 -57.5t-59.5 -22.5z" glyph-name="uni0457" horiz-adv-x="274" unicode="ї"/>
<glyph d="M24 -213q-11 0 -25 0.5t-25 2.5v128q8 -2 17.5 -2.5t17.5 -0.5q12 0 21.5 4t16 15t10 30.5t3.5 50.5v515h154v-530q0 -63 -9 -104t-30.5 -65.5t-58.5 -34t-92 -9.5zM137 580q-43 0 -66.5 22.5t-23.5 57.5t23.5 57.5t66.5 22.5t66.5 -22.5t23.5 -57.5t-23.5 -57.5 t-66.5 -22.5z" glyph-name="uni0458" horiz-adv-x="274" unicode="ј"/>
<glyph d="M615 116q41 0 58.5 15.5t17.5 47.5q0 33 -17.5 48t-58.5 15h-80v-126h80zM65 -13q-8 0 -22.5 0.5t-22.5 2.5v134q5 -1 15 -1q17 0 30 10.5t22 35t13.5 64t4.5 97.5v200h430v-172h100q104 0 157 -44t53 -135q0 -40 -11.5 -73t-37 -56.5t-65 -36.5t-96.5 -13h-254v404h-132 v-94q0 -99 -12 -162t-35 -99t-57.5 -49t-79.5 -13z" glyph-name="uni0459" horiz-adv-x="865" unicode="љ"/>
<glyph d="M650 116q33 0 49.5 15t16.5 41q0 55 -66 55h-100v-111h100zM50 530h154v-182h192v182h154v-187h120q97 0 148.5 -43t51.5 -128q0 -37 -11.5 -68.5t-35.5 -54.5t-62 -36t-91 -13h-274v222h-192v-222h-154v530z" glyph-name="uni045A" horiz-adv-x="890" unicode="њ"/>
<glyph d="M100 420h-90v110h90v170h154v-170h216v-110h-216v-127q8 13 22 27t34 26t46 19.5t57 7.5q91 0 139 -51.5t48 -145.5v-176h-154v140q0 52 -21.5 78.5t-69.5 26.5q-52 0 -76.5 -30t-24.5 -75v-140h-154v420z" glyph-name="uni045B" horiz-adv-x="635" unicode="ћ"/>
<glyph d="M50 530h154v-201h40l148 201h168l-195 -249l205 -281h-182l-144 211h-40v-211h-154v530zM348 740h160l-150 -160h-120z" glyph-name="uni045C" unicode="ќ"/>
<glyph d="M155 -213q-15 0 -30 3v128q15 -3 30 -3q29 0 45 19.5t34 66.5l-224 529h170l132 -353l125 353h153l-203 -530q-22 -56 -42 -96.5t-45.5 -66.5t-60 -38t-84.5 -12zM308 585q-98 0 -139 37.5t-41 112.5h136q0 -34 11 -47t33 -13t33 13t11 47h136q0 -75 -41 -112.5 t-139 -37.5z" glyph-name="uni045E" horiz-adv-x="600" unicode="ў"/>
<glyph d="M230 0h-180v530h154v-404h182v404h154v-530h-180v-125h-130v125z" glyph-name="uni045F" horiz-adv-x="590" unicode="џ"/>
<glyph d="M70 700h314v130h156v-278h-290v-552h-180v700z" glyph-name="uni0490" horiz-adv-x="560" unicode="Ґ"/>
<glyph d="M50 530h260v125h130v-251h-236v-404h-154v530z" glyph-name="uni0491" horiz-adv-x="460" unicode="ґ"/>
<glyph d="M100 700h470v-148h-290v-127h160v-148h-160v-277h-180v277h-80v148h80v275z" glyph-name="uni0492" horiz-adv-x="590" unicode="Ғ"/>
<glyph d="M20 303h65v227h390v-126h-236v-101h146v-126h-146v-177h-154v177h-65v126z" glyph-name="uni0493" horiz-adv-x="495" unicode="ғ"/>
<glyph d="M70 700h470v-148h-290v-120q26 14 64 23.5t86 9.5q109 0 164.5 -54.5t55.5 -175.5v-235q0 -38 -10.5 -78t-37 -73t-72 -54.5t-115.5 -21.5h-64v135h47q41 0 56.5 25.5t15.5 66.5v205q0 60 -25 85t-70 25q-32 0 -55 -5.5t-40 -13.5v-296h-180v700z" glyph-name="uni0494" horiz-adv-x="669" unicode="Ҕ"/>
<glyph d="M50 530h390v-126h-236v-101q23 13 53 24t78 11q102 0 148.5 -47.5t46.5 -146.5v-144q0 -63 -9 -104t-30.5 -65.5t-58.5 -34t-92 -9.5q-11 0 -25 0.5t-25 2.5v128q8 -2 17.5 -2.5t17.5 -0.5q12 0 21.5 4t16 15t10 30.5t3.5 50.5v114q0 45 -19 63t-67 18q-34 0 -56 -8.5 t-30 -16.5v-185h-154v530z" glyph-name="uni0495" horiz-adv-x="565" unicode="ҕ"/>
<glyph d="M860 -130v130h-51l-168 297h-40v-297h-180v297h-40l-176 -297h-190l225 359l-215 341h190l165 -277h41v277h180v-277h40l172 277h182l-215 -327l135 -225h101v-278h-156z" glyph-name="uni0496" horiz-adv-x="1041" unicode="Җ"/>
<glyph d="M697 -125v125h-57l-123 213h-30v-213h-154v213h-31l-128 -213h-164l175 273l-164 257h162l120 -203h30v203h154v-203h30l127 203h156l-165 -246l97 -158h95v-251h-130z" glyph-name="uni0497" horiz-adv-x="847" unicode="җ"/>
<glyph d="M265 -130v121q-96 12 -152 60q-74 65 -78 179h186q4 -48 29 -75.5t85 -27.5t87 22t27 62q0 19 -5.5 35.5t-19 28t-38 18t-61.5 6.5h-64v122h64q28 0 47 6.5t30.5 17.5t16.5 25t5 29t-4 28.5t-14 23.5t-27.5 16t-43.5 6q-48 0 -72 -21.5t-27 -66.5h-186q4 116 73 172 t212 56t209 -51t66 -148q0 -55 -27.5 -93.5t-78.5 -55.5q64 -15 97.5 -57.5t33.5 -110.5q0 -47 -18 -85.5t-55 -66.5t-94 -43q-22 -6 -47 -9v-123h-156z" glyph-name="uni0498" horiz-adv-x="668" unicode="Ҙ"/>
<glyph d="M222 -125v115q-88 8 -134 47q-59 50 -63 143h158q2 -15 5.5 -27t13 -21t26.5 -13.5t46 -4.5q50 0 72 16.5t22 36.5q0 26 -20 38.5t-65 12.5h-69v102h61q77 0 77 49q0 20 -19 34t-58 14q-43 0 -61 -16t-21 -46h-158q5 94 66.5 141t173.5 47t171 -41.5t59 -114.5 q0 -38 -18 -68t-60 -44q58 -13 78.5 -44t20.5 -73q0 -37 -17 -68.5t-49 -54t-79 -35.5q-14 -4 -29 -6v-119h-130z" glyph-name="uni0499" horiz-adv-x="556" unicode="ҙ"/>
<glyph d="M575 -130v130h-65l-210 297h-50v-297h-180v700h180v-277h50l214 277h196l-270 -327l169 -225h122v-278h-156z" glyph-name="uni049A" horiz-adv-x="756" unicode="Қ"/>
<glyph d="M444 -125v125h-56l-144 211h-40v-211h-154v530h154v-201h40l148 201h168l-195 -249l113 -155h96v-251h-130z" glyph-name="uni049B" horiz-adv-x="594" unicode="қ"/>
<glyph d="M70 700h180v-277h43v122h136v-122h25l113 277h179l-150 -318l197 -382h-209l-130 297h-25v-112h-136v112h-43v-297h-180v700z" glyph-name="uni049C" horiz-adv-x="808" unicode="Ҝ"/>
<glyph d="M50 530h154v-201h48v87h130v-87h25l82 201h170l-126 -249l153 -281h-182l-97 211h-25v-88h-130v88h-48v-211h-154v530z" glyph-name="uni049D" horiz-adv-x="696" unicode="ҝ"/>
<glyph d="M20 700h328v-277h50l214 277h196l-270 -327l280 -373h-210l-210 297h-50v-297h-180v570h-148v130z" glyph-name="uni04A0" horiz-adv-x="833" unicode="Ҡ"/>
<glyph d="M20 530h264v-201h40l148 201h168l-195 -249l205 -281h-182l-144 211h-40v-211h-154v402h-110v128z" glyph-name="uni04A1" horiz-adv-x="660" unicode="ҡ"/>
<glyph d="M605 -130v130h-95v286h-260v-286h-180v700h180v-266h260v266h180v-552h71v-278h-156z" glyph-name="uni04A2" horiz-adv-x="786" unicode="Ң"/>
<glyph d="M490 -125v125h-84v207h-202v-207h-154v530h154v-197h202v197h154v-404h60v-251h-130z" glyph-name="uni04A3" horiz-adv-x="640" unicode="ң"/>
<glyph d="M70 0v700h180v-266h260v266h470v-148h-290v-552h-180v286h-260v-286h-180z" glyph-name="uni04A4" horiz-adv-x="1000" unicode="Ҥ"/>
<glyph d="M406 207h-202v-207h-154v530h154v-197h202v197h390v-126h-236v-404h-154v207z" glyph-name="uni04A5" horiz-adv-x="816" unicode="ҥ"/>
<glyph d="M294 -130v123q-29 5 -56 13q-60 20 -102.5 63t-66.5 111t-24 166v19q0 92 25 158t69 108t103.5 62t127.5 20q61 0 114.5 -14t94 -44t66 -78t30.5 -117h-186q-5 28 -16 47.5t-27 32t-35.5 18t-40.5 5.5q-30 0 -55.5 -10.5t-44 -34t-29 -61.5t-10.5 -92v-21 q0 -58 11.5 -97.5t30.5 -64t44 -35t53 -10.5q51 0 81.5 24.5t37.5 78.5h186q-4 -70 -28.5 -118t-65 -78t-94.5 -44q-18 -4 -37 -7v-123h-156z" glyph-name="uni04AA" horiz-adv-x="710" unicode="Ҫ"/>
<glyph d="M234 -125v118q-22 4 -43 11q-49 17 -85 51t-56 85t-20 120v20q0 63 21.5 112t58 82.5t85.5 51t105 17.5q60 0 105.5 -16t76.5 -43.5t48 -64.5t20 -79h-158q-8 36 -29.5 55.5t-62.5 19.5q-49 0 -80.5 -33.5t-31.5 -101.5v-20q0 -74 30.5 -109t81.5 -35q35 0 59.5 18.5 t32.5 55.5h158q-3 -47 -22 -84.5t-51.5 -63.5t-77.5 -41q-17 -5 -35 -8v-118h-130z" glyph-name="uni04AB" horiz-adv-x="575" unicode="ҫ"/>
<glyph d="M270 0v262l-260 438h208l146 -260l138 260h188l-240 -438v-262h-180z" glyph-name="uni04AE" horiz-adv-x="700" unicode="Ү"/>
<glyph d="M236 -226v220l-226 536h170l134 -353l122 353h154l-200 -520v-236h-154z" glyph-name="uni04AF" horiz-adv-x="600" unicode="ү"/>
<glyph d="M270 149h-120v148h117l-257 403h208l146 -249l138 249h188l-237 -403h117v-148h-120v-149h-180v149z" glyph-name="uni04B0" horiz-adv-x="700" unicode="Ұ"/>
<glyph d="M82 126h108l-180 404h170l134 -333l122 333h154l-164 -404h112v-126h-148v-226h-154v226h-154v126z" glyph-name="uni04B1" horiz-adv-x="600" unicode="ұ"/>
<glyph d="M559 -130v130h-65l-146 245l-146 -245h-197l228 365l-218 335h199l137 -212l139 212h195l-217 -333l135 -219h112v-278h-156z" glyph-name="uni04B2" horiz-adv-x="740" unicode="Ҳ"/>
<glyph d="M455 -125v125h-56l-111 189l-111 -189h-167l169 276l-159 254h170l104 -162l100 162h166l-158 -249l92 -155h91v-251h-130z" glyph-name="uni04B3" horiz-adv-x="605" unicode="ҳ"/>
<glyph d="M435 0v279q-26 -17 -69 -30.5t-101 -13.5q-109 0 -164.5 54.5t-55.5 175.5v235h180v-205q0 -60 25 -85t70 -25q42 0 69.5 9.5t45.5 20.5v285h180v-552h80v-278h-156v130h-104z" glyph-name="uni04B6" horiz-adv-x="720" unicode="Ҷ"/>
<glyph d="M455 0h-94v186q-23 -13 -53 -24t-78 -11q-102 0 -148.5 47.5t-46.5 146.5v185h154v-170q0 -45 19 -63t67 -18q34 0 56 8.5t30 16.5v226h154v-404h70v-251h-130v125z" glyph-name="uni04B7" horiz-adv-x="605" unicode="ҷ"/>
<glyph d="M495 0v302q-25 -14 -62 -26v-118h-136v100q-60 0 -106.5 12t-79 39.5t-49.5 71.5t-17 107v212h180v-182q0 -49 18.5 -76t53.5 -37v113h136v-109q20 6 35 13.5t27 15.5v262h180v-700h-180z" glyph-name="uni04B8" horiz-adv-x="745" unicode="Ҹ"/>
<glyph d="M421 216q-18 -8 -47 -18v-112h-130v95q-109 2 -159 49.5t-50 144.5v155h154v-140q0 -32 12.5 -50t42.5 -26v98h130v-95q36 8 47 17v196h154v-530h-154v216z" glyph-name="uni04B9" horiz-adv-x="635" unicode="ҹ"/>
<glyph d="M250 700v-264q26 17 69 30.5t103 13.5q108 0 163 -54.5t55 -175.5v-250h-180v220q0 60 -26 85t-77 25q-36 0 -62.5 -9.5t-44.5 -20.5v-300h-180v700h180z" glyph-name="uni04BA" horiz-adv-x="670" unicode="Һ"/>
<glyph d="M50 0v700h154v-237q8 13 22 27t34.5 26t47.5 19.5t60 7.5q96 0 144 -51.5t48 -145.5v-346h-154v310q0 52 -22.5 78.5t-73.5 26.5q-57 0 -81.5 -30t-24.5 -75v-310h-154z" glyph-name="uni04BB" horiz-adv-x="605" unicode="һ"/>
<glyph d="M80 700h180v-700h-180v700z" glyph-name="uni04C0" horiz-adv-x="340" unicode="Ӏ"/>
<glyph d="M70 700h180v-277h70l154 277h196l-182 -284q76 -15 119 -64t43 -137v-215q0 -38 -10.5 -78t-37 -73t-72 -54.5t-115.5 -21.5h-64v135h47q41 0 56.5 25.5t15.5 66.5v184q0 57 -25 85t-70 28h-125v-297h-180v700z" glyph-name="uni04C3" horiz-adv-x="719" unicode="Ӄ"/>
<glyph d="M290 -82q8 -2 17.5 -2.5t17.5 -0.5q12 0 21.5 4t16 15t10 30.5t3.5 50.5v114q0 45 -19 63.5t-67 18.5h-86v-211h-154v530h154v-201h80l108 201h168l-134 -214q104 -34 104 -172v-144q0 -63 -9 -104t-30.5 -65.5t-58.5 -34t-92 -9.5q-11 0 -25 0.5t-25 2.5v128z" glyph-name="uni04C4" horiz-adv-x="595" unicode="ӄ"/>
<glyph d="M70 700h180v-266h260v266h180v-700q0 -38 -10.5 -78t-37 -73t-72 -54.5t-115.5 -21.5h-64v135h47q41 0 56.5 25.5t15.5 66.5v286h-260v-286h-180v700z" glyph-name="uni04C7" horiz-adv-x="760" unicode="Ӈ"/>
<glyph d="M50 530h154v-197h202v197h154v-530q0 -63 -9 -104t-30.5 -65.5t-58.5 -34t-92 -9.5q-11 0 -25 0.5t-25 2.5v128q8 -2 17.5 -2.5t17.5 -0.5q12 0 21.5 4t16 15t10 30.5t3.5 50.5v192h-202v-207h-154v530z" glyph-name="uni04C8" horiz-adv-x="610" unicode="ӈ"/>
<glyph d="M364 148h71v131q-26 -17 -69 -30.5t-101 -13.5q-109 0 -164.5 54.5t-55.5 175.5v235h180v-205q0 -60 25 -85t70 -25q42 0 69.5 9.5t45.5 20.5v285h180v-700h-95v-130h-156v278z" glyph-name="uni04CB" horiz-adv-x="685" unicode="Ӌ"/>
<glyph d="M301 111h60v95q-23 -13 -53 -24t-78 -11q-102 0 -148.5 47.5t-46.5 146.5v165h154v-150q0 -45 19 -63t67 -18q34 0 56 8.5t30 16.5v206h154v-530h-84v-125h-130v236z" glyph-name="uni04CC" horiz-adv-x="575" unicode="ӌ"/>
<glyph d="M55 0v700h154v-700h-154z" glyph-name="uni04CF" horiz-adv-x="264" unicode="ӏ"/>
<glyph d="M462 134h-234l-48 -134h-170l255 700h180l255 -700h-190zM279 272h132l-66 208zM355 741q-106 0 -153 43t-47 127h146q0 -41 12.5 -55.5t41.5 -14.5t41.5 14.5t12.5 55.5h146q0 -84 -47 -127t-153 -43z" glyph-name="uni04D0" horiz-adv-x="710" unicode="Ӑ"/>
<glyph d="M215 -13q-43 0 -76.5 13t-56.5 35.5t-35 53t-12 66.5q0 79 48.5 121t146.5 42h151v22q0 48 -23 66.5t-63 18.5q-38 0 -56 -12t-20 -38h-154q2 36 18 66.5t45.5 53t72.5 35.5t99 13q52 0 95.5 -11.5t74.5 -37t48 -66t17 -98.5v-195q0 -42 2 -73.5t6 -61.5h-146 q-2 17 -3.5 30t-1.5 32q-24 -32 -66.5 -53.5t-110.5 -21.5zM265 95q49 0 82.5 28t33.5 77v22h-121q-34 0 -50.5 -18t-16.5 -42q0 -29 16.5 -48t55.5 -19zM299 585q-98 0 -139 37.5t-41 112.5h136q0 -34 11 -47t33 -13t33 13t11 47h136q0 -75 -41 -112.5t-139 -37.5z" glyph-name="uni04D1" unicode="ӑ"/>
<glyph d="M462 134h-234l-48 -134h-170l255 700h180l255 -700h-190zM279 272h132l-66 208zM230 740q-43 0 -66.5 25t-23.5 60t23.5 60t66.5 25t66.5 -25t23.5 -60t-23.5 -60t-66.5 -25zM480 740q-43 0 -66.5 25t-23.5 60t23.5 60t66.5 25t66.5 -25t23.5 -60t-23.5 -60t-66.5 -25z " glyph-name="uni04D2" horiz-adv-x="710" unicode="Ӓ"/>
<glyph d="M215 -13q-43 0 -76.5 13t-56.5 35.5t-35 53t-12 66.5q0 79 48.5 121t146.5 42h151v22q0 48 -23 66.5t-63 18.5q-38 0 -56 -12t-20 -38h-154q2 36 18 66.5t45.5 53t72.5 35.5t99 13q52 0 95.5 -11.5t74.5 -37t48 -66t17 -98.5v-195q0 -42 2 -73.5t6 -61.5h-146 q-2 17 -3.5 30t-1.5 32q-24 -32 -66.5 -53.5t-110.5 -21.5zM265 95q49 0 82.5 28t33.5 77v22h-121q-34 0 -50.5 -18t-16.5 -42q0 -29 16.5 -48t55.5 -19zM182 580q-37 0 -59.5 22.5t-22.5 57.5t22.5 57.5t59.5 22.5t59.5 -22.5t22.5 -57.5t-22.5 -57.5t-59.5 -22.5zM398 580 q-37 0 -59.5 22.5t-22.5 57.5t22.5 57.5t59.5 22.5t59.5 -22.5t22.5 -57.5t-22.5 -57.5t-59.5 -22.5z" glyph-name="uni04D3" unicode="ӓ"/>
<glyph d="M420 700h560v-138h-330v-137h300v-130h-300v-157h330v-138h-510v134h-199l-79 -134h-182zM470 272v213l-119 -213h119z" glyph-name="uni04D4" horiz-adv-x="1025" unicode="Ӕ"/>
<glyph d="M215 -13q-43 0 -76.5 13t-56.5 35.5t-35 53t-12 66.5q0 79 50.5 121t144.5 42h151v22q0 51 -23 68t-63 17q-38 0 -56 -12t-20 -38h-154q2 36 18 66.5t45.5 53t72.5 35.5t99 13q60 0 102 -16.5t68 -48.5q35 35 76.5 50t98.5 15q128 0 194 -67t66 -195v-59h-372 q1 -30 11 -51t26 -34.5t36.5 -20t43.5 -6.5q44 0 69.5 13.5t33.5 36.5h142q-16 -87 -79 -130t-166 -43q-69 0 -120 25.5t-80 69.5q-29 -42 -89.5 -68.5t-145.5 -26.5zM266 95q48 0 81.5 28t33.5 77v22h-121q-34 0 -50.5 -18t-16.5 -42q0 -29 16.5 -48t56.5 -19zM645 421 q-21 0 -40.5 -5.5t-35 -17.5t-25 -31.5t-10.5 -48.5h220q0 31 -9 51t-23.5 31.5t-34.5 16t-42 4.5z" glyph-name="uni04D5" horiz-adv-x="935" unicode="ӕ"/>
<glyph d="M70 700h510v-138h-330v-137h300v-130h-300v-157h330v-138h-510v700zM325 740q-106 0 -153 43t-47 127h146q0 -41 12.5 -55.5t41.5 -14.5t41.5 14.5t12.5 55.5h146q0 -84 -47 -127t-153 -43z" glyph-name="uni04D6" horiz-adv-x="625" unicode="Ӗ"/>
<glyph d="M305 -13q-58 0 -108.5 16.5t-87.5 50.5t-58 85.5t-21 120.5v20q0 66 20.5 115t56 82t84 49.5t104.5 16.5q131 0 198 -67.5t67 -195.5v-55h-372q1 -31 11 -52.5t26 -35.5t36.5 -20.5t43.5 -6.5q44 0 69.5 13.5t33.5 36.5h142q-16 -87 -79 -130t-166 -43zM300 421 q-21 0 -40.5 -5t-35 -16.5t-25 -29.5t-10.5 -44h220q0 28 -9 46t-23.5 29t-34.5 15.5t-42 4.5zM295 585q-98 0 -139 37.5t-41 112.5h136q0 -34 11 -47t33 -13t33 13t11 47h136q0 -75 -41 -112.5t-139 -37.5z" glyph-name="uni04D7" horiz-adv-x="590" unicode="ӗ"/>
<glyph d="M355 137q67 0 103 37t44 124h-294q4 -46 16 -77t31 -49.5t44.5 -26.5t55.5 -8zM352 -13q-70 0 -127.5 20t-98.5 63.5t-63.5 111.5t-22.5 163v58h462q-4 45 -16.5 75.5t-31.5 49t-44 27t-53 8.5q-44 0 -74.5 -21.5t-41.5 -71.5h-186q8 64 34.5 110t66.5 75.5t91 43.5 t108 14q70 0 131.5 -20.5t106.5 -63t71 -108t26 -156.5v-20q0 -95 -26.5 -163t-72 -111.5t-107.5 -63.5t-132 -20z" glyph-name="uni04D8" horiz-adv-x="735" unicode="Ә"/>
<glyph d="M181 204q0 -28 8.5 -46t23.5 -29t35 -15.5t42 -4.5q21 0 40.5 5t35 16.5t25 29.5t10.5 44h-220zM285 543q58 0 108.5 -16.5t87.5 -50.5t58 -85.5t21 -120.5v-20q0 -66 -20.5 -115t-56 -82t-84 -49.5t-104.5 -16.5q-132 0 -198.5 67t-66.5 196v55h372q-1 31 -11 52.5 t-26 35.5t-37 20.5t-43 6.5q-45 0 -70 -13.5t-33 -36.5h-142q16 88 79 130.5t166 42.5z" glyph-name="uni04D9" horiz-adv-x="590" unicode="ә"/>
<glyph d="M352 -13q-70 0 -127.5 20t-98.5 63.5t-63.5 111.5t-22.5 163v58h462q-4 45 -16.5 75.5t-31.5 49t-44 27t-53 8.5q-44 0 -74.5 -21.5t-41.5 -71.5h-186q8 64 34.5 110t66.5 75.5t91 43.5t108 14q70 0 131.5 -20.5t106.5 -63t71 -108t26 -156.5v-20q0 -95 -26.5 -163 t-72 -111.5t-107.5 -63.5t-132 -20zM355 137q67 0 103 37t44 124h-294q4 -46 16 -77t31 -49.5t44.5 -26.5t55.5 -8zM242 740q-43 0 -66.5 25t-23.5 60t23.5 60t66.5 25t66.5 -25t23.5 -60t-23.5 -60t-66.5 -25zM492 740q-43 0 -66.5 25t-23.5 60t23.5 60t66.5 25t66.5 -25 t23.5 -60t-23.5 -60t-66.5 -25z" glyph-name="uni04DA" horiz-adv-x="735" unicode="Ӛ"/>
<glyph d="M285 543q58 0 108.5 -16.5t87.5 -50.5t58 -85.5t21 -120.5v-20q0 -66 -20.5 -115t-56 -82t-84 -49.5t-104.5 -16.5q-132 0 -198.5 67t-66.5 196v55h372q-1 31 -11 52.5t-26 35.5t-37 20.5t-43 6.5q-45 0 -70 -13.5t-33 -36.5h-142q16 88 79 130.5t166 42.5zM181 204 q0 -28 8.5 -46t23.5 -29t35 -15.5t42 -4.5q21 0 40.5 5t35 16.5t25 29.5t10.5 44h-220zM177 579q-37 0 -59.5 22.5t-22.5 57.5t22.5 57.5t59.5 22.5t59.5 -22.5t22.5 -57.5t-22.5 -57.5t-59.5 -22.5zM393 579q-37 0 -59.5 22.5t-22.5 57.5t22.5 57.5t59.5 22.5t59.5 -22.5 t22.5 -57.5t-22.5 -57.5t-59.5 -22.5z" glyph-name="uni04DB" horiz-adv-x="590" unicode="ӛ"/>
<glyph d="M240 359l-215 341h190l165 -277h41v277h180v-277h40l172 277h182l-215 -327l225 -373h-196l-168 297h-40v-297h-180v297h-40l-176 -297h-190zM385 740q-43 0 -66.5 25t-23.5 60t23.5 60t66.5 25t66.5 -25t23.5 -60t-23.5 -60t-66.5 -25zM635 740q-43 0 -66.5 25t-23.5 60 t23.5 60t66.5 25t66.5 -25t23.5 -60t-23.5 -60t-66.5 -25z" glyph-name="uni04DC" horiz-adv-x="1020" unicode="Ӝ"/>
<glyph d="M185 273l-164 257h162l120 -203h30v203h154v-203h30l127 203h156l-165 -246l175 -284h-170l-123 213h-30v-213h-154v213h-31l-128 -213h-164zM302 580q-37 0 -59.5 22.5t-22.5 57.5t22.5 57.5t59.5 22.5t59.5 -22.5t22.5 -57.5t-22.5 -57.5t-59.5 -22.5zM518 580 q-37 0 -59.5 22.5t-22.5 57.5t22.5 57.5t59.5 22.5t59.5 -22.5t22.5 -57.5t-22.5 -57.5t-59.5 -22.5z" glyph-name="uni04DD" horiz-adv-x="820" unicode="ӝ"/>
<glyph d="M335 -13q-147 0 -221.5 64.5t-78.5 178.5h186q4 -48 29 -75.5t85 -27.5t87 22t27 62q0 19 -5.5 35.5t-19 28t-38 18t-61.5 6.5h-64v122h64q28 0 47 6.5t30.5 17.5t16.5 25t5 29t-4 28.5t-14 23.5t-27.5 16t-43.5 6q-48 0 -72 -21.5t-27 -66.5h-186q4 116 73 172t212 56 t209 -51t66 -148q0 -55 -27.5 -93.5t-78.5 -55.5q64 -15 97.5 -57.5t33.5 -110.5q0 -47 -18 -85.5t-55 -66.5t-93.5 -43t-133.5 -15zM209 740q-43 0 -66.5 25t-23.5 60t23.5 60t66.5 25t66.5 -25t23.5 -60t-23.5 -60t-66.5 -25zM459 740q-43 0 -66.5 25t-23.5 60t23.5 60 t66.5 25t66.5 -25t23.5 -60t-23.5 -60t-66.5 -25z" glyph-name="uni04DE" horiz-adv-x="668" unicode="Ӟ"/>
<glyph d="M276 -13q-129 0 -188 50t-63 143h158q2 -15 5.5 -27t13 -21t26.5 -13.5t46 -4.5q50 0 72 16.5t22 36.5q0 26 -20 38.5t-65 12.5h-69v102h61q77 0 77 49q0 20 -19 34t-58 14q-43 0 -61 -16t-21 -46h-158q5 94 66.5 141t173.5 47t171 -41.5t59 -114.5q0 -38 -18 -68 t-60 -44q58 -13 78.5 -44t20.5 -73q0 -37 -17 -68.5t-49 -54t-78.5 -35.5t-105.5 -13zM170 580q-37 0 -59.5 22.5t-22.5 57.5t22.5 57.5t59.5 22.5t59.5 -22.5t22.5 -57.5t-22.5 -57.5t-59.5 -22.5zM386 580q-37 0 -59.5 22.5t-22.5 57.5t22.5 57.5t59.5 22.5t59.5 -22.5 t22.5 -57.5t-22.5 -57.5t-59.5 -22.5z" glyph-name="uni04DF" horiz-adv-x="556" unicode="ӟ"/>
<glyph d="M70 700h180v-420l275 420h165v-700h-180v420l-275 -420h-165v700zM220 883h320v-106h-320v106z" glyph-name="uni04E2" horiz-adv-x="760" unicode="Ӣ"/>
<glyph d="M50 530h150v-320l225 320h135v-530h-150v320l-225 -320h-135v530zM145 713h320v-106h-320v106z" glyph-name="uni04E3" horiz-adv-x="610" unicode="ӣ"/>
<glyph d="M70 700h180v-420l275 420h165v-700h-180v420l-275 -420h-165v700zM255 740q-43 0 -66.5 25t-23.5 60t23.5 60t66.5 25t66.5 -25t23.5 -60t-23.5 -60t-66.5 -25zM505 740q-43 0 -66.5 25t-23.5 60t23.5 60t66.5 25t66.5 -25t23.5 -60t-23.5 -60t-66.5 -25z" glyph-name="uni04E4" horiz-adv-x="760" unicode="Ӥ"/>
<glyph d="M50 530h150v-320l225 320h135v-530h-150v320l-225 -320h-135v530zM197 580q-37 0 -59.5 22.5t-22.5 57.5t22.5 57.5t59.5 22.5t59.5 -22.5t22.5 -57.5t-22.5 -57.5t-59.5 -22.5zM413 580q-37 0 -59.5 22.5t-22.5 57.5t22.5 57.5t59.5 22.5t59.5 -22.5t22.5 -57.5 t-22.5 -57.5t-59.5 -22.5z" glyph-name="uni04E5" horiz-adv-x="610" unicode="ӥ"/>
<glyph d="M385 -13q-69 0 -131 20t-108.5 63.5t-73.5 111t-27 163.5v20q0 92 27 158t73.5 108t108.5 62t131 20t131 -20t108.5 -62t73.5 -108t27 -158v-20q0 -96 -27 -163.5t-73.5 -111t-108.5 -63.5t-131 -20zM385 137q30 0 58 9.5t49 33t34 63.5t13 102v20q0 58 -13 96.5t-34 61 t-49 31.5t-58 9t-58 -9t-49 -31.5t-34 -61t-13 -96.5v-20q0 -62 13 -102t34 -63.5t49 -33t58 -9.5zM260 740q-43 0 -66.5 25t-23.5 60t23.5 60t66.5 25t66.5 -25t23.5 -60t-23.5 -60t-66.5 -25zM510 740q-43 0 -66.5 25t-23.5 60t23.5 60t66.5 25t66.5 -25t23.5 -60 t-23.5 -60t-66.5 -25z" glyph-name="uni04E6" horiz-adv-x="770" unicode="Ӧ"/>
<glyph d="M300 -13q-56 0 -105 16.5t-86 50.5t-58 85.5t-21 120.5v20q0 65 21 114t58 82t86 50t105 17t105 -17t86 -50t58 -82t21 -114v-20q0 -68 -21 -119.5t-58 -85.5t-86 -51t-105 -17zM300 115q54 0 83 39t29 106v20q0 60 -29 97.5t-83 37.5t-83 -37.5t-29 -97.5v-20 q0 -69 29 -107t83 -38zM192 580q-37 0 -59.5 22.5t-22.5 57.5t22.5 57.5t59.5 22.5t59.5 -22.5t22.5 -57.5t-22.5 -57.5t-59.5 -22.5zM408 580q-37 0 -59.5 22.5t-22.5 57.5t22.5 57.5t59.5 22.5t59.5 -22.5t22.5 -57.5t-22.5 -57.5t-59.5 -22.5z" glyph-name="uni04E7" horiz-adv-x="600" unicode="ӧ"/>
<glyph d="M395 563q-27 0 -53 -6.5t-47.5 -22.5t-37 -43t-22.5 -67h319q-7 40 -22.5 67t-36.5 43t-47 22.5t-53 6.5zM395 137q27 0 53 7t48 24t37.5 45.5t21.5 72.5h-320q6 -44 21.5 -72.5t37 -45.5t47.5 -24t54 -7zM395 -13q-71 0 -134.5 20t-111.5 63.5t-76 111t-28 163.5v20 q0 92 28 158t76 108t111.5 62t134.5 20t134.5 -20t111.5 -62t76 -108t28 -158v-20q0 -96 -28 -163.5t-76 -111t-111.5 -63.5t-134.5 -20z" glyph-name="uni04E8" horiz-adv-x="790" unicode="Ө"/>
<glyph d="M310 415q-48 0 -78 -25.5t-40 -68.5h235q-10 43 -39.5 68.5t-77.5 25.5zM310 115q49 0 79.5 27.5t38.5 77.5h-237q8 -51 38.5 -78t80.5 -27zM310 -13q-58 0 -109 16.5t-89 50.5t-60 85.5t-22 120.5v20q0 64 22 113.5t60 82.5t89 50t109 17t109 -17t89 -50t60 -82.5 t22 -113.5v-20q0 -68 -22 -119.5t-60 -85.5t-89 -51t-109 -17z" glyph-name="uni04E9" horiz-adv-x="620" unicode="ө"/>
<glyph d="M395 -13q-71 0 -134.5 20t-111.5 63.5t-76 111t-28 163.5v20q0 92 28 158t76 108t111.5 62t134.5 20t134.5 -20t111.5 -62t76 -108t28 -158v-20q0 -96 -28 -163.5t-76 -111t-111.5 -63.5t-134.5 -20zM395 137q27 0 53 7t48 24t37.5 45.5t21.5 72.5h-320q6 -44 21.5 -72.5 t37 -45.5t47.5 -24t54 -7zM395 563q-27 0 -53 -6.5t-47.5 -22.5t-37 -43t-22.5 -67h319q-7 40 -22.5 67t-36.5 43t-47 22.5t-53 6.5zM270 740q-43 0 -66.5 25t-23.5 60t23.5 60t66.5 25t66.5 -25t23.5 -60t-23.5 -60t-66.5 -25zM520 740q-43 0 -66.5 25t-23.5 60t23.5 60 t66.5 25t66.5 -25t23.5 -60t-23.5 -60t-66.5 -25z" glyph-name="uni04EA" horiz-adv-x="790" unicode="Ӫ"/>
<glyph d="M310 -13q-58 0 -109 16.5t-89 50.5t-60 85.5t-22 120.5v20q0 64 22 113.5t60 82.5t89 50t109 17t109 -17t89 -50t60 -82.5t22 -113.5v-20q0 -68 -22 -119.5t-60 -85.5t-89 -51t-109 -17zM310 115q49 0 79.5 27.5t38.5 77.5h-237q8 -51 38.5 -78t80.5 -27zM310 415 q-48 0 -78 -25.5t-40 -68.5h235q-10 43 -39.5 68.5t-77.5 25.5zM202 580q-37 0 -59.5 22.5t-22.5 57.5t22.5 57.5t59.5 22.5t59.5 -22.5t22.5 -57.5t-22.5 -57.5t-59.5 -22.5zM418 580q-37 0 -59.5 22.5t-22.5 57.5t22.5 57.5t59.5 22.5t59.5 -22.5t22.5 -57.5t-22.5 -57.5 t-59.5 -22.5z" glyph-name="uni04EB" horiz-adv-x="620" unicode="ӫ"/>
<glyph d="M210 -13q-11 0 -21.5 1t-18.5 3v149l16 -2t19 -1q22 0 36 2.5t23 8.5t15 16t11 25l-280 511h182l186 -355l146 355h176l-234 -530q-23 -51 -45 -85.5t-51 -56.5t-67.5 -31.5t-92.5 -9.5zM195 883h320v-106h-320v106z" glyph-name="uni04EE" horiz-adv-x="710" unicode="Ӯ"/>
<glyph d="M155 -213q-15 0 -30 3v128q15 -3 30 -3q29 0 45 19.5t34 66.5l-224 529h170l132 -353l125 353h153l-203 -530q-22 -56 -42 -96.5t-45.5 -66.5t-60 -38t-84.5 -12zM140 713h320v-106h-320v106z" glyph-name="uni04EF" horiz-adv-x="600" unicode="ӯ"/>
<glyph d="M210 -13q-11 0 -21.5 1t-18.5 3v149l16 -2t19 -1q22 0 36 2.5t23 8.5t15 16t11 25l-280 511h182l186 -355l146 355h176l-234 -530q-23 -51 -45 -85.5t-51 -56.5t-67.5 -31.5t-92.5 -9.5zM230 740q-43 0 -66.5 25t-23.5 60t23.5 60t66.5 25t66.5 -25t23.5 -60t-23.5 -60 t-66.5 -25zM480 740q-43 0 -66.5 25t-23.5 60t23.5 60t66.5 25t66.5 -25t23.5 -60t-23.5 -60t-66.5 -25z" glyph-name="uni04F0" horiz-adv-x="710" unicode="Ӱ"/>
<glyph d="M155 -213q-15 0 -30 3v128q15 -3 30 -3q29 0 45 19.5t34 66.5l-224 529h170l132 -353l125 353h153l-203 -530q-22 -56 -42 -96.5t-45.5 -66.5t-60 -38t-84.5 -12zM184 580q-37 0 -59.5 22.5t-22.5 57.5t22.5 57.5t59.5 22.5t59.5 -22.5t22.5 -57.5t-22.5 -57.5 t-59.5 -22.5zM400 580q-37 0 -59.5 22.5t-22.5 57.5t22.5 57.5t59.5 22.5t59.5 -22.5t22.5 -57.5t-22.5 -57.5t-59.5 -22.5z" glyph-name="uni04F1" horiz-adv-x="600" unicode="ӱ"/>
<glyph d="M210 -13q-11 0 -21.5 1t-18.5 3v149l16 -2t19 -1q22 0 36 2.5t23 8.5t15 16t11 25l-280 511h182l186 -355l146 355h176l-234 -530q-23 -51 -45 -85.5t-51 -56.5t-67.5 -31.5t-92.5 -9.5zM326 900h136l-131 -150h-111zM527 900h141l-161 -150h-111z" glyph-name="uni04F2" horiz-adv-x="710" unicode="Ӳ"/>
<glyph d="M155 -213q-15 0 -30 3v128q15 -3 30 -3q29 0 45 19.5t34 66.5l-224 529h170l132 -353l125 353h153l-203 -530q-22 -56 -42 -96.5t-45.5 -66.5t-60 -38t-84.5 -12zM136 580l70 160h151l-110 -160h-111zM357 580l120 160h160l-160 -160h-120z" glyph-name="uni04F3" horiz-adv-x="600" unicode="ӳ"/>
<glyph d="M435 279q-26 -17 -69 -30.5t-101 -13.5q-109 0 -164.5 54.5t-55.5 175.5v235h180v-205q0 -60 25 -85t70 -25q42 0 69.5 9.5t45.5 20.5v285h180v-700h-180v279zM217 740q-43 0 -66.5 25t-23.5 60t23.5 60t66.5 25t66.5 -25t23.5 -60t-23.5 -60t-66.5 -25zM467 740 q-43 0 -66.5 25t-23.5 60t23.5 60t66.5 25t66.5 -25t23.5 -60t-23.5 -60t-66.5 -25z" glyph-name="uni04F4" horiz-adv-x="685" unicode="Ӵ"/>
<glyph d="M361 186q-23 -13 -53 -24t-78 -11q-101 0 -148 48t-47 146v185h154v-170q0 -44 19 -62.5t67 -18.5q34 0 56 8.5t30 16.5v226h154v-530h-154v186zM171 580q-37 0 -59.5 22.5t-22.5 57.5t22.5 57.5t59.5 22.5t59.5 -22.5t22.5 -57.5t-22.5 -57.5t-59.5 -22.5zM387 580 q-37 0 -59.5 22.5t-22.5 57.5t22.5 57.5t59.5 22.5t59.5 -22.5t22.5 -57.5t-22.5 -57.5t-59.5 -22.5z" glyph-name="uni04F5" horiz-adv-x="575" unicode="ӵ"/>
<glyph d="M70 700h180v-232h85q146 0 215.5 -63t69.5 -171t-69.5 -171t-215.5 -63h-265v700zM315 148q63 0 91 24t28 62t-28 62t-91 24h-65v-172h65zM670 700h180v-700h-180v700zM335 740q-43 0 -66.5 25t-23.5 60t23.5 60t66.5 25t66.5 -25t23.5 -60t-23.5 -60t-66.5 -25zM585 740 q-43 0 -66.5 25t-23.5 60t23.5 60t66.5 25t66.5 -25t23.5 -60t-23.5 -60t-66.5 -25z" glyph-name="uni04F8" horiz-adv-x="920" unicode="Ӹ"/>
<glyph d="M50 530h154v-172h86q104 0 157 -44t53 -135q0 -40 -11.5 -73t-37 -56.5t-65 -36.5t-96.5 -13h-240v530zM270 116q41 0 58.5 15.5t17.5 47.5q0 33 -17.5 48t-58.5 15h-66v-126h66zM546 530h154v-530h-154v530zM269 580q-37 0 -59.5 22.5t-22.5 57.5t22.5 57.5t59.5 22.5 t59.5 -22.5t22.5 -57.5t-22.5 -57.5t-59.5 -22.5zM485 580q-37 0 -59.5 22.5t-22.5 57.5t22.5 57.5t59.5 22.5t59.5 -22.5t22.5 -57.5t-22.5 -57.5t-59.5 -22.5z" glyph-name="uni04F9" horiz-adv-x="750" unicode="ӹ"/>
<glyph d="M361 -92h47q41 0 56.5 25.5t15.5 66.5v553h-182v-93q0 -156 -16 -249t-45.5 -143t-72 -65.5t-94.5 -15.5q-8 0 -22.5 0.5t-22.5 2.5v158q3 -1 15 -1q24 0 41.5 9t28 43t15.5 100.5t5 180.5v220h530v-700q0 -38 -10.5 -78t-37 -73t-72 -54.5t-115.5 -21.5h-64v135z" glyph-name="uni0512" horiz-adv-x="730" unicode="Ԓ"/>
<glyph d="M305 -82q8 -2 17.5 -2.5t17.5 -0.5q12 0 21.5 4t16 15t10 30.5t3.5 50.5v389h-142v-94q0 -99 -12 -162t-35 -99t-57.5 -49t-79.5 -13q-8 0 -22.5 0.5t-22.5 2.5v134q3 -1 15 -1q17 0 30 10.5t22 35t13.5 64t4.5 97.5v200h440v-530q0 -63 -9 -104t-30.5 -65.5t-58.5 -34 t-92 -9.5q-11 0 -25 0.5t-25 2.5v128z" glyph-name="uni0513" horiz-adv-x="595" unicode="ԓ"/>
<glyph d="M355 713q121 0 197 -55.5t100 -154.5l-107 -115q54 -11 89.5 -52t35.5 -120q0 -54 -16.5 -94.5t-46 -67.5t-71 -40.5t-92.5 -13.5h-81v140h52q38 0 56.5 23t18.5 58q0 42 -24.5 58t-65.5 16h-42v82l116 126q-11 29 -34.5 44.5t-65.5 15.5q-70 0 -102 -41t-32 -122v-400 h-180v420q0 73 21 128t59.5 91.5t93 55t121.5 18.5z" glyph-name="uni1E9E" horiz-adv-x="705" unicode="ẞ"/>
<glyph glyph-name="uni2009" horiz-adv-x="154" unicode=" "/>
<glyph d="M25 354h330v-148h-330v148z" glyph-name="uni2010" horiz-adv-x="380" unicode="‐"/>
<glyph d="M25 354h330v-148h-330v148z" glyph-name="uni2011" horiz-adv-x="380" unicode="‑"/>
<glyph d="M52 434h503v-148h-503v148z" glyph-name="figuredash" horiz-adv-x="607" unicode="‒"/>
<glyph d="M25 354h480v-148h-480v148z" glyph-name="endash" horiz-adv-x="530" unicode="–"/>
<glyph d="M25 354h680v-148h-680v148z" glyph-name="emdash" horiz-adv-x="730" unicode="—"/>
<glyph d="M230.01 545v-139.982h-149.981v139.982l109.986 154.981h79.9902z" glyph-name="quoteleft" horiz-adv-x="310" unicode="‘"/>
<glyph d="M80 560v140h150v-140l-110 -155h-80z" glyph-name="quoteright" horiz-adv-x="310" unicode="’"/>
<glyph d="M80 0v140h150v-140l-110 -155h-80z" glyph-name="quotesinglbase" horiz-adv-x="310" unicode="‚"/>
<glyph d="M230.01 545v-139.982h-149.981v139.982l109.986 154.981h79.9902zM460.01 545v-139.982h-149.981v139.982l109.986 154.981h79.9902z" glyph-name="quotedblleft" horiz-adv-x="540" unicode="“"/>
<glyph d="M80 560v140h150v-140l-110 -155h-80zM310 560v140h150v-140l-110 -155h-80z" glyph-name="quotedblright" horiz-adv-x="540" unicode="”"/>
<glyph d="M80 0v140h150v-140l-110 -155h-80zM310 0v140h150v-140l-110 -155h-80z" glyph-name="quotedblbase" horiz-adv-x="540" unicode="„"/>
<glyph d="M208 424h-178v106h178v170h134v-170h178v-106h-178v-624h-134v624z" glyph-name="dagger" horiz-adv-x="550" unicode="†"/>
<glyph d="M208 0h-178v106h178v318h-178v106h178v170h134v-170h178v-106h-178v-318h178v-106h-178v-200h-134v200z" glyph-name="daggerdbl" horiz-adv-x="550" unicode="‡"/>
<glyph d="M200 125q-32 0 -59 11.5t-47.5 32t-32 47.5t-11.5 59q0 31 11.5 58.5t32 48t47.5 32t59 11.5q31 0 58.5 -11.5t48 -32t32 -48t11.5 -58.5q0 -32 -11.5 -59t-32 -47.5t-48 -32t-58.5 -11.5z" glyph-name="bullet" horiz-adv-x="400" unicode="•"/>
<glyph d="M160 -13q-40 0 -67.5 27.5t-27.5 67.5t27.5 67.5t67.5 27.5t67.5 -27.5t27.5 -67.5t-27.5 -67.5t-67.5 -27.5zM500 -13q-40 0 -67.5 27.5t-27.5 67.5t27.5 67.5t67.5 27.5t67.5 -27.5t27.5 -67.5t-27.5 -67.5t-67.5 -27.5zM840 -13q-40 0 -67.5 27.5t-27.5 67.5 t27.5 67.5t67.5 27.5t67.5 -27.5t27.5 -67.5t-27.5 -67.5t-67.5 -27.5z" glyph-name="ellipsis" horiz-adv-x="1000" unicode="…"/>
<glyph glyph-name="uni202F" horiz-adv-x="154" unicode=" "/>
<glyph d="M580 700h160l-480 -700h-160zM190 367q-81 0 -128 46t-47 122v10q0 76 47 122t128 46t128 -46t47 -122v-10q0 -76 -47 -122t-128 -46zM190 485q14 0 23 11t9 39v10q0 28 -9 39t-23 11t-23 -11t-9 -39v-10q0 -28 9 -39t23 -11zM650 -12q-81 0 -128 46t-47 122v10 q0 76 47 122t128 46t128 -46t47 -122v-10q0 -76 -47 -122t-128 -46zM650 106q14 0 23 11t9 39v10q0 28 -9 39t-23 11t-23 -11t-9 -39v-10q0 -28 9 -39t23 -11zM1030 -12q-81 0 -128 46t-47 122v10q0 76 47 122t128 46t128 -46t47 -122v-10q0 -76 -47 -122t-128 -46z M1030 106q14 0 23 11t9 39v10q0 28 -9 39t-23 11t-23 -11t-9 -39v-10q0 -28 9 -39t23 -11z" glyph-name="perthousand" horiz-adv-x="1220" unicode="‰"/>
<glyph d="M25 212v126l220 187v-162l-105 -86l105 -86v-166z" glyph-name="guilsinglleft" horiz-adv-x="290" unicode="‹"/>
<glyph d="M265 338v-126l-220 -187v162l105 86l-105 86v166z" glyph-name="guilsinglright" horiz-adv-x="290" unicode="›"/>
<glyph d="M250 700h160l-480 -700h-160z" glyph-name="fraction" horiz-adv-x="180" unicode="⁄"/>
<glyph d="M207 558v90l-59 -90h59zM207 442h-197v91l184 247h156v-222h40v-116h-40v-62h-143v62z" glyph-name="uni2074" horiz-adv-x="415" unicode="⁴"/>
<glyph d="M385 -13q-55 0 -102.5 12.5t-85 39.5t-64.5 70t-40 104h-73v118h60v15v19v14h-60v118h75q15 56 43 97t65.5 67.5t84 39t97.5 12.5q58 0 107.5 -14t87.5 -44t61.5 -78t28.5 -117h-186q-9 56 -37 79.5t-62 23.5q-32 0 -57 -15.5t-41 -50.5h123v-118h-144v-14v-21v-13h144 v-118h-125q17 -42 43 -59t57 -17q43 0 67.5 24.5t31.5 78.5h186q-4 -70 -27 -118t-60.5 -78t-88 -43.5t-109.5 -13.5z" glyph-name="Euro" horiz-adv-x="705" unicode="€"/>
<glyph d="M305 -13q-61 0 -104.5 11t-71.5 31t-41 47t-13 59q0 26 4 45t13 36h-62v118h550v-118h-305q-11 -13 -15.5 -23.5t-4.5 -22.5q0 -24 13 -33.5t37 -9.5q23 0 34.5 8.5t15.5 24.5h180q-2 -39 -14.5 -71t-39.5 -54.5t-70.5 -35t-105.5 -12.5zM30 500h299q7 8 11.5 16t4.5 19 q0 17 -9.5 27.5t-30.5 10.5q-18 0 -27 -9.5t-13 -23.5h-180q3 83 55 128t165 45q57 0 98.5 -12t68.5 -31.5t40 -45.5t13 -54q0 -22 -2 -37t-10 -33h67v-118h-550v118z" glyph-name="uni20B4" horiz-adv-x="610" unicode="₴"/>
<glyph d="M235 0v356h-215v148h610v-148h-215v-356h-180zM20 700h610v-148h-610v148z" glyph-name="uni20B8" horiz-adv-x="650" unicode="₸"/>
<glyph d="M355 380q54 0 79.5 22t25.5 64t-25.5 64t-79.5 22h-65v-172h65zM110 76h-90v118h90v48h-90v138h90v320h265q131 0 198 -63t67 -171q0 -50 -17 -91.5t-50 -71t-82.5 -45.5t-115.5 -16h-85v-48h210v-118h-210v-76h-180v76z" glyph-name="uni20BD" horiz-adv-x="675" unicode="₽"/>
<glyph d="M750 328h330v-116h-330v116zM915 485q14 0 23 11t9 39v10q0 28 -9 39t-23 11t-23 -11t-9 -39v-10q0 -28 9 -39t23 -11zM915 367q-81 0 -128 46t-47 122v10q0 76 47 122t128 46t128 -46t47 -122v-10q0 -76 -47 -122t-128 -46zM70 700h159l271 -390v390h190v-700h-170 l-270 390v-390h-180v700z" glyph-name="uni2116" horiz-adv-x="1110" unicode="№"/>
<glyph d="M425 700h135l101 -188l103 188h131v-400h-138v189l-62 -114h-70l-62 114v-189h-138v400zM121 584h-101v116h350v-116h-101v-284h-148v284z" glyph-name="trademark" horiz-adv-x="925" unicode="™"/>
<glyph d="M12 350l300 300h210l-226 -226h429v-148h-429l226 -226h-210z" glyph-name="arrowleft" horiz-adv-x="750" unicode="←"/>
<glyph d="M298 426l-223 -223v210l300 300l300 -300v-210l-223 223v-426h-154v426z" glyph-name="arrowup" horiz-adv-x="750" unicode="↑"/>
<glyph d="M454 276h-429v148h429l-226 226h210l300 -300l-300 -300h-210z" glyph-name="arrowright" horiz-adv-x="750" unicode="→"/>
<glyph d="M75 287v210l223 -223v426h154v-426l223 223v-210l-300 -300z" glyph-name="arrowdown" horiz-adv-x="750" unicode="↓"/>
<glyph d="M223 393v-309l-148 148v418h418l148 -148h-309l343 -343l-109 -109z" glyph-name="uni2196" horiz-adv-x="750" unicode="↖"/>
<glyph d="M75 155l347 347h-313l148 148h418v-418l-148 -148v313l-347 -347z" glyph-name="uni2197" horiz-adv-x="750" unicode="↗"/>
<glyph d="M109 198h309l-343 343l109 109l343 -343v309l148 -148v-418h-418z" glyph-name="uni2198" horiz-adv-x="750" unicode="↘"/>
<glyph d="M75 468l148 148v-313l347 347l105 -105l-347 -347h313l-148 -148h-418v418z" glyph-name="uni2199" horiz-adv-x="750" unicode="↙"/>
<glyph d="M225 148h231l-116 342zM253 700h194l243 -700h-680z" glyph-name="Delta" horiz-adv-x="700" unicode="∆"/>
<glyph d="M35 434h510v-148h-510v148z" glyph-name="minus" unicode="−"/>
<glyph d="M378 700h162l-338 -700h-162z" glyph-name="uni2215" unicode="∕"/>
<glyph d="M10 391h180l105 -251l147 660h198v-148h-77l-168 -752h-180l-143 343h-62v148z" glyph-name="radical" horiz-adv-x="650" unicode="√"/>
<glyph d="M385 378q-34 0 -60 11.5t-48.5 25.5t-43.5 25.5t-43 11.5q-14 0 -25.5 -9.5t-19.5 -20.5q-10 -13 -17 -29l-103 72q15 38 40 68q20 26 52.5 47.5t77.5 21.5q34 0 60 -11.5t48.5 -25.5t43 -25.5t43.5 -11.5q14 0 25.5 9t19.5 20q10 13 17 30l103 -72q-16 -39 -40 -69 q-21 -26 -53 -47t-77 -21zM385 118q-34 0 -60 11.5t-48.5 25.5t-43.5 25.5t-43 11.5q-14 0 -25.5 -9.5t-19.5 -20.5q-10 -13 -17 -29l-103 72q15 38 40 68q20 26 52.5 47.5t77.5 21.5q34 0 60 -11.5t48.5 -25.5t43 -25.5t43.5 -11.5q14 0 25.5 9t19.5 20q10 13 17 30 l103 -72q-16 -39 -40 -69q-21 -26 -53 -47t-77 -21z" glyph-name="approxequal" unicode="≈"/>
<glyph d="M35 148h455l-455 207v126l510 232v-180l-270 -112l270 -112v-309h-510v148z" glyph-name="lessequal" unicode="≤"/>
<glyph d="M545 481v-126l-455 -207h455v-148h-510v303l270 112l-270 112v186z" glyph-name="greaterequal" unicode="≥"/>
<glyph d="M35 250l200 450h150l-200 -450l200 -450h-154z" glyph-name="angleleft" horiz-adv-x="380" unicode="〈"/>
<glyph d="M345 250l-200 -450h-150l200 450l-200 450h154z" glyph-name="angleright" horiz-adv-x="380" unicode="〉"/>
<glyph d="M-249 740h160l-150 -160h-120z" glyph-name="uniF400" horiz-adv-x="0" unicode=""/>
<glyph d="M-915 900h170l-150 -150h-130z" glyph-name="uniF401" horiz-adv-x="0" unicode=""/>
<glyph d="M95 -213q-19 0 -33 1t-23 3q-11 2 -19 5v82q6 -2 14 -3q13 -3 36 -3t31 6.5t8 14.5t-8 15.5t-35 7.5l17 94h88l-7 -45q35 -8 50.5 -31t15.5 -49q0 -45 -31 -71.5t-104 -26.5z" glyph-name="uniF407" horiz-adv-x="250" unicode=""/>
<glyph d="M130 900h160l110 -150h-130l-60 60l-60 -60h-130z" glyph-name="uniF408" horiz-adv-x="420" unicode=""/>
<glyph d="M80 550v150h160v-150l-122 -165h-78z" glyph-name="uniF40A" horiz-adv-x="295" unicode=""/>
<glyph d="M118 740q-51 0 -74.5 25t-23.5 60t23.5 60t74.5 25t74.5 -25t23.5 -60t-23.5 -60t-74.5 -25z" glyph-name="uniF40B" horiz-adv-x="236" unicode=""/>
<glyph d="M155 815q21 0 33 7.5t12 22.5t-12 22.5t-33 7.5t-33 -7.5t-12 -22.5t12 -22.5t33 -7.5zM155 730q-61 0 -98 31.5t-37 83.5t37 83.5t98 31.5t98 -31.5t37 -83.5t-37 -83.5t-98 -31.5z" glyph-name="uniF40C" horiz-adv-x="310" unicode=""/>
<glyph d="M295 740q-28 0 -48 7t-36.5 15.5t-31.5 15.5t-34 7q-14 0 -23 -6t-15 -14q-7 -9 -12 -20l-75 55q10 30 27 55q14 20 38 37.5t60 17.5q28 0 48 -7t36.5 -15.5t31.5 -15.5t34 -7q13 0 22.5 6t15.5 14q7 9 12 20l75 -55q-10 -31 -27 -55q-14 -21 -38.5 -38t-59.5 -17z" glyph-name="uniF40D" horiz-adv-x="440" unicode=""/>
<glyph d="M370 -13q-72 0 -132 19.5t-102.5 62.5t-66.5 111t-24 166v19q0 92 25 158t69 108t103.5 62t127.5 20q61 0 114.5 -14t94 -44t66 -78t30.5 -117h-186q-5 28 -16 47.5t-27 32t-35.5 18t-40.5 5.5q-30 0 -55.5 -10.5t-44 -34t-29 -61.5t-10.5 -92v-21q0 -58 11.5 -97.5 t30.5 -64t44 -35t53 -10.5q51 0 81.5 24.5t37.5 78.5h186q-4 -70 -28.5 -118t-65 -78t-94.5 -43.5t-117 -13.5zM340 -213q-19 0 -33 1t-23 3q-11 2 -19 5v82q6 -2 14 -3q13 -3 36 -3t31 6.5t8 14.5t-8 15.5t-35 7.5l17 94h88l-7 -45q35 -8 50.5 -31t15.5 -49 q0 -45 -31 -71.5t-104 -26.5z" glyph-name="uni04AA.alt02" horiz-adv-x="710" unicode=""/>
<glyph d="M300 -13q-59 0 -108.5 17t-85.5 51t-56 85t-20 120v20q0 63 21.5 112t58 82.5t85.5 51t105 17.5q60 0 105.5 -16t76.5 -43.5t48 -64.5t20 -79h-158q-8 36 -29.5 55.5t-62.5 19.5q-49 0 -80.5 -33.5t-31.5 -101.5v-20q0 -74 30.5 -109t81.5 -35q35 0 59.5 18.5t32.5 55.5 h158q-3 -47 -22 -84.5t-51.5 -63.5t-77 -40.5t-99.5 -14.5zM275 -213q-19 0 -33 1t-23 3q-11 2 -19 5v80q6 -2 14 -3q13 -3 36 -3t32 7.5t9 15.5t-7 16.5t-36 8.5l17 92h84l-7 -45q37 -8 52.5 -31t15.5 -49q0 -45 -31 -71.5t-104 -26.5z" glyph-name="uni04AB.alt02" horiz-adv-x="575" unicode=""/>
<glyph d="M70 700h180v-232h85q146 0 215.5 -63t69.5 -171t-69.5 -171t-215.5 -63h-265v700zM315 148q63 0 91 24t28 62t-28 62t-91 24h-65v-172h65zM670 700h180v-700h-180v700zM460 740q-106 0 -153 43t-47 127h146q0 -41 12.5 -55.5t41.5 -14.5t41.5 14.5t12.5 55.5h146 q0 -84 -47 -127t-153 -43z" glyph-name="uniF536" horiz-adv-x="920" unicode=""/>
<glyph d="M50 530h154v-172h86q104 0 157 -44t53 -135q0 -40 -11.5 -73t-37 -56.5t-65 -36.5t-96.5 -13h-240v530zM270 116q41 0 58.5 15.5t17.5 47.5q0 33 -17.5 48t-58.5 15h-66v-126h66zM546 530h154v-530h-154v530zM375 585q-98 0 -139 37.5t-41 112.5h136q0 -34 11 -47t33 -13 t33 13t11 47h136q0 -75 -41 -112.5t-139 -37.5z" glyph-name="uniF537" horiz-adv-x="750" unicode=""/>
<glyph d="M70 700h495v-138h-315v-162h285v-130h-285v-270h-180v700z" glyph-name="uni0492.alt" horiz-adv-x="595" unicode=""/>
<glyph d="M50 0v530h390v-126h-236v-101h146v-126h-146v-177h-154z" glyph-name="uni0493.alt" horiz-adv-x="460" unicode=""/>
<glyph d="M25 424h330v-148h-330v148z" glyph-name="uniF6BA" horiz-adv-x="380" unicode=""/>
<glyph d="M25 424h480v-148h-480v148z" glyph-name="uniF6BB" horiz-adv-x="530" unicode=""/>
<glyph d="M25 424h680v-148h-680v148z" glyph-name="uniF6BC" horiz-adv-x="730" unicode=""/>
<glyph d="M130 900h170l-150 -150h-130z" glyph-name="uniF6C9" horiz-adv-x="320" unicode=""/>
<glyph d="M20 900h130l60 -60l60 60h130l-110 -150h-160z" glyph-name="uniF6CA" horiz-adv-x="420" unicode=""/>
<glyph d="M360 740q-43 0 -66.5 25t-23.5 60t23.5 60t66.5 25t66.5 -25t23.5 -60t-23.5 -60t-66.5 -25zM110 740q-43 0 -66.5 25t-23.5 60t23.5 60t66.5 25t66.5 -25t23.5 -60t-23.5 -60t-66.5 -25z" glyph-name="uniF6CB" horiz-adv-x="470" unicode=""/>
<glyph d="M20 900h170l110 -150h-130z" glyph-name="uniF6CE" horiz-adv-x="320" unicode=""/>
<glyph d="M335 900h141l-161 -150h-111zM134 900h136l-131 -150h-111z" glyph-name="uniF6CF" horiz-adv-x="500" unicode=""/>
<glyph d="M20 884h330v-118h-330v118z" glyph-name="uniF6D0" horiz-adv-x="370" unicode=""/>
<glyph d="M220 740q-106 0 -153 43t-47 127h146q0 -41 12.5 -55.5t41.5 -14.5t41.5 14.5t12.5 55.5h146q0 -84 -47 -127t-153 -43z" glyph-name="uniF6D1" horiz-adv-x="440" unicode=""/>
<glyph d="M200 585q-98 0 -139 37.5t-41 112.5h136q0 -34 11 -47t33 -13t33 13t11 47h136q0 -75 -41 -112.5t-139 -37.5z" glyph-name="uniF6D4" horiz-adv-x="400" unicode=""/>
<glyph d="M325 135q51 0 80.5 31.5t29.5 93.5v20q0 53 -30.5 84t-79.5 31q-51 0 -80.5 -30.5t-29.5 -84.5v-20q0 -60 30.5 -92.5t79.5 -32.5zM325 -13q-141 0 -215.5 70.5t-74.5 202.5v20q0 60 19.5 109t57 83t91 52.5t122.5 18.5q141 0 215.5 -69t74.5 -194v-20q0 -129 -76 -201 t-214 -72z" glyph-name="uniF730" horiz-adv-x="650" unicode=""/>
<glyph d="M185 349l-155 -110v180l156 111h179v-530h-180v349z" glyph-name="uniF731" horiz-adv-x="435" unicode=""/>
<glyph d="M40 118l232 149q24 16 39.5 27.5t24 21t11.5 17.5t3 17q0 43 -60 43q-33 0 -51.5 -17.5t-18.5 -55.5h-180q0 51 16 92t48.5 70t80 45t110.5 16q59 0 103 -13t73.5 -36t44 -55t14.5 -69q0 -32 -7 -57.5t-24 -49t-47.5 -47.5t-76.5 -53l-24 -15h179v-148h-490v118z" glyph-name="uniF732" unicode=""/>
<glyph d="M290 -213q-130 0 -195 67t-65 191h180q0 -59 21.5 -83.5t63.5 -24.5q35 0 55 24.5t20 61.5q0 39 -20.5 62.5t-59.5 23.5h-49v132h49q32 0 51 18.5t19 60.5q0 38 -18 55.5t-47 17.5q-34 0 -54.5 -22t-20.5 -76h-180q0 119 62.5 183.5t187.5 64.5q63 0 110 -15t78 -42 t46.5 -64t15.5 -80q0 -57 -27 -101t-81 -61q63 -17 90.5 -61.5t27.5 -111.5q0 -47 -16.5 -87.5t-49 -70t-81 -46t-113.5 -16.5z" glyph-name="uniF733" horiz-adv-x="600" unicode=""/>
<glyph d="M314 148v183l-133 -183h133zM314 0h-294v123l306 407h168v-382h76v-148h-76v-200h-180v200z" glyph-name="uniF734" horiz-adv-x="590" unicode=""/>
<glyph d="M295 -213q-68 0 -116 17t-78.5 47t-45 72t-15.5 92h174q2 -40 22.5 -64.5t58.5 -24.5q23 0 39 9t25.5 25.5t14 39t4.5 49.5q0 57 -22.5 84.5t-60.5 27.5q-53 0 -82 -41h-158v410h471v-147h-298v-108q20 15 46.5 23t63.5 8q105 0 163.5 -62.5t58.5 -192.5 q0 -127 -70.5 -195.5t-194.5 -68.5z" glyph-name="uniF735" horiz-adv-x="590" unicode=""/>
<glyph d="M310 127q40 0 62.5 25.5t22.5 70.5v10q0 44 -22.5 69.5t-62.5 25.5t-62.5 -25.5t-22.5 -69.5v-10q0 -45 22.5 -70.5t62.5 -25.5zM320 -13q-66 0 -117 19t-86 60t-53.5 105t-18.5 154v20q0 99 21 168.5t59 114t90.5 65t114.5 20.5q48 0 88 -10t70 -32.5t48.5 -58.5 t23.5 -87h-170q-7 23 -24.5 35.5t-40.5 12.5q-26 0 -45.5 -8t-33 -28.5t-21 -55t-8.5 -86.5q26 29 64.5 46t84.5 17q105 0 157 -59.5t52 -158.5v-11q0 -55 -19 -99.5t-52.5 -76t-80.5 -49t-103 -17.5z" glyph-name="uniF736" horiz-adv-x="615" unicode=""/>
<glyph d="M318 383h-298v147h480v-127l-230 -603h-190z" glyph-name="uniF737" horiz-adv-x="525" unicode=""/>
<glyph d="M310 419q34 7 57 26t23 57q0 36 -21 54.5t-59 18.5t-59 -18t-21 -55q0 -38 23.5 -56.5t56.5 -26.5zM310 125q51 0 75.5 21.5t24.5 59.5q0 41 -29 64t-71 31q-42 -8 -71 -31t-29 -64q0 -38 26 -59.5t74 -21.5zM310 -13q-60 0 -110 14.5t-85.5 41.5t-55 65.5t-19.5 86.5 q0 58 33.5 104t95.5 64q-22 9 -42 23.5t-35 34.5t-23.5 44.5t-8.5 53.5q0 43 17.5 79t49.5 61.5t78.5 39.5t104.5 14t104.5 -14t78.5 -39.5t49.5 -61.5t17.5 -79q0 -57 -32 -97t-77 -59q62 -20 95.5 -63t33.5 -105q0 -48 -19.5 -86.5t-55 -65.5t-85.5 -41.5t-110 -14.5z" glyph-name="uniF738" horiz-adv-x="620" unicode=""/>
<glyph d="M305 182q85 0 85 106v9q0 51 -21.5 78.5t-63.5 27.5q-44 0 -64.5 -27t-20.5 -78v-10q0 -106 85 -106zM290 -213q-107 0 -165.5 43.5t-69.5 144.5h170q7 -23 21 -35.5t49 -12.5q24 0 42.5 7t31.5 27t20 57t9 97q-24 -35 -62 -49t-86 -14q-106 0 -158 60.5t-52 168.5v10 q0 58 17.5 105t50.5 79.5t80 50t107 17.5q69 0 121 -19t86 -61.5t51 -110.5t17 -167v-20q0 -99 -19.5 -170t-56 -117.5t-88.5 -68.5t-116 -22z" glyph-name="uniF739" horiz-adv-x="615" unicode=""/>
<glyph glyph-name="uniFEFF" horiz-adv-x="0" unicode="﻿"/>
</font>
</defs>
</svg>
