<?xml version="1.0" encoding="UTF-8"?>
<!DOCTYPE svg  PUBLIC '-//W3C//DTD SVG 1.1//EN'  'http://www.w3.org/Graphics/SVG/1.1/DTD/svg11.dtd'>
<svg version="1.1" xmlns="http://www.w3.org/2000/svg">
<defs>
<font id="GolosText-DemiBold" horiz-adv-x="570">
<font-face font-family="Golos_Text_DemiBold" font-weight="600" ascent="774" bbox="-999 -227 1200 960" cap-height="700" descent="-226" panose-1="2 11 7 3 2 2 2 2 2 4" underline-position="-100" underline-thickness="50" unicode-range="U+000D-FEFF" units-per-em="1000" x-height="530"/>
<missing-glyph d="M50 512h400v-512h-400v512zM442 8v496h-384v-496h384z" horiz-adv-x="500"/>
<glyph d="M50 512h400v-512h-400v512zM442 8v496h-384v-496h384z" glyph-name=".notdef" horiz-adv-x="500"/>
<glyph glyph-name="uni0000" horiz-adv-x="0"/>
<glyph glyph-name="uni0000" horiz-adv-x="0"/>
<glyph glyph-name="uni000D" horiz-adv-x="250" unicode="
"/>
<glyph glyph-name="space" horiz-adv-x="250" unicode=" "/>
<glyph d="M155 -12q-35 0 -60 25t-25 60q0 37 25 61t60 24t60 -24t25 -61q0 -35 -25 -60t-60 -25zM91 700h132v-470h-132v470z" glyph-name="exclam" horiz-adv-x="310" unicode="!"/>
<glyph d="M55 700h120v-240h-120v240zM255 700h120v-240h-120v240z" glyph-name="quotedbl" horiz-adv-x="430" unicode='"'/>
<glyph d="M392 284l25 132h-130l-25 -132h130zM124 186h-79v98h97l25 132h-83v98h101l35 186h120l-35 -186h130l35 186h120l-35 -186h80v-98h-98l-25 -132h84v-98h-102l-34 -186h-120l34 186h-130l-34 -186h-120z" glyph-name="numbersign" horiz-adv-x="680" unicode="#"/>
<glyph d="M270 -8q-110 12 -165.5 66t-59.5 137h150q4 -20 12 -35t24 -25t40 -15.5t59 -5.5q72 0 103.5 19.5t31.5 55.5q0 44 -41.5 66.5t-132.5 40.5q-54 10 -96 26.5t-71 42t-44 61.5t-15 86q0 79 54.5 130.5t150.5 65.5v92h120v-92q100 -12 149 -63.5t56 -129.5h-150 q-7 36 -32 53.5t-83 17.5q-59 0 -87 -19t-28 -51q0 -38 38.5 -60.5t121.5 -38.5q57 -11 101.5 -27t75 -41t47 -61.5t16.5 -87.5q0 -86 -58.5 -141t-166.5 -67v-112h-120v112z" glyph-name="dollar" horiz-adv-x="660" unicode="$"/>
<glyph d="M590 700h140l-480 -700h-140zM190 368q-39 0 -70 12t-53.5 34t-34.5 52.5t-12 68.5v10q0 37 12 68t34.5 53t53.5 34t70 12t70 -12t53.5 -34t34.5 -53t12 -68v-10q0 -38 -12 -68.5t-34.5 -52.5t-53.5 -34t-70 -12zM190 472q20 0 32 14.5t12 48.5v10q0 34 -12 48.5 t-32 14.5t-32 -14.5t-12 -48.5v-10q0 -34 12 -48.5t32 -14.5zM650 -11q-39 0 -70 12t-53.5 34t-34.5 52.5t-12 68.5v10q0 37 12 68t34.5 53t53.5 34t70 12t70 -12t53.5 -34t34.5 -53t12 -68v-10q0 -38 -12 -68.5t-34.5 -52.5t-53.5 -34t-70 -12zM650 93q20 0 32 14.5 t12 48.5v10q0 34 -12 48.5t-32 14.5t-32 -14.5t-12 -48.5v-10q0 -34 12 -48.5t32 -14.5z" glyph-name="percent" horiz-adv-x="840" unicode="%"/>
<glyph d="M234 560q0 -20 9 -40.5t29 -46.5q20 16 32.5 28.5t19.5 22t9.5 18.5t2.5 18q0 20 -14 32.5t-37 12.5t-37 -13t-14 -32zM295 100q33 0 61.5 9.5t51.5 26.5l-156 172q-41 -35 -54.5 -61t-13.5 -57q0 -39 29.5 -64.5t81.5 -25.5zM295 -12q-62 0 -108 15.5t-76.5 42.5 t-45.5 64t-15 80q0 27 5 51t18.5 48t37.5 50t61 57q-31 35 -49 72t-18 92q0 27 10.5 54t32 49t55.5 35.5t82 13.5q51 0 85.5 -15t55.5 -37.5t30 -49.5t9 -50q0 -20 -5 -39t-18 -39.5t-36 -44t-58 -52.5l129 -145q14 47 14 100h134q0 -63 -13.5 -114.5t-38.5 -93.5l117 -132 h-158l-41 44q-80 -56 -196 -56z" glyph-name="ampersand" horiz-adv-x="700" unicode="&amp;"/>
<glyph d="M55 700h120v-240h-120v240z" glyph-name="quotesingle" horiz-adv-x="230" unicode="'"/>
<glyph d="M70 260q0 106 25 187t55 138q35 66 80 115h140q-48 -49 -86 -115q-16 -28 -31.5 -62.5t-27.5 -75.5t-19.5 -88t-7.5 -99v-20q0 -53 7.5 -99.5t19.5 -87.5t27.5 -75.5t31.5 -62.5q38 -66 86 -115h-143q-45 49 -79 115q-15 28 -29 62.5t-25 75.5t-17.5 87.5t-6.5 99.5v20z " glyph-name="parenleft" horiz-adv-x="380" unicode="("/>
<glyph d="M310.009 240.031q0 -105.986 -24.9971 -186.977t-54.9932 -137.983q-34.9961 -65.9922 -79.9902 -114.985h-139.983q47.9941 48.9932 85.9902 114.985q15.998 27.9971 31.4961 62.4922q15.498 34.4961 27.4961 75.4912q11.999 40.9951 19.498 87.9893t7.49902 98.9873 v19.998q0 52.9932 -7.49902 99.4883q-7.49902 46.4941 -19.498 87.4893q-11.998 40.9951 -27.4961 75.4902q-15.498 34.4961 -31.4961 62.4922q-37.9961 65.9922 -85.9902 114.986h142.982q44.9951 -48.9941 78.9902 -114.986q14.999 -27.9961 28.9971 -62.4922 q13.998 -34.4951 24.9971 -75.4902q10.998 -40.9951 17.498 -87.4893q6.49902 -46.4951 6.49902 -99.4883v-19.998z" glyph-name="parenright" horiz-adv-x="380" unicode=")"/>
<glyph d="M188 461l-92 -68l-51 89l107 43l-107 43l51 89l92 -68l-10 111h94l-10 -111l93 68l50 -89l-107 -43l107 -43l-51 -89l-92 68l10 -111h-94z" glyph-name="asterisk" horiz-adv-x="450" unicode="*"/>
<glyph d="M219 298h-179v124h179v183h132v-183h179v-124h-179v-183h-132v183z" glyph-name="plus" unicode="+"/>
<glyph d="M85 0v130h140v-130l-112 -160h-68z" glyph-name="comma" horiz-adv-x="310" unicode=","/>
<glyph d="M30 342h320v-124h-320v124z" glyph-name="hyphen" horiz-adv-x="380" unicode="-"/>
<glyph d="M155 -12q-35 0 -60 25t-25 60q0 37 25 61t60 24t60 -24t25 -61q0 -35 -25 -60t-60 -25z" glyph-name="period" horiz-adv-x="310" unicode="."/>
<glyph d="M340 700h120l-320 -900h-120z" glyph-name="slash" horiz-adv-x="480" unicode="/"/>
<glyph d="M320 114q25 0 47 10t38.5 36.5t25.5 72.5t9 117v20q0 64 -9 105.5t-25.5 66t-38.5 34.5t-47 10q-26 0 -47.5 -10t-38 -34.5t-25.5 -66t-9 -105.5v-20q0 -71 9 -117t25.5 -72.5t38 -36.5t47.5 -10zM320 -12q-57 0 -106.5 18.5t-85.5 61t-57 112t-21 170.5v20q0 94 21 159 t57 105.5t85.5 59t106.5 18.5t106.5 -18.5t85.5 -59t57 -105.5t21 -159v-20q0 -101 -21 -170.5t-57 -112t-85.5 -61t-106.5 -18.5z" glyph-name="zero" horiz-adv-x="640" unicode="0"/>
<glyph d="M45 124h160v424l-160 -114v146l169 120h141v-576h130v-124h-440v124z" glyph-name="one" horiz-adv-x="505" unicode="1"/>
<glyph d="M30 109l245 211q34 30 58 52.5t39 41.5t21.5 37t6.5 39q0 43 -24 69.5t-71 26.5q-54 0 -84.5 -29.5t-30.5 -101.5h-150q0 119 67.5 188t197.5 69q61 0 106.5 -16.5t76.5 -46t46.5 -70.5t15.5 -89q0 -36 -13 -68.5t-35.5 -62.5t-52.5 -58.5t-64 -56.5l-144 -120h319v-124 h-530v109z" glyph-name="two" horiz-adv-x="600" unicode="2"/>
<glyph d="M295 -12q-128 0 -194 60.5t-66 166.5h150q0 -51 26.5 -76t83.5 -25q55 0 82.5 24.5t27.5 69.5q0 94 -110 94h-65v116h65q48 0 74 20t26 62q0 38 -25 62t-75 24q-51 0 -75.5 -23.5t-24.5 -67.5h-150q0 103 62.5 160t187.5 57q63 0 110 -14.5t78 -40t46.5 -60.5t15.5 -76 q0 -58 -32.5 -98.5t-86.5 -57.5q62 -17 95.5 -59t33.5 -111q0 -45 -18 -83t-51.5 -65.5t-82 -43t-108.5 -15.5z" glyph-name="three" horiz-adv-x="605" unicode="3"/>
<glyph d="M350 272v261l-190 -261h190zM350 148h-330v104l330 448h150v-428h80v-124h-80v-148h-150v148z" glyph-name="four" horiz-adv-x="628" unicode="4"/>
<glyph d="M300 -12q-67 0 -113.5 17t-76.5 45.5t-44.5 66t-15.5 78.5h150q3 -36 27.5 -58.5t72.5 -22.5q110 0 110 124q0 33 -9 56t-24 37t-35 20.5t-42 6.5q-35 0 -58 -13t-37 -35h-140v390h456v-124h-306v-128q21 19 51.5 27.5t68.5 8.5q51 0 92.5 -15.5t71 -46.5t45.5 -77 t16 -106q0 -57 -18.5 -103.5t-52.5 -79.5t-82 -50.5t-107 -17.5z" glyph-name="five" horiz-adv-x="600" unicode="5"/>
<glyph d="M315 114q54 0 84.5 30.5t30.5 78.5v10q0 48 -30.5 78t-84.5 30t-84.5 -30t-30.5 -78v-10q0 -48 30.5 -78.5t84.5 -30.5zM325 -12q-66 0 -117 19t-86 59.5t-53.5 103.5t-18.5 150v20q0 100 21 170.5t59 115.5t90.5 65.5t114.5 20.5q97 0 157 -41t73 -136h-140 q-20 51 -95 51q-29 0 -53.5 -8.5t-43 -31t-29.5 -61.5t-14 -100q13 20 32 33.5t41.5 22t47 12.5t49.5 4q106 0 163 -57.5t57 -162.5v-11q0 -53 -19 -97t-52.5 -75.5t-80.5 -48.5t-103 -17z" glyph-name="six" horiz-adv-x="625" unicode="6"/>
<glyph d="M356 576h-336v124h490v-109l-230 -591h-160z" glyph-name="seven" horiz-adv-x="540" unicode="7"/>
<glyph d="M315 411q45 8 73 31.5t28 65.5q0 39 -26.5 58.5t-74.5 19.5q-47 0 -73.5 -19.5t-26.5 -58.5q0 -42 27.5 -65.5t72.5 -31.5zM315 114q62 0 91 24t29 65q0 45 -33.5 71.5t-86.5 34.5q-53 -8 -86.5 -34.5t-33.5 -71.5q0 -41 30 -65t90 -24zM315 -12q-63 0 -113.5 14.5 t-85 41t-53 64t-18.5 83.5q0 59 36 105.5t107 65.5q-53 17 -88 59t-35 100q0 42 16.5 77t48.5 60.5t78.5 39.5t106.5 14t106.5 -14t79 -39.5t49 -60.5t16.5 -77q0 -58 -35 -98.5t-89 -60.5q143 -44 143 -171q0 -46 -18.5 -83.5t-53 -64t-84.5 -41t-114 -14.5z" glyph-name="eight" horiz-adv-x="630" unicode="8"/>
<glyph d="M310 359q54 0 84.5 30t30.5 78v10q0 47 -31.5 78t-83.5 31q-54 0 -84.5 -30.5t-30.5 -78.5v-10q0 -48 30.5 -78t84.5 -30zM295 -12q-100 0 -161 43t-74 134h140q10 -26 32.5 -38.5t67.5 -12.5q27 0 50.5 8.5t41.5 31t29 61.5t14 100q-13 -20 -32 -33.5t-41.5 -22 t-47 -12.5t-49.5 -4q-106 0 -163 57.5t-57 162.5v11q0 53 19 97t52.5 75.5t80.5 48.5t103 17q133 0 204 -78t71 -254v-19q0 -101 -21 -171.5t-58.5 -115.5t-89 -65.5t-111.5 -20.5z" glyph-name="nine" horiz-adv-x="625" unicode="9"/>
<glyph d="M155 -12q-35 0 -60 25t-25 60q0 37 25 61t60 24t60 -24t25 -61q0 -35 -25 -60t-60 -25zM155 372q-35 0 -60 25t-25 60q0 37 25 61t60 24t60 -24t25 -61q0 -35 -25 -60t-60 -25z" glyph-name="colon" horiz-adv-x="310" unicode=":"/>
<glyph d="M85 0v130h140v-130l-112 -160h-68zM155 372q-35 0 -60 25t-25 60q0 37 25 61t60 24t60 -24t25 -61q0 -35 -25 -60t-60 -25z" glyph-name="semicolon" horiz-adv-x="310" unicode=";"/>
<glyph d="M40 305v110l490 215v-143l-315 -125l315 -125v-147z" glyph-name="less" unicode="&lt;"/>
<glyph d="M40 542h490v-124h-490v124zM40 302h490v-124h-490v124z" glyph-name="equal" unicode="="/>
<glyph d="M530 415v-110l-490 -215v143l315 125l-315 125v147z" glyph-name="greater" unicode="&gt;"/>
<glyph d="M265 -12q-35 0 -60 25t-25 60q0 37 25 61t60 24t60 -24t25 -61q0 -35 -25 -60t-60 -25zM199 270q0 38 20 68.5t65 68.5q36 31 56.5 54t20.5 54q0 38 -24.5 61.5t-71.5 23.5q-43 0 -69.5 -23.5t-26.5 -66.5h-134q0 41 17.5 77.5t48 64.5t72.5 44t92 16q54 0 96.5 -14.5 t72.5 -40.5t45.5 -61t15.5 -76q0 -27 -5 -49t-16.5 -42t-30.5 -40.5t-46 -44.5q-23 -20 -36 -33.5t-19.5 -24t-8.5 -19t-2 -17.5v-20h-132v40z" glyph-name="question" horiz-adv-x="530" unicode="?"/>
<glyph d="M478 116q43 0 68.5 28t25.5 78v62q0 51 -25 78t-70 27q-41 0 -64 -28.5t-23 -94.5v-28q0 -65 23.5 -93.5t64.5 -28.5zM510 -212q-102 0 -187 32t-145.5 92.5t-94 147.5t-33.5 196q0 105 34 189t94 143.5t141.5 91.5t175.5 32q102 0 184.5 -29t140 -83t89 -132t31.5 -177 q0 -72 -16.5 -125t-45.5 -87.5t-68.5 -51.5t-85.5 -17q-45 0 -79 18t-48 72q-20 -43 -53.5 -67t-88.5 -24q-84 0 -134.5 57t-50.5 171v33q0 115 48.5 170t129.5 55q56 0 85.5 -21.5t42.5 -49.5v62h107v-281q0 -51 11.5 -70t41.5 -19q22 0 40 8.5t31 29t20 54t7 83.5 q0 85 -26.5 146.5t-72 101.5t-107.5 59t-133 19q-72 0 -134 -23.5t-107.5 -69.5t-71 -113t-25.5 -155q0 -90 25.5 -160t72 -117t111.5 -71.5t144 -24.5q78 0 133 16.5t92 39.5v-104q-39 -20 -92.5 -33.5t-132.5 -13.5z" glyph-name="at" horiz-adv-x="990" unicode="@"/>
<glyph d="M255 267h168l-84 243zM468 143h-259l-53 -143h-146l260 700h150l260 -700h-158z" glyph-name="A" horiz-adv-x="690" unicode="A"/>
<glyph d="M350 411q61 0 85.5 24t24.5 65q0 42 -24 64t-85 22h-121v-175h120zM366 114q70 0 97 24t27 71t-27 73.5t-98 26.5h-135v-195h136zM80 700h300q118 0 174 -49.5t56 -137.5q0 -54 -26.5 -92.5t-72.5 -55.5q60 -14 94.5 -56.5t34.5 -110.5q0 -45 -14 -81.5t-43.5 -62.5 t-76.5 -40t-113 -14h-313v700z" glyph-name="B" horiz-adv-x="680" unicode="B"/>
<glyph d="M365 -12q-69 0 -126.5 20t-99.5 62.5t-65.5 110.5t-23.5 164v20q0 92 24.5 157.5t67 107.5t100 62t123.5 20q59 0 111 -14t91.5 -43.5t64 -75.5t28.5 -109h-156q-11 60 -48 88t-91 28q-31 0 -59.5 -11t-50.5 -37t-35.5 -68t-13.5 -105v-20q0 -66 14 -110.5t36.5 -71 t51 -38t57.5 -11.5q57 0 94 29.5t45 86.5h156q-5 -66 -29 -112t-63 -75t-91 -42t-112 -13z" glyph-name="C" horiz-adv-x="700" unicode="C"/>
<glyph d="M305 124q40 0 76 11.5t63.5 37.5t43.5 68t16 104v20q0 58 -15 98.5t-40.5 65.5t-60 36t-73.5 11h-85v-452h75zM80 700h245q79 0 141 -21.5t105 -63.5t66 -105t23 -145v-20q0 -84 -23.5 -148.5t-68 -108t-108.5 -66t-145 -22.5h-235v700z" glyph-name="D" horiz-adv-x="710" unicode="D"/>
<glyph d="M80 700h490v-124h-339v-156h309v-120h-309v-176h339v-124h-490v700z" glyph-name="E" horiz-adv-x="620" unicode="E"/>
<glyph d="M80 700h480v-124h-330v-176h300v-120h-300v-280h-150v700z" glyph-name="F" horiz-adv-x="595" unicode="F"/>
<glyph d="M375 -12q-70 0 -129.5 20t-103 63t-68 111t-24.5 163v20q0 91 26 156.5t70 108t102 62.5t122 20q120 0 197.5 -57.5t97.5 -174.5h-156q-11 32 -26 52.5t-33.5 32t-39 16t-40.5 4.5q-33 0 -63 -11.5t-52.5 -37.5t-35.5 -68t-13 -103v-20q0 -65 14.5 -109t38 -71t54 -38.5 t62.5 -11.5t60.5 8.5t50 26t35 45t16.5 66.5h-142v104h285v-40q0 -87 -22 -150.5t-61.5 -105t-96 -61.5t-125.5 -20z" glyph-name="G" horiz-adv-x="725" unicode="G"/>
<glyph d="M80 700h150v-278h300v278h150v-700h-150v298h-300v-298h-150v700z" glyph-name="H" horiz-adv-x="760" unicode="H"/>
<glyph d="M90 700h150v-700h-150v700z" glyph-name="I" horiz-adv-x="330" unicode="I"/>
<glyph d="M255 -12q-112 0 -169.5 60t-60.5 172h142q4 -105 88 -105q47 0 68.5 30t21.5 105v450h150v-450q0 -71 -16.5 -120.5t-47.5 -81t-75.5 -46t-100.5 -14.5z" glyph-name="J" horiz-adv-x="575" unicode="J"/>
<glyph d="M80 700h150v-295l256 295h174l-261 -287l281 -413h-176l-206 314l-68 -74v-240h-150v700z" glyph-name="K" horiz-adv-x="700" unicode="K"/>
<glyph d="M80 700h150v-576h320v-124h-470v700z" glyph-name="L" unicode="L"/>
<glyph d="M80 700h150l213 -394l212 394h145v-700h-150v445l-165 -305h-90l-165 305v-445h-150v700z" glyph-name="M" horiz-adv-x="880" unicode="M"/>
<glyph d="M80 700h142l308 -450v450h150v-700h-142l-308 450v-450h-150v700z" glyph-name="N" horiz-adv-x="760" unicode="N"/>
<glyph d="M380 114q34 0 65.5 11.5t55.5 38.5t38.5 71t14.5 110v20q0 62 -14.5 104t-38.5 68t-55.5 37.5t-65.5 11.5t-65.5 -11.5t-55.5 -37.5t-38.5 -68t-14.5 -104v-20q0 -66 14.5 -110t38.5 -71t55.5 -38.5t65.5 -11.5zM380 -12q-66 0 -125.5 20t-105 63t-72.5 110.5t-27 163.5 v20q0 92 27 157.5t72.5 107.5t105 62t125.5 20t125.5 -20t105 -62t72.5 -107.5t27 -157.5v-20q0 -96 -27 -163.5t-72.5 -110.5t-105 -63t-125.5 -20z" glyph-name="O" horiz-adv-x="760" unicode="O"/>
<glyph d="M335 364q80 0 112.5 27t32.5 79q0 51 -32.5 78.5t-112.5 27.5h-105v-212h105zM80 700h270q142 0 211 -62.5t69 -167.5t-69 -167.5t-211 -62.5h-120v-240h-150v700z" glyph-name="P" horiz-adv-x="665" unicode="P"/>
<glyph d="M380 114q44 0 81 19l-101 102l75 75l96 -97q11 26 17 58t6 74v20q0 62 -14.5 104t-38.5 68t-55.5 37.5t-65.5 11.5t-65.5 -11.5t-55.5 -37.5t-38.5 -68t-14.5 -104v-20q0 -66 14.5 -110t38.5 -71t55.5 -38.5t65.5 -11.5zM380 -12q-66 0 -125.5 20t-105 63t-72.5 110.5 t-27 163.5v20q0 92 27 157.5t72.5 107.5t105 62t125.5 20t125.5 -20t105 -62t72.5 -107.5t27 -157.5v-20q0 -79 -19 -138.5t-51 -102.5l60 -59l-75 -75l-64 63q-40 -23 -86 -34t-95 -11z" glyph-name="Q" horiz-adv-x="760" unicode="Q"/>
<glyph d="M335 374q42 0 69.5 6.5t44.5 19t24 31.5t7 44t-7 44t-24 31.5t-44.5 19t-69.5 6.5h-105v-202h105zM80 700h285q66 0 115.5 -16t82.5 -45.5t50 -71t17 -92.5q0 -73 -37.5 -126.5t-112.5 -76.5l170 -272h-174l-147 256h-99v-256h-150v700z" glyph-name="R" horiz-adv-x="690" unicode="R"/>
<glyph d="M330 -12q-139 0 -210 57t-75 150h150q4 -20 12 -35t24 -25t40 -15.5t59 -5.5q72 0 103.5 19.5t31.5 55.5q0 44 -41.5 66.5t-132.5 40.5q-54 10 -96 26.5t-71 42t-44 61.5t-15 86q0 45 18.5 82t53 63.5t83.5 40.5t110 14q66 0 114 -14t80.5 -40t49.5 -62t21 -81h-150 q-7 36 -32 53.5t-83 17.5q-59 0 -87 -19t-28 -51q0 -38 38.5 -60.5t121.5 -38.5q57 -11 101.5 -27t75 -41t47 -61.5t16.5 -87.5q0 -97 -74.5 -154.5t-210.5 -57.5z" glyph-name="S" horiz-adv-x="660" unicode="S"/>
<glyph d="M245 576h-225v124h600v-124h-225v-576h-150v576z" glyph-name="T" horiz-adv-x="640" unicode="T"/>
<glyph d="M365 -12q-68 0 -122.5 18t-92.5 54.5t-59 91.5t-21 128v420h150v-406q0 -90 35 -135t110 -45t110 45t35 134v407h150v-420q0 -73 -20.5 -128t-59 -91.5t-93 -54.5t-122.5 -18z" glyph-name="U" horiz-adv-x="730" unicode="U"/>
<glyph d="M10 700h162l184 -520l174 520h150l-255 -700h-150z" glyph-name="V" horiz-adv-x="690" unicode="V"/>
<glyph d="M20 700h156l109 -494l135 494h140l138 -496l118 496h144l-180 -700h-150l-145 500l-135 -500h-150z" glyph-name="W" horiz-adv-x="980" unicode="W"/>
<glyph d="M255 365l-225 335h168l154 -229l155 229h163l-223 -332l233 -368h-169l-162 262l-163 -262h-166z" glyph-name="X" horiz-adv-x="700" unicode="X"/>
<glyph d="M275 267l-265 433h176l167 -281l157 281h160l-245 -433v-267h-150v267z" glyph-name="Y" horiz-adv-x="680" unicode="Y"/>
<glyph d="M35 109l360 467h-350v124h530v-109l-360 -467h370v-124h-550v109z" glyph-name="Z" horiz-adv-x="620" unicode="Z"/>
<glyph d="M110 700h220v-98h-100v-704h100v-98h-220v900z" glyph-name="bracketleft" horiz-adv-x="380" unicode="["/>
<glyph d="M20 700h120l320 -900h-120z" glyph-name="backslash" horiz-adv-x="480" unicode="\"/>
<glyph d="M270.014 -199.914h-219.974v97.9873h99.9883v703.914h-99.9883v97.9883h219.974v-899.89z" glyph-name="bracketright" horiz-adv-x="380" unicode="]"/>
<glyph d="M219 700h132l184 -260h-150l-106 155l-106 -155h-138z" glyph-name="asciicircum" unicode="^"/>
<glyph d="M0 -51h500v-98h-500v98z" glyph-name="underscore" horiz-adv-x="500" unicode="_"/>
<glyph d="M20 740h150l110 -160h-110z" glyph-name="grave" horiz-adv-x="300" unicode="`"/>
<glyph d="M260 90q24 0 47 6.5t41 20t29 34.5t11 49v25h-133q-38 0 -59.5 -17.5t-21.5 -47.5q0 -32 22 -51t64 -19zM219 -12q-43 0 -76 12.5t-56 35t-35 53t-12 66.5q0 160 190 160h158v25q0 52 -23.5 73t-74.5 21q-45 0 -65 -15.5t-23 -38.5h-132q2 34 17.5 64t44 51.5t69.5 34 t94 12.5q51 0 92.5 -11t71 -35.5t45.5 -63.5t16 -94v-203q0 -42 1.5 -73.5t5.5 -61.5h-123q-4 22 -4.5 33.5t-0.5 34.5q-22 -32 -66.5 -56t-113.5 -24z" glyph-name="a" horiz-adv-x="575" unicode="a"/>
<glyph d="M324 100q52 0 87 39.5t35 120.5v20q0 75 -34 112.5t-88 37.5q-57 0 -94.5 -32.5t-37.5 -97.5v-60q0 -71 36.5 -105.5t95.5 -34.5zM355 -12q-66 0 -109 27t-63 63v-78h-123v700h132v-243q26 38 67.5 61.5t95.5 23.5q106 0 165.5 -65.5t59.5 -196.5v-20 q0 -137 -60.5 -204.5t-164.5 -67.5z" glyph-name="b" horiz-adv-x="615" unicode="b"/>
<glyph d="M295 -12q-55 0 -102.5 17t-82.5 51t-55 85t-20 119v20q0 64 21 113t56.5 82t82.5 50t100 17q56 0 99.5 -15t73.5 -41t47 -61t20 -75h-134q-8 37 -32.5 58.5t-73.5 21.5q-26 0 -48.5 -9t-40 -27.5t-27.5 -46.5t-10 -67v-20q0 -42 9.5 -72.5t26.5 -50t40 -28.5t50 -9 q39 0 67.5 20.5t38.5 59.5h134q-5 -44 -24.5 -79.5t-51 -60.5t-73.5 -38.5t-91 -13.5z" glyph-name="c" horiz-adv-x="565" unicode="c"/>
<glyph d="M291 100q59 0 95.5 34.5t36.5 105.5v60q0 65 -37.5 97.5t-94.5 32.5q-54 0 -88 -37.5t-34 -112.5v-20q0 -81 35 -120.5t87 -39.5zM260 -12q-104 0 -164.5 67.5t-60.5 204.5v20q0 128 61 195t164 67q54 0 95.5 -23.5t67.5 -61.5v243h132v-700h-123v78q-20 -36 -63 -63 t-109 -27z" glyph-name="d" horiz-adv-x="615" unicode="d"/>
<glyph d="M295 434q-23 0 -45.5 -6t-39.5 -19t-28 -35t-12 -53h247q-1 33 -10.5 55t-26 35t-38.5 18t-47 5zM300 -12q-54 0 -102.5 16.5t-84.5 50t-57 85t-21 120.5v20q0 66 20 115t55 81.5t81 49t99 16.5q125 0 190 -66t65 -191v-56h-375q1 -35 12 -60.5t29 -41.5t41.5 -23.5 t47.5 -7.5q51 0 77 15t37 44h121q-16 -83 -79 -125t-156 -42z" glyph-name="e" horiz-adv-x="580" unicode="e"/>
<glyph d="M90 420h-65v110h65v20q0 76 42.5 116t147.5 40q15 0 37.5 -0.5t37.5 -2.5v-112q-15 2 -32.5 2.5t-32.5 0.5q-38 0 -53 -13t-15 -41v-10h123v-110h-123v-420h-132v420z" glyph-name="f" horiz-adv-x="365" unicode="f"/>
<glyph d="M291 110q59 0 95.5 34t36.5 101v60q0 61 -37.5 93t-94.5 32q-54 0 -88 -37t-34 -108v-20q0 -77 35 -116t87 -39zM290 -212q-63 0 -106.5 11.5t-71 33t-41 51.5t-16.5 66h134q3 -11 9 -21t18 -18.5t30 -13.5t44 -5q133 0 133 128v63q-26 -38 -67.5 -61.5t-95.5 -23.5 q-104 0 -164.5 67t-60.5 200v20q0 124 61 190.5t164 66.5q66 0 109 -27t63 -63v78h123v-500q0 -118 -65.5 -180t-199.5 -62z" glyph-name="g" horiz-adv-x="615" unicode="g"/>
<glyph d="M60 700h132v-243q9 15 23 30t34.5 27.5t47 20t61.5 7.5q97 0 144.5 -52t47.5 -150v-340h-132v309q0 60 -24.5 90.5t-83.5 30.5q-32 0 -54 -10t-36.5 -26.5t-21 -38.5t-6.5 -46v-309h-132v700z" glyph-name="h" horiz-adv-x="605" unicode="h"/>
<glyph d="M70 530h132v-530h-132v530zM136 580q-35 0 -57.5 22.5t-22.5 57.5t22.5 57.5t57.5 22.5t57.5 -22.5t22.5 -57.5t-22.5 -57.5t-57.5 -22.5z" glyph-name="i" horiz-adv-x="272" unicode="i"/>
<glyph d="M22 -212q-11 0 -25 0.5t-25 2.5v112q8 -2 17.5 -2.5t17.5 -0.5q18 0 30 5t19.5 17t10.5 33.5t3 54.5v520h132v-530q0 -63 -8.5 -104t-29.5 -65t-55.5 -33.5t-86.5 -9.5zM136 580q-35 0 -57.5 22.5t-22.5 57.5t22.5 57.5t57.5 22.5t57.5 -22.5t22.5 -57.5t-22.5 -57.5 t-57.5 -22.5z" glyph-name="j" horiz-adv-x="272" unicode="j"/>
<glyph d="M60 700h132v-388l196 218h152l-204 -227l224 -303h-154l-154 216l-60 -63v-153h-132v700z" glyph-name="k" horiz-adv-x="575" unicode="k"/>
<glyph d="M240 -6q-46 0 -79 8.5t-54.5 29.5t-31.5 56.5t-10 88.5v523h132v-507q0 -51 15 -69t58 -18q11 0 19 0.5t16 1.5v-111q-8 -2 -29 -2.5t-36 -0.5z" glyph-name="l" horiz-adv-x="330" unicode="l"/>
<glyph d="M60 530h122v-79q9 18 23.5 34t34 29t43 20.5t50.5 7.5q64 0 100.5 -26t51.5 -69q22 42 63.5 68.5t98.5 26.5q85 0 129 -48.5t44 -148.5v-345h-132v315q0 63 -20.5 89t-65.5 26q-40 0 -68 -30.5t-28 -84.5v-315h-132v315q0 63 -20.5 89t-65.5 26q-40 0 -68 -30.5 t-28 -84.5v-315h-132v530z" glyph-name="m" horiz-adv-x="875" unicode="m"/>
<glyph d="M60 530h122v-78q19 36 61.5 63t114.5 27q97 0 144.5 -52t47.5 -150v-340h-132v310q0 60 -24.5 90t-83.5 30q-32 0 -54 -10t-36.5 -26.5t-21 -38t-6.5 -45.5v-310h-132v530z" glyph-name="n" horiz-adv-x="605" unicode="n"/>
<glyph d="M300 100q56 0 93.5 40t37.5 120v20q0 73 -37.5 111.5t-93.5 38.5q-57 0 -94 -38.5t-37 -111.5v-20q0 -81 37 -120.5t94 -39.5zM300 -12q-54 0 -102.5 16.5t-84.5 50.5t-57 85t-21 120v20q0 65 21 114t57 82t84.5 49.5t102.5 16.5t102 -16.5t84.5 -49.5t57.5 -82t21 -114 v-20q0 -68 -21 -119t-57.5 -85t-84.5 -51t-102 -17z" glyph-name="o" horiz-adv-x="600" unicode="o"/>
<glyph d="M324 100q52 0 87 39.5t35 120.5v20q0 75 -34 112.5t-88 37.5q-57 0 -94.5 -32.5t-37.5 -97.5v-60q0 -71 36.5 -105.5t95.5 -34.5zM60 530h123v-78q20 36 63 63t109 27q106 0 165.5 -65.5t59.5 -196.5v-20q0 -137 -60.5 -204.5t-164.5 -67.5q-54 0 -95.5 23.5t-67.5 61.5 v-273h-132v730z" glyph-name="p" horiz-adv-x="615" unicode="p"/>
<glyph d="M291 100q59 0 95.5 34.5t36.5 105.5v60q0 65 -37.5 97.5t-94.5 32.5q-54 0 -88 -37.5t-34 -112.5v-20q0 -81 35 -120.5t87 -39.5zM423 73q-26 -38 -67.5 -61.5t-95.5 -23.5q-104 0 -164.5 67.5t-60.5 204.5v20q0 128 61 195t164 67q66 0 109 -27t63 -63v78h123v-730h-132 v273z" glyph-name="q" horiz-adv-x="615" unicode="q"/>
<glyph d="M60 530h122v-78q7 16 20 32.5t31 29t39.5 20.5t47.5 8q19 0 32.5 -2t17.5 -4v-117q-10 4 -25.5 7.5t-41.5 3.5q-30 0 -51 -10t-34.5 -26.5t-19.5 -38.5t-6 -46v-309h-132v530z" glyph-name="r" horiz-adv-x="390" unicode="r"/>
<glyph d="M275 -12q-65 0 -109.5 14t-72 37t-41.5 53t-17 63h132q5 -26 31 -42.5t77 -16.5q58 0 83 16t25 41q0 13 -6 22.5t-20.5 17.5t-39.5 14t-63 12q-43 6 -80 17t-64.5 30t-43.5 47.5t-16 69.5q0 33 15 62t44 50.5t71 34t95 12.5q57 0 97.5 -14t66.5 -37.5t39 -53.5t17 -62 h-132q-8 29 -31 44t-57 15q-50 0 -71.5 -15.5t-21.5 -38.5q0 -12 5 -21t18.5 -16t37 -12.5t59.5 -10.5q45 -6 83.5 -17.5t67.5 -30.5t45.5 -48t16.5 -69q0 -36 -15 -66.5t-45 -53t-75 -35t-105 -12.5z" glyph-name="s" horiz-adv-x="550" unicode="s"/>
<glyph d="M275 -6q-94 0 -137 40.5t-43 135.5v250h-70v110h70v120h132v-120h128v-110h-128v-230q0 -45 16.5 -64.5t61.5 -19.5q30 0 60 3v-110q-19 -2 -39.5 -3.5t-50.5 -1.5z" glyph-name="t" horiz-adv-x="400" unicode="t"/>
<glyph d="M242 -12q-93 0 -140 52.5t-47 162.5v327h132v-309q0 -60 23.5 -90.5t79.5 -30.5q30 0 51 10t35 26.5t20.5 38.5t6.5 46v309h132v-530h-122v78q-19 -36 -60.5 -63t-110.5 -27z" glyph-name="u" horiz-adv-x="595" unicode="u"/>
<glyph d="M10 530h148l144 -365l132 365h136l-204 -530h-132z" glyph-name="v" horiz-adv-x="580" unicode="v"/>
<glyph d="M20 530h142l86 -350l107 350h122l112 -350l91 350h130l-148 -530h-132l-117 370l-113 -370h-132z" glyph-name="w" horiz-adv-x="830" unicode="w"/>
<glyph d="M195 276l-170 254h147l116 -170l114 170h143l-168 -249l178 -281h-148l-124 198l-123 -198h-145z" glyph-name="x" unicode="x"/>
<glyph d="M150 -212q-15 0 -30 3v112q15 -3 30 -3q30 0 46.5 22.5t37.5 77.5l-224 530h148l144 -366l132 366h136l-204 -530q-22 -56 -41.5 -96.5t-43.5 -66t-55 -37.5t-76 -12z" glyph-name="y" horiz-adv-x="580" unicode="y"/>
<glyph d="M30 95l274 325h-264v110h430v-95l-274 -325h284v-110h-450v95z" glyph-name="z" horiz-adv-x="510" unicode="z"/>
<glyph d="M280 -200q-75 0 -117.5 42.5t-42.5 117.5v191q0 23 -13.5 36.5t-36.5 13.5v98q23 0 36.5 14t13.5 36v201q0 34 12 61.5t33 47t50.5 30.5t64.5 11h60v-98h-40q-60 0 -60 -60v-222q0 -30 -13.5 -46t-36.5 -24q23 -8 36.5 -24t13.5 -46v-222q0 -60 60 -60h40v-98h-60z" glyph-name="braceleft" horiz-adv-x="380" unicode="{"/>
<glyph d="M110 700h120v-900h-120v900z" glyph-name="bar" horiz-adv-x="340" unicode="|"/>
<glyph d="M100.034 699.976q74.9912 0 117.485 -42.4951q42.4951 -42.4941 42.4951 -117.485v-190.977q0 -22.9971 13.498 -36.4961q13.499 -13.498 36.4961 -13.498v-97.9883q-22.9971 0 -36.4961 -13.998q-13.498 -13.998 -13.498 -35.9951v-200.976q0 -33.9961 -11.999 -61.4932 q-11.998 -27.4961 -32.9951 -46.9941q-20.998 -19.4971 -50.4941 -30.4961q-29.4961 -10.998 -64.4922 -10.998h-59.9932v97.9873h39.9961q59.9922 0 59.9922 59.9932v221.973q0 29.9961 13.498 45.9941q13.499 15.998 36.4961 23.9971q-22.9971 7.99902 -36.4961 23.9971 q-13.498 15.998 -13.498 45.9941v221.974q0 59.9922 -59.9922 59.9922h-39.9961v97.9883h59.9932z" glyph-name="braceright" horiz-adv-x="380" unicode="}"/>
<glyph d="M380 260q-34 0 -60 11.5t-48.5 25.5t-43.5 25.5t-43 11.5q-17 0 -29.5 -8.5t-20.5 -18.5q-10 -12 -17 -27l-88 55q16 35 39 62q20 23 49.5 43t71.5 20q34 0 60 -11.5t48.5 -25.5t43 -25.5t43.5 -11.5q16 0 29 8t21 19q10 11 17 27l88 -55q-16 -36 -39 -63 q-20 -23 -49.5 -42.5t-71.5 -19.5z" glyph-name="asciitilde" unicode="~"/>
<glyph glyph-name="uni00A0" horiz-adv-x="250" unicode=" "/>
<glyph d="M155 372q-35 0 -60 25t-25 60q0 37 25 61t60 24t60 -24t25 -61q0 -35 -25 -60t-60 -25zM91 300h132v-500h-132v500z" glyph-name="exclamdown" horiz-adv-x="310" unicode="¡"/>
<glyph d="M235 -6q-44 8 -80.5 28.5t-63 53.5t-41.5 79t-15 105v20q0 54 15.5 98t42.5 76t63.5 53t78.5 29v94h120v-93q84 -15 129 -66.5t51 -120.5h-134q-8 37 -32.5 58.5t-73.5 21.5q-26 0 -48.5 -9t-40 -27.5t-27.5 -46.5t-10 -67v-20q0 -42 9.5 -72.5t26.5 -50t40 -28.5t50 -9 q39 0 67.5 20.5t38.5 59.5h134q-8 -75 -56.5 -123.5t-123.5 -62.5v-114h-120v114z" glyph-name="cent" horiz-adv-x="565" unicode="¢"/>
<glyph d="M50 124h90v164h-80v104h80v108q0 100 60.5 156t172.5 56q110 0 166.5 -53.5t60.5 -143.5h-150q-4 34 -23 52.5t-54 18.5q-44 0 -63.5 -22t-19.5 -64v-108h165v-104h-165v-164h310v-124h-550v124z" glyph-name="sterling" horiz-adv-x="650" unicode="£"/>
<glyph d="M285 272q37 0 61.5 25t24.5 63t-24.5 63t-61.5 25t-61.5 -25t-24.5 -63t24.5 -63t61.5 -25zM35 189l67 67q-13 23 -20 49t-7 55q0 28 7 54t20 49l-67 68l79 79l67 -68q48 28 104 28t103 -28l68 68l79 -79l-68 -68q28 -47 28 -103t-28 -104l68 -67l-79 -79l-68 67 q-23 -13 -49 -20t-54 -7q-29 0 -55 7t-49 20l-67 -67z" glyph-name="currency" unicode="¤"/>
<glyph d="M255 137h-185v104h185v58h-185v104h104l-159 297h176l142 -297l142 297h160l-152 -297h107v-104h-185v-58h185v-104h-185v-137h-150v137z" glyph-name="yen" horiz-adv-x="650" unicode="¥"/>
<glyph d="M110 700h120v-370h-120v370zM110 170h120v-370h-120v370z" glyph-name="brokenbar" horiz-adv-x="340" unicode="¦"/>
<glyph d="M290 172q38 0 61 21.5t23 56.5t-23 56.5t-61 21.5t-61 -21.5t-23 -56.5t23 -56.5t61 -21.5zM290 -212q-98 0 -151.5 49t-53.5 128h156q0 -51 49 -51q24 0 36.5 12.5t12.5 33.5q0 11 -3 22.5t-16 23t-38 23.5t-68 26q-72 23 -118 72t-46 123q0 57 28.5 101.5t77.5 70.5 q-35 23 -53 56.5t-18 71.5q0 34 13.5 63.5t40 51.5t64.5 34.5t87 12.5q98 0 151.5 -49t53.5 -128h-156q0 51 -49 51t-49 -46q0 -11 3.5 -22t16 -23t37.5 -24.5t69 -26.5q72 -23 117.5 -72t45.5 -122q0 -58 -28.5 -102.5t-77.5 -70.5q34 -23 52.5 -56t18.5 -71 q0 -34 -14 -63.5t-40 -51.5t-64 -34.5t-87 -12.5z" glyph-name="section" horiz-adv-x="580" unicode="§"/>
<glyph d="M306 586q-32 0 -53 21t-21 53t21 53t53 21t53 -21t21 -53t-21 -53t-53 -21zM94 586q-32 0 -53 21t-21 53t21 53t53 21t53 -21t21 -53t-21 -53t-53 -21z" glyph-name="dieresis" horiz-adv-x="400" unicode="¨"/>
<glyph d="M420 138q-88 0 -141.5 53t-53.5 154v10q0 48 14.5 86.5t40.5 65.5t62 41t78 14q84 0 132 -40t53 -112h-116q-8 31 -23 46.5t-46 15.5q-32 0 -55.5 -29.5t-23.5 -87.5v-10q0 -62 24 -89.5t55 -27.5q32 0 48 19t21 48h116q-6 -72 -53 -114.5t-132 -42.5zM420 74 q57 0 106.5 21t86.5 58t58 87.5t21 109.5q0 58 -21 108.5t-58 88t-86.5 58.5t-106.5 21t-106.5 -21t-86.5 -58.5t-58 -88t-21 -108.5q0 -59 21 -109.5t58 -87.5t86.5 -58t106.5 -21zM420 -22q-79 0 -147.5 28.5t-119 78.5t-79.5 118t-29 147t29 147t79.5 118t119 78.5 t147.5 28.5t147.5 -28.5t119 -78.5t79.5 -118t29 -147t-29 -147t-79.5 -118t-119 -78.5t-147.5 -28.5z" glyph-name="copyright" horiz-adv-x="840" unicode="©"/>
<glyph d="M182 446q27 0 43 14t16 40v14h-51q-20 0 -30.5 -10t-10.5 -27t9.5 -24t23.5 -7zM140 368q-61 0 -88 27t-27 77q0 47 32.5 75.5t112.5 28.5h71v9q0 29 -9.5 39t-26.5 10q-14 0 -24.5 -7.5t-14.5 -26.5h-121q2 27 11 47.5t27.5 35t48.5 22t73 7.5q90 0 125 -31.5t35 -95.5 v-125q0 -26 2 -45.5t5 -34.5h-114q-5 14 -5 40q-6 -11 -17.5 -20t-26.5 -16.5t-33 -11.5t-36 -4z" glyph-name="ordfeminine" horiz-adv-x="400" unicode="ª"/>
<glyph d="M30 220v110l220 185v-138l-125 -100l125 -100v-142zM270 220v110l220 185v-138l-125 -100l125 -100v-142z" glyph-name="guillemotleft" horiz-adv-x="540" unicode="«"/>
<glyph d="M398 298h-358v124h490v-292h-132v168z" glyph-name="logicalnot" unicode="¬"/>
<glyph d="M30 342h320v-124h-320v124z" glyph-name="uni00AD" horiz-adv-x="380" unicode="­"/>
<glyph d="M316 443q32 0 43.5 8.5t11.5 24.5t-11.5 24.5t-43.5 8.5h-27v-66h27zM205 575h115q74 0 104.5 -26t30.5 -73q0 -33 -14.5 -55.5t-49.5 -33.5l54 -112h-90l-42 104h-24v-104h-84v300zM320 214q43 0 80.5 15.5t65 43.5t43 67t15.5 85t-15.5 85t-43 67t-65 43.5t-80.5 15.5 q-44 0 -81 -15.5t-64.5 -43.5t-43 -67t-15.5 -85t15.5 -85t43 -67t64.5 -43.5t81 -15.5zM320 139q-59 0 -111 22.5t-90.5 61t-61 90.5t-22.5 112t22.5 112t61 90.5t90.5 61t111 22.5t111 -22.5t90.5 -61t61 -90.5t22.5 -112t-22.5 -112t-61 -90.5t-90.5 -61t-111 -22.5z" glyph-name="registered" horiz-adv-x="640" unicode="®"/>
<glyph d="M20 705h300v-90h-300v90z" glyph-name="macron" horiz-adv-x="340" unicode="¯"/>
<glyph d="M195 486q26 0 43.5 17.5t17.5 43.5t-17.5 43.5t-43.5 17.5t-43.5 -17.5t-17.5 -43.5t17.5 -43.5t43.5 -17.5zM195 382q-34 0 -64 13t-52.5 35.5t-35.5 52.5t-13 64t13 64t35.5 52.5t52.5 35.5t64 13t64 -13t52.5 -35.5t35.5 -52.5t13 -64t-13 -64t-35.5 -52.5 t-52.5 -35.5t-64 -13z" glyph-name="degree" horiz-adv-x="390" unicode="°"/>
<glyph d="M219 348h-179v124h179v183h132v-183h179v-124h-179v-78h-132v78zM40 192h490v-124h-490v124z" glyph-name="plusminus" unicode="±"/>
<glyph d="M20 462l159 123q30 23 40 37t10 33q0 14 -9.5 23.5t-29.5 9.5q-17 0 -28 -11.5t-11 -31.5h-126q0 69 41 108t124 39t124 -36t41 -91q0 -20 -4.5 -36t-16 -32t-30.5 -34t-48 -40l-53 -41h157v-102h-340v82z" glyph-name="uni00B2" horiz-adv-x="380" unicode="²"/>
<glyph d="M195 368q-90 0 -132.5 38.5t-42.5 103.5h126q0 -38 49 -38t49 37t-50 37h-39v78h39q40 0 40 34q0 30 -39 30q-19 0 -29 -9t-10 -24h-126q0 65 39.5 101t125.5 36q81 0 123 -33t42 -83q0 -39 -17.5 -57.5t-47.5 -28.5q30 -10 52.5 -33t22.5 -65q0 -52 -42.5 -88 t-132.5 -36z" glyph-name="uni00B3" horiz-adv-x="390" unicode="³"/>
<glyph d="M130 740h150l-150 -160h-110z" glyph-name="acute" horiz-adv-x="300" unicode="´"/>
<glyph d="M60 530h132v-309q0 -60 23.5 -90.5t79.5 -30.5q30 0 51 10t35 26.5t20.5 38.5t6.5 46v309h132v-530h-122v78q-19 -36 -60.5 -63t-110.5 -27q-15 0 -28.5 2t-26.5 5v-195h-132v730z" glyph-name="mu" horiz-adv-x="600" unicode="µ"/>
<glyph d="M185 306q-32 8 -59.5 26.5t-47.5 44t-31.5 57t-11.5 66.5q0 41 16 77.5t43 63.5t63.5 43t77.5 16h320v-900h-120v790h-130v-790h-120v506z" glyph-name="paragraph" horiz-adv-x="635" unicode="¶"/>
<glyph d="M155 190q-35 0 -60 25t-25 60q0 37 25 61t60 24t60 -24t25 -61q0 -35 -25 -60t-60 -25z" glyph-name="periodcentered" horiz-adv-x="310" unicode="·"/>
<glyph d="M90 -212q-17 0 -30 1t-22 3q-11 2 -18 4v73q6 -2 14 -3q7 -1 16 -1.5t20 -0.5q27 0 36.5 8.5t9.5 18.5q0 11 -9 19.5t-40 8.5l17 91h76l-7 -46q38 -8 52.5 -31t14.5 -48q0 -45 -30.5 -71t-99.5 -26z" glyph-name="cedilla" horiz-adv-x="240" unicode="¸"/>
<glyph d="M119 649l-104 -74v127l110 78h120v-400h-126v269z" glyph-name="uni00B9" horiz-adv-x="270" unicode="¹"/>
<glyph d="M190 472q20 0 32 14.5t12 48.5v10q0 34 -12 48.5t-32 14.5t-32 -14.5t-12 -48.5v-10q0 -34 12 -48.5t32 -14.5zM190 368q-39 0 -70 12t-53.5 34t-34.5 52.5t-12 68.5v10q0 37 12 68t34.5 53t53.5 34t70 12t70 -12t53.5 -34t34.5 -53t12 -68v-10q0 -38 -12 -68.5 t-34.5 -52.5t-53.5 -34t-70 -12z" glyph-name="ordmasculine" horiz-adv-x="380" unicode="º"/>
<glyph d="M270 330v-110l-220 -185v138l125 100l-125 100v142zM510 330v-110l-220 -185v138l125 100l-125 100v142z" glyph-name="guillemotright" horiz-adv-x="540" unicode="»"/>
<glyph d="M620 700h140l-480 -700h-140zM119 570l-104 -74v127l110 78h120v-400h-126v269zM664 70h-194v82l184 249h136v-229h40v-102h-40v-69h-126v69zM664 172v108l-72 -108h72z" glyph-name="onequarter" horiz-adv-x="860" unicode="¼"/>
<glyph d="M620 700h140l-480 -700h-140zM119 570l-104 -74v127l110 78h120v-400h-126v269zM560 83l159 123q30 23 40 37t10 33q0 14 -9.5 23.5t-29.5 9.5q-17 0 -28 -11.5t-11 -31.5h-126q0 69 41 108t124 39t124 -36t41 -91q0 -20 -4.5 -36t-16 -32t-30.5 -34t-48 -40l-53 -41h157 v-102h-340v82z" glyph-name="onehalf" horiz-adv-x="920" unicode="½"/>
<glyph d="M650 700h140l-480 -700h-140zM195 289q-90 0 -132.5 38.5t-42.5 103.5h126q0 -38 49 -38t49 37t-50 37h-39v78h39q40 0 40 34q0 30 -39 30q-19 0 -29 -9t-10 -24h-126q0 65 39.5 101t125.5 36q81 0 123 -33t42 -83q0 -39 -17.5 -57.5t-47.5 -28.5q30 -10 52.5 -33 t22.5 -65q0 -52 -42.5 -88t-132.5 -36zM694 70h-194v82l184 249h136v-229h40v-102h-40v-69h-126v69zM694 172v108l-72 -108h72z" glyph-name="threequarters" horiz-adv-x="890" unicode="¾"/>
<glyph d="M265 372q-35 0 -60 25t-25 60q0 37 25 61t60 24t60 -24t25 -61q0 -35 -25 -60t-60 -25zM265 -212q-54 0 -96.5 14.5t-72.5 40.5t-45.5 61t-15.5 76q0 27 5 49t16.5 42t30.5 40.5t46 44.5q22 19 35.5 33t20 24.5t8.5 19t2 17.5v50h132v-70q0 -38 -20 -68.5t-65 -68.5 q-36 -31 -56.5 -54t-20.5 -54q0 -38 24.5 -61.5t71.5 -23.5q43 0 69.5 23.5t26.5 66.5h134q0 -41 -17.5 -77.5t-48 -64.5t-73 -44t-91.5 -16z" glyph-name="questiondown" horiz-adv-x="530" unicode="¿"/>
<glyph d="M468 143h-259l-53 -143h-146l260 700h150l260 -700h-158zM255 267h168l-84 243zM135 900h160l110 -150h-120z" glyph-name="Agrave" horiz-adv-x="690" unicode="À"/>
<glyph d="M468 143h-259l-53 -143h-146l260 700h150l260 -700h-158zM255 267h168l-84 243zM395 900h160l-150 -150h-120z" glyph-name="Aacute" horiz-adv-x="690" unicode="Á"/>
<glyph d="M468 143h-259l-53 -143h-146l260 700h150l260 -700h-158zM255 267h168l-84 243zM275 900h140l110 -150h-120l-60 60l-60 -60h-120z" glyph-name="Acircumflex" horiz-adv-x="690" unicode="Â"/>
<glyph d="M468 143h-259l-53 -143h-146l260 700h150l260 -700h-158zM255 267h168l-84 243zM415 750q-26 0 -45 7t-34.5 15.5t-29.5 15.5t-31 7q-14 0 -23 -6t-15 -14q-7 -9 -12 -20l-70 40q8 29 24 52q14 20 37 36.5t59 16.5q26 0 45 -7t34.5 -15.5t29.5 -15.5t31 -7q13 0 22.5 6 t15.5 14q7 9 12 20l70 -40q-8 -30 -24 -53q-14 -20 -37.5 -36t-58.5 -16z" glyph-name="Atilde" horiz-adv-x="690" unicode="Ã"/>
<glyph d="M468 143h-259l-53 -143h-146l260 700h150l260 -700h-158zM255 267h168l-84 243zM225 745q-35 0 -57.5 22.5t-22.5 57.5t22.5 57.5t57.5 22.5t57.5 -22.5t22.5 -57.5t-22.5 -57.5t-57.5 -22.5zM465 745q-35 0 -57.5 22.5t-22.5 57.5t22.5 57.5t57.5 22.5t57.5 -22.5 t22.5 -57.5t-22.5 -57.5t-57.5 -22.5z" glyph-name="Adieresis" horiz-adv-x="690" unicode="Ä"/>
<glyph d="M468 143h-259l-53 -143h-146l260 700h150l260 -700h-158zM255 267h168l-84 243zM345 730q-28 0 -51.5 8.5t-41 23.5t-27.5 36t-10 47q0 25 10 46.5t27.5 36.5t41 23.5t51.5 8.5t51.5 -8.5t41 -23.5t27.5 -36.5t10 -46.5q0 -26 -10 -47t-27.5 -36t-41 -23.5t-51.5 -8.5z M345 810q17 0 28.5 9t11.5 26t-11.5 26t-28.5 9t-28.5 -9t-11.5 -26t11.5 -26t28.5 -9z" glyph-name="Aring" horiz-adv-x="690" unicode="Å"/>
<glyph d="M460 267v248l-138 -248h138zM420 700h530v-124h-339v-156h309v-120h-309v-176h339v-124h-490v143h-210l-84 -143h-156z" glyph-name="AE" horiz-adv-x="1000" unicode="Æ"/>
<glyph d="M365 -12q-69 0 -126.5 20t-99.5 62.5t-65.5 110.5t-23.5 164v20q0 92 24.5 157.5t67 107.5t100 62t123.5 20q59 0 111 -14t91.5 -43.5t64 -75.5t28.5 -109h-156q-11 60 -48 88t-91 28q-31 0 -59.5 -11t-50.5 -37t-35.5 -68t-13.5 -105v-20q0 -66 14 -110.5t36.5 -71 t51 -38t57.5 -11.5q57 0 94 29.5t45 86.5h156q-5 -66 -29 -112t-63 -75t-91 -42t-112 -13zM335 -212q-17 0 -30 1t-22 3q-11 2 -18 4v75q6 -2 14 -3q7 -1 16 -1.5t20 -0.5q27 0 35.5 7.5t8.5 17.5q0 11 -8.5 18.5t-40.5 7.5l17 93h80l-7 -46q37 -8 51 -31t14 -48 q0 -45 -30.5 -71t-99.5 -26z" glyph-name="Ccedilla" horiz-adv-x="700" unicode="Ç"/>
<glyph d="M80 700h490v-124h-339v-156h309v-120h-309v-176h339v-124h-490v700zM115 900h160l110 -150h-120z" glyph-name="Egrave" horiz-adv-x="620" unicode="È"/>
<glyph d="M80 700h490v-124h-339v-156h309v-120h-309v-176h339v-124h-490v700zM375 900h160l-150 -150h-120z" glyph-name="Eacute" horiz-adv-x="620" unicode="É"/>
<glyph d="M80 700h490v-124h-339v-156h309v-120h-309v-176h339v-124h-490v700zM255 900h140l110 -150h-120l-60 60l-60 -60h-120z" glyph-name="Ecircumflex" horiz-adv-x="620" unicode="Ê"/>
<glyph d="M80 700h490v-124h-339v-156h309v-120h-309v-176h339v-124h-490v700zM200 745q-35 0 -57.5 22.5t-22.5 57.5t22.5 57.5t57.5 22.5t57.5 -22.5t22.5 -57.5t-22.5 -57.5t-57.5 -22.5zM440 745q-35 0 -57.5 22.5t-22.5 57.5t22.5 57.5t57.5 22.5t57.5 -22.5t22.5 -57.5 t-22.5 -57.5t-57.5 -22.5z" glyph-name="Edieresis" horiz-adv-x="620" unicode="Ë"/>
<glyph d="M90 700h150v-700h-150v700zM-44 900h160l110 -150h-120z" glyph-name="Igrave" horiz-adv-x="330" unicode="Ì"/>
<glyph d="M90 700h150v-700h-150v700zM215 900h160l-150 -150h-120z" glyph-name="Iacute" horiz-adv-x="330" unicode="Í"/>
<glyph d="M90 700h150v-700h-150v700zM96 900h140l110 -150h-120l-60 60l-60 -60h-120z" glyph-name="Icircumflex" horiz-adv-x="330" unicode="Î"/>
<glyph d="M90 700h150v-700h-150v700zM46 745q-35 0 -57.5 22.5t-22.5 57.5t22.5 57.5t57.5 22.5t57.5 -22.5t22.5 -57.5t-22.5 -57.5t-57.5 -22.5zM286 745q-35 0 -57.5 22.5t-22.5 57.5t22.5 57.5t57.5 22.5t57.5 -22.5t22.5 -57.5t-22.5 -57.5t-57.5 -22.5z" glyph-name="Idieresis" horiz-adv-x="330" unicode="Ï"/>
<glyph d="M330 124q40 0 76 11.5t63.5 37.5t43.5 68t16 104v20q0 58 -15 98.5t-40.5 65.5t-60 36t-73.5 11h-85v-169h140v-104h-140v-179h75zM105 303h-80v104h80v293h245q79 0 141 -21.5t105 -63.5t66 -105t23 -145v-20q0 -84 -23.5 -148.5t-68 -108t-108.5 -66t-145 -22.5h-235 v303z" glyph-name="Eth" horiz-adv-x="735" unicode="Ð"/>
<glyph d="M80 700h142l308 -450v450h150v-700h-142l-308 450v-450h-150v700zM450 750q-26 0 -45 7t-34.5 15.5t-29.5 15.5t-31 7q-14 0 -23 -6t-15 -14q-7 -9 -12 -20l-70 40q8 29 24 52q14 20 37 36.5t59 16.5q26 0 45 -7t34.5 -15.5t29.5 -15.5t31 -7q13 0 22.5 6t15.5 14 q7 9 12 20l70 -40q-8 -30 -24 -53q-14 -20 -37.5 -36t-58.5 -16z" glyph-name="Ntilde" horiz-adv-x="760" unicode="Ñ"/>
<glyph d="M380 -12q-66 0 -125.5 20t-105 63t-72.5 110.5t-27 163.5v20q0 92 27 157.5t72.5 107.5t105 62t125.5 20t125.5 -20t105 -62t72.5 -107.5t27 -157.5v-20q0 -96 -27 -163.5t-72.5 -110.5t-105 -63t-125.5 -20zM380 114q34 0 65.5 11.5t55.5 38.5t38.5 71t14.5 110v20 q0 62 -14.5 104t-38.5 68t-55.5 37.5t-65.5 11.5t-65.5 -11.5t-55.5 -37.5t-38.5 -68t-14.5 -104v-20q0 -66 14.5 -110t38.5 -71t55.5 -38.5t65.5 -11.5zM170 900h160l110 -150h-120z" glyph-name="Ograve" horiz-adv-x="760" unicode="Ò"/>
<glyph d="M380 -12q-66 0 -125.5 20t-105 63t-72.5 110.5t-27 163.5v20q0 92 27 157.5t72.5 107.5t105 62t125.5 20t125.5 -20t105 -62t72.5 -107.5t27 -157.5v-20q0 -96 -27 -163.5t-72.5 -110.5t-105 -63t-125.5 -20zM380 114q34 0 65.5 11.5t55.5 38.5t38.5 71t14.5 110v20 q0 62 -14.5 104t-38.5 68t-55.5 37.5t-65.5 11.5t-65.5 -11.5t-55.5 -37.5t-38.5 -68t-14.5 -104v-20q0 -66 14.5 -110t38.5 -71t55.5 -38.5t65.5 -11.5zM430 900h160l-150 -150h-120z" glyph-name="Oacute" horiz-adv-x="760" unicode="Ó"/>
<glyph d="M380 -12q-66 0 -125.5 20t-105 63t-72.5 110.5t-27 163.5v20q0 92 27 157.5t72.5 107.5t105 62t125.5 20t125.5 -20t105 -62t72.5 -107.5t27 -157.5v-20q0 -96 -27 -163.5t-72.5 -110.5t-105 -63t-125.5 -20zM380 114q34 0 65.5 11.5t55.5 38.5t38.5 71t14.5 110v20 q0 62 -14.5 104t-38.5 68t-55.5 37.5t-65.5 11.5t-65.5 -11.5t-55.5 -37.5t-38.5 -68t-14.5 -104v-20q0 -66 14.5 -110t38.5 -71t55.5 -38.5t65.5 -11.5zM310 900h140l110 -150h-120l-60 60l-60 -60h-120z" glyph-name="Ocircumflex" horiz-adv-x="760" unicode="Ô"/>
<glyph d="M380 -12q-66 0 -125.5 20t-105 63t-72.5 110.5t-27 163.5v20q0 92 27 157.5t72.5 107.5t105 62t125.5 20t125.5 -20t105 -62t72.5 -107.5t27 -157.5v-20q0 -96 -27 -163.5t-72.5 -110.5t-105 -63t-125.5 -20zM380 114q34 0 65.5 11.5t55.5 38.5t38.5 71t14.5 110v20 q0 62 -14.5 104t-38.5 68t-55.5 37.5t-65.5 11.5t-65.5 -11.5t-55.5 -37.5t-38.5 -68t-14.5 -104v-20q0 -66 14.5 -110t38.5 -71t55.5 -38.5t65.5 -11.5zM450 750q-26 0 -45 7t-34.5 15.5t-29.5 15.5t-31 7q-14 0 -23 -6t-15 -14q-7 -9 -12 -20l-70 40q8 29 24 52 q14 20 37 36.5t59 16.5q26 0 45 -7t34.5 -15.5t29.5 -15.5t31 -7q13 0 22.5 6t15.5 14q7 9 12 20l70 -40q-8 -30 -24 -53q-14 -20 -37.5 -36t-58.5 -16z" glyph-name="Otilde" horiz-adv-x="760" unicode="Õ"/>
<glyph d="M380 -12q-66 0 -125.5 20t-105 63t-72.5 110.5t-27 163.5v20q0 92 27 157.5t72.5 107.5t105 62t125.5 20t125.5 -20t105 -62t72.5 -107.5t27 -157.5v-20q0 -96 -27 -163.5t-72.5 -110.5t-105 -63t-125.5 -20zM380 114q34 0 65.5 11.5t55.5 38.5t38.5 71t14.5 110v20 q0 62 -14.5 104t-38.5 68t-55.5 37.5t-65.5 11.5t-65.5 -11.5t-55.5 -37.5t-38.5 -68t-14.5 -104v-20q0 -66 14.5 -110t38.5 -71t55.5 -38.5t65.5 -11.5zM260 745q-35 0 -57.5 22.5t-22.5 57.5t22.5 57.5t57.5 22.5t57.5 -22.5t22.5 -57.5t-22.5 -57.5t-57.5 -22.5zM500 745 q-35 0 -57.5 22.5t-22.5 57.5t22.5 57.5t57.5 22.5t57.5 -22.5t22.5 -57.5t-22.5 -57.5t-57.5 -22.5z" glyph-name="Odieresis" horiz-adv-x="760" unicode="Ö"/>
<glyph d="M60 219l141 141l-141 141l84 84l141 -141l141 141l84 -84l-141 -141l141 -141l-84 -84l-141 141l-141 -141z" glyph-name="multiply" unicode="×"/>
<glyph d="M380 586q-34 0 -65.5 -11.5t-55.5 -37.5t-38.5 -68t-14.5 -104v-20q0 -74 18 -120l264 324q-23 20 -51 28.5t-57 8.5zM380 114q34 0 65.5 11.5t55.5 38.5t38.5 71t14.5 110v20q0 34 -5 61.5t-13 50.5l-264 -326q23 -20 50.5 -28.5t57.5 -8.5zM380 -12q-54 0 -104.5 13 t-92.5 42l-44 -55l-64 54l47 58q-34 43 -53 103.5t-19 141.5v20q0 92 27 157.5t72.5 107.5t105 62t125.5 20q54 0 104 -13t92 -42l45 55l64 -53l-47 -58q33 -42 52.5 -100t19.5 -136v-20q0 -96 -27 -163.5t-72.5 -110.5t-105 -63t-125.5 -20z" glyph-name="Oslash" horiz-adv-x="760" unicode="Ø"/>
<glyph d="M365 -12q-68 0 -122.5 18t-92.5 54.5t-59 91.5t-21 128v420h150v-406q0 -90 35 -135t110 -45t110 45t35 134v407h150v-420q0 -73 -20.5 -128t-59 -91.5t-93 -54.5t-122.5 -18zM155 900h160l110 -150h-120z" glyph-name="Ugrave" horiz-adv-x="730" unicode="Ù"/>
<glyph d="M365 -12q-68 0 -122.5 18t-92.5 54.5t-59 91.5t-21 128v420h150v-406q0 -90 35 -135t110 -45t110 45t35 134v407h150v-420q0 -73 -20.5 -128t-59 -91.5t-93 -54.5t-122.5 -18zM415 900h160l-150 -150h-120z" glyph-name="Uacute" horiz-adv-x="730" unicode="Ú"/>
<glyph d="M365 -12q-68 0 -122.5 18t-92.5 54.5t-59 91.5t-21 128v420h150v-406q0 -90 35 -135t110 -45t110 45t35 134v407h150v-420q0 -73 -20.5 -128t-59 -91.5t-93 -54.5t-122.5 -18zM295 900h140l110 -150h-120l-60 60l-60 -60h-120z" glyph-name="Ucircumflex" horiz-adv-x="730" unicode="Û"/>
<glyph d="M365 -12q-68 0 -122.5 18t-92.5 54.5t-59 91.5t-21 128v420h150v-406q0 -90 35 -135t110 -45t110 45t35 134v407h150v-420q0 -73 -20.5 -128t-59 -91.5t-93 -54.5t-122.5 -18zM245 745q-35 0 -57.5 22.5t-22.5 57.5t22.5 57.5t57.5 22.5t57.5 -22.5t22.5 -57.5 t-22.5 -57.5t-57.5 -22.5zM485 745q-35 0 -57.5 22.5t-22.5 57.5t22.5 57.5t57.5 22.5t57.5 -22.5t22.5 -57.5t-22.5 -57.5t-57.5 -22.5z" glyph-name="Udieresis" horiz-adv-x="730" unicode="Ü"/>
<glyph d="M275 267l-265 433h176l167 -281l157 281h160l-245 -433v-267h-150v267zM398 900h160l-150 -150h-120z" glyph-name="Yacute" horiz-adv-x="680" unicode="Ý"/>
<glyph d="M335 254q80 0 112.5 27.5t32.5 78.5t-32.5 78.5t-112.5 27.5h-105v-212h105zM80 700h150v-110h120q142 0 211 -62.5t69 -167.5t-69 -167.5t-211 -62.5h-120v-130h-150v700z" glyph-name="Thorn" horiz-adv-x="665" unicode="Þ"/>
<glyph d="M60 475q0 115 59.5 176t170.5 61q54 0 95.5 -13.5t69 -37t41.5 -56t14 -70.5q0 -51 -26 -91t-74 -57q38 -6 65 -22t43.5 -39t24 -51.5t7.5 -59.5v-10q0 -105 -57.5 -158t-187.5 -53q-11 0 -25 0.5t-25 2.5v112q11 -2 25 -2.5t25 -0.5q113 0 113 107v10q0 51 -30 79 t-93 28h-20v100h15q38 0 63 21t25 64q0 85 -88 85q-48 0 -73 -31t-25 -94v-475h-132v475z" glyph-name="germandbls" horiz-adv-x="590" unicode="ß"/>
<glyph d="M219 -12q-43 0 -76 12.5t-56 35t-35 53t-12 66.5q0 160 190 160h158v25q0 52 -23.5 73t-74.5 21q-45 0 -65 -15.5t-23 -38.5h-132q2 34 17.5 64t44 51.5t69.5 34t94 12.5q51 0 92.5 -11t71 -35.5t45.5 -63.5t16 -94v-203q0 -42 1.5 -73.5t5.5 -61.5h-123q-4 22 -4.5 33.5 t-0.5 34.5q-22 -32 -66.5 -56t-113.5 -24zM260 90q24 0 47 6.5t41 20t29 34.5t11 49v25h-133q-38 0 -59.5 -17.5t-21.5 -47.5q0 -32 22 -51t64 -19zM90 740h150l110 -160h-110z" glyph-name="agrave" horiz-adv-x="575" unicode="à"/>
<glyph d="M219 -12q-43 0 -76 12.5t-56 35t-35 53t-12 66.5q0 160 190 160h158v25q0 52 -23.5 73t-74.5 21q-45 0 -65 -15.5t-23 -38.5h-132q2 34 17.5 64t44 51.5t69.5 34t94 12.5q51 0 92.5 -11t71 -35.5t45.5 -63.5t16 -94v-203q0 -42 1.5 -73.5t5.5 -61.5h-123q-4 22 -4.5 33.5 t-0.5 34.5q-22 -32 -66.5 -56t-113.5 -24zM260 90q24 0 47 6.5t41 20t29 34.5t11 49v25h-133q-38 0 -59.5 -17.5t-21.5 -47.5q0 -32 22 -51t64 -19zM350 740h150l-150 -160h-110z" glyph-name="aacute" horiz-adv-x="575" unicode="á"/>
<glyph d="M219 -12q-43 0 -76 12.5t-56 35t-35 53t-12 66.5q0 160 190 160h158v25q0 52 -23.5 73t-74.5 21q-45 0 -65 -15.5t-23 -38.5h-132q2 34 17.5 64t44 51.5t69.5 34t94 12.5q51 0 92.5 -11t71 -35.5t45.5 -63.5t16 -94v-203q0 -42 1.5 -73.5t5.5 -61.5h-123q-4 22 -4.5 33.5 t-0.5 34.5q-22 -32 -66.5 -56t-113.5 -24zM260 90q24 0 47 6.5t41 20t29 34.5t11 49v25h-133q-38 0 -59.5 -17.5t-21.5 -47.5q0 -32 22 -51t64 -19zM230 740h130l110 -160h-110l-65 70l-65 -70h-110z" glyph-name="acircumflex" horiz-adv-x="575" unicode="â"/>
<glyph d="M219 -12q-43 0 -76 12.5t-56 35t-35 53t-12 66.5q0 160 190 160h158v25q0 52 -23.5 73t-74.5 21q-45 0 -65 -15.5t-23 -38.5h-132q2 34 17.5 64t44 51.5t69.5 34t94 12.5q51 0 92.5 -11t71 -35.5t45.5 -63.5t16 -94v-203q0 -42 1.5 -73.5t5.5 -61.5h-123q-4 22 -4.5 33.5 t-0.5 34.5q-22 -32 -66.5 -56t-113.5 -24zM260 90q24 0 47 6.5t41 20t29 34.5t11 49v25h-133q-38 0 -59.5 -17.5t-21.5 -47.5q0 -32 22 -51t64 -19zM355 590q-23 0 -39.5 7t-30 15.5t-25.5 15.5t-25 7q-14 0 -23 -6t-15 -14q-7 -9 -12 -20l-60 35q8 28 23 50q13 19 34 34.5 t53 15.5q22 0 39 -7t30.5 -15.5t25.5 -15.5t25 -7t22.5 6t15.5 14q7 9 12 20l60 -35q-8 -28 -23 -50q-13 -19 -34 -34.5t-53 -15.5z" glyph-name="atilde" horiz-adv-x="575" unicode="ã"/>
<glyph d="M219 -12q-43 0 -76 12.5t-56 35t-35 53t-12 66.5q0 160 190 160h158v25q0 52 -23.5 73t-74.5 21q-45 0 -65 -15.5t-23 -38.5h-132q2 34 17.5 64t44 51.5t69.5 34t94 12.5q51 0 92.5 -11t71 -35.5t45.5 -63.5t16 -94v-203q0 -42 1.5 -73.5t5.5 -61.5h-123q-4 22 -4.5 33.5 t-0.5 34.5q-22 -32 -66.5 -56t-113.5 -24zM260 90q24 0 47 6.5t41 20t29 34.5t11 49v25h-133q-38 0 -59.5 -17.5t-21.5 -47.5q0 -32 22 -51t64 -19zM189 586q-32 0 -53 21t-21 53t21 53t53 21t53 -21t21 -53t-21 -53t-53 -21zM401 586q-32 0 -53 21t-21 53t21 53t53 21 t53 -21t21 -53t-21 -53t-53 -21z" glyph-name="adieresis" horiz-adv-x="575" unicode="ä"/>
<glyph d="M219 -12q-43 0 -76 12.5t-56 35t-35 53t-12 66.5q0 160 190 160h158v25q0 52 -23.5 73t-74.5 21q-45 0 -65 -15.5t-23 -38.5h-132q2 34 17.5 64t44 51.5t69.5 34t94 12.5q51 0 92.5 -11t71 -35.5t45.5 -63.5t16 -94v-203q0 -42 1.5 -73.5t5.5 -61.5h-123q-4 22 -4.5 33.5 t-0.5 34.5q-22 -32 -66.5 -56t-113.5 -24zM260 90q24 0 47 6.5t41 20t29 34.5t11 49v25h-133q-38 0 -59.5 -17.5t-21.5 -47.5q0 -32 22 -51t64 -19zM295 565q-27 0 -49.5 9t-39.5 24.5t-26.5 36.5t-9.5 45t9.5 45t26.5 36.5t39.5 24.5t49.5 9t49.5 -9t39.5 -24.5t26.5 -36.5 t9.5 -45t-9.5 -45t-26.5 -36.5t-39.5 -24.5t-49.5 -9zM295 643q17 0 27 10t10 27t-10 27t-27 10t-27 -10t-10 -27t10 -27t27 -10z" glyph-name="aring" horiz-adv-x="575" unicode="å"/>
<glyph d="M650 434q-23 0 -45.5 -6t-39.5 -19.5t-28 -36t-12 -55.5h247q-1 35 -10.5 57.5t-26 36t-38.5 18.5t-47 5zM260 90q24 0 47 6.5t41 20t29 34.5t11 49v24h-133q-38 0 -59.5 -17t-21.5 -47q0 -32 22 -51t64 -19zM219 -12q-43 0 -76.5 12.5t-56 35t-34.5 53t-12 66.5 q0 159 190 159h158v27q0 51 -23.5 72t-74.5 21q-45 0 -65 -15.5t-23 -38.5h-132q2 34 17.5 64t44 51.5t69.5 34t94 12.5q60 0 102 -18.5t71 -53.5q27 32 70.5 52t106.5 20q125 0 190 -66t65 -191v-62h-375q1 -33 12 -57t29 -39.5t41.5 -23t47.5 -7.5q51 0 77 15t37 44h121 q-16 -83 -79 -125t-156 -42q-69 0 -122.5 24.5t-82.5 75.5q-29 -49 -87.5 -74.5t-143.5 -25.5z" glyph-name="ae" horiz-adv-x="935" unicode="æ"/>
<glyph d="M295 -12q-55 0 -102.5 17t-82.5 51t-55 85t-20 119v20q0 64 21 113t56.5 82t82.5 50t100 17q56 0 99.5 -15t73.5 -41t47 -61t20 -75h-134q-8 37 -32.5 58.5t-73.5 21.5q-26 0 -48.5 -9t-40 -27.5t-27.5 -46.5t-10 -67v-20q0 -42 9.5 -72.5t26.5 -50t40 -28.5t50 -9 q39 0 67.5 20.5t38.5 59.5h134q-5 -44 -24.5 -79.5t-51 -60.5t-73.5 -38.5t-91 -13.5zM270 -212q-17 0 -30 1t-22 3q-11 2 -18 4v73q6 -2 14 -3q7 -1 16 -1.5t20 -0.5q27 0 36.5 8.5t9.5 18.5q0 11 -9 19.5t-40 8.5l17 91h76l-7 -46q38 -8 52.5 -31t14.5 -48 q0 -45 -30.5 -71t-99.5 -26z" glyph-name="ccedilla" horiz-adv-x="565" unicode="ç"/>
<glyph d="M300 -12q-54 0 -102.5 16.5t-84.5 50t-57 85t-21 120.5v20q0 66 20 115t55 81.5t81 49t99 16.5q125 0 190 -66t65 -191v-56h-375q1 -35 12 -60.5t29 -41.5t41.5 -23.5t47.5 -7.5q51 0 77 15t37 44h121q-16 -83 -79 -125t-156 -42zM295 434q-23 0 -45.5 -6t-39.5 -19 t-28 -35t-12 -53h247q-1 33 -10.5 55t-26 35t-38.5 18t-47 5zM85 740h150l110 -160h-110z" glyph-name="egrave" horiz-adv-x="580" unicode="è"/>
<glyph d="M300 -12q-54 0 -102.5 16.5t-84.5 50t-57 85t-21 120.5v20q0 66 20 115t55 81.5t81 49t99 16.5q125 0 190 -66t65 -191v-56h-375q1 -35 12 -60.5t29 -41.5t41.5 -23.5t47.5 -7.5q51 0 77 15t37 44h121q-16 -83 -79 -125t-156 -42zM295 434q-23 0 -45.5 -6t-39.5 -19 t-28 -35t-12 -53h247q-1 33 -10.5 55t-26 35t-38.5 18t-47 5zM345 740h150l-150 -160h-110z" glyph-name="eacute" horiz-adv-x="580" unicode="é"/>
<glyph d="M300 -12q-54 0 -102.5 16.5t-84.5 50t-57 85t-21 120.5v20q0 66 20 115t55 81.5t81 49t99 16.5q125 0 190 -66t65 -191v-56h-375q1 -35 12 -60.5t29 -41.5t41.5 -23.5t47.5 -7.5q51 0 77 15t37 44h121q-16 -83 -79 -125t-156 -42zM295 434q-23 0 -45.5 -6t-39.5 -19 t-28 -35t-12 -53h247q-1 33 -10.5 55t-26 35t-38.5 18t-47 5zM225 740h130l110 -160h-110l-65 70l-65 -70h-110z" glyph-name="ecircumflex" horiz-adv-x="580" unicode="ê"/>
<glyph d="M300 -12q-54 0 -102.5 16.5t-84.5 50t-57 85t-21 120.5v20q0 66 20 115t55 81.5t81 49t99 16.5q125 0 190 -66t65 -191v-56h-375q1 -35 12 -60.5t29 -41.5t41.5 -23.5t47.5 -7.5q51 0 77 15t37 44h121q-16 -83 -79 -125t-156 -42zM295 434q-23 0 -45.5 -6t-39.5 -19 t-28 -35t-12 -53h247q-1 33 -10.5 55t-26 35t-38.5 18t-47 5zM184 586q-32 0 -53 21t-21 53t21 53t53 21t53 -21t21 -53t-21 -53t-53 -21zM396 586q-32 0 -53 21t-21 53t21 53t53 21t53 -21t21 -53t-21 -53t-53 -21z" glyph-name="edieresis" horiz-adv-x="580" unicode="ë"/>
<glyph d="M70 530h132v-530h-132v530zM-68 740h150l110 -160h-110z" glyph-name="igrave" horiz-adv-x="272" unicode="ì"/>
<glyph d="M70 530h132v-530h-132v530zM191 740h150l-150 -160h-110z" glyph-name="iacute" horiz-adv-x="272" unicode="í"/>
<glyph d="M70 530h132v-530h-132v530zM72 740h130l110 -160h-110l-65 70l-65 -70h-110z" glyph-name="icircumflex" horiz-adv-x="272" unicode="î"/>
<glyph d="M70 530h132v-530h-132v530zM31 586q-32 0 -53 21t-21 53t21 53t53 21t53 -21t21 -53t-21 -53t-53 -21zM243 586q-32 0 -53 21t-21 53t21 53t53 21t53 -21t21 -53t-21 -53t-53 -21z" glyph-name="idieresis" horiz-adv-x="272" unicode="ï"/>
<glyph d="M300 98q27 0 50.5 9.5t41.5 28.5t28.5 47.5t10.5 66.5v20q0 34 -10.5 60.5t-28.5 44.5t-41.5 27.5t-50.5 9.5t-50.5 -9.5t-41.5 -27.5t-28.5 -44.5t-10.5 -60.5v-20q0 -38 10.5 -66.5t28.5 -47.5t41.5 -28.5t50.5 -9.5zM300 -12q-51 0 -98.5 16.5t-84.5 49.5t-59.5 82 t-22.5 114v20q0 61 22 108t57.5 79t79 48.5t86.5 16.5q70 0 124 -30q-23 39 -54 66.5t-74 48.5l-26 -49l-62 29l24 46q-36 12 -78 24l34 96q25 -7 48.5 -14t44.5 -15l25 46l62 -29l-23 -43q67 -33 113 -75t74.5 -93t40.5 -111t12 -129v-20q0 -72 -22.5 -125t-59.5 -88 t-84.5 -52t-98.5 -17z" glyph-name="eth" horiz-adv-x="605" unicode="ð"/>
<glyph d="M60 530h122v-78q19 36 61.5 63t114.5 27q97 0 144.5 -52t47.5 -150v-340h-132v310q0 60 -24.5 90t-83.5 30q-32 0 -54 -10t-36.5 -26.5t-21 -38t-6.5 -45.5v-310h-132v530zM365 590q-23 0 -39.5 7t-30 15.5t-25.5 15.5t-25 7q-14 0 -23 -6t-15 -14q-7 -9 -12 -20l-60 35 q8 28 23 50q13 19 34 34.5t53 15.5q22 0 39 -7t30.5 -15.5t25.5 -15.5t25 -7t22.5 6t15.5 14q7 9 12 20l60 -35q-8 -28 -23 -50q-13 -19 -34 -34.5t-53 -15.5z" glyph-name="ntilde" horiz-adv-x="605" unicode="ñ"/>
<glyph d="M300 -12q-54 0 -102.5 16.5t-84.5 50.5t-57 85t-21 120v20q0 65 21 114t57 82t84.5 49.5t102.5 16.5t102 -16.5t84.5 -49.5t57.5 -82t21 -114v-20q0 -68 -21 -119t-57.5 -85t-84.5 -51t-102 -17zM300 100q56 0 93.5 40t37.5 120v20q0 73 -37.5 111.5t-93.5 38.5 q-57 0 -94 -38.5t-37 -111.5v-20q0 -81 37 -120.5t94 -39.5zM95 740h150l110 -160h-110z" glyph-name="ograve" horiz-adv-x="600" unicode="ò"/>
<glyph d="M300 -12q-54 0 -102.5 16.5t-84.5 50.5t-57 85t-21 120v20q0 65 21 114t57 82t84.5 49.5t102.5 16.5t102 -16.5t84.5 -49.5t57.5 -82t21 -114v-20q0 -68 -21 -119t-57.5 -85t-84.5 -51t-102 -17zM300 100q56 0 93.5 40t37.5 120v20q0 73 -37.5 111.5t-93.5 38.5 q-57 0 -94 -38.5t-37 -111.5v-20q0 -81 37 -120.5t94 -39.5zM355 740h150l-150 -160h-110z" glyph-name="oacute" horiz-adv-x="600" unicode="ó"/>
<glyph d="M300 -12q-54 0 -102.5 16.5t-84.5 50.5t-57 85t-21 120v20q0 65 21 114t57 82t84.5 49.5t102.5 16.5t102 -16.5t84.5 -49.5t57.5 -82t21 -114v-20q0 -68 -21 -119t-57.5 -85t-84.5 -51t-102 -17zM300 100q56 0 93.5 40t37.5 120v20q0 73 -37.5 111.5t-93.5 38.5 q-57 0 -94 -38.5t-37 -111.5v-20q0 -81 37 -120.5t94 -39.5zM235 740h130l110 -160h-110l-65 70l-65 -70h-110z" glyph-name="ocircumflex" horiz-adv-x="600" unicode="ô"/>
<glyph d="M300 -12q-54 0 -102.5 16.5t-84.5 50.5t-57 85t-21 120v20q0 65 21 114t57 82t84.5 49.5t102.5 16.5t102 -16.5t84.5 -49.5t57.5 -82t21 -114v-20q0 -68 -21 -119t-57.5 -85t-84.5 -51t-102 -17zM300 100q56 0 93.5 40t37.5 120v20q0 73 -37.5 111.5t-93.5 38.5 q-57 0 -94 -38.5t-37 -111.5v-20q0 -81 37 -120.5t94 -39.5zM360 590q-23 0 -39.5 7t-30 15.5t-25.5 15.5t-25 7q-14 0 -23 -6t-15 -14q-7 -9 -12 -20l-60 35q8 28 23 50q13 19 34 34.5t53 15.5q22 0 39 -7t30.5 -15.5t25.5 -15.5t25 -7t22.5 6t15.5 14q7 9 12 20l60 -35 q-8 -28 -23 -50q-13 -19 -34 -34.5t-53 -15.5z" glyph-name="otilde" horiz-adv-x="600" unicode="õ"/>
<glyph d="M300 -12q-54 0 -102.5 16.5t-84.5 50.5t-57 85t-21 120v20q0 65 21 114t57 82t84.5 49.5t102.5 16.5t102 -16.5t84.5 -49.5t57.5 -82t21 -114v-20q0 -68 -21 -119t-57.5 -85t-84.5 -51t-102 -17zM300 100q56 0 93.5 40t37.5 120v20q0 73 -37.5 111.5t-93.5 38.5 q-57 0 -94 -38.5t-37 -111.5v-20q0 -81 37 -120.5t94 -39.5zM194 586q-32 0 -53 21t-21 53t21 53t53 21t53 -21t21 -53t-21 -53t-53 -21zM406 586q-32 0 -53 21t-21 53t21 53t53 21t53 -21t21 -53t-21 -53t-53 -21z" glyph-name="odieresis" horiz-adv-x="600" unicode="ö"/>
<glyph d="M285 482q-35 0 -60 25t-25 60q0 37 25 61t60 24t60 -24t25 -61q0 -35 -25 -60t-60 -25zM285 68q-35 0 -60 25t-25 60q0 37 25 61t60 24t60 -24t25 -61q0 -35 -25 -60t-60 -25zM40 422h490v-124h-490v124z" glyph-name="divide" unicode="÷"/>
<glyph d="M300 430q-57 0 -94 -38.5t-37 -111.5v-20q0 -49 14 -83l193 229q-32 24 -76 24zM300 100q56 0 93.5 40t37.5 120v20q0 41 -14 74l-193 -231q32 -23 76 -23zM300 -12q-89 0 -155 42l-35 -42l-50 42l36 43q-29 33 -45 79.5t-16 107.5v20q0 65 21 114t57 82t84.5 49.5 t102.5 16.5q88 0 154 -42l36 42l50 -42l-36 -43q29 -32 45 -76t16 -101v-20q0 -68 -21 -119t-57.5 -85t-84.5 -51t-102 -17z" glyph-name="oslash" horiz-adv-x="600" unicode="ø"/>
<glyph d="M242 -12q-93 0 -140 52.5t-47 162.5v327h132v-309q0 -60 23.5 -90.5t79.5 -30.5q30 0 51 10t35 26.5t20.5 38.5t6.5 46v309h132v-530h-122v78q-19 -36 -60.5 -63t-110.5 -27zM90 740h150l110 -160h-110z" glyph-name="ugrave" horiz-adv-x="595" unicode="ù"/>
<glyph d="M242 -12q-93 0 -140 52.5t-47 162.5v327h132v-309q0 -60 23.5 -90.5t79.5 -30.5q30 0 51 10t35 26.5t20.5 38.5t6.5 46v309h132v-530h-122v78q-19 -36 -60.5 -63t-110.5 -27zM350 740h150l-150 -160h-110z" glyph-name="uacute" horiz-adv-x="595" unicode="ú"/>
<glyph d="M242 -12q-93 0 -140 52.5t-47 162.5v327h132v-309q0 -60 23.5 -90.5t79.5 -30.5q30 0 51 10t35 26.5t20.5 38.5t6.5 46v309h132v-530h-122v78q-19 -36 -60.5 -63t-110.5 -27zM230 740h130l110 -160h-110l-65 70l-65 -70h-110z" glyph-name="ucircumflex" horiz-adv-x="595" unicode="û"/>
<glyph d="M242 -12q-93 0 -140 52.5t-47 162.5v327h132v-309q0 -60 23.5 -90.5t79.5 -30.5q30 0 51 10t35 26.5t20.5 38.5t6.5 46v309h132v-530h-122v78q-19 -36 -60.5 -63t-110.5 -27zM189 586q-32 0 -53 21t-21 53t21 53t53 21t53 -21t21 -53t-21 -53t-53 -21zM401 586 q-32 0 -53 21t-21 53t21 53t53 21t53 -21t21 -53t-21 -53t-53 -21z" glyph-name="udieresis" horiz-adv-x="595" unicode="ü"/>
<glyph d="M150 -212q-15 0 -30 3v112q15 -3 30 -3q30 0 46.5 22.5t37.5 77.5l-224 530h148l144 -366l132 366h136l-204 -530q-22 -56 -41.5 -96.5t-43.5 -66t-55 -37.5t-76 -12zM351 740h150l-150 -160h-110z" glyph-name="yacute" horiz-adv-x="580" unicode="ý"/>
<glyph d="M324 100q52 0 87 39.5t35 120.5v20q0 75 -34 112.5t-88 37.5q-57 0 -94.5 -32.5t-37.5 -98.5v-60q0 -70 36.5 -104.5t95.5 -34.5zM60 700h132v-243q26 38 67.5 61.5t95.5 23.5q106 0 165.5 -65.5t59.5 -196.5v-20q0 -137 -60.5 -204.5t-164.5 -67.5q-54 0 -95.5 23.5 t-67.5 61.5v-273h-132v900z" glyph-name="thorn" horiz-adv-x="615" unicode="þ"/>
<glyph d="M150 -212q-15 0 -30 3v112q15 -3 30 -3q30 0 46.5 22.5t37.5 77.5l-224 530h148l144 -366l132 366h136l-204 -530q-22 -56 -41.5 -96.5t-43.5 -66t-55 -37.5t-76 -12zM190 586q-32 0 -53 21t-21 53t21 53t53 21t53 -21t21 -53t-21 -53t-53 -21zM402 586q-32 0 -53 21 t-21 53t21 53t53 21t53 -21t21 -53t-21 -53t-53 -21z" glyph-name="ydieresis" horiz-adv-x="580" unicode="ÿ"/>
<glyph d="M70 530h132v-530h-132v530z" glyph-name="dotlessi" horiz-adv-x="272" unicode="ı"/>
<glyph d="M120 227l-100 -58v124l100 58v349h150v-262l160 92v-124l-160 -92v-190h320v-124h-470v227z" glyph-name="Lslash" horiz-adv-x="610" unicode="Ł"/>
<glyph d="M275 -6q-46 0 -79 8.5t-54.5 29.5t-31.5 56.5t-10 88.5v101l-80 -46v125l80 46v297h132v-221l108 63v-125l-108 -63v-161q0 -51 15 -69t58 -18q11 0 19 0.5t16 1.5v-111q-8 -2 -29 -2.5t-36 -0.5z" glyph-name="lslash" horiz-adv-x="375" unicode="ł"/>
<glyph d="M380 114q34 0 65.5 11.5t55.5 38.5t38.5 71t14.5 110v20q0 62 -14.5 104t-38.5 68t-55.5 37.5t-65.5 11.5t-65.5 -11.5t-55.5 -37.5t-38.5 -68t-14.5 -104v-20q0 -66 14.5 -110t38.5 -71t55.5 -38.5t65.5 -11.5zM375 -12q-64 0 -122.5 20t-103.5 63t-72 110.5t-27 163.5 v20q0 92 27 157.5t72 107.5t103.5 62t122.5 20q54 0 100.5 -14t84.5 -47v49h490v-124h-339v-154h309v-124h-309v-174h339v-124h-490v49q-38 -33 -84.5 -47t-100.5 -14z" glyph-name="OE" horiz-adv-x="1100" unicode="Œ"/>
<glyph d="M695 434q-23 0 -45.5 -6t-39.5 -19t-28 -35t-12 -53h247q-1 33 -10.5 55t-26 35t-38.5 18t-47 5zM300 100q56 0 93.5 40t37.5 120v20q0 73 -37.5 111.5t-93.5 38.5q-57 0 -94 -38.5t-37 -111.5v-20q0 -81 37 -120.5t94 -39.5zM300 -12q-54 0 -102.5 16.5t-84.5 50.5 t-57 85t-21 120v20q0 65 21 114t57 82t84.5 49.5t102.5 16.5q61 0 112 -21.5t86 -63.5q33 43 82.5 64t109.5 21q125 0 190 -66t65 -191v-56h-375q1 -35 12 -60.5t29 -41.5t41.5 -23.5t47.5 -7.5q51 0 77 15t37 44h121q-16 -83 -79 -125t-156 -42q-63 0 -114.5 21.5 t-86.5 66.5q-35 -45 -86 -66.5t-113 -21.5z" glyph-name="oe" horiz-adv-x="980" unicode="œ"/>
<glyph d="M330 -12q-139 0 -210 57t-75 150h150q4 -20 12 -35t24 -25t40 -15.5t59 -5.5q72 0 103.5 19.5t31.5 55.5q0 44 -41.5 66.5t-132.5 40.5q-54 10 -96 26.5t-71 42t-44 61.5t-15 86q0 45 18.5 82t53 63.5t83.5 40.5t110 14q66 0 114 -14t80.5 -40t49.5 -62t21 -81h-150 q-7 36 -32 53.5t-83 17.5q-59 0 -87 -19t-28 -51q0 -38 38.5 -60.5t121.5 -38.5q57 -11 101.5 -27t75 -41t47 -61.5t16.5 -87.5q0 -97 -74.5 -154.5t-210.5 -57.5zM150 900h120l60 -60l60 60h120l-110 -150h-140z" glyph-name="Scaron" horiz-adv-x="660" unicode="Š"/>
<glyph d="M275 -12q-65 0 -109.5 14t-72 37t-41.5 53t-17 63h132q5 -26 31 -42.5t77 -16.5q58 0 83 16t25 41q0 13 -6 22.5t-20.5 17.5t-39.5 14t-63 12q-43 6 -80 17t-64.5 30t-43.5 47.5t-16 69.5q0 33 15 62t44 50.5t71 34t95 12.5q57 0 97.5 -14t66.5 -37.5t39 -53.5t17 -62 h-132q-8 29 -31 44t-57 15q-50 0 -71.5 -15.5t-21.5 -38.5q0 -12 5 -21t18.5 -16t37 -12.5t59.5 -10.5q45 -6 83.5 -17.5t67.5 -30.5t45.5 -48t16.5 -69q0 -36 -15 -66.5t-45 -53t-75 -35t-105 -12.5zM100 740h110l65 -70l65 70h110l-110 -160h-130z" glyph-name="scaron" horiz-adv-x="550" unicode="š"/>
<glyph d="M275 267l-265 433h176l167 -281l157 281h160l-245 -433v-267h-150v267zM228 745q-35 0 -57.5 22.5t-22.5 57.5t22.5 57.5t57.5 22.5t57.5 -22.5t22.5 -57.5t-22.5 -57.5t-57.5 -22.5zM468 745q-35 0 -57.5 22.5t-22.5 57.5t22.5 57.5t57.5 22.5t57.5 -22.5t22.5 -57.5 t-22.5 -57.5t-57.5 -22.5z" glyph-name="Ydieresis" horiz-adv-x="680" unicode="Ÿ"/>
<glyph d="M35 109l360 467h-350v124h530v-109l-360 -467h370v-124h-550v109zM130 900h120l60 -60l60 60h120l-110 -150h-140z" glyph-name="Zcaron" horiz-adv-x="620" unicode="Ž"/>
<glyph d="M30 95l274 325h-264v110h430v-95l-274 -325h284v-110h-450v95zM80 740h110l65 -70l65 70h110l-110 -160h-130z" glyph-name="zcaron" horiz-adv-x="510" unicode="ž"/>
<glyph d="M42 -212q-8 0 -27.5 0.5t-27.5 2.5v112q8 -2 22.5 -2.5t22.5 -0.5q31 0 44.5 13t13.5 41v466h-65v110h65v20q0 76 42.5 116t147.5 40q15 0 37.5 -0.5t37.5 -2.5v-112q-15 2 -32.5 2.5t-32.5 0.5q-38 0 -53 -13t-15 -41v-10h123v-110h-123v-476q0 -76 -41 -116t-139 -40z " glyph-name="florin" horiz-adv-x="370" unicode="ƒ"/>
<glyph d="M22 -212q-11 0 -25 0.5t-25 2.5v112q8 -2 17.5 -2.5t17.5 -0.5q18 0 30 5t19.5 17t10.5 33.5t3 54.5v520h132v-530q0 -63 -8.5 -104t-29.5 -65t-55.5 -33.5t-86.5 -9.5z" glyph-name="uni0237" horiz-adv-x="272" unicode="ȷ"/>
<glyph d="M85 570v130h140v-130l-112 -160h-68z" glyph-name="uni02BC" horiz-adv-x="285" unicode="ʼ"/>
<glyph d="M130 740h130l110 -160h-110l-65 70l-65 -70h-110z" glyph-name="circumflex" horiz-adv-x="390" unicode="ˆ"/>
<glyph d="M20 740h110l65 -70l65 70h110l-110 -160h-130z" glyph-name="caron" horiz-adv-x="390" unicode="ˇ"/>
<glyph d="M100 580q-35 0 -57.5 22.5t-22.5 57.5t22.5 57.5t57.5 22.5t57.5 -22.5t22.5 -57.5t-22.5 -57.5t-57.5 -22.5z" glyph-name="dotaccent" horiz-adv-x="200" unicode="˙"/>
<glyph d="M145 643q17 0 27 10t10 27t-10 27t-27 10t-27 -10t-10 -27t10 -27t27 -10zM145 565q-27 0 -49.5 9t-39.5 24.5t-26.5 36.5t-9.5 45t9.5 45t26.5 36.5t39.5 24.5t49.5 9t49.5 -9t39.5 -24.5t26.5 -36.5t9.5 -45t-9.5 -45t-26.5 -36.5t-39.5 -24.5t-49.5 -9z" glyph-name="ring" horiz-adv-x="290" unicode="˚"/>
<glyph d="M250 590q-23 0 -39.5 7t-30 15.5t-25.5 15.5t-25 7q-14 0 -23 -6t-15 -14q-7 -9 -12 -20l-60 35q8 28 23 50q13 19 34 34.5t53 15.5q22 0 39 -7t30.5 -15.5t25.5 -15.5t25 -7t22.5 6t15.5 14q7 9 12 20l60 -35q-8 -28 -23 -50q-13 -19 -34 -34.5t-53 -15.5z" glyph-name="tilde" horiz-adv-x="380" unicode="˜"/>
<glyph d="M271 580l123 160h143l-163 -160h-103zM63 580l84 160h137l-123 -160h-98z" glyph-name="hungarumlaut" horiz-adv-x="587" unicode="˝"/>
<glyph d="M80 700h490v-124h-339v-156h309v-120h-309v-176h339v-124h-490v700zM205 745q-35 0 -57.5 22.5t-22.5 57.5t22.5 57.5t57.5 22.5t57.5 -22.5t22.5 -57.5t-22.5 -57.5t-57.5 -22.5zM445 745q-35 0 -57.5 22.5t-22.5 57.5t22.5 57.5t57.5 22.5t57.5 -22.5t22.5 -57.5 t-22.5 -57.5t-57.5 -22.5z" glyph-name="uni0401" horiz-adv-x="620" unicode="Ё"/>
<glyph d="M245 576h-225v124h600v-124h-225v-163q26 17 70.5 31t104.5 14q109 0 167 -58t58 -168v-20q0 -104 -61.5 -161t-193.5 -57q-8 0 -25 0.5t-25 2.5v126q8 -2 20 -2.5t20 -0.5q52 0 80.5 27t28.5 69v20q0 42 -28.5 69t-80.5 27q-47 0 -80.5 -12.5t-54.5 -26.5v-293h-150v576 z" glyph-name="uni0402" horiz-adv-x="830" unicode="Ђ"/>
<glyph d="M80 700h460v-124h-310v-576h-150v700zM365 900h160l-150 -150h-120z" glyph-name="uni0403" horiz-adv-x="560" unicode="Ѓ"/>
<glyph d="M365 -12q-66 0 -123.5 20t-100 62.5t-67 110.5t-24.5 164v20q0 90 24 155.5t66.5 108t100 63t124.5 20.5q59 0 111 -14t91.5 -43.5t64 -75.5t28.5 -109h-156q-11 60 -48 88t-91 28q-62 0 -104.5 -39.5t-52.5 -131.5h242v-118h-242q5 -51 19.5 -86t36 -56.5t47.5 -31 t54 -9.5q57 0 94 29.5t45 86.5h156q-5 -66 -29 -112t-63 -75t-91 -42t-112 -13z" glyph-name="uni0404" horiz-adv-x="700" unicode="Є"/>
<glyph d="M330 -12q-139 0 -210 57t-75 150h150q4 -20 12 -35t24 -25t40 -15.5t59 -5.5q72 0 103.5 19.5t31.5 55.5q0 44 -41.5 66.5t-132.5 40.5q-54 10 -96 26.5t-71 42t-44 61.5t-15 86q0 45 18.5 82t53 63.5t83.5 40.5t110 14q66 0 114 -14t80.5 -40t49.5 -62t21 -81h-150 q-7 36 -32 53.5t-83 17.5q-59 0 -87 -19t-28 -51q0 -38 38.5 -60.5t121.5 -38.5q57 -11 101.5 -27t75 -41t47 -61.5t16.5 -87.5q0 -97 -74.5 -154.5t-210.5 -57.5z" glyph-name="uni0405" horiz-adv-x="660" unicode="Ѕ"/>
<glyph d="M90 700h150v-700h-150v700z" glyph-name="uni0406" horiz-adv-x="330" unicode="І"/>
<glyph d="M90 700h150v-700h-150v700zM46 745q-35 0 -57.5 22.5t-22.5 57.5t22.5 57.5t57.5 22.5t57.5 -22.5t22.5 -57.5t-22.5 -57.5t-57.5 -22.5zM286 745q-35 0 -57.5 22.5t-22.5 57.5t22.5 57.5t57.5 22.5t57.5 -22.5t22.5 -57.5t-22.5 -57.5t-57.5 -22.5z" glyph-name="uni0407" horiz-adv-x="330" unicode="Ї"/>
<glyph d="M255 -12q-112 0 -169.5 60t-60.5 172h142q4 -105 88 -105q47 0 68.5 30t21.5 105v450h150v-450q0 -71 -16.5 -120.5t-47.5 -81t-75.5 -46t-100.5 -14.5z" glyph-name="uni0408" horiz-adv-x="575" unicode="Ј"/>
<glyph d="M730 124q80 0 112.5 27t32.5 74t-32.5 74t-112.5 27h-95v-202h95zM65 -12q-8 0 -20 0.5t-20 2.5v134q5 -1 15 -1q26 0 44 11.5t29.5 50.5t16.5 113.5t5 200.5v200h500v-250h110q71 0 124 -16t87.5 -45.5t51.5 -71t17 -92.5t-17 -92.5t-51.5 -71t-87.5 -45.5t-124 -16 h-260v576h-208v-96q0 -159 -14 -256t-41 -149.5t-66.5 -69.5t-90.5 -17z" glyph-name="uni0409" horiz-adv-x="1055" unicode="Љ"/>
<glyph d="M775 124q39 0 65 6t41.5 17.5t22 28.5t6.5 40t-6.5 40t-22 28.5t-41.5 17.5t-65 6h-105v-184h105zM80 700h150v-268h290v268h150v-268h120q69 0 120 -15.5t84.5 -43.5t49.5 -68t16 -89t-16 -89t-49.5 -68t-84.5 -43.5t-120 -15.5h-270v308h-290v-308h-150v700z" glyph-name="uni040A" horiz-adv-x="1090" unicode="Њ"/>
<glyph d="M245 576h-225v124h600v-124h-225v-163q26 17 70.5 31t104.5 14q114 0 169.5 -56t55.5 -177v-225h-150v205q0 68 -27.5 97.5t-87.5 29.5q-47 0 -80.5 -12.5t-54.5 -26.5v-293h-150v576z" glyph-name="uni040B" horiz-adv-x="845" unicode="Ћ"/>
<glyph d="M80 700h150v-285h60l224 285h166l-275 -331l285 -369h-176l-224 305h-60v-305h-150v700zM421 900h160l-150 -150h-120z" glyph-name="uni040C" horiz-adv-x="710" unicode="Ќ"/>
<glyph d="M205 -12q-11 0 -21.5 1t-18.5 2v119q8 -1 18.5 -1.5t21.5 -0.5q22 0 35.5 4t22.5 12.5t16 22t16 32.5l-285 521h162l196 -375l156 375h156l-237 -540q-21 -47 -42.5 -79.5t-48.5 -53t-62.5 -30t-84.5 -9.5zM348 740q-98 0 -144 43.5t-46 126.5h126q0 -48 16 -66t48 -18 t48 18t16 66h126q0 -83 -46 -126.5t-144 -43.5z" glyph-name="uni040E" horiz-adv-x="690" unicode="Ў"/>
<glyph d="M303 0h-223v700h150v-576h280v576h150v-700h-223v-130h-134v130z" glyph-name="uni040F" horiz-adv-x="740" unicode="Џ"/>
<glyph d="M468 143h-259l-53 -143h-146l260 700h150l260 -700h-158zM255 267h168l-84 243z" glyph-name="uni0410" horiz-adv-x="690" unicode="А"/>
<glyph d="M345 124q82 0 113.5 25.5t31.5 71.5t-31.5 71.5t-113.5 25.5h-115v-194h115zM80 700h495v-124h-345v-134h130q72 0 124.5 -16t87 -45t51.5 -69.5t17 -90.5t-17 -90.5t-51.5 -69.5t-87 -45t-124.5 -16h-280v700z" glyph-name="uni0411" horiz-adv-x="675" unicode="Б"/>
<glyph d="M80 700h300q118 0 174 -49.5t56 -137.5q0 -54 -26.5 -92.5t-72.5 -55.5q60 -14 94.5 -56.5t34.5 -110.5q0 -45 -14 -81.5t-43.5 -62.5t-76.5 -40t-113 -14h-313v700zM366 114q70 0 97 24t27 71t-27 73.5t-98 26.5h-135v-195h136zM350 411q61 0 85.5 24t24.5 65 q0 42 -24 64t-85 22h-121v-175h120z" glyph-name="uni0412" horiz-adv-x="680" unicode="В"/>
<glyph d="M80 700h460v-124h-310v-576h-150v700z" glyph-name="uni0413" horiz-adv-x="560" unicode="Г"/>
<glyph d="M494 124v452h-201v-56q0 -137 -13 -231t-37 -165h251zM20 124h78q15 35 25 84.5t16 105t9 114t3 112.5v160h493v-576h76v-254h-134v130h-432v-130h-134v254z" glyph-name="uni0414" horiz-adv-x="750" unicode="Д"/>
<glyph d="M80 700h490v-124h-339v-156h309v-120h-309v-176h339v-124h-490v700z" glyph-name="uni0415" horiz-adv-x="620" unicode="Е"/>
<glyph d="M260 364l-230 336h160l185 -285h50v285h150v-285h50l191 285h154l-230 -329l240 -371h-166l-189 305h-50v-305h-150v305h-50l-191 -305h-164z" glyph-name="uni0416" horiz-adv-x="1000" unicode="Ж"/>
<glyph d="M325 -12q-139 0 -212 62.5t-78 169.5h156q5 -51 37 -78.5t97 -27.5q70 0 102 26t32 71t-30.5 71.5t-108.5 26.5h-74v102h74q31 0 53 7.5t35.5 20t19.5 29.5t6 36q0 37 -26 59.5t-83 22.5q-58 0 -86.5 -21.5t-32.5 -69.5h-156q5 106 72 161.5t203 55.5q135 0 200 -52.5 t65 -145.5q0 -55 -27 -93.5t-79 -55.5q64 -15 97.5 -57.5t33.5 -110.5q0 -46 -18 -84.5t-54 -66t-90.5 -43t-127.5 -15.5z" glyph-name="uni0417" horiz-adv-x="657" unicode="З"/>
<glyph d="M80 700h150v-465l305 465h145v-700h-150v465l-306 -465h-144v700z" glyph-name="uni0418" horiz-adv-x="760" unicode="И"/>
<glyph d="M80 700h150v-465l305 465h145v-700h-150v465l-306 -465h-144v700zM380 740q-98 0 -144 43.5t-46 126.5h126q0 -48 16 -66t48 -18t48 18t16 66h126q0 -83 -46 -126.5t-144 -43.5z" glyph-name="uni0419" horiz-adv-x="760" unicode="Й"/>
<glyph d="M80 700h150v-285h60l224 285h166l-275 -331l285 -369h-176l-224 305h-60v-305h-150v700z" glyph-name="uni041A" horiz-adv-x="710" unicode="К"/>
<glyph d="M65 -12q-8 0 -20 0.5t-20 2.5v134q5 -1 15 -1q26 0 44 11.5t29.5 50.5t16.5 113.5t5 200.5v200h510v-700h-150v576h-218v-96q0 -159 -14 -256t-41 -149.5t-66.5 -69.5t-90.5 -17z" glyph-name="uni041B" horiz-adv-x="725" unicode="Л"/>
<glyph d="M80 700h150l213 -394l212 394h145v-700h-150v445l-165 -305h-90l-165 305v-445h-150v700z" glyph-name="uni041C" horiz-adv-x="880" unicode="М"/>
<glyph d="M80 700h150v-278h300v278h150v-700h-150v298h-300v-298h-150v700z" glyph-name="uni041D" horiz-adv-x="760" unicode="Н"/>
<glyph d="M380 -12q-66 0 -125.5 20t-105 63t-72.5 110.5t-27 163.5v20q0 92 27 157.5t72.5 107.5t105 62t125.5 20t125.5 -20t105 -62t72.5 -107.5t27 -157.5v-20q0 -96 -27 -163.5t-72.5 -110.5t-105 -63t-125.5 -20zM380 114q34 0 65.5 11.5t55.5 38.5t38.5 71t14.5 110v20 q0 62 -14.5 104t-38.5 68t-55.5 37.5t-65.5 11.5t-65.5 -11.5t-55.5 -37.5t-38.5 -68t-14.5 -104v-20q0 -66 14.5 -110t38.5 -71t55.5 -38.5t65.5 -11.5z" glyph-name="uni041E" horiz-adv-x="760" unicode="О"/>
<glyph d="M80 700h590v-700h-150v576h-290v-576h-150v700z" glyph-name="uni041F" horiz-adv-x="750" unicode="П"/>
<glyph d="M80 700h270q142 0 211 -62.5t69 -167.5t-69 -167.5t-211 -62.5h-120v-240h-150v700zM335 364q80 0 112.5 27t32.5 79q0 51 -32.5 78.5t-112.5 27.5h-105v-212h105z" glyph-name="uni0420" horiz-adv-x="665" unicode="Р"/>
<glyph d="M365 -12q-69 0 -126.5 20t-99.5 62.5t-65.5 110.5t-23.5 164v20q0 92 24.5 157.5t67 107.5t100 62t123.5 20q59 0 111 -14t91.5 -43.5t64 -75.5t28.5 -109h-156q-11 60 -48 88t-91 28q-31 0 -59.5 -11t-50.5 -37t-35.5 -68t-13.5 -105v-20q0 -66 14 -110.5t36.5 -71 t51 -38t57.5 -11.5q57 0 94 29.5t45 86.5h156q-5 -66 -29 -112t-63 -75t-91 -42t-112 -13z" glyph-name="uni0421" horiz-adv-x="700" unicode="С"/>
<glyph d="M245 576h-225v124h600v-124h-225v-576h-150v576z" glyph-name="uni0422" horiz-adv-x="640" unicode="Т"/>
<glyph d="M205 -12q-11 0 -21.5 1t-18.5 2v119q8 -1 18.5 -1.5t21.5 -0.5q22 0 35.5 4t22.5 12.5t16 22t16 32.5l-285 521h162l196 -375l156 375h156l-237 -540q-21 -47 -42.5 -79.5t-48.5 -53t-62.5 -30t-84.5 -9.5z" glyph-name="uni0423" horiz-adv-x="690" unicode="У"/>
<glyph d="M201 350q0 -97 42 -144.5t132 -47.5v384q-88 0 -131 -45t-43 -127v-20zM700 370q0 82 -44 127t-131 45v-384q175 0 175 192v20zM375 32q-79 0 -140.5 22.5t-103.5 64.5t-64 100.5t-22 130.5v20q0 64 22 119t64 94.5t103.5 62t140.5 22.5v62h150v-62q78 0 139.5 -22.5 t104 -62t64.5 -94.5t22 -119v-20q0 -72 -22 -130.5t-64.5 -100.5t-104 -64.5t-139.5 -22.5v-62h-150v62z" glyph-name="uni0424" horiz-adv-x="900" unicode="Ф"/>
<glyph d="M255 365l-225 335h168l154 -229l155 229h163l-223 -332l233 -368h-169l-162 262l-163 -262h-166z" glyph-name="uni0425" horiz-adv-x="700" unicode="Х"/>
<glyph d="M611 0h-531v700h150v-576h280v576h150v-576h85v-254h-134v130z" glyph-name="uni0426" horiz-adv-x="775" unicode="Ц"/>
<glyph d="M450 287q-26 -17 -70.5 -31t-104.5 -14q-114 0 -169.5 56t-55.5 177v225h150v-205q0 -68 27.5 -97.5t87.5 -29.5q47 0 80.5 12.5t54.5 26.5v293h150v-700h-150v287z" glyph-name="uni0427" horiz-adv-x="680" unicode="Ч"/>
<glyph d="M80 700h150v-576h190v576h150v-576h190v576h150v-700h-830v700z" glyph-name="uni0428" horiz-adv-x="990" unicode="Ш"/>
<glyph d="M80 700h150v-576h190v576h150v-576h190v576h150v-576h85v-254h-134v130h-781v700z" glyph-name="uni0429" horiz-adv-x="1025" unicode="Щ"/>
<glyph d="M415 124q80 0 112.5 27t32.5 74t-32.5 74t-112.5 27h-105v-202h105zM160 576h-140v124h290v-250h120q71 0 124 -16t87.5 -45.5t51.5 -71t17 -92.5t-17 -92.5t-51.5 -71t-87.5 -45.5t-124 -16h-270v576z" glyph-name="uni042A" horiz-adv-x="740" unicode="Ъ"/>
<glyph d="M680 700h150v-700h-150v700zM315 124q80 0 112.5 27t32.5 74t-32.5 74t-112.5 27h-85v-202h85zM80 700h150v-250h100q71 0 124 -16t87.5 -45.5t51.5 -71t17 -92.5t-17 -92.5t-51.5 -71t-87.5 -45.5t-124 -16h-250v700z" glyph-name="uni042B" horiz-adv-x="910" unicode="Ы"/>
<glyph d="M335 124q80 0 112.5 27t32.5 74t-32.5 74t-112.5 27h-105v-202h105zM80 700h150v-250h120q71 0 124 -16t87.5 -45.5t51.5 -71t17 -92.5t-17 -92.5t-51.5 -71t-87.5 -45.5t-124 -16h-270v700z" glyph-name="uni042C" horiz-adv-x="660" unicode="Ь"/>
<glyph d="M335 -12q-60 0 -112 13t-91 42t-63 75t-29 112h156q8 -57 45 -86.5t94 -29.5q28 0 54 9.5t47.5 31t36 56.5t19.5 86h-242v118h241q-10 92 -52.5 131.5t-103.5 39.5q-54 0 -91 -28t-48 -88h-156q4 63 28.5 109t64 75.5t91.5 43.5t111 14q67 0 124.5 -20.5t100 -63 t66.5 -108t24 -155.5v-20q0 -96 -24.5 -164t-67 -110.5t-100 -62.5t-123.5 -20z" glyph-name="uni042D" horiz-adv-x="700" unicode="Э"/>
<glyph d="M615 114q32 0 59 11.5t47 38.5t31.5 71t11.5 110v20q0 62 -11.5 104t-31.5 68t-47 37.5t-59 11.5t-59 -11.5t-47 -37.5t-31.5 -68t-11.5 -104v-20q0 -66 11.5 -110t31.5 -71t47 -38.5t59 -11.5zM80 700h150v-278h88q7 76 32.5 130.5t65 90t90.5 52.5t109 17 q66 0 122 -19.5t96.5 -61.5t63.5 -107.5t23 -158.5v-20q0 -95 -23.5 -162.5t-64.5 -111t-96.5 -63.5t-120.5 -20q-60 0 -112 17t-91.5 54.5t-64 96.5t-30.5 142h-87v-298h-150v700z" glyph-name="uni042E" horiz-adv-x="970" unicode="Ю"/>
<glyph d="M215 475q0 -25 7 -44t24 -31.5t44.5 -19t69.5 -6.5h105v202h-105q-42 0 -69.5 -6.5t-44.5 -19t-24 -31.5t-7 -44zM214 272q-75 24 -112 77t-37 126q0 51 17 92.5t50 71t82.5 45.5t115.5 16h285v-700h-150v256h-111l-155 -256h-164z" glyph-name="uni042F" horiz-adv-x="695" unicode="Я"/>
<glyph d="M219 -12q-43 0 -76 12.5t-56 35t-35 53t-12 66.5q0 160 190 160h158v25q0 52 -23.5 73t-74.5 21q-45 0 -65 -15.5t-23 -38.5h-132q2 34 17.5 64t44 51.5t69.5 34t94 12.5q51 0 92.5 -11t71 -35.5t45.5 -63.5t16 -94v-203q0 -42 1.5 -73.5t5.5 -61.5h-123q-4 22 -4.5 33.5 t-0.5 34.5q-22 -32 -66.5 -56t-113.5 -24zM260 90q24 0 47 6.5t41 20t29 34.5t11 49v25h-133q-38 0 -59.5 -17.5t-21.5 -47.5q0 -32 22 -51t64 -19z" glyph-name="uni0430" horiz-adv-x="575" unicode="а"/>
<glyph d="M300 100q60 0 93 39.5t33 112.5v20q0 63 -34 99t-92 36q-57 0 -91.5 -36t-34.5 -99v-18q0 -36 9.5 -65t26.5 -48.5t40 -30t50 -10.5zM300 -12q-56 0 -103.5 19t-82.5 57.5t-54.5 95t-19.5 131.5v23q0 90 13.5 160t45 119t84 76.5t131.5 31.5q31 1 61 2t57 3t49 6.5 t39 12.5v-117q-16 -9 -59.5 -15t-131.5 -7q-45 -1 -77.5 -10.5t-54 -30t-34 -53.5t-17.5 -81q23 45 69 73t120 28q50 0 91 -15.5t71 -45.5t46.5 -74t16.5 -102v-19q0 -63 -19.5 -113t-54.5 -84.5t-82.5 -52.5t-103.5 -18z" glyph-name="uni0431" horiz-adv-x="595" unicode="б"/>
<glyph d="M307 318q46 0 63.5 13t17.5 40q0 26 -18 39.5t-63 13.5h-115v-106h115zM320 106q45 0 66.5 13.5t21.5 43.5t-20.5 43.5t-67.5 13.5h-128v-114h128zM60 530h266q51 0 87.5 -10.5t60.5 -29.5t35 -45t11 -57q0 -37 -22.5 -69.5t-61.5 -43.5q49 -12 76.5 -45.5t27.5 -78.5 q0 -69 -48 -110t-146 -41h-286v530z" glyph-name="uni0432" horiz-adv-x="575" unicode="в"/>
<glyph d="M70 530h380v-110h-248v-420h-132v530z" glyph-name="uni0433" horiz-adv-x="470" unicode="г"/>
<glyph d="M403 110v310h-162v-70q0 -35 -2 -69t-5.5 -65.5t-9.5 -58.5t-15 -47h194zM20 110h60q10 15 18 43.5t12.5 64t7 75t2.5 77.5v160h415v-420h65v-235h-116v125h-348v-125h-116v235z" glyph-name="uni0434" horiz-adv-x="625" unicode="д"/>
<glyph d="M300 -12q-54 0 -102.5 16.5t-84.5 50t-57 85t-21 120.5v20q0 66 20 115t55 81.5t81 49t99 16.5q125 0 190 -66t65 -191v-56h-375q1 -35 12 -60.5t29 -41.5t41.5 -23.5t47.5 -7.5q51 0 77 15t37 44h121q-16 -83 -79 -125t-156 -42zM295 434q-23 0 -45.5 -6t-39.5 -19 t-28 -35t-12 -53h247q-1 33 -10.5 55t-26 35t-38.5 18t-47 5z" glyph-name="uni0435" horiz-adv-x="580" unicode="е"/>
<glyph d="M203 276l-178 254h138l142 -208h39v208h132v-208h40l143 208h136l-177 -251l187 -279h-148l-141 218h-40v-218h-132v218h-40l-145 -218h-144z" glyph-name="uni0436" horiz-adv-x="820" unicode="ж"/>
<glyph d="M270 -12q-115 0 -175 47t-65 135h134q2 -17 8 -30t18 -22t31.5 -13.5t48.5 -4.5q58 0 82 17.5t24 42.5q0 30 -20 45t-71 15h-80v98h73q38 0 58 16t20 42q0 23 -19.5 38.5t-66.5 15.5q-49 0 -70.5 -16.5t-25.5 -48.5h-134q5 86 63 131.5t167 45.5q58 0 99.5 -11 t68.5 -31.5t39.5 -49t12.5 -63.5q0 -38 -19.5 -68t-61.5 -44q57 -14 79 -45.5t22 -74.5q0 -36 -14.5 -66.5t-44 -53t-74.5 -35t-107 -12.5z" glyph-name="uni0437" horiz-adv-x="545" unicode="з"/>
<glyph d="M60 530h132v-340l236 340h122v-530h-132v340l-236 -340h-122v530z" glyph-name="uni0438" horiz-adv-x="610" unicode="и"/>
<glyph d="M60 530h132v-340l236 340h122v-530h-132v340l-236 -340h-122v530zM305 585q-89 0 -129.5 38t-40.5 112h117q0 -39 13.5 -54.5t39.5 -15.5q28 0 41.5 15.5t13.5 54.5h115q0 -74 -40.5 -112t-129.5 -38z" glyph-name="uni0439" horiz-adv-x="610" unicode="й"/>
<glyph d="M60 530h132v-208h50l162 208h146l-200 -251l210 -279h-158l-160 218h-50v-218h-132v530z" glyph-name="uni043A" horiz-adv-x="575" unicode="к"/>
<glyph d="M65 -12q-8 0 -20 0.5t-20 2.5v119q5 -1 15 -1q19 0 33 11.5t23.5 39.5t14 74.5t4.5 115.5v180h420v-530h-132v420h-166v-90q0 -103 -10.5 -169.5t-32 -104.5t-54 -53t-75.5 -15z" glyph-name="uni043B" horiz-adv-x="595" unicode="л"/>
<glyph d="M60 530h156l147 -286l147 286h150v-530h-126v345l-129 -240h-90l-129 240v-345h-126v530z" glyph-name="uni043C" horiz-adv-x="720" unicode="м"/>
<glyph d="M60 530h132v-205h226v205h132v-530h-132v215h-226v-215h-132v530z" glyph-name="uni043D" horiz-adv-x="610" unicode="н"/>
<glyph d="M300 -12q-54 0 -102.5 16.5t-84.5 50.5t-57 85t-21 120v20q0 65 21 114t57 82t84.5 49.5t102.5 16.5t102 -16.5t84.5 -49.5t57.5 -82t21 -114v-20q0 -68 -21 -119t-57.5 -85t-84.5 -51t-102 -17zM300 100q56 0 93.5 40t37.5 120v20q0 73 -37.5 111.5t-93.5 38.5 q-57 0 -94 -38.5t-37 -111.5v-20q0 -81 37 -120.5t94 -39.5z" glyph-name="uni043E" horiz-adv-x="600" unicode="о"/>
<glyph d="M60 530h480v-530h-132v420h-216v-420h-132v530z" glyph-name="uni043F" horiz-adv-x="600" unicode="п"/>
<glyph d="M60 530h123v-78q20 36 63 63t109 27q106 0 165.5 -65.5t59.5 -196.5v-20q0 -137 -60.5 -204.5t-164.5 -67.5q-54 0 -95.5 23.5t-67.5 61.5v-273h-132v730zM324 100q52 0 87 39.5t35 120.5v20q0 75 -34 112.5t-88 37.5q-57 0 -94.5 -32.5t-37.5 -97.5v-60 q0 -71 36.5 -105.5t95.5 -34.5z" glyph-name="uni0440" horiz-adv-x="615" unicode="р"/>
<glyph d="M295 -12q-55 0 -102.5 17t-82.5 51t-55 85t-20 119v20q0 64 21 113t56.5 82t82.5 50t100 17q56 0 99.5 -15t73.5 -41t47 -61t20 -75h-134q-8 37 -32.5 58.5t-73.5 21.5q-26 0 -48.5 -9t-40 -27.5t-27.5 -46.5t-10 -67v-20q0 -42 9.5 -72.5t26.5 -50t40 -28.5t50 -9 q39 0 67.5 20.5t38.5 59.5h134q-5 -44 -24.5 -79.5t-51 -60.5t-73.5 -38.5t-91 -13.5z" glyph-name="uni0441" horiz-adv-x="565" unicode="с"/>
<glyph d="M189 420h-169v110h470v-110h-169v-420h-132v420z" glyph-name="uni0442" horiz-adv-x="510" unicode="т"/>
<glyph d="M150 -212q-15 0 -30 3v112q15 -3 30 -3q30 0 46.5 22.5t37.5 77.5l-224 530h148l144 -366l132 366h136l-204 -530q-22 -56 -41.5 -96.5t-43.5 -66t-55 -37.5t-76 -12z" glyph-name="uni0443" horiz-adv-x="580" unicode="у"/>
<glyph d="M169 260q0 -79 36 -119.5t113 -40.5v330q-78 0 -113.5 -38t-35.5 -111v-21zM591 280q0 75 -35.5 112.5t-113.5 37.5v-330q78 0 113.5 40.5t35.5 119.5v20zM314 -12q-137 0 -208 70t-71 202v20q0 127 71 194.5t208 67.5v158h132v-158q136 0 207.5 -67.5t71.5 -193.5v-21 q0 -132 -71.5 -202t-207.5 -70v-188h-132v188z" glyph-name="uni0444" horiz-adv-x="760" unicode="ф"/>
<glyph d="M195 276l-170 254h147l116 -170l114 170h143l-168 -249l178 -281h-148l-124 198l-123 -198h-145z" glyph-name="uni0445" unicode="х"/>
<glyph d="M489 0h-429v530h132v-420h206v420h132v-420h75v-235h-116v125z" glyph-name="uni0446" horiz-adv-x="630" unicode="ц"/>
<glyph d="M373 195q-23 -14 -55 -25t-78 -11q-97 0 -146 46t-49 145v180h132v-165q0 -52 22 -73t76 -21q38 0 62.5 9t35.5 17v233h132v-530h-132v195z" glyph-name="uni0447" horiz-adv-x="565" unicode="ч"/>
<glyph d="M60 530h132v-420h157v420h132v-420h157v420h132v-530h-710v530z" glyph-name="uni0448" horiz-adv-x="830" unicode="ш"/>
<glyph d="M729 0h-669v530h132v-420h157v420h132v-420h157v420h132v-420h75v-235h-116v125z" glyph-name="uni0449" horiz-adv-x="870" unicode="щ"/>
<glyph d="M370 106q48 0 68 17.5t20 52.5t-20.5 52.5t-67.5 17.5h-98v-140h98zM140 420h-120v110h252v-178h113q205 0 205 -176q0 -39 -11.5 -71.5t-36.5 -55.5t-64 -36t-93 -13h-245v420z" glyph-name="uni044A" horiz-adv-x="615" unicode="ъ"/>
<glyph d="M548 530h132v-530h-132v530zM270 106q48 0 68 17.5t20 52.5t-20.5 52.5t-67.5 17.5h-78v-140h78zM60 530h132v-178h93q205 0 205 -176q0 -39 -11.5 -71.5t-36.5 -55.5t-64 -36t-93 -13h-225v530z" glyph-name="uni044B" horiz-adv-x="740" unicode="ы"/>
<glyph d="M290 106q48 0 68 17.5t20 52.5t-20.5 52.5t-67.5 17.5h-98v-140h98zM60 530h132v-178h113q205 0 205 -176q0 -39 -11.5 -71.5t-36.5 -55.5t-64 -36t-93 -13h-245v530z" glyph-name="uni044C" horiz-adv-x="535" unicode="ь"/>
<glyph d="M270 -12q-50 0 -92 13.5t-73.5 38.5t-51 60.5t-23.5 79.5h134q10 -39 38.5 -59.5t67.5 -20.5q54 0 85 29t39 93h-184v96h183q-8 57 -40 84.5t-83 27.5q-49 0 -73.5 -21.5t-32.5 -58.5h-134q3 40 20 75t47 61t73.5 41t99.5 15t104 -17t82.5 -50t54 -82t19.5 -113v-20 q0 -68 -18.5 -119t-52.5 -85t-82 -51t-107 -17z" glyph-name="uni044D" horiz-adv-x="565" unicode="э"/>
<glyph d="M485 100q24 0 46 9.5t38.5 29t26.5 49.5t10 72v20q0 38 -10 66.5t-26.5 47t-38.5 27.5t-46 9t-46 -9t-38.5 -27.5t-26.5 -47t-10 -66.5v-20q0 -42 10 -72.5t26.5 -50t38.5 -28.5t46 -9zM60 530h132v-205h42q7 54 28.5 94.5t54.5 67.5t75.5 41t92.5 14q54 0 100.5 -16.5 t81 -49.5t54 -82t19.5 -114v-20q0 -68 -19.5 -119t-54 -85t-81 -51t-100.5 -17q-50 0 -93 14t-76 42t-54.5 70.5t-27.5 100.5h-42v-215h-132v530z" glyph-name="uni044E" horiz-adv-x="775" unicode="ю"/>
<glyph d="M182 353q0 -34 22.5 -50t60.5 -16h123v133h-123q-38 0 -60.5 -16.5t-22.5 -50.5zM167 199q-61 20 -89 60t-28 94q0 39 13.5 71.5t40.5 56t68.5 36.5t97.5 13h250v-530h-132v183h-95l-115 -183h-148z" glyph-name="uni044F" horiz-adv-x="580" unicode="я"/>
<glyph d="M300 -12q-54 0 -102.5 16.5t-84.5 50t-57 85t-21 120.5v20q0 66 20 115t55 81.5t81 49t99 16.5q125 0 190 -66t65 -191v-56h-375q1 -35 12 -60.5t29 -41.5t41.5 -23.5t47.5 -7.5q51 0 77 15t37 44h121q-16 -83 -79 -125t-156 -42zM295 434q-23 0 -45.5 -6t-39.5 -19 t-28 -35t-12 -53h247q-1 33 -10.5 55t-26 35t-38.5 18t-47 5zM184 586q-32 0 -53 21t-21 53t21 53t53 21t53 -21t21 -53t-21 -53t-53 -21zM396 586q-32 0 -53 21t-21 53t21 53t53 21t53 -21t21 -53t-21 -53t-53 -21z" glyph-name="uni0451" horiz-adv-x="580" unicode="ё"/>
<glyph d="M110 434h-90v96h90v170h132v-170h218v-96h-218v-137q9 15 23 30t34 27.5t45.5 20t58.5 7.5q93 0 140 -52t47 -150v-180q0 -63 -8.5 -104t-29.5 -65t-55.5 -33.5t-86.5 -9.5q-11 0 -25 0.5t-25 2.5v112q8 -2 17.5 -2.5t17.5 -0.5q18 0 30 5t19.5 17t10.5 33.5t3 54.5v139 q0 60 -24 90.5t-79 30.5q-30 0 -51 -10t-35 -26.5t-20.5 -38.5t-6.5 -46v-149h-132v434z" glyph-name="uni0452" horiz-adv-x="640" unicode="ђ"/>
<glyph d="M70 530h380v-110h-248v-420h-132v530zM315 740h150l-150 -160h-110z" glyph-name="uni0453" horiz-adv-x="470" unicode="ѓ"/>
<glyph d="M295 -12q-55 0 -102.5 17t-82.5 51t-55 85t-20 119v20q0 64 21 113t56.5 82t82.5 50t100 17q56 0 99.5 -15t73.5 -41t47 -61t20 -75h-134q-8 37 -32.5 58.5t-73.5 21.5q-45 0 -79.5 -27.5t-43.5 -84.5h183v-96h-184q9 -64 42.5 -93t81.5 -29q39 0 67.5 20.5t38.5 59.5 h134q-5 -44 -24.5 -79.5t-51 -60.5t-73.5 -38.5t-91 -13.5z" glyph-name="uni0454" horiz-adv-x="565" unicode="є"/>
<glyph d="M275 -12q-65 0 -109.5 14t-72 37t-41.5 53t-17 63h132q5 -26 31 -42.5t77 -16.5q58 0 83 16t25 41q0 13 -6 22.5t-20.5 17.5t-39.5 14t-63 12q-43 6 -80 17t-64.5 30t-43.5 47.5t-16 69.5q0 33 15 62t44 50.5t71 34t95 12.5q57 0 97.5 -14t66.5 -37.5t39 -53.5t17 -62 h-132q-8 29 -31 44t-57 15q-50 0 -71.5 -15.5t-21.5 -38.5q0 -12 5 -21t18.5 -16t37 -12.5t59.5 -10.5q45 -6 83.5 -17.5t67.5 -30.5t45.5 -48t16.5 -69q0 -36 -15 -66.5t-45 -53t-75 -35t-105 -12.5z" glyph-name="uni0455" horiz-adv-x="550" unicode="ѕ"/>
<glyph d="M70 530h132v-530h-132v530zM136 580q-35 0 -57.5 22.5t-22.5 57.5t22.5 57.5t57.5 22.5t57.5 -22.5t22.5 -57.5t-22.5 -57.5t-57.5 -22.5z" glyph-name="uni0456" horiz-adv-x="272" unicode="і"/>
<glyph d="M70 530h132v-530h-132v530zM31 586q-32 0 -53 21t-21 53t21 53t53 21t53 -21t21 -53t-21 -53t-53 -21zM243 586q-32 0 -53 21t-21 53t21 53t53 21t53 -21t21 -53t-21 -53t-53 -21z" glyph-name="uni0457" horiz-adv-x="272" unicode="ї"/>
<glyph d="M22 -212q-11 0 -25 0.5t-25 2.5v112q8 -2 17.5 -2.5t17.5 -0.5q18 0 30 5t19.5 17t10.5 33.5t3 54.5v520h132v-530q0 -63 -8.5 -104t-29.5 -65t-55.5 -33.5t-86.5 -9.5zM136 580q-35 0 -57.5 22.5t-22.5 57.5t22.5 57.5t57.5 22.5t57.5 -22.5t22.5 -57.5t-22.5 -57.5 t-57.5 -22.5z" glyph-name="uni0458" horiz-adv-x="272" unicode="ј"/>
<glyph d="M615 106q48 0 68 17.5t20 52.5t-20.5 52.5t-67.5 17.5h-90v-140h90zM65 -12q-8 0 -20 0.5t-20 2.5v119q5 -1 15 -1q19 0 33 11.5t23.5 39.5t14 74.5t4.5 115.5v180h410v-178h105q205 0 205 -176q0 -39 -11.5 -71.5t-36.5 -55.5t-64 -36t-93 -13h-237v420h-156v-90 q0 -103 -10.5 -169.5t-32 -104.5t-54 -53t-75.5 -15z" glyph-name="uni0459" horiz-adv-x="860" unicode="љ"/>
<glyph d="M650 106q40 0 59 17t19 47q0 29 -19.5 45.5t-58.5 16.5h-110v-126h110zM60 530h132v-190h216v190h132v-192h125q95 0 145 -43t50 -125q0 -37 -11.5 -68t-35.5 -53.5t-60.5 -35.5t-87.5 -13h-257v230h-216v-230h-132v530z" glyph-name="uni045A" horiz-adv-x="885" unicode="њ"/>
<glyph d="M110 434h-90v96h90v170h132v-170h218v-96h-218v-137q9 15 23 30t34 27.5t45.5 20t58.5 7.5q93 0 140 -52t47 -150v-180h-132v149q0 60 -24 90.5t-79 30.5q-30 0 -51 -10t-35 -26.5t-20.5 -38.5t-6.5 -46v-149h-132v434z" glyph-name="uni045B" horiz-adv-x="640" unicode="ћ"/>
<glyph d="M60 530h132v-208h50l162 208h146l-200 -251l210 -279h-158l-160 218h-50v-218h-132v530zM353 740h150l-150 -160h-110z" glyph-name="uni045C" horiz-adv-x="575" unicode="ќ"/>
<glyph d="M150 -212q-15 0 -30 3v112q15 -3 30 -3q30 0 46.5 22.5t37.5 77.5l-224 530h148l144 -366l132 366h136l-204 -530q-22 -56 -41.5 -96.5t-43.5 -66t-55 -37.5t-76 -12zM296 585q-89 0 -129.5 38t-40.5 112h117q0 -39 13.5 -54.5t39.5 -15.5q28 0 41.5 15.5t13.5 54.5h115 q0 -74 -40.5 -112t-129.5 -38z" glyph-name="uni045E" horiz-adv-x="580" unicode="ў"/>
<glyph d="M237 0h-177v530h132v-420h206v420h132v-530h-177v-125h-116v125z" glyph-name="uni045F" horiz-adv-x="590" unicode="џ"/>
<glyph d="M80 700h326v130h134v-254h-310v-576h-150v700z" glyph-name="uni0490" horiz-adv-x="560" unicode="Ґ"/>
<glyph d="M70 530h264v125h116v-235h-248v-420h-132v530z" glyph-name="uni0491" horiz-adv-x="470" unicode="ґ"/>
<glyph d="M100 700h460v-124h-310v-159h173v-126h-173v-291h-150v291h-80v126h80v283z" glyph-name="uni0492" horiz-adv-x="580" unicode="Ғ"/>
<glyph d="M25 305h70v225h380v-110h-248v-115h156v-110h-156v-195h-132v195h-70v110z" glyph-name="uni0493" horiz-adv-x="495" unicode="ғ"/>
<glyph d="M80 700h453v-126h-302v-157q23 13 61.5 26t92.5 13q102 0 159 -53t57 -169v-238q0 -41 -11 -79.5t-36.5 -68.5t-68 -48t-105.5 -18h-54v116h39q48 0 67 25.5t19 73.5v213q0 64 -28 91t-82 27q-38 0 -65.5 -10t-44.5 -22v-296h-151v700z" glyph-name="uni0494" horiz-adv-x="657" unicode="Ҕ"/>
<glyph d="M70 530h380v-110h-248v-107q22 12 50.5 21.5t72.5 9.5q99 0 147 -45.5t48 -145.5v-153q0 -63 -9 -104t-30 -65t-55.5 -33.5t-85.5 -9.5q-11 0 -25 0.5t-25 2.5v112q8 -2 17.5 -2.5t17.5 -0.5q16 0 28 4.5t20 16.5t11.5 33.5t3.5 55.5v128q0 52 -22 73t-76 21 q-30 0 -52.5 -6t-35.5 -13v-213h-132v530z" glyph-name="uni0495" horiz-adv-x="563" unicode="ҕ"/>
<glyph d="M859 -130v130h-46l-187 305h-50v-305h-151v305h-50l-192 -305h-163l236 361l-226 339h161l183 -285h51v285h151v-285h50l189 285h155l-226 -329l156 -245h93v-256h-134z" glyph-name="uni0496" horiz-adv-x="1019" unicode="Җ"/>
<glyph d="M700 -125v125h-50l-137 219h-40v-219h-132v219h-41l-142 -219h-143l183 273l-172 257h140l134 -209h41v209h132v-209h40l139 209h136l-173 -249l111 -171h89v-235h-115z" glyph-name="uni0497" horiz-adv-x="837" unicode="җ"/>
<glyph d="M268 -130v121q-98 10 -155 59q-73 63 -78 170h156q5 -51 37 -78.5t97 -27.5q70 0 102 26t32 71t-30.5 71.5t-108.5 26.5h-74v102h74q31 0 53 7.5t35.5 20t19.5 29.5t6 36q0 37 -26 59.5t-83 22.5q-58 0 -86.5 -21.5t-32.5 -69.5h-156q5 106 72 161.5t203 55.5 q135 0 200 -52.5t65 -145.5q0 -55 -27 -93.5t-79 -55.5q64 -15 97.5 -57.5t33.5 -110.5q0 -46 -18 -84.5t-54 -66t-91 -43.5q-23 -6 -50 -10v-123h-134z" glyph-name="uni0498" horiz-adv-x="659" unicode="Ҙ"/>
<glyph d="M220 -125v116q-79 8 -125 44q-60 47 -65 135h134q2 -17 8 -30t18 -22t31.5 -13.5t48.5 -4.5q58 0 82 17.5t24 42.5q0 30 -20 45t-71 15h-80v98h73q38 0 58 16t20 42q0 23 -19.5 38.5t-66.5 15.5q-49 0 -70.5 -16.5t-25.5 -48.5h-134q5 86 63 131.5t167 45.5 q58 0 99.5 -11t68.5 -31.5t39.5 -49t12.5 -63.5q0 -38 -19.5 -68t-61.5 -44q57 -14 79 -45.5t22 -74.5q0 -36 -14.5 -66.5t-44 -53t-74.5 -35.5q-19 -5 -41 -8v-117h-116z" glyph-name="uni0499" horiz-adv-x="545" unicode="ҙ"/>
<glyph d="M582 -130v130h-68l-224 305h-60v-305h-150v700h150v-285h60l224 285h166l-275 -331l187 -243h124v-256h-134z" glyph-name="uni049A" horiz-adv-x="743" unicode="Қ"/>
<glyph d="M454 -125v125h-52l-160 218h-50v-218h-132v530h132v-208h50l162 208h146l-200 -251l127 -169h92v-235h-115z" glyph-name="uni049B" horiz-adv-x="590" unicode="қ"/>
<glyph d="M80 700h151v-286h47v120h119v-120h22l143 286h155l-177 -326l215 -374h-177l-159 303h-22v-113h-119v113h-47v-303h-151v700z" glyph-name="uni049C" horiz-adv-x="775" unicode="Ҝ"/>
<glyph d="M60 530h132v-208h44v90h111v-90h20l108 208h147l-146 -252l169 -278h-156l-121 218h-21v-93h-111v93h-44v-218h-132v530z" glyph-name="uni049D" horiz-adv-x="660" unicode="ҝ"/>
<glyph d="M20 700h302v-285h60l224 285h166l-275 -331l285 -369h-176l-224 305h-60v-305h-150v586h-152v114z" glyph-name="uni04A0" horiz-adv-x="815" unicode="Ҡ"/>
<glyph d="M20 530h252v-208h50l165 208h146l-206 -251l216 -279h-158l-163 218h-50v-218h-132v419h-120v111z" glyph-name="uni04A1" horiz-adv-x="658" unicode="ҡ"/>
<glyph d="M622 -130v130h-93v297h-298v-297h-151v700h151v-277h298v277h151v-574h76v-256h-134z" glyph-name="uni04A2" horiz-adv-x="782" unicode="Ң"/>
<glyph d="M500 -125v125h-82v215h-226v-215h-132v530h132v-205h226v205h132v-420h65v-235h-115z" glyph-name="uni04A3" horiz-adv-x="637" unicode="ң"/>
<glyph d="M80 0v700h151v-277h298v277h460v-126h-309v-574h-151v297h-298v-297h-151z" glyph-name="uni04A4" horiz-adv-x="1009" unicode="Ҥ"/>
<glyph d="M418 215h-226v-215h-132v530h132v-205h226v205h380v-110h-248v-420h-132v215z" glyph-name="uni04A5" horiz-adv-x="818" unicode="ҥ"/>
<glyph d="M301 -130v123q-33 5 -63 15q-57 20 -99 62.5t-65.5 110.5t-23.5 164v20q0 92 24.5 157.5t67 107.5t100 62t123.5 20q59 0 111 -14t91.5 -43.5t64 -75.5t28.5 -109h-156q-11 60 -48 88t-91 28q-31 0 -59.5 -11t-50.5 -37t-35.5 -68t-13.5 -105v-20q0 -66 14 -110.5 t36.5 -71t51 -38t57.5 -11.5q57 0 94 29.5t45 86.5h156q-5 -66 -29 -112t-63 -75t-91 -42q-20 -5 -42 -8v-123h-134z" glyph-name="uni04AA" horiz-adv-x="700" unicode="Ҫ"/>
<glyph d="M237 -125v119q-23 4 -45 11q-47 17 -82 51t-55 85t-20 119v20q0 64 21 113t56.5 82t82.5 50t100 17q56 0 99.5 -15t73.5 -41t47 -61t20 -75h-134q-8 37 -32.5 58.5t-73.5 21.5q-26 0 -48.5 -9t-40 -27.5t-27.5 -46.5t-10 -67v-20q0 -42 9.5 -72.5t26.5 -50t40 -28.5 t50 -9q39 0 67.5 20.5t38.5 59.5h134q-5 -44 -24.5 -79.5t-51 -60.5t-73.5 -39q-17 -5 -34 -8v-118h-115z" glyph-name="uni04AB" horiz-adv-x="565" unicode="ҫ"/>
<glyph d="M274 0v267l-264 433h175l167 -282l158 282h160l-244 -433v-267h-152z" glyph-name="uni04AE" horiz-adv-x="680" unicode="Ү"/>
<glyph d="M239 -227v220l-226 537h146l147 -382l133 382h134l-202 -528v-229h-132z" glyph-name="uni04AF" horiz-adv-x="587" unicode="ү"/>
<glyph d="M269 172h-128v126h125l-252 402h174l159 -268l150 268h159l-233 -402h123v-126h-125v-172h-152v172z" glyph-name="uni04B0" horiz-adv-x="666" unicode="Ұ"/>
<glyph d="M93 110h104l-184 420h147l142 -355l129 355h134l-168 -420h110v-110h-140v-227h-132v227h-142v110z" glyph-name="uni04B1" horiz-adv-x="579" unicode="ұ"/>
<glyph d="M561 -130v130h-57l-162 262l-163 -262h-166l235 365l-225 335h168l154 -229l155 229h163l-223 -332l153 -242h102v-256h-134z" glyph-name="uni04B2" horiz-adv-x="721" unicode="Ҳ"/>
<glyph d="M456 -125v125h-49l-124 198l-123 -198h-145l180 276l-170 254h147l116 -170l114 170h143l-168 -249l108 -171h85v-235h-114z" glyph-name="uni04B3" horiz-adv-x="592" unicode="ҳ"/>
<glyph d="M449 0v289q-26 -17 -70.5 -31t-103.5 -14q-114 0 -169.5 55t-55.5 176v225h151v-205q0 -66 28.5 -94.5t85.5 -28.5q49 0 81 11t53 25v292h151v-574h85v-256h-134v130h-102z" glyph-name="uni04B6" horiz-adv-x="712" unicode="Ҷ"/>
<glyph d="M462 0h-92v194q-23 -13 -54 -24t-79 -11q-100 0 -147.5 45.5t-47.5 145.5v180h132v-165q0 -53 22 -73.5t76 -20.5q38 0 63 8.5t35 17.5v233h132v-420h75v-235h-115v125z" glyph-name="uni04B7" horiz-adv-x="598" unicode="ҷ"/>
<glyph d="M476 0v313q-30 -21 -77 -33v-111h-119v97q-124 2 -180.5 59.5t-56.5 178.5v196h152v-176q0 -59 20 -91t65 -41v121h119v-117q24 6 43 16t34 23v265h151v-700h-151z" glyph-name="uni04B8" horiz-adv-x="707" unicode="Ҹ"/>
<glyph d="M410 223q-26 -15 -61 -23v-102h-111v90q-100 3 -148 48.5t-48 142.5v151h132v-136q0 -41 14.5 -61.5t49.5 -28.5v95h111v-93q23 3 38.5 8.5t22.5 11.5v204h132v-530h-132v223z" glyph-name="uni04B9" horiz-adv-x="608" unicode="ҹ"/>
<glyph d="M231 700v-271q26 17 71 30.5t107 13.5q111 0 166 -54.5t55 -175.5v-243h-151v223q0 66 -29 94t-91 28q-45 0 -76 -11t-52 -24v-310h-151v700h151z" glyph-name="uni04BA" horiz-adv-x="665" unicode="Һ"/>
<glyph d="M60 0v700h132v-246q9 15 23.5 31t35.5 28.5t48.5 20.5t60.5 8q97 0 145 -52t48 -149v-341h-132v310q0 60 -25 90t-84 30q-32 0 -54.5 -9.5t-37 -26t-21.5 -38.5t-7 -46v-310h-132z" glyph-name="uni04BB" horiz-adv-x="608" unicode="һ"/>
<glyph d="M90 700h150v-700h-150v700z" glyph-name="uni04C0" horiz-adv-x="330" unicode="Ӏ"/>
<glyph d="M80 700h151v-286h82l174 286h166l-194 -293q73 -13 119 -62.5t46 -138.5v-210q0 -41 -11 -79.5t-36.5 -68.5t-68 -48t-105.5 -18h-53v116h39q48 0 67 25.5t19 73.5v183q0 63 -30.5 93t-84.5 30h-129v-303h-151v700z" glyph-name="uni04C3" horiz-adv-x="694" unicode="Ӄ"/>
<glyph d="M292 -94q9 -2 17.5 -2.5t16.5 -0.5q29 0 42 22t13 85v109q0 54 -24 76.5t-74 22.5h-91v-218h-132v530h132v-208h77l128 208h145l-148 -219q119 -33 119 -178v-141q0 -56 -8.5 -94.5t-28.5 -62t-52.5 -34t-79.5 -10.5q-12 0 -25.5 0.5t-26.5 3.5v111z" glyph-name="uni04C4" horiz-adv-x="577" unicode="ӄ"/>
<glyph d="M80 700h151v-277h298v277h151v-700q0 -45 -10 -84.5t-35 -69.5t-66.5 -47t-105.5 -17h-43v117h32q44 0 60.5 25t16.5 76v297h-298v-297h-151v700z" glyph-name="uni04C7" horiz-adv-x="760" unicode="Ӈ"/>
<glyph d="M60 530h132v-205h226v205h132v-538q0 -56 -8.5 -94.5t-28.5 -62t-52.5 -34t-80.5 -10.5q-11 0 -25 0.5t-26 3.5v111q8 -2 17 -2.5t17 -0.5q28 0 41.5 22t13.5 85v205h-226v-215h-132v530z" glyph-name="uni04C8" horiz-adv-x="610" unicode="ӈ"/>
<glyph d="M370 126h79v163q-26 -17 -70.5 -31t-103.5 -14q-114 0 -169.5 55t-55.5 176v225h151v-205q0 -66 28.5 -94.5t85.5 -28.5q49 0 81 11t53 25v292h151v-700h-96v-130h-134v256z" glyph-name="uni04CB" horiz-adv-x="680" unicode="Ӌ"/>
<glyph d="M305 100h65v108q-23 -14 -54 -25t-79 -11q-100 0 -147.5 45.5t-47.5 145.5v167h132v-152q0 -52 22 -73t76 -21q38 0 63 9t35 17v220h132v-530h-82v-125h-115v225z" glyph-name="uni04CC" horiz-adv-x="568" unicode="ӌ"/>
<glyph d="M65 0v700h132v-700h-132z" glyph-name="uni04CF" horiz-adv-x="262" unicode="ӏ"/>
<glyph d="M468 143h-259l-53 -143h-146l260 700h150l260 -700h-158zM255 267h168l-84 243zM348 742q-98 0 -144 43.5t-46 126.5h126q0 -48 16 -66t48 -18t48 18t16 66h126q0 -83 -46 -126.5t-144 -43.5z" glyph-name="uni04D0" horiz-adv-x="697" unicode="Ӑ"/>
<glyph d="M219 -12q-43 0 -76 12.5t-56 35t-35 53t-12 66.5q0 160 190 160h158v25q0 52 -23.5 73t-74.5 21q-45 0 -65 -15.5t-23 -38.5h-132q2 34 17.5 64t44 51.5t69.5 34t94 12.5q51 0 92.5 -11t71 -35.5t45.5 -63.5t16 -94v-203q0 -42 1.5 -73.5t5.5 -61.5h-123q-4 22 -4.5 33.5 t-0.5 34.5q-22 -32 -66.5 -56t-113.5 -24zM260 90q24 0 47 6.5t41 20t29 34.5t11 49v25h-133q-38 0 -59.5 -17.5t-21.5 -47.5q0 -32 22 -51t64 -19zM294 585q-89 0 -129.5 38t-40.5 112h117q0 -39 13.5 -54.5t39.5 -15.5q28 0 41.5 15.5t13.5 54.5h115q0 -74 -40.5 -112 t-129.5 -38z" glyph-name="uni04D1" horiz-adv-x="575" unicode="ӑ"/>
<glyph d="M468 143h-259l-53 -143h-146l260 700h150l260 -700h-158zM255 267h168l-84 243zM228 745q-35 0 -57.5 22.5t-22.5 57.5t22.5 57.5t57.5 22.5t57.5 -22.5t22.5 -57.5t-22.5 -57.5t-57.5 -22.5zM468 745q-35 0 -57.5 22.5t-22.5 57.5t22.5 57.5t57.5 22.5t57.5 -22.5 t22.5 -57.5t-22.5 -57.5t-57.5 -22.5z" glyph-name="uni04D2" horiz-adv-x="697" unicode="Ӓ"/>
<glyph d="M219 -12q-43 0 -76 12.5t-56 35t-35 53t-12 66.5q0 160 190 160h158v25q0 52 -23.5 73t-74.5 21q-45 0 -65 -15.5t-23 -38.5h-132q2 34 17.5 64t44 51.5t69.5 34t94 12.5q51 0 92.5 -11t71 -35.5t45.5 -63.5t16 -94v-203q0 -42 1.5 -73.5t5.5 -61.5h-123q-4 22 -4.5 33.5 t-0.5 34.5q-22 -32 -66.5 -56t-113.5 -24zM260 90q24 0 47 6.5t41 20t29 34.5t11 49v25h-133q-38 0 -59.5 -17.5t-21.5 -47.5q0 -32 22 -51t64 -19zM182 586q-32 0 -53 21t-21 53t21 53t53 21t53 -21t21 -53t-21 -53t-53 -21zM394 586q-32 0 -53 21t-21 53t21 53t53 21 t53 -21t21 -53t-21 -53t-53 -21z" glyph-name="uni04D3" horiz-adv-x="575" unicode="ӓ"/>
<glyph d="M420 700h530v-124h-339v-156h309v-120h-309v-176h339v-124h-490v143h-210l-84 -143h-156zM460 267v248l-138 -248h138z" glyph-name="uni04D4" horiz-adv-x="1000" unicode="Ӕ"/>
<glyph d="M219 -12q-43 0 -76.5 12.5t-56 35t-34.5 53t-12 66.5q0 159 190 159h158v27q0 51 -23.5 72t-74.5 21q-45 0 -65 -15.5t-23 -38.5h-132q2 34 17.5 64t44 51.5t69.5 34t94 12.5q60 0 102 -18.5t71 -53.5q27 32 70.5 52t106.5 20q125 0 190 -66t65 -191v-62h-375 q1 -33 12 -57t29 -39.5t41.5 -23t47.5 -7.5q51 0 77 15t37 44h121q-16 -83 -79 -125t-156 -42q-69 0 -122.5 24.5t-82.5 75.5q-29 -49 -87.5 -74.5t-143.5 -25.5zM260 90q24 0 47 6.5t41 20t29 34.5t11 49v24h-133q-38 0 -59.5 -17t-21.5 -47q0 -32 22 -51t64 -19zM650 434 q-23 0 -45.5 -6t-39.5 -19.5t-28 -36t-12 -55.5h247q-1 35 -10.5 57.5t-26 36t-38.5 18.5t-47 5z" glyph-name="uni04D5" horiz-adv-x="935" unicode="ӕ"/>
<glyph d="M80 700h490v-124h-339v-156h309v-120h-309v-176h339v-124h-490v700zM325 740q-98 0 -144 43.5t-46 126.5h126q0 -48 16 -66t48 -18t48 18t16 66h126q0 -83 -46 -126.5t-144 -43.5z" glyph-name="uni04D6" horiz-adv-x="620" unicode="Ӗ"/>
<glyph d="M300 -12q-54 0 -102.5 16.5t-84.5 50t-57 85t-21 120.5v20q0 66 20 115t55 81.5t81 49t99 16.5q125 0 190 -66t65 -191v-56h-375q1 -35 12 -60.5t29 -41.5t41.5 -23.5t47.5 -7.5q51 0 77 15t37 44h121q-16 -83 -79 -125t-156 -42zM295 434q-23 0 -45.5 -6t-39.5 -19 t-28 -35t-12 -53h247q-1 33 -10.5 55t-26 35t-38.5 18t-47 5zM293 585q-89 0 -129.5 38t-40.5 112h117q0 -39 13.5 -54.5t39.5 -15.5q28 0 41.5 15.5t13.5 54.5h115q0 -74 -40.5 -112t-129.5 -38z" glyph-name="uni04D7" horiz-adv-x="587" unicode="ӗ"/>
<glyph d="M348 116q70 0 115 43t53 146h-325q4 -54 17 -90t33 -58t47 -31.5t60 -9.5zM346 -12q-68 0 -123 20.5t-95 63.5t-61.5 110.5t-21.5 162.5v57h472q-4 50 -18.5 85t-36.5 56.5t-50 31t-59 9.5q-48 0 -84.5 -24.5t-51.5 -79.5h-157q9 59 35 103t64.5 72.5t87 42.5t104.5 14 q67 0 126 -20.5t103 -63t69.5 -108t25.5 -155.5v-20q0 -95 -25.5 -162.5t-70 -110.5t-104.5 -63.5t-129 -20.5z" glyph-name="uni04D8" horiz-adv-x="725" unicode="Ә"/>
<glyph d="M163 209q0 -32 10 -54t27 -35t39.5 -18.5t48.5 -5.5q24 0 47 6.5t40.5 20t28.5 35t12 51.5h-253zM283 542q56 0 105 -16.5t85.5 -50t57.5 -85t21 -120.5v-20q0 -66 -20.5 -115t-55.5 -81.5t-82 -49t-101 -16.5q-127 0 -192.5 66t-65.5 191v55h382q-1 36 -12.5 61.5 t-30 41t-42.5 23t-49 7.5q-50 0 -77 -15.5t-38 -42.5h-123q16 84 78.5 125.5t159.5 41.5z" glyph-name="uni04D9" horiz-adv-x="587" unicode="ә"/>
<glyph d="M346 -12q-68 0 -123 20.5t-95 63.5t-61.5 110.5t-21.5 162.5v57h472q-4 50 -18.5 85t-36.5 56.5t-50 31t-59 9.5q-48 0 -84.5 -24.5t-51.5 -79.5h-157q9 59 35 103t64.5 72.5t87 42.5t104.5 14q67 0 126 -20.5t103 -63t69.5 -108t25.5 -155.5v-20q0 -95 -25.5 -162.5 t-70 -110.5t-104.5 -63.5t-129 -20.5zM348 116q70 0 115 43t53 146h-325q4 -54 17 -90t33 -58t47 -31.5t60 -9.5zM242 745q-35 0 -57.5 22.5t-22.5 57.5t22.5 57.5t57.5 22.5t57.5 -22.5t22.5 -57.5t-22.5 -57.5t-57.5 -22.5zM482 745q-35 0 -57.5 22.5t-22.5 57.5 t22.5 57.5t57.5 22.5t57.5 -22.5t22.5 -57.5t-22.5 -57.5t-57.5 -22.5z" glyph-name="uni04DA" horiz-adv-x="725" unicode="Ӛ"/>
<glyph d="M283 542q56 0 105 -16.5t85.5 -50t57.5 -85t21 -120.5v-20q0 -66 -20.5 -115t-55.5 -81.5t-82 -49t-101 -16.5q-127 0 -192.5 66t-65.5 191v55h382q-1 36 -12.5 61.5t-30 41t-42.5 23t-49 7.5q-50 0 -77 -15.5t-38 -42.5h-123q16 84 78.5 125.5t159.5 41.5zM163 209 q0 -32 10 -54t27 -35t39.5 -18.5t48.5 -5.5q24 0 47 6.5t40.5 20t28.5 35t12 51.5h-253zM177 586q-32 0 -53 21t-21 53t21 53t53 21t53 -21t21 -53t-21 -53t-53 -21zM389 586q-32 0 -53 21t-21 53t21 53t53 21t53 -21t21 -53t-21 -53t-53 -21z" glyph-name="uni04DB" horiz-adv-x="587" unicode="ӛ"/>
<glyph d="M260 364l-230 336h160l185 -285h50v285h150v-285h50l191 285h154l-230 -329l240 -371h-166l-189 305h-50v-305h-150v305h-50l-191 -305h-164zM380 745q-35 0 -57.5 22.5t-22.5 57.5t22.5 57.5t57.5 22.5t57.5 -22.5t22.5 -57.5t-22.5 -57.5t-57.5 -22.5zM620 745 q-35 0 -57.5 22.5t-22.5 57.5t22.5 57.5t57.5 22.5t57.5 -22.5t22.5 -57.5t-22.5 -57.5t-57.5 -22.5z" glyph-name="uni04DC" horiz-adv-x="1000" unicode="Ӝ"/>
<glyph d="M203 276l-178 254h138l142 -208h39v208h132v-208h40l143 208h136l-177 -251l187 -279h-148l-141 218h-40v-218h-132v218h-40l-145 -218h-144zM300 586q-32 0 -53 21t-21 53t21 53t53 21t53 -21t21 -53t-21 -53t-53 -21zM512 586q-32 0 -53 21t-21 53t21 53t53 21t53 -21 t21 -53t-21 -53t-53 -21z" glyph-name="uni04DD" horiz-adv-x="813" unicode="ӝ"/>
<glyph d="M325 -12q-139 0 -212 62.5t-78 169.5h156q5 -51 37 -78.5t97 -27.5q70 0 102 26t32 71t-30.5 71.5t-108.5 26.5h-74v102h74q31 0 53 7.5t35.5 20t19.5 29.5t6 36q0 37 -26 59.5t-83 22.5q-58 0 -86.5 -21.5t-32.5 -69.5h-156q5 106 72 161.5t203 55.5q135 0 200 -52.5 t65 -145.5q0 -55 -27 -93.5t-79 -55.5q64 -15 97.5 -57.5t33.5 -110.5q0 -46 -18 -84.5t-54 -66t-90.5 -43t-127.5 -15.5zM209 745q-35 0 -57.5 22.5t-22.5 57.5t22.5 57.5t57.5 22.5t57.5 -22.5t22.5 -57.5t-22.5 -57.5t-57.5 -22.5zM449 745q-35 0 -57.5 22.5t-22.5 57.5 t22.5 57.5t57.5 22.5t57.5 -22.5t22.5 -57.5t-22.5 -57.5t-57.5 -22.5z" glyph-name="uni04DE" horiz-adv-x="659" unicode="Ӟ"/>
<glyph d="M270 -12q-115 0 -175 47t-65 135h134q2 -17 8 -30t18 -22t31.5 -13.5t48.5 -4.5q58 0 82 17.5t24 42.5q0 30 -20 45t-71 15h-80v98h73q38 0 58 16t20 42q0 23 -19.5 38.5t-66.5 15.5q-49 0 -70.5 -16.5t-25.5 -48.5h-134q5 86 63 131.5t167 45.5q58 0 99.5 -11 t68.5 -31.5t39.5 -49t12.5 -63.5q0 -38 -19.5 -68t-61.5 -44q57 -14 79 -45.5t22 -74.5q0 -36 -14.5 -66.5t-44 -53t-74.5 -35t-107 -12.5zM167 586q-32 0 -53 21t-21 53t21 53t53 21t53 -21t21 -53t-21 -53t-53 -21zM379 586q-32 0 -53 21t-21 53t21 53t53 21t53 -21 t21 -53t-21 -53t-53 -21z" glyph-name="uni04DF" horiz-adv-x="546" unicode="ӟ"/>
<glyph d="M80 700h150v-465l305 465h145v-700h-150v465l-306 -465h-144v700zM230 875h300v-90h-300v90z" glyph-name="uni04E2" horiz-adv-x="760" unicode="Ӣ"/>
<glyph d="M60 530h132v-340l236 340h122v-530h-132v340l-236 -340h-122v530zM155 705h300v-90h-300v90z" glyph-name="uni04E3" horiz-adv-x="610" unicode="ӣ"/>
<glyph d="M80 700h150v-465l305 465h145v-700h-150v465l-306 -465h-144v700zM260 745q-35 0 -57.5 22.5t-22.5 57.5t22.5 57.5t57.5 22.5t57.5 -22.5t22.5 -57.5t-22.5 -57.5t-57.5 -22.5zM500 745q-35 0 -57.5 22.5t-22.5 57.5t22.5 57.5t57.5 22.5t57.5 -22.5t22.5 -57.5 t-22.5 -57.5t-57.5 -22.5z" glyph-name="uni04E4" horiz-adv-x="760" unicode="Ӥ"/>
<glyph d="M60 530h132v-340l236 340h122v-530h-132v340l-236 -340h-122v530zM199 586q-32 0 -53 21t-21 53t21 53t53 21t53 -21t21 -53t-21 -53t-53 -21zM411 586q-32 0 -53 21t-21 53t21 53t53 21t53 -21t21 -53t-21 -53t-53 -21z" glyph-name="uni04E5" horiz-adv-x="610" unicode="ӥ"/>
<glyph d="M380 -12q-66 0 -125.5 20t-105 63t-72.5 110.5t-27 163.5v20q0 92 27 157.5t72.5 107.5t105 62t125.5 20t125.5 -20t105 -62t72.5 -107.5t27 -157.5v-20q0 -96 -27 -163.5t-72.5 -110.5t-105 -63t-125.5 -20zM380 114q34 0 65.5 11.5t55.5 38.5t38.5 71t14.5 110v20 q0 62 -14.5 104t-38.5 68t-55.5 37.5t-65.5 11.5t-65.5 -11.5t-55.5 -37.5t-38.5 -68t-14.5 -104v-20q0 -66 14.5 -110t38.5 -71t55.5 -38.5t65.5 -11.5zM260 745q-35 0 -57.5 22.5t-22.5 57.5t22.5 57.5t57.5 22.5t57.5 -22.5t22.5 -57.5t-22.5 -57.5t-57.5 -22.5zM500 745 q-35 0 -57.5 22.5t-22.5 57.5t22.5 57.5t57.5 22.5t57.5 -22.5t22.5 -57.5t-22.5 -57.5t-57.5 -22.5z" glyph-name="uni04E6" horiz-adv-x="760" unicode="Ӧ"/>
<glyph d="M300 -12q-54 0 -102.5 16.5t-84.5 50.5t-57 85t-21 120v20q0 65 21 114t57 82t84.5 49.5t102.5 16.5t102 -16.5t84.5 -49.5t57.5 -82t21 -114v-20q0 -68 -21 -119t-57.5 -85t-84.5 -51t-102 -17zM300 100q56 0 93.5 40t37.5 120v20q0 73 -37.5 111.5t-93.5 38.5 q-57 0 -94 -38.5t-37 -111.5v-20q0 -81 37 -120.5t94 -39.5zM194 586q-32 0 -53 21t-21 53t21 53t53 21t53 -21t21 -53t-21 -53t-53 -21zM406 586q-32 0 -53 21t-21 53t21 53t53 21t53 -21t21 -53t-21 -53t-53 -21z" glyph-name="uni04E7" horiz-adv-x="600" unicode="ӧ"/>
<glyph d="M387 584q-31 0 -60.5 -8.5t-53.5 -28.5t-40.5 -52.5t-22.5 -80.5h353q-6 48 -22.5 80.5t-40.5 52.5t-53 28.5t-60 8.5zM387 116q31 0 60.5 9t53 30t40 55.5t22.5 85.5h-354q6 -51 22.5 -85.5t40.5 -55.5t53.5 -30t61.5 -9zM387 -12q-68 0 -129 20t-107 63.5t-73.5 111 t-27.5 162.5v20q0 91 27.5 156.5t73.5 108t107 62.5t129 20q67 0 128 -20t107.5 -62.5t73.5 -108t27 -156.5v-20q0 -95 -27 -162.5t-73.5 -111t-107.5 -63.5t-128 -20z" glyph-name="uni04E8" horiz-adv-x="773" unicode="Ө"/>
<glyph d="M307 430q-51 0 -87 -29t-47 -83h267q-10 54 -46 83t-87 29zM307 100q53 0 89.5 31.5t44.5 94.5h-269q8 -63 45 -94.5t90 -31.5zM307 -12q-56 0 -105.5 16.5t-86.5 50.5t-58.5 85t-21.5 120v20q0 64 21.5 113t58.5 82t86.5 50t105.5 17q55 0 104.5 -17t86.5 -50t58.5 -82 t21.5 -113v-20q0 -68 -21.5 -119t-58.5 -85t-86.5 -51t-104.5 -17z" glyph-name="uni04E9" horiz-adv-x="613" unicode="ө"/>
<glyph d="M387 -12q-68 0 -129 20t-107 63.5t-73.5 111t-27.5 162.5v20q0 91 27.5 156.5t73.5 108t107 62.5t129 20q67 0 128 -20t107.5 -62.5t73.5 -108t27 -156.5v-20q0 -95 -27 -162.5t-73.5 -111t-107.5 -63.5t-128 -20zM387 116q31 0 60.5 9t53 30t40 55.5t22.5 85.5h-354 q6 -51 22.5 -85.5t40.5 -55.5t53.5 -30t61.5 -9zM387 584q-31 0 -60.5 -8.5t-53.5 -28.5t-40.5 -52.5t-22.5 -80.5h353q-6 48 -22.5 80.5t-40.5 52.5t-53 28.5t-60 8.5zM266 745q-35 0 -57.5 22.5t-22.5 57.5t22.5 57.5t57.5 22.5t57.5 -22.5t22.5 -57.5t-22.5 -57.5 t-57.5 -22.5zM506 745q-35 0 -57.5 22.5t-22.5 57.5t22.5 57.5t57.5 22.5t57.5 -22.5t22.5 -57.5t-22.5 -57.5t-57.5 -22.5z" glyph-name="uni04EA" horiz-adv-x="773" unicode="Ӫ"/>
<glyph d="M307 -12q-56 0 -105.5 16.5t-86.5 50.5t-58.5 85t-21.5 120v20q0 64 21.5 113t58.5 82t86.5 50t105.5 17q55 0 104.5 -17t86.5 -50t58.5 -82t21.5 -113v-20q0 -68 -21.5 -119t-58.5 -85t-86.5 -51t-104.5 -17zM307 100q53 0 89.5 31.5t44.5 94.5h-269q8 -63 45 -94.5 t90 -31.5zM307 430q-51 0 -87 -29t-47 -83h267q-10 54 -46 83t-87 29zM201 586q-32 0 -53 21t-21 53t21 53t53 21t53 -21t21 -53t-21 -53t-53 -21zM413 586q-32 0 -53 21t-21 53t21 53t53 21t53 -21t21 -53t-21 -53t-53 -21z" glyph-name="uni04EB" horiz-adv-x="613" unicode="ӫ"/>
<glyph d="M205 -12q-11 0 -21.5 1t-18.5 2v119q8 -1 18.5 -1.5t21.5 -0.5q22 0 35.5 4t22.5 12.5t16 22t16 32.5l-285 521h162l196 -375l156 375h156l-237 -540q-21 -47 -42.5 -79.5t-48.5 -53t-62.5 -30t-84.5 -9.5zM198 875h300v-90h-300v90z" glyph-name="uni04EE" horiz-adv-x="697" unicode="Ӯ"/>
<glyph d="M150 -212q-15 0 -30 3v112q15 -3 30 -3q30 0 46.5 22.5t37.5 77.5l-224 530h148l144 -366l132 366h136l-204 -530q-22 -56 -41.5 -96.5t-43.5 -66t-55 -37.5t-76 -12zM143 705h300v-90h-300v90z" glyph-name="uni04EF" horiz-adv-x="587" unicode="ӯ"/>
<glyph d="M205 -12q-11 0 -21.5 1t-18.5 2v119q8 -1 18.5 -1.5t21.5 -0.5q22 0 35.5 4t22.5 12.5t16 22t16 32.5l-285 521h162l196 -375l156 375h156l-237 -540q-21 -47 -42.5 -79.5t-48.5 -53t-62.5 -30t-84.5 -9.5zM228 745q-35 0 -57.5 22.5t-22.5 57.5t22.5 57.5t57.5 22.5 t57.5 -22.5t22.5 -57.5t-22.5 -57.5t-57.5 -22.5zM468 745q-35 0 -57.5 22.5t-22.5 57.5t22.5 57.5t57.5 22.5t57.5 -22.5t22.5 -57.5t-22.5 -57.5t-57.5 -22.5z" glyph-name="uni04F0" horiz-adv-x="697" unicode="Ӱ"/>
<glyph d="M150 -212q-15 0 -30 3v112q15 -3 30 -3q30 0 46.5 22.5t37.5 77.5l-224 530h148l144 -366l132 366h136l-204 -530q-22 -56 -41.5 -96.5t-43.5 -66t-55 -37.5t-76 -12zM184 586q-32 0 -53 21t-21 53t21 53t53 21t53 -21t21 -53t-21 -53t-53 -21zM396 586q-32 0 -53 21 t-21 53t21 53t53 21t53 -21t21 -53t-21 -53t-53 -21z" glyph-name="uni04F1" horiz-adv-x="587" unicode="ӱ"/>
<glyph d="M205 -12q-11 0 -21.5 1t-18.5 2v119q8 -1 18.5 -1.5t21.5 -0.5q22 0 35.5 4t22.5 12.5t16 22t16 32.5l-285 521h162l196 -375l156 375h156l-237 -540q-21 -47 -42.5 -79.5t-48.5 -53t-62.5 -30t-84.5 -9.5zM327 900h125l-133 -150h-101zM519 900h128l-161 -150h-101z" glyph-name="uni04F2" horiz-adv-x="697" unicode="Ӳ"/>
<glyph d="M150 -212q-15 0 -30 3v112q15 -3 30 -3q30 0 46.5 22.5t37.5 77.5l-224 530h148l144 -366l132 366h136l-204 -530q-22 -56 -41.5 -96.5t-43.5 -66t-55 -37.5t-76 -12zM143 580l84 160h137l-123 -160h-98zM351 580l123 160h143l-163 -160h-103z" glyph-name="uni04F3" horiz-adv-x="587" unicode="ӳ"/>
<glyph d="M450 287q-26 -17 -70.5 -31t-104.5 -14q-114 0 -169.5 56t-55.5 177v225h150v-205q0 -68 27.5 -97.5t87.5 -29.5q47 0 80.5 12.5t54.5 26.5v293h150v-700h-150v287zM220 745q-35 0 -57.5 22.5t-22.5 57.5t22.5 57.5t57.5 22.5t57.5 -22.5t22.5 -57.5t-22.5 -57.5 t-57.5 -22.5zM460 745q-35 0 -57.5 22.5t-22.5 57.5t22.5 57.5t57.5 22.5t57.5 -22.5t22.5 -57.5t-22.5 -57.5t-57.5 -22.5z" glyph-name="uni04F4" horiz-adv-x="680" unicode="Ӵ"/>
<glyph d="M373 195q-23 -14 -55 -25t-78 -11q-97 0 -146 46t-49 145v180h132v-165q0 -52 22 -73t76 -21q38 0 62.5 9t35.5 17v233h132v-530h-132v195zM170 586q-32 0 -53 21t-21 53t21 53t53 21t53 -21t21 -53t-21 -53t-53 -21zM382 586q-32 0 -53 21t-21 53t21 53t53 21t53 -21 t21 -53t-21 -53t-53 -21z" glyph-name="uni04F5" horiz-adv-x="568" unicode="ӵ"/>
<glyph d="M80 700h150v-250h100q71 0 124 -16t87.5 -45.5t51.5 -71t17 -92.5t-17 -92.5t-51.5 -71t-87.5 -45.5t-124 -16h-250v700zM315 124q80 0 112.5 27t32.5 74t-32.5 74t-112.5 27h-85v-202h85zM680 700h150v-700h-150v700zM335 745q-35 0 -57.5 22.5t-22.5 57.5t22.5 57.5 t57.5 22.5t57.5 -22.5t22.5 -57.5t-22.5 -57.5t-57.5 -22.5zM575 745q-35 0 -57.5 22.5t-22.5 57.5t22.5 57.5t57.5 22.5t57.5 -22.5t22.5 -57.5t-22.5 -57.5t-57.5 -22.5z" glyph-name="uni04F8" horiz-adv-x="910" unicode="Ӹ"/>
<glyph d="M60 530h132v-178h93q205 0 205 -176q0 -39 -11.5 -71.5t-36.5 -55.5t-64 -36t-93 -13h-225v530zM270 106q48 0 68 17.5t20 52.5t-20.5 52.5t-67.5 17.5h-78v-140h78zM548 530h132v-530h-132v530zM266 586q-32 0 -53 21t-21 53t21 53t53 21t53 -21t21 -53t-21 -53t-53 -21 zM478 586q-32 0 -53 21t-21 53t21 53t53 21t53 -21t21 -53t-21 -53t-53 -21z" glyph-name="uni04F9" horiz-adv-x="740" unicode="ӹ"/>
<glyph d="M385 -101h31q45 0 61.5 25t16.5 76v575h-216v-95q0 -159 -14.5 -256t-41.5 -149.5t-66.5 -69.5t-90.5 -17q-8 0 -20 0.5t-20 2.5v136q3 -1 15 -1q26 0 44 11.5t29.5 50t16.5 112.5t5 200v200h510v-700q0 -45 -10 -84.5t-35 -69.5t-66.5 -47t-105.5 -17h-43v117z" glyph-name="uni0512" horiz-adv-x="725" unicode="Ԓ"/>
<glyph d="M311 -94q8 -2 17 -2.5t17 -0.5q28 0 41.5 22t13.5 85v410h-163v-90q0 -103 -11 -169.5t-33 -104.5t-55 -53t-76 -15q-8 0 -20 0.5t-20 2.5v119q3 -1 15 -1q19 0 33 11.5t23.5 39.5t14 74.5t4.5 115.5v180h420v-538q0 -56 -8.5 -94.5t-28.5 -62t-52.5 -34t-80.5 -10.5 q-11 0 -25 0.5t-26 3.5v111z" glyph-name="uni0513" horiz-adv-x="592" unicode="ԓ"/>
<glyph d="M351 711q64 0 112 -16.5t81.5 -45t53.5 -68t28 -85.5l-125 -109q74 -11 109.5 -56.5t35.5 -120.5q0 -102 -62 -156t-172 -54h-62v121h42q54 0 78.5 25.5t24.5 67.5q0 47 -28 68t-83 21h-43v82l135 120q-8 35 -34.5 57t-76.5 22q-72 0 -106.5 -42.5t-34.5 -123.5v-418 h-151v435q0 65 19.5 116.5t55.5 87t87.5 54t115.5 18.5z" glyph-name="uni1E9E" horiz-adv-x="686" unicode="ẞ"/>
<glyph glyph-name="uni2009" horiz-adv-x="154" unicode=" "/>
<glyph d="M30 342h320v-124h-320v124z" glyph-name="uni2010" horiz-adv-x="380" unicode="‐"/>
<glyph d="M30 342h320v-124h-320v124z" glyph-name="uni2011" horiz-adv-x="380" unicode="‑"/>
<glyph d="M53 422h493v-124h-493v124z" glyph-name="figuredash" horiz-adv-x="599" unicode="‒"/>
<glyph d="M30 342h470v-124h-470v124z" glyph-name="endash" horiz-adv-x="530" unicode="–"/>
<glyph d="M30 342h670v-124h-670v124z" glyph-name="emdash" horiz-adv-x="730" unicode="—"/>
<glyph d="M215.011 550v-119.985h-129.984v119.985l101.987 149.981h67.9922z" glyph-name="quoteleft" horiz-adv-x="300" unicode="‘"/>
<glyph d="M85 580v120h130v-120l-102 -150h-68z" glyph-name="quoteright" horiz-adv-x="300" unicode="’"/>
<glyph d="M85 0v120h130v-120l-102 -150h-68z" glyph-name="quotesinglbase" horiz-adv-x="300" unicode="‚"/>
<glyph d="M215.011 550v-119.985h-129.984v119.985l101.987 149.981h67.9922zM425.011 550v-119.985h-129.984v119.985l101.987 149.981h67.9922z" glyph-name="quotedblleft" horiz-adv-x="510" unicode="“"/>
<glyph d="M85 580v120h130v-120l-102 -150h-68zM295 580v120h130v-120l-102 -150h-68z" glyph-name="quotedblright" horiz-adv-x="510" unicode="”"/>
<glyph d="M85 0v120h130v-120l-102 -150h-68zM295 0v120h130v-120l-102 -150h-68z" glyph-name="quotedblbase" horiz-adv-x="510" unicode="„"/>
<glyph d="M215 432h-180v98h180v170h120v-170h180v-98h-180v-632h-120v632z" glyph-name="dagger" horiz-adv-x="550" unicode="†"/>
<glyph d="M215 0h-180v98h180v334h-180v98h180v170h120v-170h180v-98h-180v-334h180v-98h-180v-200h-120v200z" glyph-name="daggerdbl" horiz-adv-x="550" unicode="‡"/>
<glyph d="M200 135q-30 0 -55.5 11t-44 29.5t-29.5 44t-11 55.5t11 55.5t29.5 44t44 29.5t55.5 11t55.5 -11t44 -29.5t29.5 -44t11 -55.5t-11 -55.5t-29.5 -44t-44 -29.5t-55.5 -11z" glyph-name="bullet" horiz-adv-x="400" unicode="•"/>
<glyph d="M155 -12q-35 0 -60 25t-25 60q0 37 25 61t60 24t60 -24t25 -61q0 -35 -25 -60t-60 -25zM485 -12q-35 0 -60 25t-25 60q0 37 25 61t60 24t60 -24t25 -61q0 -35 -25 -60t-60 -25zM815 -12q-35 0 -60 25t-25 60q0 37 25 61t60 24t60 -24t25 -61q0 -35 -25 -60t-60 -25z" glyph-name="ellipsis" horiz-adv-x="970" unicode="…"/>
<glyph glyph-name="uni202F" horiz-adv-x="154" unicode=" "/>
<glyph d="M590 700h140l-480 -700h-140zM190 368q-39 0 -70 12t-53.5 34t-34.5 52.5t-12 68.5v10q0 37 12 68t34.5 53t53.5 34t70 12t70 -12t53.5 -34t34.5 -53t12 -68v-10q0 -38 -12 -68.5t-34.5 -52.5t-53.5 -34t-70 -12zM190 472q20 0 32 14.5t12 48.5v10q0 34 -12 48.5 t-32 14.5t-32 -14.5t-12 -48.5v-10q0 -34 12 -48.5t32 -14.5zM650 -11q-39 0 -70 12t-53.5 34t-34.5 52.5t-12 68.5v10q0 37 12 68t34.5 53t53.5 34t70 12t70 -12t53.5 -34t34.5 -53t12 -68v-10q0 -38 -12 -68.5t-34.5 -52.5t-53.5 -34t-70 -12zM650 93q20 0 32 14.5 t12 48.5v10q0 34 -12 48.5t-32 14.5t-32 -14.5t-12 -48.5v-10q0 -34 12 -48.5t32 -14.5zM1030 -11q-39 0 -70 12t-53.5 34t-34.5 52.5t-12 68.5v10q0 37 12 68t34.5 53t53.5 34t70 12t70 -12t53.5 -34t34.5 -53t12 -68v-10q0 -38 -12 -68.5t-34.5 -52.5t-53.5 -34t-70 -12z M1030 93q20 0 32 14.5t12 48.5v10q0 34 -12 48.5t-32 14.5t-32 -14.5t-12 -48.5v-10q0 -34 12 -48.5t32 -14.5z" glyph-name="perthousand" horiz-adv-x="1220" unicode="‰"/>
<glyph d="M30 220v110l220 185v-138l-125 -100l125 -100v-142z" glyph-name="guilsinglleft" horiz-adv-x="300" unicode="‹"/>
<glyph d="M270 330v-110l-220 -185v138l125 100l-125 100v142z" glyph-name="guilsinglright" horiz-adv-x="300" unicode="›"/>
<glyph d="M260 700h140l-480 -700h-140z" glyph-name="fraction" horiz-adv-x="180" unicode="⁄"/>
<glyph d="M204 551v108l-72 -108h72zM204 449h-194v82l184 249h136v-229h40v-102h-40v-69h-126v69z" glyph-name="uni2074" horiz-adv-x="400" unicode="⁴"/>
<glyph d="M375 -12q-53 0 -99 13.5t-82.5 42t-62.5 72.5t-39 106h-72v104h60v24v15v19h-60v104h73q13 58 40 100.5t64 70t82 40.5t96 13q55 0 103.5 -14t85.5 -43.5t59.5 -75.5t26.5 -109h-156q-11 60 -42 88t-77 28q-38 0 -71 -22t-51 -76h157v-104h-174v-19v-15v-24h174v-104 h-159q17 -59 50 -83.5t74 -24.5q50 0 80.5 29.5t38.5 86.5h156q-5 -66 -27.5 -112t-58.5 -75t-84 -42t-105 -13z" glyph-name="Euro" horiz-adv-x="690" unicode="€"/>
<glyph d="M305 -12q-57 0 -98.5 11t-68.5 31t-40 46.5t-13 58.5q0 30 5 50t16 40h-66v104h530v-104h-306q-17 -17 -23 -31.5t-6 -28.5q0 -24 16 -37.5t54 -13.5q63 0 70 41h150q-2 -37 -14.5 -67.5t-38.5 -52.5t-67.5 -34.5t-99.5 -12.5zM40 491h305q20 23 20 49q0 21 -14 33.5 t-46 12.5q-27 0 -41 -9t-19 -32h-150q3 78 53.5 122.5t156.5 44.5q53 0 92.5 -12t65.5 -31.5t39 -45t13 -53.5q0 -22 -3 -41.5t-14 -37.5h72v-104h-530v104z" glyph-name="uni20B4" horiz-adv-x="610" unicode="₴"/>
<glyph d="M244 0v388h-224v126h600v-126h-224v-388h-152zM20 700h600v-126h-600v126z" glyph-name="uni20B8" horiz-adv-x="640" unicode="₸"/>
<glyph d="M345 374q66 0 95.5 26.5t29.5 74.5t-28 74.5t-97 26.5h-85v-202h85zM110 88h-90v104h90v58h-90v124h90v326h250q64 0 112.5 -16t81.5 -45.5t49.5 -71t16.5 -92.5t-16.5 -92.5t-49.5 -71t-81.5 -45.5t-112.5 -16h-100v-58h220v-104h-220v-88h-150v88z" glyph-name="uni20BD" horiz-adv-x="660" unicode="₽"/>
<glyph d="M750 321h320v-102h-320v102zM910 472q20 0 32 14.5t12 48.5v10q0 34 -12 48.5t-32 14.5t-32 -14.5t-12 -48.5v-10q0 -34 12 -48.5t32 -14.5zM910 368q-39 0 -70 12t-53.5 34t-34.5 52.5t-12 68.5v10q0 37 12 68t34.5 53t53.5 34t70 12t70 -12t53.5 -34t34.5 -53t12 -68 v-10q0 -38 -12 -68.5t-34.5 -52.5t-53.5 -34t-70 -12zM80 700h142l308 -450v450h150v-700h-142l-308 450v-450h-150v700z" glyph-name="uni2116" horiz-adv-x="1105" unicode="№"/>
<glyph d="M420 700h129l97 -181l98 181h126v-400h-116v225l-79 -145h-60l-79 145v-225h-116v400zM127 598h-107v102h340v-102h-107v-298h-126v298z" glyph-name="trademark" horiz-adv-x="895" unicode="™"/>
<glyph d="M13 350l300 300h175l-238 -238h475v-124h-475l238 -238h-175z" glyph-name="arrowleft" horiz-adv-x="750" unicode="←"/>
<glyph d="M309 470l-234 -233v175l300 300l300 -300v-175l-234 233v-470h-132v470z" glyph-name="arrowup" horiz-adv-x="800" unicode="↑"/>
<glyph d="M490 288h-465v124h465l-228 238h175l300 -300l-300 -300h-175z" glyph-name="arrowright" horiz-adv-x="750" unicode="→"/>
<glyph d="M75 288v175l234 -233v470h132v-470l234 233v-175l-300 -300z" glyph-name="arrowdown" horiz-adv-x="750" unicode="↓"/>
<glyph d="M199 432v-324l-124 124v418h418l124 -124h-325l383 -383l-93 -93z" glyph-name="uni2196" horiz-adv-x="750" unicode="↖"/>
<glyph d="M75 138l388 388h-330l124 124h418v-418l-124 -124v329l-388 -387z" glyph-name="uni2197" horiz-adv-x="750" unicode="↗"/>
<glyph d="M133 174h325l-383 383l93 93l383 -382v324l124 -124v-418h-418z" glyph-name="uni2198" horiz-adv-x="750" unicode="↘"/>
<glyph d="M75 468l124 124v-329l388 387l88 -88l-388 -388h330l-124 -124h-418v418z" glyph-name="uni2199" horiz-adv-x="750" unicode="↙"/>
<glyph d="M196 124h284l-142 396zM264 700h162l254 -700h-670z" glyph-name="Delta" horiz-adv-x="690" unicode="∆"/>
<glyph d="M40 422h490v-124h-490v124z" glyph-name="minus" unicode="−"/>
<glyph d="M387 700h138l-342 -700h-138z" glyph-name="uni2215" unicode="∕"/>
<glyph d="M10 391h160l115 -281l157 690h178v-124h-74l-176 -776h-150l-150 367h-60v124z" glyph-name="radical" horiz-adv-x="630" unicode="√"/>
<glyph d="M380 380q-34 0 -60 11.5t-48.5 25.5t-43.5 25.5t-43 11.5q-17 0 -29.5 -8.5t-20.5 -18.5q-10 -12 -17 -27l-88 55q16 35 39 62q20 23 49.5 43t71.5 20q34 0 60 -11.5t48.5 -25.5t43 -25.5t43.5 -11.5q16 0 29 8t21 19q10 11 17 27l88 -55q-16 -36 -39 -63 q-20 -23 -49.5 -42.5t-71.5 -19.5zM380 140q-34 0 -60 11.5t-48.5 25.5t-43.5 25.5t-43 11.5q-17 0 -29.5 -8.5t-20.5 -18.5q-10 -12 -17 -27l-88 55q16 35 39 62q20 23 49.5 43t71.5 20q34 0 60 -11.5t48.5 -25.5t43 -25.5t43.5 -11.5q16 0 29 8t21 19q10 11 17 27l88 -55 q-16 -36 -39 -63q-20 -23 -49.5 -42.5t-71.5 -19.5z" glyph-name="approxequal" unicode="≈"/>
<glyph d="M40 367v110l490 215v-143l-315 -125l315 -125v-147zM40 144h490v-124h-490v124z" glyph-name="lessequal" unicode="≤"/>
<glyph d="M531 477v-110l-490 -215v143l315 125l-315 125v147zM40 144h490v-124h-490v124z" glyph-name="greaterequal" unicode="≥"/>
<glyph d="M45 250l200 450h130l-200 -450l200 -450h-132z" glyph-name="angleleft" horiz-adv-x="380" unicode="〈"/>
<glyph d="M335.006 250.03l-199.976 -449.944h-129.984l199.976 449.944l-199.976 449.945h131.983z" glyph-name="angleright" horiz-adv-x="380" unicode="〉"/>
<glyph d="M-239 740h150l-150 -160h-110z" glyph-name="uniF400" horiz-adv-x="0" unicode=""/>
<glyph d="M-889 900h160l-150 -150h-120z" glyph-name="uniF401" horiz-adv-x="0" unicode=""/>
<glyph d="M90 -212q-17 0 -30 1t-22 3q-11 2 -18 4v75q6 -2 14 -3q7 -1 16 -1.5t20 -0.5q27 0 35.5 7.5t8.5 17.5q0 11 -8.5 18.5t-40.5 7.5l17 93h80l-7 -46q37 -8 51 -31t14 -48q0 -45 -30.5 -71t-99.5 -26z" glyph-name="uniF407" horiz-adv-x="240" unicode=""/>
<glyph d="M130 900h140l110 -150h-120l-60 60l-60 -60h-120z" glyph-name="uniF408" horiz-adv-x="400" unicode=""/>
<glyph d="M85 570v130h140v-130l-112 -160h-68z" glyph-name="uniF40A" horiz-adv-x="285" unicode=""/>
<glyph d="M106 740q-38 0 -62 23.5t-24 61.5t24 61.5t62 23.5t62 -23.5t24 -61.5t-24 -61.5t-62 -23.5z" glyph-name="uniF40B" horiz-adv-x="212" unicode=""/>
<glyph d="M150 810q17 0 28.5 9t11.5 26t-11.5 26t-28.5 9t-28.5 -9t-11.5 -26t11.5 -26t28.5 -9zM150 730q-28 0 -51.5 8.5t-41 23.5t-27.5 36t-10 47q0 25 10 46.5t27.5 36.5t41 23.5t51.5 8.5t51.5 -8.5t41 -23.5t27.5 -36.5t10 -46.5q0 -26 -10 -47t-27.5 -36t-41 -23.5 t-51.5 -8.5z" glyph-name="uniF40C" horiz-adv-x="300" unicode=""/>
<glyph d="M280 750q-26 0 -45 7t-34.5 15.5t-29.5 15.5t-31 7q-14 0 -23 -6t-15 -14q-7 -9 -12 -20l-70 40q8 29 24 52q14 20 37 36.5t59 16.5q26 0 45 -7t34.5 -15.5t29.5 -15.5t31 -7q13 0 22.5 6t15.5 14q7 9 12 20l70 -40q-8 -30 -24 -53q-14 -20 -37.5 -36t-58.5 -16z" glyph-name="uniF40D" horiz-adv-x="420" unicode=""/>
<glyph d="M365 -12q-69 0 -126.5 20t-99.5 62.5t-65.5 110.5t-23.5 164v20q0 92 24.5 157.5t67 107.5t100 62t123.5 20q59 0 111 -14t91.5 -43.5t64 -75.5t28.5 -109h-156q-11 60 -48 88t-91 28q-31 0 -59.5 -11t-50.5 -37t-35.5 -68t-13.5 -105v-20q0 -66 14 -110.5t36.5 -71 t51 -38t57.5 -11.5q57 0 94 29.5t45 86.5h156q-5 -66 -29 -112t-63 -75t-91 -42t-112 -13zM335 -212q-17 0 -30 1t-22 3q-11 2 -18 4v75q6 -2 14 -3q7 -1 16 -1.5t20 -0.5q27 0 35.5 7.5t8.5 17.5q0 11 -8.5 18.5t-40.5 7.5l17 93h80l-7 -46q37 -8 51 -31t14 -48 q0 -45 -30.5 -71t-99.5 -26z" glyph-name="uni04AA.alt02" horiz-adv-x="700" unicode=""/>
<glyph d="M295 -12q-55 0 -102.5 17t-82.5 51t-55 85t-20 119v20q0 64 21 113t56.5 82t82.5 50t100 17q56 0 99.5 -15t73.5 -41t47 -61t20 -75h-134q-8 37 -32.5 58.5t-73.5 21.5q-26 0 -48.5 -9t-40 -27.5t-27.5 -46.5t-10 -67v-20q0 -42 9.5 -72.5t26.5 -50t40 -28.5t50 -9 q39 0 67.5 20.5t38.5 59.5h134q-5 -44 -24.5 -79.5t-51 -60.5t-73.5 -38.5t-91 -13.5zM270 -212q-17 0 -30 1t-22 3q-11 2 -18 4v73q6 -2 14 -3q7 -1 16 -1.5t20 -0.5q27 0 36.5 8.5t9.5 18.5q0 11 -9 19.5t-40 8.5l17 91h76l-7 -46q38 -8 52.5 -31t14.5 -48 q0 -45 -30.5 -71t-99.5 -26z" glyph-name="uni04AB.alt02" horiz-adv-x="565" unicode=""/>
<glyph d="M80 700h150v-250h100q71 0 124 -16t87.5 -45.5t51.5 -71t17 -92.5t-17 -92.5t-51.5 -71t-87.5 -45.5t-124 -16h-250v700zM315 124q80 0 112.5 27t32.5 74t-32.5 74t-112.5 27h-85v-202h85zM680 700h150v-700h-150v700zM455 740q-98 0 -144 43.5t-46 126.5h126 q0 -48 16 -66t48 -18t48 18t16 66h126q0 -83 -46 -126.5t-144 -43.5z" glyph-name="uniF536" horiz-adv-x="910" unicode=""/>
<glyph d="M60 530h132v-178h93q205 0 205 -176q0 -39 -11.5 -71.5t-36.5 -55.5t-64 -36t-93 -13h-225v530zM270 106q48 0 68 17.5t20 52.5t-20.5 52.5t-67.5 17.5h-78v-140h78zM548 530h132v-530h-132v530zM370 585q-89 0 -129.5 38t-40.5 112h117q0 -39 13.5 -54.5t39.5 -15.5 q28 0 41.5 15.5t13.5 54.5h115q0 -74 -40.5 -112t-129.5 -38z" glyph-name="uniF537" horiz-adv-x="740" unicode=""/>
<glyph d="M80 700h480v-124h-330v-176h300v-120h-300v-280h-150v700z" glyph-name="uni0492.alt" horiz-adv-x="595" unicode=""/>
<glyph d="M60 0v530h380v-110h-248v-115h156v-110h-156v-195h-132z" glyph-name="uni0493.alt" horiz-adv-x="460" unicode=""/>
<glyph d="M30 412h320v-124h-320v124z" glyph-name="uniF6BA" horiz-adv-x="380" unicode=""/>
<glyph d="M30 412h470v-124h-470v124z" glyph-name="uniF6BB" horiz-adv-x="530" unicode=""/>
<glyph d="M30 412h670v-124h-670v124z" glyph-name="uniF6BC" horiz-adv-x="730" unicode=""/>
<glyph d="M130 900h160l-150 -150h-120z" glyph-name="uniF6C9" horiz-adv-x="310" unicode=""/>
<glyph d="M20 900h120l60 -60l60 60h120l-110 -150h-140z" glyph-name="uniF6CA" horiz-adv-x="400" unicode=""/>
<glyph d="M340 745q-35 0 -57.5 22.5t-22.5 57.5t22.5 57.5t57.5 22.5t57.5 -22.5t22.5 -57.5t-22.5 -57.5t-57.5 -22.5zM100 745q-35 0 -57.5 22.5t-22.5 57.5t22.5 57.5t57.5 22.5t57.5 -22.5t22.5 -57.5t-22.5 -57.5t-57.5 -22.5z" glyph-name="uniF6CB" horiz-adv-x="440" unicode=""/>
<glyph d="M20 900h160l110 -150h-120z" glyph-name="uniF6CE" horiz-adv-x="310" unicode=""/>
<glyph d="M340 900h128l-161 -150h-101zM148 900h125l-133 -150h-101z" glyph-name="uniF6CF" horiz-adv-x="500" unicode=""/>
<glyph d="M20 877h320v-104h-320v104z" glyph-name="uniF6D0" horiz-adv-x="360" unicode=""/>
<glyph d="M210 740q-98 0 -144 43.5t-46 126.5h126q0 -48 16 -66t48 -18t48 18t16 66h126q0 -83 -46 -126.5t-144 -43.5z" glyph-name="uniF6D1" horiz-adv-x="420" unicode=""/>
<glyph d="M190 585q-89 0 -129.5 38t-40.5 112h117q0 -39 13.5 -54.5t39.5 -15.5q28 0 41.5 15.5t13.5 54.5h115q0 -74 -40.5 -112t-129.5 -38z" glyph-name="uniF6D4" horiz-adv-x="380" unicode=""/>
<glyph d="M320 114q60 0 95 37t35 109v20q0 63 -36 99.5t-94 36.5q-60 0 -95 -36t-35 -100v-20q0 -70 36 -108t94 -38zM320 -12q-137 0 -208.5 70.5t-71.5 201.5v20q0 60 18.5 108.5t54.5 82.5t88 52.5t119 18.5q137 0 208.5 -69t71.5 -193v-20q0 -128 -73 -200t-207 -72z" glyph-name="uniF730" horiz-adv-x="640" unicode=""/>
<glyph d="M200 378l-160 -109v146l169 115h141v-530h-150v378z" glyph-name="uniF731" horiz-adv-x="430" unicode=""/>
<glyph d="M45 94l218 149q33 22 53 38t31 28.5t14.5 24.5t3.5 26q0 26 -20 41t-55 15q-47 0 -71 -21t-24 -70h-150q0 48 16 88t47.5 68.5t77 44.5t104.5 16q55 0 97 -13t70.5 -36t43 -54.5t14.5 -68.5q0 -32 -7 -57.5t-26.5 -50.5t-53.5 -51.5t-87 -60.5l-41 -26h215v-124h-470v94z " glyph-name="uniF732" unicode=""/>
<glyph d="M280 -212q-61 0 -107.5 17t-78 48t-48 74.5t-16.5 97.5h150q0 -54 23 -82.5t77 -28.5q51 0 75.5 27.5t24.5 76.5q0 47 -23.5 73t-76.5 26h-55v116h55q44 0 67 22.5t23 64.5q0 46 -22 71t-68 25q-48 0 -69 -26.5t-21 -74.5h-150q0 51 15.5 93t46 72t75 46t103.5 16 t104 -15t75 -42t45.5 -64t15.5 -80q0 -58 -29 -101t-80 -60q58 -17 88.5 -61.5t30.5 -113.5q0 -46 -16 -85.5t-47.5 -69t-78.5 -46t-108 -16.5z" glyph-name="uniF733" unicode=""/>
<glyph d="M330 124v239l-170 -239h170zM330 0h-310v104l310 426h150v-406h80v-124h-80v-200h-150v200z" glyph-name="uniF734" horiz-adv-x="580" unicode=""/>
<glyph d="M295 -212q-64 0 -110 16.5t-75.5 45.5t-44 67.5t-15.5 82.5h150q3 -40 26.5 -63t68.5 -23q51 0 78 32.5t27 101.5q0 37 -9 62t-23.5 40t-33.5 21.5t-39 6.5q-31 0 -53.5 -13t-36.5 -35h-140v400h446v-124h-296v-138q17 15 48.5 25.5t66.5 10.5q104 0 162 -63t58 -192 q0 -125 -68.5 -193t-186.5 -68z" glyph-name="uniF735" horiz-adv-x="590" unicode=""/>
<glyph d="M305 114q50 0 77.5 30.5t27.5 78.5v10q0 48 -27.5 78t-77.5 30t-77.5 -30t-27.5 -78v-10q0 -48 27.5 -78.5t77.5 -30.5zM315 -12q-62 0 -111 19t-83.5 59.5t-52.5 103.5t-18 150v20q0 100 21 170.5t58 115.5t87 65.5t109 20.5q44 0 81.5 -10t66 -31.5t47.5 -55t25 -80.5 h-140q-10 26 -28.5 38.5t-56.5 12.5q-29 0 -52 -8.5t-39.5 -31t-26 -61.5t-12.5 -100q26 40 68 56t92 16q98 0 154 -57.5t56 -162.5v-11q0 -53 -18.5 -97t-51.5 -75.5t-78 -48.5t-97 -17z" glyph-name="uniF736" horiz-adv-x="605" unicode=""/>
<glyph d="M336 406h-316v124h470v-109l-240 -621h-160z" glyph-name="uniF737" horiz-adv-x="520" unicode=""/>
<glyph d="M305 411q38 8 64.5 31.5t26.5 65.5q0 39 -25.5 58.5t-65.5 19.5q-39 0 -64.5 -19.5t-25.5 -58.5q0 -42 26.5 -65.5t63.5 -31.5zM305 114q54 0 82 24t28 65q0 45 -32.5 71.5t-77.5 34.5q-45 -8 -77.5 -34.5t-32.5 -71.5q0 -41 29 -65t81 -24zM305 -12q-60 0 -108 14.5 t-81.5 41t-52 64t-18.5 83.5q0 59 35 105.5t98 65.5q-23 9 -43 24t-36 35.5t-25 45.5t-9 54q0 42 16.5 77t47.5 60.5t75.5 39.5t100.5 14t101 -14t76 -39.5t47.5 -60.5t16.5 -77q0 -58 -30 -98.5t-84 -60.5q64 -22 98.5 -64.5t34.5 -106.5q0 -46 -18 -83.5t-52 -64t-82 -41 t-108 -14.5z" glyph-name="uniF738" horiz-adv-x="610" unicode=""/>
<glyph d="M310 169q50 0 77.5 31t27.5 87v10q0 54 -28.5 86.5t-76.5 32.5q-50 0 -77.5 -31.5t-27.5 -87.5v-10q0 -56 27.5 -87t77.5 -31zM295 -212q-93 0 -152.5 43t-72.5 134h140q10 -26 31 -38.5t59 -12.5q23 0 44.5 9t38.5 32t28 64t14 106q-26 -40 -68 -56t-92 -16 q-49 0 -88 16.5t-66 46.5t-41.5 72.5t-14.5 94.5v11q0 53 18.5 98.5t51.5 78.5t78 52t97 19q126 0 195.5 -87.5t69.5 -264.5v-19q0 -104 -21 -177t-57.5 -119t-85.5 -66.5t-106 -20.5z" glyph-name="uniF739" horiz-adv-x="625" unicode=""/>
<glyph glyph-name="uniFEFF" horiz-adv-x="0" unicode="﻿"/>
</font>
</defs>
</svg>
