<svg width="24" height="24" viewBox="0 0 24 24" fill="none" xmlns="http://www.w3.org/2000/svg">
<path fill-rule="evenodd" clip-rule="evenodd" d="M7.78027 16.7197C5.67991 14.6193 4.49994 11.7706 4.49994 8.80025L4.49994 5.17603C4.49994 5.0454 4.60052 4.93679 4.73076 4.92677L9.23076 4.58061C9.37596 4.56944 9.49994 4.68425 9.49994 4.82988L9.49994 9.03647L7.91453 9.82918L7.45456 10.0592L7.50332 10.5711L7.53339 10.8869C7.84026 14.109 10.391 16.6597 13.613 16.9665L13.9289 16.9966L14.4408 17.0454L14.6708 16.5854L15.4635 15L19.67 15C19.8157 15 19.9305 15.124 19.9193 15.2692L19.5732 19.7692C19.5632 19.8994 19.4546 20 19.324 20L15.6997 20C12.7293 20 9.88063 18.82 7.78027 16.7197ZM2.99994 8.80025C2.99994 12.1684 4.33794 15.3987 6.71961 17.7803C9.10127 20.162 12.3315 21.5 15.6997 21.5L19.324 21.5C20.2384 21.5 20.9987 20.796 21.0688 19.8842L21.4149 15.3842C21.4931 14.3678 20.6894 13.5 19.67 13.5L15 13.5L14.5365 13.5L14.3292 13.9146L13.5609 15.4512C11.2117 15.1397 9.36029 13.2883 9.04878 10.9391L10.5853 10.1708L10.9999 9.96353L10.9999 9.5L10.9999 4.82988C10.9999 3.81048 10.1321 3.00685 9.11572 3.08503L4.61572 3.43119C3.70398 3.50132 2.99994 4.26159 2.99994 5.17603L2.99994 8.80025Z" fill="#2B2F38"/>
</svg>
