<svg width="24" height="24" viewBox="0 0 24 24" fill="none" xmlns="http://www.w3.org/2000/svg">
<path fill-rule="evenodd" clip-rule="evenodd" d="M12 3.1615L12.3354 3.3292L22.3354 8.3292V9.67085L12.3354 14.6708L12 14.8386L11.6646 14.6708L1.66461 9.67085V8.3292L11.6646 3.3292L12 3.1615ZM12 4.83855L3.67707 9.00002L12 13.1615L20.323 9.00002L12 4.83855ZM18.25 13.375V17.0426L12 20.1618L5.75002 17.0426V13.375L4.25002 12.625V17.5065V17.9704L4.66511 18.1776L11.6651 21.6711L12 21.8382L12.3349 21.6711L19.3349 18.1776L19.75 17.9704V17.5065V12.625L18.25 13.375ZM22 13.5C22.5523 13.5 23 13.0523 23 12.5C23 11.9477 22.5523 11.5 22 11.5C21.4477 11.5 21 11.9477 21 12.5C21 13.0523 21.4477 13.5 22 13.5Z" fill="#2B2F38"/>
</svg>
