<svg width="145" height="40" viewBox="0 0 145 40" fill="none" xmlns="http://www.w3.org/2000/svg">
<path id="path-logo" fill-rule="evenodd" clip-rule="evenodd" d="M7.94118 10.3432H4.26471H3.41579L2.81359 10.9416L0.607708 13.1333L0 13.7371V14.5938V25.4063V26.263L0.607708 26.8668L2.81359 29.0585L3.41579 29.6569H4.26471H7.94118V33.5888H12.0588V29.6569H15.7353H16.5842L17.1864 29.0585L19.3923 26.8668L20 26.263V25.4063V14.5938V13.7371L19.3923 13.1333L17.1864 10.9416L16.5842 10.3432H15.7353H12.0588V6.41132H7.94118V10.3432ZM12.0588 25.5392V14.4609H14.8864L15.8824 15.4505V24.5496L14.8864 25.5392H12.0588ZM7.94118 25.5392V14.4609H5.11362L4.11765 15.4505V24.5496L5.11362 25.5392H7.94118Z" fill="#2994E0"/>
<path id="path-text" d="M40.76 27H43.96V25.26H45.48C49.4 25.26 51.82 23.18 51.82 19.86C51.82 16.56 49.4 14.48 45.48 14.48H43.96V12.8H40.76V14.48H39.24C35.32 14.48 32.9 16.56 32.9 19.86C32.9 23.18 35.32 25.26 39.24 25.26H40.76V27ZM39.26 22.46C37.24 22.46 36.18 21.52 36.18 19.86C36.18 18.22 37.24 17.28 39.26 17.28H40.76V22.46H39.26ZM43.96 22.46V17.28H45.46C47.48 17.28 48.56 18.22 48.56 19.86C48.56 21.52 47.48 22.46 45.46 22.46H43.96ZM54.2827 27H60.7427C63.8627 27 65.8027 25.38 65.8027 22.76C65.8027 20.14 63.8627 18.54 60.7427 18.54H57.3427V15.8H64.8227V13H54.2827V27ZM57.3427 24.38V21.08H60.5027C61.8027 21.08 62.6027 21.72 62.6027 22.72C62.6027 23.72 61.8027 24.38 60.5027 24.38H57.3427ZM68.2577 27H71.4377V21.52H73.5177L77.2777 27H81.1577L76.2177 19.74L80.8177 13H77.2977L73.5377 18.48H71.4377V13H68.2577V27ZM83.0139 27H86.3539L92.7339 17.72V27H95.8939V13H92.5339L86.1739 22.24V13H83.0139V27ZM104.011 27H107.351L113.731 17.72V27H116.891V13H113.531L107.171 22.24V13H104.011V27ZM120.408 27H123.608V16.04H130.488V13H120.408V27ZM136.215 27.3C138.635 27.3 140.155 25.92 141.095 23.18L144.575 13H141.295L138.995 20.7C138.915 20.44 138.795 20.2 138.675 20L134.475 13H130.655L136.915 22.5C137.175 22.9 137.275 23.28 137.275 23.62C137.275 24.22 136.855 24.6 136.175 24.6C135.315 24.6 134.755 23.94 134.755 22.98V22.2H131.615V22.92C131.615 25.54 133.555 27.3 136.215 27.3Z" fill="#2B2F38"/>
</svg>
