<svg xmlns="http://www.w3.org/2000/svg" fill="none" viewBox="0 0 120 56">
  <path fill="#2994E0" fill-rule="evenodd" d="m78.805 34.005-2.09 3.494a1.477 1.477 0 0 0-.249.978v14.215a.133.133 0 0 1-.095.137.137.137 0 0 1-.06.004H71.74a.242.242 0 0 1-.24-.15.236.236 0 0 1-.018-.097V8.943a.465.465 0 0 1 .31-.521.474.474 0 0 1 .218-.022h3.952a.478.478 0 0 1 .477.31.468.468 0 0 1 .027.199v20.25c.01.3.187.302.339.08L88.134 8.782a.66.66 0 0 1 .706-.38h4.045c.275.005.354.159.278.412l-10.85 19.43a.645.645 0 0 0-.02.853l11.182 23.119c.192.43.137.613-.265.623l-4.118-.005a.62.62 0 0 1-.63-.412l-9.159-18.445c-.155-.264-.32-.285-.498.029Zm30.665-1.715-6.566 20.387a.524.524 0 0 1-.561.318h-4.155a.585.585 0 0 1-.577-.631V9.234a.727.727 0 0 1 .493-.803.741.741 0 0 1 .339-.03h3.034c.535.028.561.435.569.829l-.013 31.216c.015.341.249.388.394.008l4.222-12.883 6.257-18.344a1.422 1.422 0 0 1 1.325-.832l3.501.005c.664-.01 1.01.267 1.034.827l.013 43.114a.609.609 0 0 1-.171.465.62.62 0 0 1-.459.191h-3.38c-.315-.041-.486-.258-.496-.664 0-11.16.002-22.319.005-33.478-.005-.456-.254-.63-.438.005l-4.37 13.43ZM51.616 48.008c2.377 0 4.742.008 7.12.008a1.31 1.31 0 0 0 .976-.333l1.724-1.71a1.235 1.235 0 0 0 .304-.93l-.012-10.582a1.057 1.057 0 0 0-.381-1.015l-1.73-1.729a.776.776 0 0 0-.616-.237h-7.582c-.344-.018-.559.165-.632.574v15.034a.84.84 0 0 0 .492.843.83.83 0 0 0 .337.077Zm-5.682 4.452c0-14.596-.003-29.075-.003-43.674a.391.391 0 0 1 .263-.366.398.398 0 0 1 .157-.022h17.734a.61.61 0 0 1 .692.48v3.593c-.023.308-.223.462-.698.459L51.5 12.907c-.472.021-.656.295-.65.727v12.354c-.04.511.23.662.637.667h9.456c.276.016.538.123.745.305 1.502 1.487 3.001 2.975 4.498 4.463.271.346.416.774.41 1.212l-.024 14.297a1.653 1.653 0 0 1-.532 1.257l-4.328 4.3a1.507 1.507 0 0 1-.861.344H46.317a.368.368 0 0 1-.357-.227.36.36 0 0 1-.026-.146ZM18.603 6.885v5.618a.162.162 0 0 1-.103.161.162.162 0 0 1-.067.01h-7.878a.317.317 0 0 0-.223.092l-3.489 3.466a.253.253 0 0 0-.078.175v16.899c-.006.26-.097.388-.362.411-.2.003-.397.003-.596.003a.385.385 0 0 1-.38-.25.378.378 0 0 1-.021-.16V15.917a.41.41 0 0 1 .117-.287l4.194-4.162a.541.541 0 0 1 .38-.143l6.945-.003a.212.212 0 0 0 .202-.216V6.937c-.005-.323.134-.474.401-.477h.593c.279.005.368.211.365.425Z" clip-rule="evenodd"/>
  <path fill="#2994E0" fill-rule="evenodd" d="m10.573 16.602 1.52-1.492a.334.334 0 0 1 .262-.094h6.078a.187.187 0 0 1 .145.06.184.184 0 0 1 .047.15v26.97a.143.143 0 0 1-.047.108.146.146 0 0 1-.113.038l-9.047-.003a.53.53 0 0 1-.348-.145l-2.412-2.369a.138.138 0 0 1-.003-.214l.709-.694a.184.184 0 0 1 .252-.036l2.042 2.003a.38.38 0 0 0 .262.122h7.162a.169.169 0 0 0 .178-.117.165.165 0 0 0 .005-.076V16.576c-.002-.146-.057-.222-.196-.224h-4.22a.217.217 0 0 0-.174.076l-1.141 1.119-.96-.945Z" clip-rule="evenodd"/>
  <path fill="#2994E0" fill-rule="evenodd" d="M10.78 24.59v9.79a.205.205 0 0 1-.123.2.207.207 0 0 1-.081.017h-.94a.217.217 0 0 1-.199-.133.212.212 0 0 1-.016-.082v-9.797a.208.208 0 0 1 .218-.19h.931c.168.002.216.09.21.195Zm-.44 18.842h10.754a.221.221 0 0 1 .242.21v9.064c-.005.135-.08.203-.247.205h-.879c-.144-.01-.226-.075-.234-.208V44.96a.201.201 0 0 0-.176-.178h-9.46c-.147 0-.236-.062-.242-.192v-.945a.23.23 0 0 1 .241-.213ZM2.79 25.007a1.61 1.61 0 0 1 1.483.982 1.584 1.584 0 0 1-.346 1.738A1.607 1.607 0 0 1 1.188 26.6c0-.422.169-.827.469-1.126.3-.299.707-.467 1.132-.468Zm3.595 12.304a.9.9 0 0 1 .83.55.885.885 0 0 1-.195.97.897.897 0 0 1-1.53-.63c0-.236.095-.462.263-.629a.9.9 0 0 1 .632-.26Zm0-.845c.345 0 .683.102.97.292a1.724 1.724 0 0 1 .264 2.669 1.749 1.749 0 0 1-1.902.376 1.743 1.743 0 0 1-.783-.639 1.727 1.727 0 0 1 .217-2.19 1.752 1.752 0 0 1 1.234-.508Z" clip-rule="evenodd"/>
  <path fill="#2994E0" fill-rule="evenodd" d="M10.114 33.428a1.427 1.427 0 0 1 1.313.871 1.404 1.404 0 0 1-.307 1.539 1.424 1.424 0 0 1-1.548.307 1.42 1.42 0 0 1-.878-1.303c0-.375.15-.734.416-.999a1.428 1.428 0 0 1 1.004-.415Zm-.005-11.302a1.426 1.426 0 0 1 1.31.87 1.403 1.403 0 0 1-.307 1.538 1.422 1.422 0 0 1-1.547.306 1.405 1.405 0 0 1-.46-2.3 1.425 1.425 0 0 1 1.004-.414Zm.233-5.266a.899.899 0 0 1 .827.55.884.884 0 0 1-.194.968.896.896 0 0 1-1.528-.629c0-.235.095-.461.263-.628a.9.9 0 0 1 .632-.26Zm0-.844a1.753 1.753 0 0 1 1.612 1.07 1.724 1.724 0 0 1-.378 1.89 1.75 1.75 0 0 1-1.902.376 1.743 1.743 0 0 1-.783-.639 1.726 1.726 0 0 1 .783-2.566 1.76 1.76 0 0 1 .668-.131ZM20.335 4.9v7.608a.16.16 0 0 0 .104.161.161.161 0 0 0 .067.01h10.356a.303.303 0 0 1 .223.092l3.488 3.466a.234.234 0 0 1 .079.175v7.847c.005.258.1.388.365.412.196 0 .396 0 .595.002a.39.39 0 0 0 .379-.253.384.384 0 0 0 .023-.159v-8.34a.416.416 0 0 0-.12-.287l-4.192-4.162a.53.53 0 0 0-.38-.14l-9.424-.006a.216.216 0 0 1-.203-.216V4.953c.006-.324-.134-.475-.401-.48l-.594.002c-.278.003-.367.21-.365.426Z" clip-rule="evenodd"/>
  <path fill="#2994E0" fill-rule="evenodd" d="M23.813 9.8h8.692a.366.366 0 0 1 .281.136l4.924 4.893a.483.483 0 0 1 .173.328v18.52a.165.165 0 0 0 .157.153l1.019.002a.176.176 0 0 0 .183-.156V14.8a.87.87 0 0 0-.33-.688L33.36 8.598a.361.361 0 0 0-.31-.146h-9.253c-.174 0-.26.08-.274.23l.006.86a.25.25 0 0 0 .175.249.254.254 0 0 0 .108.01Zm6.826 14.795v9.79a.202.202 0 0 0 .123.2.206.206 0 0 0 .081.016h.94a.215.215 0 0 0 .215-.213V24.59a.212.212 0 0 0-.217-.19h-.932c-.168.002-.216.091-.21.195Zm7.221 15.11v1.633a.254.254 0 0 1-.093.203l-4.255 4.225a.176.176 0 0 1-.112.057H22.682a.138.138 0 0 0-.14.123v6.827a.175.175 0 0 0 .107.168c.022.01.045.015.069.015h1.021a.203.203 0 0 0 .165-.186l.003-5.405a.192.192 0 0 1 .175-.191h9.769a.444.444 0 0 0 .294-.125l5.002-4.97a.217.217 0 0 0 .073-.173v-2.198a.273.273 0 0 0-.254-.245h-.874a.223.223 0 0 0-.231.242Z" clip-rule="evenodd"/>
  <path fill="#2994E0" fill-rule="evenodd" d="M38.536 36.758a1.75 1.75 0 0 0-.97.293 1.736 1.736 0 0 0-.742 1.78c.068.336.234.645.478.888a1.749 1.749 0 0 0 1.902.376c.318-.131.591-.354.783-.639a1.726 1.726 0 0 0-.217-2.19 1.751 1.751 0 0 0-1.234-.508Zm-3.16-8.405a.9.9 0 0 0-.829.549.885.885 0 0 0 .193.97.897.897 0 0 0 1.531-.627.889.889 0 0 0-.262-.63.9.9 0 0 0-.633-.262Zm0-.842a1.753 1.753 0 0 0-1.612 1.07 1.725 1.725 0 0 0 .378 1.89 1.748 1.748 0 0 0 1.902.377 1.74 1.74 0 0 0 .783-.64 1.727 1.727 0 0 0-.783-2.566 1.754 1.754 0 0 0-.668-.131Zm-4.072 5.922a1.428 1.428 0 0 0-1.314.87 1.404 1.404 0 0 0 .306 1.54 1.424 1.424 0 0 0 1.549.308 1.406 1.406 0 0 0 .464-2.303 1.427 1.427 0 0 0-1.005-.415Zm.004-11.302a1.426 1.426 0 0 0-1.311.871 1.403 1.403 0 0 0 .308 1.537 1.423 1.423 0 0 0 2.423-.997 1.404 1.404 0 0 0-.877-1.304 1.425 1.425 0 0 0-.543-.107Zm.2-5.029a.901.901 0 0 0-.83.55.885.885 0 0 0 .195.97.898.898 0 0 0 1.53-.63.885.885 0 0 0-.552-.822.9.9 0 0 0-.343-.068Zm0-.841a1.75 1.75 0 0 0-1.61 1.07 1.722 1.722 0 0 0 .38 1.889 1.747 1.747 0 0 0 1.9.374 1.74 1.74 0 0 0 .782-.639 1.725 1.725 0 0 0-.785-2.563 1.752 1.752 0 0 0-.667-.131Z" clip-rule="evenodd"/>
  <path fill="#2994E0" fill-rule="evenodd" d="M34.583 30.476v8.598L32.57 40.89a.43.43 0 0 1-.288.123h-7.808c-.152-.006-.202-.086-.2-.193V16.58c.003-.146.063-.221.216-.224h4.6a.25.25 0 0 1 .19.076l1.243 1.118 1.047-.944-1.656-1.491a.4.4 0 0 0-.289-.094h-6.62a.193.193 0 0 0-.2.126.19.19 0 0 0-.01.083V42.2c.002.091.065.143.172.146l9.86-.003a.618.618 0 0 0 .383-.146l2.628-2.368a.31.31 0 0 0 .107-.203V30.47a.216.216 0 0 0-.217-.19h-.935c-.165.005-.213.093-.21.195Zm-11.06-27.19v6.296a.2.2 0 0 0 .122.2.204.204 0 0 0 .082.016h.94a.213.213 0 0 0 .215-.21V3.28a.212.212 0 0 0-.218-.188h-.932c-.168.003-.215.092-.21.193Zm-5.699.996a.9.9 0 0 0-.827.55.885.885 0 0 0 .194.968.897.897 0 0 0 1.528-.628.888.888 0 0 0-.262-.629.9.9 0 0 0-.633-.26Zm0-.844a1.736 1.736 0 0 0-1.711 2.073c.067.336.234.645.478.887a1.749 1.749 0 0 0 1.902.376c.319-.131.591-.354.783-.639a1.727 1.727 0 0 0-.218-2.19 1.752 1.752 0 0 0-1.234-.507Z" clip-rule="evenodd"/>
  <path fill="#2994E0" d="M24.492 3.447a1.736 1.736 0 0 0 1.443-1.99A1.744 1.744 0 0 0 23.933.023a1.736 1.736 0 0 0-1.444 1.99 1.744 1.744 0 0 0 2.003 1.434Z"/>
  <path fill="#2994E0" fill-rule="evenodd" d="M15.512 9.759h-6.66a.374.374 0 0 0-.281.136l-4.929 4.9a.484.484 0 0 0-.173.331v10.89h-1.36v-11.25a.873.873 0 0 1 .331-.688l5.553-5.52a.361.361 0 0 1 .31-.15h7.225c.173 0 .26.078.272.23l-.004.863a.249.249 0 0 1-.176.248.253.253 0 0 1-.108.01ZM3.49 31.375v9.976a.255.255 0 0 0 .095.2l4.257 4.233a.159.159 0 0 0 .113.057h10.728a.138.138 0 0 1 .139.126v6.835a.174.174 0 0 1-.106.17.178.178 0 0 1-.07.015h-1.02a.196.196 0 0 1-.166-.185l-.003-5.417a.196.196 0 0 0-.178-.19H7.503a.448.448 0 0 1-.294-.125l-5.007-4.98a.216.216 0 0 1-.07-.172v-10.54a.27.27 0 0 1 .254-.246h.873a.222.222 0 0 1 .22.149c.011.03.015.062.011.093Z" clip-rule="evenodd"/>
</svg>
