<svg width="48" height="48" viewBox="0 0 48 48" fill="none" xmlns="http://www.w3.org/2000/svg">
<path d="M0.500247 19.2222C0.547248 18.9898 0.597613 18.7585 0.651285 18.5286C0.66092 18.521 0.672576 18.5163 0.684828 18.5152C2.32323 18.5097 3.96163 18.5048 5.60004 18.5006C5.63006 18.5005 5.66008 18.5044 5.70092 18.5097C5.72381 18.5126 5.75016 18.516 5.78175 18.5194L5.39076 19.2222H0.500247Z" fill="white"/>
<path d="M0.237793 20.7855C0.296157 20.3499 0.366215 19.9181 0.447642 19.4902H5.78984L5.07235 20.7855H0.237793Z" fill="white"/>
<path fill-rule="evenodd" clip-rule="evenodd" d="M6.19573 40.0581C4.07908 37.7128 2.41929 34.9471 1.35662 31.9015C1.34579 31.8367 1.33974 31.771 1.33857 31.7051C1.33404 28.779 1.33304 25.8529 1.33559 22.9268C1.33559 22.8771 1.33862 22.8275 1.34157 22.7792C1.34291 22.7571 1.34424 22.7353 1.34526 22.714C1.61927 22.6466 5.63892 22.6254 6.19023 22.6849C6.20011 22.6923 6.20912 22.7007 6.21711 22.7101C6.2243 22.7198 6.22861 22.7313 6.22953 22.7433C6.23371 28.447 6.23755 34.1507 6.24103 39.8544V40.034L6.19573 40.0581ZM4.80526 24.1595H2.81332V26.1177C3.47622 26.1769 4.14328 26.1721 4.80526 26.1034V24.1595Z" fill="white"/>
<path d="M9.02902 42.7286C8.17163 42.0423 7.36238 41.2984 6.60716 40.5027V37.2936H41.3494C41.3646 37.9685 41.3629 38.6405 41.3612 39.3098V39.3109C41.3601 39.72 41.3591 40.1286 41.3619 40.5358C40.6198 41.3148 39.8257 42.0439 38.9854 42.7175C38.9837 42.7053 38.9821 42.6935 38.9804 42.6819C38.9781 42.666 38.9759 42.6505 38.9736 42.6355C38.965 42.5777 38.9574 42.5264 38.9545 42.4748C38.9477 42.3565 38.9423 42.238 38.9369 42.1196C38.9284 41.9309 38.9198 41.742 38.9054 41.5538C38.8468 41.1856 38.6525 40.8527 38.3608 40.6206C38.0691 40.3884 37.7011 40.2738 37.3292 40.2993C36.9572 40.3248 36.6083 40.4885 36.351 40.7583C36.0937 41.028 35.9466 41.3843 35.9387 41.757C35.926 42.3761 35.9287 42.9955 35.9315 43.6149C35.9327 43.8845 35.9339 44.1541 35.9338 44.4236V44.8001C34.7564 45.477 33.5161 46.0569 32.2238 46.5287L32.2237 41.8807C32.2323 41.6818 32.2015 41.4832 32.1331 41.2962C32.0647 41.1093 31.96 40.9377 31.8251 40.7913C31.6902 40.6449 31.5277 40.5266 31.3469 40.4432C31.1662 40.3598 30.9707 40.313 30.7718 40.3053C30.5729 40.2977 30.3744 40.3295 30.1878 40.3987C30.0012 40.468 29.8301 40.5735 29.6843 40.7091C29.5386 40.8447 29.4211 41.0078 29.3386 41.189C29.256 41.3701 29.2101 41.5658 29.2034 41.7648C29.1993 41.8346 29.2001 41.9047 29.2009 41.9748C29.2013 42.0036 29.2016 42.0323 29.2016 42.061L29.2004 47.4107C28.1568 47.6415 27.0877 47.8043 25.9979 47.8941V47.4899C25.9979 45.6627 25.9977 43.8355 25.9975 42.0083C26.0108 41.5243 25.8481 41.0518 25.5394 40.6786C25.2308 40.3055 24.7972 40.057 24.3192 39.9794C23.8412 39.9018 23.3512 40.0002 22.9404 40.2565C22.5295 40.5128 22.2256 40.9095 22.0851 41.373C22.0274 41.5864 22.0005 41.807 22.0052 42.0281C22.0005 43.432 22.001 44.8359 22.0014 46.2399L22.0017 47.8941C20.8982 47.803 19.816 47.6372 18.76 47.4018L18.7597 45.6942C18.7592 44.4251 18.7588 43.156 18.762 41.8869C18.7768 41.5904 18.7087 41.2956 18.5653 41.0357C18.4064 40.7608 18.1642 40.5437 17.8737 40.4157C17.5832 40.2878 17.2595 40.2555 16.9495 40.3238C16.6259 40.39 16.3342 40.5639 16.1221 40.8171C15.9099 41.0704 15.7898 41.388 15.7814 41.7182C15.7735 42.7532 15.7745 43.7882 15.7755 44.8232C15.7759 45.245 15.7763 45.6668 15.7761 46.0886V46.5285C14.4834 46.0565 13.2427 45.4763 12.065 44.799V44.4767C12.065 44.2267 12.0652 43.9766 12.0654 43.7266C12.066 43.1247 12.0666 42.5229 12.0638 41.9211C12.0754 41.6988 12.039 41.4767 11.9572 41.2696C11.8754 41.0626 11.7501 40.8756 11.5897 40.7212C11.3905 40.5158 11.1339 40.3752 10.8536 40.3178C10.5733 40.2603 10.2821 40.2887 10.0181 40.3991C9.74256 40.4969 9.50278 40.6754 9.32988 40.9112C9.15698 41.147 9.05893 41.4294 9.04846 41.7216C9.03469 41.8747 9.03757 42.0292 9.04044 42.1839C9.04194 42.264 9.04344 42.345 9.04259 42.425C9.04191 42.4897 9.03837 42.5544 9.03425 42.6296C9.03255 42.6605 9.03075 42.6934 9.02902 42.7286Z" fill="white"/>
<path d="M24.9817 47.9565C24.6562 47.9696 24.329 47.9762 24.0003 47.9762C23.735 47.9762 23.4708 47.9719 23.2076 47.9633C23.0265 47.9476 22.8458 47.9268 22.6657 47.9009L22.6655 46.4601C22.6651 44.9715 22.6647 43.483 22.6696 41.9944C22.6664 41.8106 22.6966 41.6277 22.7587 41.4547C22.8643 41.1758 23.0611 40.9407 23.317 40.7876C23.5729 40.6345 23.8731 40.5723 24.1688 40.6111C24.4773 40.6535 24.7616 40.8013 24.9735 41.0295C25.1855 41.2577 25.3119 41.5522 25.3314 41.863C25.3336 41.8876 25.3342 41.9123 25.3334 41.9369C25.332 43.9107 25.3303 45.8845 25.3283 47.8583C25.3225 47.8799 25.3143 47.9008 25.3038 47.9205C25.1965 47.9343 25.0892 47.9463 24.9817 47.9565Z" fill="white"/>
<path fill-rule="evenodd" clip-rule="evenodd" d="M46.5636 32.1281C45.4903 35.107 43.8439 37.8122 41.7574 40.1106L41.7519 40.1097C41.7444 40.1086 41.7381 40.1077 41.7348 40.104C41.726 40.0953 41.7203 40.0839 41.7188 40.0716C41.7158 34.383 41.7133 28.6944 41.7112 23.0059L41.7112 22.6729H46.583C46.5985 22.7541 46.6087 22.8362 46.6138 22.9187C46.6154 25.8803 46.6141 28.8419 46.6101 31.8034C46.6059 31.9132 46.5902 32.0219 46.5636 32.1281ZM45.1705 24.1578V26.136H43.1539V24.1578H45.1705Z" fill="white"/>
<path d="M47.55 19.4749C47.6305 19.8964 47.7 20.3219 47.7581 20.751C47.3997 20.8277 44.2045 20.8546 42.9659 20.7898L42.2663 19.5388C42.2689 19.5321 42.2708 19.5263 42.2723 19.5213C42.2752 19.5122 42.2772 19.5059 42.2813 19.5018C42.2895 19.4926 42.3005 19.4865 42.3126 19.4843L42.3413 19.4829C42.4177 19.4791 42.4944 19.4753 42.5709 19.4752C43.9351 19.4748 45.2993 19.4748 46.6831 19.4749L47.55 19.4749Z" fill="white"/>
<path d="M47.3932 18.7204C47.4191 18.8358 47.4442 18.9515 47.4685 19.0675C47.4728 19.1191 47.4743 19.1711 47.4727 19.2233H42.6462L42.2458 18.5176H47.3015C47.3377 18.5828 47.3683 18.6507 47.3932 18.7204Z" fill="white"/>
<path d="M47.1846 17.8663H42.2742C42.2498 17.604 42.24 17.3406 42.2449 17.0773C42.2722 17.0697 42.2987 17.0616 42.3248 17.0537C42.3799 17.037 42.4329 17.0209 42.4872 17.0109C42.7756 16.9618 43.0408 16.8218 43.2441 16.6114C43.4474 16.401 43.5782 16.1311 43.6173 15.8411C43.6695 15.5391 43.705 15.2345 43.7235 14.9286C37.1348 12.0137 30.5548 9.10535 23.9835 6.20363L4.30717 14.8999C4.23937 15.3916 4.31936 15.8923 4.53698 16.3383C4.61279 16.5013 4.72646 16.6438 4.86852 16.754C5.01058 16.8641 5.1769 16.9387 5.35363 16.9715C5.42603 16.9864 5.49773 17.0046 5.57401 17.024C5.61052 17.0333 5.64859 17.043 5.68778 17.0526V17.8704H0.814849C3.52333 7.5982 12.8773 0.0239258 24.0003 0.0239258C35.1218 0.0239258 44.4747 7.59619 47.1846 17.8663Z" fill="white"/>
<path fill-rule="evenodd" clip-rule="evenodd" d="M41.3446 36.4303V18.4998C29.846 18.4997 18.3614 18.4998 6.89078 18.5002C6.83249 18.5002 6.77418 18.5037 6.7159 18.5073L6.66934 18.51C6.65748 18.5109 6.6461 18.5151 6.63651 18.5221C6.62704 18.5316 6.61882 18.5423 6.61205 18.554V36.4218C7.58778 36.4851 8.56694 36.4728 9.54078 36.3851V36.0196C9.54069 34.0442 9.54073 32.0688 9.54091 30.0934L9.54066 30.0094C9.54021 29.9139 9.53977 29.8183 9.54459 29.7231C9.55466 29.5003 9.64072 29.2877 9.78845 29.1206C9.93618 28.9536 10.1367 28.8421 10.3566 28.8049C10.5877 28.7578 10.8281 28.795 11.0342 28.9097C11.2404 29.0245 11.3986 29.2092 11.4804 29.4305C11.5282 29.6078 11.5531 29.7905 11.5546 29.9741C11.5575 31.109 11.5578 32.2439 11.5582 33.3788C11.5584 34.2687 11.5587 35.1586 11.5602 36.0484C11.5321 36.1828 11.5478 36.3226 11.6049 36.4474L11.8237 36.4475C11.975 36.4476 12.1257 36.4477 12.2755 36.4473C12.4364 36.4469 12.5972 36.4461 12.7567 36.4453L12.9644 36.4443C13.0312 35.5371 13.0009 22.9631 12.927 22.6514H7.77828L8.2478 21.7936V20.1771H12.823V21.7766L13.3308 22.6872V22.956C13.3308 27.408 13.3308 31.8856 13.3311 36.3633C13.3304 36.3755 13.3329 36.3877 13.3382 36.3987C13.342 36.405 13.3483 36.4098 13.3602 36.4187C13.3672 36.424 13.3762 36.4308 13.3878 36.4402C13.7606 36.4616 14.1345 36.4542 14.5062 36.4182V35.9909C14.5086 31.645 14.5074 27.2991 14.5027 22.9533C14.4941 22.7319 14.5529 22.5131 14.6713 22.3258C14.7497 22.205 14.8169 22.077 14.885 21.9474C14.9153 21.8898 14.9457 21.8319 14.9774 21.7741V20.1739H19.5538V21.7847C19.6215 21.9282 19.6977 22.0675 19.7821 22.2019C19.9598 22.4686 20.045 22.7863 20.0244 23.1061C20.0208 27.4149 20.0192 31.7238 20.0195 36.0326C20.0195 36.1213 20.0208 36.2099 20.0222 36.3045L20.0242 36.4474C20.0942 36.4474 20.1605 36.448 20.2242 36.4485H20.2253C20.363 36.4497 20.4889 36.4508 20.6144 36.4459C20.8107 36.4665 21.0091 36.4532 21.2009 36.4067V22.6756L21.7043 21.7729V20.2034C21.7181 20.1964 21.7296 20.1894 21.7397 20.1832C21.758 20.172 21.7718 20.1636 21.7855 20.1636C23.1808 20.1606 24.576 20.1584 25.9713 20.1571C26.0476 20.157 26.1239 20.161 26.2002 20.1649L26.2299 20.1664C26.2379 20.1669 26.2458 20.1734 26.2533 20.1797L26.2597 20.1849C26.2661 20.1897 26.272 20.1951 26.2804 20.2028L26.2962 20.2171V21.8329L26.764 22.6742V36.427H27.93V22.6617L28.3871 21.8414C28.3871 21.7518 28.3865 21.6641 28.3859 21.5777V21.5766C28.3845 21.3826 28.3832 21.1945 28.3889 21.0072C28.3699 20.7303 28.3788 20.4522 28.4156 20.1771H33.0207C33.0295 20.4825 33.0285 20.7829 33.0275 21.0809C33.0266 21.3392 33.0258 21.596 33.0313 21.8526L33.4847 22.6702C33.4846 27.2221 33.4847 31.7759 33.4849 36.3315C33.4852 36.3439 33.4868 36.3562 33.4897 36.3682C33.4912 36.3799 33.4948 36.3913 33.5004 36.4017C33.5155 36.4183 33.5321 36.4336 33.5498 36.4474C33.5975 36.4474 33.6472 36.4478 33.6983 36.4483C33.8195 36.4493 33.9488 36.4505 34.0778 36.4461C34.2743 36.464 34.4723 36.4525 34.6653 36.4118V22.6354L35.1335 21.7981V20.1735H39.7117V21.777L40.1909 22.6591H39.7755C38.306 22.6569 36.8366 22.6577 35.3672 22.6615C35.3356 22.6616 35.3032 22.659 35.2706 22.6563C35.1703 22.6482 35.0677 22.6399 34.9765 22.7097C34.9762 27.2701 34.9765 31.8279 34.9773 36.3831C34.9773 36.3863 34.9786 36.3896 34.9806 36.3929C34.9814 36.3942 34.9823 36.3955 34.9832 36.3968C34.9841 36.398 34.9851 36.3992 34.9861 36.4004C34.9876 36.4022 34.9891 36.4039 34.9906 36.4056L34.9963 36.4123C35.0013 36.4186 35.0069 36.4245 35.0146 36.4326L35.0285 36.4474C35.0854 36.4474 35.1428 36.4478 35.2005 36.4483L35.2268 36.4485C35.3795 36.4498 35.5342 36.4511 35.6887 36.4457C35.9247 36.4646 36.1621 36.4536 36.3953 36.4129V35.9965C36.3933 34.0211 36.394 32.0458 36.3975 30.0704C36.3963 29.8983 36.4139 29.7266 36.4502 29.5583C36.4819 29.374 36.5699 29.2041 36.7021 29.0718C36.8342 28.9395 37.0041 28.8514 37.1884 28.8195C37.3867 28.7641 37.5976 28.7733 37.7903 28.8459C37.9831 28.9186 38.1476 29.0507 38.2601 29.2232C38.3986 29.443 38.465 29.7005 38.45 29.9598C38.4483 31.9846 38.4479 34.0093 38.4488 36.0341C38.4488 36.1237 38.4528 36.2132 38.4568 36.3032C38.4587 36.3454 38.4605 36.3879 38.462 36.4303H41.3446ZM36.394 24.4809L36.394 24.4796C36.3945 24.3751 36.3951 24.2682 36.3951 24.1578H38.4326V26.1364H36.4215C36.3884 25.809 36.3801 25.4795 36.3967 25.1508C36.3916 24.9315 36.3927 24.7121 36.394 24.4809ZM9.5406 24.8541V24.1533H11.5029C11.5795 24.812 11.5881 25.4768 11.5285 26.1373H9.55927C9.53655 25.92 9.53061 25.7012 9.54153 25.4829C9.53856 25.3373 9.53927 25.1917 9.53998 25.0461C9.54029 24.9821 9.5406 24.918 9.5406 24.8541Z" fill="white"/>
<path d="M23.982 7.24463L5.00023 15.375C5.04928 15.3886 5.09913 15.3991 5.14949 15.4065L5.77298 15.4072C6.7875 15.4086 7.80203 15.4099 8.81651 15.4048C8.95099 15.4002 9.08334 15.3699 9.20645 15.3156C9.64087 15.1339 10.0728 14.9464 10.5048 14.7588C10.6482 14.6966 10.7923 14.634 10.9359 14.5719C12.6176 13.8424 14.3003 13.1149 15.9838 12.3895C18.0519 11.4997 20.1203 10.6106 22.1889 9.72213C22.6004 9.54538 23.0125 9.36986 23.4192 9.1966L23.9685 8.96246C23.9998 8.96879 24.0307 8.97704 24.061 8.98713C24.403 9.13487 24.7448 9.28295 25.0866 9.43102C25.6818 9.68885 26.277 9.94668 26.873 10.2027C28.92 11.0792 30.9664 11.9571 33.0122 12.8364C34.9338 13.6619 36.8543 14.4901 38.7736 15.3208C38.9204 15.3834 39.0789 15.4141 39.2385 15.4108C39.9845 15.4084 40.7304 15.4084 41.4764 15.4085C41.8661 15.4085 42.2566 15.4086 42.6463 15.4082C42.709 15.4082 42.7718 15.4046 42.8544 15.3999C42.8997 15.3974 42.9511 15.3944 43.0114 15.3916L23.982 7.24463Z" fill="white"/>
<path fill-rule="evenodd" clip-rule="evenodd" d="M28.2609 22.6718H33.115L33.1312 22.6872C33.1396 22.6951 33.1453 22.7006 33.1503 22.7066L33.1542 22.7113C33.161 22.7193 33.1684 22.7279 33.1693 22.7368C33.1738 22.7858 33.1779 22.8351 33.1779 22.8843C33.1783 27.0556 33.1783 31.2269 33.1783 35.4281V36.4336C32.6903 36.4578 32.2179 36.451 31.7153 36.4368V36.0154C31.7153 35.5045 31.7151 34.9937 31.7149 34.4828C31.7144 32.9448 31.7139 31.4067 31.7179 29.8687C31.7259 29.7147 31.6999 29.5608 31.6417 29.4179C31.5836 29.2751 31.4948 29.1467 31.3816 29.042C31.2424 28.9088 31.0664 28.8206 30.8765 28.7887C30.6865 28.7568 30.4914 28.7829 30.3164 28.8634C30.1402 28.9262 29.9873 29.041 29.878 29.1927C29.7686 29.3444 29.7079 29.5257 29.7039 29.7127C29.6989 29.7977 29.6994 29.8832 29.6999 29.9685L29.7001 30.0121L29.7002 30.0458C29.7 32.0454 29.6999 34.0449 29.7 36.0444V36.4274H28.2819C28.2236 36.1591 28.2004 23.377 28.2609 22.6718ZM29.7 24.1529L29.6998 24.4787C29.6996 24.7111 29.6995 24.9308 29.7003 25.1505C29.7011 25.3787 29.703 25.607 29.7049 25.8359L29.7073 26.1367H31.6856C31.7463 25.4763 31.7373 24.8114 31.6587 24.1529H29.7Z" fill="white"/>
<path fill-rule="evenodd" clip-rule="evenodd" d="M25.0305 36.4388H26.4252C26.4829 35.7121 26.4602 22.9624 26.4036 22.6838C25.9369 22.6343 21.8421 22.6494 21.5608 22.7033V36.4474C21.6381 36.4474 21.7138 36.4481 21.7882 36.4488L21.7892 36.4488C21.9558 36.4504 22.1169 36.4519 22.277 36.4453C22.508 36.4681 22.7411 36.456 22.9685 36.4092L22.9686 30.0232C22.9644 29.9245 22.9654 29.8257 22.9718 29.7271C22.9849 29.4707 23.0965 29.2291 23.2833 29.0529C23.4701 28.8766 23.7177 28.7792 23.9745 28.781C24.1042 28.7781 24.2332 28.8008 24.3541 28.8477C24.4751 28.8947 24.5855 28.9651 24.6792 29.0549C24.7729 29.1446 24.848 29.252 24.9001 29.3708C24.9522 29.4896 24.9804 29.6175 24.983 29.7472C24.9865 29.8307 24.9861 29.9143 24.9857 29.9979L24.9854 30.0805C24.9836 32.0679 24.9844 34.0552 24.9878 36.0426C24.9599 36.1758 24.9748 36.3145 25.0305 36.4388ZM24.6405 24.1397L24.9689 24.1399V26.1379H22.9881V24.1478L23.2798 24.1453H23.282C23.51 24.1432 23.7389 24.1412 23.9679 24.1402C24.1876 24.1393 24.4074 24.1395 24.6405 24.1397Z" fill="white"/>
<path fill-rule="evenodd" clip-rule="evenodd" d="M18.2899 36.4058V36.0107C18.2899 34.011 18.2889 32.0112 18.2869 30.0114C18.2915 29.8272 18.2675 29.6434 18.2157 29.4665C18.1459 29.2691 18.0165 29.0983 17.8454 28.9777C17.6742 28.8571 17.4699 28.7926 17.2605 28.7932C17.0512 28.7937 16.8472 28.8593 16.6767 28.9809C16.5063 29.1024 16.3778 29.2739 16.309 29.4717C16.2585 29.6488 16.2348 29.8326 16.2389 30.0168C16.2342 32.0165 16.2332 34.0163 16.2359 36.0161V36.4305H14.8313V22.7046C15.1086 22.6484 19.1057 22.6296 19.6682 22.6809C19.7305 22.9689 19.758 35.5169 19.6984 36.4017C19.231 36.4631 18.7577 36.4645 18.2899 36.4058ZM16.2485 26.1231C16.9281 26.1851 17.6124 26.1753 18.2899 26.0936C18.2899 25.9977 18.2904 25.9015 18.2909 25.8051C18.292 25.584 18.293 25.3609 18.2885 25.1387C18.3038 24.8056 18.2955 24.4718 18.2638 24.1399C18.1538 24.1399 18.0461 24.1396 17.94 24.1394C17.7027 24.1388 17.4733 24.1382 17.2439 24.1407C17.1398 24.1417 17.0355 24.1405 16.9308 24.1393C16.7061 24.1367 16.479 24.1341 16.2485 24.1541V26.1231Z" fill="white"/>
<path d="M23.9839 10.5719L12.759 15.3533L12.7843 15.3893H21.1744C21.3852 14.2483 21.8309 13.4764 22.4322 13.2539C22.4322 13.365 22.4321 13.4748 22.4319 13.5836V13.5899C22.4315 13.8398 22.4311 14.0848 22.4328 14.3298C22.4335 14.4367 22.4327 14.5438 22.4319 14.6514V14.6524C22.4302 14.8992 22.4284 15.1493 22.4443 15.4088H23.1944V12.8411C23.7192 12.6693 24.2873 12.6843 24.8024 12.8834C24.8069 13.2452 24.806 13.6076 24.805 13.9707C24.8037 14.4423 24.8024 14.9161 24.8132 15.391H25.5604C25.5604 15.2762 25.5598 15.1631 25.5593 15.0511C25.5581 14.7994 25.557 14.553 25.5619 14.3071C25.5454 13.9393 25.5548 13.5707 25.59 13.2042C25.9352 13.4645 26.223 13.7933 26.4355 14.17C26.6275 14.5514 26.7433 14.9667 26.7762 15.3926H35.3011L23.9839 10.5719Z" fill="white"/>
<path d="M6.60179 18.2682V17.5467L6.61545 17.5338C6.62319 17.5264 6.62915 17.5207 6.63569 17.5159L6.64031 17.5124C6.6486 17.5061 6.65772 17.4992 6.66635 17.4991C18.1852 17.4966 29.704 17.4949 41.2229 17.494C41.2638 17.4998 41.304 17.5101 41.3427 17.5247V18.2682H6.60179Z" fill="white"/>
<path d="M42.4183 16.4812L42.956 15.792L5.01439 15.792L5.54126 16.4812H42.4183Z" fill="white"/>
</svg>
