<svg width="580" height="108" viewBox="0 0 580 108" fill="none" xmlns="http://www.w3.org/2000/svg">
<g clip-path="url(#clip0_3448_7929)">
<path fill-rule="evenodd" clip-rule="evenodd" d="M31.7647 15.3728H13.6632L0 28.9483V79.0518L13.6632 92.6273H31.7647V108.355H48.2353V92.6273H66.3368L80 79.0518V28.9483L66.3368 15.3728H48.2353V-0.354858H31.7647V15.3728ZM48.2353 76.1567V31.8433H59.5455L63.5294 35.8017V72.1984L59.5455 76.1567H48.2353ZM31.7647 76.1567V31.8433H20.4545L16.4706 35.8017V72.1984L20.4545 76.1567H31.7647Z" fill="#2994E0"/>
<path d="M163.04 82H175.84V75.04H181.92C197.6 75.04 207.28 66.72 207.28 53.44C207.28 40.24 197.6 31.92 181.92 31.92H175.84V25.2H163.04V31.92H156.96C141.28 31.92 131.6 40.24 131.6 53.44C131.6 66.72 141.28 75.04 156.96 75.04H163.04V82ZM157.04 63.84C148.96 63.84 144.72 60.08 144.72 53.44C144.72 46.88 148.96 43.12 157.04 43.12H163.04V63.84H157.04ZM175.84 63.84V43.12H181.84C189.92 43.12 194.24 46.88 194.24 53.44C194.24 60.08 189.92 63.84 181.84 63.84H175.84Z" fill="#2B2F38"/>
<path d="M217.131 82H242.971C255.451 82 263.211 75.52 263.211 65.04C263.211 54.56 255.451 48.16 242.971 48.16H229.371V37.2H259.291V26H217.131V82ZM229.371 71.52V58.32H242.011C247.211 58.32 250.411 60.88 250.411 64.88C250.411 68.88 247.211 71.52 242.011 71.52H229.371Z" fill="#2B2F38"/>
<path d="M273.031 82H285.751V60.08H294.071L309.111 82H324.631L304.871 52.96L323.271 26H309.191L294.151 47.92H285.751V26H273.031V82Z" fill="#2B2F38"/>
<path d="M332.056 82H345.416L370.936 44.88V82H383.576V26H370.136L344.696 62.96V26H332.056V82Z" fill="#2B2F38"/>
<path d="M416.043 82H429.403L454.923 44.88V82H467.563V26H454.123L428.683 62.96V26H416.043V82Z" fill="#2B2F38"/>
<path d="M481.631 82H494.431V38.16H521.951V26H481.631V82Z" fill="#2B2F38"/>
<path d="M544.859 83.2C554.539 83.2 560.619 77.68 564.379 66.72L578.299 26H565.179L555.979 56.8C555.659 55.76 555.179 54.8 554.699 54L537.899 26H522.619L547.659 64C548.699 65.6 549.099 67.12 549.099 68.48C549.099 70.88 547.419 72.4 544.699 72.4C541.259 72.4 539.019 69.76 539.019 65.92V62.8H526.459V65.68C526.459 76.16 534.219 83.2 544.859 83.2Z" fill="#2B2F38"/>
</g>
<defs>
<clipPath id="clip0_3448_7929">
<rect width="580" height="108" fill="white"/>
</clipPath>
</defs>
</svg>
