<?xml version="1.0" encoding="UTF-8"?>
<!DOCTYPE svg  PUBLIC '-//W3C//DTD SVG 1.1//EN'  'http://www.w3.org/Graphics/SVG/1.1/DTD/svg11.dtd'>
<svg version="1.1" xmlns="http://www.w3.org/2000/svg">
<defs>
<font id="GolosUI-Bold" horiz-adv-x="550">
<font-face font-family="Golos_UI" font-weight="700" ascent="774" bbox="-400 -209 1034 925" cap-height="700" descent="-226" panose-1="2 11 7 4 2 2 2 2 2 4" underline-position="-100" underline-thickness="50" unicode-range="U+000D-FEFF" units-per-em="1000" x-height="530"/>
<missing-glyph d="M50 512h400v-512h-400v512zM442 8v496h-384v-496h384z" horiz-adv-x="500"/>
<glyph d="M50 512h400v-512h-400v512zM442 8v496h-384v-496h384z" glyph-name=".notdef" horiz-adv-x="500"/>
<glyph glyph-name="uni0000" horiz-adv-x="0"/>
<glyph glyph-name="uni0000" horiz-adv-x="0"/>
<glyph glyph-name="uni000D" horiz-adv-x="250" unicode="
"/>
<glyph glyph-name="space" horiz-adv-x="250" unicode=" "/>
<glyph d="M79 700h142v-480h-142v480zM150 -9q-35 0 -59 24t-24 59t24 59t59 24t59 -24t24 -59t-24 -59t-59 -24z" glyph-name="exclam" horiz-adv-x="300" unicode="!"/>
<glyph d="M206 700h108v-235h-108v235zM46 700h108v-235h-108v235z" glyph-name="quotedbl" horiz-adv-x="360" unicode='"'/>
<glyph d="M332 304l21 112h-102l-21 -112h102zM81 199h-75v105h95l21 112h-77v105h97l33 179h129l-34 -179h103l33 179h129l-33 -179h72v-105h-92l-21 -112h74v-105h-94l-36 -199h-129l37 199h-103l-36 -199h-129z" glyph-name="numbersign" horiz-adv-x="580" unicode="#"/>
<glyph d="M181 519q0 -29 12.5 -45.5t43.5 -31.5v147q-29 -8 -42.5 -26.5t-13.5 -43.5zM385 184q0 32 -14.5 51.5t-56.5 38.5v-164q38 6 54.5 25.5t16.5 48.5zM230 -6q-101 10 -150 64.5t-51 142.5h136q2 -41 18 -63t54 -29v196q-48 17 -84 36t-60 43t-36 55t-12 73q0 79 47 131 t138 63v94h91v-94q91 -11 137 -65t48 -139h-136q-2 35 -15 56.5t-41 29.5v-177q58 -21 97.5 -43t64 -47.5t35 -57t10.5 -72.5q0 -81 -49.5 -134t-150.5 -63v-94h-91v94z" glyph-name="dollar" unicode="$"/>
<glyph d="M166 371q-70 0 -109.5 39.5t-39.5 109.5v40q0 70 39.5 109.5t109.5 39.5t109.5 -39.5t39.5 -109.5v-40q0 -70 -39.5 -109.5t-109.5 -39.5zM166 451q26 0 39.5 15.5t13.5 53.5v40q0 38 -13.5 53.5t-39.5 15.5t-39.5 -15.5t-13.5 -53.5v-40q0 -38 13.5 -53.5t39.5 -15.5z M524 700h119l-467 -700h-119zM535 -8q-70 0 -109.5 39.5t-39.5 109.5v40q0 70 39.5 109.5t109.5 39.5t109.5 -39.5t39.5 -109.5v-40q0 -70 -39.5 -109.5t-109.5 -39.5zM535 72q26 0 39.5 15.5t13.5 53.5v40q0 38 -13.5 53.5t-39.5 15.5t-39.5 -15.5t-13.5 -53.5v-40 q0 -38 13.5 -53.5t39.5 -15.5z" glyph-name="percent" horiz-adv-x="700" unicode="%"/>
<glyph d="M285 604q-31 0 -47.5 -16t-16.5 -42q0 -27 10.5 -48.5t28.5 -44.5q31 21 49 36.5t27 27.5t11 21t2 18q0 18 -16.5 33t-47.5 15zM285 111q59 0 103 29l-147 159q-36 -28 -48.5 -50.5t-12.5 -51.5q0 -40 25.5 -63t79.5 -23zM285 -9q-122 0 -181.5 54.5t-59.5 144.5 q0 59 28.5 105t87.5 90q-31 35 -49.5 74t-18.5 94q0 33 12.5 61.5t37 49.5t60.5 33t83 12t83 -11.5t60.5 -31.5t37 -46.5t12.5 -56.5q0 -24 -6.5 -47t-22 -47t-42.5 -49t-68 -54l123 -133q19 44 19 97h133q0 -58 -14.5 -108t-41.5 -91l121 -131h-160l-44 48 q-40 -28 -87.5 -42.5t-102.5 -14.5z" glyph-name="ampersand" horiz-adv-x="700" unicode="&amp;"/>
<glyph d="M46 700h108v-235h-108v235z" glyph-name="quotesingle" horiz-adv-x="200" unicode="'"/>
<glyph d="M42 310q0 114 24.5 197t54.5 137q34 63 79 106h155q-48 -45 -85 -108q-16 -27 -31.5 -61.5t-27.5 -75.5t-19 -90t-7 -105v-20q0 -53 7 -99.5t19 -87.5t27.5 -75.5t31.5 -62.5q37 -66 85 -115h-158q-44 48 -78 113q-29 56 -53 137.5t-24 189.5v20z" glyph-name="parenleft" horiz-adv-x="360" unicode="("/>
<glyph d="M318 290q0 -108 -24.5 -189.5t-53.5 -137.5q-34 -65 -77 -113h-158q47 49 85 115q16 28 31 62.5t27 75.5t19.5 87.5t7.5 99.5v20q0 56 -7.5 105t-19.5 90t-27 75.5t-31 61.5q-38 63 -85 108h155q44 -43 79 -106q15 -27 29 -61t25 -76t18 -91t7 -106v-20z" glyph-name="parenright" horiz-adv-x="360" unicode=")"/>
<glyph d="M182 451l-85 -56l-49 85l92 45l-92 46l49 84l85 -55l-5 100h96l-5 -100l85 55l49 -84l-91 -46l91 -45l-49 -85l-85 56l5 -101h-96z" glyph-name="asterisk" horiz-adv-x="450" unicode="*"/>
<glyph d="M207 300h-150v120h150v158h136v-158h150v-120h-150v-158h-136v158z" glyph-name="plus" unicode="+"/>
<glyph d="M79 0v142h142v-142l-103 -171h-76z" glyph-name="comma" horiz-adv-x="300" unicode=","/>
<glyph d="M33 380h274v-120h-274v120z" glyph-name="hyphen" horiz-adv-x="340" unicode="-"/>
<glyph d="M150 -9q-38 0 -64 26t-26 64t26 64t64 26t64 -26t26 -64t-26 -64t-64 -26z" glyph-name="period" horiz-adv-x="300" unicode="."/>
<glyph d="M344 750h134l-322 -900h-134z" glyph-name="slash" horiz-adv-x="500" unicode="/"/>
<glyph d="M275 111q23 0 40.5 7.5t29 28.5t17.5 58.5t6 97.5v100q0 58 -6 94.5t-17.5 57t-29 28t-40.5 7.5t-40.5 -7.5t-29 -28t-17.5 -57t-6 -94.5v-100q0 -60 6 -97.5t17.5 -58.5t29 -28.5t40.5 -7.5zM275 -9q-59 0 -103 16t-73.5 53t-44.5 96.5t-15 146.5v100q0 85 15 143.5 t44.5 94.5t73.5 52t103 16t103 -16t73.5 -52t44.5 -94.5t15 -143.5v-100q0 -87 -15 -146.5t-44.5 -96.5t-73.5 -53t-103 -16z" glyph-name="zero" unicode="0"/>
<glyph d="M77 119h160v438l-153 -96v142l153 97h143v-581h130v-119h-433v119z" glyph-name="one" unicode="1"/>
<glyph d="M49 91l237 273q39 45 59 76.5t20 60.5q0 42 -23 65t-62 23t-62 -23t-23 -65h-136q0 43 16.5 80.5t46 66t70 45t88.5 16.5t88.5 -16.5t70 -45t46 -66t16.5 -80.5q0 -56 -33.5 -108.5t-82.5 -107.5l-149 -166h265v-119h-452v91z" glyph-name="two" unicode="2"/>
<glyph d="M265 -9q-54 0 -97 15.5t-73.5 43t-46.5 64t-16 78.5h140q0 -34 25 -57.5t68 -23.5t68 25t25 67q0 46 -27.5 71.5t-85.5 25.5h-61v120h61q54 0 78.5 22t24.5 66q0 38 -22 59.5t-61 21.5t-61 -20t-22 -52h-140q0 39 14.5 74t43 61.5t70 41.5t95.5 15q51 0 92 -15.5 t70.5 -41.5t45 -62t15.5 -76q0 -30 -8 -54t-20.5 -42.5t-29 -31.5t-34.5 -22q48 -20 75 -62.5t27 -105.5q0 -44 -16 -81t-46.5 -65t-73.5 -43.5t-97 -15.5z" glyph-name="three" unicode="3"/>
<glyph d="M332 260v259l-165 -259h165zM332 140h-313v103l289 457h160v-440h63v-120h-63v-140h-136v140z" glyph-name="four" unicode="4"/>
<glyph d="M276 -9q-53 0 -93.5 14.5t-68.5 40t-44 58.5t-20 71h143q7 -29 26.5 -46.5t56.5 -17.5t60.5 29t23.5 102t-23.5 102.5t-60.5 29.5q-30 0 -50 -19.5t-31 -45.5h-126v391h404v-119h-268v-133q16 16 44 30.5t66 14.5q41 0 75.5 -15t59.5 -45.5t39 -78t14 -112.5 q0 -130 -57.5 -190.5t-169.5 -60.5z" glyph-name="five" unicode="5"/>
<glyph d="M275 111q43 0 66.5 24.5t23.5 73.5v32q0 50 -23.5 74.5t-66.5 24.5t-66.5 -24t-23.5 -69v-38q0 -49 23.5 -73.5t66.5 -24.5zM275 -9q-111 0 -172 61.5t-61 184.5v181q0 79 14.5 134.5t44 90t73 50.5t101.5 16q90 0 146 -39t75 -131h-146q-9 30 -28.5 40.5t-46.5 10.5 q-24 0 -42 -6t-31 -22.5t-19.5 -46t-6.5 -75.5v-23q22 20 53.5 31t76.5 11q43 0 80 -15t64 -43.5t42.5 -69t15.5 -90.5v-32q0 -101 -61.5 -159.5t-171.5 -58.5z" glyph-name="six" unicode="6"/>
<glyph d="M359 581h-308v119h448v-102l-212 -598h-145z" glyph-name="seven" unicode="7"/>
<glyph d="M275 593q-38 0 -61 -22.5t-23 -59.5q0 -21 7.5 -38t19.5 -30t27 -21.5t30 -12.5q15 4 30 12.5t27 21.5t19.5 30t7.5 38q0 37 -23 59.5t-61 22.5zM275 107q45 0 72.5 26.5t27.5 62.5q0 45 -28 76t-72 39q-44 -8 -72 -39t-28 -76q0 -36 27.5 -62.5t72.5 -26.5zM275 -9 q-57 0 -101 15t-74 41.5t-45.5 63t-15.5 78.5q0 60 27.5 101.5t75.5 69.5q-38 23 -62.5 63.5t-24.5 94.5q0 40 15.5 74.5t44 60.5t69 41t91.5 15t91.5 -15t69 -41t44 -60.5t15.5 -74.5q0 -54 -24.5 -94.5t-62.5 -63.5q48 -28 75.5 -69.5t27.5 -101.5q0 -42 -15.5 -78.5 t-45.5 -63t-74 -41.5t-101 -15z" glyph-name="eight" unicode="8"/>
<glyph d="M275 360q43 0 66.5 24t23.5 69v38q0 49 -23.5 73.5t-66.5 24.5t-66.5 -24.5t-23.5 -73.5v-32q0 -50 23.5 -74.5t66.5 -24.5zM275 -9q-90 0 -146 39t-75 131h146q9 -30 28.5 -40.5t46.5 -10.5q24 0 42 6t31 22.5t19.5 46t6.5 75.5v23q-22 -20 -53.5 -31t-76.5 -11 q-43 0 -80 15t-64 43.5t-42.5 69t-15.5 90.5v32q0 101 61.5 159.5t171.5 58.5q111 0 172 -61.5t61 -184.5v-181q0 -79 -15 -134.5t-44 -90t-72.5 -50.5t-101.5 -16z" glyph-name="nine" unicode="9"/>
<glyph d="M150 359q-38 0 -64 26t-26 64t26 64t64 26t64 -26t26 -64t-26 -64t-64 -26zM150 -9q-38 0 -64 26t-26 64t26 64t64 26t64 -26t26 -64t-26 -64t-64 -26z" glyph-name="colon" horiz-adv-x="300" unicode=":"/>
<glyph d="M150 359q-38 0 -64 26t-26 64t26 64t64 26t64 -26t26 -64t-26 -64t-64 -26zM79 0v142h142v-142l-103 -171h-76z" glyph-name="semicolon" horiz-adv-x="300" unicode=";"/>
<glyph d="M57 299v122l436 199v-143l-269 -114l269 -116v-147z" glyph-name="less" unicode="&lt;"/>
<glyph d="M57 541h436v-120h-436v120zM57 299h436v-120h-436v120z" glyph-name="equal" unicode="="/>
<glyph d="M57 243l269 114l-269 116v147l436 -199v-122l-436 -199v143z" glyph-name="greater" unicode="&gt;"/>
<glyph d="M182 257q0 19 3 36.5t12 35.5t24.5 37.5t40.5 40.5q33 29 50.5 55.5t17.5 57.5t-21 50t-59 19t-59 -19t-21 -50h-139q0 40 15 74.5t43 60t69 40t92 14.5t91.5 -14.5t69 -40t43.5 -60t15 -74.5q0 -59 -28.5 -102t-74.5 -85q-17 -15 -27.5 -27.5t-16.5 -23t-8.5 -20.5 t-2.5 -22v-20h-129v37zM246 -9q-35 0 -58.5 24t-23.5 59t23.5 59t58.5 24t59 -24t24 -59t-24 -59t-59 -24z" glyph-name="question" horiz-adv-x="500" unicode="?"/>
<glyph d="M400 225q32 0 49 18.5t17 56.5v40q0 38 -17 56.5t-49 18.5t-49 -18.5t-17 -56.5v-40q0 -38 17 -56.5t49 -18.5zM425 -117q-90 0 -162 27t-122 82t-77 136.5t-27 191.5q0 108 26.5 190t74.5 137t114.5 82.5t147.5 27.5q171 0 267 -102t96 -301q0 -122 -37.5 -177 t-107.5 -55q-38 0 -68 16.5t-45 61.5q-20 -45 -55.5 -62t-77.5 -17q-67 0 -109 44.5t-42 134.5v40q0 48 12 82t32.5 55.5t48 31.5t58.5 10q34 0 63.5 -17t43.5 -52v60h100v-210q0 -45 10 -59.5t29 -14.5q9 0 16 4t12.5 17.5t8 38.5t2.5 68q0 156 -63 227.5t-194 71.5 q-56 0 -102 -19.5t-79 -60t-51 -103.5t-18 -150q0 -88 18.5 -151t54 -103.5t86.5 -59.5t116 -19q64 0 117 18.5t86 41.5v-114q-37 -21 -87 -35.5t-116 -14.5z" glyph-name="at" horiz-adv-x="800" unicode="@"/>
<glyph d="M403 259l-80 263l-81 -263h161zM250 700h150l243 -700h-153l-47 139h-240l-48 -139h-148z" glyph-name="A" horiz-adv-x="650" unicode="A"/>
<glyph d="M339 416q55 0 80.5 22.5t25.5 58.5q0 39 -25 61.5t-81 22.5h-119v-165h119zM339 119q70 0 98.5 24t28.5 68q0 46 -27.5 69.5t-99.5 23.5h-119v-185h119zM77 700h262q118 0 183.5 -48t65.5 -139q0 -52 -25.5 -89t-64.5 -59q52 -20 81.5 -59t29.5 -107q0 -42 -15 -78.5 t-47 -63t-81.5 -42t-119.5 -15.5h-269v700z" glyph-name="B" horiz-adv-x="650" unicode="B"/>
<glyph d="M330 -9q-129 0 -203.5 81t-74.5 248v80q0 152 74.5 230.5t203.5 78.5q62 0 109 -16t80 -46t52 -72.5t25 -95.5h-143q-9 51 -37 79t-86 28q-63 0 -99 -42.5t-36 -143.5v-80q0 -58 9.5 -97.5t26.5 -63.5t42 -34.5t57 -10.5q59 0 85.5 28.5t37.5 83.5h143 q-13 -112 -78 -173.5t-188 -61.5z" glyph-name="C" horiz-adv-x="630" unicode="C"/>
<glyph d="M330 119q63 0 99 45t36 150v80q0 99 -36 143t-99 44h-110v-462h110zM77 700h253q129 0 203.5 -77.5t74.5 -228.5v-80q0 -157 -74.5 -235.5t-203.5 -78.5h-253v700z" glyph-name="D" horiz-adv-x="660" unicode="D"/>
<glyph d="M77 700h455v-119h-312v-161h275v-120h-275v-181h312v-119h-455v700z" glyph-name="E" horiz-adv-x="575" unicode="E"/>
<glyph d="M77 700h459v-119h-316v-171h279v-120h-279v-290h-143v700z" glyph-name="F" horiz-adv-x="565" unicode="F"/>
<glyph d="M330 -9q-129 0 -203.5 81t-74.5 248v81q0 76 19 133.5t55 96.5t87.5 58.5t116.5 19.5q62 0 109 -16.5t80.5 -46.5t54 -72.5t29.5 -94.5h-145q-13 50 -41.5 78.5t-86.5 28.5q-63 0 -99 -42.5t-36 -143.5v-80q0 -58 9.5 -97.5t26.5 -63.5t42 -34.5t57 -10.5q69 0 102 34.5 t33 97.5h-135v112h278v-46q0 -83 -19.5 -143.5t-55.5 -100t-87.5 -58.5t-115.5 -19z" glyph-name="G" horiz-adv-x="660" unicode="G"/>
<glyph d="M77 700h143v-280h260v280h143v-700h-143v300h-260v-300h-143v700z" glyph-name="H" horiz-adv-x="700" unicode="H"/>
<glyph d="M84 700h142v-700h-142v700z" glyph-name="I" horiz-adv-x="310" unicode="I"/>
<glyph d="M236 -9q-113 0 -168 55.5t-59 158.5h143q4 -45 24 -68t60 -23q22 0 38.5 6.5t27.5 22t17 42t6 65.5v450h143v-450q0 -137 -57.5 -198t-174.5 -61z" glyph-name="J" horiz-adv-x="540" unicode="J"/>
<glyph d="M77 700h143v-304l226 304h166l-218 -283l262 -417h-169l-187 312l-80 -101v-211h-143v700z" glyph-name="K" horiz-adv-x="675" unicode="K"/>
<glyph d="M77 700h143v-581h309v-119h-452v700z" glyph-name="L" horiz-adv-x="540" unicode="L"/>
<glyph d="M77 700h144l198 -399l198 399h136v-700h-136v460l-151 -311h-102l-151 311v-460h-136v700z" glyph-name="M" horiz-adv-x="830" unicode="M"/>
<glyph d="M77 700h136l274 -468v468h136v-700h-136l-274 471v-471h-136v700z" glyph-name="N" horiz-adv-x="700" unicode="N"/>
<glyph d="M330 114q31 0 56.5 10t42.5 34t26.5 63.5t9.5 97.5v80q0 101 -36 144t-99 43t-99 -43t-36 -144v-80q0 -58 9.5 -97.5t26.5 -63.5t42 -34t57 -10zM330 -9q-129 0 -203.5 80.5t-74.5 247.5v80q0 153 74.5 231.5t203.5 78.5t203.5 -78.5t74.5 -231.5v-80 q0 -167 -74.5 -247.5t-203.5 -80.5z" glyph-name="O" horiz-adv-x="660" unicode="O"/>
<glyph d="M331 353q71 0 101.5 28.5t30.5 85.5t-30.5 85.5t-101.5 28.5h-111v-228h111zM77 700h254q139 0 207 -63t68 -170q0 -108 -68 -171t-207 -63h-111v-233h-143v700z" glyph-name="P" horiz-adv-x="640" unicode="P"/>
<glyph d="M330 114q15 0 28.5 3t24.5 10l-71 72l79 78l61 -62q13 40 13 104v80q0 101 -36 144t-99 43t-99 -43t-36 -144v-80q0 -58 9.5 -97.5t26.5 -63.5t42 -34t57 -10zM481 29q-31 -20 -69 -29t-82 -9q-129 0 -203.5 80.5t-74.5 247.5v80q0 153 74.5 231.5t203.5 78.5 t203.5 -78.5t74.5 -231.5v-80q0 -67 -12.5 -119.5t-35.5 -91.5l66 -67l-78 -78z" glyph-name="Q" horiz-adv-x="670" unicode="Q"/>
<glyph d="M334 376q69 0 99 27t30 76q0 48 -30 75t-99 27h-114v-205h114zM77 700h257q69 0 120 -16t84.5 -45.5t50.5 -70t17 -89.5q0 -69 -31.5 -120t-95.5 -78l147 -281h-156l-129 256h-121v-256h-143v700z" glyph-name="R" horiz-adv-x="650" unicode="R"/>
<glyph d="M309 -9q-70 0 -120 14.5t-82 42t-48 66.5t-17 87h144q2 -41 28.5 -64t94.5 -23t95.5 21.5t27.5 55.5q0 20 -7 35.5t-25 27.5t-48 23t-76 22q-56 14 -96.5 32.5t-67.5 43.5t-40 58.5t-13 78.5q0 44 15 80t46 62t78 40.5t111 14.5q128 0 188.5 -56t62.5 -151h-143 q-2 39 -26.5 61.5t-81.5 22.5t-82 -21t-25 -53q0 -19 7.5 -33t24.5 -25t45 -20.5t70 -19.5q60 -15 102.5 -34.5t70 -45.5t40.5 -61t13 -82q0 -45 -15.5 -81.5t-48 -63t-83 -41t-119.5 -14.5z" glyph-name="S" horiz-adv-x="620" unicode="S"/>
<glyph d="M214 581h-201v119h544v-119h-201v-581h-142v581z" glyph-name="T" horiz-adv-x="570" unicode="T"/>
<glyph d="M345 -9q-60 0 -110.5 17t-87 52t-57 90t-20.5 130v420h143v-420q0 -85 32 -125.5t100 -40.5t100 40.5t32 125.5v420h143v-419q0 -76 -20.5 -130.5t-57 -90t-87 -52.5t-110.5 -17z" glyph-name="U" horiz-adv-x="690" unicode="U"/>
<glyph d="M7 700h153l174 -515l161 515h148l-233 -700h-150z" glyph-name="V" horiz-adv-x="650" unicode="V"/>
<glyph d="M7 700h149l109 -501l124 501h142l128 -501l110 501h144l-169 -700h-156l-129 501l-127 -501h-156z" glyph-name="W" horiz-adv-x="920" unicode="W"/>
<glyph d="M230 367l-191 333h156l122 -218l122 218h152l-190 -330l210 -370h-157l-141 254l-142 -254h-152z" glyph-name="X" horiz-adv-x="630" unicode="X"/>
<glyph d="M244 286l-237 414h161l145 -264l134 264h156l-217 -414v-286h-142v286z" glyph-name="Y" horiz-adv-x="610" unicode="Y"/>
<glyph d="M34 105l334 476h-324v119h482v-105l-334 -476h334v-119h-492v105z" glyph-name="Z" horiz-adv-x="560" unicode="Z"/>
<glyph d="M72 750h257v-119h-114v-662h114v-119h-257v900z" glyph-name="bracketleft" horiz-adv-x="360" unicode="["/>
<glyph d="M22 750h135l321 -900h-135z" glyph-name="backslash" horiz-adv-x="500" unicode="\"/>
<glyph d="M31 -31h114v662h-114v119h257v-900h-257v119z" glyph-name="bracketright" horiz-adv-x="360" unicode="]"/>
<glyph d="M214 700h122l179 -260h-149l-93 139l-94 -139h-144z" glyph-name="asciicircum" unicode="^"/>
<glyph d="M0 -72h500v-107h-500v107z" glyph-name="underscore" horiz-adv-x="500" unicode="_"/>
<glyph d="M26 730h139l89 -160h-105z" glyph-name="grave" horiz-adv-x="280" unicode="`"/>
<glyph d="M227 102q49 0 75.5 27t26.5 78v18h-95q-42 0 -58.5 -16.5t-16.5 -45.5q0 -61 68 -61zM186 -6q-72 0 -113.5 40t-41.5 118q0 80 47 121.5t141 41.5h110v31q0 45 -18.5 63.5t-62.5 18.5q-42 0 -58.5 -14t-18.5 -39h-117q2 78 47.5 121t149.5 43q109 0 157 -46t48 -146v-347 h-117v83q-10 -18 -23 -34.5t-31 -28.5t-42 -19t-57 -7z" glyph-name="a" horiz-adv-x="510" unicode="a"/>
<glyph d="M288 109q42 0 66.5 29t24.5 99v66q0 65 -24.5 93t-66.5 28q-45 0 -69.5 -28t-24.5 -93v-66q0 -70 24.5 -99t69.5 -29zM330 -6q-57 0 -91.5 24.5t-54.5 64.5v-83h-125v700h135v-244q19 38 53 60.5t83 22.5q86 0 135 -56t49 -180v-66q0 -65 -12.5 -111.5t-36.5 -75.5 t-58 -42.5t-77 -13.5z" glyph-name="b" horiz-adv-x="555" unicode="b"/>
<glyph d="M265 -9q-51 0 -92.5 16t-70.5 47.5t-45 77.5t-16 105v66q0 55 16 99t45 74.5t70.5 46.5t92.5 16t90 -14t66 -39t41.5 -59t16.5 -73h-136q-5 29 -23 49.5t-55 20.5q-41 0 -65 -28t-24 -93v-66q0 -72 24 -101.5t65 -29.5q37 0 55 20.5t23 49.5h136q-3 -41 -18 -74.5 t-41.5 -58.5t-65 -38.5t-89.5 -13.5z" glyph-name="c" horiz-adv-x="510" unicode="c"/>
<glyph d="M267 109q45 0 69.5 29t24.5 99v66q0 65 -24.5 93t-69.5 28q-42 0 -66.5 -28t-24.5 -93v-66q0 -70 24.5 -99t66.5 -29zM225 -6q-43 0 -77 13.5t-58 42.5t-36.5 75.5t-12.5 111.5v66q0 124 49 180t135 56q49 0 83 -22.5t53 -60.5v244h135v-700h-125v83q-20 -40 -54.5 -64.5 t-91.5 -24.5z" glyph-name="d" horiz-adv-x="555" unicode="d"/>
<glyph d="M264 431q-41 0 -63 -23.5t-25 -85.5h176q-3 62 -25 85.5t-63 23.5zM265 -9q-51 0 -92.5 16t-70.5 47.5t-45 77.5t-16 105v66q0 113 59.5 174.5t159.5 61.5t159.5 -61.5t59.5 -175.5v-73h-303q1 -74 24.5 -102t64.5 -28q33 0 50 16.5t22 39.5h132q-11 -74 -62 -119 t-142 -45z" glyph-name="e" horiz-adv-x="520" unicode="e"/>
<glyph d="M85 419h-68v111h68v16q0 41 9 70.5t31 48t57.5 27t89.5 8.5h41v-110h-37q-31 0 -43.5 -11t-12.5 -33v-16h93v-111h-93v-419h-135v419z" glyph-name="f" horiz-adv-x="340" unicode="f"/>
<glyph d="M267 106q45 0 69.5 29.5t24.5 101.5v66q0 63 -24.5 90.5t-69.5 27.5q-42 0 -66.5 -27.5t-24.5 -90.5v-66q0 -72 24.5 -101.5t66.5 -29.5zM225 -2q-86 0 -135 56t-49 183v66q0 123 49 178t135 55q57 0 91.5 -24.5t54.5 -64.5v83h125v-530q0 -104 -54.5 -156.5 t-174.5 -52.5q-54 0 -92.5 12t-63.5 33t-38.5 49.5t-17.5 62.5h127q4 -9 9 -18t14.5 -16t24 -11t37.5 -4q51 0 72.5 22.5t21.5 78.5v74q-19 -32 -53 -54t-83 -22z" glyph-name="g" horiz-adv-x="555" unicode="g"/>
<glyph d="M59 700h135v-241q18 35 52 57.5t84 22.5q80 0 125.5 -49.5t45.5 -152.5v-337h-135v316q0 58 -21.5 83t-59.5 25q-42 0 -66.5 -27t-24.5 -81v-316h-135v700z" glyph-name="h" horiz-adv-x="555" unicode="h"/>
<glyph d="M140 570q-33 0 -56.5 23.5t-23.5 56.5t23.5 56.5t56.5 23.5t56.5 -23.5t23.5 -56.5t-23.5 -56.5t-56.5 -23.5zM73 530h134v-530h-134v530z" glyph-name="i" horiz-adv-x="280" unicode="i"/>
<glyph d="M140 570q-33 0 -56.5 23.5t-23.5 56.5t23.5 56.5t56.5 23.5t56.5 -23.5t23.5 -56.5t-23.5 -56.5t-56.5 -23.5zM2 -89q38 0 54.5 19t16.5 70v530h134v-530q0 -58 -9.5 -96.5t-33 -61.5t-63 -32.5t-99.5 -9.5v111z" glyph-name="j" horiz-adv-x="280" unicode="j"/>
<glyph d="M59 699h132v-365l172 196h151l-189 -214l219 -316h-155l-149 218l-48 -53v-165h-133v699z" glyph-name="k" horiz-adv-x="555" unicode="k"/>
<glyph d="M247 0q-51 0 -86 9.5t-56 30.5t-30.5 55.5t-9.5 85.5v519h135v-519q0 -41 13.5 -55.5t45.5 -14.5h17v-111h-29z" glyph-name="l" horiz-adv-x="300" unicode="l"/>
<glyph d="M59 530h125v-83q18 41 56 66.5t83 25.5q106 0 149 -85q25 42 62.5 63.5t82.5 21.5q74 0 119 -50t45 -152v-337h-135v316q0 58 -20.5 83t-52.5 25q-37 0 -61.5 -27t-24.5 -81v-316h-134v316q0 58 -21 83t-53 25q-37 0 -61 -27t-24 -81v-316h-135v530z" glyph-name="m" horiz-adv-x="835" unicode="m"/>
<glyph d="M59 530h125v-83q18 41 57 66.5t89 25.5q80 0 125.5 -49.5t45.5 -152.5v-337h-135v316q0 58 -21.5 83t-59.5 25q-42 0 -66.5 -27t-24.5 -81v-316h-135v530z" glyph-name="n" horiz-adv-x="555" unicode="n"/>
<glyph d="M270 106q45 0 69.5 29.5t24.5 101.5v66q0 65 -24.5 93t-69.5 28t-69.5 -28t-24.5 -93v-66q0 -72 24.5 -101.5t69.5 -29.5zM270 -9q-106 0 -167.5 63.5t-61.5 182.5v66q0 55 16 99t45.5 74.5t72 46.5t95.5 16t95.5 -16t72 -46.5t45.5 -74.5t16 -99v-66 q0 -119 -61.5 -182.5t-167.5 -63.5z" glyph-name="o" horiz-adv-x="540" unicode="o"/>
<glyph d="M288 106q42 0 66.5 29.5t24.5 101.5v66q0 63 -24.5 90.5t-66.5 27.5q-45 0 -69.5 -27.5t-24.5 -90.5v-66q0 -72 24.5 -101.5t69.5 -29.5zM59 530h125v-83q20 40 54.5 64.5t91.5 24.5q86 0 135 -55t49 -178v-66q0 -66 -12.5 -112.5t-36.5 -76.5t-58 -43.5t-77 -13.5 q-49 0 -83 22.5t-53 60.5v-274h-135v730z" glyph-name="p" horiz-adv-x="555" unicode="p"/>
<glyph d="M267 106q45 0 69.5 29.5t24.5 101.5v66q0 63 -24.5 90.5t-69.5 27.5q-42 0 -66.5 -27.5t-24.5 -90.5v-66q0 -72 24.5 -101.5t66.5 -29.5zM361 74q-19 -38 -53 -60.5t-83 -22.5q-43 0 -77 13.5t-58 43.5t-36.5 76.5t-12.5 112.5v66q0 123 49 178t135 55q57 0 91.5 -24.5 t54.5 -64.5v83h125v-730h-135v274z" glyph-name="q" horiz-adv-x="555" unicode="q"/>
<glyph d="M62 530h124v-83q19 41 58 66.5t89 25.5q10 0 18 -1t14 -2q7 -1 12 -2v-123q-10 1 -21 3q-10 1 -23.5 2t-30.5 1q-51 0 -78.5 -26.5t-27.5 -74.5v-316h-134v530z" glyph-name="r" horiz-adv-x="390" unicode="r"/>
<glyph d="M250 -9q-56 0 -95.5 12t-65 33.5t-38.5 52t-15 66.5h132q4 -25 21 -40.5t61 -15.5q48 0 65.5 13.5t17.5 35.5q0 11 -3 20t-13 17t-28 15t-49 13q-102 20 -147.5 57.5t-45.5 105.5q0 73 50 118t153 45q102 0 150.5 -45t52.5 -118h-132q-4 27 -18.5 41t-52.5 14 q-40 0 -55.5 -12.5t-15.5 -35.5q0 -21 17.5 -35.5t71.5 -24.5t91.5 -24t61 -34t33.5 -47t10 -63q0 -73 -51.5 -118.5t-162.5 -45.5z" glyph-name="s" horiz-adv-x="500" unicode="s"/>
<glyph d="M274 0q-51 0 -86 9.5t-56 30.5t-30.5 55.5t-9.5 85.5v238h-72v111h72v120h134v-120h104v-111h-104v-238q0 -41 14 -55.5t46 -14.5h44v-111h-56z" glyph-name="t" horiz-adv-x="360" unicode="t"/>
<glyph d="M222 -9q-76 0 -122 49.5t-46 152.5v337h135v-316q0 -58 20.5 -83t55.5 -25q36 0 61 28t25 80v316h135v-530h-125v83q-18 -41 -54.5 -66.5t-84.5 -25.5z" glyph-name="u" horiz-adv-x="545" unicode="u"/>
<glyph d="M6 530h148l120 -365l107 365h143l-181 -530h-136z" glyph-name="v" horiz-adv-x="530" unicode="v"/>
<glyph d="M12 530h137l82 -365l91 365h128l93 -365l83 365h132l-137 -530h-142l-95 365l-93 -365h-142z" glyph-name="w" horiz-adv-x="770" unicode="w"/>
<glyph d="M174 272l-152 258h150l85 -154l86 154h145l-152 -253l165 -277h-150l-98 172l-99 -172h-145z" glyph-name="x" horiz-adv-x="510" unicode="x"/>
<glyph d="M88 -89q25 0 44 4.5t33 14t24.5 26t18.5 40.5l-202 534h148l120 -365l107 365h143l-183 -534q-21 -63 -42.5 -101.5t-50 -59.5t-67 -28t-93.5 -7v111z" glyph-name="y" horiz-adv-x="530" unicode="y"/>
<glyph d="M36 90l248 329h-238v111h398v-90l-247 -329h247v-111h-408v90z" glyph-name="z" horiz-adv-x="480" unicode="z"/>
<glyph d="M254 -150q-94 0 -138 43.5t-44 137.5v168q0 23 -13.5 36.5t-36.5 13.5v122q23 0 36.5 13.5t13.5 36.5v148q0 94 45.5 137.5t136.5 43.5h75v-119h-52q-62 0 -62 -62v-193q0 -19 -13 -39t-33 -27q20 -7 33 -24.5t13 -41.5v-213q0 -62 62 -62h52v-119h-75z" glyph-name="braceleft" horiz-adv-x="360" unicode="{"/>
<glyph d="M85 750h140v-899h-140v899z" glyph-name="bar" horiz-adv-x="310" unicode="|"/>
<glyph d="M31 -31h52q62 0 62 62v213q0 24 13 41.5t33 24.5q-20 7 -33 27t-13 39v193q0 62 -62 62h-52v119h75q91 0 136.5 -43.5t45.5 -137.5v-148q0 -23 13.5 -36.5t36.5 -13.5v-122q-23 0 -36.5 -13.5t-13.5 -36.5v-168q0 -94 -44 -137.5t-138 -43.5h-75v119z" glyph-name="braceright" horiz-adv-x="360" unicode="}"/>
<glyph d="M358 262q-29 0 -52.5 12t-44 26.5t-39.5 26.5t-38 12q-20 0 -35 -10t-26 -22q-12 -14 -21 -31l-83 62q17 34 43 60q22 23 54 41.5t76 18.5q29 0 52.5 -12t44 -26.5t39.5 -26.5t38 -12q20 0 35 9.5t26 21.5q12 14 21 32l83 -62q-17 -34 -43 -60q-22 -23 -54 -41.5 t-76 -18.5z" glyph-name="asciitilde" unicode="~"/>
<glyph glyph-name="uni00A0" horiz-adv-x="250" unicode=" "/>
<glyph d="M150 373q-35 0 -59 24t-24 59t24 59t59 24t59 -24t24 -59t-24 -59t-59 -24zM79 310h142v-510h-142v510z" glyph-name="exclamdown" horiz-adv-x="300" unicode="¡"/>
<glyph d="M212 1q-72 20 -112.5 79.5t-40.5 156.5v66q0 91 40.5 148.5t112.5 77.5v108h133v-105q71 -15 110.5 -63.5t42.5 -114.5h-136q-5 29 -23.5 49.5t-54.5 20.5q-42 0 -66 -28t-24 -93v-66q0 -72 24 -101.5t66 -29.5q36 0 54 20.5t24 49.5h136q-6 -69 -44 -116t-109 -62v-98 h-133v101z" glyph-name="cent" unicode="¢"/>
<glyph d="M39 119h77v167h-67v120h67v94q0 102 52.5 155.5t151.5 53.5t150.5 -52.5t53.5 -147.5h-143q-2 44 -17 62t-44 18q-31 0 -46 -19t-15 -70v-94h130v-120h-130v-167h265v-119h-485v119z" glyph-name="sterling" unicode="£"/>
<glyph d="M275 268q19 0 35.5 7t29 19.5t19.5 29.5t7 36t-7 36t-19.5 29.5t-29 19.5t-35.5 7t-35.5 -7t-29 -19.5t-19.5 -29.5t-7 -36t7 -36t19.5 -29.5t29 -19.5t35.5 -7zM19 190l79 80q-22 42 -22 90t22 90l-79 79l87 87l80 -80q41 22 89 22q24 0 47 -6t43 -16l80 80l86 -86 l-80 -80q23 -41 23 -90q0 -48 -22 -90l79 -79l-87 -87l-80 80q-41 -22 -89 -22t-90 22l-80 -80z" glyph-name="currency" unicode="¤"/>
<glyph d="M214 111h-145v119h145v56h-145v119h75l-135 295h160l114 -281l102 281h156l-120 -295h80v-119h-145v-56h145v-119h-145v-111h-142v111z" glyph-name="yen" unicode="¥"/>
<glyph d="M85 750h140v-349h-140v349zM85 200h140v-349h-140v349z" glyph-name="brokenbar" horiz-adv-x="310" unicode="¦"/>
<glyph d="M275 266q18 0 34 6.5t27.5 18t18.5 27t7 32.5t-7 32.5t-18.5 27t-27.5 18t-34 6.5t-34 -6.5t-27.5 -18t-18.5 -27t-7 -32.5t7 -32.5t18.5 -27t27.5 -18t34 -6.5zM275 -109q-88 0 -136 45.5t-48 120.5h136q0 -46 48 -46t48 46q0 12 -4 22.5t-15.5 21t-32 21.5t-53.5 23 q-40 16 -71 35t-52 43.5t-32 55.5t-11 71q0 59 32.5 99t82.5 64q-34 23 -55 54.5t-21 75.5q0 75 48 120.5t136 45.5t136 -45.5t48 -120.5h-136q0 46 -48 46t-48 -46q0 -12 4.5 -22.5t16 -21t32 -21.5t52.5 -23q81 -31 123.5 -78t42.5 -127q0 -59 -32.5 -99.5t-82.5 -63.5 q34 -23 55 -54.5t21 -75.5q0 -75 -48 -120.5t-136 -45.5z" glyph-name="section" unicode="§"/>
<glyph d="M316 570q-34 0 -57 23.5t-23 56.5t23 56.5t57 23.5q33 0 56 -23.5t23 -56.5t-23 -56.5t-56 -23.5zM114 570q-33 0 -56 23.5t-23 56.5t23 56.5t56 23.5q34 0 57 -23.5t23 -56.5t-23 -56.5t-57 -23.5z" glyph-name="dieresis" horiz-adv-x="430" unicode="¨"/>
<glyph d="M390 131q-84 0 -129 48.5t-45 150.5v50q0 94 45 141.5t129 47.5q39 0 69.5 -11t52 -29.5t33 -44t12.5 -55.5h-108q-2 23 -17.5 36t-41.5 13q-33 0 -49.5 -21t-16.5 -77v-50q0 -64 16.5 -86t49.5 -22q26 0 41.5 13.5t17.5 37.5h108q-2 -61 -45.5 -101.5t-121.5 -40.5z M390 84q55 0 103.5 20.5t84.5 56.5t56.5 84.5t20.5 104.5q0 55 -20.5 103.5t-56.5 84.5t-84.5 57t-103.5 21t-103.5 -21t-84.5 -57t-56.5 -84.5t-20.5 -103.5q0 -56 20.5 -104.5t56.5 -84.5t84.5 -56.5t103.5 -20.5zM390 -9q-74 0 -139.5 28t-114.5 77t-77 114.5t-28 139.5 t28 139.5t77 114t114.5 77t139.5 28.5t139.5 -28.5t114 -77t77 -114t28.5 -139.5t-28.5 -139.5t-77 -114.5t-114 -77t-139.5 -28z" glyph-name="copyright" horiz-adv-x="780" unicode="©"/>
<glyph d="M159 448q28 0 43.5 15.5t15.5 45.5v6h-54q-23 0 -32.5 -8.5t-9.5 -25.5q0 -33 37 -33zM127 375q-50 0 -75.5 25t-25.5 73t28.5 73.5t92.5 25.5h71v20q0 24 -9.5 34t-31.5 10q-23 0 -32 -8.5t-9 -22.5h-90q0 48 31.5 76t102.5 28t102.5 -29.5t31.5 -87.5v-212h-85v51 q-11 -23 -34.5 -39.5t-67.5 -16.5z" glyph-name="ordfeminine" horiz-adv-x="340" unicode="ª"/>
<glyph d="M266 273v74l230 197v-128l-124 -103l124 -104v-133zM36 273v74l230 197v-128l-124 -103l124 -104v-133z" glyph-name="guillemotleft" horiz-adv-x="560" unicode="«"/>
<glyph d="M366 300h-309v120h436v-250h-127v130z" glyph-name="logicalnot" unicode="¬"/>
<glyph d="M33 380h274v-120h-274v120z" glyph-name="uni00AD" horiz-adv-x="340" unicode="­"/>
<glyph d="M295 454q26 0 34.5 7t8.5 21t-8.5 21t-34.5 7h-32v-56h32zM195 570h100q58 0 84.5 -23.5t26.5 -64.5q0 -55 -50 -78l49 -104h-73l-37 94h-32v-94h-68v270zM295 244q40 0 74.5 15t60.5 41t41 60.5t15 74.5t-15 74.5t-41 60.5t-60.5 41t-74.5 15t-74.5 -15t-60.5 -41 t-41 -60.5t-15 -74.5t15 -74.5t41 -60.5t60.5 -41t74.5 -15zM295 161q-57 0 -106.5 21.5t-87 59t-59 87t-21.5 106.5t21.5 106.5t59 87t87 59t106.5 21.5t106.5 -21.5t87 -59t59 -87t21.5 -106.5t-21.5 -106.5t-59 -87t-87 -59t-106.5 -21.5z" glyph-name="registered" horiz-adv-x="590" unicode="®"/>
<glyph d="M23 702h294v-104h-294v104z" glyph-name="macron" horiz-adv-x="340" unicode="¯"/>
<glyph d="M160 506q23 0 39.5 16.5t16.5 39.5t-16.5 39.5t-39.5 16.5t-39.5 -16.5t-16.5 -39.5t16.5 -39.5t39.5 -16.5zM160 415q-30 0 -57 11.5t-47 31.5t-31.5 47t-11.5 57t11.5 57t31.5 47t47 31.5t57 11.5t57 -11.5t47 -31.5t31.5 -47t11.5 -57t-11.5 -57t-31.5 -47t-47 -31.5 t-57 -11.5z" glyph-name="degree" horiz-adv-x="320" unicode="°"/>
<glyph d="M207 365h-150v120h150v158h136v-158h150v-120h-150v-98h-136v98zM57 210h436v-120h-436v120z" glyph-name="plusminus" unicode="±"/>
<glyph d="M26 446l146 153q23 25 34.5 42t11.5 33q0 23 -12.5 35.5t-35.5 12.5t-35.5 -12.5t-12.5 -35.5h-96q0 60 38 97.5t106 37.5q67 0 105.5 -37.5t38.5 -97.5q0 -32 -15 -59t-47 -60l-86 -88h148v-87h-288v66z" glyph-name="uni00B2" horiz-adv-x="340" unicode="²"/>
<glyph d="M180 371q-78 0 -115.5 34.5t-37.5 91.5h104q0 -16 13 -27.5t36 -11.5q49 0 49 49q0 23 -14.5 35.5t-48.5 12.5h-40v80h40q30 0 44 12.5t14 30.5q0 20 -11.5 32t-32.5 12t-32.5 -10t-11.5 -24h-104q0 54 37 87.5t111 33.5q34 0 61.5 -10t47 -26.5t29.5 -38.5t10 -46 q0 -36 -15 -59t-35 -34q55 -25 55 -98q0 -26 -10.5 -49t-30 -40t-48 -27t-64.5 -10z" glyph-name="uni00B3" horiz-adv-x="360" unicode="³"/>
<glyph d="M115 730h139l-123 -160h-105z" glyph-name="acute" horiz-adv-x="280" unicode="´"/>
<glyph d="M59 530h135v-316q0 -58 20.5 -83t55.5 -25q36 0 61 28t25 80v316h135v-530h-125v69q-13 -35 -43 -56.5t-67 -21.5q-17 0 -34 5t-28 18v-164h-135v680z" glyph-name="uni03BC" unicode="µ"/>
<glyph d="M59 530h135v-316q0 -58 20.5 -83t55.5 -25q36 0 61 28t25 80v316h135v-530h-125v69q-13 -35 -43 -56.5t-67 -21.5q-17 0 -34 5t-28 18v-164h-135v680z" glyph-name="uni03BC" unicode="μ"/>
<glyph d="M238 300q-41 0 -77.5 16t-63.5 43t-43 63.5t-16 77.5t16 77.5t43 63.5t63.5 43t77.5 16h364v-900h-136v781h-92v-781h-136v500z" glyph-name="paragraph" horiz-adv-x="680" unicode="¶"/>
<glyph d="M150 229q-38 0 -64 26t-26 64t26 64t64 26t64 -26t26 -64t-26 -64t-64 -26z" glyph-name="periodcentered" horiz-adv-x="300" unicode="·"/>
<glyph d="M85 -209q-14 0 -25 1t-19 3q-10 2 -17 4l16 69q4 -1 8 -1q4 -1 9 -1h11q19 0 26.5 7t7.5 18q0 8 -8.5 15t-34.5 9l18 85h76l-8 -34q35 -14 48 -33.5t13 -45.5q0 -43 -29.5 -69.5t-91.5 -26.5z" glyph-name="cedilla" horiz-adv-x="230" unicode="¸"/>
<glyph d="M98 697l-92 -59v103l92 59h103v-420h-103v317z" glyph-name="uni00B9" horiz-adv-x="240" unicode="¹"/>
<glyph d="M175 451q26 0 39.5 15.5t13.5 53.5v40q0 38 -13.5 53.5t-39.5 15.5t-39.5 -15.5t-13.5 -53.5v-40q0 -38 13.5 -53.5t39.5 -15.5zM175 371q-70 0 -109.5 39.5t-39.5 109.5v40q0 70 39.5 109.5t109.5 39.5t109.5 -39.5t39.5 -109.5v-40q0 -70 -39.5 -109.5t-109.5 -39.5z " glyph-name="ordmasculine" horiz-adv-x="350" unicode="º"/>
<glyph d="M294 204l124 103l-124 104v133l230 -197v-74l-230 -197v128zM64 204l124 103l-124 104v133l230 -197v-74l-230 -197v128z" glyph-name="guillemotright" horiz-adv-x="560" unicode="»"/>
<glyph d="M124 598l-92 -59v103l92 59h103v-420h-103v317zM583 700h119l-467 -700h-119zM647 70h-202v77l173 274h133v-264h36v-87h-36v-69h-104v69zM647 157v149l-93 -149h93z" glyph-name="onequarter" horiz-adv-x="820" unicode="¼"/>
<glyph d="M124 598l-92 -59v103l92 59h103v-420h-103v317zM583 700h119l-467 -700h-119zM540 67l146 153q23 25 34.5 42t11.5 33q0 23 -12.5 35.5t-35.5 12.5t-35.5 -12.5t-12.5 -35.5h-96q0 60 38 97.5t106 37.5q67 0 105.5 -37.5t38.5 -97.5q0 -32 -15 -59t-47 -60l-86 -88h148 v-87h-288v66z" glyph-name="onehalf" horiz-adv-x="860" unicode="½"/>
<glyph d="M185 272q-78 0 -115.5 34.5t-37.5 91.5h104q0 -16 13 -27.5t36 -11.5q49 0 49 49q0 23 -14.5 35.5t-48.5 12.5h-40v80h40q30 0 44 12.5t14 30.5q0 20 -11.5 32t-32.5 12t-32.5 -10t-11.5 -24h-104q0 54 37 87.5t111 33.5q34 0 61.5 -10t47 -26.5t29.5 -38.5t10 -46 q0 -36 -15 -59t-35 -34q55 -25 55 -98q0 -26 -10.5 -49t-30 -40t-48 -27t-64.5 -10zM643 700h119l-467 -700h-119zM707 70h-202v77l173 274h133v-264h36v-87h-36v-69h-104v69zM707 157v149l-93 -149h93z" glyph-name="threequarters" horiz-adv-x="880" unicode="¾"/>
<glyph d="M254 373q-35 0 -59 24t-24 59t24 59t59 24t58.5 -24t23.5 -59t-23.5 -59t-58.5 -24zM250 -209q-51 0 -91.5 14.5t-69 40t-43.5 60t-15 74.5q0 58 28 101.5t75 85.5q17 15 27.5 27.5t16.5 23t8.5 20.5t2.5 22v50h129v-67q0 -19 -3 -36.5t-12 -35.5t-24.5 -37.5 t-40.5 -40.5q-33 -29 -50.5 -55.5t-17.5 -57.5t21 -50t59 -19t59 19t21 50h139q0 -40 -15 -74.5t-43 -60t-69 -40t-92 -14.5z" glyph-name="questiondown" horiz-adv-x="500" unicode="¿"/>
<glyph d="M250 700h150l243 -700h-153l-47 139h-240l-48 -139h-148zM403 259l-80 263l-81 -263h161zM139 900h147l99 -150h-120z" glyph-name="Agrave" horiz-adv-x="650" unicode="À"/>
<glyph d="M250 700h150l243 -700h-153l-47 139h-240l-48 -139h-148zM403 259l-80 263l-81 -263h161zM364 900h147l-126 -150h-120z" glyph-name="Aacute" horiz-adv-x="650" unicode="Á"/>
<glyph d="M250 700h150l243 -700h-153l-47 139h-240l-48 -139h-148zM403 259l-80 263l-81 -263h161zM260 900h130l106 -150h-119l-52 65l-52 -65h-119z" glyph-name="Acircumflex" horiz-adv-x="650" unicode="Â"/>
<glyph d="M250 700h150l243 -700h-153l-47 139h-240l-48 -139h-148zM403 259l-80 263l-81 -263h161zM388 751q-23 0 -40 6.5t-31.5 15t-27.5 15t-28 6.5t-24.5 -6t-15.5 -14q-7 -9 -10 -20l-80 37q11 30 29 54q15 20 40 37t62 17q23 0 40 -6.5t31.5 -15t27.5 -15t28 -6.5q14 0 24 6 t16 14q7 9 10 20l80 -37q-11 -30 -29 -54q-16 -20 -40.5 -37t-61.5 -17z" glyph-name="Atilde" horiz-adv-x="650" unicode="Ã"/>
<glyph d="M250 700h150l243 -700h-153l-47 139h-240l-48 -139h-148zM403 259l-80 263l-81 -263h161zM215 745q-33 0 -56.5 23.5t-23.5 56.5t23.5 56.5t56.5 23.5t56.5 -23.5t23.5 -56.5t-23.5 -56.5t-56.5 -23.5zM435 745q-33 0 -56.5 23.5t-23.5 56.5t23.5 56.5t56.5 23.5 t56.5 -23.5t23.5 -56.5t-23.5 -56.5t-56.5 -23.5z" glyph-name="Adieresis" horiz-adv-x="650" unicode="Ä"/>
<glyph d="M250 700h150l243 -700h-153l-47 139h-240l-48 -139h-148zM403 259l-80 263l-81 -263h161zM325 725q-65 0 -97 27t-32 73t32 73t97 27q66 0 97.5 -27t31.5 -73t-31.5 -73t-97.5 -27zM325 794q18 0 27.5 8.5t9.5 22.5t-9.5 22.5t-27.5 8.5t-27.5 -8.5t-9.5 -22.5t9.5 -22.5 t27.5 -8.5z" glyph-name="Aring" horiz-adv-x="650" unicode="Å"/>
<glyph d="M436 259v262l-141 -262h141zM401 700h476v-119h-298v-161h261v-120h-261v-181h298v-119h-441v139h-204l-77 -139h-156z" glyph-name="AE" horiz-adv-x="920" unicode="Æ"/>
<glyph d="M299 -209q-14 0 -25.5 1t-20.5 3q-11 2 -19 4l15 69q5 -1 10 -1q5 -1 10.5 -1h12.5q23 0 31 7t8 18q0 8 -9 15t-38 9l16 79q-111 11 -174.5 91t-63.5 235v80q0 152 74.5 230.5t203.5 78.5q62 0 109 -16t80 -46t52 -72.5t25 -95.5h-143q-9 51 -37 79t-86 28 q-63 0 -99 -42.5t-36 -143.5v-80q0 -58 9.5 -97.5t26.5 -63.5t42 -34.5t57 -10.5q59 0 85.5 28.5t37.5 83.5h143q-12 -105 -68.5 -165t-162.5 -68l-6 -27q39 -14 52.5 -33.5t13.5 -45.5q0 -43 -30 -69.5t-96 -26.5z" glyph-name="Ccedilla" horiz-adv-x="630" unicode="Ç"/>
<glyph d="M77 700h455v-119h-312v-161h275v-120h-275v-181h312v-119h-455v700zM118 900h147l99 -150h-120z" glyph-name="Egrave" horiz-adv-x="575" unicode="È"/>
<glyph d="M77 700h455v-119h-312v-161h275v-120h-275v-181h312v-119h-455v700zM343 900h147l-126 -150h-120z" glyph-name="Eacute" horiz-adv-x="575" unicode="É"/>
<glyph d="M77 700h455v-119h-312v-161h275v-120h-275v-181h312v-119h-455v700zM239 900h130l106 -150h-119l-52 65l-52 -65h-119z" glyph-name="Ecircumflex" horiz-adv-x="575" unicode="Ê"/>
<glyph d="M77 700h455v-119h-312v-161h275v-120h-275v-181h312v-119h-455v700zM194 745q-33 0 -56.5 23.5t-23.5 56.5t23.5 56.5t56.5 23.5t56.5 -23.5t23.5 -56.5t-23.5 -56.5t-56.5 -23.5zM414 745q-33 0 -56.5 23.5t-23.5 56.5t23.5 56.5t56.5 23.5t56.5 -23.5t23.5 -56.5 t-23.5 -56.5t-56.5 -23.5z" glyph-name="Edieresis" horiz-adv-x="575" unicode="Ë"/>
<glyph d="M84 700h142v-700h-142v700zM-30 900h147l99 -150h-120z" glyph-name="Igrave" horiz-adv-x="310" unicode="Ì"/>
<glyph d="M84 700h142v-700h-142v700zM194 900h147l-126 -150h-120z" glyph-name="Iacute" horiz-adv-x="310" unicode="Í"/>
<glyph d="M84 700h142v-700h-142v700zM91 900h130l106 -150h-119l-52 65l-52 -65h-119z" glyph-name="Icircumflex" horiz-adv-x="310" unicode="Î"/>
<glyph d="M84 700h142v-700h-142v700zM46 745q-33 0 -56.5 23.5t-23.5 56.5t23.5 56.5t56.5 23.5t56.5 -23.5t23.5 -56.5t-23.5 -56.5t-56.5 -23.5zM266 745q-33 0 -56.5 23.5t-23.5 56.5t23.5 56.5t56.5 23.5t56.5 -23.5t23.5 -56.5t-23.5 -56.5t-56.5 -23.5z" glyph-name="Idieresis" horiz-adv-x="310" unicode="Ï"/>
<glyph d="M340 119q63 0 99 45t36 150v80q0 99 -36 143t-99 44h-110v-161h135v-120h-135v-181h110zM87 300h-81v120h81v280h253q129 0 203.5 -77.5t74.5 -228.5v-80q0 -157 -74.5 -235.5t-203.5 -78.5h-253v300z" glyph-name="Eth" horiz-adv-x="670" unicode="Ð"/>
<glyph d="M77 700h136l274 -468v468h136v-700h-136l-274 471v-471h-136v700zM413 751q-23 0 -40 6.5t-31.5 15t-27.5 15t-28 6.5t-24.5 -6t-15.5 -14q-7 -9 -10 -20l-80 37q11 30 29 54q15 20 40 37t62 17q23 0 40 -6.5t31.5 -15t27.5 -15t28 -6.5q14 0 24 6t16 14q7 9 10 20 l80 -37q-11 -30 -29 -54q-16 -20 -40.5 -37t-61.5 -17z" glyph-name="Ntilde" horiz-adv-x="700" unicode="Ñ"/>
<glyph d="M330 -9q-129 0 -203.5 80.5t-74.5 247.5v80q0 153 74.5 231.5t203.5 78.5t203.5 -78.5t74.5 -231.5v-80q0 -167 -74.5 -247.5t-203.5 -80.5zM330 114q31 0 56.5 10t42.5 34t26.5 63.5t9.5 97.5v80q0 101 -36 144t-99 43t-99 -43t-36 -144v-80q0 -58 9.5 -97.5t26.5 -63.5 t42 -34t57 -10zM144 900h147l99 -150h-120z" glyph-name="Ograve" horiz-adv-x="660" unicode="Ò"/>
<glyph d="M330 -9q-129 0 -203.5 80.5t-74.5 247.5v80q0 153 74.5 231.5t203.5 78.5t203.5 -78.5t74.5 -231.5v-80q0 -167 -74.5 -247.5t-203.5 -80.5zM330 114q31 0 56.5 10t42.5 34t26.5 63.5t9.5 97.5v80q0 101 -36 144t-99 43t-99 -43t-36 -144v-80q0 -58 9.5 -97.5t26.5 -63.5 t42 -34t57 -10zM369 900h147l-126 -150h-120z" glyph-name="Oacute" horiz-adv-x="660" unicode="Ó"/>
<glyph d="M330 -9q-129 0 -203.5 80.5t-74.5 247.5v80q0 153 74.5 231.5t203.5 78.5t203.5 -78.5t74.5 -231.5v-80q0 -167 -74.5 -247.5t-203.5 -80.5zM330 114q31 0 56.5 10t42.5 34t26.5 63.5t9.5 97.5v80q0 101 -36 144t-99 43t-99 -43t-36 -144v-80q0 -58 9.5 -97.5t26.5 -63.5 t42 -34t57 -10zM265 900h130l106 -150h-119l-52 65l-52 -65h-119z" glyph-name="Ocircumflex" horiz-adv-x="660" unicode="Ô"/>
<glyph d="M330 -9q-129 0 -203.5 80.5t-74.5 247.5v80q0 153 74.5 231.5t203.5 78.5t203.5 -78.5t74.5 -231.5v-80q0 -167 -74.5 -247.5t-203.5 -80.5zM330 114q31 0 56.5 10t42.5 34t26.5 63.5t9.5 97.5v80q0 101 -36 144t-99 43t-99 -43t-36 -144v-80q0 -58 9.5 -97.5t26.5 -63.5 t42 -34t57 -10zM393 751q-23 0 -40 6.5t-31.5 15t-27.5 15t-28 6.5t-24.5 -6t-15.5 -14q-7 -9 -10 -20l-80 37q11 30 29 54q15 20 40 37t62 17q23 0 40 -6.5t31.5 -15t27.5 -15t28 -6.5q14 0 24 6t16 14q7 9 10 20l80 -37q-11 -30 -29 -54q-16 -20 -40.5 -37t-61.5 -17z" glyph-name="Otilde" horiz-adv-x="660" unicode="Õ"/>
<glyph d="M330 -9q-129 0 -203.5 80.5t-74.5 247.5v80q0 153 74.5 231.5t203.5 78.5t203.5 -78.5t74.5 -231.5v-80q0 -167 -74.5 -247.5t-203.5 -80.5zM330 114q31 0 56.5 10t42.5 34t26.5 63.5t9.5 97.5v80q0 101 -36 144t-99 43t-99 -43t-36 -144v-80q0 -58 9.5 -97.5t26.5 -63.5 t42 -34t57 -10zM220 745q-33 0 -56.5 23.5t-23.5 56.5t23.5 56.5t56.5 23.5t56.5 -23.5t23.5 -56.5t-23.5 -56.5t-56.5 -23.5zM440 745q-33 0 -56.5 23.5t-23.5 56.5t23.5 56.5t56.5 23.5t56.5 -23.5t23.5 -56.5t-23.5 -56.5t-56.5 -23.5z" glyph-name="Odieresis" horiz-adv-x="660" unicode="Ö"/>
<glyph d="M70 247l111 111l-111 112l95 95l112 -111l111 111l92 -92l-111 -111l111 -112l-95 -95l-112 111l-111 -111z" glyph-name="multiply" unicode="×"/>
<glyph d="M330 111q33 0 58.5 10.5t43 34.5t27 64t9.5 99v80q0 62 -17 101l-164 -384q11 -3 21 -4t22 -1zM330 589q-65 0 -101.5 -43t-36.5 -147v-80q0 -74 17 -117l163 382q-22 5 -42 5zM107 -39l39 91q-46 39 -70 105.5t-24 161.5v80q0 153 74.5 231.5t203.5 78.5q48 0 90 -12 l35 83l98 -41l-39 -91q45 -38 69.5 -100t24.5 -149v-80q0 -167 -74.5 -247.5t-203.5 -80.5q-50 0 -90 12l-35 -83z" glyph-name="Oslash" horiz-adv-x="660" unicode="Ø"/>
<glyph d="M345 -9q-60 0 -110.5 17t-87 52t-57 90t-20.5 130v420h143v-420q0 -85 32 -125.5t100 -40.5t100 40.5t32 125.5v420h143v-419q0 -76 -20.5 -130.5t-57 -90t-87 -52.5t-110.5 -17zM159 900h147l99 -150h-120z" glyph-name="Ugrave" horiz-adv-x="690" unicode="Ù"/>
<glyph d="M345 -9q-60 0 -110.5 17t-87 52t-57 90t-20.5 130v420h143v-420q0 -85 32 -125.5t100 -40.5t100 40.5t32 125.5v420h143v-419q0 -76 -20.5 -130.5t-57 -90t-87 -52.5t-110.5 -17zM384 900h147l-126 -150h-120z" glyph-name="Uacute" horiz-adv-x="690" unicode="Ú"/>
<glyph d="M345 -9q-60 0 -110.5 17t-87 52t-57 90t-20.5 130v420h143v-420q0 -85 32 -125.5t100 -40.5t100 40.5t32 125.5v420h143v-419q0 -76 -20.5 -130.5t-57 -90t-87 -52.5t-110.5 -17zM280 900h130l106 -150h-119l-52 65l-52 -65h-119z" glyph-name="Ucircumflex" horiz-adv-x="690" unicode="Û"/>
<glyph d="M345 -9q-60 0 -110.5 17t-87 52t-57 90t-20.5 130v420h143v-420q0 -85 32 -125.5t100 -40.5t100 40.5t32 125.5v420h143v-419q0 -76 -20.5 -130.5t-57 -90t-87 -52.5t-110.5 -17zM235 745q-33 0 -56.5 23.5t-23.5 56.5t23.5 56.5t56.5 23.5t56.5 -23.5t23.5 -56.5 t-23.5 -56.5t-56.5 -23.5zM455 745q-33 0 -56.5 23.5t-23.5 56.5t23.5 56.5t56.5 23.5t56.5 -23.5t23.5 -56.5t-23.5 -56.5t-56.5 -23.5z" glyph-name="Udieresis" horiz-adv-x="690" unicode="Ü"/>
<glyph d="M244 286l-237 414h161l145 -264l134 264h156l-217 -414v-286h-142v286zM344 900h147l-126 -150h-120z" glyph-name="Yacute" horiz-adv-x="610" unicode="Ý"/>
<glyph d="M331 245q71 0 101.5 28.5t30.5 86.5q0 57 -30.5 85t-101.5 28h-111v-228h111zM77 700h143v-107h111q139 0 207 -63t68 -170q0 -109 -67.5 -171.5t-207.5 -62.5h-111v-126h-143v700z" glyph-name="Thorn" horiz-adv-x="640" unicode="Þ"/>
<glyph d="M59 481q0 114 58.5 171t165.5 57q103 0 150.5 -45.5t47.5 -117.5q0 -42 -15.5 -73t-50.5 -48q39 -14 52.5 -42t13.5 -72v-138q0 -88 -40 -130.5t-135 -42.5h-46v111h24q62 0 62 62v134q0 33 -15 47.5t-47 14.5h-24v112h28q32 0 45 13t13 45q0 59 -63 59q-39 0 -64 -26.5 t-25 -90.5v-481h-135v481z" glyph-name="germandbls" horiz-adv-x="535" unicode="ß"/>
<glyph d="M186 -6q-72 0 -113.5 40t-41.5 118q0 80 47 121.5t141 41.5h110v31q0 45 -18.5 63.5t-62.5 18.5q-42 0 -58.5 -14t-18.5 -39h-117q2 78 47.5 121t149.5 43q109 0 157 -46t48 -146v-347h-117v83q-10 -18 -23 -34.5t-31 -28.5t-42 -19t-57 -7zM227 102q49 0 75.5 27 t26.5 78v18h-95q-42 0 -58.5 -16.5t-16.5 -45.5q0 -61 68 -61zM80 730h139l89 -160h-105z" glyph-name="agrave" horiz-adv-x="510" unicode="à"/>
<glyph d="M186 -6q-72 0 -113.5 40t-41.5 118q0 80 47 121.5t141 41.5h110v31q0 45 -18.5 63.5t-62.5 18.5q-42 0 -58.5 -14t-18.5 -39h-117q2 78 47.5 121t149.5 43q109 0 157 -46t48 -146v-347h-117v83q-10 -18 -23 -34.5t-31 -28.5t-42 -19t-57 -7zM227 102q49 0 75.5 27 t26.5 78v18h-95q-42 0 -58.5 -16.5t-16.5 -45.5q0 -61 68 -61zM291 730h139l-123 -160h-105z" glyph-name="aacute" horiz-adv-x="510" unicode="á"/>
<glyph d="M186 -6q-72 0 -113.5 40t-41.5 118q0 80 47 121.5t141 41.5h110v31q0 45 -18.5 63.5t-62.5 18.5q-42 0 -58.5 -14t-18.5 -39h-117q2 78 47.5 121t149.5 43q109 0 157 -46t48 -146v-347h-117v83q-10 -18 -23 -34.5t-31 -28.5t-42 -19t-57 -7zM227 102q49 0 75.5 27 t26.5 78v18h-95q-42 0 -58.5 -16.5t-16.5 -45.5q0 -61 68 -61zM204 730h102l110 -160h-105l-56 69l-56 -69h-105z" glyph-name="acircumflex" horiz-adv-x="510" unicode="â"/>
<glyph d="M186 -6q-72 0 -113.5 40t-41.5 118q0 80 47 121.5t141 41.5h110v31q0 45 -18.5 63.5t-62.5 18.5q-42 0 -58.5 -14t-18.5 -39h-117q2 78 47.5 121t149.5 43q109 0 157 -46t48 -146v-347h-117v83q-10 -18 -23 -34.5t-31 -28.5t-42 -19t-57 -7zM227 102q49 0 75.5 27 t26.5 78v18h-95q-42 0 -58.5 -16.5t-16.5 -45.5q0 -61 68 -61zM310 579q-19 0 -34.5 6.5t-29 15t-26 15t-25.5 6.5q-11 0 -19 -6t-13 -14q-6 -9 -9 -20l-73 37q9 28 25 51q14 19 36.5 35t57.5 16q19 0 34.5 -6.5t29 -15t26 -15t25.5 -6.5q11 0 19 6t13 14q5 9 9 20l73 -37 q-9 -29 -25 -51q-14 -20 -36.5 -35.5t-57.5 -15.5z" glyph-name="atilde" horiz-adv-x="510" unicode="ã"/>
<glyph d="M186 -6q-72 0 -113.5 40t-41.5 118q0 80 47 121.5t141 41.5h110v31q0 45 -18.5 63.5t-62.5 18.5q-42 0 -58.5 -14t-18.5 -39h-117q2 78 47.5 121t149.5 43q109 0 157 -46t48 -146v-347h-117v83q-10 -18 -23 -34.5t-31 -28.5t-42 -19t-57 -7zM227 102q49 0 75.5 27 t26.5 78v18h-95q-42 0 -58.5 -16.5t-16.5 -45.5q0 -61 68 -61zM154 570q-33 0 -56 23.5t-23 56.5t23 56.5t56 23.5q34 0 57 -23.5t23 -56.5t-23 -56.5t-57 -23.5zM356 570q-34 0 -57 23.5t-23 56.5t23 56.5t57 23.5q33 0 56 -23.5t23 -56.5t-23 -56.5t-56 -23.5z" glyph-name="adieresis" horiz-adv-x="510" unicode="ä"/>
<glyph d="M186 -6q-72 0 -113.5 40t-41.5 118q0 80 47 121.5t141 41.5h110v31q0 45 -18.5 63.5t-62.5 18.5q-42 0 -58.5 -14t-18.5 -39h-117q2 78 47.5 121t149.5 43q109 0 157 -46t48 -146v-347h-117v83q-10 -18 -23 -34.5t-31 -28.5t-42 -19t-57 -7zM227 102q49 0 75.5 27 t26.5 78v18h-95q-42 0 -58.5 -16.5t-16.5 -45.5q0 -61 68 -61zM255 554q-60 0 -93 30t-33 76t33 76t93 30t93 -30t33 -76t-33 -76t-93 -30zM255 623q33 0 33 37t-33 37t-33 -37t33 -37z" glyph-name="aring" horiz-adv-x="510" unicode="å"/>
<glyph d="M544 431q-39 0 -62 -24.5t-25 -91.5h175q-2 67 -24 91.5t-64 24.5zM228 102q44 0 73 27t29 78v18h-96q-42 0 -58.5 -16.5t-16.5 -45.5q0 -61 69 -61zM201 -9q-80 0 -125 40.5t-45 120.5t47.5 121.5t141.5 41.5h110v31q0 45 -18.5 63.5t-62.5 18.5q-43 0 -59.5 -14 t-18.5 -39h-117q2 78 47.5 121t150.5 43q57 0 93.5 -13t61.5 -45q25 32 61.5 45t79.5 13q47 0 86 -16t66.5 -46.5t43 -75t15.5 -102.5v-74h-302q2 -72 25 -99t64 -27q32 0 49.5 16.5t22.5 39.5h131q-11 -74 -61.5 -119t-141.5 -45q-57 0 -101 22t-73 64q-28 -39 -69.5 -62.5 t-101.5 -23.5z" glyph-name="ae" horiz-adv-x="800" unicode="æ"/>
<glyph d="M235 -209q-14 0 -25 1t-19 3q-10 2 -17 4l16 69q4 -1 8 -1q4 -1 9 -1h11q19 0 26.5 7t7.5 18q0 8 -8.5 15t-34.5 9l17 79q-86 11 -135.5 73.5t-49.5 169.5v66q0 55 16 99t45 74.5t70.5 46.5t92.5 16t90 -14t66 -39t41.5 -59t16.5 -73h-136q-5 29 -23 49.5t-55 20.5 q-41 0 -65 -28t-24 -93v-66q0 -72 24 -101.5t65 -29.5q37 0 55 20.5t23 49.5h136q-6 -74 -50 -123.5t-128 -58.5l-6 -28q35 -14 48 -33.5t13 -45.5q0 -43 -29.5 -69.5t-91.5 -26.5z" glyph-name="ccedilla" horiz-adv-x="510" unicode="ç"/>
<glyph d="M265 -9q-51 0 -92.5 16t-70.5 47.5t-45 77.5t-16 105v66q0 113 59.5 174.5t159.5 61.5t159.5 -61.5t59.5 -175.5v-73h-303q1 -74 24.5 -102t64.5 -28q33 0 50 16.5t22 39.5h132q-11 -74 -62 -119t-142 -45zM264 431q-41 0 -63 -23.5t-25 -85.5h176q-3 62 -25 85.5 t-63 23.5zM85 730h139l89 -160h-105z" glyph-name="egrave" horiz-adv-x="520" unicode="è"/>
<glyph d="M265 -9q-51 0 -92.5 16t-70.5 47.5t-45 77.5t-16 105v66q0 113 59.5 174.5t159.5 61.5t159.5 -61.5t59.5 -175.5v-73h-303q1 -74 24.5 -102t64.5 -28q33 0 50 16.5t22 39.5h132q-11 -74 -62 -119t-142 -45zM264 431q-41 0 -63 -23.5t-25 -85.5h176q-3 62 -25 85.5 t-63 23.5zM296 730h139l-123 -160h-105z" glyph-name="eacute" horiz-adv-x="520" unicode="é"/>
<glyph d="M265 -9q-51 0 -92.5 16t-70.5 47.5t-45 77.5t-16 105v66q0 113 59.5 174.5t159.5 61.5t159.5 -61.5t59.5 -175.5v-73h-303q1 -74 24.5 -102t64.5 -28q33 0 50 16.5t22 39.5h132q-11 -74 -62 -119t-142 -45zM264 431q-41 0 -63 -23.5t-25 -85.5h176q-3 62 -25 85.5 t-63 23.5zM209 730h102l110 -160h-105l-56 69l-56 -69h-105z" glyph-name="ecircumflex" horiz-adv-x="520" unicode="ê"/>
<glyph d="M265 -9q-51 0 -92.5 16t-70.5 47.5t-45 77.5t-16 105v66q0 113 59.5 174.5t159.5 61.5t159.5 -61.5t59.5 -175.5v-73h-303q1 -74 24.5 -102t64.5 -28q33 0 50 16.5t22 39.5h132q-11 -74 -62 -119t-142 -45zM264 431q-41 0 -63 -23.5t-25 -85.5h176q-3 62 -25 85.5 t-63 23.5zM159 570q-33 0 -56 23.5t-23 56.5t23 56.5t56 23.5q34 0 57 -23.5t23 -56.5t-23 -56.5t-57 -23.5zM361 570q-34 0 -57 23.5t-23 56.5t23 56.5t57 23.5q33 0 56 -23.5t23 -56.5t-23 -56.5t-56 -23.5z" glyph-name="edieresis" horiz-adv-x="520" unicode="ë"/>
<glyph d="M73 530h134v-530h-134v530zM-34 730h139l89 -160h-105z" glyph-name="igrave" horiz-adv-x="280" unicode="ì"/>
<glyph d="M73 530h134v-530h-134v530zM176 730h139l-123 -160h-105z" glyph-name="iacute" horiz-adv-x="280" unicode="í"/>
<glyph d="M73 530h134v-530h-134v530zM90 730h102l110 -160h-105l-56 69l-56 -69h-105z" glyph-name="icircumflex" horiz-adv-x="280" unicode="î"/>
<glyph d="M73 530h134v-530h-134v530zM40 570q-33 0 -56 23.5t-23 56.5t23 56.5t56 23.5q34 0 57 -23.5t23 -56.5t-23 -56.5t-57 -23.5zM242 570q-34 0 -57 23.5t-23 56.5t23 56.5t57 23.5q33 0 56 -23.5t23 -56.5t-23 -56.5t-56 -23.5z" glyph-name="idieresis" horiz-adv-x="280" unicode="ï"/>
<glyph d="M270 106q45 0 69.5 29.5t24.5 101.5v66q0 57 -24.5 84t-69.5 27t-69.5 -27t-24.5 -84v-66q0 -72 24.5 -101.5t69.5 -29.5zM270 -9q-106 0 -167.5 63.5t-61.5 182.5v66q0 52 15.5 93.5t44 71t67 45.5t85.5 16q43 0 74.5 -15t59.5 -44q-4 25 -9.5 46t-16.5 38.5t-28.5 32.5 t-45.5 29l-15 -48l-76 22l16 54q-16 5 -34.5 9.5t-38.5 9.5l22 88q16 -2 41 -7.5t39 -8.5l13 42l77 -21l-15 -45q54 -21 89.5 -51t56 -74.5t29 -105t8.5 -141.5v-57q0 -152 -61.5 -221.5t-167.5 -69.5z" glyph-name="eth" horiz-adv-x="540" unicode="ð"/>
<glyph d="M59 530h125v-83q18 41 57 66.5t89 25.5q80 0 125.5 -49.5t45.5 -152.5v-337h-135v316q0 58 -21.5 83t-59.5 25q-42 0 -66.5 -27t-24.5 -81v-316h-135v530zM334 579q-19 0 -34.5 6.5t-29 15t-26 15t-25.5 6.5q-11 0 -19 -6t-13 -14q-6 -9 -9 -20l-73 37q9 28 25 51 q14 19 36.5 35t57.5 16q19 0 34.5 -6.5t29 -15t26 -15t25.5 -6.5q11 0 19 6t13 14q5 9 9 20l73 -37q-9 -29 -25 -51q-14 -20 -36.5 -35.5t-57.5 -15.5z" glyph-name="ntilde" horiz-adv-x="555" unicode="ñ"/>
<glyph d="M270 -9q-106 0 -167.5 63.5t-61.5 182.5v66q0 55 16 99t45.5 74.5t72 46.5t95.5 16t95.5 -16t72 -46.5t45.5 -74.5t16 -99v-66q0 -119 -61.5 -182.5t-167.5 -63.5zM270 106q45 0 69.5 29.5t24.5 101.5v66q0 65 -24.5 93t-69.5 28t-69.5 -28t-24.5 -93v-66 q0 -72 24.5 -101.5t69.5 -29.5zM95 730h139l89 -160h-105z" glyph-name="ograve" horiz-adv-x="540" unicode="ò"/>
<glyph d="M270 -9q-106 0 -167.5 63.5t-61.5 182.5v66q0 55 16 99t45.5 74.5t72 46.5t95.5 16t95.5 -16t72 -46.5t45.5 -74.5t16 -99v-66q0 -119 -61.5 -182.5t-167.5 -63.5zM270 106q45 0 69.5 29.5t24.5 101.5v66q0 65 -24.5 93t-69.5 28t-69.5 -28t-24.5 -93v-66 q0 -72 24.5 -101.5t69.5 -29.5zM306 730h139l-123 -160h-105z" glyph-name="oacute" horiz-adv-x="540" unicode="ó"/>
<glyph d="M270 -9q-106 0 -167.5 63.5t-61.5 182.5v66q0 55 16 99t45.5 74.5t72 46.5t95.5 16t95.5 -16t72 -46.5t45.5 -74.5t16 -99v-66q0 -119 -61.5 -182.5t-167.5 -63.5zM270 106q45 0 69.5 29.5t24.5 101.5v66q0 65 -24.5 93t-69.5 28t-69.5 -28t-24.5 -93v-66 q0 -72 24.5 -101.5t69.5 -29.5zM219 730h102l110 -160h-105l-56 69l-56 -69h-105z" glyph-name="ocircumflex" horiz-adv-x="540" unicode="ô"/>
<glyph d="M270 -9q-106 0 -167.5 63.5t-61.5 182.5v66q0 55 16 99t45.5 74.5t72 46.5t95.5 16t95.5 -16t72 -46.5t45.5 -74.5t16 -99v-66q0 -119 -61.5 -182.5t-167.5 -63.5zM270 106q45 0 69.5 29.5t24.5 101.5v66q0 65 -24.5 93t-69.5 28t-69.5 -28t-24.5 -93v-66 q0 -72 24.5 -101.5t69.5 -29.5zM325 579q-19 0 -34.5 6.5t-29 15t-26 15t-25.5 6.5q-11 0 -19 -6t-13 -14q-6 -9 -9 -20l-73 37q9 28 25 51q14 19 36.5 35t57.5 16q19 0 34.5 -6.5t29 -15t26 -15t25.5 -6.5q11 0 19 6t13 14q5 9 9 20l73 -37q-9 -29 -25 -51 q-14 -20 -36.5 -35.5t-57.5 -15.5z" glyph-name="otilde" horiz-adv-x="540" unicode="õ"/>
<glyph d="M270 -9q-106 0 -167.5 63.5t-61.5 182.5v66q0 55 16 99t45.5 74.5t72 46.5t95.5 16t95.5 -16t72 -46.5t45.5 -74.5t16 -99v-66q0 -119 -61.5 -182.5t-167.5 -63.5zM270 106q45 0 69.5 29.5t24.5 101.5v66q0 65 -24.5 93t-69.5 28t-69.5 -28t-24.5 -93v-66 q0 -72 24.5 -101.5t69.5 -29.5zM169 570q-33 0 -56 23.5t-23 56.5t23 56.5t56 23.5q34 0 57 -23.5t23 -56.5t-23 -56.5t-57 -23.5zM371 570q-34 0 -57 23.5t-23 56.5t23 56.5t57 23.5q33 0 56 -23.5t23 -56.5t-23 -56.5t-56 -23.5z" glyph-name="odieresis" horiz-adv-x="540" unicode="ö"/>
<glyph d="M275 458q-32 0 -54 22t-22 54t22 54t54 22t54 -22t22 -54t-22 -54t-54 -22zM57 420h436v-120h-436v120zM275 110q-32 0 -54 22t-22 54t22 54t54 22t54 -22t22 -54t-22 -54t-54 -22z" glyph-name="divide" unicode="÷"/>
<glyph d="M270 99q52 0 78.5 30.5t26.5 107.5v66q0 44 -14 74l-117 -275q6 -2 12.5 -2.5t13.5 -0.5zM270 431q-53 0 -79 -29t-26 -99v-66q0 -50 14 -83l117 274q-14 3 -26 3zM94 -51l34 83q-42 31 -64.5 82t-22.5 123v66q0 55 16 99t45.5 74.5t72 46.5t95.5 16q18 0 35 -2.5 t32 -6.5l34 80l75 -29l-35 -83q42 -30 65 -79.5t23 -115.5v-66q0 -119 -61.5 -182.5t-167.5 -63.5q-37 0 -68 9l-33 -80z" glyph-name="oslash" horiz-adv-x="540" unicode="ø"/>
<glyph d="M222 -9q-76 0 -122 49.5t-46 152.5v337h135v-316q0 -58 20.5 -83t55.5 -25q36 0 61 28t25 80v316h135v-530h-125v83q-18 -41 -54.5 -66.5t-84.5 -25.5zM95 730h139l89 -160h-105z" glyph-name="ugrave" horiz-adv-x="545" unicode="ù"/>
<glyph d="M222 -9q-76 0 -122 49.5t-46 152.5v337h135v-316q0 -58 20.5 -83t55.5 -25q36 0 61 28t25 80v316h135v-530h-125v83q-18 -41 -54.5 -66.5t-84.5 -25.5zM306 730h139l-123 -160h-105z" glyph-name="uacute" horiz-adv-x="545" unicode="ú"/>
<glyph d="M222 -9q-76 0 -122 49.5t-46 152.5v337h135v-316q0 -58 20.5 -83t55.5 -25q36 0 61 28t25 80v316h135v-530h-125v83q-18 -41 -54.5 -66.5t-84.5 -25.5zM219 730h102l110 -160h-105l-56 69l-56 -69h-105z" glyph-name="ucircumflex" horiz-adv-x="545" unicode="û"/>
<glyph d="M222 -9q-76 0 -122 49.5t-46 152.5v337h135v-316q0 -58 20.5 -83t55.5 -25q36 0 61 28t25 80v316h135v-530h-125v83q-18 -41 -54.5 -66.5t-84.5 -25.5zM169 570q-33 0 -56 23.5t-23 56.5t23 56.5t56 23.5q34 0 57 -23.5t23 -56.5t-23 -56.5t-57 -23.5zM371 570 q-34 0 -57 23.5t-23 56.5t23 56.5t57 23.5q33 0 56 -23.5t23 -56.5t-23 -56.5t-56 -23.5z" glyph-name="udieresis" horiz-adv-x="545" unicode="ü"/>
<glyph d="M88 -89q25 0 44 4.5t33 14t24.5 26t18.5 40.5l-202 534h148l120 -365l107 365h143l-183 -534q-21 -63 -42.5 -101.5t-50 -59.5t-67 -28t-93.5 -7v111zM301 730h139l-123 -160h-105z" glyph-name="yacute" horiz-adv-x="530" unicode="ý"/>
<glyph d="M288 106q42 0 66.5 29.5t24.5 101.5v66q0 65 -24.5 93t-66.5 28q-45 0 -69.5 -28t-24.5 -93v-66q0 -72 24.5 -101.5t69.5 -29.5zM59 700h135v-244q19 38 53 60.5t83 22.5q86 0 135 -55.5t49 -180.5v-66q0 -66 -12.5 -112.5t-36.5 -76.5t-58 -43.5t-77 -13.5 q-49 0 -83 22.5t-53 60.5v-274h-135v900z" glyph-name="thorn" horiz-adv-x="555" unicode="þ"/>
<glyph d="M88 -89q25 0 44 4.5t33 14t24.5 26t18.5 40.5l-202 534h148l120 -365l107 365h143l-183 -534q-21 -63 -42.5 -101.5t-50 -59.5t-67 -28t-93.5 -7v111zM164 570q-33 0 -56 23.5t-23 56.5t23 56.5t56 23.5q34 0 57 -23.5t23 -56.5t-23 -56.5t-57 -23.5zM366 570 q-34 0 -57 23.5t-23 56.5t23 56.5t57 23.5q33 0 56 -23.5t23 -56.5t-23 -56.5t-56 -23.5z" glyph-name="ydieresis" horiz-adv-x="530" unicode="ÿ"/>
<glyph d="M73 530h134v-530h-134v530z" glyph-name="dotlessi" horiz-adv-x="280" unicode="ı"/>
<glyph d="M310 114q29 0 50.5 9t36 32.5t21.5 63t7 100.5v80q0 54 -7 90t-21.5 57.5t-36 30.5t-50.5 9t-51 -9t-36 -30.5t-21 -57.5t-7 -90v-80q0 -61 7 -100.5t21 -63t36 -32.5t51 -9zM303 -9q-59 0 -105.5 19t-79 59t-49.5 102t-17 148v80q0 158 66.5 234t184.5 76 q33 0 65.5 -8.5t56.5 -29.5v29h432v-119h-289v-161h252v-120h-252v-181h289v-119h-432v29q-24 -21 -56.5 -29.5t-65.5 -8.5z" glyph-name="OE" horiz-adv-x="900" unicode="Œ"/>
<glyph d="M592 431q-38 0 -62.5 -23.5t-26.5 -85.5h179q-3 62 -27 85.5t-63 23.5zM271 106q44 0 70 29.5t26 101.5v66q0 65 -26 93t-70 28q-43 0 -69 -28t-26 -93v-66q0 -72 26 -101.5t69 -29.5zM271 -9q-52 0 -94.5 16t-72.5 47.5t-46.5 77.5t-16.5 105v66q0 55 16.5 99t46.5 74.5 t72.5 46.5t94.5 16q51 0 92 -16.5t70 -50.5q29 35 68 51t87 16q49 0 89.5 -16t70 -46t45.5 -74t16 -101v-73h-307q0 -37 7 -62t19 -40t28.5 -21.5t37.5 -6.5q32 0 50.5 16.5t23.5 39.5h132q-11 -74 -63 -119t-143 -45q-50 0 -90.5 17t-69.5 52q-29 -35 -70.5 -52t-92.5 -17z " glyph-name="oe" horiz-adv-x="850" unicode="œ"/>
<glyph d="M309 -9q-70 0 -120 14.5t-82 42t-48 66.5t-17 87h144q2 -41 28.5 -64t94.5 -23t95.5 21.5t27.5 55.5q0 20 -7 35.5t-25 27.5t-48 23t-76 22q-56 14 -96.5 32.5t-67.5 43.5t-40 58.5t-13 78.5q0 44 15 80t46 62t78 40.5t111 14.5q128 0 188.5 -56t62.5 -151h-143 q-2 39 -26.5 61.5t-81.5 22.5t-82 -21t-25 -53q0 -19 7.5 -33t24.5 -25t45 -20.5t70 -19.5q60 -15 102.5 -34.5t70 -45.5t40.5 -61t13 -82q0 -45 -15.5 -81.5t-48 -63t-83 -41t-119.5 -14.5zM138 900h119l52 -65l52 65h119l-106 -150h-130z" glyph-name="Scaron" horiz-adv-x="620" unicode="Š"/>
<glyph d="M250 -9q-56 0 -95.5 12t-65 33.5t-38.5 52t-15 66.5h132q4 -25 21 -40.5t61 -15.5q48 0 65.5 13.5t17.5 35.5q0 11 -3 20t-13 17t-28 15t-49 13q-102 20 -147.5 57.5t-45.5 105.5q0 73 50 118t153 45q102 0 150.5 -45t52.5 -118h-132q-4 27 -18.5 41t-52.5 14 q-40 0 -55.5 -12.5t-15.5 -35.5q0 -21 17.5 -35.5t71.5 -24.5t91.5 -24t61 -34t33.5 -47t10 -63q0 -73 -51.5 -118.5t-162.5 -45.5zM89 730h105l56 -69l56 69h105l-110 -160h-102z" glyph-name="scaron" horiz-adv-x="500" unicode="š"/>
<glyph d="M244 286l-237 414h161l145 -264l134 264h156l-217 -414v-286h-142v286zM195 745q-33 0 -56.5 23.5t-23.5 56.5t23.5 56.5t56.5 23.5t56.5 -23.5t23.5 -56.5t-23.5 -56.5t-56.5 -23.5zM415 745q-33 0 -56.5 23.5t-23.5 56.5t23.5 56.5t56.5 23.5t56.5 -23.5t23.5 -56.5 t-23.5 -56.5t-56.5 -23.5z" glyph-name="Ydieresis" horiz-adv-x="610" unicode="Ÿ"/>
<glyph d="M34 105l334 476h-324v119h482v-105l-334 -476h334v-119h-492v105zM114 900h119l52 -65l52 65h119l-106 -150h-130z" glyph-name="Zcaron" horiz-adv-x="560" unicode="Ž"/>
<glyph d="M36 90l248 329h-238v111h398v-90l-247 -329h247v-111h-408v90zM84 730h105l56 -69l56 69h105l-110 -160h-102z" glyph-name="zcaron" horiz-adv-x="480" unicode="ž"/>
<glyph d="M126 -90h15q31 0 43.5 11t12.5 33v465h-68v111h68v16q0 41 9 70.5t30.5 48t57 27t89.5 8.5h41v-110h-37q-30 0 -43 -11t-13 -33v-16h93v-111h-93v-465q0 -41 -9 -70.5t-30.5 -48t-57 -27t-89.5 -8.5h-19v110z" glyph-name="florin" unicode="ƒ"/>
<glyph d="M2 -89q38 0 54.5 19t16.5 70v530h134v-530q0 -58 -9.5 -96.5t-33 -61.5t-63 -32.5t-99.5 -9.5v111z" glyph-name="uni0237" horiz-adv-x="280" unicode="ȷ"/>
<glyph d="M70 388v142h142v-142l-103 -171h-76z" glyph-name="uni02BC" horiz-adv-x="250" unicode="ʼ"/>
<glyph d="M139 730h102l110 -160h-105l-56 69l-56 -69h-105z" glyph-name="circumflex" horiz-adv-x="380" unicode="ˆ"/>
<glyph d="M29 730h105l56 -69l56 69h105l-110 -160h-102z" glyph-name="caron" horiz-adv-x="380" unicode="ˇ"/>
<glyph d="M110 570q-33 0 -56.5 23.5t-23.5 56.5t23.5 56.5t56.5 23.5t56.5 -23.5t23.5 -56.5t-23.5 -56.5t-56.5 -23.5z" glyph-name="dotaccent" horiz-adv-x="220" unicode="˙"/>
<glyph d="M150 623q33 0 33 37t-33 37t-33 -37t33 -37zM150 554q-60 0 -93 30t-33 76t33 76t93 30t93 -30t33 -76t-33 -76t-93 -30z" glyph-name="ring" horiz-adv-x="300" unicode="˚"/>
<glyph d="M255 579q-19 0 -34.5 6.5t-29 15t-26 15t-25.5 6.5q-11 0 -19 -6t-13 -14q-6 -9 -9 -20l-73 37q9 28 25 51q14 19 36.5 35t57.5 16q19 0 34.5 -6.5t29 -15t26 -15t25.5 -6.5q11 0 19 6t13 14q5 9 9 20l73 -37q-9 -29 -25 -51q-14 -20 -36.5 -35.5t-57.5 -15.5z" glyph-name="tilde" horiz-adv-x="400" unicode="˜"/>
<glyph d="M353 730h139l-133 -160h-105zM167 730h139l-123 -160h-105z" glyph-name="hungarumlaut" horiz-adv-x="560" unicode="˝"/>
<glyph d="M77 700h455v-119h-312v-161h275v-120h-275v-181h312v-119h-455v700zM194 745q-33 0 -56.5 23.5t-23.5 56.5t23.5 56.5t56.5 23.5t56.5 -23.5t23.5 -56.5t-23.5 -56.5t-56.5 -23.5zM414 745q-33 0 -56.5 23.5t-23.5 56.5t23.5 56.5t56.5 23.5t56.5 -23.5t23.5 -56.5 t-23.5 -56.5t-56.5 -23.5z" glyph-name="uni0401" horiz-adv-x="575" unicode="Ё"/>
<glyph d="M214 581h-201v119h544v-119h-201v-201q25 24 64.5 41.5t100.5 17.5q98 0 149 -51.5t51 -150.5v-54q0 -92 -48 -137.5t-156 -45.5h-41v111h25q46 0 65.5 20t19.5 66v19q0 108 -110 108q-59 0 -89.5 -29t-30.5 -79v-216h-142v581z" glyph-name="uni0402" horiz-adv-x="775" unicode="Ђ"/>
<glyph d="M77 700h442v-119h-299v-581h-143v700zM336 900h147l-126 -150h-120z" glyph-name="uni0403" horiz-adv-x="530" unicode="Ѓ"/>
<glyph d="M330 -9q-129 0 -203.5 81t-74.5 250v76q0 154 74.5 232.5t203.5 78.5q124 0 189 -61.5t77 -168.5h-143q-9 52 -37 79.5t-86 27.5q-60 0 -95.5 -39t-39.5 -131h215v-119h-214q2 -51 12 -86t27 -56.5t41 -31t54 -9.5q59 0 85.5 28.5t37.5 83.5h143q-13 -112 -78 -173.5 t-188 -61.5z" glyph-name="uni0404" horiz-adv-x="630" unicode="Є"/>
<glyph d="M309 -9q-70 0 -120 14.5t-82 42t-48 66.5t-17 87h144q2 -41 28.5 -64t94.5 -23t95.5 21.5t27.5 55.5q0 20 -7 35.5t-25 27.5t-48 23t-76 22q-56 14 -96.5 32.5t-67.5 43.5t-40 58.5t-13 78.5q0 44 15 80t46 62t78 40.5t111 14.5q128 0 188.5 -56t62.5 -151h-143 q-2 39 -26.5 61.5t-81.5 22.5t-82 -21t-25 -53q0 -19 7.5 -33t24.5 -25t45 -20.5t70 -19.5q60 -15 102.5 -34.5t70 -45.5t40.5 -61t13 -82q0 -45 -15.5 -81.5t-48 -63t-83 -41t-119.5 -14.5z" glyph-name="uni0405" horiz-adv-x="620" unicode="Ѕ"/>
<glyph d="M84 700h142v-700h-142v700z" glyph-name="uni0406" horiz-adv-x="310" unicode="І"/>
<glyph d="M84 700h142v-700h-142v700zM46 745q-33 0 -56.5 23.5t-23.5 56.5t23.5 56.5t56.5 23.5t56.5 -23.5t23.5 -56.5t-23.5 -56.5t-56.5 -23.5zM266 745q-33 0 -56.5 23.5t-23.5 56.5t23.5 56.5t56.5 23.5t56.5 -23.5t23.5 -56.5t-23.5 -56.5t-56.5 -23.5z" glyph-name="uni0407" horiz-adv-x="310" unicode="Ї"/>
<glyph d="M236 -9q-113 0 -168 55.5t-59 158.5h143q4 -45 24 -68t60 -23q22 0 38.5 6.5t27.5 22t17 42t6 65.5v450h143v-450q0 -137 -57.5 -198t-174.5 -61z" glyph-name="uni0408" horiz-adv-x="540" unicode="Ј"/>
<glyph d="M711 119q71 0 101.5 27t30.5 77t-30.5 77t-101.5 27h-108v-208h108zM14 131q34 4 56 17t35 44.5t17.5 85t4.5 137.5v285h476v-253h108q70 0 121.5 -16t85.5 -45.5t51 -71t17 -91.5t-17 -91t-51 -70.5t-85.5 -45.5t-121.5 -16h-251v581h-200v-166q0 -125 -12.5 -205.5 t-41.5 -128t-76 -67.5t-116 -23v140z" glyph-name="uni0409" horiz-adv-x="1020" unicode="Љ"/>
<glyph d="M731 119q71 0 101.5 26.5t30.5 72.5t-30.5 72.5t-101.5 26.5h-108v-198h108zM77 700h143v-263h260v263h143v-263h108q70 0 121.5 -16t85.5 -45t51 -69.5t17 -88.5t-17 -88t-51 -69t-85.5 -45t-121.5 -16h-251v317h-260v-317h-143v700z" glyph-name="uni040A" horiz-adv-x="1040" unicode="Њ"/>
<glyph d="M214 581h-201v119h544v-119h-201v-201q25 24 64.5 41.5t100.5 17.5q98 0 149 -51.5t51 -150.5v-237h-135v216q0 108 -110 108q-59 0 -89.5 -29t-30.5 -79v-216h-142v581z" glyph-name="uni040B" horiz-adv-x="780" unicode="Ћ"/>
<glyph d="M77 700h143v-282h63l178 282h161l-221 -334l241 -366h-169l-190 299h-63v-299h-143v700zM388 900h147l-126 -150h-120z" glyph-name="uni040C" horiz-adv-x="660" unicode="Ќ"/>
<glyph d="M124 111q64 0 90.5 13t34.5 34l7 17l-249 525h153l162 -367l142 367h149l-223 -542q-20 -50 -41.5 -82.5t-51.5 -51.5t-71.5 -26t-101.5 -7v120zM310 741q-104 0 -149 41t-45 118h132q0 -37 14.5 -52.5t47.5 -15.5t48 15.5t15 52.5h131q0 -77 -45 -118t-149 -41z" glyph-name="uni040E" horiz-adv-x="620" unicode="Ў"/>
<glyph d="M281 0h-204v700h143v-581h250v581h143v-700h-204v-130h-128v130z" glyph-name="uni040F" horiz-adv-x="690" unicode="Џ"/>
<glyph d="M250 700h150l243 -700h-153l-47 139h-240l-48 -139h-148zM403 259l-80 263l-81 -263h161z" glyph-name="uni0410" horiz-adv-x="650" unicode="А"/>
<glyph d="M331 119q71 0 101.5 27t30.5 77t-30.5 77t-101.5 27h-111v-208h111zM77 700h467v-119h-324v-134h111q70 0 121.5 -16t85.5 -45.5t51 -71t17 -91.5t-17 -91t-51 -70.5t-85.5 -45.5t-121.5 -16h-254v700z" glyph-name="uni0411" horiz-adv-x="650" unicode="Б"/>
<glyph d="M77 700h262q118 0 183.5 -48t65.5 -139q0 -52 -25.5 -89t-64.5 -59q52 -20 81.5 -59t29.5 -107q0 -42 -15 -78.5t-47 -63t-81.5 -42t-119.5 -15.5h-269v700zM339 119q70 0 98.5 24t28.5 68q0 46 -27.5 69.5t-99.5 23.5h-119v-185h119zM339 416q55 0 80.5 22.5t25.5 58.5 q0 39 -25 61.5t-81 22.5h-119v-165h119z" glyph-name="uni0412" horiz-adv-x="650" unicode="В"/>
<glyph d="M77 700h442v-119h-299v-581h-143v700z" glyph-name="uni0413" horiz-adv-x="530" unicode="Г"/>
<glyph d="M471 119v462h-182v-66q0 -62 -2 -116t-8 -102.5t-17 -92.5t-29 -85h238zM14 119h73q22 34 35.5 72.5t21 86t10 105.5t2.5 132v185h458v-581h87v-249h-129v130h-429v-130h-129v249z" glyph-name="uni0414" horiz-adv-x="720" unicode="Д"/>
<glyph d="M77 700h455v-119h-312v-161h275v-120h-275v-181h312v-119h-455v700z" glyph-name="uni0415" horiz-adv-x="575" unicode="Е"/>
<glyph d="M217 357l-173 343h166l125 -283h64v283h142v-283h64l134 283h157l-173 -339l183 -361h-166l-135 297h-64v-297h-142v297h-64l-144 -297h-157z" glyph-name="uni0416" horiz-adv-x="940" unicode="Ж"/>
<glyph d="M293 -9q-118 0 -184.5 57t-79.5 157h143q8 -42 37 -66.5t84 -24.5q68 0 96.5 24.5t28.5 66.5q0 46 -28.5 70.5t-96.5 24.5h-91v120h91q52 0 77.5 23t25.5 59q0 40 -25.5 63.5t-77.5 23.5q-51 0 -80 -23.5t-31 -63.5h-136q4 45 22.5 83.5t50 66.5t75.5 44t99 16 q61 0 107 -15t77 -41t46.5 -62t15.5 -78q0 -51 -25.5 -88t-70.5 -59q54 -20 86 -59.5t32 -110.5q0 -46 -16 -84.5t-49 -66t-83.5 -42.5t-119.5 -15z" glyph-name="uni0417" horiz-adv-x="605" unicode="З"/>
<glyph d="M77 700h143v-470l268 470h145v-700h-143v470l-271 -470h-142v700z" glyph-name="uni0418" horiz-adv-x="710" unicode="И"/>
<glyph d="M77 700h143v-470l268 470h145v-700h-143v470l-271 -470h-142v700zM355 741q-104 0 -149 41t-45 118h132q0 -37 14.5 -52.5t47.5 -15.5t48 15.5t15 52.5h131q0 -77 -45 -118t-149 -41z" glyph-name="uni0419" horiz-adv-x="710" unicode="Й"/>
<glyph d="M77 700h143v-282h63l178 282h161l-221 -334l241 -366h-169l-190 299h-63v-299h-143v700z" glyph-name="uni041A" horiz-adv-x="660" unicode="К"/>
<glyph d="M14 131q34 4 56 17t35 44.5t17.5 85t4.5 137.5v285h476v-700h-143v581h-200v-166q0 -125 -12.5 -205.5t-41.5 -128t-76 -67.5t-116 -23v140z" glyph-name="uni041B" horiz-adv-x="680" unicode="Л"/>
<glyph d="M77 700h144l198 -399l198 399h136v-700h-136v460l-151 -311h-102l-151 311v-460h-136v700z" glyph-name="uni041C" horiz-adv-x="830" unicode="М"/>
<glyph d="M77 700h143v-280h260v280h143v-700h-143v300h-260v-300h-143v700z" glyph-name="uni041D" horiz-adv-x="700" unicode="Н"/>
<glyph d="M330 -9q-129 0 -203.5 80.5t-74.5 247.5v80q0 153 74.5 231.5t203.5 78.5t203.5 -78.5t74.5 -231.5v-80q0 -167 -74.5 -247.5t-203.5 -80.5zM330 114q31 0 56.5 10t42.5 34t26.5 63.5t9.5 97.5v80q0 101 -36 144t-99 43t-99 -43t-36 -144v-80q0 -58 9.5 -97.5t26.5 -63.5 t42 -34t57 -10z" glyph-name="uni041E" horiz-adv-x="660" unicode="О"/>
<glyph d="M77 700h536v-700h-143v581h-250v-581h-143v700z" glyph-name="uni041F" horiz-adv-x="690" unicode="П"/>
<glyph d="M77 700h254q139 0 207 -63t68 -170q0 -108 -68 -171t-207 -63h-111v-233h-143v700zM331 353q71 0 101.5 28.5t30.5 85.5t-30.5 85.5t-101.5 28.5h-111v-228h111z" glyph-name="uni0420" horiz-adv-x="640" unicode="Р"/>
<glyph d="M330 -9q-129 0 -203.5 81t-74.5 248v80q0 152 74.5 230.5t203.5 78.5q62 0 109 -16t80 -46t52 -72.5t25 -95.5h-143q-9 51 -37 79t-86 28q-63 0 -99 -42.5t-36 -143.5v-80q0 -58 9.5 -97.5t26.5 -63.5t42 -34.5t57 -10.5q59 0 85.5 28.5t37.5 83.5h143 q-13 -112 -78 -173.5t-188 -61.5z" glyph-name="uni0421" horiz-adv-x="630" unicode="С"/>
<glyph d="M214 581h-201v119h544v-119h-201v-581h-142v581z" glyph-name="uni0422" horiz-adv-x="570" unicode="Т"/>
<glyph d="M124 111q64 0 90.5 13t34.5 34l7 17l-249 525h153l162 -367l142 367h149l-223 -542q-20 -50 -41.5 -82.5t-51.5 -51.5t-71.5 -26t-101.5 -7v120z" glyph-name="uni0423" horiz-adv-x="620" unicode="У"/>
<glyph d="M192 343q0 -49 8 -81.5t25.5 -52.5t45.5 -28.5t68 -8.5v356q-80 0 -113.5 -34t-33.5 -117v-34zM628 377q0 83 -33.5 117t-113.5 34v-356q40 0 68 8.5t45.5 28.5t25.5 52.5t8 81.5v34zM339 51q-148 0 -219 71.5t-71 220.5v34q0 134 71 203t219 69v51h142v-51 q148 0 219 -69t71 -203v-34q0 -149 -71 -220.5t-219 -71.5v-51h-142v51z" glyph-name="uni0424" horiz-adv-x="820" unicode="Ф"/>
<glyph d="M230 367l-191 333h156l122 -218l122 218h152l-190 -330l210 -370h-157l-141 254l-142 -254h-152z" glyph-name="uni0425" horiz-adv-x="630" unicode="Х"/>
<glyph d="M567 0h-490v700h143v-581h240v581h143v-581h93v-249h-129v130z" glyph-name="uni0426" horiz-adv-x="710" unicode="Ц"/>
<glyph d="M410 267q-22 -9 -58.5 -17t-90.5 -8q-114 0 -165.5 55t-51.5 171v232h143v-199q0 -39 4.5 -65t17 -41.5t35.5 -22.5t59 -7q28 0 59 5.5t48 13.5v316h143v-700h-143v267z" glyph-name="uni0427" horiz-adv-x="630" unicode="Ч"/>
<glyph d="M77 700h143v-581h184v581h142v-581h184v581h143v-700h-796v700z" glyph-name="uni0428" horiz-adv-x="950" unicode="Ш"/>
<glyph d="M837 0h-760v700h143v-581h184v581h142v-581h184v581h143v-581h93v-249h-129v130z" glyph-name="uni0429" horiz-adv-x="980" unicode="Щ"/>
<glyph d="M396 119q71 0 101.5 27t30.5 77t-30.5 77t-101.5 27h-111v-208h111zM142 580h-142v120h285v-253h111q70 0 121.5 -16t85.5 -45.5t51 -71t17 -91.5t-17 -91t-51 -70.5t-85.5 -45.5t-121.5 -16h-254v580z" glyph-name="uni042A" horiz-adv-x="705" unicode="Ъ"/>
<glyph d="M620 700h143v-700h-143v700zM303 119q71 0 101.5 27t30.5 77t-30.5 77t-101.5 27h-83v-208h83zM77 700h143v-253h83q69 0 121 -16t86 -45.5t51 -71t17 -91.5t-17 -91t-51 -70.5t-86 -45.5t-121 -16h-226v700z" glyph-name="uni042B" horiz-adv-x="840" unicode="Ы"/>
<glyph d="M331 119q71 0 101.5 27t30.5 77t-30.5 77t-101.5 27h-111v-208h111zM77 700h143v-253h111q70 0 121.5 -16t85.5 -45.5t51 -71t17 -91.5t-17 -91t-51 -70.5t-85.5 -45.5t-121.5 -16h-254v700z" glyph-name="uni042C" horiz-adv-x="640" unicode="Ь"/>
<glyph d="M300 -9q-123 0 -188 61.5t-78 173.5h143q11 -55 37.5 -83.5t85.5 -28.5q30 0 53.5 9.5t41 31t27.5 56.5t12 86h-214v119h214q-4 92 -39 131t-94 39q-54 0 -81 -27.5t-36 -79.5h-140q12 108 75.5 169t181.5 61q64 0 115.5 -20t87.5 -59t55 -97t19 -135v-76 q0 -169 -74.5 -250t-203.5 -81z" glyph-name="uni042D" horiz-adv-x="630" unicode="Э"/>
<glyph d="M560 114q27 0 48 8.5t36 32t23 65.5t8 108v64q0 59 -8 96.5t-23 59.5t-36 30t-48 8q-26 0 -47.5 -8t-36.5 -30t-23 -59.5t-8 -96.5v-64q0 -66 8 -108t23 -65.5t36.5 -32t47.5 -8.5zM560 -9q-59 0 -105.5 17t-79.5 54.5t-51.5 96t-21.5 141.5h-82v-300h-143v701h143v-281 h83q6 151 73.5 220t183.5 69q61 0 109 -18.5t81 -57t50.5 -98.5t17.5 -143v-64q0 -90 -17.5 -154t-50.5 -104.5t-81 -59.5t-109 -19z" glyph-name="uni042E" horiz-adv-x="870" unicode="Ю"/>
<glyph d="M430 376v205h-114q-66 0 -96 -27t-30 -75q0 -49 30 -76t96 -27h114zM177 279q-65 26 -97.5 78t-32.5 122q0 49 16.5 89.5t50.5 70t84 45.5t118 16h257v-700h-143v256h-119l-135 -256h-152z" glyph-name="uni042F" horiz-adv-x="650" unicode="Я"/>
<glyph d="M186 -6q-72 0 -113.5 40t-41.5 118q0 80 47 121.5t141 41.5h110v31q0 45 -18.5 63.5t-62.5 18.5q-42 0 -58.5 -14t-18.5 -39h-117q2 78 47.5 121t149.5 43q109 0 157 -46t48 -146v-347h-117v83q-10 -18 -23 -34.5t-31 -28.5t-42 -19t-57 -7zM227 102q49 0 75.5 27 t26.5 78v18h-95q-42 0 -58.5 -16.5t-16.5 -45.5q0 -61 68 -61z" glyph-name="uni0430" horiz-adv-x="510" unicode="а"/>
<glyph d="M270 106q45 0 69.5 29.5t24.5 101.5v66q0 57 -24.5 84t-69.5 27t-69.5 -27t-24.5 -84v-66q0 -72 24.5 -101.5t69.5 -29.5zM270 -9q-106 0 -167.5 69.5t-61.5 221.5v64q0 83 8.5 152t33.5 119.5t69.5 80t115.5 33.5q40 2 70 4t53 5t40.5 8t34.5 13v-115 q-12 -7 -26.5 -11.5t-35.5 -8.5t-49.5 -6.5t-67.5 -4.5q-69 -5 -100 -43.5t-37 -104.5q27 29 59.5 45.5t70.5 16.5q49 0 89.5 -16t69 -45.5t44.5 -71t16 -93.5v-66q0 -119 -61.5 -182.5t-167.5 -63.5z" glyph-name="uni0431" horiz-adv-x="540" unicode="б"/>
<glyph d="M268 319q42 0 58.5 14t16.5 40q0 25 -16.5 39t-58.5 14h-82v-107h82zM288 104q41 0 58 15t17 44t-17 43.5t-58 14.5h-102v-117h102zM59 530h209q56 0 96 -10.5t65.5 -30t37 -46t11.5 -57.5q0 -20 -6.5 -37t-17.5 -30.5t-24.5 -23.5t-28.5 -16q49 -14 73 -47.5t24 -82.5 q0 -70 -50 -109.5t-160 -39.5h-229v530z" glyph-name="uni0432" horiz-adv-x="535" unicode="в"/>
<glyph d="M59 530h345v-111h-210v-419h-135v530z" glyph-name="uni0433" horiz-adv-x="410" unicode="г"/>
<glyph d="M364 111v308h-124v-34q0 -87 -9 -154t-40 -120h173zM9 111h50q39 48 48 123t9 168v128h382v-419h67v-236h-121v125h-314v-125h-121v236z" glyph-name="uni0434" horiz-adv-x="590" unicode="д"/>
<glyph d="M265 -9q-51 0 -92.5 16t-70.5 47.5t-45 77.5t-16 105v66q0 113 59.5 174.5t159.5 61.5t159.5 -61.5t59.5 -175.5v-73h-303q1 -74 24.5 -102t64.5 -28q33 0 50 16.5t22 39.5h132q-11 -74 -62 -119t-142 -45zM264 431q-41 0 -63 -23.5t-25 -85.5h176q-3 62 -25 85.5 t-63 23.5z" glyph-name="uni0435" horiz-adv-x="520" unicode="е"/>
<glyph d="M156 267l-132 263h149l92 -204h43v204h134v-204h43l96 204h145l-132 -253l147 -277h-153l-102 214h-44v-214h-134v214h-44l-107 -214h-148z" glyph-name="uni0436" horiz-adv-x="750" unicode="ж"/>
<glyph d="M235 -9q-54 0 -94 13t-67.5 35.5t-41.5 53.5t-15 66h135q2 -29 21.5 -46.5t61.5 -17.5q44 0 63.5 17.5t19.5 46.5t-19.5 45.5t-63.5 16.5h-71v98h66q33 0 50.5 15.5t17.5 42.5q0 26 -17 42t-51 16q-31 0 -48 -16t-19 -42h-136q1 35 17 65t43 51.5t64 33.5t79 12 q53 0 91.5 -12t63 -32.5t36.5 -48.5t12 -59q0 -22 -6.5 -40t-17.5 -32t-24.5 -24t-28.5 -16q49 -14 73 -48.5t24 -78.5q0 -70 -52.5 -113.5t-165.5 -43.5z" glyph-name="uni0437" horiz-adv-x="490" unicode="з"/>
<glyph d="M59 530h120v-356l201 356h131v-530h-120v356l-201 -356h-131v530z" glyph-name="uni0438" horiz-adv-x="570" unicode="и"/>
<glyph d="M59 530h120v-356l201 356h131v-530h-120v356l-201 -356h-131v530zM285 574q-86 0 -123.5 38t-37.5 105h109q0 -38 13 -52.5t39 -14.5t39 14.5t13 52.5h109q0 -67 -37.5 -105t-123.5 -38z" glyph-name="uni0439" horiz-adv-x="570" unicode="й"/>
<glyph d="M59 530h135v-204h37l131 204h145l-166 -252l185 -278h-153l-140 214h-39v-214h-135v530z" glyph-name="uni043A" horiz-adv-x="535" unicode="к"/>
<glyph d="M16 124q26 3 42.5 16t25.5 36t12 56.5t3 76.5v221h397v-530h-135v419h-135v-110q0 -78 -11 -137.5t-36 -99.5t-65 -60.5t-98 -20.5v133z" glyph-name="uni043B" horiz-adv-x="555" unicode="л"/>
<glyph d="M59 530h136l150 -285l149 285h127v-530h-120v336l-113 -216h-94l-115 216v-336h-120v530z" glyph-name="uni043C" horiz-adv-x="680" unicode="м"/>
<glyph d="M59 530h135v-204h182v204h135v-530h-135v214h-182v-214h-135v530z" glyph-name="uni043D" horiz-adv-x="570" unicode="н"/>
<glyph d="M270 -9q-106 0 -167.5 63.5t-61.5 182.5v66q0 55 16 99t45.5 74.5t72 46.5t95.5 16t95.5 -16t72 -46.5t45.5 -74.5t16 -99v-66q0 -119 -61.5 -182.5t-167.5 -63.5zM270 106q45 0 69.5 29.5t24.5 101.5v66q0 65 -24.5 93t-69.5 28t-69.5 -28t-24.5 -93v-66 q0 -72 24.5 -101.5t69.5 -29.5z" glyph-name="uni043E" horiz-adv-x="540" unicode="о"/>
<glyph d="M59 530h442v-530h-135v419h-172v-419h-135v530z" glyph-name="uni043F" horiz-adv-x="560" unicode="п"/>
<glyph d="M59 530h125v-83q20 40 54.5 64.5t91.5 24.5q86 0 135 -55t49 -178v-66q0 -66 -12.5 -112.5t-36.5 -76.5t-58 -43.5t-77 -13.5q-49 0 -83 22.5t-53 60.5v-274h-135v730zM288 106q42 0 66.5 29.5t24.5 101.5v66q0 63 -24.5 90.5t-66.5 27.5q-45 0 -69.5 -27.5t-24.5 -90.5 v-66q0 -72 24.5 -101.5t69.5 -29.5z" glyph-name="uni0440" horiz-adv-x="555" unicode="р"/>
<glyph d="M265 -9q-51 0 -92.5 16t-70.5 47.5t-45 77.5t-16 105v66q0 55 16 99t45 74.5t70.5 46.5t92.5 16t90 -14t66 -39t41.5 -59t16.5 -73h-136q-5 29 -23 49.5t-55 20.5q-41 0 -65 -28t-24 -93v-66q0 -72 24 -101.5t65 -29.5q37 0 55 20.5t23 49.5h136q-3 -41 -18 -74.5 t-41.5 -58.5t-65 -38.5t-89.5 -13.5z" glyph-name="uni0441" horiz-adv-x="510" unicode="с"/>
<glyph d="M163 419h-157v111h448v-111h-157v-419h-134v419z" glyph-name="uni0442" horiz-adv-x="460" unicode="т"/>
<glyph d="M88 -89q25 0 44 4.5t33 14t24.5 26t18.5 40.5l-202 534h148l120 -365l107 365h143l-183 -534q-21 -63 -42.5 -101.5t-50 -59.5t-67 -28t-93.5 -7v111z" glyph-name="uni0443" horiz-adv-x="530" unicode="у"/>
<glyph d="M176 238q0 -37 6 -62t19.5 -40.5t35.5 -22.5t54 -7v318q-62 0 -88.5 -28t-26.5 -94v-64zM534 301q0 67 -27.5 95t-87.5 28v-318q60 0 87.5 29t27.5 102v64zM288 -9q-120 0 -183.5 63.5t-63.5 183.5v64q0 111 63.5 174t183.5 63v171h134v-171q119 0 183 -62.5t64 -175.5 v-64q0 -119 -64 -182.5t-183 -63.5v-191h-134v191z" glyph-name="uni0444" horiz-adv-x="710" unicode="ф"/>
<glyph d="M174 272l-152 258h150l85 -154l86 154h145l-152 -253l165 -277h-150l-98 172l-99 -172h-145z" glyph-name="uni0445" horiz-adv-x="510" unicode="х"/>
<glyph d="M439 0h-380v530h135v-419h162v419h135v-419h68v-236h-120v125z" glyph-name="uni0446" horiz-adv-x="580" unicode="ц"/>
<glyph d="M311 207q-17 -13 -46 -22.5t-64 -9.5q-88 0 -131 44t-43 138v173h134v-152q0 -50 18 -69.5t58 -19.5q29 0 48 12t26 25v204h135v-530h-135v207z" glyph-name="uni0447" horiz-adv-x="505" unicode="ч"/>
<glyph d="M59 530h135v-419h129v419h134v-419h129v419h135v-530h-662v530z" glyph-name="uni0448" horiz-adv-x="780" unicode="ш"/>
<glyph d="M669 0h-610v530h135v-419h129v419h134v-419h129v419h135v-419h68v-236h-120v125z" glyph-name="uni0449" horiz-adv-x="810" unicode="щ"/>
<glyph d="M355 111q45 0 62 15.5t17 47.5t-17 48t-62 16h-86v-127h86zM134 419h-128v111h263v-181h86q112 0 163 -46t51 -129t-51 -128.5t-163 -45.5h-221v419z" glyph-name="uni044A" horiz-adv-x="590" unicode="ъ"/>
<glyph d="M496 530h135v-530h-135v530zM236 104q50 0 68 16.5t18 53.5q0 38 -18 54.5t-68 16.5h-42v-141h42zM59 530h135v-181h42q112 0 163 -46t51 -129t-51 -128.5t-163 -45.5h-177v530z" glyph-name="uni044B" horiz-adv-x="690" unicode="ы"/>
<glyph d="M280 111q45 0 62 15.5t17 47.5t-17 48t-62 16h-86v-127h86zM59 530h135v-181h86q112 0 163 -46t51 -129t-51 -128.5t-163 -45.5h-221v530z" glyph-name="uni044C" horiz-adv-x="515" unicode="ь"/>
<glyph d="M245 -9q-50 0 -88 13.5t-65 36.5t-42 54.5t-18 66.5h130q7 -26 26 -43t57 -17q41 0 65 25t28 87h-159v105h160q-3 58 -27.5 83.5t-65.5 25.5q-35 0 -54 -17t-26 -43h-125q1 34 15.5 65t41 54.5t64 37.5t84.5 14q52 0 94.5 -16t72 -46.5t45.5 -74.5t16 -100v-64 q0 -120 -61.5 -183.5t-167.5 -63.5z" glyph-name="uni044D" horiz-adv-x="515" unicode="э"/>
<glyph d="M465 106q20 0 36 6.5t26.5 21.5t16 40t5.5 63v66q0 68 -22 94.5t-62 26.5q-41 0 -62.5 -26.5t-21.5 -94.5v-66q0 -38 5.5 -63t16 -40t26.5 -21.5t36 -6.5zM465 -9q-97 0 -151.5 55.5t-59.5 167.5h-60v-214h-135v530h135v-204h60q5 104 59.5 158.5t151.5 54.5 q103 0 161 -60.5t58 -175.5v-66q0 -123 -58 -184.5t-161 -61.5z" glyph-name="uni044E" horiz-adv-x="725" unicode="ю"/>
<glyph d="M345 292v127h-84q-44 0 -61.5 -15.5t-17.5 -47.5t17.5 -48t61.5 -16h84zM147 203q-51 20 -74.5 58.5t-23.5 94.5q0 83 51 128.5t163 45.5h218v-530h-135v185h-73l-103 -185h-141z" glyph-name="uni044F" horiz-adv-x="540" unicode="я"/>
<glyph d="M265 -9q-51 0 -92.5 16t-70.5 47.5t-45 77.5t-16 105v66q0 113 59.5 174.5t159.5 61.5t159.5 -61.5t59.5 -175.5v-73h-303q1 -74 24.5 -102t64.5 -28q33 0 50 16.5t22 39.5h132q-11 -74 -62 -119t-142 -45zM264 431q-41 0 -63 -23.5t-25 -85.5h176q-3 62 -25 85.5 t-63 23.5zM159 570q-33 0 -56 23.5t-23 56.5t23 56.5t56 23.5q34 0 57 -23.5t23 -56.5t-23 -56.5t-57 -23.5zM361 570q-34 0 -57 23.5t-23 56.5t23 56.5t57 23.5q33 0 56 -23.5t23 -56.5t-23 -56.5t-56 -23.5z" glyph-name="uni0451" horiz-adv-x="520" unicode="ё"/>
<glyph d="M306 -89q37 0 53.5 19t16.5 70v266q0 58 -21.5 83t-59.5 25q-42 0 -66.5 -27t-24.5 -81v-266h-135v546h-86v88h86v66h135v-66h157v-88h-157v-137q18 35 52 57.5t84 22.5q80 0 125.5 -49.5t45.5 -152.5v-287q0 -58 -9.5 -96.5t-33 -61.5t-63 -32.5t-99.5 -9.5v111z" glyph-name="uni0452" horiz-adv-x="565" unicode="ђ"/>
<glyph d="M59 530h345v-111h-210v-419h-135v530zM268 730h139l-123 -160h-105z" glyph-name="uni0453" horiz-adv-x="410" unicode="ѓ"/>
<glyph d="M270 -9q-106 0 -167.5 63.5t-61.5 183.5v64q0 112 61.5 174.5t167.5 62.5q50 0 89 -14t66 -37.5t41.5 -54.5t16.5 -65h-129q-7 26 -26.5 43t-57.5 17q-42 0 -66.5 -25.5t-27.5 -83.5h160v-105h-159q4 -62 28 -87t65 -25q38 0 57 17t26 43h130q-3 -35 -18 -66.5t-42 -54.5 t-65 -36.5t-88 -13.5z" glyph-name="uni0454" horiz-adv-x="515" unicode="є"/>
<glyph d="M250 -9q-56 0 -95.5 12t-65 33.5t-38.5 52t-15 66.5h132q4 -25 21 -40.5t61 -15.5q48 0 65.5 13.5t17.5 35.5q0 11 -3 20t-13 17t-28 15t-49 13q-102 20 -147.5 57.5t-45.5 105.5q0 73 50 118t153 45q102 0 150.5 -45t52.5 -118h-132q-4 27 -18.5 41t-52.5 14 q-40 0 -55.5 -12.5t-15.5 -35.5q0 -21 17.5 -35.5t71.5 -24.5t91.5 -24t61 -34t33.5 -47t10 -63q0 -73 -51.5 -118.5t-162.5 -45.5z" glyph-name="uni0455" horiz-adv-x="500" unicode="ѕ"/>
<glyph d="M73 530h134v-530h-134v530zM140 570q-33 0 -56.5 23.5t-23.5 56.5t23.5 56.5t56.5 23.5t56.5 -23.5t23.5 -56.5t-23.5 -56.5t-56.5 -23.5z" glyph-name="uni0456" horiz-adv-x="280" unicode="і"/>
<glyph d="M73 530h134v-530h-134v530zM40 570q-33 0 -56 23.5t-23 56.5t23 56.5t56 23.5q34 0 57 -23.5t23 -56.5t-23 -56.5t-57 -23.5zM242 570q-34 0 -57 23.5t-23 56.5t23 56.5t57 23.5q33 0 56 -23.5t23 -56.5t-23 -56.5t-56 -23.5z" glyph-name="uni0457" horiz-adv-x="280" unicode="ї"/>
<glyph d="M2 -89q38 0 54.5 19t16.5 70v530h134v-530q0 -58 -9.5 -96.5t-33 -61.5t-63 -32.5t-99.5 -9.5v111zM140 570q-33 0 -56.5 23.5t-23.5 56.5t23.5 56.5t56.5 23.5t56.5 -23.5t23.5 -56.5t-23.5 -56.5t-56.5 -23.5z" glyph-name="uni0458" horiz-adv-x="280" unicode="ј"/>
<glyph d="M575 111q45 0 62 15.5t17 47.5t-17 48t-62 16h-80v-127h80zM16 124q26 3 42.5 16t25.5 36t12 56.5t3 76.5v221h396v-181h80q112 0 163 -46t51 -129t-51 -128.5t-163 -45.5h-215v419h-134v-110q0 -78 -11 -137.5t-36 -99.5t-65 -60.5t-98 -20.5v133z" glyph-name="uni0459" horiz-adv-x="810" unicode="љ"/>
<glyph d="M590 111q45 0 62 15.5t17 44.5t-17 44t-62 15h-82v-119h82zM59 530h135v-188h180v188h134v-188h82q112 0 163 -45.5t51 -125.5q0 -81 -51 -126t-163 -45h-216v230h-180v-230h-135v530z" glyph-name="uni045A" horiz-adv-x="825" unicode="њ"/>
<glyph d="M69 546h-86v88h86v66h135v-66h157v-88h-157v-137q18 35 52 57.5t84 22.5q80 0 125.5 -49.5t45.5 -152.5v-287h-135v266q0 58 -21.5 83t-59.5 25q-42 0 -66.5 -27t-24.5 -81v-266h-135v546z" glyph-name="uni045B" horiz-adv-x="565" unicode="ћ"/>
<glyph d="M59 530h135v-204h37l131 204h145l-166 -252l185 -278h-153l-140 214h-39v-214h-135v530zM315 730h139l-123 -160h-105z" glyph-name="uni045C" horiz-adv-x="535" unicode="ќ"/>
<glyph d="M88 -89q25 0 44 4.5t33 14t24.5 26t18.5 40.5l-202 534h148l120 -365l107 365h143l-183 -534q-21 -63 -42.5 -101.5t-50 -59.5t-67 -28t-93.5 -7v111zM265 574q-86 0 -123.5 38t-37.5 105h109q0 -38 13 -52.5t39 -14.5t39 14.5t13 52.5h109q0 -67 -37.5 -105t-123.5 -38z " glyph-name="uni045E" horiz-adv-x="530" unicode="ў"/>
<glyph d="M220 0h-161v530h135v-419h172v419h135v-530h-161v-125h-120v125z" glyph-name="uni045F" horiz-adv-x="560" unicode="џ"/>
<glyph d="M77 700h313v130h129v-249h-299v-581h-143v700z" glyph-name="uni0490" horiz-adv-x="530" unicode="Ґ"/>
<glyph d="M59 530h225v125h120v-236h-210v-419h-135v530z" glyph-name="uni0491" horiz-adv-x="410" unicode="ґ"/>
<glyph d="M77 700h442v-119h-299v-161h155v-120h-155v-300h-143v300h-77v120h77v280z" glyph-name="uni0492" horiz-adv-x="530" unicode="Ғ"/>
<glyph d="M0 326h59v204h345v-111h-210v-93h97v-112h-97v-214h-135v214h-59v112z" glyph-name="uni0493" horiz-adv-x="410" unicode="ғ"/>
<glyph d="M77 700h442v-119h-299v-174q20 10 58.5 21t99.5 11q99 0 149.5 -51t50.5 -151v-254q0 -92 -48 -137.5t-156 -45.5h-41v111h25q46 0 65.5 20t19.5 66v211q0 108 -110 108q-48 0 -74.5 -10.5t-38.5 -16.5v-289h-143v700z" glyph-name="uni0494" horiz-adv-x="631" unicode="Ҕ"/>
<glyph d="M269 -89q38 0 56.5 19t18.5 70v152q0 51 -18 70t-58 19q-29 0 -48 -12t-26 -25v-204h-135v530h345v-111h-210v-96q17 13 46 22.5t64 9.5q88 0 131 -44t43 -138v-173q0 -58 -10 -96.5t-34.5 -61.5t-64.5 -32.5t-100 -9.5v111z" glyph-name="uni0495" horiz-adv-x="510" unicode="ҕ"/>
<glyph d="M217 357l-173 343h166l125 -283h64v283h142v-283h64l134 283h157l-173 -339l122 -242h84v-249h-129v130h-60l-135 297h-64v-297h-142v297h-64l-144 -297h-157z" glyph-name="uni0496" horiz-adv-x="940" unicode="Җ"/>
<glyph d="M156 267l-132 263h149l92 -204h43v204h134v-204h43l96 204h145l-132 -253l87 -166h63v-236h-120v125h-37l-101 214h-44v-214h-134v214h-44l-107 -214h-148z" glyph-name="uni0497" horiz-adv-x="750" unicode="җ"/>
<glyph d="M241 -130v124q-82 10 -133 54q-66 57 -79 157h143q8 -42 37 -66.5t84 -24.5q68 0 96.5 24.5t28.5 66.5q0 46 -28.5 70.5t-96.5 24.5h-91v120h91q52 0 77.5 23t25.5 59q0 40 -25.5 63.5t-77.5 23.5q-51 0 -80 -23.5t-31 -63.5h-136q4 45 22.5 83.5t50 66.5t75.5 44t99 16 q61 0 107 -15t77 -41t46.5 -62t15.5 -78q0 -51 -25.5 -88t-70.5 -59q54 -20 86 -59.5t32 -110.5q0 -46 -16 -84.5t-49 -66t-84 -42.5q-20 -6 -43 -9v-127h-128z" glyph-name="uni0498" horiz-adv-x="605" unicode="Ҙ"/>
<glyph d="M175 -125v121q-18 3 -34 8q-40 13 -67.5 35.5t-41.5 53.5t-15 66h135q2 -29 21.5 -46.5t61.5 -17.5q44 0 63.5 17.5t19.5 46.5t-19.5 45.5t-63.5 16.5h-71v98h66q33 0 50.5 15.5t17.5 42.5q0 26 -17 42t-51 16q-31 0 -48 -16t-19 -42h-136q1 35 17 65t43 51.5t64 33.5 t79 12q53 0 91.5 -12t63 -32.5t36.5 -48.5t12 -59q0 -22 -6.5 -40t-17.5 -32t-24.5 -24t-28.5 -16q49 -14 73 -48.5t24 -78.5q0 -70 -53 -114q-37 -31 -105 -39v-120h-120z" glyph-name="uni0499" horiz-adv-x="490" unicode="ҙ"/>
<glyph d="M77 700h143v-282h63l178 282h161l-221 -334l162 -247h79v-249h-129v130h-40l-190 299h-63v-299h-143v700z" glyph-name="uni049A" horiz-adv-x="660" unicode="Қ"/>
<glyph d="M59 530h135v-204h37l131 204h145l-166 -252l111 -167h63v-236h-120v125h-22l-140 214h-39v-214h-135v530z" glyph-name="uni049B" horiz-adv-x="535" unicode="қ"/>
<glyph d="M77 700h143v-282h36v114h89v-114h8l158 282h161l-201 -334l221 -366h-169l-170 299h-8v-109h-89v109h-36v-299h-143v700z" glyph-name="uni049C" horiz-adv-x="700" unicode="Ҝ"/>
<glyph d="M59 530h135v-204h37v87h80v-87h8l103 204h145l-141 -252l160 -278h-153l-112 214h-10v-89h-80v89h-37v-214h-135v530z" glyph-name="uni049D" horiz-adv-x="575" unicode="ҝ"/>
<glyph d="M0 700h285l-1 -1v-281h63l178 282h161l-221 -334l241 -366h-169l-190 299h-63v-299h-143v580h-141v120z" glyph-name="uni04A0" horiz-adv-x="724" unicode="Ҡ"/>
<glyph d="M134 419h-128v111h263v-204h37l131 204h145l-166 -252l185 -278h-153l-140 214h-39v-214h-135v419z" glyph-name="uni04A1" horiz-adv-x="610" unicode="ҡ"/>
<glyph d="M77 700h143v-280h260v280h143v-581h83v-249h-129v130h-97v300h-260v-300h-143v700z" glyph-name="uni04A2" horiz-adv-x="720" unicode="Ң"/>
<glyph d="M59 530h135v-204h182v204h135v-419h63v-236h-120v125h-78v214h-182v-214h-135v530z" glyph-name="uni04A3" horiz-adv-x="595" unicode="ң"/>
<glyph d="M480 700h442v-119h-299v-581h-143v300h-260v-300h-143v700h143v-280h260v280z" glyph-name="uni04A4" horiz-adv-x="940" unicode="Ҥ"/>
<glyph d="M376 530h347v-111h-210v-419h-137v214h-182v-214h-135v530h135v-204h182v204z" glyph-name="uni04A5" horiz-adv-x="740" unicode="ҥ"/>
<glyph d="M263 -3q-83 16 -137 75q-74 81 -74 248v80q0 152 74.5 230.5t203.5 78.5q62 0 109 -16t80 -46t52 -72.5t25 -95.5h-143q-9 51 -37 79t-86 28q-63 0 -99 -42.5t-36 -143.5v-80q0 -58 9.5 -97.5t26.5 -63.5t42 -34.5t57 -10.5q59 0 85.5 28.5t37.5 83.5h143 q-13 -112 -78 -174q-48 -45 -127 -57v-125h-128v127z" glyph-name="uni04AA" horiz-adv-x="630" unicode="Ҫ"/>
<glyph d="M172 7q-41 16 -70 47.5t-45 77.5t-16 105v66q0 55 16 99t45 74.5t70.5 46.5t92.5 16t90 -14t66 -39t41.5 -59t16.5 -73h-136q-5 29 -23 49.5t-55 20.5q-41 0 -65 -28t-24 -93v-66q0 -72 24 -101.5t65 -29.5q37 0 55 20.5t23 49.5h136q-3 -41 -18 -74.5t-41.5 -58.5 t-65.5 -39q-14 -4 -29 -8v-121h-120v122q-17 4 -33 10z" glyph-name="uni04AB" horiz-adv-x="510" unicode="ҫ"/>
<glyph d="M244 286l-237 414h161l145 -264l134 264h156l-217 -414v-286h-142v286z" glyph-name="uni04AE" horiz-adv-x="610" unicode="Ү"/>
<glyph d="M208 6l-202 524h148l120 -355l107 355h143l-182 -521v-209h-134v206z" glyph-name="uni04AF" horiz-adv-x="530" unicode="ү"/>
<glyph d="M507 301v-120h-121v-181h-142v181h-122v120h113l-228 399h161l145 -264l134 264h156l-209 -399h113z" glyph-name="uni04B0" horiz-adv-x="610" unicode="Ұ"/>
<glyph d="M452 112v-112h-110v-200h-134v200h-107v112h84l-179 418h148l120 -335l107 335h143l-162 -418h90z" glyph-name="uni04B1" horiz-adv-x="530" unicode="ұ"/>
<glyph d="M230 367l-191 333h156l122 -218l122 218h152l-190 -330l142 -251h83v-249h-129v130h-43l-141 254l-142 -254h-152z" glyph-name="uni04B2" horiz-adv-x="630" unicode="Ҳ"/>
<glyph d="M174 272l-152 258h150l85 -154l86 154h145l-152 -253l99 -166h63v-236h-120v125h-27l-98 172l-99 -172h-145z" glyph-name="uni04B3" horiz-adv-x="510" unicode="ҳ"/>
<glyph d="M410 267q-22 -9 -58.5 -17t-90.5 -8q-114 0 -165.5 55t-51.5 171v232h143v-199q0 -39 4.5 -65t17 -41.5t35.5 -22.5t59 -7q28 0 59 5.5t48 13.5v316h143v-581h83v-249h-129v130h-97v267z" glyph-name="uni04B6" horiz-adv-x="650" unicode="Ҷ"/>
<glyph d="M311 207q-17 -13 -46 -22.5t-64 -9.5q-88 0 -131 44t-43 138v173h134v-152q0 -50 18 -69.5t58 -19.5q29 0 48 12t26 25v204h135v-419h63v-236h-120v125h-78v207z" glyph-name="uni04B7" horiz-adv-x="530" unicode="ҷ"/>
<glyph d="M410 267q-11 -5 -26 -9t-35 -8v-100h-95v94q-106 2 -158 55.5t-52 168.5v232h143v-199q0 -62 13 -93t54 -39v118h95v-119q18 3 34 7t27 9v316h143v-700h-143v267z" glyph-name="uni04B8" horiz-adv-x="630" unicode="Ҹ"/>
<glyph d="M311 207q-16 -11 -36 -17v-75h-75v66q-86 0 -132.5 41t-46.5 135v173h134v-152q0 -37 11 -56.5t34 -27.5v99h75v-97q14 5 22.5 13.5t13.5 16.5v204h135v-530h-135v207z" glyph-name="uni04B9" horiz-adv-x="505" unicode="ҹ"/>
<glyph d="M220 430q22 9 58.5 17t90.5 8q114 0 165.5 -55t51.5 -171v-229h-143v196q0 39 -4.5 65t-17 41.5t-35.5 22.5t-59 7q-28 0 -59 -5.5t-48 -13.5v-313h-143v700h143v-270z" glyph-name="uni04BA" horiz-adv-x="631" unicode="Һ"/>
<glyph d="M59 700h135v-241q18 35 52 57.5t84 22.5q80 0 125.5 -49.5t45.5 -152.5v-337h-135v316q0 58 -21.5 83t-59.5 25q-42 0 -66.5 -27t-24.5 -81v-316h-135v700z" glyph-name="uni04BB" horiz-adv-x="555" unicode="һ"/>
<glyph d="M84 700h142v-700h-142v700z" glyph-name="uni04C0" horiz-adv-x="310" unicode="Ӏ"/>
<glyph d="M77 700h143v-282h63l178 282h161l-191 -290q37 -8 69.5 -25.5t56.5 -46t37.5 -69t13.5 -93.5v-189q0 -92 -49 -139.5t-157 -47.5h-43v111h23q91 0 91 90v156q0 37 -12 64t-32 44t-45 25.5t-51 8.5h-113v-299h-143v700z" glyph-name="uni04C3" horiz-adv-x="650" unicode="Ӄ"/>
<glyph d="M283 -89q38 0 56.5 19t18.5 70v105q0 48 -27.5 78.5t-81.5 30.5h-55v-214h-135v530h135v-204h37l131 204h145l-140 -212q22 -6 44.5 -20t40.5 -36t29 -53.5t11 -72.5v-136q0 -58 -10 -96.5t-34.5 -61.5t-64.5 -32.5t-100 -9.5v111z" glyph-name="uni04C4" horiz-adv-x="536" unicode="ӄ"/>
<glyph d="M77 700h143v-280h260v280h143v-700q0 -58 -9.5 -96.5t-33 -61.5t-63 -32.5t-107.5 -9.5v115q38 0 54.5 19t16.5 66h-1v300h-260v-300h-143v700z" glyph-name="uni04C7" horiz-adv-x="700" unicode="Ӈ"/>
<glyph d="M59 530h135v-204h182v204h135v-530q0 -58 -9.5 -96.5t-33 -61.5t-63 -32.5t-100.5 -9.5v111q38 0 54.5 19t16.5 70v214h-182v-214h-135v530z" glyph-name="uni04C8" horiz-adv-x="570" unicode="ӈ"/>
<glyph d="M456 -130h-129v249h83v148q-22 -9 -58.5 -17t-90.5 -8q-114 0 -165.5 55t-51.5 171v232h143v-199q0 -39 4.5 -65t17 -41.5t35.5 -22.5t59 -7q28 0 59 5.5t48 13.5v316h143v-700h-97v-130z" glyph-name="uni04CB" horiz-adv-x="630" unicode="Ӌ"/>
<glyph d="M368 -125h-120v236h63v96q-17 -13 -46 -22.5t-64 -9.5q-88 0 -131 44t-43 138v173h134v-152q0 -50 18 -69.5t58 -19.5q29 0 48 12t26 25v204h135v-530h-78v-125z" glyph-name="uni04CC" horiz-adv-x="505" unicode="ӌ"/>
<glyph d="M61 0v700h135v-700h-135z" glyph-name="uni04CF" horiz-adv-x="257" unicode="ӏ"/>
<glyph d="M250 700h150l243 -700h-153l-47 139h-240l-48 -139h-148zM403 259l-80 263l-81 -263h161zM325 741q-104 0 -149 41t-45 118h132q0 -37 14.5 -52.5t47.5 -15.5t48 15.5t15 52.5h131q0 -77 -45 -118t-149 -41z" glyph-name="uni04D0" horiz-adv-x="650" unicode="Ӑ"/>
<glyph d="M186 -6q-72 0 -113.5 40t-41.5 118q0 80 47 121.5t141 41.5h110v31q0 45 -18.5 63.5t-62.5 18.5q-42 0 -58.5 -14t-18.5 -39h-117q2 78 47.5 121t149.5 43q109 0 157 -46t48 -146v-347h-117v83q-10 -18 -23 -34.5t-31 -28.5t-42 -19t-57 -7zM227 102q49 0 75.5 27 t26.5 78v18h-95q-42 0 -58.5 -16.5t-16.5 -45.5q0 -61 68 -61zM254 574q-86 0 -123.5 38t-37.5 105h109q0 -38 13 -52.5t39 -14.5t39 14.5t13 52.5h109q0 -67 -37.5 -105t-123.5 -38z" glyph-name="uni04D1" horiz-adv-x="510" unicode="ӑ"/>
<glyph d="M250 700h150l243 -700h-153l-47 139h-240l-48 -139h-148zM403 259l-80 263l-81 -263h161zM215 745q-33 0 -56.5 23.5t-23.5 56.5t23.5 56.5t56.5 23.5t56.5 -23.5t23.5 -56.5t-23.5 -56.5t-56.5 -23.5zM435 745q-33 0 -56.5 23.5t-23.5 56.5t23.5 56.5t56.5 23.5 t56.5 -23.5t23.5 -56.5t-23.5 -56.5t-56.5 -23.5z" glyph-name="uni04D2" horiz-adv-x="650" unicode="Ӓ"/>
<glyph d="M186 -6q-72 0 -113.5 40t-41.5 118q0 80 47 121.5t141 41.5h110v31q0 45 -18.5 63.5t-62.5 18.5q-42 0 -58.5 -14t-18.5 -39h-117q2 78 47.5 121t149.5 43q109 0 157 -46t48 -146v-347h-117v83q-10 -18 -23 -34.5t-31 -28.5t-42 -19t-57 -7zM227 102q49 0 75.5 27 t26.5 78v18h-95q-42 0 -58.5 -16.5t-16.5 -45.5q0 -61 68 -61zM154 570q-33 0 -56 23.5t-23 56.5t23 56.5t56 23.5q34 0 57 -23.5t23 -56.5t-23 -56.5t-57 -23.5zM356 570q-34 0 -57 23.5t-23 56.5t23 56.5t57 23.5q33 0 56 -23.5t23 -56.5t-23 -56.5t-56 -23.5z" glyph-name="uni04D3" horiz-adv-x="510" unicode="ӓ"/>
<glyph d="M401 700h476v-119h-298v-161h261v-120h-261v-181h298v-119h-441v139h-204l-77 -139h-156zM436 259v262l-141 -262h141z" glyph-name="uni04D4" horiz-adv-x="920" unicode="Ӕ"/>
<glyph d="M201 -9q-80 0 -125 40.5t-45 120.5t47.5 121.5t141.5 41.5h110v31q0 45 -18.5 63.5t-62.5 18.5q-43 0 -59.5 -14t-18.5 -39h-117q2 78 47.5 121t150.5 43q57 0 93.5 -13t61.5 -45q25 32 61.5 45t79.5 13q47 0 86 -16t66.5 -46.5t43 -75t15.5 -102.5v-74h-302 q2 -72 25 -99t64 -27q32 0 49.5 16.5t22.5 39.5h131q-11 -74 -61.5 -119t-141.5 -45q-57 0 -101 22t-73 64q-28 -39 -69.5 -62.5t-101.5 -23.5zM228 102q44 0 73 27t29 78v18h-96q-42 0 -58.5 -16.5t-16.5 -45.5q0 -61 69 -61zM544 431q-39 0 -62 -24.5t-25 -91.5h175 q-2 67 -24 91.5t-64 24.5z" glyph-name="uni04D5" horiz-adv-x="800" unicode="ӕ"/>
<glyph d="M77 700h455v-119h-312v-161h275v-120h-275v-181h312v-119h-455v700zM307 741q-104 0 -149 41t-45 118h132q0 -37 14.5 -52.5t47.5 -15.5t48 15.5t15 52.5h131q0 -77 -45 -118t-149 -41z" glyph-name="uni04D6" horiz-adv-x="575" unicode="Ӗ"/>
<glyph d="M265 -9q-51 0 -92.5 16t-70.5 47.5t-45 77.5t-16 105v66q0 113 59.5 174.5t159.5 61.5t159.5 -61.5t59.5 -175.5v-73h-303q1 -74 24.5 -102t64.5 -28q33 0 50 16.5t22 39.5h132q-11 -74 -62 -119t-142 -45zM264 431q-41 0 -63 -23.5t-25 -85.5h176q-3 62 -25 85.5 t-63 23.5zM260 574q-86 0 -123.5 38t-37.5 105h109q0 -38 13 -52.5t39 -14.5t39 14.5t13 52.5h109q0 -67 -37.5 -105t-123.5 -38z" glyph-name="uni04D7" horiz-adv-x="520" unicode="ӗ"/>
<glyph d="M204 221q15 -60 46 -83.5t80 -23.5q48 0 79.5 23.5t45.5 83.5q6 25 9 59h-268q1 -31 8 -59zM465 400q0 33 -5.5 66t-20.5 60t-41.5 43.5t-67.5 16.5q-54 0 -84 -30t-42 -77h-145q19 106 87 168t184 62q129 0 203.5 -78.5t74.5 -231.5v-80q0 -167 -74.5 -247.5 t-203.5 -80.5q-65 0 -116.5 18.5t-87.5 59t-55 105t-19 155.5v71h413z" glyph-name="uni04D8" horiz-adv-x="660" unicode="Ә"/>
<glyph d="M200 135q25 -29 70 -29t69 29q18 27 20 57h-179q2 -30 20 -57zM364 313q0 55 -24.5 83t-69.5 28t-70 -28q-5 -6 -9 -13h-140q2 9 6 19q16 44 45.5 74.5t72 46.5t95.5 16t95.5 -16t72 -46.5t45.5 -74.5t16 -99v-66q0 -119 -61.5 -182.5t-167.5 -63.5t-167.5 63.5 t-61.5 192.5v57h323v9z" glyph-name="uni04D9" horiz-adv-x="520" unicode="ә"/>
<glyph d="M465 400q0 33 -5.5 66t-20.5 60t-41.5 43.5t-67.5 16.5q-54 0 -84 -30t-42 -77h-145q19 106 87 168t184 62q129 0 203.5 -78.5t74.5 -231.5v-80q0 -167 -74.5 -247.5t-203.5 -80.5q-65 0 -116.5 18.5t-87.5 59t-55 105t-19 155.5v71h413zM204 221q15 -60 46 -83.5 t80 -23.5q48 0 79.5 23.5t45.5 83.5q6 25 9 59h-268q1 -31 8 -59zM220 745q-33 0 -56.5 23.5t-23.5 56.5t23.5 56.5t56.5 23.5t56.5 -23.5t23.5 -56.5t-23.5 -56.5t-56.5 -23.5zM440 745q-33 0 -56.5 23.5t-23.5 56.5t23.5 56.5t56.5 23.5t56.5 -23.5t23.5 -56.5 t-23.5 -56.5t-56.5 -23.5z" glyph-name="uni04DA" horiz-adv-x="660" unicode="Ӛ"/>
<glyph d="M364 313q0 55 -24.5 83t-69.5 28t-70 -28q-5 -6 -9 -13h-140q2 9 6 19q16 44 45.5 74.5t72 46.5t95.5 16t95.5 -16t72 -46.5t45.5 -74.5t16 -99v-66q0 -119 -61.5 -182.5t-167.5 -63.5t-167.5 63.5t-61.5 192.5v57h323v9zM200 135q25 -29 70 -29t69 29q18 27 20 57h-179 q2 -30 20 -57zM159 570q-33 0 -56 23.5t-23 56.5t23 56.5t56 23.5q34 0 57 -23.5t23 -56.5t-23 -56.5t-57 -23.5zM361 570q-34 0 -57 23.5t-23 56.5t23 56.5t57 23.5q33 0 56 -23.5t23 -56.5t-23 -56.5t-56 -23.5z" glyph-name="uni04DB" horiz-adv-x="520" unicode="ӛ"/>
<glyph d="M217 357l-173 343h166l125 -283h64v283h142v-283h64l134 283h157l-173 -339l183 -361h-166l-135 297h-64v-297h-142v297h-64l-144 -297h-157zM360 745q-33 0 -56.5 23.5t-23.5 56.5t23.5 56.5t56.5 23.5t56.5 -23.5t23.5 -56.5t-23.5 -56.5t-56.5 -23.5zM580 745 q-33 0 -56.5 23.5t-23.5 56.5t23.5 56.5t56.5 23.5t56.5 -23.5t23.5 -56.5t-23.5 -56.5t-56.5 -23.5z" glyph-name="uni04DC" horiz-adv-x="940" unicode="Ӝ"/>
<glyph d="M156 267l-132 263h149l92 -204h43v204h134v-204h43l96 204h145l-132 -253l147 -277h-153l-102 214h-44v-214h-134v214h-44l-107 -214h-148zM274 570q-33 0 -56 23.5t-23 56.5t23 56.5t56 23.5q34 0 57 -23.5t23 -56.5t-23 -56.5t-57 -23.5zM476 570q-34 0 -57 23.5 t-23 56.5t23 56.5t57 23.5q33 0 56 -23.5t23 -56.5t-23 -56.5t-56 -23.5z" glyph-name="uni04DD" horiz-adv-x="750" unicode="ӝ"/>
<glyph d="M293 -9q-118 0 -184.5 57t-79.5 157h143q8 -42 37 -66.5t84 -24.5q68 0 96.5 24.5t28.5 66.5q0 46 -28.5 70.5t-96.5 24.5h-91v120h91q52 0 77.5 23t25.5 59q0 40 -25.5 63.5t-77.5 23.5q-51 0 -80 -23.5t-31 -63.5h-136q4 45 22.5 83.5t50 66.5t75.5 44t99 16 q61 0 107 -15t77 -41t46.5 -62t15.5 -78q0 -51 -25.5 -88t-70.5 -59q54 -20 86 -59.5t32 -110.5q0 -46 -16 -84.5t-49 -66t-83.5 -42.5t-119.5 -15zM190 745q-33 0 -56.5 23.5t-23.5 56.5t23.5 56.5t56.5 23.5t56.5 -23.5t23.5 -56.5t-23.5 -56.5t-56.5 -23.5zM410 745 q-33 0 -56.5 23.5t-23.5 56.5t23.5 56.5t56.5 23.5t56.5 -23.5t23.5 -56.5t-23.5 -56.5t-56.5 -23.5z" glyph-name="uni04DE" horiz-adv-x="605" unicode="Ӟ"/>
<glyph d="M235 -9q-54 0 -94 13t-67.5 35.5t-41.5 53.5t-15 66h135q2 -29 21.5 -46.5t61.5 -17.5q44 0 63.5 17.5t19.5 46.5t-19.5 45.5t-63.5 16.5h-71v98h66q33 0 50.5 15.5t17.5 42.5q0 26 -17 42t-51 16q-31 0 -48 -16t-19 -42h-136q1 35 17 65t43 51.5t64 33.5t79 12 q53 0 91.5 -12t63 -32.5t36.5 -48.5t12 -59q0 -22 -6.5 -40t-17.5 -32t-24.5 -24t-28.5 -16q49 -14 73 -48.5t24 -78.5q0 -70 -52.5 -113.5t-165.5 -43.5zM140 570q-33 0 -56 23.5t-23 56.5t23 56.5t56 23.5q34 0 57 -23.5t23 -56.5t-23 -56.5t-57 -23.5zM342 570 q-34 0 -57 23.5t-23 56.5t23 56.5t57 23.5q33 0 56 -23.5t23 -56.5t-23 -56.5t-56 -23.5z" glyph-name="uni04DF" horiz-adv-x="490" unicode="ӟ"/>
<glyph d="M77 700h143v-470l268 470h145v-700h-143v470l-271 -470h-142v700zM191 881h328v-112h-328v112z" glyph-name="uni04E2" horiz-adv-x="710" unicode="Ӣ"/>
<glyph d="M59 530h120v-356l201 356h131v-530h-120v356l-201 -356h-131v530zM143 702h294v-104h-294v104z" glyph-name="uni04E3" horiz-adv-x="570" unicode="ӣ"/>
<glyph d="M77 700h143v-470l268 470h145v-700h-143v470l-271 -470h-142v700zM245 745q-33 0 -56.5 23.5t-23.5 56.5t23.5 56.5t56.5 23.5t56.5 -23.5t23.5 -56.5t-23.5 -56.5t-56.5 -23.5zM465 745q-33 0 -56.5 23.5t-23.5 56.5t23.5 56.5t56.5 23.5t56.5 -23.5t23.5 -56.5 t-23.5 -56.5t-56.5 -23.5z" glyph-name="uni04E4" horiz-adv-x="710" unicode="Ӥ"/>
<glyph d="M59 530h120v-356l201 356h131v-530h-120v356l-201 -356h-131v530zM184 570q-33 0 -56 23.5t-23 56.5t23 56.5t56 23.5q34 0 57 -23.5t23 -56.5t-23 -56.5t-57 -23.5zM386 570q-34 0 -57 23.5t-23 56.5t23 56.5t57 23.5q33 0 56 -23.5t23 -56.5t-23 -56.5t-56 -23.5z" glyph-name="uni04E5" horiz-adv-x="570" unicode="ӥ"/>
<glyph d="M330 -9q-129 0 -203.5 80.5t-74.5 247.5v80q0 153 74.5 231.5t203.5 78.5t203.5 -78.5t74.5 -231.5v-80q0 -167 -74.5 -247.5t-203.5 -80.5zM330 114q31 0 56.5 10t42.5 34t26.5 63.5t9.5 97.5v80q0 101 -36 144t-99 43t-99 -43t-36 -144v-80q0 -58 9.5 -97.5t26.5 -63.5 t42 -34t57 -10zM220 745q-33 0 -56.5 23.5t-23.5 56.5t23.5 56.5t56.5 23.5t56.5 -23.5t23.5 -56.5t-23.5 -56.5t-56.5 -23.5zM440 745q-33 0 -56.5 23.5t-23.5 56.5t23.5 56.5t56.5 23.5t56.5 -23.5t23.5 -56.5t-23.5 -56.5t-56.5 -23.5z" glyph-name="uni04E6" horiz-adv-x="660" unicode="Ӧ"/>
<glyph d="M270 -9q-106 0 -167.5 63.5t-61.5 182.5v66q0 55 16 99t45.5 74.5t72 46.5t95.5 16t95.5 -16t72 -46.5t45.5 -74.5t16 -99v-66q0 -119 -61.5 -182.5t-167.5 -63.5zM270 106q45 0 69.5 29.5t24.5 101.5v66q0 65 -24.5 93t-69.5 28t-69.5 -28t-24.5 -93v-66 q0 -72 24.5 -101.5t69.5 -29.5zM169 570q-33 0 -56 23.5t-23 56.5t23 56.5t56 23.5q34 0 57 -23.5t23 -56.5t-23 -56.5t-57 -23.5zM371 570q-34 0 -57 23.5t-23 56.5t23 56.5t57 23.5q33 0 56 -23.5t23 -56.5t-23 -56.5t-56 -23.5z" glyph-name="uni04E7" horiz-adv-x="540" unicode="ӧ"/>
<glyph d="M429 543q-36 43 -99 43t-99 -43q-32 -39 -36 -123h269q-3 84 -35 123zM330 114q31 0 56.5 10t42.5 34t26 63q8 33 10 79h-270q1 -46 9 -79q10 -39 27 -63t42 -34t57 -10zM330 -9q-129 0 -203.5 80.5t-74.5 247.5v80q0 153 74.5 231.5t203.5 78.5t203.5 -78.5t74.5 -231.5 v-80q0 -167 -74.5 -247.5t-203.5 -80.5z" glyph-name="uni04E8" horiz-adv-x="660" unicode="Ө"/>
<glyph d="M339 396q-24 28 -69 28t-70 -28q-20 -23 -24 -70h187q-4 47 -24 70zM270 106q45 0 69 29q21 25 24 79h-187q4 -54 24 -79q25 -29 70 -29zM270 -9q-106 0 -167.5 63.5t-61.5 182.5v66q0 55 16 99t45.5 74.5t72 46.5t95.5 16t95.5 -16t72 -46.5t45.5 -74.5t16 -99v-66 q0 -119 -61.5 -182.5t-167.5 -63.5z" glyph-name="uni04E9" horiz-adv-x="540" unicode="ө"/>
<glyph d="M330 -9q-129 0 -203.5 80.5t-74.5 247.5v80q0 153 74.5 231.5t203.5 78.5t203.5 -78.5t74.5 -231.5v-80q0 -167 -74.5 -247.5t-203.5 -80.5zM330 114q31 0 56.5 10t42.5 34t26 63q8 33 10 79h-270q1 -46 9 -79q10 -39 27 -63t42 -34t57 -10zM429 543q-36 43 -99 43 t-99 -43q-32 -39 -36 -123h269q-3 84 -35 123zM220 745q-33 0 -56.5 23.5t-23.5 56.5t23.5 56.5t56.5 23.5t56.5 -23.5t23.5 -56.5t-23.5 -56.5t-56.5 -23.5zM440 745q-33 0 -56.5 23.5t-23.5 56.5t23.5 56.5t56.5 23.5t56.5 -23.5t23.5 -56.5t-23.5 -56.5t-56.5 -23.5z" glyph-name="uni04EA" horiz-adv-x="660" unicode="Ӫ"/>
<glyph d="M270 -9q-106 0 -167.5 63.5t-61.5 182.5v66q0 55 16 99t45.5 74.5t72 46.5t95.5 16t95.5 -16t72 -46.5t45.5 -74.5t16 -99v-66q0 -119 -61.5 -182.5t-167.5 -63.5zM270 106q45 0 69 29q21 25 24 79h-187q4 -54 24 -79q25 -29 70 -29zM339 396q-24 28 -69 28t-70 -28 q-20 -23 -24 -70h187q-4 47 -24 70zM169 570q-33 0 -56 23.5t-23 56.5t23 56.5t56 23.5q34 0 57 -23.5t23 -56.5t-23 -56.5t-57 -23.5zM371 570q-34 0 -57 23.5t-23 56.5t23 56.5t57 23.5q33 0 56 -23.5t23 -56.5t-23 -56.5t-56 -23.5z" glyph-name="uni04EB" horiz-adv-x="540" unicode="ӫ"/>
<glyph d="M124 111q64 0 90.5 13t34.5 34l7 17l-249 525h153l162 -367l142 367h149l-223 -542q-20 -50 -41.5 -82.5t-51.5 -51.5t-71.5 -26t-101.5 -7v120zM150 881h328v-112h-328v112z" glyph-name="uni04EE" horiz-adv-x="620" unicode="Ӯ"/>
<glyph d="M88 -89q25 0 44 4.5t33 14t24.5 26t18.5 40.5l-202 534h148l120 -365l107 365h143l-183 -534q-21 -63 -42.5 -101.5t-50 -59.5t-67 -28t-93.5 -7v111zM119 702h294v-104h-294v104z" glyph-name="uni04EF" horiz-adv-x="530" unicode="ӯ"/>
<glyph d="M124 111q64 0 90.5 13t34.5 34l7 17l-249 525h153l162 -367l142 367h149l-223 -542q-20 -50 -41.5 -82.5t-51.5 -51.5t-71.5 -26t-101.5 -7v120zM199 745q-33 0 -56.5 23.5t-23.5 56.5t23.5 56.5t56.5 23.5t56.5 -23.5t23.5 -56.5t-23.5 -56.5t-56.5 -23.5zM419 745 q-33 0 -56.5 23.5t-23.5 56.5t23.5 56.5t56.5 23.5t56.5 -23.5t23.5 -56.5t-23.5 -56.5t-56.5 -23.5z" glyph-name="uni04F0" horiz-adv-x="620" unicode="Ӱ"/>
<glyph d="M88 -89q25 0 44 4.5t33 14t24.5 26t18.5 40.5l-202 534h148l120 -365l107 365h143l-183 -534q-21 -63 -42.5 -101.5t-50 -59.5t-67 -28t-93.5 -7v111zM167 570q-33 0 -56 23.5t-23 56.5t23 56.5t56 23.5q34 0 57 -23.5t23 -56.5t-23 -56.5t-57 -23.5zM369 570 q-34 0 -57 23.5t-23 56.5t23 56.5t57 23.5q33 0 56 -23.5t23 -56.5t-23 -56.5t-56 -23.5z" glyph-name="uni04F1" horiz-adv-x="530" unicode="ӱ"/>
<glyph d="M124 111q64 0 90.5 13t34.5 34l7 17l-249 525h153l162 -367l142 367h149l-223 -542q-20 -50 -41.5 -82.5t-51.5 -51.5t-71.5 -26t-101.5 -7v120zM244 900h147l-126 -150h-120zM444 900h147l-136 -150h-120z" glyph-name="uni04F2" horiz-adv-x="620" unicode="Ӳ"/>
<glyph d="M88 -89q25 0 44 4.5t33 14t24.5 26t18.5 40.5l-202 534h148l120 -365l107 365h143l-183 -534q-21 -63 -42.5 -101.5t-50 -59.5t-67 -28t-93.5 -7v111zM201 730h139l-123 -160h-105zM387 730h139l-133 -160h-105z" glyph-name="uni04F3" horiz-adv-x="530" unicode="ӳ"/>
<glyph d="M410 267q-22 -9 -58.5 -17t-90.5 -8q-114 0 -165.5 55t-51.5 171v232h143v-199q0 -39 4.5 -65t17 -41.5t35.5 -22.5t59 -7q28 0 59 5.5t48 13.5v316h143v-700h-143v267zM180 745q-33 0 -56.5 23.5t-23.5 56.5t23.5 56.5t56.5 23.5t56.5 -23.5t23.5 -56.5t-23.5 -56.5 t-56.5 -23.5zM400 745q-33 0 -56.5 23.5t-23.5 56.5t23.5 56.5t56.5 23.5t56.5 -23.5t23.5 -56.5t-23.5 -56.5t-56.5 -23.5z" glyph-name="uni04F4" horiz-adv-x="630" unicode="Ӵ"/>
<glyph d="M311 207q-17 -13 -46 -22.5t-64 -9.5q-88 0 -131 44t-43 138v173h134v-152q0 -50 18 -69.5t58 -19.5q29 0 48 12t26 25v204h135v-530h-135v207zM144 570q-33 0 -56 23.5t-23 56.5t23 56.5t56 23.5q34 0 57 -23.5t23 -56.5t-23 -56.5t-57 -23.5zM346 570q-34 0 -57 23.5 t-23 56.5t23 56.5t57 23.5q33 0 56 -23.5t23 -56.5t-23 -56.5t-56 -23.5z" glyph-name="uni04F5" horiz-adv-x="505" unicode="ӵ"/>
<glyph d="M77 700h143v-253h83q69 0 121 -16t86 -45.5t51 -71t17 -91.5t-17 -91t-51 -70.5t-86 -45.5t-121 -16h-226v700zM303 119q71 0 101.5 27t30.5 77t-30.5 77t-101.5 27h-83v-208h83zM620 700h143v-700h-143v700zM310 745q-33 0 -56.5 23.5t-23.5 56.5t23.5 56.5t56.5 23.5 t56.5 -23.5t23.5 -56.5t-23.5 -56.5t-56.5 -23.5zM530 745q-33 0 -56.5 23.5t-23.5 56.5t23.5 56.5t56.5 23.5t56.5 -23.5t23.5 -56.5t-23.5 -56.5t-56.5 -23.5z" glyph-name="uni04F8" horiz-adv-x="840" unicode="Ӹ"/>
<glyph d="M59 530h135v-181h42q112 0 163 -46t51 -129t-51 -128.5t-163 -45.5h-177v530zM236 104q50 0 68 16.5t18 53.5q0 38 -18 54.5t-68 16.5h-42v-141h42zM496 530h135v-530h-135v530zM244 570q-33 0 -56 23.5t-23 56.5t23 56.5t56 23.5q34 0 57 -23.5t23 -56.5t-23 -56.5 t-57 -23.5zM446 570q-34 0 -57 23.5t-23 56.5t23 56.5t57 23.5q33 0 56 -23.5t23 -56.5t-23 -56.5t-56 -23.5z" glyph-name="uni04F9" horiz-adv-x="690" unicode="ӹ"/>
<glyph d="M14 131q34 4 56 17t35 44.5t17.5 85t4.5 137.5v285h476v-700q0 -58 -9.5 -96.5t-33 -61.5t-63 -32.5t-107.5 -9.5v115q38 0 54.5 19t16.5 66h-1v581h-200v-166q0 -125 -12.5 -205.5t-41.5 -128t-76 -67.5t-116 -23v140z" glyph-name="uni0512" horiz-adv-x="680" unicode="Ԓ"/>
<glyph d="M16 124q26 3 42.5 16t25.5 36t12 56.5t3 76.5v221h397v-530q0 -58 -9.5 -96.5t-33 -61.5t-63 -32.5t-100.5 -9.5v111q38 0 54.5 19t16.5 70v419h-135v-110q0 -78 -11 -137.5t-36 -99.5t-65 -60.5t-98 -20.5v133z" glyph-name="uni0513" horiz-adv-x="555" unicode="ԓ"/>
<glyph d="M77 474q0 52 20 95.5t55 74.5t83 48t104 17q121 0 185 -63t64 -169l-146 -96q83 -9 125 -57.5t42 -116.5q0 -42 -14.5 -79.5t-46 -66t-81.5 -45t-121 -16.5h-22v119h15q37 0 62 6.5t39 18.5t20 29t6 38q0 46 -38 69.5t-104 23.5v112l121 81q0 17 -6 33.5t-19 30t-33 21.5 t-48 8q-35 0 -58 -12t-36.5 -30t-19 -39t-5.5 -40v-469h-143v474z" glyph-name="uni1E9E" horiz-adv-x="650" unicode="ẞ"/>
<glyph glyph-name="uni2009" horiz-adv-x="154" unicode=" "/>
<glyph d="M33 380h274v-120h-274v120z" glyph-name="uni2010" horiz-adv-x="340" unicode="‐"/>
<glyph d="M33 380h274v-120h-274v120z" glyph-name="uni2011" horiz-adv-x="340" unicode="‑"/>
<glyph d="M75 420h400v-120h-400v120z" glyph-name="figuredash" unicode="‒"/>
<glyph d="M50 420h400v-120h-400v120z" glyph-name="endash" horiz-adv-x="500" unicode="–"/>
<glyph d="M25 380h700v-120h-700v120z" glyph-name="emdash" horiz-adv-x="750" unicode="—"/>
<glyph d="M79 700l103 171h76l-37 -171v-142h-142v142z" glyph-name="quoteleft" horiz-adv-x="300" unicode="‘"/>
<glyph d="M79 558v142h142v-142l-103 -171h-76z" glyph-name="quoteright" horiz-adv-x="300" unicode="’"/>
<glyph d="M79 0v142h142v-142l-103 -171h-76z" glyph-name="quotesinglbase" horiz-adv-x="300" unicode="‚"/>
<glyph d="M270 700l103 171h76l-37 -171v-142h-142v142zM70 700l103 171h76l-37 -171v-142h-142v142z" glyph-name="quotedblleft" horiz-adv-x="500" unicode="“"/>
<glyph d="M279 558v142h142v-142l-103 -172h-76zM79 558v142h142v-142l-103 -172h-76z" glyph-name="quotedblright" horiz-adv-x="500" unicode="”"/>
<glyph d="M279 0v142h142v-142l-103 -171h-76zM79 0v142h142v-142l-103 -171h-76z" glyph-name="quotedblbase" horiz-adv-x="500" unicode="„"/>
<glyph d="M229 411h-190v119h190v170h142v-170h190v-119h-190v-611h-142v611z" glyph-name="dagger" horiz-adv-x="600" unicode="†"/>
<glyph d="M229 0h-190v119h190v292h-190v119h190v170h142v-170h190v-119h-190v-292h190v-119h-190v-200h-142v200z" glyph-name="daggerdbl" horiz-adv-x="600" unicode="‡"/>
<glyph d="M175 195q-26 0 -48.5 10t-39.5 27t-27 39.5t-10 48.5t10 48.5t27 39.5t39.5 27t48.5 10t48.5 -10t39.5 -27t27 -39.5t10 -48.5t-10 -48.5t-27 -39.5t-39.5 -27t-48.5 -10z" glyph-name="bullet" horiz-adv-x="350" unicode="•"/>
<glyph d="M810 -9q-38 0 -64 26t-26 64t26 64t64 26t64 -26t26 -64t-26 -64t-64 -26zM480 -9q-38 0 -64 26t-26 64t26 64t64 26t64 -26t26 -64t-26 -64t-64 -26zM150 -9q-38 0 -64 26t-26 64t26 64t64 26t64 -26t26 -64t-26 -64t-64 -26z" glyph-name="ellipsis" horiz-adv-x="960" unicode="…"/>
<glyph glyph-name="uni202F" horiz-adv-x="154" unicode=" "/>
<glyph d="M166 371q-70 0 -109.5 39.5t-39.5 109.5v40q0 70 39.5 109.5t109.5 39.5t109.5 -39.5t39.5 -109.5v-40q0 -70 -39.5 -109.5t-109.5 -39.5zM166 451q26 0 39.5 15.5t13.5 53.5v40q0 38 -13.5 53.5t-39.5 15.5t-39.5 -15.5t-13.5 -53.5v-40q0 -38 13.5 -53.5t39.5 -15.5z M524 700h119l-467 -700h-119zM535 -8q-70 0 -109.5 39.5t-39.5 109.5v40q0 70 39.5 109.5t109.5 39.5t109.5 -39.5t39.5 -109.5v-40q0 -70 -39.5 -109.5t-109.5 -39.5zM535 72q26 0 39.5 15.5t13.5 53.5v40q0 38 -13.5 53.5t-39.5 15.5t-39.5 -15.5t-13.5 -53.5v-40 q0 -38 13.5 -53.5t39.5 -15.5zM885 -8q-70 0 -109.5 39.5t-39.5 109.5v40q0 70 39.5 109.5t109.5 39.5t109.5 -39.5t39.5 -109.5v-40q0 -70 -39.5 -109.5t-109.5 -39.5zM885 72q26 0 39.5 15.5t13.5 53.5v40q0 38 -13.5 53.5t-39.5 15.5t-39.5 -15.5t-13.5 -53.5v-40 q0 -38 13.5 -53.5t39.5 -15.5z" glyph-name="perthousand" horiz-adv-x="1050" unicode="‰"/>
<glyph d="M36 273v74l230 197v-128l-124 -103l124 -104v-133z" glyph-name="guilsinglleft" horiz-adv-x="330" unicode="‹"/>
<glyph d="M64 204l124 103l-124 104v133l230 -197v-74l-230 -197v128z" glyph-name="guilsinglright" horiz-adv-x="330" unicode="›"/>
<glyph d="M484 700h119l-467 -700h-119z" glyph-name="fraction" horiz-adv-x="620" unicode="⁄"/>
<glyph d="M218 536v149l-93 -149h93zM218 449h-202v77l173 274h133v-264h36v-87h-36v-69h-104v69z" glyph-name="uni2074" horiz-adv-x="390" unicode="⁴"/>
<glyph d="M303 -9q-45 0 -83 13t-67.5 40.5t-50 71t-29.5 104.5h-64v105h56v56h-56v105h63q17 115 78.5 169t152.5 54q103 0 158 -60.5t65 -169.5h-143q-7 57 -24.5 82t-55.5 25q-32 0 -55.5 -22t-32.5 -78h121v-105h-128v-56h128v-105h-120q5 -31 13 -51.5t19.5 -32.5t25 -17 t29.5 -5q37 0 54.5 26t26.5 86h143q-11 -117 -67.5 -176t-156.5 -59z" glyph-name="Euro" unicode="€"/>
<glyph d="M275 -9q-53 0 -92.5 12t-65.5 32.5t-39 48t-13 58.5q0 43 19 81h-51v106h484v-106h-291q-30 -34 -30 -67q0 -24 19 -40.5t60 -16.5q40 0 57 16t21 41h132q-2 -36 -15 -66.5t-38.5 -52t-64.5 -34t-92 -12.5zM33 483h284q13 17 19 31t6 32q0 24 -16 39.5t-51 15.5 q-34 0 -48 -15.5t-18 -39.5h-132q4 72 51.5 117.5t146.5 45.5q50 0 87 -12t62 -32t37 -47t12 -58q0 -21 -3.5 -39t-12.5 -38h60v-106h-484v106z" glyph-name="uni20B4" unicode="₴"/>
<glyph d="M23 581v119h504v-119h-504zM204 406h-181v119h504v-119h-181v-406h-142v406z" glyph-name="uni20B8" unicode="₸"/>
<glyph d="M275 374q57 0 84 25.5t27 78.5q0 51 -27 77t-84 26h-52v-207h52zM80 92h-71v112h71v57h-71v113h71v326h195q126 0 190 -60t64 -162q0 -49 -16 -89t-48 -68.5t-79.5 -44t-110.5 -15.5h-52v-57h168v-112h-168v-92h-143v92z" glyph-name="uni20BD" unicode="₽"/>
<glyph d="M819 451q26 0 39.5 15.5t13.5 53.5v40q0 38 -13.5 53.5t-39.5 15.5t-39.5 -15.5t-13.5 -53.5v-40q0 -38 13.5 -53.5t39.5 -15.5zM819 371q-70 0 -109.5 39.5t-39.5 109.5v40q0 70 39.5 109.5t109.5 39.5t109.5 -39.5t39.5 -109.5v-40q0 -70 -39.5 -109.5t-109.5 -39.5z M687 300h264v-87h-264v87zM77 700h136l274 -468v468h136v-700h-136l-274 471v-471h-136v700z" glyph-name="uni2116" horiz-adv-x="1000" unicode="№"/>
<glyph d="M419 800h104l116 -227l116 227h99v-420h-96v258l-88 -170h-67l-88 170v-258h-96v420zM150 713h-127v87h357v-87h-127v-333h-103v333z" glyph-name="trademark" horiz-adv-x="900" unicode="™"/>
<glyph d="M44 350l350 350h164l-291 -290h483v-120h-483l291 -290h-164z" glyph-name="uni2190" horiz-adv-x="800" unicode="←"/>
<glyph d="M336 481l-286 -286v164l350 350l350 -350v-164l-286 286v-481h-128v481z" glyph-name="uni2191" horiz-adv-x="800" unicode="↑"/>
<glyph d="M529 290h-479v120h479l-287 290h164l350 -350l-350 -350h-164z" glyph-name="uni2192" horiz-adv-x="800" unicode="→"/>
<glyph d="M50 341v164l286 -286v481h128v-481l286 286v-164l-350 -350z" glyph-name="uni2193" horiz-adv-x="800" unicode="↓"/>
<glyph d="M103 173v474h475l119 -119h-378l378 -378l-97 -97l-377 377v-377z" glyph-name="uni2196" horiz-adv-x="800" unicode="↖"/>
<glyph d="M103 149l379 379h-379l119 119h475v-474l-120 -120v378l-378 -378z" glyph-name="uni2197" horiz-adv-x="800" unicode="↗"/>
<glyph d="M103 172h378l-378 378l97 97l377 -377v377l120 -120v-474h-475z" glyph-name="uni2198" horiz-adv-x="800" unicode="↘"/>
<glyph d="M103 527l120 120v-378l378 378l96 -96l-379 -379h379l-119 -119h-475v474z" glyph-name="uni2199" horiz-adv-x="800" unicode="↙"/>
<glyph d="M57 420h436v-120h-436v120z" glyph-name="minus" unicode="−"/>
<glyph d="M369 700h134l-322 -707h-134z" glyph-name="uni2215" unicode="∕"/>
<glyph d="M-241 730h139l-123 -160h-105z" glyph-name="uniF400" horiz-adv-x="0" unicode=""/>
<glyph d="M-301 900h146l-126 -150h-119z" glyph-name="uniF401" horiz-adv-x="0" unicode=""/>
<glyph d="M90 -209q-14 0 -26 1t-21 3q-11 2 -19 4l16 69q4 -1 9 -1q5 -1 10.5 -1h13.5q23 0 31 7t8 18q0 8 -9 15t-39 9l18 85h76l-8 -34q38 -14 52 -33.5t14 -45.5q0 -43 -30 -69.5t-96 -26.5z" glyph-name="uniF407" horiz-adv-x="240" unicode=""/>
<glyph d="M135 900h130l106 -150h-119l-52 65l-52 -65h-119z" glyph-name="uniF408" horiz-adv-x="400" unicode=""/>
<glyph d="M70 558v142h142v-142l-103 -171h-76z" glyph-name="uniF40A" horiz-adv-x="250" unicode=""/>
<glyph d="M110 745q-33 0 -56.5 23.5t-23.5 56.5t23.5 56.5t56.5 23.5t56.5 -23.5t23.5 -56.5t-23.5 -56.5t-56.5 -23.5z" glyph-name="uniF40B" horiz-adv-x="220" unicode=""/>
<glyph d="M150 794q18 0 27.5 8.5t9.5 22.5t-9.5 22.5t-27.5 8.5t-27.5 -8.5t-9.5 -22.5t9.5 -22.5t27.5 -8.5zM150 725q-65 0 -97 27t-32 73t32 73t97 27q66 0 97.5 -27t31.5 -73t-31.5 -73t-97.5 -27z" glyph-name="uniF40C" horiz-adv-x="300" unicode=""/>
<glyph d="M283 751q-23 0 -40 6.5t-31.5 15t-27.5 15t-28 6.5t-24.5 -6t-15.5 -14q-7 -9 -10 -20l-80 37q11 30 29 54q15 20 40 37t62 17q23 0 40 -6.5t31.5 -15t27.5 -15t28 -6.5q14 0 24 6t16 14q7 9 10 20l80 -37q-11 -30 -29 -54q-16 -20 -40.5 -37t-61.5 -17z" glyph-name="uniF40D" horiz-adv-x="440" unicode=""/>
<glyph d="M299 -209q-14 0 -25.5 1t-20.5 3q-11 2 -19 4l15 69q5 -1 10 -1q5 -1 10.5 -1h12.5q23 0 31 7t8 18q0 8 -9 15t-38 9l16 79q-111 11 -174.5 91t-63.5 235v80q0 152 74.5 230.5t203.5 78.5q62 0 109 -16t80 -46t52 -72.5t25 -95.5h-143q-9 51 -37 79t-86 28 q-63 0 -99 -42.5t-36 -143.5v-80q0 -58 9.5 -97.5t26.5 -63.5t42 -34.5t57 -10.5q59 0 85.5 28.5t37.5 83.5h143q-12 -105 -68.5 -165t-162.5 -68l-6 -27q39 -14 52.5 -33.5t13.5 -45.5q0 -43 -30 -69.5t-96 -26.5z" glyph-name="uni04AA.alt02" horiz-adv-x="630" unicode=""/>
<glyph d="M235 -209q-14 0 -25 1t-19 3q-10 2 -17 4l16 69q4 -1 8 -1q4 -1 9 -1h11q19 0 26.5 7t7.5 18q0 8 -8.5 15t-34.5 9l17 79q-86 11 -135.5 73.5t-49.5 169.5v66q0 55 16 99t45 74.5t70.5 46.5t92.5 16t90 -14t66 -39t41.5 -59t16.5 -73h-136q-5 29 -23 49.5t-55 20.5 q-41 0 -65 -28t-24 -93v-66q0 -72 24 -101.5t65 -29.5q37 0 55 20.5t23 49.5h136q-6 -74 -50 -123.5t-128 -58.5l-6 -28q35 -14 48 -33.5t13 -45.5q0 -43 -29.5 -69.5t-91.5 -26.5z" glyph-name="uni04AB.alt02" horiz-adv-x="510" unicode=""/>
<glyph d="M77 700h143v-253h83q69 0 121 -16t86 -45.5t51 -71t17 -91.5t-17 -91t-51 -70.5t-86 -45.5t-121 -16h-226v700zM303 119q71 0 101.5 27t30.5 77t-30.5 77t-101.5 27h-83v-208h83zM620 700h143v-700h-143v700zM420 741q-104 0 -149 41t-45 118h132q0 -37 14.5 -52.5 t47.5 -15.5t48 15.5t15 52.5h131q0 -77 -45 -118t-149 -41z" glyph-name="uniF536" horiz-adv-x="840" unicode=""/>
<glyph d="M59 530h135v-181h42q112 0 163 -46t51 -129t-51 -128.5t-163 -45.5h-177v530zM236 104q50 0 68 16.5t18 53.5q0 38 -18 54.5t-68 16.5h-42v-141h42zM496 530h135v-530h-135v530zM345 574q-86 0 -123.5 38t-37.5 105h109q0 -38 13 -52.5t39 -14.5t39 14.5t13 52.5h109 q0 -67 -37.5 -105t-123.5 -38z" glyph-name="uniF537" horiz-adv-x="690" unicode=""/>
<glyph d="M77 700h459v-119h-316v-171h279v-120h-279v-290h-143v700z" glyph-name="uni0492.alt" horiz-adv-x="565" unicode=""/>
<glyph d="M59 530h345v-111h-210v-102h137v-94h-137v-223h-135v530z" glyph-name="uni0493.alt" horiz-adv-x="410" unicode=""/>
<glyph glyph-name="uniFEFF" horiz-adv-x="0" unicode="﻿"/>
<glyph d="M33 410h274v-120h-274v120z" glyph-name="uniF6BA" horiz-adv-x="340" unicode=""/>
<glyph d="M50 411h400v-120h-400v120z" glyph-name="uniF6BB" horiz-adv-x="500" unicode=""/>
<glyph d="M25 410h700v-120h-700v120z" glyph-name="uniF6BC" horiz-adv-x="750" unicode=""/>
<glyph d="M126 900h147l-126 -150h-120z" glyph-name="uniF6C9" horiz-adv-x="300" unicode=""/>
<glyph d="M29 900h119l52 -65l52 65h119l-106 -150h-130z" glyph-name="uniF6CA" horiz-adv-x="400" unicode=""/>
<glyph d="M330 745q-33 0 -56.5 23.5t-23.5 56.5t23.5 56.5t56.5 23.5t56.5 -23.5t23.5 -56.5t-23.5 -56.5t-56.5 -23.5zM110 745q-33 0 -56.5 23.5t-23.5 56.5t23.5 56.5t56.5 23.5t56.5 -23.5t23.5 -56.5t-23.5 -56.5t-56.5 -23.5z" glyph-name="uniF6CB" horiz-adv-x="440" unicode=""/>
<glyph d="M27 900h147l99 -150h-120z" glyph-name="uniF6CE" horiz-adv-x="300" unicode=""/>
<glyph d="M339 900h147l-136 -150h-120zM139 900h147l-126 -150h-120z" glyph-name="uniF6CF" horiz-adv-x="490" unicode=""/>
<glyph d="M26 881h328v-112h-328v112z" glyph-name="uniF6D0" horiz-adv-x="380" unicode=""/>
<glyph d="M220 741q-104 0 -149 41t-45 118h132q0 -37 14.5 -52.5t47.5 -15.5t48 15.5t15 52.5h131q0 -77 -45 -118t-149 -41z" glyph-name="uniF6D1" horiz-adv-x="440" unicode=""/>
<glyph d="M190 574q-86 0 -123.5 38t-37.5 105h109q0 -38 13 -52.5t39 -14.5t39 14.5t13 52.5h109q0 -67 -37.5 -105t-123.5 -38z" glyph-name="uniF6D4" horiz-adv-x="380" unicode=""/>
</font>
</defs>
</svg>
