<svg width="24" height="24" viewBox="0 0 24 24" fill="none" xmlns="http://www.w3.org/2000/svg">
<path fill-rule="evenodd" clip-rule="evenodd" d="M9.13261 9.89945C9.13261 7.13803 11.3712 4.89945 14.1326 4.89945C16.894 4.89945 19.1326 7.13803 19.1326 9.89945C19.1326 12.6609 16.894 14.8995 14.1326 14.8995C11.3712 14.8995 9.13261 12.6609 9.13261 9.89945ZM14.1326 2.89945C10.2666 2.89945 7.13261 6.03346 7.13261 9.89945C7.13261 11.5002 7.66994 12.9755 8.57407 14.1548L3.29814 19.4307L4.71235 20.8449L10.0042 15.553C11.1616 16.3997 12.5888 16.8995 14.1326 16.8995C17.9986 16.8995 21.1326 13.7654 21.1326 9.89945C21.1326 6.03346 17.9986 2.89945 14.1326 2.89945Z" fill="#969CA2"/>
</svg>
