<svg width="24" height="24" viewBox="0 0 24 24" fill="none" xmlns="http://www.w3.org/2000/svg">
<path fill-rule="evenodd" clip-rule="evenodd" d="M13.607 6.40717L11.507 8.5072L10.0928 7.09298L12.1928 4.99295C14.0745 3.11124 17.1254 3.11124 19.0071 4.99295C20.8888 6.87467 20.8888 9.92553 19.0071 11.8073L16.9071 13.9073L15.4929 12.4931L17.5929 10.393C18.6936 9.29237 18.6936 7.50783 17.5929 6.40717C16.4923 5.3065 14.7077 5.3065 13.607 6.40717ZM10.3932 17.5932L12.4932 15.4931L13.9074 16.9073L11.8074 19.0074C9.92566 20.8891 6.87479 20.8891 4.99307 19.0074C3.11136 17.1257 3.11136 14.0748 4.99307 12.1931L7.09311 10.093L8.50732 11.5073L6.40729 13.6073C5.30662 14.708 5.30662 16.4925 6.40729 17.5932C7.50796 18.6938 9.29249 18.6938 10.3932 17.5932ZM7.918 14.6679C7.52747 15.0585 7.52747 15.6916 7.918 16.0821C8.30852 16.4727 8.94169 16.4727 9.33221 16.0821L16.0822 9.33215C16.4727 8.94163 16.4727 8.30846 16.0822 7.91794C15.6917 7.52741 15.0585 7.52741 14.668 7.91794L7.918 14.6679Z" fill="#969CA2"/>
</svg>
