<svg width="24" height="24" viewBox="0 0 24 24" fill="none" xmlns="http://www.w3.org/2000/svg">
<path fill-rule="evenodd" clip-rule="evenodd" d="M12 11C13.1046 11 14 10.1046 14 9C14 7.89543 13.1046 7 12 7C10.8954 7 10 7.89543 10 9C10 10.1046 10.8954 11 12 11ZM12 17C13.1046 17 14 16.1046 14 15C14 13.8954 13.1046 13 12 13C10.8954 13 10 13.8954 10 15C10 16.1046 10.8954 17 12 17ZM20 15C20 16.1046 19.1046 17 18 17C16.8954 17 16 16.1046 16 15C16 13.8954 16.8954 13 18 13C19.1046 13 20 13.8954 20 15ZM18 11C19.1046 11 20 10.1046 20 9C20 7.89543 19.1046 7 18 7C16.8954 7 16 7.89543 16 9C16 10.1046 16.8954 11 18 11ZM8 15C8 16.1046 7.10457 17 6 17C4.89543 17 4 16.1046 4 15C4 13.8954 4.89543 13 6 13C7.10457 13 8 13.8954 8 15ZM6 11C7.10457 11 8 10.1046 8 9C8 7.89543 7.10457 7 6 7C4.89543 7 4 7.89543 4 9C4 10.1046 4.89543 11 6 11Z" fill="#0A0C10"/>
</svg>
