<svg width="24" height="24" viewBox="0 0 24 24" fill="none" xmlns="http://www.w3.org/2000/svg">
<mask id="path-1-inside-1_3293_7556" fill="white">
<path fill-rule="evenodd" clip-rule="evenodd" d="M10.0672 18.4207L10.7783 17.7046L20.7097 7.70463L19.2906 6.29529L10.0703 15.5793L4.71126 10.1592L3.28906 11.5654L9.35767 17.7031L10.0672 18.4207Z"/>
</mask>
<path fill-rule="evenodd" clip-rule="evenodd" d="M10.0672 18.4207L10.7783 17.7046L20.7097 7.70463L19.2906 6.29529L10.0703 15.5793L4.71126 10.1592L3.28906 11.5654L9.35767 17.7031L10.0672 18.4207Z" fill="#969CA2"/>
<path d="M10.7783 17.7046L12.1974 19.114L12.1974 19.114L10.7783 17.7046ZM10.0672 18.4207L8.64499 19.8268L10.064 21.262L11.4863 19.83L10.0672 18.4207ZM20.7097 7.70463L22.1288 9.11396L23.5381 7.69489L22.119 6.28555L20.7097 7.70463ZM19.2906 6.29529L20.7 4.87622L19.2809 3.46688L17.8716 4.88595L19.2906 6.29529ZM10.0703 15.5793L8.64814 16.9854L10.0672 18.4207L11.4894 16.9886L10.0703 15.5793ZM4.71126 10.1592L6.13345 8.75298L4.72727 7.33079L3.30507 8.73697L4.71126 10.1592ZM3.28906 11.5654L1.88288 10.1432L0.460681 11.5493L1.86687 12.9715L3.28906 11.5654ZM9.35767 17.7031L10.7799 16.2969L10.7799 16.2969L9.35767 17.7031ZM9.35923 16.2953L8.64812 17.0113L11.4863 19.83L12.1974 19.114L9.35923 16.2953ZM19.2906 6.29529L9.35923 16.2953L12.1974 19.114L22.1288 9.11396L19.2906 6.29529ZM17.8813 7.71436L19.3004 9.1237L22.119 6.28555L20.7 4.87622L17.8813 7.71436ZM11.4894 16.9886L20.7097 7.70463L17.8716 4.88595L8.65127 14.1699L11.4894 16.9886ZM3.28906 11.5654L8.64814 16.9854L11.4925 14.1731L6.13345 8.75298L3.28906 11.5654ZM4.69525 12.9876L6.11744 11.5814L3.30507 8.73697L1.88288 10.1432L4.69525 12.9876ZM10.7799 16.2969L4.71126 10.1592L1.86687 12.9715L7.93547 19.1092L10.7799 16.2969ZM11.4894 17.0145L10.7799 16.2969L7.93547 19.1092L8.64499 19.8268L11.4894 17.0145Z" fill="#969CA2" mask="url(#path-1-inside-1_3293_7556)"/>
</svg>
