<svg width="40" height="40" viewBox="0 0 40 40" fill="none" xmlns="http://www.w3.org/2000/svg">
<path fill-rule="evenodd" clip-rule="evenodd" d="M16.9711 5.78701H11.56H10.3106L9.42427 6.66765L6.17763 9.89346L5.2832 10.7821V12.043V27.957V29.2179L6.17763 30.1065L9.42427 33.3324L10.3106 34.213H11.56H16.9711V40H23.0315V34.213H28.4425H29.692L30.5783 33.3324L33.8249 30.1065L34.7194 29.2179V27.957V12.043V10.7821L33.8249 9.89346L30.5783 6.66765L29.692 5.78701H28.4425H23.0315V0H16.9711V5.78701ZM23.0315 28.1526V11.8474H27.1931L28.659 13.3039V26.6961L27.1931 28.1526H23.0315ZM16.9711 28.1526V11.8474H12.8095L11.3436 13.3039V26.6961L12.8095 28.1526H16.9711Z" fill="#3C93D2"/>
</svg>
