<svg width="16" height="32" viewBox="0 0 16 32" fill="none" xmlns="http://www.w3.org/2000/svg">
<mask id="path-1-inside-1_2607_6625" fill="white">
<path fill-rule="evenodd" clip-rule="evenodd" d="M6.12201 8.22547C7.21912 7.34477 8.78088 7.34477 9.87799 8.22547L14.878 12.2392C15.5873 12.8086 16 13.6691 16 14.5787V21.0003C16 22.6571 14.6569 24.0003 13 24.0003H3C1.34315 24.0003 0 22.6571 0 21.0003V14.5787C0 13.6691 0.412681 12.8086 1.12201 12.2392L6.12201 8.22547ZM8.626 9.78512C8.26029 9.49155 7.73971 9.49155 7.374 9.78512L2.374 13.7988C2.13756 13.9886 2 14.2755 2 14.5787V21.0003C2 21.5525 2.44772 22.0003 3 22.0003H13C13.5523 22.0003 14 21.5525 14 21.0003V14.5787C14 14.2755 13.8624 13.9886 13.626 13.7988L8.626 9.78512Z"/>
</mask>
<path fill-rule="evenodd" clip-rule="evenodd" d="M6.12201 8.22547C7.21912 7.34477 8.78088 7.34477 9.87799 8.22547L14.878 12.2392C15.5873 12.8086 16 13.6691 16 14.5787V21.0003C16 22.6571 14.6569 24.0003 13 24.0003H3C1.34315 24.0003 0 22.6571 0 21.0003V14.5787C0 13.6691 0.412681 12.8086 1.12201 12.2392L6.12201 8.22547ZM8.626 9.78512C8.26029 9.49155 7.73971 9.49155 7.374 9.78512L2.374 13.7988C2.13756 13.9886 2 14.2755 2 14.5787V21.0003C2 21.5525 2.44772 22.0003 3 22.0003H13C13.5523 22.0003 14 21.5525 14 21.0003V14.5787C14 14.2755 13.8624 13.9886 13.626 13.7988L8.626 9.78512Z" fill="#A5AAB2"/>
<path d="M9.87799 8.22547L11.13 6.66582L11.13 6.66582L9.87799 8.22547ZM6.12201 8.22547L7.374 9.78512L7.374 9.78512L6.12201 8.22547ZM14.878 12.2392L13.626 13.7988L13.626 13.7988L14.878 12.2392ZM1.12201 12.2392L-0.12999 10.6795L-0.129991 10.6795L1.12201 12.2392ZM7.374 9.78512L8.626 11.3448L8.626 11.3448L7.374 9.78512ZM8.626 9.78512L9.87799 8.22547L9.87799 8.22547L8.626 9.78512ZM2.374 13.7988L3.626 15.3585L3.626 15.3585L2.374 13.7988ZM13.626 13.7988L14.878 12.2392L14.878 12.2392L13.626 13.7988ZM11.13 6.66582C9.30146 5.19798 6.69854 5.19798 4.87001 6.66582L7.374 9.78512C7.73971 9.49155 8.26029 9.49155 8.626 9.78512L11.13 6.66582ZM16.13 10.6795L11.13 6.66582L8.626 9.78512L13.626 13.7988L16.13 10.6795ZM18 14.5787C18 13.0627 17.3122 11.6285 16.13 10.6795L13.626 13.7988C13.8624 13.9886 14 14.2755 14 14.5787H18ZM18 21.0003V14.5787H14V21.0003H18ZM13 26.0003C15.7614 26.0003 18 23.7617 18 21.0003H14C14 21.5525 13.5523 22.0003 13 22.0003V26.0003ZM3 26.0003H13V22.0003H3V26.0003ZM-2 21.0003C-2 23.7617 0.238577 26.0003 3 26.0003V22.0003C2.44771 22.0003 2 21.5525 2 21.0003H-2ZM-2 14.5787V21.0003H2V14.5787H-2ZM-0.129991 10.6795C-1.3122 11.6285 -2 13.0627 -2 14.5787H2C2 14.2755 2.13756 13.9886 2.374 13.7988L-0.129991 10.6795ZM4.87001 6.66582L-0.12999 10.6795L2.374 13.7988L7.374 9.78512L4.87001 6.66582ZM8.626 11.3448C8.26029 11.6383 7.73971 11.6383 7.374 11.3448L9.87799 8.22547C8.78088 7.34477 7.21912 7.34477 6.12201 8.22547L8.626 11.3448ZM3.626 15.3585L8.626 11.3448L6.12201 8.22547L1.12201 12.2392L3.626 15.3585ZM4 14.5787C4 14.8819 3.86244 15.1687 3.626 15.3585L1.12201 12.2392C0.412681 12.8086 0 13.6691 0 14.5787H4ZM4 21.0003V14.5787H0V21.0003H4ZM3 20.0003C3.55229 20.0003 4 20.448 4 21.0003H0C0 22.6571 1.34314 24.0003 3 24.0003V20.0003ZM13 20.0003H3V24.0003H13V20.0003ZM12 21.0003C12 20.448 12.4477 20.0003 13 20.0003V24.0003C14.6569 24.0003 16 22.6571 16 21.0003H12ZM12 14.5787V21.0003H16V14.5787H12ZM12.374 15.3585C12.1376 15.1687 12 14.8818 12 14.5787H16C16 13.6691 15.5873 12.8086 14.878 12.2392L12.374 15.3585ZM7.374 11.3448L12.374 15.3585L14.878 12.2392L9.87799 8.22547L7.374 11.3448Z" fill="#A5AAB2" mask="url(#path-1-inside-1_2607_6625)"/>
</svg>
