<svg width="16" height="32" viewBox="0 0 16 32" fill="none" xmlns="http://www.w3.org/2000/svg">
<mask id="path-1-inside-1_2615_6630" fill="white">
<path fill-rule="evenodd" clip-rule="evenodd" d="M4.04297 25.7124L10.043 5.7124L11.9586 6.2871L5.95862 26.2871L4.04297 25.7124Z"/>
</mask>
<path fill-rule="evenodd" clip-rule="evenodd" d="M4.04297 25.7124L10.043 5.7124L11.9586 6.2871L5.95862 26.2871L4.04297 25.7124Z" fill="#A5AAB2"/>
<path d="M10.043 5.7124L10.6177 3.79675L8.70201 3.22205L8.12732 5.13771L10.043 5.7124ZM4.04297 25.7124L2.12732 25.1377L1.55262 27.0534L3.46827 27.6281L4.04297 25.7124ZM11.9586 6.2871L13.8743 6.86179L14.449 4.94614L12.5333 4.37145L11.9586 6.2871ZM5.95862 26.2871L5.38393 28.2028L7.29958 28.7774L7.87427 26.8618L5.95862 26.2871ZM8.12732 5.13771L2.12732 25.1377L5.95862 26.2871L11.9586 6.2871L8.12732 5.13771ZM12.5333 4.37145L10.6177 3.79675L9.46827 7.62805L11.3839 8.20275L12.5333 4.37145ZM7.87427 26.8618L13.8743 6.86179L10.043 5.7124L4.04297 25.7124L7.87427 26.8618ZM3.46827 27.6281L5.38393 28.2028L6.53332 24.3714L4.61766 23.7967L3.46827 27.6281Z" fill="#A5AAB2" mask="url(#path-1-inside-1_2615_6630)"/>
</svg>
