<svg width="32" height="32" viewBox="0 0 32 32" fill="none" xmlns="http://www.w3.org/2000/svg">
<path fill-rule="evenodd" clip-rule="evenodd" d="M21.7755 6.89907C23.4337 7.25955 24.7289 8.55475 25.0894 10.213C25.4026 11.6538 24.9617 13.155 23.9191 14.1976L21.7353 16.3814L21.0282 17.0885L22.4424 18.5027L23.1495 17.7956L25.3333 15.6118C26.8571 14.088 27.5015 11.8939 27.0437 9.78811C26.5169 7.36456 24.6239 5.47157 22.2003 4.94471C20.0945 4.48693 17.9004 5.13134 16.3766 6.65515L14.1929 8.83888L13.4858 9.54599L14.9 10.9602L15.6071 10.2531L17.7908 8.06937C18.8334 7.02675 20.3346 6.58584 21.7755 6.89907ZM21.1966 12.2061L21.9037 11.499L20.4895 10.0847L19.7824 10.7918L17.56 13.0142L17.5599 13.0141L16.8528 13.7212L10.7918 19.7821L10.0847 20.4892L11.499 21.9034L12.2061 21.1963L14.4284 18.974L14.4286 18.9741L15.1357 18.267L21.1966 12.2061ZM6.89907 21.7752C7.25955 23.4334 8.55475 24.7286 10.213 25.0891C11.6538 25.4023 13.155 24.9614 14.1976 23.9188L16.3814 21.7351L17.0885 21.028L18.5027 22.4422L17.7956 23.1493L15.6118 25.333C14.088 26.8568 11.8939 27.5013 9.78811 27.0435C7.36456 26.5166 5.47157 24.6236 4.94471 22.2001C4.48693 20.0943 5.13134 17.9002 6.65515 16.3763L8.83888 14.1926L9.54599 13.4855L10.9602 14.8997L10.2531 15.6068L8.06937 17.7906C7.02675 18.8332 6.58584 20.3344 6.89907 21.7752Z" fill="#969CA2"/>
</svg>
