<svg width="32" height="32" viewBox="0 0 32 32" fill="none" xmlns="http://www.w3.org/2000/svg">
<path fill-rule="evenodd" clip-rule="evenodd" d="M7.53516 6H11H21H24.4649C23.7733 4.8044 22.4806 4 21 4H11C9.51946 4 8.22678 4.8044 7.53516 6ZM9 8C6.23858 8 4 10.2386 4 13V21C4 24.866 7.13401 28 11 28H21C24.866 28 28 24.866 28 21V13C28 10.2386 25.7614 8 23 8H9ZM6 13C6 11.3431 7.34315 10 9 10H23C24.6569 10 26 11.3431 26 13V21C26 23.7614 23.7614 26 21 26H11C8.23858 26 6 23.7614 6 21V13ZM9 21H10H18H19V23H18H10H9V21ZM11 15H21V17H11V15ZM9 15C9 13.8954 9.89543 13 11 13H21C22.1046 13 23 13.8954 23 15V17C23 18.1046 22.1046 19 21 19H11C9.89543 19 9 18.1046 9 17V15Z" fill="#A5AAB2"/>
</svg>
