<svg width="32" height="32" viewBox="0 0 32 32" fill="none" xmlns="http://www.w3.org/2000/svg">
<path fill-rule="evenodd" clip-rule="evenodd" d="M12.4998 10.5C12.4998 8.567 14.0668 7 15.9998 7C17.9328 7 19.4998 8.567 19.4998 10.5C19.4998 12.433 17.9328 14 15.9998 14C14.0668 14 12.4998 12.433 12.4998 10.5ZM15.9998 5C12.9623 5 10.4998 7.46243 10.4998 10.5C10.4998 13.5376 12.9623 16 15.9998 16C19.0374 16 21.4998 13.5376 21.4998 10.5C21.4998 7.46243 19.0374 5 15.9998 5ZM7.52334 22.7967C9.92265 21.0381 12.8815 20 16.0857 20C19.2899 20 22.2487 21.0381 24.648 22.7967C25.2216 23.2171 25.2568 23.7055 25.0724 24.1064C24.864 24.5596 24.3118 25 23.4886 25H8.6827C7.85951 25 7.30733 24.5596 7.09889 24.1064C6.9145 23.7055 6.94976 23.2171 7.52334 22.7967ZM16.0857 18C12.4421 18 9.07169 19.1822 6.34102 21.1836C4.98938 22.1743 4.70641 23.6908 5.28184 24.9421C5.83323 26.141 7.11892 27 8.6827 27H23.4886C25.0524 27 26.3381 26.141 26.8895 24.9421C27.4649 23.6908 27.182 22.1743 25.8303 21.1836C23.0996 19.1822 19.7292 18 16.0857 18Z" fill="#A5AAB2"/>
</svg>
