<svg width="32" height="32" viewBox="0 0 32 32" fill="none" xmlns="http://www.w3.org/2000/svg">
<path fill-rule="evenodd" clip-rule="evenodd" d="M15.6766 6.69506C14.2492 5.77743 12.4175 5.77743 10.9901 6.69506C9.74975 7.4924 9 8.86569 9 10.3402V18.4894C9 20.8712 10.2111 23.0896 12.2147 24.3776C14.5206 25.86 17.4795 25.86 19.7853 24.3776C21.7889 23.0896 23 20.8712 23 18.4894V10.857V9.857H25V10.857V18.4894C25 21.5518 23.4428 24.404 20.8668 26.06C17.9022 27.9659 14.0979 27.9659 11.1332 26.06C8.55718 24.404 7 21.5518 7 18.4894V10.3402C7 8.18517 8.09579 6.17804 9.90854 5.01271C11.9948 3.67155 14.6719 3.67155 16.7581 5.01271C18.5709 6.17804 19.6667 8.18517 19.6667 10.3402V17.9726C19.6667 19.2202 19.0323 20.3822 17.9828 21.0569C16.775 21.8333 15.2251 21.8333 14.0172 21.0569C12.9677 20.3822 12.3333 19.2202 12.3333 17.9726V10.857V9.857H14.3333V10.857V17.9726C14.3333 18.5397 14.6217 19.0679 15.0987 19.3745C15.6478 19.7275 16.3523 19.7275 16.9013 19.3745C17.3783 19.0679 17.6667 18.5397 17.6667 17.9726V10.3402C17.6667 8.86569 16.9169 7.4924 15.6766 6.69506Z" fill="#A5AAB2"/>
</svg>
