<svg width="32" height="32" viewBox="0 0 32 32" fill="none" xmlns="http://www.w3.org/2000/svg">
<path fill-rule="evenodd" clip-rule="evenodd" d="M16.9994 10C16.9994 8.34315 18.3426 7 19.9994 7C21.6563 7 22.9994 8.34315 22.9994 10C22.9994 11.6569 21.6563 13 19.9994 13C18.3426 13 16.9994 11.6569 16.9994 10ZM19.9994 5C17.238 5 14.9994 7.23858 14.9994 10C14.9994 12.7614 17.238 15 19.9994 15C22.7608 15 24.9994 12.7614 24.9994 10C24.9994 7.23858 22.7608 5 19.9994 5ZM11.7074 16.3161L13.1665 16.3161L19.9369 23.5379L22.7699 20.516L24.229 20.516L28.729 25.316L29.4129 26.0455L27.9538 27.4134L27.2699 26.6838L23.4994 22.662L20.6665 25.6839L19.2074 25.6839L12.4369 18.4621L4.72895 26.6838L4.045 27.4134L2.58594 26.0455L3.26988 25.316L11.7074 16.3161Z" fill="#A5AAB2"/>
</svg>
