<svg width="32" height="32" viewBox="0 0 32 32" fill="none" xmlns="http://www.w3.org/2000/svg">
<path fill-rule="evenodd" clip-rule="evenodd" d="M11 3V7C11 7.87154 11.5575 8.61287 12.3353 8.88688C13.4332 8.32007 14.6792 8 16 8C17.3208 8 18.5668 8.32007 19.6647 8.88688C20.4425 8.61287 21 7.87154 21 7V3H23V7C23 8.28113 22.3977 9.42158 21.4608 10.1537C22.5771 11.1967 23.3943 12.5557 23.7701 14.088C25.0913 13.435 26 12.0736 26 10.5V8H28V10.5C28 13.1124 26.3304 15.3349 24 16.1586V19.6C26.2822 20.0633 28 22.081 28 24.5V28H26V24.5C26 23.1334 25.0862 21.9802 23.8363 21.6181C23.0881 25.2607 19.8639 28 16 28C12.1361 28 8.91194 25.2607 8.16373 21.6181C6.91381 21.9802 6 23.1334 6 24.5V28H4V24.5C4 22.081 5.71776 20.0633 8 19.6V16.1586C5.66962 15.3349 4 13.1124 4 10.5V8H6V10.5C6 12.0736 6.90866 13.435 8.22992 14.088C8.6057 12.5557 9.42295 11.1967 10.5392 10.1537C9.60228 9.42158 9 8.28113 9 7V3H11ZM10 16V16.5V20C10 22.973 12.1623 25.441 15 25.917V17.6594L10.0186 15.5245C10.0063 15.6814 10 15.84 10 16ZM22 16.5V16C22 15.84 21.9937 15.6814 21.9814 15.5245L17 17.6594V25.917C19.8377 25.441 22 22.973 22 20V16.5ZM13 11C12.8988 11 12.7984 10.9962 12.699 10.9888C11.747 11.6172 10.9846 12.5096 10.5161 13.5618L16 15.912L21.4839 13.5618C21.0154 12.5096 20.253 11.6172 19.301 10.9888C19.2016 10.9962 19.1012 11 19 11V10.8027C18.1175 10.2922 17.0929 10 16 10C14.9071 10 13.8825 10.2922 13 10.8027V11Z" fill="#A5AAB2"/>
</svg>
