<svg width="32" height="32" viewBox="0 0 32 32" fill="none" xmlns="http://www.w3.org/2000/svg">
<path fill-rule="evenodd" clip-rule="evenodd" d="M11 6H7.53516C8.22678 4.8044 9.51946 4 11 4H21C22.4806 4 23.7733 4.8044 24.4649 6H21H11ZM24.9981 7.87472V8.41522C24.3861 8.14814 23.7104 8 23 8H9C6.23858 8 4 10.2386 4 13V21C4 24.866 7.13401 28 11 28H21C24.866 28 28 24.866 28 21V13C28 10.9497 26.7659 9.18762 25 8.41606V8C25 7.95809 24.9994 7.91632 24.9981 7.87472ZM23 10C23.7674 10 24.4676 10.2882 24.9981 10.7622V14.1085C24.9994 14.0725 25 14.0363 25 14V10.7639C25.6138 11.3132 26 12.1115 26 13V21C26 23.7614 23.7614 26 21 26H11C8.23858 26 6 23.7614 6 21V13C6 11.3431 7.34315 10 9 10H23ZM10 13H9V15H10H22H23V13H22H10ZM9 17H10H19H20V19H19H10H9V17ZM10 21H9V23H10H15H16V21H15H10Z" fill="#A5AAB2"/>
</svg>
