<svg width="32" height="32" viewBox="0 0 32 32" fill="none" xmlns="http://www.w3.org/2000/svg">
<path fill-rule="evenodd" clip-rule="evenodd" d="M21.9991 12.9092C23.6058 12.9092 24.9082 11.6067 24.9082 10.0001C24.9082 8.39344 23.6058 7.091 21.9991 7.091C20.3925 7.091 19.09 8.39344 19.09 10.0001C19.09 11.6067 20.3925 12.9092 21.9991 12.9092ZM27.09 10.0001C27.09 12.8117 24.8107 15.091 21.9991 15.091C19.1875 15.091 16.9082 12.8117 16.9082 10.0001C16.9082 7.18846 19.1875 4.90918 21.9991 4.90918C24.8107 4.90918 27.09 7.18846 27.09 10.0001ZM12.9082 22.0001C12.9082 23.6067 11.6058 24.9092 9.99911 24.9092C8.39247 24.9092 7.09002 23.6067 7.09002 22.0001C7.09002 20.3934 8.39247 19.091 9.99911 19.091C11.6058 19.091 12.9082 20.3934 12.9082 22.0001ZM9.99911 27.091C12.8107 27.091 15.09 24.8117 15.09 22.0001C15.09 19.1885 12.8107 16.9092 9.99911 16.9092C7.18748 16.9092 4.9082 19.1885 4.9082 22.0001C4.9082 24.8117 7.18748 27.091 9.99911 27.091ZM24.9082 22.0001C24.9082 23.6067 23.6058 24.9092 21.9991 24.9092C20.3925 24.9092 19.09 23.6067 19.09 22.0001C19.09 20.3934 20.3925 19.091 21.9991 19.091C23.6058 19.091 24.9082 20.3934 24.9082 22.0001ZM21.9991 27.091C24.8107 27.091 27.09 24.8117 27.09 22.0001C27.09 19.1885 24.8107 16.9092 21.9991 16.9092C19.1875 16.9092 16.9082 19.1885 16.9082 22.0001C16.9082 24.8117 19.1875 27.091 21.9991 27.091ZM12.9082 10.0001C12.9082 11.6067 11.6058 12.9092 9.99911 12.9092C8.39247 12.9092 7.09002 11.6067 7.09002 10.0001C7.09002 8.39344 8.39247 7.091 9.99911 7.091C11.6058 7.091 12.9082 8.39344 12.9082 10.0001ZM9.99911 15.091C12.8107 15.091 15.09 12.8117 15.09 10.0001C15.09 7.18846 12.8107 4.90918 9.99911 4.90918C7.18748 4.90918 4.9082 7.18846 4.9082 10.0001C4.9082 12.8117 7.18748 15.091 9.99911 15.091Z" fill="#A5AAB2"/>
</svg>
