<svg width="32" height="32" viewBox="0 0 32 32" fill="none" xmlns="http://www.w3.org/2000/svg">
<path fill-rule="evenodd" clip-rule="evenodd" d="M8 8C8 5.79086 9.79086 4 12 4H23C25.2091 4 27 5.79086 27 8V24C27 26.2091 25.2091 28 23 28H12C9.79086 28 8 26.2091 8 24V22H10V24C10 25.1046 10.8954 26 12 26H23C24.1046 26 25 25.1046 25 24V8C25 6.89543 24.1046 6 23 6H12C10.8954 6 10 6.89543 10 8V10H8V8ZM14.7071 9.29289L20.7071 15.2929V16.7071L14.7071 22.7071L13.2929 21.2929L17.5858 17H2V15H17.5858L13.2929 10.7071L14.7071 9.29289Z" fill="#A5AAB2"/>
</svg>
