<svg width="32" height="32" viewBox="0 0 32 32" fill="none" xmlns="http://www.w3.org/2000/svg">
<path fill-rule="evenodd" clip-rule="evenodd" d="M13.9999 5H17.9999V3H13.9999V5ZM5.9999 17C5.9999 11.4772 10.477 7 15.9999 7C21.5227 7 25.9999 11.4772 25.9999 17V17.212C25.9999 18.8902 26.3906 20.5454 27.1412 22.0465L27.8943 23.5528L26.9999 25H21.9999V26V26.4142L21.707 26.7071L19.707 28.7071L19.4141 29H18.9999H12.9999H12.5857L12.2928 28.7071L10.2928 26.7071L9.9999 26.4142V26V25H4.9999L4.10547 23.5528L4.85863 22.0465C5.60916 20.5454 5.9999 18.8902 5.9999 17.212V17ZM11.9999 25.5858V25H19.9999V25.5858L18.5857 27H13.4141L11.9999 25.5858ZM15.9999 9C11.5816 9 7.9999 12.5817 7.9999 17V17.212C7.9999 19.2007 7.53687 21.1621 6.64748 22.9409L6.61793 23H25.3819L25.3523 22.9409C24.4629 21.1621 23.9999 19.2007 23.9999 17.212V17C23.9999 12.5817 20.4182 9 15.9999 9Z" fill="#A5AAB2"/>
</svg>
