<svg width="32" height="32" viewBox="0 0 32 32" fill="none" xmlns="http://www.w3.org/2000/svg">
<path fill-rule="evenodd" clip-rule="evenodd" d="M14 5H18V3H14V5ZM26.009 17.6554C26.0716 19.181 26.4568 20.6778 27.1412 22.0465L27.8943 23.5528L26.9999 25H22V26V26.4142L21.7071 26.7071L19.7071 28.7071L19.4142 29H19H13H12.5858L12.2929 28.7071L10.2929 26.7071L10 26.4142V26V25H4.9999L4.10547 23.5528L4.85863 22.0465C5.60916 20.5454 5.9999 18.8902 5.9999 17.212V17C5.9999 11.4772 10.477 7 15.9999 7C17.3363 7 18.6116 7.26217 19.7769 7.73788C19.2864 8.22394 18.8793 8.79408 18.5791 9.42489C17.7699 9.14943 16.9023 9 15.9999 9C11.5816 9 7.9999 12.5817 7.9999 17V17.212C7.9999 19.2007 7.53687 21.1621 6.64748 22.9409L6.61793 23H25.3819L25.3523 22.9409C24.5807 21.3976 24.13 19.7168 24.0242 18C24.7201 17.9972 25.3881 17.876 26.009 17.6554ZM12 25H20V25.5858L18.5858 27H13.4142L12 25.5858V25Z" fill="#A5AAB2"/>
<circle cx="24" cy="12" r="4" fill="#BE3E3E"/>
</svg>
