<svg viewBox="0 0 256 256" fill="none" xmlns="http://www.w3.org/2000/svg">
<path class="color-1" d="M212 204.185C212 208.488 208.591 212.043 204.289 211.987C118.241 210.884 45.114 137.845 44.0126 51.7114C43.9576 47.4092 47.5121 44 51.8147 44H96.1017C100.666 44 104.275 47.8167 104.434 52.378C104.743 61.2019 106.184 69.9811 108.742 78.4337C109.639 81.3969 108.937 84.6448 106.747 86.8339L94.0027 99.5787C91.6225 101.959 90.9651 105.586 92.524 108.57C104.364 131.228 122.825 149.88 145.339 161.957C148.332 163.562 152.001 162.917 154.402 160.516L166.956 147.962C169.173 145.745 172.472 145.055 175.461 146.001C184.546 148.876 194.027 150.456 203.551 150.715C208.14 150.84 212 154.46 212 159.051V204.185Z" fill="black"/>
</svg>
