<svg viewBox="0 0 256 256" fill="none" xmlns="http://www.w3.org/2000/svg">
<path class="color-2" d="M224 200C212.954 200 204 191.046 204 180V76C204 64.9543 212.954 56 224 56C235.046 56 244 64.9543 244 76V180C244 191.046 235.046 200 224 200Z" fill="#888888"/>
<path class="color-2" d="M32 200C20.9543 200 12 191.046 12 180L12 76C12 64.9543 20.9543 56 32 56C43.0457 56 52 64.9543 52 76L52 180C52 191.046 43.0457 200 32 200Z" fill="#888888"/>
<path class="color-1" d="M100 224C88.9543 224 80 215.046 80 204L80 52C80 40.9543 88.9543 32 100 32L156 32C167.046 32 176 40.9543 176 52L176 204C176 215.046 167.046 224 156 224H100Z" fill="black"/>
</svg>
