<?xml version="1.0" encoding="UTF-8"?>
<!DOCTYPE svg  PUBLIC '-//W3C//DTD SVG 1.1//EN'  'http://www.w3.org/Graphics/SVG/1.1/DTD/svg11.dtd'>
<svg version="1.1" xmlns="http://www.w3.org/2000/svg">
<defs>
<font id="KyivTypeSans-Light" horiz-adv-x="700">
<font-face font-family="KyivType_Sans_Light" font-weight="300" ascent="800" bbox="-489 -245 1180 1027" cap-height="700" descent="-200" panose-1="0 0 4 0 0 0 0 0 0 0" stemh="57" stemv="60" underline-position="-100" underline-thickness="50" unicode-range="U+000D-2605" units-per-em="1000" x-height="500"/>
<missing-glyph d="M486 -40l22 250l-194 -173l-171 51l48 172h297l-368 113v173l160 41l220 -263l-126 353l158 133l158 -133l-126 -353l220 263l160 -41v-173l-368 -113h297l48 -172l-171 -51l-194 173l22 -250h-92z" horiz-adv-x="1064"/>
<glyph d="M486 -40l22 250l-194 -173l-171 51l48 172h297l-368 113v173l160 41l220 -263l-126 353l158 133l158 -133l-126 -353l220 263l160 -41v-173l-368 -113h297l48 -172l-171 -51l-194 173l22 -250h-92z" glyph-name=".notdef" horiz-adv-x="1064"/>
<glyph glyph-name=".null" horiz-adv-x="480"/>
<glyph glyph-name="CR" horiz-adv-x="250" unicode="
"/>
<glyph glyph-name="space" horiz-adv-x="250" unicode=" "/>
<glyph d="M184 257h325l-162 390h-1zM15 0l293 700h79l293 -700h-65l-86 206h-365l-86 -206h-63z" glyph-name="A" horiz-adv-x="695" unicode="A"/>
<glyph d="M184 257h325l-162 390h-1zM15 0l293 700h79l293 -700h-65l-86 206h-365l-86 -206h-63zM332 785l66 160h54l-67 -160h-53z" glyph-name="Aacute" horiz-adv-x="695" unicode="Á"/>
<glyph d="M184 257h325l-162 390h-1zM15 0l293 700h79l293 -700h-65l-86 206h-365l-86 -206h-63zM348 776c-108 0 -178 65 -178 161v8h47v-8c0 -71 50 -116 131 -116s131 45 131 116v8h48v-8c0 -96 -71 -161 -179 -161z" glyph-name="Abreve" horiz-adv-x="695" unicode="Ă"/>
<glyph d="M184 257h325l-162 390h-1zM15 0l293 700h79l293 -700h-65l-86 206h-365l-86 -206h-63zM514 785h-53l-113 123l-114 -123h-52l144 160h44z" glyph-name="Acircumflex" horiz-adv-x="695" unicode="Â"/>
<glyph d="M184 257h325l-162 390h-1zM15 0l293 700h79l293 -700h-65l-86 206h-365l-86 -206h-63zM411 777l-31 168h72l-32 -168h-9zM275 777l-31 168h72l-32 -168h-9z" glyph-name="Adieresis" horiz-adv-x="695" unicode="Ä"/>
<glyph d="M184 257h325l-162 390h-1zM15 0l293 700h79l293 -700h-65l-86 206h-365l-86 -206h-63zM365 785h-54l-67 160h55z" glyph-name="Agrave" horiz-adv-x="695" unicode="À"/>
<glyph d="M184 257h325l-162 390h-1zM15 0l293 700h79l293 -700h-65l-86 206h-365l-86 -206h-63zM188 894h320v-48h-320v48z" glyph-name="Amacron" horiz-adv-x="695" unicode="Ā"/>
<glyph d="M680 -85l-66 -160h-54l67 160h53zM184 257h325l-162 390h-1zM15 0l293 700h79l293 -700h-65l-86 206h-365l-86 -206h-63z" glyph-name="Aogonek" horiz-adv-x="695" unicode="Ą"/>
<glyph d="M184 257h325l-162 390h-1zM15 0l293 700h79l293 -700h-65l-86 206h-365l-86 -206h-63zM348 818c46 0 83 38 83 83c0 46 -37 84 -83 84c-47 0 -83 -37 -83 -84c0 -46 36 -83 83 -83zM348 776c-70 0 -125 56 -125 125s55 126 125 126c69 0 125 -57 125 -126 s-56 -125 -125 -125z" glyph-name="Aring" horiz-adv-x="695" unicode="Å"/>
<glyph d="M184 257h325l-162 390h-1zM15 0l293 700h79l293 -700h-65l-86 206h-365l-86 -206h-63zM159 821c0 58 42 92 95 92c71 0 123 -49 183 -49c30 0 55 21 55 50h45c0 -58 -42 -92 -95 -92c-71 0 -123 49 -183 49c-30 0 -55 -21 -55 -50h-45z" glyph-name="Atilde" horiz-adv-x="695" unicode="Ã"/>
<glyph d="M181 257h329l-163 390h-2zM655 54h333v-54h-374l-87 206h-363l-87 -206h-62l293 700h636v-54h-531l110 -270h332v-51h-311z" glyph-name="AE" horiz-adv-x="1022" unicode="Æ"/>
<glyph d="M188 54h228c109 0 173 51 173 135s-67 135 -173 135h-228v-270zM188 378h203c108 0 172 51 172 134c0 84 -64 134 -172 134h-203v-268zM128 0v700h263c143 0 231 -69 231 -183c0 -76 -40 -132 -116 -159v-5c93 -24 143 -84 143 -168c0 -114 -89 -185 -231 -185h-290z" glyph-name="B" horiz-adv-x="708" unicode="B"/>
<glyph d="M422 -15c-208 0 -358 152 -358 365s149 365 358 365c182 0 315 -114 338 -286h-60c-24 140 -130 229 -277 229c-175 0 -298 -126 -298 -308c0 -181 123 -308 298 -308c148 0 253 89 277 229h60c-24 -172 -157 -286 -338 -286z" glyph-name="C" horiz-adv-x="818" unicode="C"/>
<glyph d="M422 -15c-208 0 -358 152 -358 365s149 365 358 365c182 0 315 -114 338 -286h-60c-24 140 -130 229 -277 229c-175 0 -298 -126 -298 -308c0 -181 123 -308 298 -308c148 0 253 89 277 229h60c-24 -172 -157 -286 -338 -286zM407 785l66 160h54l-67 -160h-53z" glyph-name="Cacute" horiz-adv-x="818" unicode="Ć"/>
<glyph d="M422 -15c-208 0 -358 152 -358 365s149 365 358 365c182 0 315 -114 338 -286h-60c-24 140 -130 229 -277 229c-175 0 -298 -126 -298 -308c0 -181 123 -308 298 -308c148 0 253 89 277 229h60c-24 -172 -157 -286 -338 -286zM257 945h53l113 -123l114 123h52l-144 -160 h-44z" glyph-name="Ccaron" horiz-adv-x="818" unicode="Č"/>
<glyph d="M449 -85l-66 -160h-54l67 160h53zM422 -15c-208 0 -358 152 -358 365s149 365 358 365c182 0 315 -114 338 -286h-60c-24 140 -130 229 -277 229c-175 0 -298 -126 -298 -308c0 -181 123 -308 298 -308c148 0 253 89 277 229h60c-24 -172 -157 -286 -338 -286z" glyph-name="Ccedilla" horiz-adv-x="818" unicode="Ç"/>
<glyph d="M422 -15c-208 0 -358 152 -358 365s149 365 358 365c182 0 315 -114 338 -286h-60c-24 140 -130 229 -277 229c-175 0 -298 -126 -298 -308c0 -181 123 -308 298 -308c148 0 253 89 277 229h60c-24 -172 -157 -286 -338 -286zM418 777l-35 168h80l-35 -168h-10z" glyph-name="Cdotaccent" horiz-adv-x="818" unicode="Ċ"/>
<glyph d="M188 57h146c187 0 311 117 311 293s-124 293 -311 293h-146v-586zM128 0v700h206c221 0 372 -142 372 -350s-151 -350 -372 -350h-206z" glyph-name="D" horiz-adv-x="770" unicode="D"/>
<glyph d="M334 57c187 0 311 117 311 293s-124 293 -311 293h-146v-269h166v-48h-166v-269h146zM334 700c221 0 372 -142 372 -350s-151 -350 -372 -350h-206v326h-79v48h79v326h206z" glyph-name="Eth" horiz-adv-x="770" unicode="Ð"/>
<glyph d="M188 57h146c187 0 311 117 311 293s-124 293 -311 293h-146v-586zM128 0v700h206c221 0 372 -142 372 -350s-151 -350 -372 -350h-206zM170 945h53l113 -123l114 123h52l-144 -160h-44z" glyph-name="Dcaron" horiz-adv-x="770" unicode="Ď"/>
<glyph d="M334 57c187 0 311 117 311 293s-124 293 -311 293h-146v-269h166v-48h-166v-269h146zM334 700c221 0 372 -142 372 -350s-151 -350 -372 -350h-206v326h-79v48h79v326h206z" glyph-name="Dcroat" horiz-adv-x="770" unicode="Đ"/>
<glyph d="M128 0v700h402v-54h-343v-269h252v-54h-252v-269h387v-54h-446z" glyph-name="E" horiz-adv-x="608" unicode="E"/>
<glyph d="M128 0v700h402v-54h-343v-269h252v-54h-252v-269h387v-54h-446zM313 785l66 160h54l-67 -160h-53z" glyph-name="Eacute" horiz-adv-x="608" unicode="É"/>
<glyph d="M128 0v700h402v-54h-343v-269h252v-54h-252v-269h387v-54h-446zM163 945h53l113 -123l114 123h52l-144 -160h-44z" glyph-name="Ecaron" horiz-adv-x="608" unicode="Ě"/>
<glyph d="M128 0v700h402v-54h-343v-269h252v-54h-252v-269h387v-54h-446zM495 785h-53l-113 123l-114 -123h-52l144 160h44z" glyph-name="Ecircumflex" horiz-adv-x="608" unicode="Ê"/>
<glyph d="M128 0v700h402v-54h-343v-269h252v-54h-252v-269h387v-54h-446zM392 777l-31 168h72l-32 -168h-9zM256 777l-31 168h72l-32 -168h-9z" glyph-name="Edieresis" horiz-adv-x="608" unicode="Ë"/>
<glyph d="M128 0v700h402v-54h-343v-269h252v-54h-252v-269h387v-54h-446zM324 777l-35 168h80l-35 -168h-10z" glyph-name="Edotaccent" horiz-adv-x="608" unicode="Ė"/>
<glyph d="M128 0v700h402v-54h-343v-269h252v-54h-252v-269h387v-54h-446zM346 785h-54l-67 160h55z" glyph-name="Egrave" horiz-adv-x="608" unicode="È"/>
<glyph d="M128 0v700h402v-54h-343v-269h252v-54h-252v-269h387v-54h-446zM169 894h320v-48h-320v48z" glyph-name="Emacron" horiz-adv-x="608" unicode="Ē"/>
<glyph d="M575 -85l-66 -160h-54l67 160h53zM128 0v700h402v-54h-343v-269h252v-54h-252v-269h387v-54h-446z" glyph-name="Eogonek" horiz-adv-x="608" unicode="Ę"/>
<glyph d="M128 0v700h420v-57h-360v-265h271v-56h-271v-322h-60z" glyph-name="F" horiz-adv-x="558" unicode="F"/>
<glyph d="M419 -15c-206 0 -355 152 -355 365c0 214 150 365 360 365c177 0 304 -107 334 -270h-62c-27 131 -130 214 -272 214c-177 0 -299 -127 -299 -310s124 -311 300 -311c158 0 275 109 284 262v12h-272v52h326v-364h-52v165c-48 -112 -155 -180 -292 -180z" glyph-name="G" horiz-adv-x="843" unicode="G"/>
<glyph d="M419 -15c-206 0 -355 152 -355 365c0 214 150 365 360 365c177 0 304 -107 334 -270h-62c-27 131 -130 214 -272 214c-177 0 -299 -127 -299 -310s124 -311 300 -311c158 0 275 109 284 262v12h-272v52h326v-364h-52v165c-48 -112 -155 -180 -292 -180zM424 776 c-108 0 -178 65 -178 161v8h47v-8c0 -71 50 -116 131 -116s131 45 131 116v8h48v-8c0 -96 -71 -161 -179 -161z" glyph-name="Gbreve" horiz-adv-x="843" unicode="Ğ"/>
<glyph d="M445 -245h-33c20 29 38 67 40 94h-3c-24 0 -38 18 -38 35c0 23 18 41 43 41s44 -16 44 -46c0 -43 -28 -98 -53 -124zM419 -15c-206 0 -355 152 -355 365c0 214 150 365 360 365c177 0 304 -107 334 -270h-62c-27 131 -130 214 -272 214c-177 0 -299 -127 -299 -310 s124 -311 300 -311c158 0 275 109 284 262v12h-272v52h326v-364h-52v165c-48 -112 -155 -180 -292 -180z" glyph-name="uni0122" horiz-adv-x="843" unicode="Ģ"/>
<glyph d="M419 -15c-206 0 -355 152 -355 365c0 214 150 365 360 365c177 0 304 -107 334 -270h-62c-27 131 -130 214 -272 214c-177 0 -299 -127 -299 -310s124 -311 300 -311c158 0 275 109 284 262v12h-272v52h326v-364h-52v165c-48 -112 -155 -180 -292 -180zM419 777l-35 168 h80l-35 -168h-10z" glyph-name="Gdotaccent" horiz-adv-x="843" unicode="Ġ"/>
<glyph d="M128 0v700h60v-322h444v322h60v-700h-60v322h-444v-322h-60z" glyph-name="H" horiz-adv-x="820" unicode="H"/>
<glyph d="M632 378v148h-444v-148h444zM767 574v-48h-75v-526h-60v322h-444v-322h-60v526h-74v48h74v126h60v-126h444v126h60v-126h75z" glyph-name="Hbar" horiz-adv-x="820" unicode="Ħ"/>
<glyph d="M128 0v700h60v-700h-60z" glyph-name="I" horiz-adv-x="316" unicode="I"/>
<glyph d="M128 0v700h60v-700h-60zM142 785l66 160h54l-67 -160h-53z" glyph-name="Iacute" horiz-adv-x="316" unicode="Í"/>
<glyph d="M128 0v700h60v-700h-60zM324 785h-53l-113 123l-114 -123h-52l144 160h44z" glyph-name="Icircumflex" horiz-adv-x="316" unicode="Î"/>
<glyph d="M128 0v700h60v-700h-60zM221 777l-31 168h72l-32 -168h-9zM85 777l-31 168h72l-32 -168h-9z" glyph-name="Idieresis" horiz-adv-x="316" unicode="Ï"/>
<glyph d="M128 0v700h60v-700h-60zM153 777l-35 168h80l-35 -168h-10z" glyph-name="Idotaccent" horiz-adv-x="316" unicode="İ"/>
<glyph d="M128 0v700h60v-700h-60zM175 785h-54l-67 160h55z" glyph-name="Igrave" horiz-adv-x="316" unicode="Ì"/>
<glyph d="M128 0v700h60v-700h-60zM-2 894h320v-48h-320v48z" glyph-name="Imacron" horiz-adv-x="316" unicode="Ī"/>
<glyph d="M189 -85l-66 -160h-54l67 160h53zM128 0v700h60v-700h-60z" glyph-name="Iogonek" horiz-adv-x="316" unicode="Į"/>
<glyph d="M283 -15c-146 0 -247 101 -247 257v44h59v-44c0 -122 76 -200 187 -200c109 0 179 78 179 200v458h60v-458c0 -156 -94 -257 -238 -257z" glyph-name="J" horiz-adv-x="632" unicode="J"/>
<glyph d="M128 0v700h60v-322h133l263 322h70l-283 -346l288 -354h-76l-263 322h-132v-322h-60z" glyph-name="K" horiz-adv-x="691" unicode="K"/>
<glyph d="M353 -245h-33c20 29 38 67 40 94h-3c-24 0 -38 18 -38 35c0 23 18 41 43 41s44 -16 44 -46c0 -43 -28 -98 -53 -124zM128 0v700h60v-322h133l263 322h70l-283 -346l288 -354h-76l-263 322h-132v-322h-60z" glyph-name="uni0136" horiz-adv-x="691" unicode="Ķ"/>
<glyph d="M128 0v700h60v-642h378v-58h-438z" glyph-name="L" horiz-adv-x="604" unicode="L"/>
<glyph d="M128 0v700h60v-642h378v-58h-438zM142 785l66 160h54l-67 -160h-53z" glyph-name="Lacute" horiz-adv-x="604" unicode="Ĺ"/>
<glyph d="M256 540v160h50l-4 -160h-46zM128 0v700h60v-642h378v-58h-438z" glyph-name="Lcaron" horiz-adv-x="604" unicode="Ľ"/>
<glyph d="M347 -245h-33c20 29 38 67 40 94h-3c-24 0 -38 18 -38 35c0 23 18 41 43 41s44 -16 44 -46c0 -43 -28 -98 -53 -124zM128 0v700h60v-642h378v-58h-438z" glyph-name="uni013B" horiz-adv-x="604" unicode="Ļ"/>
<glyph d="M188 58h378v-58h-438v294l-81 -48v56l81 47v351h60v-315l172 101v-56l-172 -101v-271z" glyph-name="Lslash" horiz-adv-x="604" unicode="Ł"/>
<glyph d="M128 0v700h99l272 -634l271 634h98v-700h-59v648l-276 -648h-71l-275 648v-648h-59z" glyph-name="M" horiz-adv-x="996" unicode="M"/>
<glyph d="M128 0v700h65l462 -614v614h57v-700h-64l-462 614v-614h-58z" glyph-name="N" horiz-adv-x="840" unicode="N"/>
<glyph d="M128 0v700h65l462 -614v614h57v-700h-64l-462 614v-614h-58zM404 785l66 160h54l-67 -160h-53z" glyph-name="Nacute" horiz-adv-x="840" unicode="Ń"/>
<glyph d="M128 0v700h65l462 -614v614h57v-700h-64l-462 614v-614h-58zM254 945h53l113 -123l114 123h52l-144 -160h-44z" glyph-name="Ncaron" horiz-adv-x="840" unicode="Ň"/>
<glyph d="M411 -245h-33c20 29 38 67 40 94h-3c-24 0 -38 18 -38 35c0 23 18 41 43 41s44 -16 44 -46c0 -43 -28 -98 -53 -124zM128 0v700h65l462 -614v614h57v-700h-64l-462 614v-614h-58z" glyph-name="uni0145" horiz-adv-x="840" unicode="Ņ"/>
<glyph d="M537 -210c-96 0 -161 52 -161 124h54v-1c0 -45 45 -75 107 -75c71 0 117 39 117 112c0 35 -10 56 -28 80l-440 584v-614h-58v700h65l462 -614v614h57v-730c0 -109 -64 -180 -175 -180z" glyph-name="Eng" horiz-adv-x="840" unicode="Ŋ"/>
<glyph d="M128 0v700h65l462 -614v614h57v-700h-64l-462 614v-614h-58zM231 821c0 58 42 92 95 92c71 0 123 -49 183 -49c30 0 55 21 55 50h45c0 -58 -42 -92 -95 -92c-71 0 -123 49 -183 49c-30 0 -55 -21 -55 -50h-45z" glyph-name="Ntilde" horiz-adv-x="840" unicode="Ñ"/>
<glyph d="M426 42c173 0 302 131 302 308s-129 308 -302 308s-301 -131 -301 -308s128 -308 301 -308zM426 -15c-207 0 -362 156 -362 365s155 365 362 365s362 -156 362 -365s-155 -365 -362 -365z" glyph-name="O" horiz-adv-x="852" unicode="O"/>
<glyph d="M426 42c173 0 302 131 302 308s-129 308 -302 308s-301 -131 -301 -308s128 -308 301 -308zM426 -15c-207 0 -362 156 -362 365s155 365 362 365s362 -156 362 -365s-155 -365 -362 -365zM410 785l66 160h54l-67 -160h-53z" glyph-name="Oacute" horiz-adv-x="852" unicode="Ó"/>
<glyph d="M426 42c173 0 302 131 302 308s-129 308 -302 308s-301 -131 -301 -308s128 -308 301 -308zM426 -15c-207 0 -362 156 -362 365s155 365 362 365s362 -156 362 -365s-155 -365 -362 -365zM592 785h-53l-113 123l-114 -123h-52l144 160h44z" glyph-name="Ocircumflex" horiz-adv-x="852" unicode="Ô"/>
<glyph d="M426 42c173 0 302 131 302 308s-129 308 -302 308s-301 -131 -301 -308s128 -308 301 -308zM426 -15c-207 0 -362 156 -362 365s155 365 362 365s362 -156 362 -365s-155 -365 -362 -365zM489 777l-31 168h72l-32 -168h-9zM353 777l-31 168h72l-32 -168h-9z" glyph-name="Odieresis" horiz-adv-x="852" unicode="Ö"/>
<glyph d="M426 42c173 0 302 131 302 308s-129 308 -302 308s-301 -131 -301 -308s128 -308 301 -308zM426 -15c-207 0 -362 156 -362 365s155 365 362 365s362 -156 362 -365s-155 -365 -362 -365zM443 785h-54l-67 160h55z" glyph-name="Ograve" horiz-adv-x="852" unicode="Ò"/>
<glyph d="M426 42c173 0 302 131 302 308s-129 308 -302 308s-301 -131 -301 -308s128 -308 301 -308zM426 -15c-207 0 -362 156 -362 365s155 365 362 365s362 -156 362 -365s-155 -365 -362 -365zM467 785l60 160h49l-61 -160h-48zM331 785l60 160h49l-61 -160h-48z" glyph-name="Ohungarumlaut" horiz-adv-x="852" unicode="Ő"/>
<glyph d="M426 42c173 0 302 131 302 308s-129 308 -302 308s-301 -131 -301 -308s128 -308 301 -308zM426 -15c-207 0 -362 156 -362 365s155 365 362 365s362 -156 362 -365s-155 -365 -362 -365zM266 894h320v-48h-320v48z" glyph-name="Omacron" horiz-adv-x="852" unicode="Ō"/>
<glyph d="M426 40c174 0 303 132 303 310c0 83 -28 155 -75 209l-418 -453c50 -42 116 -66 190 -66zM199 140l417 454c-51 41 -116 66 -190 66c-175 0 -303 -132 -303 -310c0 -83 28 -156 76 -210zM426 -15c-88 0 -167 29 -227 78l-59 -63h-68l88 96c-60 65 -96 153 -96 254 c0 209 155 365 362 365c88 0 167 -29 228 -78l58 63h68l-88 -96c60 -65 96 -153 96 -254c0 -209 -155 -365 -362 -365z" glyph-name="Oslash" horiz-adv-x="852" unicode="Ø"/>
<glyph d="M426 42c173 0 302 131 302 308s-129 308 -302 308s-301 -131 -301 -308s128 -308 301 -308zM426 -15c-207 0 -362 156 -362 365s155 365 362 365s362 -156 362 -365s-155 -365 -362 -365zM237 821c0 58 42 92 95 92c71 0 123 -49 183 -49c30 0 55 21 55 50h45 c0 -58 -42 -92 -95 -92c-71 0 -123 49 -183 49c-30 0 -55 -21 -55 -50h-45z" glyph-name="Otilde" horiz-adv-x="852" unicode="Õ"/>
<glyph d="M436 57h123v586h-123c-187 0 -311 -117 -311 -293s124 -293 311 -293zM436 0c-221 0 -372 142 -372 350s151 350 372 350h532v-54h-349v-269h264v-54h-264v-269h393v-54h-576z" glyph-name="OE" horiz-adv-x="1046" unicode="Œ"/>
<glyph d="M188 335h147c125 0 199 60 199 156c0 97 -74 156 -199 156h-147v-312zM128 0v700h206c162 0 260 -79 260 -208s-98 -208 -260 -208h-146v-284h-60z" glyph-name="P" horiz-adv-x="648" unicode="P"/>
<glyph d="M187 198h147c125 0 199 59 199 156s-74 156 -199 156h-147v-312zM128 0v700h59v-136h146c161 0 260 -79 260 -209s-99 -209 -260 -209h-146v-146h-59z" glyph-name="Thorn" horiz-adv-x="645" unicode="Þ"/>
<glyph d="M426 42c173 0 302 131 302 308s-129 308 -302 308s-301 -131 -301 -308s128 -308 301 -308zM396 -200v187c-192 13 -332 164 -332 363c0 209 155 365 362 365s362 -156 362 -365c0 -199 -140 -350 -332 -363v-187h-60z" glyph-name="Q" horiz-adv-x="852" unicode="Q"/>
<glyph d="M188 337h151c125 0 199 59 199 155s-74 155 -199 155h-151v-310zM128 0v700h210c161 0 260 -79 260 -208c0 -105 -67 -176 -179 -198l241 -294h-74l-235 285h-20h-143v-285h-60z" glyph-name="R" horiz-adv-x="680" unicode="R"/>
<glyph d="M188 337h151c125 0 199 59 199 155s-74 155 -199 155h-151v-310zM128 0v700h210c161 0 260 -79 260 -208c0 -105 -67 -176 -179 -198l241 -294h-74l-235 285h-20h-143v-285h-60zM312 785l66 160h54l-67 -160h-53z" glyph-name="Racute" horiz-adv-x="680" unicode="Ŕ"/>
<glyph d="M188 337h151c125 0 199 59 199 155s-74 155 -199 155h-151v-310zM128 0v700h210c161 0 260 -79 260 -208c0 -105 -67 -176 -179 -198l241 -294h-74l-235 285h-20h-143v-285h-60zM162 945h53l113 -123l114 123h52l-144 -160h-44z" glyph-name="Rcaron" horiz-adv-x="680" unicode="Ř"/>
<glyph d="M350 -245h-33c20 29 38 67 40 94h-3c-24 0 -38 18 -38 35c0 23 18 41 43 41s44 -16 44 -46c0 -43 -28 -98 -53 -124zM188 337h151c125 0 199 59 199 155s-74 155 -199 155h-151v-310zM128 0v700h210c161 0 260 -79 260 -208c0 -105 -67 -176 -179 -198l241 -294h-74 l-235 285h-20h-143v-285h-60z" glyph-name="uni0156" horiz-adv-x="680" unicode="Ŗ"/>
<glyph d="M343 -15c-168 0 -285 93 -302 244h59c18 -116 106 -191 243 -191c126 0 204 50 204 137c0 106 -104 127 -222 148c-124 22 -265 50 -265 194c0 127 113 198 260 198c154 0 269 -85 285 -239h-62c-15 117 -100 185 -224 185c-114 0 -198 -53 -198 -142 c0 -101 104 -119 219 -140c133 -26 269 -57 269 -201c0 -121 -99 -193 -266 -193z" glyph-name="S" horiz-adv-x="659" unicode="S"/>
<glyph d="M343 -15c-168 0 -285 93 -302 244h59c18 -116 106 -191 243 -191c126 0 204 50 204 137c0 106 -104 127 -222 148c-124 22 -265 50 -265 194c0 127 113 198 260 198c154 0 269 -85 285 -239h-62c-15 117 -100 185 -224 185c-114 0 -198 -53 -198 -142 c0 -101 104 -119 219 -140c133 -26 269 -57 269 -201c0 -121 -99 -193 -266 -193zM304 785l66 160h54l-67 -160h-53z" glyph-name="Sacute" horiz-adv-x="659" unicode="Ś"/>
<glyph d="M343 -15c-168 0 -285 93 -302 244h59c18 -116 106 -191 243 -191c126 0 204 50 204 137c0 106 -104 127 -222 148c-124 22 -265 50 -265 194c0 127 113 198 260 198c154 0 269 -85 285 -239h-62c-15 117 -100 185 -224 185c-114 0 -198 -53 -198 -142 c0 -101 104 -119 219 -140c133 -26 269 -57 269 -201c0 -121 -99 -193 -266 -193zM154 945h53l113 -123l114 123h52l-144 -160h-44z" glyph-name="Scaron" horiz-adv-x="659" unicode="Š"/>
<glyph d="M356 -85l-66 -160h-54l67 160h53zM343 -15c-168 0 -285 93 -302 244h59c18 -116 106 -191 243 -191c126 0 204 50 204 137c0 106 -104 127 -222 148c-124 22 -265 50 -265 194c0 127 113 198 260 198c154 0 269 -85 285 -239h-62c-15 117 -100 185 -224 185 c-114 0 -198 -53 -198 -142c0 -101 104 -119 219 -140c133 -26 269 -57 269 -201c0 -121 -99 -193 -266 -193z" glyph-name="Scedilla" horiz-adv-x="659" unicode="Ş"/>
<glyph d="M321 -245h-33c20 29 38 67 40 94h-3c-24 0 -38 18 -38 35c0 23 18 41 43 41s44 -16 44 -46c0 -43 -28 -98 -53 -124zM343 -15c-168 0 -285 93 -302 244h59c18 -116 106 -191 243 -191c126 0 204 50 204 137c0 106 -104 127 -222 148c-124 22 -265 50 -265 194 c0 127 113 198 260 198c154 0 269 -85 285 -239h-62c-15 117 -100 185 -224 185c-114 0 -198 -53 -198 -142c0 -101 104 -119 219 -140c133 -26 269 -57 269 -201c0 -121 -99 -193 -266 -193z" glyph-name="uni0218" horiz-adv-x="659" unicode="Ș"/>
<glyph d="M533 -15c-144 0 -251 92 -251 216h53c1 -96 83 -165 198 -165c114 0 197 74 197 174c0 96 -65 161 -166 161c-50 0 -101 -11 -142 -28l-8 -5l-11 34l272 275h-489v-647h-58v700h615v-55l-245 -249c27 13 55 20 83 20c122 -2 206 -88 206 -203c0 -132 -106 -228 -254 -228 z" glyph-name="uni1E9E" horiz-adv-x="840" unicode="ẞ"/>
<glyph d="M301 0v642h-279v58h618v-58h-279v-642h-60z" glyph-name="T" horiz-adv-x="662" unicode="T"/>
<glyph d="M640 642h-279v-276h138v-48h-138v-318h-60v318h-138v48h138v276h-279v58h618v-58z" glyph-name="Tbar" horiz-adv-x="662" unicode="Ŧ"/>
<glyph d="M301 0v642h-279v58h618v-58h-279v-642h-60zM165 945h53l113 -123l114 123h52l-144 -160h-44z" glyph-name="Tcaron" horiz-adv-x="662" unicode="Ť"/>
<glyph d="M357 -85l-66 -160h-54l67 160h53zM301 0v642h-279v58h618v-58h-279v-642h-60z" glyph-name="uni0162" horiz-adv-x="662" unicode="Ţ"/>
<glyph d="M322 -245h-33c20 29 38 67 40 94h-3c-24 0 -38 18 -38 35c0 23 18 41 43 41s44 -16 44 -46c0 -43 -28 -98 -53 -124zM301 0v642h-279v58h618v-58h-279v-642h-60z" glyph-name="uni021A" horiz-adv-x="662" unicode="Ț"/>
<glyph d="M410 -15c-182 0 -300 124 -300 314v401h60v-400c0 -159 92 -258 240 -258c147 0 239 99 239 258v400h60v-401c0 -190 -117 -314 -299 -314z" glyph-name="U" horiz-adv-x="819" unicode="U"/>
<glyph d="M410 -15c-182 0 -300 124 -300 314v401h60v-400c0 -159 92 -258 240 -258c147 0 239 99 239 258v400h60v-401c0 -190 -117 -314 -299 -314zM394 785l66 160h54l-67 -160h-53z" glyph-name="Uacute" horiz-adv-x="819" unicode="Ú"/>
<glyph d="M410 -15c-182 0 -300 124 -300 314v401h60v-400c0 -159 92 -258 240 -258c147 0 239 99 239 258v400h60v-401c0 -190 -117 -314 -299 -314zM576 785h-53l-113 123l-114 -123h-52l144 160h44z" glyph-name="Ucircumflex" horiz-adv-x="819" unicode="Û"/>
<glyph d="M410 -15c-182 0 -300 124 -300 314v401h60v-400c0 -159 92 -258 240 -258c147 0 239 99 239 258v400h60v-401c0 -190 -117 -314 -299 -314zM473 777l-31 168h72l-32 -168h-9zM337 777l-31 168h72l-32 -168h-9z" glyph-name="Udieresis" horiz-adv-x="819" unicode="Ü"/>
<glyph d="M410 -15c-182 0 -300 124 -300 314v401h60v-400c0 -159 92 -258 240 -258c147 0 239 99 239 258v400h60v-401c0 -190 -117 -314 -299 -314zM427 785h-54l-67 160h55z" glyph-name="Ugrave" horiz-adv-x="819" unicode="Ù"/>
<glyph d="M410 -15c-182 0 -300 124 -300 314v401h60v-400c0 -159 92 -258 240 -258c147 0 239 99 239 258v400h60v-401c0 -190 -117 -314 -299 -314zM451 785l60 160h49l-61 -160h-48zM315 785l60 160h49l-61 -160h-48z" glyph-name="Uhungarumlaut" horiz-adv-x="819" unicode="Ű"/>
<glyph d="M410 -15c-182 0 -300 124 -300 314v401h60v-400c0 -159 92 -258 240 -258c147 0 239 99 239 258v400h60v-401c0 -190 -117 -314 -299 -314zM250 894h320v-48h-320v48z" glyph-name="Umacron" horiz-adv-x="819" unicode="Ū"/>
<glyph d="M680 -85l-66 -160h-54l67 160h53zM410 -15c-182 0 -300 124 -300 314v401h60v-400c0 -159 92 -258 240 -258c147 0 239 99 239 258v400h60v-401c0 -190 -117 -314 -299 -314z" glyph-name="Uogonek" horiz-adv-x="819" unicode="Ų"/>
<glyph d="M410 -15c-182 0 -300 124 -300 314v401h60v-400c0 -159 92 -258 240 -258c147 0 239 99 239 258v400h60v-401c0 -190 -117 -314 -299 -314zM410 818c46 0 83 38 83 83c0 46 -37 84 -83 84c-47 0 -83 -37 -83 -84c0 -46 36 -83 83 -83zM410 776c-70 0 -125 56 -125 125 s55 126 125 126c69 0 125 -57 125 -126s-56 -125 -125 -125z" glyph-name="Uring" horiz-adv-x="819" unicode="Ů"/>
<glyph d="M318 0l-294 700h65l268 -643h3l268 643h63l-294 -700h-79z" glyph-name="V" horiz-adv-x="715" unicode="V"/>
<glyph d="M251 0l-213 700h62l194 -637l193 637h61l193 -636l193 636h61l-212 -700h-80l-187 616l-187 -616h-78z" glyph-name="W" horiz-adv-x="1033" unicode="W"/>
<glyph d="M251 0l-213 700h62l194 -637l193 637h61l193 -636l193 636h61l-212 -700h-80l-187 616l-187 -616h-78zM500 785l66 160h54l-67 -160h-53z" glyph-name="Wacute" horiz-adv-x="1033" unicode="Ẃ"/>
<glyph d="M251 0l-213 700h62l194 -637l193 637h61l193 -636l193 636h61l-212 -700h-80l-187 616l-187 -616h-78zM682 785h-53l-113 123l-114 -123h-52l144 160h44z" glyph-name="Wcircumflex" horiz-adv-x="1033" unicode="Ŵ"/>
<glyph d="M251 0l-213 700h62l194 -637l193 637h61l193 -636l193 636h61l-212 -700h-80l-187 616l-187 -616h-78zM579 777l-31 168h72l-32 -168h-9zM443 777l-31 168h72l-32 -168h-9z" glyph-name="Wdieresis" horiz-adv-x="1033" unicode="Ẅ"/>
<glyph d="M251 0l-213 700h62l194 -637l193 637h61l193 -636l193 636h61l-212 -700h-80l-187 616l-187 -616h-78zM533 785h-54l-67 160h55z" glyph-name="Wgrave" horiz-adv-x="1033" unicode="Ẁ"/>
<glyph d="M22 0l282 356l-272 344h73l239 -299l238 299h72l-273 -343l283 -357h-73l-249 311l-249 -311h-71z" glyph-name="X" horiz-adv-x="686" unicode="X"/>
<glyph d="M308 0v266l-303 434h72l263 -374l262 374h69l-303 -434v-266h-60z" glyph-name="Y" horiz-adv-x="676" unicode="Y"/>
<glyph d="M308 0v266l-303 434h72l263 -374l262 374h69l-303 -434v-266h-60zM322 785l66 160h54l-67 -160h-53z" glyph-name="Yacute" horiz-adv-x="676" unicode="Ý"/>
<glyph d="M308 0v266l-303 434h72l263 -374l262 374h69l-303 -434v-266h-60zM504 785h-53l-113 123l-114 -123h-52l144 160h44z" glyph-name="Ycircumflex" horiz-adv-x="676" unicode="Ŷ"/>
<glyph d="M308 0v266l-303 434h72l263 -374l262 374h69l-303 -434v-266h-60zM401 777l-31 168h72l-32 -168h-9zM265 777l-31 168h72l-32 -168h-9z" glyph-name="Ydieresis" horiz-adv-x="676" unicode="Ÿ"/>
<glyph d="M308 0v266l-303 434h72l263 -374l262 374h69l-303 -434v-266h-60zM355 785h-54l-67 160h55z" glyph-name="Ygrave" horiz-adv-x="676" unicode="Ỳ"/>
<glyph d="M50 0v52l468 591h-449v57h526v-52l-468 -591h471v-57h-548z" glyph-name="Z" horiz-adv-x="642" unicode="Z"/>
<glyph d="M50 0v52l468 591h-449v57h526v-52l-468 -591h471v-57h-548zM328 785l66 160h54l-67 -160h-53z" glyph-name="Zacute" horiz-adv-x="642" unicode="Ź"/>
<glyph d="M50 0v52l468 591h-449v57h526v-52l-468 -591h471v-57h-548zM178 945h53l113 -123l114 123h52l-144 -160h-44z" glyph-name="Zcaron" horiz-adv-x="642" unicode="Ž"/>
<glyph d="M50 0v52l468 591h-449v57h526v-52l-468 -591h471v-57h-548zM339 777l-35 168h80l-35 -168h-10z" glyph-name="Zdotaccent" horiz-adv-x="642" unicode="Ż"/>
<glyph d="M984 700v-700h-60v643h-338v-643h-60v643h-338v-643h-60v700h856z" glyph-name="M.ss03" horiz-adv-x="1112"/>
<glyph d="M128 0v700h564v-700h-60v643h-444v-643h-60z" glyph-name="N.ss03" horiz-adv-x="820"/>
<glyph d="M128 0v700h564v-700h-60v643h-444v-643h-60zM394 785l66 160h54l-67 -160h-53z" glyph-name="Nacute.ss03" horiz-adv-x="820"/>
<glyph d="M128 0v700h564v-700h-60v643h-444v-643h-60zM244 945h53l113 -123l114 123h52l-144 -160h-44z" glyph-name="Ncaron.ss03" horiz-adv-x="820"/>
<glyph d="M401 -245h-33c20 29 38 67 40 94h-3c-24 0 -38 18 -38 35c0 23 18 41 43 41s44 -16 44 -46c0 -43 -28 -98 -53 -124zM128 0v700h564v-700h-60v643h-444v-643h-60z" glyph-name="uni0145.ss03" horiz-adv-x="820"/>
<glyph d="M517 -210c-96 0 -161 52 -161 124h54v-1c0 -45 45 -75 107 -75c68 0 116 41 116 132c0 39 -1 86 -1 136v537h-444v-643h-60v700h564v-730c0 -109 -64 -180 -175 -180z" glyph-name="Eng.ss03" horiz-adv-x="820"/>
<glyph d="M128 0v700h564v-700h-60v643h-444v-643h-60zM221 821c0 58 42 92 95 92c71 0 123 -49 183 -49c30 0 55 21 55 50h45c0 -58 -42 -92 -95 -92c-71 0 -123 49 -183 49c-30 0 -55 -21 -55 -50h-45z" glyph-name="Ntilde.ss03" horiz-adv-x="820"/>
<glyph d="M32 0v56h453l-437 592v52h497v-56h-418l437 -592v-52h-532z" glyph-name="S.ss03" horiz-adv-x="598"/>
<glyph d="M32 0v56h453l-437 592v52h497v-56h-418l437 -592v-52h-532zM294 785l66 160h54l-67 -160h-53z" glyph-name="Sacute.ss03" horiz-adv-x="598"/>
<glyph d="M32 0v56h453l-437 592v52h497v-56h-418l437 -592v-52h-532zM144 945h53l113 -123l114 123h52l-144 -160h-44z" glyph-name="Scaron.ss03" horiz-adv-x="598"/>
<glyph d="M336 -85l-66 -160h-54l67 160h53zM32 0v56h453l-437 592v52h497v-56h-418l437 -592v-52h-532z" glyph-name="Scedilla.ss03" horiz-adv-x="598"/>
<glyph d="M301 -245h-33c20 29 38 67 40 94h-3c-24 0 -38 18 -38 35c0 23 18 41 43 41s44 -16 44 -46c0 -43 -28 -98 -53 -124zM32 0v56h453l-437 592v52h497v-56h-418l437 -592v-52h-532z" glyph-name="uni0218.ss03" horiz-adv-x="598"/>
<glyph d="M692 700v-700h-564v700h60v-643h444v643h60z" glyph-name="U.ss03" horiz-adv-x="820"/>
<glyph d="M692 700v-700h-564v700h60v-643h444v643h60zM394 785l66 160h54l-67 -160h-53z" glyph-name="Uacute.ss03" horiz-adv-x="820"/>
<glyph d="M692 700v-700h-564v700h60v-643h444v643h60zM576 785h-53l-113 123l-114 -123h-52l144 160h44z" glyph-name="Ucircumflex.ss03" horiz-adv-x="820"/>
<glyph d="M692 700v-700h-564v700h60v-643h444v643h60zM473 777l-31 168h72l-32 -168h-9zM337 777l-31 168h72l-32 -168h-9z" glyph-name="Udieresis.ss03" horiz-adv-x="820"/>
<glyph d="M692 700v-700h-564v700h60v-643h444v643h60zM427 785h-54l-67 160h55z" glyph-name="Ugrave.ss03" horiz-adv-x="820"/>
<glyph d="M692 700v-700h-564v700h60v-643h444v643h60zM451 785l60 160h49l-61 -160h-48zM315 785l60 160h49l-61 -160h-48z" glyph-name="Uhungarumlaut.ss03" horiz-adv-x="820"/>
<glyph d="M692 700v-700h-564v700h60v-643h444v643h60zM250 894h320v-48h-320v48z" glyph-name="Umacron.ss03" horiz-adv-x="820"/>
<glyph d="M693 -85l-66 -160h-54l67 160h53zM692 700v-700h-564v700h60v-643h444v643h60z" glyph-name="Uogonek.ss03" horiz-adv-x="820"/>
<glyph d="M692 700v-700h-564v700h60v-643h444v643h60zM410 818c46 0 83 38 83 83c0 46 -37 84 -83 84c-47 0 -83 -37 -83 -84c0 -46 36 -83 83 -83zM410 776c-70 0 -125 56 -125 125s55 126 125 126c69 0 125 -57 125 -126s-56 -125 -125 -125z" glyph-name="Uring.ss03" horiz-adv-x="820"/>
<glyph d="M128 0v700h60v-643h338v643h60v-643h338v643h60v-700h-856z" glyph-name="W.ss03" horiz-adv-x="1112"/>
<glyph d="M128 0v700h60v-643h338v643h60v-643h338v643h60v-700h-856zM540 785l66 160h54l-67 -160h-53z" glyph-name="Wacute.ss03" horiz-adv-x="1112"/>
<glyph d="M128 0v700h60v-643h338v643h60v-643h338v643h60v-700h-856zM722 785h-53l-113 123l-114 -123h-52l144 160h44z" glyph-name="Wcircumflex.ss03" horiz-adv-x="1112"/>
<glyph d="M128 0v700h60v-643h338v643h60v-643h338v643h60v-700h-856zM619 777l-31 168h72l-32 -168h-9zM483 777l-31 168h72l-32 -168h-9z" glyph-name="Wdieresis.ss03" horiz-adv-x="1112"/>
<glyph d="M128 0v700h60v-643h338v643h60v-643h338v643h60v-700h-856zM573 785h-54l-67 160h55z" glyph-name="Wgrave.ss03" horiz-adv-x="1112"/>
<glyph d="M224 34c125 0 220 89 220 198v33c-18 -17 -66 -26 -130 -30c-146 -10 -208 -44 -208 -110c0 -59 46 -91 118 -91zM216 -12c-106 0 -164 54 -164 134c0 113 126 147 261 156c78 5 129 16 129 50c0 80 -65 136 -155 136s-152 -51 -168 -138h-52c18 113 101 184 221 184 c125 0 206 -78 206 -200v-261h74v-49h-121v117c-37 -78 -127 -129 -231 -129z" glyph-name="a" horiz-adv-x="606" unicode="a"/>
<glyph d="M224 34c125 0 220 89 220 198v33c-18 -17 -66 -26 -130 -30c-146 -10 -208 -44 -208 -110c0 -59 46 -91 118 -91zM216 -12c-106 0 -164 54 -164 134c0 113 126 147 261 156c78 5 129 16 129 50c0 80 -65 136 -155 136s-152 -51 -168 -138h-52c18 113 101 184 221 184 c125 0 206 -78 206 -200v-261h74v-49h-121v117c-37 -78 -127 -129 -231 -129zM270 585l66 160h54l-67 -160h-53z" glyph-name="aacute" horiz-adv-x="606" unicode="á"/>
<glyph d="M224 34c125 0 220 89 220 198v33c-18 -17 -66 -26 -130 -30c-146 -10 -208 -44 -208 -110c0 -59 46 -91 118 -91zM216 -12c-106 0 -164 54 -164 134c0 113 126 147 261 156c78 5 129 16 129 50c0 80 -65 136 -155 136s-152 -51 -168 -138h-52c18 113 101 184 221 184 c125 0 206 -78 206 -200v-261h74v-49h-121v117c-37 -78 -127 -129 -231 -129zM286 576c-108 0 -178 65 -178 161v8h47v-8c0 -71 50 -116 131 -116s131 45 131 116v8h48v-8c0 -96 -71 -161 -179 -161z" glyph-name="abreve" horiz-adv-x="606" unicode="ă"/>
<glyph d="M224 34c125 0 220 89 220 198v33c-18 -17 -66 -26 -130 -30c-146 -10 -208 -44 -208 -110c0 -59 46 -91 118 -91zM216 -12c-106 0 -164 54 -164 134c0 113 126 147 261 156c78 5 129 16 129 50c0 80 -65 136 -155 136s-152 -51 -168 -138h-52c18 113 101 184 221 184 c125 0 206 -78 206 -200v-261h74v-49h-121v117c-37 -78 -127 -129 -231 -129zM452 585h-53l-113 123l-114 -123h-52l144 160h44z" glyph-name="acircumflex" horiz-adv-x="606" unicode="â"/>
<glyph d="M224 34c125 0 220 89 220 198v33c-18 -17 -66 -26 -130 -30c-146 -10 -208 -44 -208 -110c0 -59 46 -91 118 -91zM216 -12c-106 0 -164 54 -164 134c0 113 126 147 261 156c78 5 129 16 129 50c0 80 -65 136 -155 136s-152 -51 -168 -138h-52c18 113 101 184 221 184 c125 0 206 -78 206 -200v-261h74v-49h-121v117c-37 -78 -127 -129 -231 -129zM349 577l-31 168h72l-32 -168h-9zM213 577l-31 168h72l-32 -168h-9z" glyph-name="adieresis" horiz-adv-x="606" unicode="ä"/>
<glyph d="M224 34c125 0 220 89 220 198v33c-18 -17 -66 -26 -130 -30c-146 -10 -208 -44 -208 -110c0 -59 46 -91 118 -91zM216 -12c-106 0 -164 54 -164 134c0 113 126 147 261 156c78 5 129 16 129 50c0 80 -65 136 -155 136s-152 -51 -168 -138h-52c18 113 101 184 221 184 c125 0 206 -78 206 -200v-261h74v-49h-121v117c-37 -78 -127 -129 -231 -129zM303 585h-54l-67 160h55z" glyph-name="agrave" horiz-adv-x="606" unicode="à"/>
<glyph d="M224 34c125 0 220 89 220 198v33c-18 -17 -66 -26 -130 -30c-146 -10 -208 -44 -208 -110c0 -59 46 -91 118 -91zM216 -12c-106 0 -164 54 -164 134c0 113 126 147 261 156c78 5 129 16 129 50c0 80 -65 136 -155 136s-152 -51 -168 -138h-52c18 113 101 184 221 184 c125 0 206 -78 206 -200v-261h74v-49h-121v117c-37 -78 -127 -129 -231 -129zM126 694h320v-48h-320v48z" glyph-name="amacron" horiz-adv-x="606" unicode="ā"/>
<glyph d="M569 -85l-66 -160h-54l67 160h53zM224 34c125 0 220 89 220 198v33c-18 -17 -66 -26 -130 -30c-146 -10 -208 -44 -208 -110c0 -59 46 -91 118 -91zM216 -12c-106 0 -164 54 -164 134c0 113 126 147 261 156c78 5 129 16 129 50c0 80 -65 136 -155 136 s-152 -51 -168 -138h-52c18 113 101 184 221 184c125 0 206 -78 206 -200v-261h74v-49h-121v117c-37 -78 -127 -129 -231 -129z" glyph-name="aogonek" horiz-adv-x="606" unicode="ą"/>
<glyph d="M224 34c125 0 220 89 220 198v33c-18 -17 -66 -26 -130 -30c-146 -10 -208 -44 -208 -110c0 -59 46 -91 118 -91zM216 -12c-106 0 -164 54 -164 134c0 113 126 147 261 156c78 5 129 16 129 50c0 80 -65 136 -155 136s-152 -51 -168 -138h-52c18 113 101 184 221 184 c125 0 206 -78 206 -200v-261h74v-49h-121v117c-37 -78 -127 -129 -231 -129zM286 618c46 0 83 38 83 83c0 46 -37 84 -83 84c-47 0 -83 -37 -83 -84c0 -46 36 -83 83 -83zM286 576c-70 0 -125 56 -125 125s55 126 125 126c69 0 125 -57 125 -126s-56 -125 -125 -125z" glyph-name="aring" horiz-adv-x="606" unicode="å"/>
<glyph d="M224 34c125 0 220 89 220 198v33c-18 -17 -66 -26 -130 -30c-146 -10 -208 -44 -208 -110c0 -59 46 -91 118 -91zM216 -12c-106 0 -164 54 -164 134c0 113 126 147 261 156c78 5 129 16 129 50c0 80 -65 136 -155 136s-152 -51 -168 -138h-52c18 113 101 184 221 184 c125 0 206 -78 206 -200v-261h74v-49h-121v117c-37 -78 -127 -129 -231 -129zM97 621c0 58 42 92 95 92c71 0 123 -49 183 -49c30 0 55 21 55 50h45c0 -58 -42 -92 -95 -92c-71 0 -123 49 -183 49c-30 0 -55 -21 -55 -50h-45z" glyph-name="atilde" horiz-adv-x="606" unicode="ã"/>
<glyph d="M224 34c125 0 220 89 220 198v33c-18 -17 -66 -26 -130 -30c-146 -10 -208 -44 -208 -110c0 -59 46 -91 118 -91zM496 276h411c-10 108 -94 186 -204 186s-197 -79 -207 -186zM224 -12c-113 0 -172 54 -172 134c0 113 126 147 261 156c78 5 129 16 129 50 c0 80 -65 136 -155 136s-152 -51 -168 -138h-52c18 113 101 184 221 184c99 0 169 -50 192 -132c41 79 125 132 223 132c146 0 258 -111 258 -258c0 -8 0 -15 -1 -22h-465c7 -108 94 -192 211 -192c85 0 156 43 182 107h54c-26 -90 -120 -155 -238 -155 c-109 0 -198 61 -236 152c-33 -95 -132 -154 -244 -154z" glyph-name="ae" horiz-adv-x="1006" unicode="æ"/>
<glyph d="M356 40c114 0 201 91 201 210s-87 210 -201 210s-201 -91 -201 -210s87 -210 201 -210zM363 -10c-97 0 -172 51 -210 130v-120h-51v710h54v-326c38 76 112 126 207 126c141 0 249 -113 249 -260c0 -148 -108 -260 -249 -260z" glyph-name="b" horiz-adv-x="662" unicode="b"/>
<glyph d="M310 -10c-150 0 -260 112 -260 260s112 260 260 260c133 0 226 -78 246 -197h-53c-21 90 -92 147 -193 147c-118 0 -206 -91 -206 -210s88 -210 206 -210c101 0 173 57 193 147h53c-21 -119 -115 -197 -246 -197z" glyph-name="c" horiz-adv-x="602" unicode="c"/>
<glyph d="M310 -10c-150 0 -260 112 -260 260s112 260 260 260c133 0 226 -78 246 -197h-53c-21 90 -92 147 -193 147c-118 0 -206 -91 -206 -210s88 -210 206 -210c101 0 173 57 193 147h53c-21 -119 -115 -197 -246 -197zM294 585l66 160h54l-67 -160h-53z" glyph-name="cacute" horiz-adv-x="602" unicode="ć"/>
<glyph d="M310 -10c-150 0 -260 112 -260 260s112 260 260 260c133 0 226 -78 246 -197h-53c-21 90 -92 147 -193 147c-118 0 -206 -91 -206 -210s88 -210 206 -210c101 0 173 57 193 147h53c-21 -119 -115 -197 -246 -197zM144 745h53l113 -123l114 123h52l-144 -160h-44z" glyph-name="ccaron" horiz-adv-x="602" unicode="č"/>
<glyph d="M336 -85l-66 -160h-54l67 160h53zM310 -10c-150 0 -260 112 -260 260s112 260 260 260c133 0 226 -78 246 -197h-53c-21 90 -92 147 -193 147c-118 0 -206 -91 -206 -210s88 -210 206 -210c101 0 173 57 193 147h53c-21 -119 -115 -197 -246 -197z" glyph-name="ccedilla" horiz-adv-x="602" unicode="ç"/>
<glyph d="M310 -10c-150 0 -260 112 -260 260s112 260 260 260c133 0 226 -78 246 -197h-53c-21 90 -92 147 -193 147c-118 0 -206 -91 -206 -210s88 -210 206 -210c101 0 173 57 193 147h53c-21 -119 -115 -197 -246 -197zM305 577l-35 168h80l-35 -168h-10z" glyph-name="cdotaccent" horiz-adv-x="602" unicode="ċ"/>
<glyph d="M306 40c114 0 201 91 201 210s-87 210 -201 210c-113 0 -201 -91 -201 -210s88 -210 201 -210zM299 -10c-141 0 -249 112 -249 260c0 147 108 260 249 260c95 0 169 -50 207 -126v326h54v-710h-51v120c-37 -79 -113 -130 -210 -130z" glyph-name="d" horiz-adv-x="662" unicode="d"/>
<glyph d="M314 41c119 0 209 91 209 209s-90 209 -209 209c-118 0 -209 -91 -209 -209s91 -209 209 -209zM314 -10c-150 0 -264 112 -264 259s113 259 262 259c41 0 75 -10 104 -26c-6 7 -11 15 -16 22l-54 72h-171v44h139l-67 90h62l68 -90h141v-44h-110l109 -145 c33 -46 61 -110 61 -181c0 -147 -113 -260 -264 -260z" glyph-name="eth" horiz-adv-x="628" unicode="ð"/>
<glyph d="M306 40c114 0 201 91 201 210s-87 210 -201 210c-113 0 -201 -91 -201 -210s88 -210 201 -210zM628 550v160h50l-4 -160h-46zM299 -10c-141 0 -249 112 -249 260c0 147 108 260 249 260c95 0 169 -50 207 -126v326h54v-710h-51v120c-37 -79 -113 -130 -210 -130z" glyph-name="dcaron" horiz-adv-x="662" unicode="ď"/>
<glyph d="M306 40c114 0 201 91 201 210s-87 210 -201 210c-113 0 -201 -91 -201 -210s88 -210 201 -210zM636 622v-44h-76v-578h-51v120c-37 -79 -113 -130 -210 -130c-141 0 -249 112 -249 260c0 147 108 260 249 260c95 0 169 -50 207 -126v194h-206v44h206v88h54v-88h76z" glyph-name="dcroat" horiz-adv-x="662" unicode="đ"/>
<glyph d="M516 276c-10 108 -94 186 -204 186s-197 -79 -207 -186h411zM313 -10c-152 0 -263 112 -263 259c0 148 115 261 262 261c146 0 258 -111 258 -258c0 -8 0 -15 -1 -22h-465c7 -108 94 -192 211 -192c85 0 156 43 182 107h54c-26 -90 -120 -155 -238 -155z" glyph-name="e" horiz-adv-x="615" unicode="e"/>
<glyph d="M516 276c-10 108 -94 186 -204 186s-197 -79 -207 -186h411zM313 -10c-152 0 -263 112 -263 259c0 148 115 261 262 261c146 0 258 -111 258 -258c0 -8 0 -15 -1 -22h-465c7 -108 94 -192 211 -192c85 0 156 43 182 107h54c-26 -90 -120 -155 -238 -155zM288 585l66 160 h54l-67 -160h-53z" glyph-name="eacute" horiz-adv-x="615" unicode="é"/>
<glyph d="M516 276c-10 108 -94 186 -204 186s-197 -79 -207 -186h411zM313 -10c-152 0 -263 112 -263 259c0 148 115 261 262 261c146 0 258 -111 258 -258c0 -8 0 -15 -1 -22h-465c7 -108 94 -192 211 -192c85 0 156 43 182 107h54c-26 -90 -120 -155 -238 -155zM138 745h53 l113 -123l114 123h52l-144 -160h-44z" glyph-name="ecaron" horiz-adv-x="615" unicode="ě"/>
<glyph d="M516 276c-10 108 -94 186 -204 186s-197 -79 -207 -186h411zM313 -10c-152 0 -263 112 -263 259c0 148 115 261 262 261c146 0 258 -111 258 -258c0 -8 0 -15 -1 -22h-465c7 -108 94 -192 211 -192c85 0 156 43 182 107h54c-26 -90 -120 -155 -238 -155zM470 585h-53 l-113 123l-114 -123h-52l144 160h44z" glyph-name="ecircumflex" horiz-adv-x="615" unicode="ê"/>
<glyph d="M516 276c-10 108 -94 186 -204 186s-197 -79 -207 -186h411zM313 -10c-152 0 -263 112 -263 259c0 148 115 261 262 261c146 0 258 -111 258 -258c0 -8 0 -15 -1 -22h-465c7 -108 94 -192 211 -192c85 0 156 43 182 107h54c-26 -90 -120 -155 -238 -155zM367 577l-31 168 h72l-32 -168h-9zM231 577l-31 168h72l-32 -168h-9z" glyph-name="edieresis" horiz-adv-x="615" unicode="ë"/>
<glyph d="M516 276c-10 108 -94 186 -204 186s-197 -79 -207 -186h411zM313 -10c-152 0 -263 112 -263 259c0 148 115 261 262 261c146 0 258 -111 258 -258c0 -8 0 -15 -1 -22h-465c7 -108 94 -192 211 -192c85 0 156 43 182 107h54c-26 -90 -120 -155 -238 -155zM299 577l-35 168 h80l-35 -168h-10z" glyph-name="edotaccent" horiz-adv-x="615" unicode="ė"/>
<glyph d="M516 276c-10 108 -94 186 -204 186s-197 -79 -207 -186h411zM313 -10c-152 0 -263 112 -263 259c0 148 115 261 262 261c146 0 258 -111 258 -258c0 -8 0 -15 -1 -22h-465c7 -108 94 -192 211 -192c85 0 156 43 182 107h54c-26 -90 -120 -155 -238 -155zM321 585h-54 l-67 160h55z" glyph-name="egrave" horiz-adv-x="615" unicode="è"/>
<glyph d="M516 276c-10 108 -94 186 -204 186s-197 -79 -207 -186h411zM313 -10c-152 0 -263 112 -263 259c0 148 115 261 262 261c146 0 258 -111 258 -258c0 -8 0 -15 -1 -22h-465c7 -108 94 -192 211 -192c85 0 156 43 182 107h54c-26 -90 -120 -155 -238 -155zM144 694h320v-48 h-320v48z" glyph-name="emacron" horiz-adv-x="615" unicode="ē"/>
<glyph d="M495 -85l-66 -160h-54l67 160h53zM516 276c-10 108 -94 186 -204 186s-197 -79 -207 -186h411zM313 -10c-152 0 -263 112 -263 259c0 148 115 261 262 261c146 0 258 -111 258 -258c0 -8 0 -15 -1 -22h-465c7 -108 94 -192 211 -192c85 0 156 43 182 107h54 c-26 -90 -120 -155 -238 -155z" glyph-name="eogonek" horiz-adv-x="615" unicode="ę"/>
<glyph d="M151 0v450h-105v50h105v62c0 109 76 178 190 178c103 0 178 -61 178 -154h-52v3c-1 60 -52 101 -126 101c-81 0 -137 -42 -137 -127c0 -20 0 -41 1 -63h235v-50h-235v-450h-54z" glyph-name="f" horiz-adv-x="443" unicode="f"/>
<glyph d="M350 -163c144 0 231 44 231 113c0 75 -80 115 -231 115c-143 0 -229 -44 -229 -115c0 -69 86 -113 229 -113zM361 233c124 0 202 46 202 116c0 72 -77 117 -202 117c-126 0 -204 -45 -204 -117c0 -70 76 -116 204 -116zM350 -210c-175 0 -284 60 -284 157 c0 67 53 115 143 136c-104 15 -193 44 -193 132c0 35 30 70 74 70c12 0 22 0 31 -3c-12 19 -19 42 -19 66c0 93 86 153 225 161v121h53v-121c146 -4 239 -65 239 -161c0 -98 -102 -159 -258 -159c-167 0 -177 63 -252 63c-26 0 -42 -18 -42 -37c0 -85 141 -97 287 -102 c158 -5 282 -41 282 -162c0 -98 -112 -161 -286 -161z" glyph-name="g" horiz-adv-x="662" unicode="g"/>
<glyph d="M350 -163c144 0 231 44 231 113c0 75 -80 115 -231 115c-143 0 -229 -44 -229 -115c0 -69 86 -113 229 -113zM361 233c124 0 202 46 202 116c0 72 -77 117 -202 117c-126 0 -204 -45 -204 -117c0 -70 76 -116 204 -116zM350 -210c-175 0 -284 60 -284 157 c0 67 53 115 143 136c-104 15 -193 44 -193 132c0 35 30 70 74 70c12 0 22 0 31 -3c-12 19 -19 42 -19 66c0 100 100 162 259 162c157 0 258 -62 258 -162c0 -98 -102 -159 -258 -159c-167 0 -177 63 -252 63c-26 0 -42 -18 -42 -37c0 -85 141 -97 287 -102 c158 -5 282 -41 282 -162c0 -98 -112 -161 -286 -161zM352 576c-108 0 -178 65 -178 161v8h47v-8c0 -71 50 -116 131 -116s131 45 131 116v8h48v-8c0 -96 -71 -161 -179 -161z" glyph-name="gbreve" horiz-adv-x="662" unicode="ğ"/>
<glyph d="M350 -163c144 0 231 44 231 113c0 75 -80 115 -231 115c-143 0 -229 -44 -229 -115c0 -69 86 -113 229 -113zM361 233c124 0 202 46 202 116c0 72 -77 117 -202 117c-126 0 -204 -45 -204 -117c0 -70 76 -116 204 -116zM350 -210c-175 0 -284 60 -284 157 c0 67 53 115 143 136c-104 15 -193 44 -193 132c0 35 30 70 74 70c12 0 22 0 31 -3c-12 19 -19 42 -19 66c0 100 100 162 259 162c157 0 258 -62 258 -162c0 -98 -102 -159 -258 -159c-167 0 -177 63 -252 63c-26 0 -42 -18 -42 -37c0 -85 141 -97 287 -102 c158 -5 282 -41 282 -162c0 -98 -112 -161 -286 -161zM361 749h33c-20 -29 -38 -67 -40 -94h3c24 0 38 -18 38 -35c0 -23 -18 -41 -43 -41s-44 16 -44 46c0 43 28 98 53 124z" glyph-name="uni0123" horiz-adv-x="662" unicode="ģ"/>
<glyph d="M350 -163c144 0 231 44 231 113c0 75 -80 115 -231 115c-143 0 -229 -44 -229 -115c0 -69 86 -113 229 -113zM361 233c124 0 202 46 202 116c0 72 -77 117 -202 117c-126 0 -204 -45 -204 -117c0 -70 76 -116 204 -116zM350 -210c-175 0 -284 60 -284 157 c0 67 53 115 143 136c-104 15 -193 44 -193 132c0 35 30 70 74 70c12 0 22 0 31 -3c-12 19 -19 42 -19 66c0 100 100 162 259 162c157 0 258 -62 258 -162c0 -98 -102 -159 -258 -159c-167 0 -177 63 -252 63c-26 0 -42 -18 -42 -37c0 -85 141 -97 287 -102 c158 -5 282 -41 282 -162c0 -98 -112 -161 -286 -161zM347 577l-35 168h80l-35 -168h-10z" glyph-name="gdotaccent" horiz-adv-x="662" unicode="ġ"/>
<glyph d="M102 0v710h54v-319c36 73 106 119 191 119c136 0 221 -92 221 -243v-267h-54v260c0 125 -66 199 -174 199c-104 0 -184 -85 -184 -199v-260h-54z" glyph-name="h" horiz-adv-x="660" unicode="h"/>
<glyph d="M347 510c136 0 221 -92 221 -243v-267h-54v260c0 125 -66 199 -174 199c-104 0 -184 -85 -184 -199v-260h-54v578h-75v44h75v88h54v-88h207v-44h-207v-187c36 73 106 119 191 119z" glyph-name="hbar" horiz-adv-x="660" unicode="ħ"/>
<glyph d="M102 0v500h54v-500h-54zM124 577l-35 168h80l-35 -168h-10z" glyph-name="i" horiz-adv-x="258" unicode="i"/>
<glyph d="M102 0v500h54v-500h-54z" glyph-name="dotlessi" horiz-adv-x="258" unicode="ı"/>
<glyph d="M102 0v500h54v-500h-54zM113 585l66 160h54l-67 -160h-53z" glyph-name="iacute" horiz-adv-x="258" unicode="í"/>
<glyph d="M102 0v500h54v-500h-54zM-37 745h53l113 -123l114 123h52l-144 -160h-44z" glyph-name="uni01D0" horiz-adv-x="258" unicode="ǐ"/>
<glyph d="M102 0v500h54v-500h-54zM295 585h-53l-113 123l-114 -123h-52l144 160h44z" glyph-name="icircumflex" horiz-adv-x="258" unicode="î"/>
<glyph d="M102 0v500h54v-500h-54zM192 577l-31 168h72l-32 -168h-9zM56 577l-31 168h72l-32 -168h-9z" glyph-name="idieresis" horiz-adv-x="258" unicode="ï"/>
<glyph d="M102 0v500h54v-500h-54zM124 577l-35 168h80l-35 -168h-10z" glyph-name="i.loclTRK" horiz-adv-x="258"/>
<glyph d="M102 0v500h54v-500h-54zM146 585h-54l-67 160h55z" glyph-name="igrave" horiz-adv-x="258" unicode="ì"/>
<glyph d="M102 0v500h54v-500h-54zM-31 694h320v-48h-320v48z" glyph-name="imacron" horiz-adv-x="258" unicode="ī"/>
<glyph d="M157 -85l-66 -160h-54l67 160h53zM102 0v500h54v-500h-54zM124 577l-35 168h80l-35 -168h-10z" glyph-name="iogonek" horiz-adv-x="258" unicode="į"/>
<glyph d="M19 -210c-96 0 -161 52 -161 124h54v-1c0 -45 45 -75 107 -75c72 0 122 41 122 132c0 39 -1 86 -1 136v394h54v-530c0 -109 -64 -180 -175 -180zM162 577l-35 168h80l-35 -168h-10z" glyph-name="j" horiz-adv-x="296" unicode="j"/>
<glyph d="M19 -210c-96 0 -161 52 -161 124h54v-1c0 -45 45 -75 107 -75c72 0 122 41 122 132c0 39 -1 86 -1 136v394h54v-530c0 -109 -64 -180 -175 -180z" glyph-name="uni0237" horiz-adv-x="296" unicode="ȷ"/>
<glyph d="M102 0v710h54v-434h97l199 224h66l-220 -248l222 -252h-69l-199 225h-96v-225h-54z" glyph-name="k" horiz-adv-x="544" unicode="k"/>
<glyph d="M291 -245h-33c20 29 38 67 40 94h-3c-24 0 -38 18 -38 35c0 23 18 41 43 41s44 -16 44 -46c0 -43 -28 -98 -53 -124zM102 0v710h54v-434h97l199 224h66l-220 -248l222 -252h-69l-199 225h-96v-225h-54z" glyph-name="uni0137" horiz-adv-x="544" unicode="ķ"/>
<glyph d="M102 0v710h54v-710h-54z" glyph-name="l" horiz-adv-x="258" unicode="l"/>
<glyph d="M102 0v710h54v-710h-54zM113 785l66 160h54l-67 -160h-53z" glyph-name="lacute" horiz-adv-x="258" unicode="ĺ"/>
<glyph d="M224 550v160h50l-4 -160h-46zM102 0v710h54v-710h-54z" glyph-name="lcaron" horiz-adv-x="258" unicode="ľ"/>
<glyph d="M120 -245h-33c20 29 38 67 40 94h-3c-24 0 -38 18 -38 35c0 23 18 41 43 41s44 -16 44 -46c0 -43 -28 -98 -53 -124zM102 0v710h54v-710h-54z" glyph-name="uni013C" horiz-adv-x="258" unicode="ļ"/>
<glyph d="M259 492v-55l-101 -59v-378h-54v346l-83 -48v55l83 49v308h54v-276z" glyph-name="lslash" horiz-adv-x="262" unicode="ł"/>
<glyph d="M102 0v500h51v-112c34 74 100 122 180 122c93 0 157 -49 183 -132c34 79 105 132 189 132c127 0 207 -87 207 -227v-283h-55v276c0 114 -59 184 -156 184c-94 0 -167 -86 -167 -200v-260h-54v276c0 114 -60 184 -156 184c-95 0 -168 -86 -168 -200v-260h-54z" glyph-name="m" horiz-adv-x="1004" unicode="m"/>
<glyph d="M102 0v500h51v-113c36 75 107 123 194 123c136 0 221 -92 221 -243v-267h-54v260c0 125 -66 199 -174 199c-104 0 -184 -85 -184 -199v-260h-54z" glyph-name="n" horiz-adv-x="660" unicode="n"/>
<glyph d="M102 0v500h51v-113c36 75 107 123 194 123c136 0 221 -92 221 -243v-267h-54v260c0 125 -66 199 -174 199c-104 0 -184 -85 -184 -199v-260h-54zM322 585l66 160h54l-67 -160h-53z" glyph-name="nacute" horiz-adv-x="660" unicode="ń"/>
<glyph d="M102 0v500h51v-113c36 75 107 123 194 123c136 0 221 -92 221 -243v-267h-54v260c0 125 -66 199 -174 199c-104 0 -184 -85 -184 -199v-260h-54zM172 745h53l113 -123l114 123h52l-144 -160h-44z" glyph-name="ncaron" horiz-adv-x="660" unicode="ň"/>
<glyph d="M329 -245h-33c20 29 38 67 40 94h-3c-24 0 -38 18 -38 35c0 23 18 41 43 41s44 -16 44 -46c0 -43 -28 -98 -53 -124zM102 0v500h51v-113c36 75 107 123 194 123c136 0 221 -92 221 -243v-267h-54v260c0 125 -66 199 -174 199c-104 0 -184 -85 -184 -199v-260h-54z" glyph-name="uni0146" horiz-adv-x="660" unicode="ņ"/>
<glyph d="M393 -210c-96 0 -161 52 -161 124h54v-1c0 -45 45 -75 107 -75c72 0 122 41 122 132c0 39 -1 86 -1 136v154c0 125 -65 199 -174 199c-104 0 -184 -85 -184 -199v-260h-54v500h51v-113c36 75 107 123 194 123c136 0 221 -92 221 -243v-297c0 -109 -64 -180 -175 -180z " glyph-name="eng" horiz-adv-x="660" unicode="ŋ"/>
<glyph d="M102 0v500h51v-113c36 75 107 123 194 123c136 0 221 -92 221 -243v-267h-54v260c0 125 -66 199 -174 199c-104 0 -184 -85 -184 -199v-260h-54zM149 621c0 58 42 92 95 92c71 0 123 -49 183 -49c30 0 55 21 55 50h45c0 -58 -42 -92 -95 -92c-71 0 -123 49 -183 49 c-30 0 -55 -21 -55 -50h-45z" glyph-name="ntilde" horiz-adv-x="660" unicode="ñ"/>
<glyph d="M314 40c120 0 209 90 209 210s-89 210 -209 210s-209 -90 -209 -210s90 -210 209 -210zM314 -10c-150 0 -264 112 -264 260c0 147 115 260 264 260c150 0 264 -112 264 -260c0 -147 -115 -260 -264 -260z" glyph-name="o" horiz-adv-x="628" unicode="o"/>
<glyph d="M314 40c120 0 209 90 209 210s-89 210 -209 210s-209 -90 -209 -210s90 -210 209 -210zM314 -10c-150 0 -264 112 -264 260c0 147 115 260 264 260c150 0 264 -112 264 -260c0 -147 -115 -260 -264 -260zM298 585l66 160h54l-67 -160h-53z" glyph-name="oacute" horiz-adv-x="628" unicode="ó"/>
<glyph d="M314 40c120 0 209 90 209 210s-89 210 -209 210s-209 -90 -209 -210s90 -210 209 -210zM314 -10c-150 0 -264 112 -264 260c0 147 115 260 264 260c150 0 264 -112 264 -260c0 -147 -115 -260 -264 -260zM480 585h-53l-113 123l-114 -123h-52l144 160h44z" glyph-name="ocircumflex" horiz-adv-x="628" unicode="ô"/>
<glyph d="M314 40c120 0 209 90 209 210s-89 210 -209 210s-209 -90 -209 -210s90 -210 209 -210zM314 -10c-150 0 -264 112 -264 260c0 147 115 260 264 260c150 0 264 -112 264 -260c0 -147 -115 -260 -264 -260zM377 577l-31 168h72l-32 -168h-9zM241 577l-31 168h72l-32 -168 h-9z" glyph-name="odieresis" horiz-adv-x="628" unicode="ö"/>
<glyph d="M314 40c120 0 209 90 209 210s-89 210 -209 210s-209 -90 -209 -210s90 -210 209 -210zM314 -10c-150 0 -264 112 -264 260c0 147 115 260 264 260c150 0 264 -112 264 -260c0 -147 -115 -260 -264 -260zM331 585h-54l-67 160h55z" glyph-name="ograve" horiz-adv-x="628" unicode="ò"/>
<glyph d="M314 40c120 0 209 90 209 210s-89 210 -209 210s-209 -90 -209 -210s90 -210 209 -210zM314 -10c-150 0 -264 112 -264 260c0 147 115 260 264 260c150 0 264 -112 264 -260c0 -147 -115 -260 -264 -260zM355 585l60 160h49l-61 -160h-48zM219 585l60 160h49l-61 -160 h-48z" glyph-name="ohungarumlaut" horiz-adv-x="628" unicode="ő"/>
<glyph d="M314 40c120 0 209 90 209 210s-89 210 -209 210s-209 -90 -209 -210s90 -210 209 -210zM314 -10c-150 0 -264 112 -264 260c0 147 115 260 264 260c150 0 264 -112 264 -260c0 -147 -115 -260 -264 -260zM154 694h320v-48h-320v48z" glyph-name="omacron" horiz-adv-x="628" unicode="ō"/>
<glyph d="M314 40c121 0 211 90 211 210c0 55 -19 104 -51 140l-285 -309c34 -26 77 -41 125 -41zM155 110l284 309c-33 26 -76 41 -125 41c-121 0 -211 -89 -211 -210c0 -55 20 -104 52 -140zM314 -10c-61 0 -116 19 -159 52l-39 -42h-59l64 70c-44 46 -71 109 -71 180 c0 147 115 260 264 260c61 0 116 -19 159 -52l40 42h58l-64 -70c45 -46 71 -109 71 -180c0 -147 -115 -260 -264 -260z" glyph-name="oslash" horiz-adv-x="628" unicode="ø"/>
<glyph d="M314 40c120 0 209 90 209 210s-89 210 -209 210s-209 -90 -209 -210s90 -210 209 -210zM314 -10c-150 0 -264 112 -264 260c0 147 115 260 264 260c150 0 264 -112 264 -260c0 -147 -115 -260 -264 -260zM125 621c0 58 42 92 95 92c71 0 123 -49 183 -49 c30 0 55 21 55 50h45c0 -58 -42 -92 -95 -92c-71 0 -123 49 -183 49c-30 0 -55 -21 -55 -50h-45z" glyph-name="otilde" horiz-adv-x="628" unicode="õ"/>
<glyph d="M314 40c120 0 209 90 209 210s-89 210 -209 210s-209 -90 -209 -210s90 -210 209 -210zM577 276h411c-11 108 -95 186 -204 186c-110 0 -197 -79 -207 -186zM314 -10c-150 0 -264 112 -264 260c0 147 115 260 264 260c110 0 199 -63 236 -156c37 93 126 156 234 156 c146 0 258 -111 258 -258c0 -8 -1 -15 -1 -22h-466c8 -108 95 -192 211 -192c86 0 157 43 182 107h54c-25 -90 -119 -155 -238 -155c-110 0 -199 63 -235 155c-37 -92 -127 -155 -235 -155z" glyph-name="oe" horiz-adv-x="1087" unicode="œ"/>
<glyph d="M356 40c114 0 201 91 201 210s-87 210 -201 210s-201 -91 -201 -210s87 -210 201 -210zM102 -200v700h51v-120c38 79 113 130 210 130c141 0 249 -112 249 -260c0 -147 -108 -260 -249 -260c-95 0 -169 50 -207 126v-316h-54z" glyph-name="p" horiz-adv-x="662" unicode="p"/>
<glyph d="M356 40c114 0 201 91 201 210s-87 210 -201 210s-201 -91 -201 -210s87 -210 201 -210zM102 -200v910h54v-326c38 76 112 126 207 126c141 0 249 -112 249 -260c0 -147 -108 -260 -249 -260c-95 0 -169 50 -207 126v-316h-54z" glyph-name="thorn" horiz-adv-x="662" unicode="þ"/>
<glyph d="M306 40c114 0 201 91 201 210s-87 210 -201 210c-113 0 -201 -91 -201 -210s88 -210 201 -210zM560 -200h-54v316c-38 -76 -112 -126 -207 -126c-141 0 -249 113 -249 260c0 148 108 260 249 260c97 0 173 -51 210 -130v120h51v-700z" glyph-name="q" horiz-adv-x="662" unicode="q"/>
<glyph d="M102 0v500h51v-114c33 74 98 124 176 124c105 0 173 -68 173 -183v-24h-54v23c0 86 -47 133 -126 133c-91 0 -166 -86 -166 -195v-264h-54z" glyph-name="r" horiz-adv-x="515" unicode="r"/>
<glyph d="M102 0v500h51v-114c33 74 98 124 176 124c105 0 173 -68 173 -183v-24h-54v23c0 86 -47 133 -126 133c-91 0 -166 -86 -166 -195v-264h-54zM287 585l66 160h54l-67 -160h-53z" glyph-name="racute" horiz-adv-x="515" unicode="ŕ"/>
<glyph d="M102 0v500h51v-114c33 74 98 124 176 124c105 0 173 -68 173 -183v-24h-54v23c0 86 -47 133 -126 133c-91 0 -166 -86 -166 -195v-264h-54zM137 745h53l113 -123l114 123h52l-144 -160h-44z" glyph-name="rcaron" horiz-adv-x="515" unicode="ř"/>
<glyph d="M121 -245h-33c20 29 38 67 40 94h-3c-24 0 -38 18 -38 35c0 23 18 41 43 41s44 -16 44 -46c0 -43 -28 -98 -53 -124zM102 0v500h51v-114c33 74 98 124 176 124c105 0 173 -68 173 -183v-24h-54v23c0 86 -47 133 -126 133c-91 0 -166 -86 -166 -195v-264h-54z" glyph-name="uni0157" horiz-adv-x="515" unicode="ŗ"/>
<glyph d="M279 -11c-116 0 -225 53 -242 175h55c16 -89 97 -129 187 -129c57 0 152 21 152 94c0 71 -76 78 -169 96c-108 18 -208 39 -208 140c0 108 109 146 206 146c108 0 208 -52 223 -169h-56c-15 85 -92 121 -175 121c-61 0 -144 -23 -144 -96c0 -65 76 -77 163 -92 c110 -19 216 -39 216 -144c0 -104 -116 -142 -208 -142z" glyph-name="s" horiz-adv-x="537" unicode="s"/>
<glyph d="M279 -11c-116 0 -225 53 -242 175h55c16 -89 97 -129 187 -129c57 0 152 21 152 94c0 71 -76 78 -169 96c-108 18 -208 39 -208 140c0 108 109 146 206 146c108 0 208 -52 223 -169h-56c-15 85 -92 121 -175 121c-61 0 -144 -23 -144 -96c0 -65 76 -77 163 -92 c110 -19 216 -39 216 -144c0 -104 -116 -142 -208 -142zM245 585l66 160h54l-67 -160h-53z" glyph-name="sacute" horiz-adv-x="537" unicode="ś"/>
<glyph d="M279 -11c-116 0 -225 53 -242 175h55c16 -89 97 -129 187 -129c57 0 152 21 152 94c0 71 -76 78 -169 96c-108 18 -208 39 -208 140c0 108 109 146 206 146c108 0 208 -52 223 -169h-56c-15 85 -92 121 -175 121c-61 0 -144 -23 -144 -96c0 -65 76 -77 163 -92 c110 -19 216 -39 216 -144c0 -104 -116 -142 -208 -142zM95 745h53l113 -123l114 123h52l-144 -160h-44z" glyph-name="scaron" horiz-adv-x="537" unicode="š"/>
<glyph d="M307 -85l-66 -160h-54l67 160h53zM279 -11c-116 0 -225 53 -242 175h55c16 -89 97 -129 187 -129c57 0 152 21 152 94c0 71 -76 78 -169 96c-108 18 -208 39 -208 140c0 108 109 146 206 146c108 0 208 -52 223 -169h-56c-15 85 -92 121 -175 121 c-61 0 -144 -23 -144 -96c0 -65 76 -77 163 -92c110 -19 216 -39 216 -144c0 -104 -116 -142 -208 -142z" glyph-name="scedilla" horiz-adv-x="537" unicode="ş"/>
<glyph d="M272 -245h-33c20 29 38 67 40 94h-3c-24 0 -38 18 -38 35c0 23 18 41 43 41s44 -16 44 -46c0 -43 -28 -98 -53 -124zM279 -11c-116 0 -225 53 -242 175h55c16 -89 97 -129 187 -129c57 0 152 21 152 94c0 71 -76 78 -169 96c-108 18 -208 39 -208 140 c0 108 109 146 206 146c108 0 208 -52 223 -169h-56c-15 85 -92 121 -175 121c-61 0 -144 -23 -144 -96c0 -65 76 -77 163 -92c110 -19 216 -39 216 -144c0 -104 -116 -142 -208 -142z" glyph-name="uni0219" horiz-adv-x="537" unicode="ș"/>
<glyph d="M151 -200v650h-105v50h105v59c0 109 83 181 219 181c132 0 218 -69 218 -181v-95c-27 2 -49 3 -70 3c-64 0 -152 -22 -152 -97c0 -64 75 -76 162 -92c107 -20 208 -42 208 -143c0 -107 -114 -146 -203 -146c-111 0 -214 52 -229 173h51c15 -88 94 -126 178 -126 c57 0 150 21 150 95c0 72 -76 81 -172 98c-94 16 -196 42 -196 139c0 107 109 142 194 143h26v47c0 87 -68 132 -165 132c-98 0 -166 -46 -166 -139c0 -23 1 -48 1 -87v-664h-54z" glyph-name="germandbls" horiz-adv-x="761" unicode="ß"/>
<glyph d="M325 -10c-120 0 -174 58 -174 162v298h-125v50h102c16 0 25 9 25 25v95h53l-1 -120h230v-50h-230v-293c0 -81 38 -117 121 -117c35 0 73 7 109 17v-49c-31 -9 -78 -18 -110 -18z" glyph-name="t" horiz-adv-x="475" unicode="t"/>
<glyph d="M435 452h-230v-179h230v-45h-230v-71c0 -81 38 -117 121 -117c35 0 73 7 109 17v-49c-31 -9 -78 -18 -110 -18c-120 0 -174 58 -174 162v76h-124v45h124v179h-125v48h102c16 0 25 9 25 25v95h53l-1 -120h230v-48z" glyph-name="tbar" horiz-adv-x="475" unicode="ŧ"/>
<glyph d="M325 -10c-120 0 -174 58 -174 162v298h-125v50h102c16 0 25 9 25 25v95h53l-1 -120h230v-50h-230v-293c0 -81 38 -117 121 -117c35 0 73 7 109 17v-49c-31 -9 -78 -18 -110 -18zM274 540v160h50l-4 -160h-46z" glyph-name="tcaron" horiz-adv-x="475" unicode="ť"/>
<glyph d="M330 -85l-66 -160h-54l67 160h53zM325 -10c-120 0 -174 58 -174 162v298h-125v50h102c16 0 25 9 25 25v95h53l-1 -120h230v-50h-230v-293c0 -81 38 -117 121 -117c35 0 73 7 109 17v-49c-31 -9 -78 -18 -110 -18z" glyph-name="uni0163" horiz-adv-x="475" unicode="ţ"/>
<glyph d="M295 -245h-33c20 29 38 67 40 94h-3c-24 0 -38 18 -38 35c0 23 18 41 43 41s44 -16 44 -46c0 -43 -28 -98 -53 -124zM325 -10c-120 0 -174 58 -174 162v298h-125v50h102c16 0 25 9 25 25v95h53l-1 -120h230v-50h-230v-293c0 -81 38 -117 121 -117c35 0 73 7 109 17v-49 c-31 -9 -78 -18 -110 -18z" glyph-name="uni021B" horiz-adv-x="475" unicode="ț"/>
<glyph d="M313 -10c-136 0 -221 92 -221 243v267h54v-260c0 -125 66 -199 174 -199c104 0 184 85 184 199v260h54v-500h-51v113c-36 -75 -107 -123 -194 -123z" glyph-name="u" horiz-adv-x="660" unicode="u"/>
<glyph d="M313 -10c-136 0 -221 92 -221 243v267h54v-260c0 -125 66 -199 174 -199c104 0 184 85 184 199v260h54v-500h-51v113c-36 -75 -107 -123 -194 -123zM304 585l66 160h54l-67 -160h-53z" glyph-name="uacute" horiz-adv-x="660" unicode="ú"/>
<glyph d="M313 -10c-136 0 -221 92 -221 243v267h54v-260c0 -125 66 -199 174 -199c104 0 184 85 184 199v260h54v-500h-51v113c-36 -75 -107 -123 -194 -123zM486 585h-53l-113 123l-114 -123h-52l144 160h44z" glyph-name="ucircumflex" horiz-adv-x="660" unicode="û"/>
<glyph d="M313 -10c-136 0 -221 92 -221 243v267h54v-260c0 -125 66 -199 174 -199c104 0 184 85 184 199v260h54v-500h-51v113c-36 -75 -107 -123 -194 -123zM383 577l-31 168h72l-32 -168h-9zM247 577l-31 168h72l-32 -168h-9z" glyph-name="udieresis" horiz-adv-x="660" unicode="ü"/>
<glyph d="M313 -10c-136 0 -221 92 -221 243v267h54v-260c0 -125 66 -199 174 -199c104 0 184 85 184 199v260h54v-500h-51v113c-36 -75 -107 -123 -194 -123zM337 585h-54l-67 160h55z" glyph-name="ugrave" horiz-adv-x="660" unicode="ù"/>
<glyph d="M313 -10c-136 0 -221 92 -221 243v267h54v-260c0 -125 66 -199 174 -199c104 0 184 85 184 199v260h54v-500h-51v113c-36 -75 -107 -123 -194 -123zM361 585l60 160h49l-61 -160h-48zM225 585l60 160h49l-61 -160h-48z" glyph-name="uhungarumlaut" horiz-adv-x="660" unicode="ű"/>
<glyph d="M313 -10c-136 0 -221 92 -221 243v267h54v-260c0 -125 66 -199 174 -199c104 0 184 85 184 199v260h54v-500h-51v113c-36 -75 -107 -123 -194 -123zM160 694h320v-48h-320v48z" glyph-name="umacron" horiz-adv-x="660" unicode="ū"/>
<glyph d="M559 -85l-66 -160h-54l67 160h53zM313 -10c-136 0 -221 92 -221 243v267h54v-260c0 -125 66 -199 174 -199c104 0 184 85 184 199v260h54v-500h-51v113c-36 -75 -107 -123 -194 -123z" glyph-name="uogonek" horiz-adv-x="660" unicode="ų"/>
<glyph d="M313 -10c-136 0 -221 92 -221 243v267h54v-260c0 -125 66 -199 174 -199c104 0 184 85 184 199v260h54v-500h-51v113c-36 -75 -107 -123 -194 -123zM320 618c46 0 83 38 83 83c0 46 -37 84 -83 84c-47 0 -83 -37 -83 -84c0 -46 36 -83 83 -83zM320 576 c-70 0 -125 56 -125 125s55 126 125 126c69 0 125 -57 125 -126s-56 -125 -125 -125z" glyph-name="uring" horiz-adv-x="660" unicode="ů"/>
<glyph d="M233 0l-224 500h62l199 -452h2l199 452h61l-225 -500h-74z" glyph-name="v" horiz-adv-x="540" unicode="v"/>
<glyph d="M188 0l-165 500h55l146 -439l147 439h57l148 -439l145 439h54l-165 -500h-64l-147 435l-146 -435h-65z" glyph-name="w" horiz-adv-x="798" unicode="w"/>
<glyph d="M188 0l-165 500h55l146 -439l147 439h57l148 -439l145 439h54l-165 -500h-64l-147 435l-146 -435h-65zM383 585l66 160h54l-67 -160h-53z" glyph-name="wacute" horiz-adv-x="798" unicode="ẃ"/>
<glyph d="M188 0l-165 500h55l146 -439l147 439h57l148 -439l145 439h54l-165 -500h-64l-147 435l-146 -435h-65zM565 585h-53l-113 123l-114 -123h-52l144 160h44z" glyph-name="wcircumflex" horiz-adv-x="798" unicode="ŵ"/>
<glyph d="M188 0l-165 500h55l146 -439l147 439h57l148 -439l145 439h54l-165 -500h-64l-147 435l-146 -435h-65zM462 577l-31 168h72l-32 -168h-9zM326 577l-31 168h72l-32 -168h-9z" glyph-name="wdieresis" horiz-adv-x="798" unicode="ẅ"/>
<glyph d="M188 0l-165 500h55l146 -439l147 439h57l148 -439l145 439h54l-165 -500h-64l-147 435l-146 -435h-65zM416 585h-54l-67 160h55z" glyph-name="wgrave" horiz-adv-x="798" unicode="ẁ"/>
<glyph d="M26 0l218 254l-210 246h67l178 -207l180 207h64l-210 -244l218 -256h-66l-187 217l-188 -217h-64z" glyph-name="x" horiz-adv-x="557" unicode="x"/>
<glyph d="M178 -210c-87 0 -154 57 -154 160v27h51v-30c0 -67 42 -109 104 -109s101 41 101 106v14c0 30 -3 53 -17 79l-250 463h62l216 -407c5 -8 10 -23 12 -36c3 14 6 25 11 36l171 407h57l-192 -451c-12 -28 -17 -48 -17 -80v-24c0 -96 -64 -155 -155 -155z" glyph-name="y" horiz-adv-x="551" unicode="y"/>
<glyph d="M178 -210c-87 0 -154 57 -154 160v27h51v-30c0 -67 42 -109 104 -109s101 41 101 106v14c0 30 -3 53 -17 79l-250 463h62l216 -407c5 -8 10 -23 12 -36c3 14 6 25 11 36l171 407h57l-192 -451c-12 -28 -17 -48 -17 -80v-24c0 -96 -64 -155 -155 -155zM265 585l66 160h54 l-67 -160h-53z" glyph-name="yacute" horiz-adv-x="551" unicode="ý"/>
<glyph d="M178 -210c-87 0 -154 57 -154 160v27h51v-30c0 -67 42 -109 104 -109s101 41 101 106v14c0 30 -3 53 -17 79l-250 463h62l216 -407c5 -8 10 -23 12 -36c3 14 6 25 11 36l171 407h57l-192 -451c-12 -28 -17 -48 -17 -80v-24c0 -96 -64 -155 -155 -155zM447 585h-53 l-113 123l-114 -123h-52l144 160h44z" glyph-name="ycircumflex" horiz-adv-x="551" unicode="ŷ"/>
<glyph d="M178 -210c-87 0 -154 57 -154 160v27h51v-30c0 -67 42 -109 104 -109s101 41 101 106v14c0 30 -3 53 -17 79l-250 463h62l216 -407c5 -8 10 -23 12 -36c3 14 6 25 11 36l171 407h57l-192 -451c-12 -28 -17 -48 -17 -80v-24c0 -96 -64 -155 -155 -155zM344 577l-31 168h72 l-32 -168h-9zM208 577l-31 168h72l-32 -168h-9z" glyph-name="ydieresis" horiz-adv-x="551" unicode="ÿ"/>
<glyph d="M178 -210c-87 0 -154 57 -154 160v27h51v-30c0 -67 42 -109 104 -109s101 41 101 106v14c0 30 -3 53 -17 79l-250 463h62l216 -407c5 -8 10 -23 12 -36c3 14 6 25 11 36l171 407h57l-192 -451c-12 -28 -17 -48 -17 -80v-24c0 -96 -64 -155 -155 -155zM298 585h-54 l-67 160h55z" glyph-name="ygrave" horiz-adv-x="551" unicode="ỳ"/>
<glyph d="M41 0v45l358 405h-343v50h414v-45l-358 -405h359v-50h-430z" glyph-name="z" horiz-adv-x="520" unicode="z"/>
<glyph d="M41 0v45l358 405h-343v50h414v-45l-358 -405h359v-50h-430zM284 585l66 160h54l-67 -160h-53z" glyph-name="zacute" horiz-adv-x="520" unicode="ź"/>
<glyph d="M41 0v45l358 405h-343v50h414v-45l-358 -405h359v-50h-430zM134 745h53l113 -123l114 123h52l-144 -160h-44z" glyph-name="zcaron" horiz-adv-x="520" unicode="ž"/>
<glyph d="M41 0v45l358 405h-343v50h414v-45l-358 -405h359v-50h-430zM295 577l-35 168h80l-35 -168h-10z" glyph-name="zdotaccent" horiz-adv-x="520" unicode="ż"/>
<glyph d="M350 -163c144 0 231 44 231 113c0 75 -80 115 -231 115c-143 0 -229 -44 -229 -115c0 -69 86 -113 229 -113zM361 233c124 0 202 46 202 116c0 72 -77 117 -202 117c-126 0 -204 -45 -204 -117c0 -70 76 -116 204 -116zM350 -210c-175 0 -284 60 -284 157 c0 67 53 115 143 136c-104 15 -193 44 -193 132c0 35 30 70 74 70c12 0 22 0 31 -3c-12 19 -19 42 -19 66c0 100 100 162 259 162c157 0 258 -62 258 -162c0 -98 -102 -159 -258 -159c-167 0 -177 63 -252 63c-26 0 -42 -18 -42 -37c0 -85 141 -97 287 -102 c158 -5 282 -41 282 -162c0 -98 -112 -161 -286 -161z" glyph-name="g.alt" horiz-adv-x="662"/>
<glyph d="M151 0v450h-105v50h105v62c0 109 67 178 178 178c94 0 162 -61 162 -154h-52v3c-1 61 -46 103 -111 103c-75 0 -126 -44 -126 -130c0 -20 1 -41 2 -62h360v-50h-359v-450h-54z" glyph-name="f.long" horiz-adv-x="451"/>
<glyph d="M102 0v500h672v-500h-54v450h-255v-450h-54v450h-255v-450h-54z" glyph-name="m.ss03" horiz-adv-x="876"/>
<glyph d="M102 0v500h440v-500h-54v449h-332v-449h-54z" glyph-name="n.ss03" horiz-adv-x="644"/>
<glyph d="M102 0v500h440v-500h-54v449h-332v-449h-54zM306 585l66 160h54l-67 -160h-53z" glyph-name="nacute.ss03" horiz-adv-x="644"/>
<glyph d="M102 0v500h440v-500h-54v449h-332v-449h-54zM156 745h53l113 -123l114 123h52l-144 -160h-44z" glyph-name="ncaron.ss03" horiz-adv-x="644"/>
<glyph d="M313 -245h-33c20 29 38 67 40 94h-3c-24 0 -38 18 -38 35c0 23 18 41 43 41s44 -16 44 -46c0 -43 -28 -98 -53 -124zM102 0v500h440v-500h-54v449h-332v-449h-54z" glyph-name="uni0146.ss03" horiz-adv-x="644"/>
<glyph d="M367 -210c-96 0 -161 52 -161 124h54v-1c0 -45 45 -75 107 -75c72 0 122 41 122 132c0 39 -1 86 -1 136v343h-332v-449h-54v500h440v-530c0 -109 -64 -180 -175 -180z" glyph-name="eng.ss03" horiz-adv-x="644"/>
<glyph d="M102 0v500h440v-500h-54v449h-332v-449h-54zM133 621c0 58 42 92 95 92c71 0 123 -49 183 -49c30 0 55 21 55 50h45c0 -58 -42 -92 -95 -92c-71 0 -123 49 -183 49c-30 0 -55 -21 -55 -50h-45z" glyph-name="ntilde.ss03" horiz-adv-x="644"/>
<glyph d="M102 0v500h348v-51h-294v-449h-54z" glyph-name="r.ss03" horiz-adv-x="462"/>
<glyph d="M102 0v500h348v-51h-294v-449h-54zM258 585l66 160h54l-67 -160h-53z" glyph-name="racute.ss03" horiz-adv-x="462"/>
<glyph d="M102 0v500h348v-51h-294v-449h-54zM108 745h53l113 -123l114 123h52l-144 -160h-44z" glyph-name="rcaron.ss03" horiz-adv-x="462"/>
<glyph d="M120 -245h-33c20 29 38 67 40 94h-3c-24 0 -38 18 -38 35c0 23 18 41 43 41s44 -16 44 -46c0 -43 -28 -98 -53 -124zM102 0v500h348v-51h-294v-449h-54z" glyph-name="uni0157.ss03" horiz-adv-x="462"/>
<glyph d="M37 0v50h359l-355 405v45h411v-50h-341l356 -405v-45h-430z" glyph-name="s.ss03" horiz-adv-x="508"/>
<glyph d="M37 0v50h359l-355 405v45h411v-50h-341l356 -405v-45h-430zM236 585l66 160h54l-67 -160h-53z" glyph-name="sacute.ss03" horiz-adv-x="508"/>
<glyph d="M37 0v50h359l-355 405v45h411v-50h-341l356 -405v-45h-430zM86 745h53l113 -123l114 123h52l-144 -160h-44z" glyph-name="scaron.ss03" horiz-adv-x="508"/>
<glyph d="M278 -85l-66 -160h-54l67 160h53zM37 0v50h359l-355 405v45h411v-50h-341l356 -405v-45h-430z" glyph-name="scedilla.ss03" horiz-adv-x="508"/>
<glyph d="M243 -245h-33c20 29 38 67 40 94h-3c-24 0 -38 18 -38 35c0 23 18 41 43 41s44 -16 44 -46c0 -43 -28 -98 -53 -124zM37 0v50h359l-355 405v45h411v-50h-341l356 -405v-45h-430z" glyph-name="uni0219.ss03" horiz-adv-x="508"/>
<glyph d="M151 -200v650h-105v50h105v59c0 109 83 181 219 181c132 0 218 -69 218 -181v-109h-199l348 -405v-45h-422v50h351l-347 405v45h216v58c0 87 -68 132 -165 132c-98 0 -166 -46 -166 -139c0 -23 1 -48 1 -87v-664h-54z" glyph-name="germandbls.ss03" horiz-adv-x="749"/>
<glyph d="M542 500v-500h-440v500h54v-449h332v449h54z" glyph-name="u.ss03" horiz-adv-x="644"/>
<glyph d="M542 500v-500h-440v500h54v-449h332v449h54zM306 585l66 160h54l-67 -160h-53z" glyph-name="uacute.ss03" horiz-adv-x="644"/>
<glyph d="M542 500v-500h-440v500h54v-449h332v449h54zM488 585h-53l-113 123l-114 -123h-52l144 160h44z" glyph-name="ucircumflex.ss03" horiz-adv-x="644"/>
<glyph d="M542 500v-500h-440v500h54v-449h332v449h54zM385 577l-31 168h72l-32 -168h-9zM249 577l-31 168h72l-32 -168h-9z" glyph-name="udieresis.ss03" horiz-adv-x="644"/>
<glyph d="M542 500v-500h-440v500h54v-449h332v449h54zM339 585h-54l-67 160h55z" glyph-name="ugrave.ss03" horiz-adv-x="644"/>
<glyph d="M542 500v-500h-440v500h54v-449h332v449h54zM363 585l60 160h49l-61 -160h-48zM227 585l60 160h49l-61 -160h-48z" glyph-name="uhungarumlaut.ss03" horiz-adv-x="644"/>
<glyph d="M542 500v-500h-440v500h54v-449h332v449h54zM162 694h320v-48h-320v48z" glyph-name="umacron.ss03" horiz-adv-x="644"/>
<glyph d="M543 -85l-66 -160h-54l67 160h53zM542 500v-500h-440v500h54v-449h332v449h54z" glyph-name="uogonek.ss03" horiz-adv-x="644"/>
<glyph d="M542 500v-500h-440v500h54v-449h332v449h54zM322 618c46 0 83 38 83 83c0 46 -37 84 -83 84c-47 0 -83 -37 -83 -84c0 -46 36 -83 83 -83zM322 576c-70 0 -125 56 -125 125s55 126 125 126c69 0 125 -57 125 -126s-56 -125 -125 -125z" glyph-name="uring.ss03" horiz-adv-x="644"/>
<glyph d="M102 0v500h54v-450h255v450h54v-450h255v450h54v-500h-672z" glyph-name="w.ss03" horiz-adv-x="876"/>
<glyph d="M102 0v500h54v-450h255v450h54v-450h255v450h54v-500h-672zM422 585l66 160h54l-67 -160h-53z" glyph-name="wacute.ss03" horiz-adv-x="876"/>
<glyph d="M102 0v500h54v-450h255v450h54v-450h255v450h54v-500h-672zM604 585h-53l-113 123l-114 -123h-52l144 160h44z" glyph-name="wcircumflex.ss03" horiz-adv-x="876"/>
<glyph d="M102 0v500h54v-450h255v450h54v-450h255v450h54v-500h-672zM501 577l-31 168h72l-32 -168h-9zM365 577l-31 168h72l-32 -168h-9z" glyph-name="wdieresis.ss03" horiz-adv-x="876"/>
<glyph d="M102 0v500h54v-450h255v450h54v-450h255v450h54v-500h-672zM455 585h-54l-67 160h55z" glyph-name="wgrave.ss03" horiz-adv-x="876"/>
<glyph d="M243 -200v200l-234 500h58l204 -443l204 443h57l-235 -500v-200h-54z" glyph-name="y.ss04" horiz-adv-x="540"/>
<glyph d="M243 -200v200l-234 500h58l204 -443l204 443h57l-235 -500v-200h-54zM255 585l66 160h54l-67 -160h-53z" glyph-name="yacute.ss04" horiz-adv-x="540"/>
<glyph d="M243 -200v200l-234 500h58l204 -443l204 443h57l-235 -500v-200h-54zM437 585h-53l-113 123l-114 -123h-52l144 160h44z" glyph-name="ycircumflex.ss04" horiz-adv-x="540"/>
<glyph d="M243 -200v200l-234 500h58l204 -443l204 443h57l-235 -500v-200h-54zM334 577l-31 168h72l-32 -168h-9zM198 577l-31 168h72l-32 -168h-9z" glyph-name="ydieresis.ss04" horiz-adv-x="540"/>
<glyph d="M243 -200v200l-234 500h58l204 -443l204 443h57l-235 -500v-200h-54zM288 585h-54l-67 160h55z" glyph-name="ygrave.ss04" horiz-adv-x="540"/>
<glyph d="M184 257h325l-162 390h-1zM15 0l293 700h79l293 -700h-65l-86 206h-365l-86 -206h-63z" glyph-name="uni0410" horiz-adv-x="695" unicode="А"/>
<glyph d="M186 53h189c120 0 191 56 191 146c0 91 -71 146 -191 146h-189v-292zM128 0v700h458v-54h-400v-248h192c153 0 248 -76 248 -199s-95 -199 -248 -199h-250z" glyph-name="uni0411" horiz-adv-x="695" unicode="Б"/>
<glyph d="M188 54h228c109 0 173 51 173 135s-67 135 -173 135h-228v-270zM188 378h203c108 0 172 51 172 134c0 84 -64 134 -172 134h-203v-268zM128 0v700h263c143 0 231 -69 231 -183c0 -76 -40 -132 -116 -159v-5c93 -24 143 -84 143 -168c0 -114 -89 -185 -231 -185h-290z" glyph-name="uni0412" horiz-adv-x="708" unicode="В"/>
<glyph d="M128 0v700h444v-57h-384v-643h-60z" glyph-name="uni0413" horiz-adv-x="604" unicode="Г"/>
<glyph d="M514 861h58v-218h-384v-643h-60v700h386v161z" glyph-name="uni0490" horiz-adv-x="604" unicode="Ґ"/>
<glyph d="M150 57h422v588h-370v-123c0 -199 -15 -329 -52 -465zM22 -163v220h69c38 136 52 264 52 465v40v138h488v-643h88v-220h-58v163h-581v-163h-58z" glyph-name="uni0414" horiz-adv-x="772" unicode="Д"/>
<glyph d="M128 0v700h402v-54h-343v-269h252v-54h-252v-269h387v-54h-446z" glyph-name="uni0415" horiz-adv-x="608" unicode="Е"/>
<glyph d="M128 0v700h402v-54h-343v-269h252v-54h-252v-269h387v-54h-446zM392 777l-31 168h72l-32 -168h-9zM256 777l-31 168h72l-32 -168h-9z" glyph-name="uni0401" horiz-adv-x="608" unicode="Ё"/>
<glyph d="M32 0l261 353l-257 347h71l239 -322h133v322h60v-322h134l239 322h70l-257 -347l261 -353h-73l-239 322h-135v-322h-60v322h-135l-239 -322h-73z" glyph-name="uni0416" horiz-adv-x="1019" unicode="Ж"/>
<glyph d="M350 -15c-169 0 -296 95 -312 253h58c18 -122 111 -199 253 -199c130 0 213 56 213 147c0 80 -73 138 -175 138h-78v53h78c92 0 163 59 163 138c0 88 -83 146 -203 146c-130 0 -218 -73 -234 -189h-59c19 154 136 243 295 243c152 0 261 -76 261 -195 c0 -79 -50 -140 -129 -167c81 -23 141 -90 141 -171c0 -122 -108 -197 -272 -197z" glyph-name="uni0417" horiz-adv-x="659" unicode="З"/>
<glyph d="M128 0v700h60v-610l459 610h65v-700h-60v615l-462 -615h-62z" glyph-name="uni0418" horiz-adv-x="840" unicode="И"/>
<glyph d="M128 0v700h60v-610l459 610h65v-700h-60v615l-462 -615h-62zM420 776c-108 0 -178 65 -178 161v8h47v-8c0 -71 50 -116 131 -116s131 45 131 116v8h48v-8c0 -96 -71 -161 -179 -161z" glyph-name="uni0419" horiz-adv-x="840" unicode="Й"/>
<glyph d="M128 0v700h60v-322h133l263 322h70l-283 -346l288 -354h-76l-263 322h-132v-322h-60z" glyph-name="uni041A" horiz-adv-x="691" unicode="К"/>
<glyph d="M73 -12c-33 0 -51 5 -66 12v59c21 -7 33 -11 61 -11c40 0 72 30 86 81c25 94 33 256 33 456v115h481v-700h-60v642h-363v-77c0 -202 -10 -377 -42 -472c-22 -67 -66 -105 -130 -105z" glyph-name="uni041B" horiz-adv-x="796" unicode="Л"/>
<glyph d="M128 0v700h99l272 -634l271 634h98v-700h-59v648l-276 -648h-71l-275 648v-648h-59z" glyph-name="uni041C" horiz-adv-x="996" unicode="М"/>
<glyph d="M128 0v700h60v-322h444v322h60v-700h-60v322h-444v-322h-60z" glyph-name="uni041D" horiz-adv-x="820" unicode="Н"/>
<glyph d="M426 42c173 0 302 131 302 308s-129 308 -302 308s-301 -131 -301 -308s128 -308 301 -308zM426 -15c-207 0 -362 156 -362 365s155 365 362 365s362 -156 362 -365s-155 -365 -362 -365z" glyph-name="uni041E" horiz-adv-x="852" unicode="О"/>
<glyph d="M128 0v700h564v-700h-60v643h-444v-643h-60z" glyph-name="uni041F" horiz-adv-x="820" unicode="П"/>
<glyph d="M188 335h147c125 0 199 60 199 156c0 97 -74 156 -199 156h-147v-312zM128 0v700h206c162 0 260 -79 260 -208s-98 -208 -260 -208h-146v-284h-60z" glyph-name="uni0420" horiz-adv-x="648" unicode="Р"/>
<glyph d="M422 -15c-208 0 -358 152 -358 365s149 365 358 365c182 0 315 -114 338 -286h-60c-24 140 -130 229 -277 229c-175 0 -298 -126 -298 -308c0 -181 123 -308 298 -308c148 0 253 89 277 229h60c-24 -172 -157 -286 -338 -286z" glyph-name="uni0421" horiz-adv-x="818" unicode="С"/>
<glyph d="M301 0v642h-279v58h618v-58h-279v-642h-60z" glyph-name="uni0422" horiz-adv-x="662" unicode="Т"/>
<glyph d="M260 -15c-90 0 -166 67 -166 178v28h58v-28c0 -74 45 -126 108 -126c56 0 91 32 91 81c0 25 -8 53 -27 84l-310 498h70l274 -450c13 -21 27 -50 32 -84l182 534h61l-194 -555c-36 -105 -87 -160 -179 -160z" glyph-name="uni0423" horiz-adv-x="645" unicode="У"/>
<glyph d="M260 -15c-90 0 -166 67 -166 178v28h58v-28c0 -74 45 -126 108 -126c56 0 91 32 91 81c0 25 -8 53 -27 84l-310 498h70l274 -450c13 -21 27 -50 32 -84l182 534h61l-194 -555c-36 -105 -87 -160 -179 -160zM344 776c-108 0 -178 65 -178 161v8h47v-8 c0 -71 50 -116 131 -116s131 45 131 116v8h48v-8c0 -96 -71 -161 -179 -161z" glyph-name="uni040E" horiz-adv-x="645" unicode="Ў"/>
<glyph d="M528 158h85c163 0 252 73 252 201s-89 201 -252 201h-85v-402zM383 158h85v402h-85c-163 0 -252 -73 -252 -201s89 -201 252 -201zM468 0v104h-85c-198 0 -313 94 -313 255s115 256 313 256h85v95h60v-95h85c198 0 313 -95 313 -256s-115 -255 -313 -255h-85v-104h-60z " glyph-name="uni0424" horiz-adv-x="996" unicode="Ф"/>
<glyph d="M22 0l282 356l-272 344h73l239 -299l238 299h72l-273 -343l283 -357h-73l-249 311l-249 -311h-71z" glyph-name="uni0425" horiz-adv-x="686" unicode="Х"/>
<glyph d="M544 0v284h-201c-161 0 -259 79 -259 208v208h60v-208c0 -92 67 -151 199 -151h201v359h60v-700h-60z" glyph-name="uni0427" horiz-adv-x="732" unicode="Ч"/>
<glyph d="M719 -163v163h-591v700h60v-643h444v643h60v-643h85v-220h-58z" glyph-name="uni0426" horiz-adv-x="830" unicode="Ц"/>
<glyph d="M128 0v700h60v-643h338v643h60v-643h338v643h60v-700h-856z" glyph-name="uni0428" horiz-adv-x="1112" unicode="Ш"/>
<glyph d="M1012 -163v163h-884v700h60v-643h338v643h60v-643h338v643h60v-643h86v-220h-58z" glyph-name="uni0429" horiz-adv-x="1123" unicode="Щ"/>
<glyph d="M187 54h154c125 0 199 59 199 155c0 97 -74 155 -199 155h-154v-310zM128 0v700h59v-284h154c160 0 259 -79 259 -208s-99 -208 -259 -208h-213z" glyph-name="uni042C" horiz-adv-x="666" unicode="Ь"/>
<glyph d="M445 54c125 0 199 59 199 155c0 97 -74 155 -199 155h-154v-310h154zM445 416c160 0 259 -79 259 -208s-99 -208 -259 -208h-213v643h-210v57h269v-284h154z" glyph-name="uni042A" horiz-adv-x="770" unicode="Ъ"/>
<glyph d="M187 54h154c125 0 199 59 199 155c0 97 -74 155 -199 155h-154v-310zM756 0v700h60v-700h-60zM128 0v700h59v-284h154c160 0 259 -79 259 -208s-99 -208 -259 -208h-213z" glyph-name="uni042B" horiz-adv-x="944" unicode="Ы"/>
<glyph d="M421 -15c-207 0 -357 152 -357 365s150 365 357 365c180 0 312 -110 339 -278h-60c-26 136 -132 223 -278 223c-167 0 -287 -115 -297 -283h295v-54h-295c10 -168 130 -283 297 -283c146 0 252 87 278 223h60c-27 -167 -159 -278 -339 -278z" glyph-name="uni0404" horiz-adv-x="818" unicode="Є"/>
<glyph d="M381 -15c-179 0 -316 111 -343 278h59c27 -136 135 -224 283 -224c164 0 282 116 292 284h-295v54h295c-10 168 -128 284 -292 284c-148 0 -256 -88 -283 -224h-59c27 168 166 278 343 278c205 0 352 -152 352 -365s-147 -365 -352 -365z" glyph-name="uni042D" horiz-adv-x="797" unicode="Э"/>
<glyph d="M128 0v700h60v-700h-60z" glyph-name="uni0406" horiz-adv-x="316" unicode="І"/>
<glyph d="M128 0v700h60v-700h-60zM221 777l-31 168h72l-32 -168h-9zM85 777l-31 168h72l-32 -168h-9z" glyph-name="uni0407" horiz-adv-x="316" unicode="Ї"/>
<glyph d="M710 42c168 0 292 131 292 308s-124 308 -292 308c-167 0 -292 -131 -292 -308s125 -308 292 -308zM710 -15c-192 0 -338 142 -351 336h-171v-321h-60v700h60v-321h171c13 194 159 336 351 336c202 0 353 -156 353 -365s-151 -365 -353 -365z" glyph-name="uni042E" horiz-adv-x="1127" unicode="Ю"/>
<glyph d="M336 340h158v306h-158c-125 0 -199 -58 -199 -152c0 -95 74 -154 199 -154zM18 0l227 299c-106 24 -168 95 -168 196c0 127 99 205 260 205h217v-700h-60v288h-156c-10 0 -20 1 -29 2l-221 -290h-70z" glyph-name="uni042F" horiz-adv-x="682" unicode="Я"/>
<glyph d="M128 0v700h65l462 -614v614h57v-700h-64l-462 614v-614h-58z" glyph-name="uni041D.ss02" horiz-adv-x="840"/>
<glyph d="M560 -165v165h-510v52l474 591h-455v57h532v-52l-474 -591h491v-222h-58z" glyph-name="uni0417.ss03" horiz-adv-x="642"/>
<glyph d="M46 0v52l175 299l-173 297v52h531v-57h-460l171 -293l-171 -293h481v-57h-554z" glyph-name="uni0421.ss03" horiz-adv-x="616"/>
<glyph d="M128 0v700h856v-700h-60v642h-338v-642h-60v642h-338v-642h-60z" glyph-name="uni0422.ss03" horiz-adv-x="1112"/>
<glyph d="M308 0v266l-303 434h72l263 -374l262 374h69l-303 -434v-266h-60z" glyph-name="uni0423.ss04" horiz-adv-x="676"/>
<glyph d="M308 0v266l-303 434h72l263 -374l262 374h69l-303 -434v-266h-60zM338 776c-108 0 -178 65 -178 161v8h47v-8c0 -71 50 -116 131 -116s131 45 131 116v8h48v-8c0 -96 -71 -161 -179 -161z" glyph-name="uni040E.ss04" horiz-adv-x="676"/>
<glyph d="M224 34c125 0 220 89 220 198v33c-18 -17 -66 -26 -130 -30c-146 -10 -208 -44 -208 -110c0 -59 46 -91 118 -91zM216 -12c-106 0 -164 54 -164 134c0 113 126 147 261 156c78 5 129 16 129 50c0 80 -65 136 -155 136s-152 -51 -168 -138h-52c18 113 101 184 221 184 c125 0 206 -78 206 -200v-261h74v-49h-121v117c-37 -78 -127 -129 -231 -129z" glyph-name="uni0430" horiz-adv-x="606" unicode="а"/>
<glyph d="M317 38c115 0 202 83 202 192s-87 191 -202 191c-114 0 -202 -82 -202 -191s88 -192 202 -192zM320 -10c-146 0 -260 102 -260 253v131c4 187 123 268 272 268h140v68h50v-118h-193c-141 0 -220 -75 -220 -210v-38c36 74 120 124 216 124c141 0 249 -103 249 -237 c0 -137 -110 -241 -254 -241z" glyph-name="uni0431" horiz-adv-x="625" unicode="б"/>
<glyph d="M155 44h176c82 0 129 34 129 93c0 58 -49 91 -133 91h-172v-184zM155 272h155c83 0 132 34 132 91c0 59 -46 93 -125 93h-162v-184zM102 0v500h219c109 0 175 -47 175 -129c0 -57 -33 -97 -91 -115v-4c71 -16 110 -58 110 -120c0 -83 -67 -132 -181 -132h-232z" glyph-name="uni0432" horiz-adv-x="557" unicode="в"/>
<glyph d="M102 0v500h348v-51h-294v-449h-54z" glyph-name="uni0433" horiz-adv-x="462" unicode="г"/>
<glyph d="M102 -200v700h296v116h52v-167h-294v-649h-54z" glyph-name="uni0491" horiz-adv-x="462" unicode="ґ"/>
<glyph d="M122 50h307v401h-273v-78c0 -138 -10 -230 -34 -323zM16 -124v174h52c26 93 35 183 35 323v55v72h380v-450h68v-174h-52v124h-431v-124h-52z" glyph-name="uni0434" horiz-adv-x="592" unicode="д"/>
<glyph d="M516 276c-10 108 -94 186 -204 186s-197 -79 -207 -186h411zM313 -10c-152 0 -263 112 -263 259c0 148 115 261 262 261c146 0 258 -111 258 -258c0 -8 0 -15 -1 -22h-465c7 -108 94 -192 211 -192c85 0 156 43 182 107h54c-26 -90 -120 -155 -238 -155z" glyph-name="uni0435" horiz-adv-x="615" unicode="е"/>
<glyph d="M516 276c-10 108 -94 186 -204 186s-197 -79 -207 -186h411zM313 -10c-152 0 -263 112 -263 259c0 148 115 261 262 261c146 0 258 -111 258 -258c0 -8 0 -15 -1 -22h-465c7 -108 94 -192 211 -192c85 0 156 43 182 107h54c-26 -90 -120 -155 -238 -155zM367 577l-31 168 h72l-32 -168h-9zM231 577l-31 168h72l-32 -168h-9z" glyph-name="uni0451" horiz-adv-x="615" unicode="ё"/>
<glyph d="M24 0l202 252l-200 248h63l181 -224h98v434h54v-434h100l182 224h62l-201 -248l202 -252h-66l-181 225h-98v-225h-54v225h-97l-181 -225h-66z" glyph-name="uni0436" horiz-adv-x="791" unicode="ж"/>
<glyph d="M271 -12c-132 0 -232 72 -243 192h53c9 -88 81 -145 190 -145c101 0 160 39 160 104c0 48 -48 89 -128 89h-63v45h59c65 0 120 36 120 87c0 63 -57 105 -150 105c-102 0 -168 -54 -177 -142h-52c8 112 97 188 232 188c127 0 201 -63 201 -148c0 -50 -36 -91 -92 -110 c63 -16 105 -61 105 -116c0 -92 -86 -149 -215 -149z" glyph-name="uni0437" horiz-adv-x="528" unicode="з"/>
<glyph d="M102 0v500h54v-430l339 430h59v-500h-54v430l-339 -430h-59z" glyph-name="uni0438" horiz-adv-x="656" unicode="и"/>
<glyph d="M102 0v500h54v-430l339 430h59v-500h-54v430l-339 -430h-59zM328 576c-108 0 -178 65 -178 161v8h47v-8c0 -71 50 -116 131 -116s131 45 131 116v8h48v-8c0 -96 -71 -161 -179 -161z" glyph-name="uni0439" horiz-adv-x="656" unicode="й"/>
<glyph d="M102 0v710h54v-434h97l199 224h66l-220 -248l222 -252h-69l-199 225h-96v-225h-54z" glyph-name="uni043A" horiz-adv-x="544" unicode="к"/>
<glyph d="M58 -9c-20 0 -38 4 -52 10v52c14 -7 29 -11 43 -11c28 0 53 15 67 45c19 48 27 175 27 325v88h379v-500h-54v449h-274v-56c0 -152 -6 -279 -37 -339c-21 -42 -54 -63 -99 -63z" glyph-name="uni043B" horiz-adv-x="624" unicode="л"/>
<glyph d="M102 0v500h88l204 -438l204 438h86v-500h-53v451l-209 -451h-56l-211 452v-452h-53z" glyph-name="uni043C" horiz-adv-x="786" unicode="м"/>
<glyph d="M102 0v500h54v-224h332v224h54v-500h-54v224h-332v-224h-54z" glyph-name="uni043D" horiz-adv-x="644" unicode="н"/>
<glyph d="M314 40c120 0 209 90 209 210s-89 210 -209 210s-209 -90 -209 -210s90 -210 209 -210zM314 -10c-150 0 -264 112 -264 260c0 147 115 260 264 260c150 0 264 -112 264 -260c0 -147 -115 -260 -264 -260z" glyph-name="uni043E" horiz-adv-x="628" unicode="о"/>
<glyph d="M102 0v500h440v-500h-54v449h-332v-449h-54z" glyph-name="uni043F" horiz-adv-x="644" unicode="п"/>
<glyph d="M356 40c114 0 201 91 201 210s-87 210 -201 210s-201 -91 -201 -210s87 -210 201 -210zM102 -200v700h51v-120c38 79 113 130 210 130c141 0 249 -112 249 -260c0 -147 -108 -260 -249 -260c-95 0 -169 50 -207 126v-316h-54z" glyph-name="uni0440" horiz-adv-x="662" unicode="р"/>
<glyph d="M310 -10c-150 0 -260 112 -260 260s112 260 260 260c133 0 226 -78 246 -197h-53c-21 90 -92 147 -193 147c-118 0 -206 -91 -206 -210s88 -210 206 -210c101 0 173 57 193 147h53c-21 -119 -115 -197 -246 -197z" glyph-name="uni0441" horiz-adv-x="602" unicode="с"/>
<glyph d="M243 0v449h-214v51h481v-51h-213v-449h-54z" glyph-name="uni0442" horiz-adv-x="539" unicode="т"/>
<glyph d="M178 -210c-87 0 -154 57 -154 160v27h51v-30c0 -67 42 -109 104 -109s101 41 101 106v14c0 30 -3 53 -17 79l-250 463h62l216 -407c5 -8 10 -23 12 -36c3 14 6 25 11 36l171 407h57l-192 -451c-12 -28 -17 -48 -17 -80v-24c0 -96 -64 -155 -155 -155z" glyph-name="uni0443" horiz-adv-x="551" unicode="у"/>
<glyph d="M178 -210c-87 0 -154 57 -154 160v27h51v-30c0 -67 42 -109 104 -109s101 41 101 106v14c0 30 -3 53 -17 79l-250 463h62l216 -407c5 -8 10 -23 12 -36c3 14 6 25 11 36l171 407h57l-192 -451c-12 -28 -17 -48 -17 -80v-24c0 -96 -64 -155 -155 -155zM281 576 c-108 0 -178 65 -178 161v8h47v-8c0 -71 50 -116 131 -116s131 45 131 116v8h48v-8c0 -96 -71 -161 -179 -161z" glyph-name="uni045E" horiz-adv-x="551" unicode="ў"/>
<glyph d="M674 41c99 0 172 88 172 209s-73 209 -172 209c-100 0 -173 -88 -173 -209s73 -209 173 -209zM277 41c100 0 173 88 173 209s-73 209 -173 209c-99 0 -172 -88 -172 -209s73 -209 172 -209zM448 -200v309c-33 -73 -96 -119 -179 -119c-126 0 -219 110 -219 260 s93 260 219 260c83 0 146 -46 179 -119v319h54v-319c33 73 97 119 180 119c126 0 219 -110 219 -260s-93 -260 -219 -260c-83 0 -147 46 -180 119v-309h-54z" glyph-name="uni0444" horiz-adv-x="951" unicode="ф"/>
<glyph d="M26 0l218 254l-210 246h67l178 -207l180 207h64l-210 -244l218 -256h-66l-187 217l-188 -217h-64z" glyph-name="uni0445" horiz-adv-x="557" unicode="х"/>
<glyph d="M413 0v199h-161c-117 0 -189 57 -189 148v153h54v-148c0 -65 46 -102 138 -102h158v250h54v-500h-54z" glyph-name="uni0447" horiz-adv-x="569" unicode="ч"/>
<glyph d="M553 -124v124h-451v500h54v-450h328v450h54v-450h68v-174h-53z" glyph-name="uni0446" horiz-adv-x="647" unicode="ц"/>
<glyph d="M102 0v500h54v-450h255v450h54v-450h255v450h54v-500h-672z" glyph-name="uni0448" horiz-adv-x="876" unicode="ш"/>
<glyph d="M787 -124v124h-687v500h54v-450h255v450h54v-450h255v450h54v-450h67v-174h-52z" glyph-name="uni0449" horiz-adv-x="881" unicode="щ"/>
<glyph d="M157 48h126c86 0 136 39 136 103s-51 103 -136 103h-127zM102 0v500h54v-199h125c119 0 193 -57 193 -151c0 -93 -74 -150 -193 -150h-179z" glyph-name="uni044C" horiz-adv-x="523" unicode="ь"/>
<glyph d="M366 48c86 0 136 39 136 103s-51 103 -136 103h-126v-206h126zM364 301c119 0 193 -57 193 -151c0 -93 -74 -150 -193 -150h-179v449h-165v51h219l1 -199h124z" glyph-name="uni044A" horiz-adv-x="606" unicode="ъ"/>
<glyph d="M157 48h126c86 0 136 39 136 103s-51 103 -136 103h-127zM576 0v500h54v-500h-54zM102 0v500h54v-199h125c119 0 193 -57 193 -151c0 -93 -74 -150 -193 -150h-179z" glyph-name="uni044B" horiz-adv-x="732" unicode="ы"/>
<glyph d="M311 -10c-150 0 -261 111 -261 260s111 260 261 260c133 0 227 -78 248 -197h-53c-20 91 -92 149 -198 149c-111 0 -195 -81 -205 -188h209v-48h-209c10 -107 94 -188 205 -188c106 0 178 58 198 149h53c-21 -118 -115 -197 -248 -197z" glyph-name="uni0454" horiz-adv-x="605" unicode="є"/>
<glyph d="M300 -10c-136 0 -232 79 -254 197h52c20 -91 95 -149 203 -149c106 0 190 81 200 188h-208v48h208c-10 107 -94 188 -200 188c-108 0 -182 -58 -203 -149h-52c22 119 118 197 254 197c144 0 255 -111 255 -260s-111 -260 -255 -260z" glyph-name="uni044D" horiz-adv-x="605" unicode="э"/>
<glyph d="M102 0v500h54v-500h-54zM124 577l-35 168h80l-35 -168h-10z" glyph-name="uni0456" horiz-adv-x="258" unicode="і"/>
<glyph d="M102 0v500h54v-500h-54zM192 577l-31 168h72l-32 -168h-9zM56 577l-31 168h72l-32 -168h-9z" glyph-name="uni0457" horiz-adv-x="258" unicode="ї"/>
<glyph d="M537 41c114 0 200 91 200 209s-86 209 -200 209c-112 0 -200 -91 -200 -209s88 -209 200 -209zM537 -10c-136 0 -241 100 -252 235h-129v-225h-54v500h54v-224h129c12 134 117 234 252 234c145 0 255 -112 255 -260c0 -147 -110 -260 -255 -260z" glyph-name="uni044E" horiz-adv-x="842" unicode="ю"/>
<glyph d="M255 239h141v215h-141c-83 0 -133 -41 -133 -108c0 -66 51 -107 133 -107zM24 0l159 204c-73 18 -115 70 -115 143c0 95 71 153 189 153h193v-500h-54v193h-143h-15l-150 -193h-64z" glyph-name="uni044F" horiz-adv-x="552" unicode="я"/>
<glyph d="M102 0v500h296v116h52v-167h-294v-449h-54z" glyph-name="uni0491.ss01" horiz-adv-x="462"/>
<glyph d="M24 0l202 252l-200 248h63l181 -224h98v224h54v-224h100l182 224h62l-201 -248l202 -252h-66l-181 225h-98v-225h-54v225h-97l-181 -225h-66z" glyph-name="uni0436.ss01" horiz-adv-x="791"/>
<glyph d="M102 0v500h54v-224h97l199 224h66l-220 -248l222 -252h-69l-199 225h-96v-225h-54z" glyph-name="uni043A.ss01" horiz-adv-x="544"/>
<glyph d="M102 0v500h60l338 -427v427h54v-500h-60l-338 427v-427h-54z" glyph-name="uni043D.ss02" horiz-adv-x="656"/>
<glyph d="M424 -124v124h-383v45l358 405h-343v50h414v-45l-358 -405h365v-174h-53z" glyph-name="uni0437.ss03" horiz-adv-x="509"/>
<glyph d="M48 0v43l132 207l-134 207v43h389v-50h-321l127 -200l-126 -200h338v-50h-405z" glyph-name="uni0441.ss03" horiz-adv-x="474"/>
<glyph d="M102 0v500h672v-500h-54v450h-255v-450h-54v450h-255v-450h-54z" glyph-name="uni0442.ss03" horiz-adv-x="876"/>
<glyph d="M243 -200v200l-234 500h58l204 -443l204 443h57l-235 -500v-200h-54z" glyph-name="uni0443.ss04" horiz-adv-x="540"/>
<glyph d="M243 -200v200l-234 500h58l204 -443l204 443h57l-235 -500v-200h-54zM271 576c-108 0 -178 65 -178 161v8h47v-8c0 -71 50 -116 131 -116s131 45 131 116v8h48v-8c0 -96 -71 -161 -179 -161z" glyph-name="uni045E.ss04" horiz-adv-x="540"/>
<glyph d="M197 183h311l-156 252zM15 0l307 494v149h-288v57h636v-57h-288v-149l308 -494h-68l-80 130h-379l-80 -130h-68z" glyph-name="uni04220410.dlig" horiz-adv-x="705"/>
<glyph d="M232 32c124 0 219 85 219 187l1 31c-19 -16 -66 -25 -130 -29c-146 -9 -208 -40 -208 -104c0 -55 45 -85 118 -85zM224 -12c-107 0 -164 51 -164 127c0 109 126 142 261 149c78 5 128 15 128 46c0 76 -65 129 -155 129s-152 -48 -168 -130h-51c17 101 91 166 199 173v177 h-222v51h481v-51h-205v-178c107 -12 174 -82 174 -187v-248h73v-47h-120v111c-37 -73 -128 -122 -231 -122z" glyph-name="uni04420430.dlig" horiz-adv-x="613"/>
<glyph d="M353 39c139 0 238 129 238 311s-99 311 -238 311s-238 -129 -238 -311s99 -311 238 -311zM353 -15c-173 0 -297 153 -297 365s124 365 297 365s297 -153 297 -365s-124 -365 -297 -365z" glyph-name="zero" horiz-adv-x="706" unicode="0"/>
<glyph d="M195 0v633l-170 -105v62l179 110h48v-700h-57z" glyph-name="one" horiz-adv-x="386" unicode="1"/>
<glyph d="M310 333c124 0 213 69 213 165c0 97 -88 166 -213 166c-124 0 -213 -69 -213 -166c0 -96 89 -165 213 -165zM49 0v50l296 200c38 27 70 53 93 83c-32 -30 -82 -47 -141 -47c-149 0 -257 95 -257 213c0 121 109 216 270 216c156 0 270 -90 270 -217 c0 -104 -76 -199 -175 -265l-263 -179h456v-54h-549z" glyph-name="two" horiz-adv-x="612" unicode="2"/>
<glyph d="M282 -15c-152 0 -261 92 -264 222h57c2 -100 87 -171 206 -171c118 0 205 74 205 178c0 100 -68 166 -170 166c-42 0 -87 -12 -113 -31l-12 -9l-31 38l297 269h-422v53h496v-55l-262 -237c23 10 47 15 70 15c119 0 205 -87 205 -206c0 -135 -109 -232 -262 -232z" glyph-name="three" horiz-adv-x="571" unicode="3"/>
<glyph d="M82 235h338v406zM420 0v184h-402v51l385 465h75v-465h158v-51h-158v-184h-58z" glyph-name="four" horiz-adv-x="642" unicode="4"/>
<glyph d="M305 -15c-151 0 -257 84 -267 205h58c10 -93 93 -155 210 -155c128 0 213 82 213 198c0 109 -80 186 -204 186c-96 0 -170 -41 -195 -105h-56l55 386h431v-53h-383l-38 -254c38 46 106 74 190 74c149 0 258 -90 258 -234c0 -147 -110 -248 -272 -248z" glyph-name="five" horiz-adv-x="621" unicode="5"/>
<glyph d="M350 36c120 0 215 81 215 183c0 111 -89 191 -212 191c-125 0 -216 -82 -216 -181c0 -81 82 -193 213 -193zM351 -15c-182 0 -294 151 -294 365c0 213 114 365 299 365c135 0 237 -80 253 -191h-61c-16 81 -93 137 -193 137c-143 0 -242 -119 -242 -293 c0 -20 1 -39 4 -59c32 92 125 151 239 151c150 0 267 -97 267 -240c0 -128 -116 -235 -272 -235z" glyph-name="six" horiz-adv-x="670" unicode="6"/>
<glyph d="M201 0c24 244 161 495 304 644h-495v56h555v-56c-142 -144 -279 -400 -303 -644h-61z" glyph-name="seven" horiz-adv-x="575" unicode="7"/>
<glyph d="M337 33c128 0 220 64 220 150s-92 149 -220 149s-220 -63 -220 -149s92 -150 220 -150zM337 381c122 0 209 60 209 142c0 81 -87 140 -209 140c-121 0 -208 -59 -208 -140c0 -82 87 -142 208 -142zM337 -15c-163 0 -279 82 -279 198c0 84 67 150 167 175 c-92 24 -154 86 -154 165c0 110 111 188 266 188s266 -78 266 -188c0 -79 -62 -141 -156 -165c102 -25 169 -91 169 -175c0 -116 -116 -198 -279 -198z" glyph-name="eight" horiz-adv-x="674" unicode="8"/>
<glyph d="M320 664c-120 0 -215 -81 -215 -183c0 -111 89 -191 212 -191c125 0 216 82 216 181c0 81 -82 193 -213 193zM319 715c182 0 294 -151 294 -365c0 -213 -114 -365 -299 -365c-135 0 -237 80 -253 191h61c16 -81 93 -137 193 -137c143 0 242 119 242 293c0 20 -1 39 -4 59 c-32 -92 -125 -151 -239 -151c-150 0 -267 97 -267 240c0 128 116 235 272 235z" glyph-name="nine" horiz-adv-x="670" unicode="9"/>
<glyph d="M353 39c139 0 238 129 238 311s-99 311 -238 311s-238 -129 -238 -311s99 -311 238 -311zM353 -15c-173 0 -297 153 -297 365s124 365 297 365s297 -153 297 -365s-124 -365 -297 -365z" glyph-name="zero.lf" horiz-adv-x="710"/>
<glyph d="M195 0v633l-170 -105v62l179 110h48v-700h-57z" glyph-name="one.lf" horiz-adv-x="386"/>
<glyph d="M310 333c124 0 213 69 213 165c0 97 -88 166 -213 166c-124 0 -213 -69 -213 -166c0 -96 89 -165 213 -165zM49 0v50l296 200c38 27 70 53 93 83c-32 -30 -82 -47 -141 -47c-149 0 -257 95 -257 213c0 121 109 216 270 216c156 0 270 -90 270 -217 c0 -104 -76 -199 -175 -265l-263 -179h456v-54h-549z" glyph-name="two.lf" horiz-adv-x="612"/>
<glyph d="M282 -15c-152 0 -261 92 -264 222h57c2 -100 87 -171 206 -171c118 0 205 74 205 178c0 100 -68 166 -170 166c-42 0 -87 -12 -113 -31l-12 -9l-31 38l297 269h-422v53h496v-55l-262 -237c23 10 47 15 70 15c119 0 205 -87 205 -206c0 -135 -109 -232 -262 -232z" glyph-name="three.lf" horiz-adv-x="571"/>
<glyph d="M82 235h338v406zM420 0v184h-402v51l385 465h75v-465h158v-51h-158v-184h-58z" glyph-name="four.lf" horiz-adv-x="642"/>
<glyph d="M305 -15c-151 0 -257 84 -267 205h58c10 -93 93 -155 210 -155c128 0 213 82 213 198c0 109 -80 186 -204 186c-96 0 -170 -41 -195 -105h-56l55 386h431v-53h-383l-38 -254c38 46 106 74 190 74c149 0 258 -90 258 -234c0 -147 -110 -248 -272 -248z" glyph-name="five.lf" horiz-adv-x="621"/>
<glyph d="M350 36c120 0 215 81 215 183c0 111 -89 191 -212 191c-125 0 -216 -82 -216 -181c0 -81 82 -193 213 -193zM351 -15c-182 0 -294 151 -294 365c0 213 114 365 299 365c135 0 237 -80 253 -191h-61c-16 81 -93 137 -193 137c-143 0 -242 -119 -242 -293 c0 -20 1 -39 4 -59c32 92 125 151 239 151c150 0 267 -97 267 -240c0 -128 -116 -235 -272 -235z" glyph-name="six.lf" horiz-adv-x="670"/>
<glyph d="M201 0c24 244 161 495 304 644h-495v56h555v-56c-142 -144 -279 -400 -303 -644h-61z" glyph-name="seven.lf" horiz-adv-x="575"/>
<glyph d="M337 33c128 0 220 64 220 150s-92 149 -220 149s-220 -63 -220 -149s92 -150 220 -150zM337 381c122 0 209 60 209 142c0 81 -87 140 -209 140c-121 0 -208 -59 -208 -140c0 -82 87 -142 208 -142zM337 -15c-163 0 -279 82 -279 198c0 84 67 150 167 175 c-92 24 -154 86 -154 165c0 110 111 188 266 188s266 -78 266 -188c0 -79 -62 -141 -156 -165c102 -25 169 -91 169 -175c0 -116 -116 -198 -279 -198z" glyph-name="eight.lf" horiz-adv-x="674"/>
<glyph d="M320 664c-120 0 -215 -81 -215 -183c0 -111 89 -191 212 -191c125 0 216 82 216 181c0 81 -82 193 -213 193zM319 715c182 0 294 -151 294 -365c0 -213 -114 -365 -299 -365c-135 0 -237 80 -253 191h61c16 -81 93 -137 193 -137c143 0 242 119 242 293c0 20 -1 39 -4 59 c-32 -92 -125 -151 -239 -151c-150 0 -267 97 -267 240c0 128 116 235 272 235z" glyph-name="nine.lf" horiz-adv-x="670"/>
<glyph d="M352 39c139 0 238 110 238 261c0 152 -99 261 -238 261s-238 -109 -238 -261c0 -151 99 -261 238 -261zM352 -15c-172 0 -297 133 -297 315s125 315 297 315s297 -133 297 -315s-125 -315 -297 -315z" glyph-name="zero.osf" horiz-adv-x="704"/>
<glyph d="M219 0v532l-170 -105v63l179 110h48v-600h-57z" glyph-name="one.osf" horiz-adv-x="406"/>
<glyph d="M316 259c124 0 213 65 213 153c0 90 -88 154 -213 154c-124 0 -213 -64 -213 -154c0 -88 89 -153 213 -153zM53 0v47l285 167c8 5 16 9 23 14c-22 -6 -44 -10 -70 -10c-135 0 -246 87 -246 198c0 116 114 200 271 200c160 0 271 -83 271 -201c0 -98 -84 -163 -179 -217 l-247 -145h453v-53h-561z" glyph-name="two.osf" horiz-adv-x="632"/>
<glyph d="M282 -15c-152 0 -261 92 -264 222h57c2 -100 87 -171 206 -171c118 0 205 74 205 178c0 100 -68 166 -170 166c-42 0 -87 -12 -113 -31l-12 -9l-31 38l297 269h-422v53h496v-55l-262 -237c23 10 47 15 70 15c119 0 205 -87 205 -206c0 -135 -109 -232 -262 -232z" glyph-name="three.osf" horiz-adv-x="587"/>
<glyph d="M78 135h338v406zM416 -100v184h-402v51l385 465h75v-465h158v-51h-158v-184h-58z" glyph-name="four.osf" horiz-adv-x="634"/>
<glyph d="M305 -115c-151 0 -257 84 -267 205h58c10 -93 93 -155 210 -155c128 0 213 82 213 198c0 109 -80 186 -204 186c-96 0 -170 -41 -195 -105h-56l55 386h431v-53h-383l-38 -254c38 46 106 74 190 74c149 0 258 -90 258 -234c0 -147 -110 -248 -272 -248z" glyph-name="five.osf" horiz-adv-x="621"/>
<glyph d="M350 36c120 0 215 81 215 183c0 111 -89 191 -212 191c-125 0 -216 -82 -216 -181c0 -81 82 -193 213 -193zM351 -15c-182 0 -294 151 -294 365c0 213 114 365 299 365c135 0 237 -80 253 -191h-61c-16 81 -93 137 -193 137c-143 0 -242 -119 -242 -293 c0 -20 1 -39 4 -59c32 92 125 151 239 151c150 0 267 -97 267 -240c0 -128 -116 -235 -272 -235z" glyph-name="six.osf" horiz-adv-x="670"/>
<glyph d="M197 -100c24 244 161 495 304 644h-495v56h555v-56c-142 -144 -279 -400 -304 -644h-60z" glyph-name="seven.osf" horiz-adv-x="567"/>
<glyph d="M337 33c128 0 220 64 220 150s-92 149 -220 149s-220 -63 -220 -149s92 -150 220 -150zM337 381c122 0 209 60 209 142c0 81 -87 140 -209 140c-121 0 -208 -59 -208 -140c0 -82 87 -142 208 -142zM337 -15c-163 0 -279 82 -279 198c0 84 67 150 167 175 c-92 24 -154 86 -154 165c0 110 111 188 266 188s266 -78 266 -188c0 -79 -62 -141 -156 -165c102 -25 169 -91 169 -175c0 -116 -116 -198 -279 -198z" glyph-name="eight.osf" horiz-adv-x="674"/>
<glyph d="M320 564c-120 0 -215 -81 -215 -183c0 -111 89 -191 212 -191c125 0 216 82 216 181c0 81 -82 193 -213 193zM319 615c182 0 294 -151 294 -365c0 -213 -114 -365 -299 -365c-135 0 -237 80 -253 191h61c16 -81 93 -137 193 -137c143 0 242 119 242 293c0 20 -1 39 -4 59 c-32 -92 -125 -151 -239 -151c-150 0 -267 97 -267 240c0 128 116 235 272 235z" glyph-name="nine.osf" horiz-adv-x="670"/>
<glyph d="M350 39c139 0 238 129 238 311s-99 311 -238 311s-238 -129 -238 -311s99 -311 238 -311zM350 -15c-173 0 -297 153 -297 365s124 365 297 365s297 -153 297 -365s-124 -365 -297 -365z" glyph-name="zero.tf"/>
<glyph d="M88 0v53h245v578l-194 -120v64l203 125h48v-647h247v-53h-549z" glyph-name="one.tf"/>
<glyph d="M344 333c124 0 213 69 213 165c0 97 -88 166 -213 166c-123 0 -212 -69 -212 -166c0 -96 89 -165 212 -165zM84 0v50l296 200c38 27 69 53 93 83c-33 -30 -82 -47 -141 -47c-150 0 -258 95 -258 213c0 121 109 216 270 216c157 0 271 -90 271 -217 c0 -104 -77 -199 -175 -265l-264 -179h456v-54h-548z" glyph-name="two.tf"/>
<glyph d="M330 -15c-152 0 -261 92 -263 222h56c2 -100 87 -171 206 -171s205 74 205 178c0 100 -68 166 -170 166c-42 0 -86 -12 -113 -31l-12 -9l-31 38l297 269h-421v53h495v-55l-262 -237c23 10 47 15 70 15c119 0 205 -87 205 -206c0 -135 -109 -232 -262 -232z" glyph-name="three.tf"/>
<glyph d="M102 235h338v406zM440 0v184h-402v51l385 465h75v-465h158v-51h-158v-184h-58z" glyph-name="four.tf"/>
<glyph d="M341 -15c-152 0 -258 84 -268 205h59c9 -93 93 -155 209 -155c128 0 213 82 213 198c0 109 -80 186 -204 186c-96 0 -170 -41 -195 -105h-56l55 386h431v-53h-383l-38 -254c38 46 107 74 190 74c150 0 258 -90 258 -234c0 -147 -110 -248 -271 -248z" glyph-name="five.tf"/>
<glyph d="M357 36c120 0 215 81 215 183c0 111 -89 191 -212 191c-124 0 -216 -82 -216 -181c0 -81 83 -193 213 -193zM358 -15c-182 0 -294 151 -294 365c0 213 115 365 300 365c134 0 236 -80 253 -191h-62c-16 81 -92 137 -193 137c-143 0 -242 -119 -242 -293 c0 -20 2 -39 4 -59c32 92 125 151 239 151c151 0 267 -97 267 -240c0 -128 -116 -235 -272 -235z" glyph-name="six.tf"/>
<glyph d="M258 0c25 244 165 497 313 646h-518v54h574v-56c-144 -144 -284 -400 -309 -644h-60z" glyph-name="seven.tf"/>
<glyph d="M350 33c128 0 220 64 220 150s-92 149 -220 149s-220 -63 -220 -149s92 -150 220 -150zM350 381c122 0 209 60 209 142c0 81 -87 140 -209 140c-121 0 -208 -59 -208 -140c0 -82 87 -142 208 -142zM350 -15c-163 0 -279 82 -279 198c0 84 67 150 167 175 c-92 24 -154 86 -154 165c0 110 111 188 266 188s266 -78 266 -188c0 -79 -62 -141 -156 -165c102 -25 169 -91 169 -175c0 -116 -116 -198 -279 -198z" glyph-name="eight.tf"/>
<glyph d="M327 664c-120 0 -215 -81 -215 -183c0 -111 89 -191 212 -191c124 0 216 82 216 181c0 81 -83 193 -213 193zM326 715c182 0 294 -151 294 -365c0 -213 -115 -365 -300 -365c-134 0 -236 80 -253 191h62c16 -81 92 -137 193 -137c143 0 242 119 242 293c0 20 -2 39 -4 59 c-32 -92 -125 -151 -239 -151c-151 0 -267 97 -267 240c0 128 116 235 272 235z" glyph-name="nine.tf"/>
<glyph d="M350 39c139 0 238 110 238 261c0 152 -99 261 -238 261s-238 -109 -238 -261c0 -151 99 -261 238 -261zM350 -15c-172 0 -297 133 -297 315s125 315 297 315s297 -133 297 -315s-125 -315 -297 -315z" glyph-name="zero.tosf"/>
<glyph d="M87 0v53h245v477l-194 -120v65l203 125h48v-547h245v-53h-547z" glyph-name="one.tosf"/>
<glyph d="M338 259c124 0 213 65 213 153c0 90 -88 154 -213 154c-123 0 -213 -64 -213 -154c0 -88 90 -153 213 -153zM75 0v47l285 167c8 5 16 9 23 14c-22 -6 -44 -10 -69 -10c-136 0 -247 87 -247 198c0 116 114 200 271 200c160 0 271 -83 271 -201c0 -98 -84 -163 -179 -217 l-247 -145h453v-53h-561z" glyph-name="two.tosf"/>
<glyph d="M324 -15c-153 0 -262 92 -264 222h57c2 -100 87 -171 206 -171c118 0 205 74 205 178c0 100 -68 166 -170 166c-43 0 -87 -12 -113 -31l-12 -9l-32 38l298 269h-422v53h496v-55l-262 -237c23 10 47 15 69 15c120 0 206 -87 206 -206c0 -135 -109 -232 -262 -232z" glyph-name="three.tosf"/>
<glyph d="M110 135h338v406zM448 -100v184h-402v51l385 465h75v-465h158v-51h-158v-184h-58z" glyph-name="four.tosf"/>
<glyph d="M346 -115c-152 0 -258 84 -268 205h59c9 -93 93 -155 209 -155c128 0 213 82 213 198c0 109 -80 186 -204 186c-96 0 -170 -41 -195 -105h-56l55 386h431v-53h-383l-38 -254c38 46 107 74 190 74c150 0 258 -90 258 -234c0 -147 -110 -248 -271 -248z" glyph-name="five.tosf"/>
<glyph d="M362 36c119 0 214 81 214 183c0 111 -88 191 -211 191c-125 0 -216 -82 -216 -181c0 -81 82 -193 213 -193zM363 -15c-183 0 -294 151 -294 365c0 213 114 365 299 365c134 0 236 -80 253 -191h-61c-16 81 -93 137 -193 137c-144 0 -242 -119 -242 -293 c0 -20 1 -39 3 -59c32 92 126 151 239 151c151 0 267 -97 267 -240c0 -128 -115 -235 -271 -235z" glyph-name="six.tosf"/>
<glyph d="M261 -100c25 244 165 497 313 646h-518v54h574v-56c-144 -144 -284 -400 -309 -644h-60z" glyph-name="seven.tosf"/>
<glyph d="M352 33c128 0 220 64 220 150s-92 149 -220 149s-220 -63 -220 -149s92 -150 220 -150zM352 381c122 0 209 60 209 142c0 81 -87 140 -209 140c-121 0 -208 -59 -208 -140c0 -82 87 -142 208 -142zM352 -15c-163 0 -279 82 -279 198c0 84 67 150 167 175 c-92 24 -154 86 -154 165c0 110 111 188 266 188s266 -78 266 -188c0 -79 -62 -141 -156 -165c102 -25 169 -91 169 -175c0 -116 -116 -198 -279 -198z" glyph-name="eight.tosf"/>
<glyph d="M325 564c-119 0 -215 -81 -215 -183c0 -111 89 -191 212 -191c125 0 216 82 216 181c0 81 -82 193 -213 193zM324 615c182 0 294 -151 294 -365c0 -213 -114 -365 -299 -365c-135 0 -236 80 -253 191h61c16 -81 93 -137 193 -137c143 0 242 119 242 293c0 20 -1 39 -4 59 c-32 -92 -125 -151 -238 -151c-151 0 -268 97 -268 240c0 128 116 235 272 235z" glyph-name="nine.tosf"/>
<glyph d="M122 -7c-25 0 -45 20 -45 46c0 25 20 45 45 45c26 0 45 -20 45 -45c0 -26 -19 -46 -45 -46z" glyph-name="period" horiz-adv-x="244" unicode="."/>
<glyph d="M110 -114h-36c22 33 41 73 44 110h-3c-25 4 -38 22 -38 42c0 24 18 46 45 46c25 0 45 -18 45 -50c0 -46 -29 -118 -57 -148z" glyph-name="comma" horiz-adv-x="244" unicode=","/>
<glyph d="M122 -7c-25 0 -45 20 -45 46c0 25 20 45 45 45c26 0 45 -20 45 -45c0 -26 -19 -46 -45 -46zM122 369c-25 0 -45 20 -45 46c0 25 20 45 45 45c26 0 45 -20 45 -45c0 -26 -19 -46 -45 -46z" glyph-name="colon" horiz-adv-x="244" unicode=":"/>
<glyph d="M110 -114h-36c22 33 41 73 44 110h-3c-25 4 -38 22 -38 42c0 24 18 46 45 46c25 0 45 -18 45 -50c0 -46 -29 -118 -57 -148zM122 369c-25 0 -45 20 -45 46c0 25 20 45 45 45c26 0 45 -20 45 -45c0 -26 -19 -46 -45 -46z" glyph-name="semicolon" horiz-adv-x="244" unicode=";"/>
<glyph d="M618 -7c-25 0 -45 20 -45 46c0 25 20 45 45 45c26 0 45 -20 45 -45c0 -26 -19 -46 -45 -46zM370 -7c-25 0 -45 20 -45 46c0 25 20 45 45 45c26 0 45 -20 45 -45c0 -26 -19 -46 -45 -46zM122 -7c-25 0 -45 20 -45 46c0 25 20 45 45 45c26 0 45 -20 45 -45 c0 -26 -19 -46 -45 -46z" glyph-name="ellipsis" horiz-adv-x="740" unicode="…"/>
<glyph d="M142 -7c-25 0 -45 20 -45 46c0 25 20 45 45 45c26 0 45 -20 45 -45c0 -26 -19 -46 -45 -46zM118 200l-9 500h64l-9 -500h-46z" glyph-name="exclam" horiz-adv-x="284" unicode="!"/>
<glyph d="M166 300l9 -500h-64l9 500h46zM142 507c25 0 45 -20 45 -46c0 -25 -20 -45 -45 -45c-26 0 -45 20 -45 45c0 26 19 46 45 46z" glyph-name="exclamdown" horiz-adv-x="284" unicode="¡"/>
<glyph d="M275 -7c-25 0 -45 20 -45 46c0 25 20 45 45 45c26 0 45 -20 45 -45c0 -26 -19 -46 -45 -46zM244 200c-1 4 -1 8 -1 11c0 97 56 141 109 177c50 35 96 71 96 140c0 90 -76 135 -166 135c-120 0 -178 -76 -179 -186h-56c0 143 90 238 237 238c123 0 223 -66 223 -186 c0 -87 -52 -128 -103 -163c-66 -48 -110 -84 -110 -166h-50z" glyph-name="question" horiz-adv-x="568" unicode="?"/>
<glyph d="M324 300c1 -4 1 -8 1 -11c0 -97 -56 -141 -108 -177c-50 -35 -97 -71 -97 -140c0 -90 76 -135 166 -135c120 0 178 76 179 186h56c0 -143 -90 -238 -237 -238c-122 0 -223 66 -223 186c0 87 52 128 103 163c66 48 110 84 110 166h50zM293 507c25 0 45 -20 45 -46 c0 -25 -20 -45 -45 -45s-45 20 -45 45c0 26 20 46 45 46z" glyph-name="questiondown" horiz-adv-x="568" unicode="¿"/>
<glyph d="M122 255c-25 0 -45 20 -45 46c0 25 20 45 45 45c26 0 45 -20 45 -45c0 -26 -19 -46 -45 -46z" glyph-name="periodcentered" horiz-adv-x="244" unicode="·"/>
<glyph d="M247 215c-48 0 -85 37 -85 85s37 85 85 85s85 -37 85 -85s-37 -85 -85 -85z" glyph-name="bullet" horiz-adv-x="494" unicode="•"/>
<glyph d="M176 454l9 100l-77 -69l-69 20l19 69h119l-147 45v69l64 17l88 -105l-50 141l63 53l63 -53l-50 -141l88 105l64 -17v-69l-148 -45h119l19 -69l-68 -20l-78 69l9 -100h-37z" glyph-name="asterisk" horiz-adv-x="390" unicode="*"/>
<glyph d="M267 233h166v234h-166v-234zM217 -15v195h-139v53h139v234h-139v53h139v195h50v-195h166v195h50v-195h139v-53h-139v-234h139v-53h-139v-195h-50v195h-166v-195h-50z" glyph-name="numbersign" unicode="#"/>
<glyph d="M40 0l338 700h53l-338 -700h-53z" glyph-name="slash" horiz-adv-x="471" unicode="/"/>
<glyph d="M378 0l-338 700h53l338 -700h-53z" glyph-name="backslash" horiz-adv-x="471" unicode="\"/>
<glyph d="M122 117c-25 0 -45 20 -45 46c0 25 20 45 45 45c26 0 45 -20 45 -45c0 -26 -19 -46 -45 -46zM122 493c-25 0 -45 20 -45 46c0 25 20 45 45 45c26 0 45 -20 45 -45c0 -26 -19 -46 -45 -46z" glyph-name="colon.case" horiz-adv-x="244"/>
<glyph d="M166 500l9 -500h-64l9 500h46zM142 707c25 0 45 -20 45 -46c0 -25 -20 -45 -45 -45c-26 0 -45 20 -45 45c0 26 19 46 45 46z" glyph-name="exclamdown.case" horiz-adv-x="284"/>
<glyph d="M324 500c1 -4 1 -8 1 -11c0 -97 -56 -141 -109 -177c-50 -35 -96 -71 -96 -140c0 -90 76 -135 166 -135c120 0 178 76 179 186h56c0 -143 -90 -238 -237 -238c-123 0 -223 66 -223 186c0 87 52 128 103 163c66 48 110 84 110 166h50zM293 707c25 0 45 -20 45 -46 c0 -25 -20 -45 -45 -45c-26 0 -45 20 -45 45c0 26 19 46 45 46z" glyph-name="questiondown.case" horiz-adv-x="568"/>
<glyph d="M486 -39l22 250l-194 -173l-171 51l48 172h297l-368 113v173l160 41l220 -263l-126 353l158 133l158 -133l-126 -353l220 263l160 -41v-173l-368 -113h297l48 -172l-171 -51l-194 173l22 -250h-92z" glyph-name="asterisk.case" horiz-adv-x="1064"/>
<glyph d="M486 -39l22 250l-194 -173l-171 51l48 172h297l-368 113v173l160 41l220 -263l-126 353l158 133l158 -133l-126 -353l220 263l160 -41v-173l-368 -113h297l48 -172l-171 -51l-194 173l22 -250h-92z" glyph-name="bullet.ss01" horiz-adv-x="1064"/>
<glyph d="M147 402v123l-106 -61l-18 31l107 61l-107 62l18 30l106 -61v123h36v-123l107 61l18 -30l-107 -62l107 -61l-18 -31l-107 61v-123h-36z" glyph-name="asterisk.ss01" horiz-adv-x="331"/>
<glyph d="M371 -115c-158 0 -261 185 -261 465s103 465 261 465v-50c-126 0 -209 -165 -209 -415s83 -415 209 -415v-50z" glyph-name="parenleft" horiz-adv-x="500" unicode="("/>
<glyph d="M129 815c158 0 261 -185 261 -465s-103 -465 -261 -465v50c126 0 209 165 209 415s-83 415 -209 415v50z" glyph-name="parenright" horiz-adv-x="500" unicode=")"/>
<glyph d="M304 -115c-70 0 -133 37 -133 134c0 58 29 172 29 224c0 53 -25 82 -69 82h-38v50h38c44 0 69 29 69 82c0 52 -29 166 -29 224c0 97 63 134 133 134c30 0 61 -5 89 -15v-52c-26 13 -54 18 -80 18c-48 0 -91 -27 -91 -91c0 -51 29 -157 29 -218c0 -57 -21 -93 -59 -107 c38 -14 59 -50 59 -107c0 -60 -29 -167 -29 -218c0 -64 43 -91 91 -91c26 0 54 5 80 18v-52c-28 -10 -59 -15 -89 -15z" glyph-name="braceleft" horiz-adv-x="500" unicode="{"/>
<glyph d="M196 815c70 0 133 -37 133 -134c0 -58 -29 -172 -29 -224c0 -53 25 -82 69 -82h38v-50h-38c-44 0 -69 -29 -69 -82c0 -52 29 -166 29 -224c0 -97 -63 -134 -133 -134c-30 0 -61 5 -89 15v52c26 -13 54 -18 80 -18c48 0 91 27 91 91c0 51 -29 157 -29 218 c0 57 21 93 59 107c-38 14 -59 50 -59 107c0 60 29 167 29 218c0 64 -43 91 -91 91c-26 0 -54 -5 -80 -18v52c28 10 59 15 89 15z" glyph-name="braceright" horiz-adv-x="500" unicode="}"/>
<glyph d="M152 -100v900h246v-50h-196v-800h196v-50h-246z" glyph-name="bracketleft" horiz-adv-x="500" unicode="["/>
<glyph d="M348 800v-900h-246v50h196v800h-196v50h246z" glyph-name="bracketright" horiz-adv-x="500" unicode="]"/>
<glyph d="M371 -15c-158 0 -261 145 -261 365s103 365 261 365v-50c-126 0 -209 -123 -209 -315s83 -315 209 -315v-50z" glyph-name="parenleft.case" horiz-adv-x="500"/>
<glyph d="M129 715c158 0 261 -145 261 -365s-103 -365 -261 -365v50c126 0 209 123 209 315s-83 315 -209 315v50z" glyph-name="parenright.case" horiz-adv-x="500"/>
<glyph d="M304 -15c-70 0 -133 37 -133 124c0 40 27 111 27 145c0 48 -24 75 -67 75h-38v43h38c43 0 67 26 67 75c0 34 -27 105 -27 144c0 87 63 124 133 124c29 0 60 -5 88 -14v-50c-24 8 -53 14 -78 14c-58 0 -92 -32 -92 -87c0 -31 27 -101 27 -137c0 -47 -20 -79 -58 -91 c38 -12 58 -44 58 -91c0 -35 -27 -106 -27 -137c0 -55 34 -87 92 -87c25 0 54 6 78 14v-50c-28 -9 -59 -14 -88 -14z" glyph-name="braceleft.case" horiz-adv-x="500"/>
<glyph d="M196 715c70 0 133 -37 133 -124c0 -40 -27 -111 -27 -145c0 -48 24 -75 67 -75h38v-43h-38c-43 0 -67 -26 -67 -75c0 -34 27 -105 27 -144c0 -87 -63 -124 -133 -124c-29 0 -60 5 -88 14v50c24 -8 53 -14 78 -14c58 0 92 32 92 87c0 31 -27 101 -27 137c0 47 20 79 58 91 c-38 12 -58 44 -58 91c0 35 27 106 27 137c0 55 -34 87 -92 87c-25 0 -54 -6 -78 -14v50c28 9 59 14 88 14z" glyph-name="braceright.case" horiz-adv-x="500"/>
<glyph d="M152 0v700h246v-50h-196v-600h196v-50h-246z" glyph-name="bracketleft.case" horiz-adv-x="500"/>
<glyph d="M348 700v-700h-246v50h196v600h-196v50h246z" glyph-name="bracketright.case" horiz-adv-x="500"/>
<glyph d="M76 275v50h252v-50h-252z" glyph-name="hyphen" horiz-adv-x="404" unicode="-"/>
<glyph d="M76 275v50h392v-50h-392z" glyph-name="endash" horiz-adv-x="544" unicode="–"/>
<glyph d="M76 275v50h552v-50h-552z" glyph-name="emdash" horiz-adv-x="704" unicode="—"/>
<glyph d="M30 -50v50h392v-50h-392z" glyph-name="underscore" horiz-adv-x="452" unicode="_"/>
<glyph d="M76 325v50h252v-50h-252z" glyph-name="hyphen.case" horiz-adv-x="404"/>
<glyph d="M76 325v50h392v-50h-392z" glyph-name="endash.case" horiz-adv-x="544"/>
<glyph d="M76 325v50h552v-50h-552z" glyph-name="emdash.case" horiz-adv-x="704"/>
<glyph d="M83 -114h-37c22 33 41 73 45 110h-4c-24 4 -38 22 -38 42c0 24 18 46 45 46c25 0 46 -18 46 -50c0 -46 -29 -118 -57 -148z" glyph-name="quotesinglbase" horiz-adv-x="176" unicode="‚"/>
<glyph d="M236 -114h-36c22 33 40 73 44 110h-3c-25 4 -38 22 -38 42c0 24 17 46 45 46c24 0 45 -18 45 -50c0 -46 -29 -118 -57 -148zM83 -114h-37c22 33 41 73 45 110h-4c-24 4 -38 22 -38 42c0 24 18 46 45 46c25 0 46 -18 46 -50c0 -46 -29 -118 -57 -148z" glyph-name="quotedblbase" horiz-adv-x="329" unicode="„"/>
<glyph d="M261 734h36c-22 -33 -41 -73 -44 -110h3c25 -4 38 -22 38 -42c0 -24 -18 -46 -45 -46c-25 0 -45 18 -45 50c0 46 29 118 57 148zM107 734h37c-22 -33 -41 -73 -45 -110h4c25 -4 38 -22 38 -42c0 -24 -18 -46 -45 -46c-25 0 -46 18 -46 50c0 46 29 118 57 148z" glyph-name="quotedblleft" horiz-adv-x="329" unicode="“"/>
<glyph d="M219 516h-36c22 33 41 73 44 109h-3c-25 4 -38 22 -38 43c0 24 18 46 45 46c24 0 45 -18 45 -50c0 -47 -29 -118 -57 -148zM66 516h-36c22 33 40 73 44 109h-3c-25 4 -38 22 -38 43c0 24 17 46 45 46c24 0 45 -18 45 -50c0 -47 -29 -118 -57 -148z" glyph-name="quotedblright" horiz-adv-x="329" unicode="”"/>
<glyph d="M96 734h37c-22 -33 -41 -73 -45 -110h4c24 -4 38 -22 38 -42c0 -24 -18 -46 -45 -46c-25 0 -46 18 -46 50c0 46 29 118 57 148z" glyph-name="quoteleft" horiz-adv-x="176" unicode="‘"/>
<glyph d="M83 516h-37c22 33 41 73 45 109h-4c-24 4 -38 22 -38 43c0 24 18 46 45 46c25 0 46 -18 46 -50c0 -47 -29 -118 -57 -148z" glyph-name="quoteright" horiz-adv-x="176" unicode="’"/>
<glyph d="M479 500l-109 -200l109 -200h-59l-106 194v12l106 194h59zM291 500l-109 -200l109 -200h-59l-106 194v12l106 194h59z" glyph-name="guillemotleft" horiz-adv-x="556" unicode="«"/>
<glyph d="M266 100l109 200l-109 200h59l106 -194v-12l-106 -194h-59zM78 100l109 200l-109 200h59l106 -194v-12l-106 -194h-59z" glyph-name="guillemotright" horiz-adv-x="508" unicode="»"/>
<glyph d="M243 500l-109 -200l109 -200h-59l-106 194v12l106 194h59z" glyph-name="guilsinglleft" horiz-adv-x="320" unicode="‹"/>
<glyph d="M78 100l109 200l-109 200h59l106 -194v-12l-106 -194h-59z" glyph-name="guilsinglright" horiz-adv-x="320" unicode="›"/>
<glyph d="M229 524l-29 184h68l-29 -184h-10zM77 524l-29 184h68l-29 -184h-10z" glyph-name="quotedbl" horiz-adv-x="316" unicode='"'/>
<glyph d="M77 524l-29 184h68l-29 -184h-10z" glyph-name="quotesingle" horiz-adv-x="164" unicode="'"/>
<glyph d="M431 550l-109 -200l109 -200h-59l-106 194v12l106 194h59zM243 550l-109 -200l109 -200h-59l-106 194v12l106 194h59z" glyph-name="guillemotleft.case" horiz-adv-x="508"/>
<glyph d="M266 150l109 200l-109 200h59l106 -194v-12l-106 -194h-59zM78 150l109 200l-109 200h59l106 -194v-12l-106 -194h-59z" glyph-name="guillemotright.case" horiz-adv-x="508"/>
<glyph d="M243 550l-109 -200l109 -200h-59l-106 194v12l106 194h59z" glyph-name="guilsinglleft.case" horiz-adv-x="320"/>
<glyph d="M78 150l109 200l-109 200h59l106 -194v-12l-106 -194h-59z" glyph-name="guilsinglright.case" horiz-adv-x="320"/>
<glyph glyph-name="uni00A0" horiz-adv-x="250" unicode=" "/>
<glyph d="M345 142c101 0 172 57 192 147h54c-20 -113 -105 -188 -226 -196v-123h-44v123c-138 11 -236 119 -236 259s99 248 236 259v119h44v-119c122 -8 206 -82 226 -196h-54c-20 90 -91 147 -192 147c-119 0 -206 -91 -206 -210s87 -210 206 -210z" glyph-name="cent" unicode="¢"/>
<glyph d="M350 187c90 0 163 73 163 163s-73 163 -163 163s-163 -73 -163 -163s73 -163 163 -163zM126 88l-38 38l91 91c-28 36 -46 83 -46 133s18 97 46 133l-91 92l38 38l91 -92c36 29 83 46 133 46s97 -17 133 -46l92 92l38 -38l-92 -92c29 -36 46 -83 46 -133s-17 -97 -46 -133 l92 -91l-38 -38l-92 91c-36 -28 -83 -46 -133 -46s-97 18 -133 46z" glyph-name="currency" unicode="¤"/>
<glyph d="M337 -130v117c-147 12 -248 103 -263 242h58c18 -116 106 -191 241 -191c126 0 203 50 203 137c0 106 -103 127 -220 148c-124 22 -264 50 -264 194c0 119 100 190 235 197v116h44v-115c144 -7 247 -92 262 -239h-61c-15 117 -99 185 -223 185c-113 0 -196 -53 -196 -142 c0 -101 103 -119 217 -140c133 -26 267 -57 267 -201c0 -119 -96 -191 -256 -193v-115h-44z" glyph-name="dollar" unicode="$"/>
<glyph d="M383 -15c-144 0 -258 110 -288 279h-75v42h69c-1 14 -2 29 -2 44s1 30 2 44h-69v42h75c30 169 144 279 288 279c137 0 262 -103 280 -268h-59c-16 133 -114 216 -222 216c-116 0 -204 -90 -228 -227h268v-42h-274c-1 -14 -2 -29 -2 -44s1 -30 2 -44h274v-42h-268 c24 -137 112 -226 228 -226c108 0 206 83 222 215h59c-18 -165 -143 -268 -280 -268z" glyph-name="Euro" unicode="€"/>
<glyph d="M336 -15c-148 0 -244 71 -244 179c0 38 10 72 33 100h-79v42h119c66 41 180 57 260 88h-379v42h448c29 23 44 55 44 92c0 83 -72 138 -182 138c-111 0 -185 -57 -207 -158h-58c26 130 124 207 269 207c142 0 236 -72 236 -182c0 -38 -13 -71 -36 -97h96v-42h-138 c-74 -38 -188 -52 -267 -88h405v-42h-468c-27 -25 -42 -56 -42 -95c0 -82 77 -135 193 -135c118 0 199 59 223 162h58c-26 -132 -129 -211 -284 -211z" glyph-name="uni20B4" unicode="₴"/>
<glyph d="M226 338h143c125 0 199 58 199 152c0 97 -74 156 -199 156h-143v-308zM168 0v181h-116v43h116v72h-116v42h116v362h205c157 0 253 -77 253 -202c0 -126 -96 -202 -253 -202h-147v-72h349v-43h-349v-181h-58z" glyph-name="uni20BD" unicode="₽"/>
<glyph d="M129 29c42 0 80 27 95 70c-39 24 -74 43 -103 43c-36 0 -61 -23 -61 -55c0 -35 29 -58 69 -58zM125 -15c-64 0 -115 40 -115 102c0 57 43 99 107 99c37 0 74 -15 112 -36v10c-4 57 -37 110 -63 169h-124v42h106c-14 38 -24 77 -24 122c0 132 92 223 233 223 s238 -91 246 -223h-57c-8 105 -84 173 -190 173c-107 0 -176 -70 -176 -178c0 -42 10 -80 25 -117h306v-42h-287c26 -61 58 -117 58 -178c0 -10 -1 -19 -2 -29c66 -39 134 -86 204 -86c74 0 117 50 117 138c0 19 -2 37 -6 57h52c5 -23 7 -45 7 -63 c0 -121 -72 -183 -163 -183c-83 0 -160 47 -228 90c-25 -55 -78 -90 -138 -90z" glyph-name="sterling" unicode="£"/>
<glyph d="M320 0v170h-238v42h238v55l-22 33h-216v42h189l-245 358h71l254 -370l254 370h69l-245 -358h206v-42h-233l-22 -33v-55h255v-42h-255v-170h-60z" glyph-name="yen" unicode="¥"/>
<glyph d="M484 375v-50h-179v-179h-50v179h-179v50h179v179h50v-179h179z" glyph-name="plus" horiz-adv-x="560" unicode="+"/>
<glyph d="M76 325v50h408v-50h-408z" glyph-name="minus" horiz-adv-x="560" unicode="−"/>
<glyph d="M137 171l-36 36l143 143l-143 143l36 36l143 -143l143 143l36 -36l-143 -143l143 -143l-36 -36l-143 143z" glyph-name="multiply" horiz-adv-x="560" unicode="×"/>
<glyph d="M280 120c-25 0 -45 20 -45 45c0 26 20 45 45 45s45 -19 45 -45c0 -25 -20 -45 -45 -45zM72 325v50h416v-50h-416zM280 490c-25 0 -45 20 -45 45c0 26 20 45 45 45c26 0 45 -19 45 -45c0 -25 -19 -45 -45 -45z" glyph-name="divide" horiz-adv-x="560" unicode="÷"/>
<glyph d="M76 227v50h408v-50h-408zM76 423v50h408v-50h-408z" glyph-name="equal" horiz-adv-x="560" unicode="="/>
<glyph d="M484 423h-144l-69 -146h213v-50h-236l-46 -97h-50l46 97h-122v50h144l70 146h-214v50h236l46 97h50l-46 -97h122v-50z" glyph-name="notequal" horiz-adv-x="560" unicode="≠"/>
<glyph d="M76 139v54l332 156l-332 156v56l408 -192v-38z" glyph-name="greater" horiz-adv-x="560" unicode="&gt;"/>
<glyph d="M484 561v-54l-332 -156l332 -156v-56l-408 192v38z" glyph-name="less" horiz-adv-x="560" unicode="&lt;"/>
<glyph d="M76 88v50h408v-50h-408zM76 198v54l332 156l-332 156v56l408 -192v-38z" glyph-name="greaterequal" horiz-adv-x="560" unicode="≥"/>
<glyph d="M76 88v50h408v-50h-408zM484 620v-54l-332 -156l332 -156v-56l-408 192v38z" glyph-name="lessequal" horiz-adv-x="560" unicode="≤"/>
<glyph d="M76 88v50h408v-50h-408zM305 435h179v-50h-179v-179h-50v179h-179v50h179v179h50v-179z" glyph-name="plusminus" horiz-adv-x="560" unicode="±"/>
<glyph d="M75 203c0 62 45 104 100 104c41 0 76 -16 108 -30c30 -13 60 -25 91 -25c33 0 61 24 61 53h50c0 -62 -44 -104 -99 -104c-41 0 -77 16 -108 30c-31 13 -60 26 -91 26c-34 0 -62 -25 -62 -54h-50zM75 395c0 62 45 104 100 104c41 0 76 -16 108 -30c30 -13 60 -25 91 -25 c33 0 61 24 61 53h50c0 -62 -44 -104 -99 -104c-41 0 -77 16 -108 30c-31 13 -60 26 -91 26c-34 0 -62 -25 -62 -54h-50z" glyph-name="approxequal" horiz-adv-x="560" unicode="≈"/>
<glyph d="M75 299c0 62 45 104 100 104c41 0 76 -16 108 -30c30 -13 60 -25 91 -25c33 0 61 24 61 53h50c0 -62 -44 -104 -99 -104c-41 0 -77 16 -108 30c-31 13 -60 26 -91 26c-34 0 -62 -25 -62 -54h-50z" glyph-name="asciitilde" horiz-adv-x="560" unicode="~"/>
<glyph d="M484 375v-229h-50v179h-358v50h408z" glyph-name="logicalnot" horiz-adv-x="560" unicode="¬"/>
<glyph d="M85 398l174 302h42l174 -302h-56l-139 241l-139 -241h-56z" glyph-name="asciicircum" horiz-adv-x="560" unicode="^"/>
<glyph d="M565 39c68 0 121 53 121 121s-53 121 -121 121s-121 -53 -121 -121s53 -121 121 -121zM565 -5c-93 0 -165 72 -165 165s72 165 165 165s165 -72 165 -165s-72 -165 -165 -165zM201 419c68 0 121 53 121 121s-53 121 -121 121s-121 -53 -121 -121s53 -121 121 -121zM151 0 l414 700h50l-414 -700h-50zM201 375c-93 0 -165 72 -165 165s72 165 165 165s165 -72 165 -165s-72 -165 -165 -165z" glyph-name="percent" horiz-adv-x="766" unicode="%"/>
<glyph d="M950 39c68 0 121 53 121 121s-53 121 -121 121s-121 -53 -121 -121s53 -121 121 -121zM565 39c68 0 121 53 121 121s-53 121 -121 121s-121 -53 -121 -121s53 -121 121 -121zM950 -5c-93 0 -165 72 -165 165s72 165 165 165s165 -72 165 -165s-72 -165 -165 -165zM565 -5 c-93 0 -165 72 -165 165s72 165 165 165s165 -72 165 -165s-72 -165 -165 -165zM201 419c68 0 121 53 121 121s-53 121 -121 121s-121 -53 -121 -121s53 -121 121 -121zM151 0l414 700h50l-414 -700h-50zM201 375c-93 0 -165 72 -165 165s72 165 165 165s165 -72 165 -165 s-72 -165 -165 -165z" glyph-name="perthousand" horiz-adv-x="1151" unicode="‰"/>
<glyph d="M325 0v584h-4l-147 -268l-40 28l208 356h15l209 -356l-40 -28l-148 268h-3v-584h-50z" glyph-name="arrowup" unicode="↑"/>
<glyph d="M120 86l-35 35l413 414l-3 2l-293 -85l-9 47l399 105l11 -11l-105 -399l-47 9l85 294l-3 2z" glyph-name="uni2197" unicode="↗"/>
<glyph d="M344 134l-28 40l268 148v3h-584v50h584v4l-268 147l28 40l356 -208v-15z" glyph-name="arrowright" unicode="→"/>
<glyph d="M592 97l-399 105l9 47l294 -85l2 3l-413 413l35 35l414 -413l2 3l-85 293l47 9l105 -399z" glyph-name="uni2198" unicode="↘"/>
<glyph d="M343 0l-209 356l40 28l148 -268h3v584h50v-584h4l147 268l40 -28l-208 -356h-15z" glyph-name="arrowdown" unicode="↓"/>
<glyph d="M108 97l-11 11l105 399l47 -9l-85 -294l3 -2l413 413l35 -35l-413 -414l3 -2l293 85l9 -47z" glyph-name="uni2199" unicode="↙"/>
<glyph d="M356 135l-356 208v15l356 209l28 -40l-268 -148v-3h584v-50h-584v-4l268 -147z" glyph-name="arrowleft" unicode="←"/>
<glyph d="M580 86l-414 413l-2 -3l85 -293l-47 -9l-105 399l11 11l399 -105l-9 -47l-294 85l-2 -3l413 -413z" glyph-name="uni2196" unicode="↖"/>
<glyph d="M347 140l-349 202v15l349 203l28 -40l-264 -144v-3h698v3l-264 144l28 40l349 -203v-15l-349 -202l-28 40l264 143v4h-698v-4l264 -143z" glyph-name="arrowboth" horiz-adv-x="920" unicode="↔"/>
<glyph d="M343 -112l-203 349l40 28l144 -264h3v698h-3l-144 -264l-40 28l203 349h15l202 -349l-40 -28l-143 264h-4v-698h4l143 264l40 -28l-202 -349h-15z" glyph-name="arrowupdn" unicode="↕"/>
<glyph d="M650 0v325h-534v-4l268 -147l-28 -40l-356 208v15l356 209l28 -40l-268 -148v-3h584v-375h-50z" glyph-name="uni21B0" horiz-adv-x="730" unicode="↰"/>
<glyph d="M30 0v375h584v3l-268 148l28 40l356 -209v-15l-356 -208l-28 40l268 147v4h-534v-325h-50z" glyph-name="uni21B1" horiz-adv-x="730" unicode="↱"/>
<glyph d="M356 134l-356 209v15l356 208l28 -40l-268 -147v-4h534v325h50v-375h-584v-3l268 -148z" glyph-name="uni21B2" horiz-adv-x="730" unicode="↲"/>
<glyph d="M374 134l-28 40l268 148v3h-584v375h50v-325h534v4l-268 147l28 40l356 -208v-15z" glyph-name="uni21B3" horiz-adv-x="730" unicode="↳"/>
<glyph d="M486 -39l22 250l-194 -173l-171 51l48 172h297l-368 113v173l160 41l220 -263l-126 353l158 133l158 -133l-126 -353l220 263l160 -41v-173l-368 -113h297l48 -172l-171 -51l-194 173l22 -250h-92z" glyph-name="uni2605" horiz-adv-x="1064" unicode="★"/>
<glyph d="M368 31c96 0 173 68 173 155v25c-20 -13 -51 -20 -104 -23c-113 -8 -163 -34 -163 -85c0 -45 34 -72 94 -72zM410 -167c-206 0 -365 159 -365 365s159 365 365 365s365 -159 365 -365c0 -73 -19 -141 -56 -198h-175v98c-30 -65 -104 -108 -188 -108 c-81 0 -133 43 -133 106c0 81 64 120 224 131c69 4 93 15 93 40c0 58 -50 107 -125 107c-73 0 -124 -41 -137 -111h-44c13 94 82 151 180 151c104 0 172 -63 172 -162v-213h117c26 48 39 101 39 159c0 188 -144 332 -332 332c-187 0 -332 -144 -332 -332 c0 -187 145 -332 332 -332c91 0 171 32 232 90l23 -23c-66 -64 -154 -100 -255 -100z" glyph-name="at" horiz-adv-x="820" unicode="@"/>
<glyph d="M287 36c89 0 160 34 211 93l-189 230h-26c-116 0 -191 -60 -191 -154c0 -102 77 -169 195 -169zM289 -15c-154 0 -254 86 -254 216c0 121 90 201 230 206h4l-193 235v58h490v-54h-422l388 -472c32 54 52 120 59 196h57c-8 -96 -35 -177 -79 -240l108 -130h-72l-73 88 c-60 -66 -144 -103 -243 -103z" glyph-name="ampersand" horiz-adv-x="711" unicode="&amp;"/>
<glyph d="M290 -200v500h-9c-125 0 -221 87 -221 200s96 200 221 200h67v-900h-58z" glyph-name="paragraph" horiz-adv-x="500" unicode="¶"/>
<glyph d="M378 200c64 3 167 30 167 105c0 78 -70 85 -216 112c-70 -3 -160 -31 -160 -104s84 -98 209 -113zM366 -100c-117 0 -228 56 -244 188h56c15 -96 98 -139 187 -139c59 0 154 23 154 102c0 80 -77 89 -172 106c-119 21 -233 41 -234 154c0 74 61 114 135 130 c-62 18 -110 49 -111 120c0 114 110 155 208 155c111 0 212 -55 226 -182h-56c-14 93 -90 132 -174 132c-63 0 -148 -24 -148 -107c0 -70 76 -84 163 -99c125 -22 245 -39 245 -152c0 -76 -67 -116 -137 -133c63 -19 112 -49 112 -124c0 -109 -117 -151 -210 -151z" glyph-name="section" unicode="§"/>
<glyph d="M414 142c-120 0 -208 90 -208 208s88 208 208 208c105 0 180 -62 196 -157h-46c-15 70 -70 114 -150 114c-93 0 -162 -70 -162 -165c0 -94 69 -164 162 -164c80 0 135 43 150 114h46c-16 -96 -90 -158 -196 -158zM410 18c188 0 332 145 332 332c0 188 -144 332 -332 332 c-187 0 -332 -144 -332 -332c0 -187 145 -332 332 -332zM410 -15c-206 0 -365 159 -365 365s159 365 365 365s365 -159 365 -365s-159 -365 -365 -365z" glyph-name="copyright" horiz-adv-x="820" unicode="©"/>
<glyph d="M182 541h41c33 0 50 14 50 39c0 21 -17 36 -50 36h-41v-75zM155 438v204h68c49 0 78 -23 78 -62c0 -29 -16 -51 -45 -60l68 -82h-36l-64 78h-42v-78h-27zM228 373c92 0 162 70 162 162s-70 162 -162 162s-162 -70 -162 -162s70 -162 162 -162zM228 355 c-102 0 -180 78 -180 180s78 180 180 180s180 -78 180 -180s-78 -180 -180 -180z" glyph-name="registered" horiz-adv-x="440" unicode="®"/>
<glyph d="M379 400v300h57l120 -254l120 254h56v-300h-36v261l-122 -261h-36l-122 260v-260h-37zM144 400v264h-127v36h292v-36h-128v-264h-37z" glyph-name="trademark" horiz-adv-x="816" unicode="™"/>
<glyph d="M162 505c46 0 82 37 82 82s-36 82 -82 82c-45 0 -82 -37 -82 -82s37 -82 82 -82zM162 459c-71 0 -128 57 -128 128s57 128 128 128s128 -57 128 -128s-57 -128 -128 -128z" glyph-name="degree" horiz-adv-x="324" unicode="°"/>
<glyph d="M152 -100v900h50v-900h-50z" glyph-name="bar" horiz-adv-x="354" unicode="|"/>
<glyph d="M152 -100v380h50v-380h-50zM152 420v380h50v-380h-50z" glyph-name="brokenbar" horiz-adv-x="354" unicode="¦"/>
<glyph d="M142 402v166h-133v40h133v102h42v-102h133v-40h-133v-166h-42z" glyph-name="dagger" horiz-adv-x="326" unicode="†"/>
<glyph d="M142 402v84h-133v38h133v64h-133v38h133v84h42v-84h133v-38h-133v-64h133v-38h-133v-84h-42z" glyph-name="daggerdbl" horiz-adv-x="326" unicode="‡"/>
<glyph d="M1014 414c69 0 122 53 122 121s-53 121 -122 121c-68 0 -120 -53 -120 -121s52 -121 120 -121zM1014 370c-92 0 -164 72 -164 165s72 165 164 165c93 0 166 -72 166 -165s-73 -165 -166 -165zM128 0v700h65l462 -614v614h57v-700h-64l-462 614v-614h-58z" glyph-name="uni2116" horiz-adv-x="1212" unicode="№"/>
<glyph d="M368 183c96 0 173 68 173 155v25c-20 -13 -51 -20 -104 -23c-113 -8 -163 -34 -163 -85c0 -45 34 -72 94 -72zM410 -15c-206 0 -365 159 -365 365s159 365 365 365s365 -159 365 -365c0 -73 -19 -141 -56 -198h-175v98c-30 -65 -104 -108 -188 -108 c-81 0 -133 43 -133 106c0 81 64 120 224 131c69 4 93 15 93 40c0 58 -50 107 -125 107c-73 0 -124 -41 -137 -111h-44c13 94 82 151 180 151c104 0 172 -63 172 -162v-213h117c26 48 39 101 39 159c0 188 -144 332 -332 332c-187 0 -332 -144 -332 -332 c0 -187 145 -332 332 -332c91 0 171 32 232 90l23 -23c-66 -64 -154 -100 -255 -100z" glyph-name="at.case" horiz-adv-x="820"/>
<glyph d="M152 0v700h50v-700h-50z" glyph-name="bar.case" horiz-adv-x="354"/>
<glyph d="M152 0v280h50v-280h-50zM152 420v280h50v-280h-50z" glyph-name="brokenbar.case" horiz-adv-x="354"/>
<glyph d="M106 264h411c-10 101 -95 175 -204 175s-197 -75 -207 -175zM314 -10c-151 0 -263 107 -263 248c0 128 97 229 225 244v177h-213v51h481v-51h-214v-174c138 -8 241 -111 241 -245c0 -8 0 -14 -1 -21h-465c7 -102 94 -181 211 -181c84 0 156 40 181 100h55 c-25 -86 -120 -148 -238 -148z" glyph-name="ampersand.ss02" horiz-adv-x="615"/>
<glyph d="M83 516h-37c22 33 41 73 45 109h-4c-24 4 -38 22 -38 43c0 24 18 46 45 46c25 0 46 -18 46 -50c0 -47 -29 -118 -57 -148z" glyph-name="uni02BC" horiz-adv-x="176" unicode="ʼ"/>
<glyph d="M-237 577l-31 168h72l-32 -168h-9zM-373 577l-31 168h72l-32 -168h-9z" glyph-name="uni0308" horiz-adv-x="0" unicode="̈"/>
<glyph d="M-305 577l-35 168h80l-35 -168h-10z" glyph-name="uni0307" horiz-adv-x="0" unicode="̇"/>
<glyph d="M-283 585h-54l-67 160h55z" glyph-name="gravecomb" horiz-adv-x="0" unicode="̀"/>
<glyph d="M-316 585l66 160h54l-67 -160h-53z" glyph-name="acutecomb" horiz-adv-x="0" unicode="́"/>
<glyph d="M-259 585l60 160h49l-61 -160h-48zM-395 585l60 160h49l-61 -160h-48z" glyph-name="uni030B" horiz-adv-x="0" unicode="̋"/>
<glyph d="M-232 540v160h50l-4 -160h-46z" glyph-name="uni030C.alt" horiz-adv-x="0"/>
<glyph d="M-134 585h-53l-113 123l-114 -123h-52l144 160h44z" glyph-name="uni0302" horiz-adv-x="0" unicode="̂"/>
<glyph d="M-466 745h53l113 -123l114 123h52l-144 -160h-44z" glyph-name="uni030C" horiz-adv-x="0" unicode="̌"/>
<glyph d="M-300 576c-108 0 -178 65 -178 161v8h47v-8c0 -71 50 -116 131 -116s131 45 131 116v8h48v-8c0 -96 -71 -161 -179 -161z" glyph-name="uni0306" horiz-adv-x="0" unicode="̆"/>
<glyph d="M-300 618c46 0 83 38 83 83c0 46 -37 84 -83 84c-47 0 -83 -37 -83 -84c0 -46 36 -83 83 -83zM-300 576c-70 0 -125 56 -125 125s55 126 125 126c69 0 125 -57 125 -126s-56 -125 -125 -125z" glyph-name="uni030A" horiz-adv-x="0" unicode="̊"/>
<glyph d="M-489 621c0 58 42 92 95 92c71 0 123 -49 183 -49c30 0 55 21 55 50h45c0 -58 -42 -92 -95 -92c-71 0 -123 49 -183 49c-30 0 -55 -21 -55 -50h-45z" glyph-name="tildecomb" horiz-adv-x="0" unicode="̃"/>
<glyph d="M-460 694h320v-48h-320v48z" glyph-name="uni0304" horiz-adv-x="0" unicode="̄"/>
<glyph d="M-291 749h33c-20 -29 -38 -67 -40 -94h3c24 0 38 -18 38 -35c0 -23 -18 -41 -43 -41s-44 16 -44 46c0 43 28 98 53 124z" glyph-name="uni0312" horiz-adv-x="0" unicode="̒"/>
<glyph d="M-309 -245h-33c20 29 38 67 40 94h-3c-24 0 -38 18 -38 35c0 23 18 41 43 41s44 -16 44 -46c0 -43 -28 -98 -53 -124z" glyph-name="uni0326" horiz-adv-x="0" unicode="̦"/>
<glyph d="M-274 -85l-66 -160h-54l67 160h53z" glyph-name="uni0327" horiz-adv-x="0" unicode="̧"/>
<glyph d="M-299 -85l-66 -160h-54l67 160h53z" glyph-name="uni0328" horiz-adv-x="0" unicode="̨"/>
<glyph d="M-468 622h336v-44h-336v44z" glyph-name="uni0335" horiz-adv-x="0" unicode="̵"/>
<glyph d="M-237 577l-31 168h72l-32 -168h-9zM-373 577l-31 168h72l-32 -168h-9z" glyph-name="uni0308.cv01" horiz-adv-x="0"/>
<glyph d="M-305 577l-35 168h80l-35 -168h-10z" glyph-name="uni0307.cv01" horiz-adv-x="0"/>
<glyph d="M-300 576c-108 0 -178 65 -178 161v8h47v-8c0 -71 50 -116 131 -116s131 45 131 116v8h48v-8c0 -96 -71 -161 -179 -161z" glyph-name="brevecombcy" horiz-adv-x="0"/>
</font>
</defs>
</svg>
