<?xml version="1.0" encoding="UTF-8"?>
<!DOCTYPE svg  PUBLIC '-//W3C//DTD SVG 1.1//EN'  'http://www.w3.org/Graphics/SVG/1.1/DTD/svg11.dtd'>
<svg version="1.1" xmlns="http://www.w3.org/2000/svg">
<defs>
<font id="KyivTypeSans-Bold" horiz-adv-x="700">
<font-face font-family="KyivType_Sans_Bold" font-weight="700" ascent="800" bbox="-500 -245 1208 1029" cap-height="700" descent="-200" panose-1="0 0 8 0 0 0 0 0 0 0" stemh="152" stemv="160" underline-position="-100" underline-thickness="50" unicode-range="U+000D-2605" units-per-em="1000" x-height="500"/>
<missing-glyph d="M486 -40l22 250l-194 -173l-171 51l48 172h297l-368 113v173l160 41l220 -263l-126 353l158 133l158 -133l-126 -353l220 263l160 -41v-173l-368 -113h297l48 -172l-171 -51l-194 173l22 -250h-92z" horiz-adv-x="1064"/>
<glyph d="M486 -40l22 250l-194 -173l-171 51l48 172h297l-368 113v173l160 41l220 -263l-126 353l158 133l158 -133l-126 -353l220 263l160 -41v-173l-368 -113h297l48 -172l-171 -51l-194 173l22 -250h-92z" glyph-name=".notdef" horiz-adv-x="1064"/>
<glyph glyph-name=".null" horiz-adv-x="180"/>
<glyph glyph-name="CR" horiz-adv-x="250" unicode="
"/>
<glyph glyph-name="space" horiz-adv-x="250" unicode=" "/>
<glyph d="M279 275h210l-102 287h-6zM17 0l265 700h209l265 -700h-171l-52 147h-297l-52 -147h-167z" glyph-name="A" horiz-adv-x="773" unicode="A"/>
<glyph d="M279 275h210l-102 287h-6zM17 0l265 700h209l265 -700h-171l-52 147h-297l-52 -147h-167zM329 785l66 160h136l-67 -160h-135z" glyph-name="Aacute" horiz-adv-x="773" unicode="Á"/>
<glyph d="M279 275h210l-102 287h-6zM17 0l265 700h209l265 -700h-171l-52 147h-297l-52 -147h-167zM387 754c-121 0 -200 78 -200 183v8h115v-7c0 -47 34 -80 85 -80s85 33 85 80v7h115v-8c0 -105 -79 -183 -200 -183z" glyph-name="Abreve" horiz-adv-x="773" unicode="Ă"/>
<glyph d="M279 275h210l-102 287h-6zM17 0l265 700h209l265 -700h-171l-52 147h-297l-52 -147h-167zM574 785h-131l-56 81l-56 -81h-131l114 160h146z" glyph-name="Acircumflex" horiz-adv-x="773" unicode="Â"/>
<glyph d="M279 275h210l-102 287h-6zM491 700l265 -700h-171l-52 147h-297l-52 -147h-167l265 700h209zM308 757h-9l-80 188h336l-81 -188h-9l-78 183z" glyph-name="Adieresis" horiz-adv-x="773" unicode="Ä"/>
<glyph d="M279 275h210l-102 287h-6zM17 0l265 700h209l265 -700h-171l-52 147h-297l-52 -147h-167zM445 785h-134l-67 160h135z" glyph-name="Agrave" horiz-adv-x="773" unicode="À"/>
<glyph d="M279 275h210l-102 287h-6zM17 0l265 700h209l265 -700h-171l-52 147h-297l-52 -147h-167zM227 923h320v-106h-320v106z" glyph-name="Amacron" horiz-adv-x="773" unicode="Ā"/>
<glyph d="M760 -85l-66 -160h-135l67 160h134zM279 275h210l-102 287h-6zM17 0l265 700h209l265 -700h-171l-52 147h-297l-52 -147h-167z" glyph-name="Aogonek" horiz-adv-x="773" unicode="Ą"/>
<glyph d="M279 275h210l-102 287h-6zM17 0l265 700h209l265 -700h-171l-52 147h-297l-52 -147h-167zM387 847c25 0 45 20 45 45c0 24 -20 44 -45 44s-45 -20 -45 -44c0 -26 20 -45 45 -45zM386 754c-76 0 -137 61 -137 137s61 138 137 138c77 0 139 -62 139 -138 s-62 -137 -139 -137z" glyph-name="Aring" horiz-adv-x="773" unicode="Å"/>
<glyph d="M279 275h210l-102 287h-6zM17 0l265 700h209l265 -700h-171l-52 147h-297l-52 -147h-167zM189 791c0 104 46 147 113 147c65 0 104 -43 140 -43c20 0 33 14 33 41h110c0 -105 -46 -148 -113 -148c-65 0 -104 44 -140 44c-20 0 -33 -14 -33 -41h-110z" glyph-name="Atilde" horiz-adv-x="773" unicode="Ã"/>
<glyph d="M275 275h216l-104 287h-8zM700 139h315v-139h-431l-54 147h-294l-53 -147h-166l265 700h704v-139h-431l50 -147h287v-128h-242z" glyph-name="AE" horiz-adv-x="1063" unicode="Æ"/>
<glyph d="M253 133h186c57 0 93 30 93 77s-37 77 -93 77h-186v-154zM253 417h168c56 0 91 30 91 75s-35 75 -91 75h-168v-150zM98 0v700h329c150 0 243 -72 243 -190c0 -64 -26 -113 -76 -146v-7c62 -33 98 -90 98 -161c0 -118 -97 -196 -242 -196h-352z" glyph-name="B" horiz-adv-x="736" unicode="B"/>
<glyph d="M410 -15c-209 0 -361 153 -361 366c0 211 151 364 361 364c186 0 328 -127 343 -301h-162c-19 89 -89 148 -182 148c-115 0 -196 -88 -196 -212s81 -212 196 -212c94 0 164 59 182 148h162c-16 -175 -158 -301 -343 -301z" glyph-name="C" horiz-adv-x="792" unicode="C"/>
<glyph d="M410 -15c-209 0 -361 153 -361 366c0 211 151 364 361 364c186 0 328 -127 343 -301h-162c-19 89 -89 148 -182 148c-115 0 -196 -88 -196 -212s81 -212 196 -212c94 0 164 59 182 148h162c-16 -175 -158 -301 -343 -301zM352 785l66 160h136l-67 -160h-135z" glyph-name="Cacute" horiz-adv-x="792" unicode="Ć"/>
<glyph d="M410 -15c-209 0 -361 153 -361 366c0 211 151 364 361 364c186 0 328 -127 343 -301h-162c-19 89 -89 148 -182 148c-115 0 -196 -88 -196 -212s81 -212 196 -212c94 0 164 59 182 148h162c-16 -175 -158 -301 -343 -301zM223 945h131l56 -81l56 81h131l-114 -160h-146z " glyph-name="Ccaron" horiz-adv-x="792" unicode="Č"/>
<glyph d="M478 -85l-66 -160h-136l67 160h135zM410 -15c-209 0 -361 153 -361 366c0 211 151 364 361 364c186 0 328 -127 343 -301h-162c-19 89 -89 148 -182 148c-115 0 -196 -88 -196 -212s81 -212 196 -212c94 0 164 59 182 148h162c-16 -175 -158 -301 -343 -301z" glyph-name="Ccedilla" horiz-adv-x="792" unicode="Ç"/>
<glyph d="M410 -15c-209 0 -361 153 -361 366c0 211 151 364 361 364c186 0 328 -127 343 -301h-162c-19 89 -89 148 -182 148c-115 0 -196 -88 -196 -212s81 -212 196 -212c94 0 164 59 182 148h162c-16 -175 -158 -301 -343 -301zM405 757l-90 188h190l-90 -188h-10z" glyph-name="Cdotaccent" horiz-adv-x="792" unicode="Ċ"/>
<glyph d="M258 145h74c141 0 224 78 224 205s-83 205 -224 205h-74v-410zM98 0v700h234c234 0 389 -139 389 -350c0 -210 -155 -350 -389 -350h-234z" glyph-name="D" horiz-adv-x="770" unicode="D"/>
<glyph d="M332 145c141 0 224 78 224 205s-83 205 -224 205h-74v-155h126v-100h-126v-155h74zM332 700c234 0 389 -139 389 -350c0 -210 -155 -350 -389 -350h-234v300h-62v100h62v300h234z" glyph-name="Eth" horiz-adv-x="770" unicode="Ð"/>
<glyph d="M258 145h74c141 0 224 78 224 205s-83 205 -224 205h-74v-410zM98 0v700h234c234 0 389 -139 389 -350c0 -210 -155 -350 -389 -350h-234zM153 945h131l56 -81l56 81h131l-114 -160h-146z" glyph-name="Dcaron" horiz-adv-x="770" unicode="Ď"/>
<glyph d="M332 145c141 0 224 78 224 205s-83 205 -224 205h-74v-155h126v-100h-126v-155h74zM332 700c234 0 389 -139 389 -350c0 -210 -155 -350 -389 -350h-234v300h-62v100h62v300h234z" glyph-name="Dcroat" horiz-adv-x="770" unicode="Đ"/>
<glyph d="M98 0v700h483v-140h-326v-143h222v-134h-222v-143h355v-140h-512z" glyph-name="E" horiz-adv-x="658" unicode="E"/>
<glyph d="M98 0v700h483v-140h-326v-143h222v-134h-222v-143h355v-140h-512zM279 785l66 160h136l-67 -160h-135z" glyph-name="Eacute" horiz-adv-x="658" unicode="É"/>
<glyph d="M98 0v700h483v-140h-326v-143h222v-134h-222v-143h355v-140h-512zM150 945h131l56 -81l56 81h131l-114 -160h-146z" glyph-name="Ecaron" horiz-adv-x="658" unicode="Ě"/>
<glyph d="M98 0v700h483v-140h-326v-143h222v-134h-222v-143h355v-140h-512zM524 785h-131l-56 81l-56 -81h-131l114 160h146z" glyph-name="Ecircumflex" horiz-adv-x="658" unicode="Ê"/>
<glyph d="M255 140h355v-140h-512v700h483v-140h-326v-143h222v-134h-222v-143zM258 757h-9l-80 188h336l-81 -188h-9l-78 183z" glyph-name="Edieresis" horiz-adv-x="658" unicode="Ë"/>
<glyph d="M98 0v700h483v-140h-326v-143h222v-134h-222v-143h355v-140h-512zM332 757l-90 188h190l-90 -188h-10z" glyph-name="Edotaccent" horiz-adv-x="658" unicode="Ė"/>
<glyph d="M98 0v700h483v-140h-326v-143h222v-134h-222v-143h355v-140h-512zM395 785h-134l-67 160h135z" glyph-name="Egrave" horiz-adv-x="658" unicode="È"/>
<glyph d="M98 0v700h483v-140h-326v-143h222v-134h-222v-143h355v-140h-512zM177 923h320v-106h-320v106z" glyph-name="Emacron" horiz-adv-x="658" unicode="Ē"/>
<glyph d="M614 -85l-66 -160h-135l67 160h134zM98 0v700h483v-140h-326v-143h222v-134h-222v-143h355v-140h-512z" glyph-name="Eogonek" horiz-adv-x="658" unicode="Ę"/>
<glyph d="M98 0v700h495v-149h-335v-142h239v-143h-239v-266h-160z" glyph-name="F" horiz-adv-x="616" unicode="F"/>
<glyph d="M395 -15c-198 0 -346 153 -346 364c0 213 152 366 361 366c179 0 310 -111 339 -270h-166c-23 75 -86 122 -170 122c-120 0 -201 -92 -201 -221c0 -132 85 -225 206 -225c88 0 157 52 182 128h-185v126h339v-375h-134v78c-52 -59 -129 -93 -225 -93z" glyph-name="G" horiz-adv-x="824" unicode="G"/>
<glyph d="M395 -15c-198 0 -346 153 -346 364c0 213 152 366 361 366c179 0 310 -111 339 -270h-166c-23 75 -86 122 -170 122c-120 0 -201 -92 -201 -221c0 -132 85 -225 206 -225c88 0 157 52 182 128h-185v126h339v-375h-134v78c-52 -59 -129 -93 -225 -93zM415 754 c-121 0 -200 78 -200 183v8h115v-7c0 -47 34 -80 85 -80s85 33 85 80v7h115v-8c0 -105 -79 -183 -200 -183z" glyph-name="Gbreve" horiz-adv-x="824" unicode="Ğ"/>
<glyph d="M460 -245h-75c14 16 29 45 32 59c-39 3 -58 33 -58 58c0 35 35 67 85 67c48 0 88 -25 88 -73c0 -44 -35 -87 -72 -111zM395 -15c-198 0 -346 153 -346 364c0 213 152 366 361 366c179 0 310 -111 339 -270h-166c-23 75 -86 122 -170 122c-120 0 -201 -92 -201 -221 c0 -132 85 -225 206 -225c88 0 157 52 182 128h-185v126h339v-375h-134v78c-52 -59 -129 -93 -225 -93z" glyph-name="uni0122" horiz-adv-x="824" unicode="Ģ"/>
<glyph d="M395 -15c-198 0 -346 153 -346 364c0 213 152 366 361 366c179 0 310 -111 339 -270h-166c-23 75 -86 122 -170 122c-120 0 -201 -92 -201 -221c0 -132 85 -225 206 -225c88 0 157 52 182 128h-185v126h339v-375h-134v78c-52 -59 -129 -93 -225 -93zM410 757l-90 188h190 l-90 -188h-10z" glyph-name="Gdotaccent" horiz-adv-x="824" unicode="Ġ"/>
<glyph d="M98 0v700h160v-274h304v274h160v-700h-160v274h-304v-274h-160z" glyph-name="H" horiz-adv-x="820" unicode="H"/>
<glyph d="M562 426v81h-304v-81h304zM785 617v-110h-63v-507h-160v274h-304v-274h-160v507h-62v110h62v83h160v-83h304v83h160v-83h63z" glyph-name="Hbar" horiz-adv-x="820" unicode="Ħ"/>
<glyph d="M98 0v700h160v-700h-160z" glyph-name="I" horiz-adv-x="356" unicode="I"/>
<glyph d="M98 0v700h160v-700h-160zM120 785l66 160h136l-67 -160h-135z" glyph-name="Iacute" horiz-adv-x="356" unicode="Í"/>
<glyph d="M98 0v700h160v-700h-160zM365 785h-131l-56 81l-56 -81h-131l114 160h146z" glyph-name="Icircumflex" horiz-adv-x="356" unicode="Î"/>
<glyph d="M98 0v700h160v-700h-160zM346 945l-81 -188h-9l-78 183l-79 -183h-9l-80 188h336z" glyph-name="Idieresis" horiz-adv-x="356" unicode="Ï"/>
<glyph d="M98 0v700h160v-700h-160zM173 757l-90 188h190l-90 -188h-10z" glyph-name="Idotaccent" horiz-adv-x="356" unicode="İ"/>
<glyph d="M98 0v700h160v-700h-160zM236 785h-134l-67 160h135z" glyph-name="Igrave" horiz-adv-x="356" unicode="Ì"/>
<glyph d="M98 0v700h160v-700h-160zM18 923h320v-106h-320v106z" glyph-name="Imacron" horiz-adv-x="356" unicode="Ī"/>
<glyph d="M262 -85l-66 -160h-135l67 160h134zM98 0v700h160v-700h-160z" glyph-name="Iogonek" horiz-adv-x="356" unicode="Į"/>
<glyph d="M305 -15c-165 0 -279 107 -279 270v71h157v-64c0 -75 49 -125 119 -125c69 0 115 50 115 125v438h160v-445c0 -163 -107 -270 -272 -270z" glyph-name="J" horiz-adv-x="666" unicode="J"/>
<glyph d="M98 0v700h159v-274h105l188 274h176l-230 -337l247 -363h-194l-188 274h-104v-274h-159z" glyph-name="K" horiz-adv-x="759" unicode="K"/>
<glyph d="M414 -245h-75c14 16 29 45 32 59c-39 3 -58 33 -58 58c0 35 35 67 85 67c48 0 88 -25 88 -73c0 -44 -35 -87 -72 -111zM98 0v700h159v-274h105l188 274h176l-230 -337l247 -363h-194l-188 274h-104v-274h-159z" glyph-name="uni0136" horiz-adv-x="758" unicode="Ķ"/>
<glyph d="M98 0v700h160v-547h348v-153h-508z" glyph-name="L" horiz-adv-x="639" unicode="L"/>
<glyph d="M98 0v700h160v-547h348v-153h-508zM120 785l66 160h136l-67 -160h-135z" glyph-name="Lacute" horiz-adv-x="639" unicode="Ĺ"/>
<glyph d="M321 540v160h125l-8 -160h-117zM98 0v700h160v-547h348v-153h-508z" glyph-name="Lcaron" horiz-adv-x="639" unicode="Ľ"/>
<glyph d="M393 -245h-75c14 16 29 45 32 59c-39 3 -58 33 -58 58c0 35 35 67 85 67c48 0 88 -25 88 -73c0 -44 -35 -87 -72 -111zM98 0v700h160v-547h348v-153h-508z" glyph-name="uni013B" horiz-adv-x="639" unicode="Ļ"/>
<glyph d="M258 153h348v-153h-508v228l-71 -42v141l71 41v332h160v-237l152 89v-141l-152 -89v-169z" glyph-name="Lslash" horiz-adv-x="639" unicode="Ł"/>
<glyph d="M98 0v700h267l162 -508l161 508h264v-700h-156v573l-180 -573h-183l-179 573v-573h-156z" glyph-name="M" horiz-adv-x="1050" unicode="M"/>
<glyph d="M98 0v700h168l327 -470v470h149v-700h-168l-325 471v-471h-151z" glyph-name="N" horiz-adv-x="840" unicode="N"/>
<glyph d="M98 0v700h168l327 -470v470h149v-700h-168l-325 471v-471h-151zM362 785l66 160h136l-67 -160h-135z" glyph-name="Nacute" horiz-adv-x="840" unicode="Ń"/>
<glyph d="M98 0v700h168l327 -470v470h149v-700h-168l-325 471v-471h-151zM233 945h131l56 -81l56 81h131l-114 -160h-146z" glyph-name="Ncaron" horiz-adv-x="840" unicode="Ň"/>
<glyph d="M436 -245h-75c14 16 29 45 32 59c-39 3 -58 33 -58 58c0 35 35 67 85 67c48 0 88 -25 88 -73c0 -44 -35 -87 -72 -111zM98 0v700h168l327 -470v470h149v-700h-168l-325 471v-471h-151z" glyph-name="uni0145" horiz-adv-x="840" unicode="Ņ"/>
<glyph d="M526 -210c-116 0 -189 64 -189 153h130v-1c0 -28 24 -42 61 -42c49 0 70 25 70 57c0 20 -9 44 -24 66l-325 448v-471h-151v700h168l327 -457v457h149v-689c0 -147 -78 -221 -216 -221z" glyph-name="Eng" horiz-adv-x="840" unicode="Ŋ"/>
<glyph d="M98 0v700h168l327 -470v470h149v-700h-168l-325 471v-471h-151zM222 791c0 104 46 147 113 147c65 0 104 -43 140 -43c20 0 33 14 33 41h110c0 -105 -46 -148 -113 -148c-65 0 -104 44 -140 44c-20 0 -33 -14 -33 -41h-110z" glyph-name="Ntilde" horiz-adv-x="840" unicode="Ñ"/>
<glyph d="M416 138c117 0 204 91 204 212s-87 212 -204 212s-204 -91 -204 -212s87 -212 204 -212zM416 -15c-210 0 -367 156 -367 365s157 365 367 365s367 -156 367 -365s-157 -365 -367 -365z" glyph-name="O" horiz-adv-x="832" unicode="O"/>
<glyph d="M416 138c117 0 204 91 204 212s-87 212 -204 212s-204 -91 -204 -212s87 -212 204 -212zM416 -15c-210 0 -367 156 -367 365s157 365 367 365s367 -156 367 -365s-157 -365 -367 -365zM358 785l66 160h136l-67 -160h-135z" glyph-name="Oacute" horiz-adv-x="832" unicode="Ó"/>
<glyph d="M416 138c117 0 204 91 204 212s-87 212 -204 212s-204 -91 -204 -212s87 -212 204 -212zM416 -15c-210 0 -367 156 -367 365s157 365 367 365s367 -156 367 -365s-157 -365 -367 -365zM603 785h-131l-56 81l-56 -81h-131l114 160h146z" glyph-name="Ocircumflex" horiz-adv-x="832" unicode="Ô"/>
<glyph d="M416 138c117 0 204 91 204 212s-87 212 -204 212s-204 -91 -204 -212s87 -212 204 -212zM416 715c210 0 367 -156 367 -365s-157 -365 -367 -365s-367 156 -367 365s157 365 367 365zM337 757h-9l-80 188h336l-81 -188h-9l-78 183z" glyph-name="Odieresis" horiz-adv-x="832" unicode="Ö"/>
<glyph d="M416 138c117 0 204 91 204 212s-87 212 -204 212s-204 -91 -204 -212s87 -212 204 -212zM416 -15c-210 0 -367 156 -367 365s157 365 367 365s367 -156 367 -365s-157 -365 -367 -365zM474 785h-134l-67 160h135z" glyph-name="Ograve" horiz-adv-x="832" unicode="Ò"/>
<glyph d="M416 138c117 0 204 91 204 212s-87 212 -204 212s-204 -91 -204 -212s87 -212 204 -212zM416 -15c-210 0 -367 156 -367 365s157 365 367 365s367 -156 367 -365s-157 -365 -367 -365zM450 785l59 160h122l-60 -160h-121zM273 785l59 160h122l-60 -160h-121z" glyph-name="Ohungarumlaut" horiz-adv-x="832" unicode="Ő"/>
<glyph d="M416 138c117 0 204 91 204 212s-87 212 -204 212s-204 -91 -204 -212s87 -212 204 -212zM416 -15c-210 0 -367 156 -367 365s157 365 367 365s367 -156 367 -365s-157 -365 -367 -365zM256 923h320v-106h-320v106z" glyph-name="Omacron" horiz-adv-x="832" unicode="Ō"/>
<glyph d="M415 131c123 0 214 93 214 219c0 45 -12 84 -33 117l-262 -316c23 -13 51 -20 81 -20zM236 233l262 315c-25 13 -52 20 -83 20c-122 0 -212 -92 -212 -218c0 -45 12 -85 33 -117zM416 -15c-67 0 -128 16 -180 45l-25 -30h-164l89 109c-55 63 -87 146 -87 241 c0 209 157 365 367 365c67 0 128 -16 180 -45l25 30h164l-89 -109c55 -63 87 -146 87 -241c0 -209 -157 -365 -367 -365z" glyph-name="Oslash" horiz-adv-x="832" unicode="Ø"/>
<glyph d="M416 138c117 0 204 91 204 212s-87 212 -204 212s-204 -91 -204 -212s87 -212 204 -212zM416 -15c-210 0 -367 156 -367 365s157 365 367 365s367 -156 367 -365s-157 -365 -367 -365zM218 791c0 104 46 147 113 147c65 0 104 -43 140 -43c20 0 33 14 33 41h110 c0 -105 -46 -148 -113 -148c-65 0 -104 44 -140 44c-20 0 -33 -14 -33 -41h-110z" glyph-name="Otilde" horiz-adv-x="832" unicode="Õ"/>
<glyph d="M438 145h66v410h-66c-141 0 -224 -78 -224 -205s83 -205 224 -205zM438 0c-234 0 -389 140 -389 350c0 211 155 350 389 350h547v-140h-324v-143h221v-134h-221v-143h353v-140h-576z" glyph-name="OE" horiz-adv-x="1062" unicode="Œ"/>
<glyph d="M256 371h123c71 0 115 38 115 96s-44 96 -115 96h-123v-192zM98 0v700h279c172 0 277 -86 277 -228c0 -141 -105 -228 -277 -228h-121v-244h-158z" glyph-name="P" horiz-adv-x="693" unicode="P"/>
<glyph d="M255 256h120c71 0 116 37 116 96c0 58 -45 96 -116 96h-120v-192zM98 0v700h157v-113h119c171 0 277 -88 277 -232s-106 -231 -277 -231h-119v-124h-157z" glyph-name="Thorn" horiz-adv-x="682" unicode="Þ"/>
<glyph d="M416 138c117 0 204 91 204 212s-87 212 -204 212s-204 -91 -204 -212s87 -212 204 -212zM336 -200v193c-168 34 -287 176 -287 357c0 209 157 365 367 365s367 -156 367 -365c0 -181 -119 -323 -287 -357v-193h-160z" glyph-name="Q" horiz-adv-x="832" unicode="Q"/>
<glyph d="M256 376h139c69 0 113 37 113 93s-44 92 -113 92h-139v-185zM98 0v700h293c171 0 277 -86 277 -227c0 -99 -53 -170 -143 -204l188 -269h-184l-173 247h-100v-247h-158z" glyph-name="R" horiz-adv-x="733" unicode="R"/>
<glyph d="M256 376h139c69 0 113 37 113 93s-44 92 -113 92h-139v-185zM98 0v700h293c171 0 277 -86 277 -227c0 -99 -53 -170 -143 -204l188 -269h-184l-173 247h-100v-247h-158zM296 785l66 160h136l-67 -160h-135z" glyph-name="Racute" horiz-adv-x="733" unicode="Ŕ"/>
<glyph d="M256 376h139c69 0 113 37 113 93s-44 92 -113 92h-139v-185zM98 0v700h293c171 0 277 -86 277 -227c0 -99 -53 -170 -143 -204l188 -269h-184l-173 247h-100v-247h-158zM167 945h131l56 -81l56 81h131l-114 -160h-146z" glyph-name="Rcaron" horiz-adv-x="733" unicode="Ř"/>
<glyph d="M403 -245h-75c14 16 29 45 32 59c-39 3 -58 33 -58 58c0 35 35 67 85 67c48 0 88 -25 88 -73c0 -44 -35 -87 -72 -111zM256 376h139c69 0 113 37 113 93s-44 92 -113 92h-139v-185zM98 0v700h293c171 0 277 -86 277 -227c0 -99 -53 -170 -143 -204l188 -269h-184 l-173 247h-100v-247h-158z" glyph-name="uni0156" horiz-adv-x="733" unicode="Ŗ"/>
<glyph d="M361 -15c-176 0 -315 83 -330 257h159c15 -79 78 -124 171 -124c80 0 138 23 138 73c0 58 -56 69 -166 92c-132 28 -285 65 -285 221c0 149 148 211 297 211c156 0 304 -72 322 -250h-167c-14 76 -76 115 -160 115c-60 0 -126 -21 -126 -74c0 -58 69 -70 169 -91 c146 -31 283 -73 283 -221c0 -127 -111 -209 -305 -209z" glyph-name="S" horiz-adv-x="706" unicode="S"/>
<glyph d="M361 -15c-176 0 -315 83 -330 257h159c15 -79 78 -124 171 -124c80 0 138 23 138 73c0 58 -56 69 -166 92c-132 28 -285 65 -285 221c0 149 148 211 297 211c156 0 304 -72 322 -250h-167c-14 76 -76 115 -160 115c-60 0 -126 -21 -126 -74c0 -58 69 -70 169 -91 c146 -31 283 -73 283 -221c0 -127 -111 -209 -305 -209zM285 785l66 160h136l-67 -160h-135z" glyph-name="Sacute" horiz-adv-x="706" unicode="Ś"/>
<glyph d="M361 -15c-176 0 -315 83 -330 257h159c15 -79 78 -124 171 -124c80 0 138 23 138 73c0 58 -56 69 -166 92c-132 28 -285 65 -285 221c0 149 148 211 297 211c156 0 304 -72 322 -250h-167c-14 76 -76 115 -160 115c-60 0 -126 -21 -126 -74c0 -58 69 -70 169 -91 c146 -31 283 -73 283 -221c0 -127 -111 -209 -305 -209zM156 945h131l56 -81l56 81h131l-114 -160h-146z" glyph-name="Scaron" horiz-adv-x="706" unicode="Š"/>
<glyph d="M422 -85l-66 -160h-136l67 160h135zM361 -15c-176 0 -315 83 -330 257h159c15 -79 78 -124 171 -124c80 0 138 23 138 73c0 58 -56 69 -166 92c-132 28 -285 65 -285 221c0 149 148 211 297 211c156 0 304 -72 322 -250h-167c-14 76 -76 115 -160 115 c-60 0 -126 -21 -126 -74c0 -58 69 -70 169 -91c146 -31 283 -73 283 -221c0 -127 -111 -209 -305 -209z" glyph-name="Scedilla" horiz-adv-x="706" unicode="Ş"/>
<glyph d="M370 -245h-75c14 16 29 45 32 59c-39 3 -58 33 -58 58c0 35 35 67 85 67c48 0 88 -25 88 -73c0 -44 -35 -87 -72 -111zM361 -15c-176 0 -315 83 -330 257h159c15 -79 78 -124 171 -124c80 0 138 23 138 73c0 58 -56 69 -166 92c-132 28 -285 65 -285 221 c0 149 148 211 297 211c156 0 304 -72 322 -250h-167c-14 76 -76 115 -160 115c-60 0 -126 -21 -126 -74c0 -58 69 -70 169 -91c146 -31 283 -73 283 -221c0 -127 -111 -209 -305 -209z" glyph-name="uni0218" horiz-adv-x="706" unicode="Ș"/>
<glyph d="M556 -15c-141 0 -246 98 -246 222h137c0 -56 44 -94 107 -94c64 0 106 46 106 102c0 52 -41 94 -105 94c-57 0 -114 -4 -174 -10l-6 -1l-4 84l200 183h-320v-565h-153v700h655v-129l-175 -164c10 5 21 7 32 7c120 -5 199 -96 199 -193c0 -138 -103 -236 -253 -236z" glyph-name="uni1E9E" horiz-adv-x="844" unicode="ẞ"/>
<glyph d="M279 0v547h-252v153h663v-153h-251v-547h-160z" glyph-name="T" horiz-adv-x="717" unicode="T"/>
<glyph d="M690 547h-251v-170h121v-110h-121v-267h-160v267h-121v110h121v170h-252v153h663v-153z" glyph-name="Tbar" horiz-adv-x="717" unicode="Ŧ"/>
<glyph d="M279 0v547h-252v153h663v-153h-251v-547h-160zM171 945h131l56 -81l56 81h131l-114 -160h-146z" glyph-name="Tcaron" horiz-adv-x="717" unicode="Ť"/>
<glyph d="M426 -85l-66 -160h-136l67 160h135zM279 0v547h-252v153h663v-153h-251v-547h-160z" glyph-name="uni0162" horiz-adv-x="717" unicode="Ţ"/>
<glyph d="M374 -245h-75c14 16 29 45 32 59c-39 3 -58 33 -58 58c0 35 35 67 85 67c48 0 88 -25 88 -73c0 -44 -35 -87 -72 -111zM279 0v547h-252v153h663v-153h-251v-547h-160z" glyph-name="uni021A" horiz-adv-x="717" unicode="Ț"/>
<glyph d="M409 -15c-196 0 -324 127 -324 322v393h160v-387c0 -111 60 -176 164 -176s163 65 163 176v387h160v-393c0 -195 -127 -322 -323 -322z" glyph-name="U" horiz-adv-x="817" unicode="U"/>
<glyph d="M409 -15c-196 0 -324 127 -324 322v393h160v-387c0 -111 60 -176 164 -176s163 65 163 176v387h160v-393c0 -195 -127 -322 -323 -322zM351 785l66 160h136l-67 -160h-135z" glyph-name="Uacute" horiz-adv-x="817" unicode="Ú"/>
<glyph d="M409 -15c-196 0 -324 127 -324 322v393h160v-387c0 -111 60 -176 164 -176s163 65 163 176v387h160v-393c0 -195 -127 -322 -323 -322zM596 785h-131l-56 81l-56 -81h-131l114 160h146z" glyph-name="Ucircumflex" horiz-adv-x="817" unicode="Û"/>
<glyph d="M572 700h160v-393c0 -195 -127 -322 -323 -322s-324 127 -324 322v393h160v-387c0 -111 60 -176 164 -176s163 65 163 176v387zM330 757h-9l-80 188h336l-81 -188h-9l-78 183z" glyph-name="Udieresis" horiz-adv-x="817" unicode="Ü"/>
<glyph d="M409 -15c-196 0 -324 127 -324 322v393h160v-387c0 -111 60 -176 164 -176s163 65 163 176v387h160v-393c0 -195 -127 -322 -323 -322zM467 785h-134l-67 160h135z" glyph-name="Ugrave" horiz-adv-x="817" unicode="Ù"/>
<glyph d="M409 -15c-196 0 -324 127 -324 322v393h160v-387c0 -111 60 -176 164 -176s163 65 163 176v387h160v-393c0 -195 -127 -322 -323 -322zM443 785l59 160h122l-60 -160h-121zM266 785l59 160h122l-60 -160h-121z" glyph-name="Uhungarumlaut" horiz-adv-x="817" unicode="Ű"/>
<glyph d="M409 -15c-196 0 -324 127 -324 322v393h160v-387c0 -111 60 -176 164 -176s163 65 163 176v387h160v-393c0 -195 -127 -322 -323 -322zM249 923h320v-106h-320v106z" glyph-name="Umacron" horiz-adv-x="817" unicode="Ū"/>
<glyph d="M682 -85l-66 -160h-135l67 160h134zM409 -15c-196 0 -324 127 -324 322v393h160v-387c0 -111 60 -176 164 -176s163 65 163 176v387h160v-393c0 -195 -127 -322 -323 -322z" glyph-name="Uogonek" horiz-adv-x="817" unicode="Ų"/>
<glyph d="M409 -15c-196 0 -324 127 -324 322v393h160v-387c0 -111 60 -176 164 -176s163 65 163 176v387h160v-393c0 -195 -127 -322 -323 -322zM409 847c25 0 45 20 45 45c0 24 -20 44 -45 44s-45 -20 -45 -44c0 -26 20 -45 45 -45zM408 754c-76 0 -137 61 -137 137 s61 138 137 138c77 0 139 -62 139 -138s-62 -137 -139 -137z" glyph-name="Uring" horiz-adv-x="817" unicode="Ů"/>
<glyph d="M291 0l-269 700h172l203 -560h4l201 560h170l-270 -700h-211z" glyph-name="V" horiz-adv-x="793" unicode="V"/>
<glyph d="M204 0l-171 700h165l125 -520l128 520h162l127 -519l125 519h162l-171 -700h-206l-121 491l-120 -491h-205z" glyph-name="W" horiz-adv-x="1060" unicode="W"/>
<glyph d="M204 0l-171 700h165l125 -520l128 520h162l127 -519l125 519h162l-171 -700h-206l-121 491l-120 -491h-205zM472 785l66 160h136l-67 -160h-135z" glyph-name="Wacute" horiz-adv-x="1060" unicode="Ẃ"/>
<glyph d="M204 0l-171 700h165l125 -520l128 520h162l127 -519l125 519h162l-171 -700h-206l-121 491l-120 -491h-205zM717 785h-131l-56 81l-56 -81h-131l114 160h146z" glyph-name="Wcircumflex" horiz-adv-x="1060" unicode="Ŵ"/>
<glyph d="M865 700h162l-171 -700h-206l-121 491l-120 -491h-205l-171 700h165l125 -520l128 520h162l127 -519zM451 757h-9l-80 188h336l-80 -188h-10l-78 183z" glyph-name="Wdieresis" horiz-adv-x="1060" unicode="Ẅ"/>
<glyph d="M204 0l-171 700h165l125 -520l128 520h162l127 -519l125 519h162l-171 -700h-206l-121 491l-120 -491h-205zM588 785h-134l-67 160h135z" glyph-name="Wgrave" horiz-adv-x="1060" unicode="Ẁ"/>
<glyph d="M15 0l250 358l-240 342h188l165 -235l165 235h183l-242 -340l253 -360h-190l-173 247l-176 -247h-183z" glyph-name="X" horiz-adv-x="751" unicode="X"/>
<glyph d="M296 0v245l-291 455h188l188 -301l184 301h181l-290 -455v-245h-160z" glyph-name="Y" horiz-adv-x="751" unicode="Y"/>
<glyph d="M296 0v245l-291 455h188l188 -301l184 301h181l-290 -455v-245h-160zM318 785l66 160h136l-67 -160h-135z" glyph-name="Yacute" horiz-adv-x="751" unicode="Ý"/>
<glyph d="M296 0v245l-291 455h188l188 -301l184 301h181l-290 -455v-245h-160zM563 785h-131l-56 81l-56 -81h-131l114 160h146z" glyph-name="Ycircumflex" horiz-adv-x="751" unicode="Ŷ"/>
<glyph d="M565 700h181l-290 -455v-245h-160v245l-291 455h188l188 -301zM297 757h-9l-80 188h336l-81 -188h-9l-78 183z" glyph-name="Ydieresis" horiz-adv-x="751" unicode="Ÿ"/>
<glyph d="M296 0v245l-291 455h188l188 -301l184 301h181l-290 -455v-245h-160zM434 785h-134l-67 160h135z" glyph-name="Ygrave" horiz-adv-x="751" unicode="Ỳ"/>
<glyph d="M50 0v132l377 421h-363v147h571v-132l-377 -421h381v-147h-589z" glyph-name="Z" horiz-adv-x="693" unicode="Z"/>
<glyph d="M50 0v132l377 421h-363v147h571v-132l-377 -421h381v-147h-589zM313 785l66 160h136l-67 -160h-135z" glyph-name="Zacute" horiz-adv-x="693" unicode="Ź"/>
<glyph d="M50 0v132l377 421h-363v147h571v-132l-377 -421h381v-147h-589zM184 945h131l56 -81l56 81h131l-114 -160h-146z" glyph-name="Zcaron" horiz-adv-x="693" unicode="Ž"/>
<glyph d="M50 0v132l377 421h-363v147h571v-132l-377 -421h381v-147h-589zM366 757l-90 188h190l-90 -188h-10z" glyph-name="Zdotaccent" horiz-adv-x="693" unicode="Ż"/>
<glyph d="M1044 700v-700h-160v549h-233v-549h-160v549h-233v-549h-160v700h946z" glyph-name="M.ss03" horiz-adv-x="1142"/>
<glyph d="M98 0v700h624v-700h-160v548h-304v-548h-160z" glyph-name="N.ss03" horiz-adv-x="820"/>
<glyph d="M98 0v700h624v-700h-160v548h-304v-548h-160zM352 785l66 160h136l-67 -160h-135z" glyph-name="Nacute.ss03" horiz-adv-x="820"/>
<glyph d="M98 0v700h624v-700h-160v548h-304v-548h-160zM223 945h131l56 -81l56 81h131l-114 -160h-146z" glyph-name="Ncaron.ss03" horiz-adv-x="820"/>
<glyph d="M426 -245h-75c14 16 29 45 32 59c-39 3 -58 33 -58 58c0 35 35 67 85 67c48 0 88 -25 88 -73c0 -44 -35 -87 -72 -111zM98 0v700h624v-700h-160v548h-304v-548h-160z" glyph-name="uni0145.ss03" horiz-adv-x="820"/>
<glyph d="M505 -210c-114 0 -188 66 -188 153h134v-1c0 -28 22 -42 57 -42c37 0 62 24 62 90c0 24 -8 56 -8 106v452h-304v-548h-160v700h624v-689c0 -147 -79 -221 -217 -221z" glyph-name="Eng.ss03" horiz-adv-x="820"/>
<glyph d="M98 0v700h624v-700h-160v548h-304v-548h-160zM212 791c0 104 46 147 113 147c65 0 104 -43 140 -43c20 0 33 14 33 41h110c0 -105 -46 -148 -113 -148c-65 0 -104 44 -140 44c-20 0 -33 -14 -33 -41h-110z" glyph-name="Ntilde.ss03" horiz-adv-x="820"/>
<glyph d="M37 0v146h370l-346 422v132h545v-146h-333l347 -422v-132h-583z" glyph-name="S.ss03" horiz-adv-x="664"/>
<glyph d="M37 0v146h370l-346 422v132h545v-146h-333l347 -422v-132h-583zM282 785l66 160h136l-67 -160h-135z" glyph-name="Sacute.ss03" horiz-adv-x="664"/>
<glyph d="M37 0v146h370l-346 422v132h545v-146h-333l347 -422v-132h-583zM153 945h131l56 -81l56 81h131l-114 -160h-146z" glyph-name="Scaron.ss03" horiz-adv-x="664"/>
<glyph d="M415 -85l-66 -160h-136l67 160h135zM37 0v146h370l-346 422v132h545v-146h-333l347 -422v-132h-583z" glyph-name="Scedilla.ss03" horiz-adv-x="664"/>
<glyph d="M363 -245h-75c14 16 29 45 32 59c-39 3 -58 33 -58 58c0 35 35 67 85 67c48 0 88 -25 88 -73c0 -44 -35 -87 -72 -111zM37 0v146h370l-346 422v132h545v-146h-333l347 -422v-132h-583z" glyph-name="uni0218.ss03" horiz-adv-x="664"/>
<glyph d="M722 700v-700h-624v700h160v-548h304v548h160z" glyph-name="U.ss03" horiz-adv-x="820"/>
<glyph d="M722 700v-700h-624v700h160v-548h304v548h160zM352 785l66 160h136l-67 -160h-135z" glyph-name="Uacute.ss03" horiz-adv-x="820"/>
<glyph d="M722 700v-700h-624v700h160v-548h304v548h160zM597 785h-131l-56 81l-56 -81h-131l114 160h146z" glyph-name="Ucircumflex.ss03" horiz-adv-x="820"/>
<glyph d="M562 700h160v-700h-624v700h160v-548h304v548zM331 757h-9l-80 188h336l-81 -188h-9l-78 183z" glyph-name="Udieresis.ss03" horiz-adv-x="820"/>
<glyph d="M722 700v-700h-624v700h160v-548h304v548h160zM468 785h-134l-67 160h135z" glyph-name="Ugrave.ss03" horiz-adv-x="820"/>
<glyph d="M722 700v-700h-624v700h160v-548h304v548h160zM444 785l59 160h122l-60 -160h-121zM267 785l59 160h122l-60 -160h-121z" glyph-name="Uhungarumlaut.ss03" horiz-adv-x="820"/>
<glyph d="M722 700v-700h-624v700h160v-548h304v548h160zM250 923h320v-106h-320v106z" glyph-name="Umacron.ss03" horiz-adv-x="820"/>
<glyph d="M726 -85l-66 -160h-135l67 160h134zM722 700v-700h-624v700h160v-548h304v548h160z" glyph-name="Uogonek.ss03" horiz-adv-x="820"/>
<glyph d="M722 700v-700h-624v700h160v-548h304v548h160zM410 847c25 0 45 20 45 45c0 24 -20 44 -45 44s-45 -20 -45 -44c0 -26 20 -45 45 -45zM409 754c-76 0 -137 61 -137 137s61 138 137 138c77 0 139 -62 139 -138s-62 -137 -139 -137z" glyph-name="Uring.ss03" horiz-adv-x="820"/>
<glyph d="M98 0v700h160v-549h233v549h160v-549h233v549h160v-700h-946z" glyph-name="W.ss03" horiz-adv-x="1142"/>
<glyph d="M98 0v700h160v-549h233v549h160v-549h233v549h160v-700h-946zM513 785l66 160h136l-67 -160h-135z" glyph-name="Wacute.ss03" horiz-adv-x="1142"/>
<glyph d="M98 0v700h160v-549h233v549h160v-549h233v549h160v-700h-946zM758 785h-131l-56 81l-56 -81h-131l114 160h146z" glyph-name="Wcircumflex.ss03" horiz-adv-x="1142"/>
<glyph d="M884 700h160v-700h-946v700h160v-549h233v549h160v-549h233v549zM492 757h-9l-80 188h336l-80 -188h-10l-78 183z" glyph-name="Wdieresis.ss03" horiz-adv-x="1142"/>
<glyph d="M98 0v700h160v-549h233v549h160v-549h233v549h160v-700h-946zM629 785h-134l-67 160h135z" glyph-name="Wgrave.ss03" horiz-adv-x="1142"/>
<glyph d="M238 96c79 0 149 61 149 130v6c-11 -9 -50 -20 -95 -24c-86 -7 -118 -28 -118 -64c0 -31 23 -48 64 -48zM205 -11c-107 0 -172 54 -172 141c0 99 86 153 252 163c69 5 96 17 96 44c0 36 -39 62 -92 62c-55 0 -93 -27 -104 -73h-130c16 112 109 184 240 184 c134 0 219 -80 219 -204v-184h58v-122l-174 -1v63c-42 -45 -115 -73 -193 -73z" glyph-name="a" horiz-adv-x="605" unicode="a"/>
<glyph d="M238 96c79 0 149 61 149 130v6c-11 -9 -50 -20 -95 -24c-86 -7 -118 -28 -118 -64c0 -31 23 -48 64 -48zM205 -11c-107 0 -172 54 -172 141c0 99 86 153 252 163c69 5 96 17 96 44c0 36 -39 62 -92 62c-55 0 -93 -27 -104 -73h-130c16 112 109 184 240 184 c134 0 219 -80 219 -204v-184h58v-122l-174 -1v63c-42 -45 -115 -73 -193 -73zM235 585l66 160h136l-67 -160h-135z" glyph-name="aacute" horiz-adv-x="605" unicode="á"/>
<glyph d="M238 96c79 0 149 61 149 130v6c-11 -9 -50 -20 -95 -24c-86 -7 -118 -28 -118 -64c0 -31 23 -48 64 -48zM205 -11c-107 0 -172 54 -172 141c0 99 86 153 252 163c69 5 96 17 96 44c0 36 -39 62 -92 62c-55 0 -93 -27 -104 -73h-130c16 112 109 184 240 184 c134 0 219 -80 219 -204v-184h58v-122l-174 -1v63c-42 -45 -115 -73 -193 -73zM293 554c-121 0 -200 78 -200 183v8h115v-7c0 -47 34 -80 85 -80s85 33 85 80v7h115v-8c0 -105 -79 -183 -200 -183z" glyph-name="abreve" horiz-adv-x="605" unicode="ă"/>
<glyph d="M238 96c79 0 149 61 149 130v6c-11 -9 -50 -20 -95 -24c-86 -7 -118 -28 -118 -64c0 -31 23 -48 64 -48zM205 -11c-107 0 -172 54 -172 141c0 99 86 153 252 163c69 5 96 17 96 44c0 36 -39 62 -92 62c-55 0 -93 -27 -104 -73h-130c16 112 109 184 240 184 c134 0 219 -80 219 -204v-184h58v-122l-174 -1v63c-42 -45 -115 -73 -193 -73zM480 585h-131l-56 81l-56 -81h-131l114 160h146z" glyph-name="acircumflex" horiz-adv-x="605" unicode="â"/>
<glyph d="M387 226v6c-11 -9 -50 -20 -95 -24c-86 -7 -118 -28 -118 -64c0 -31 23 -48 64 -48c79 0 149 61 149 130zM514 122h58v-122l-174 -1v63c-42 -45 -115 -73 -193 -73c-107 0 -172 54 -172 141c0 99 86 153 252 163c69 5 96 17 96 44c0 36 -39 62 -92 62 c-55 0 -93 -27 -104 -73h-130c16 112 109 184 240 184c134 0 219 -80 219 -204v-184zM214 557h-9l-80 188h336l-81 -188h-9l-78 183z" glyph-name="adieresis" horiz-adv-x="605" unicode="ä"/>
<glyph d="M238 96c79 0 149 61 149 130v6c-11 -9 -50 -20 -95 -24c-86 -7 -118 -28 -118 -64c0 -31 23 -48 64 -48zM205 -11c-107 0 -172 54 -172 141c0 99 86 153 252 163c69 5 96 17 96 44c0 36 -39 62 -92 62c-55 0 -93 -27 -104 -73h-130c16 112 109 184 240 184 c134 0 219 -80 219 -204v-184h58v-122l-174 -1v63c-42 -45 -115 -73 -193 -73zM351 585h-134l-67 160h135z" glyph-name="agrave" horiz-adv-x="605" unicode="à"/>
<glyph d="M238 96c79 0 149 61 149 130v6c-11 -9 -50 -20 -95 -24c-86 -7 -118 -28 -118 -64c0 -31 23 -48 64 -48zM205 -11c-107 0 -172 54 -172 141c0 99 86 153 252 163c69 5 96 17 96 44c0 36 -39 62 -92 62c-55 0 -93 -27 -104 -73h-130c16 112 109 184 240 184 c134 0 219 -80 219 -204v-184h58v-122l-174 -1v63c-42 -45 -115 -73 -193 -73zM133 723h320v-106h-320v106z" glyph-name="amacron" horiz-adv-x="605" unicode="ā"/>
<glyph d="M576 -85l-66 -160h-135l67 160h134zM238 96c79 0 149 61 149 130v6c-11 -9 -50 -20 -95 -24c-86 -7 -118 -28 -118 -64c0 -31 23 -48 64 -48zM205 -11c-107 0 -172 54 -172 141c0 99 86 153 252 163c69 5 96 17 96 44c0 36 -39 62 -92 62c-55 0 -93 -27 -104 -73h-130 c16 112 109 184 240 184c134 0 219 -80 219 -204v-184h58v-122l-174 -1v63c-42 -45 -115 -73 -193 -73z" glyph-name="aogonek" horiz-adv-x="605" unicode="ą"/>
<glyph d="M238 96c79 0 149 61 149 130v6c-11 -9 -50 -20 -95 -24c-86 -7 -118 -28 -118 -64c0 -31 23 -48 64 -48zM205 -11c-107 0 -172 54 -172 141c0 99 86 153 252 163c69 5 96 17 96 44c0 36 -39 62 -92 62c-55 0 -93 -27 -104 -73h-130c16 112 109 184 240 184 c134 0 219 -80 219 -204v-184h58v-122l-174 -1v63c-42 -45 -115 -73 -193 -73zM293 647c25 0 45 20 45 45c0 24 -20 44 -45 44s-45 -20 -45 -44c0 -26 20 -45 45 -45zM292 554c-76 0 -137 61 -137 137s61 138 137 138c77 0 139 -62 139 -138s-62 -137 -139 -137z" glyph-name="aring" horiz-adv-x="605" unicode="å"/>
<glyph d="M238 96c79 0 149 61 149 130v6c-11 -9 -50 -20 -95 -24c-86 -7 -118 -28 -118 -64c0 -31 23 -48 64 -48zM205 -11c-107 0 -172 54 -172 141c0 99 86 153 252 163c69 5 96 17 96 44c0 36 -39 62 -92 62c-55 0 -93 -27 -104 -73h-130c16 112 109 184 240 184 c134 0 219 -80 219 -204v-184h58v-122l-174 -1v63c-42 -45 -115 -73 -193 -73zM95 591c0 104 46 147 113 147c65 0 104 -43 140 -43c20 0 33 14 33 41h110c0 -105 -46 -148 -113 -148c-65 0 -104 44 -140 44c-20 0 -33 -14 -33 -41h-110z" glyph-name="atilde" horiz-adv-x="605" unicode="ã"/>
<glyph d="M238 96c79 0 149 61 149 130v6c-11 -9 -50 -20 -95 -24c-86 -7 -118 -28 -118 -64c0 -31 23 -48 64 -48zM518 301h262c-16 59 -65 95 -130 95c-63 0 -116 -37 -132 -95zM224 -11c-120 0 -191 54 -191 141c0 99 86 153 252 163c69 5 96 17 96 44c0 36 -39 62 -92 62 c-55 0 -93 -27 -104 -73h-130c16 112 107 184 235 184c76 0 135 -27 172 -72c48 45 116 72 190 72c151 0 264 -108 264 -258c0 -15 -1 -28 -2 -42h-399c12 -59 64 -107 141 -107c46 0 87 18 106 48h138c-17 -83 -109 -161 -247 -161c-93 0 -169 35 -217 94 c-34 -47 -104 -95 -212 -95z" glyph-name="ae" horiz-adv-x="950" unicode="æ"/>
<glyph d="M346 118c73 0 129 57 129 132s-56 132 -129 132s-128 -57 -128 -132s55 -132 128 -132zM367 -10c-64 0 -118 25 -158 67v-57h-127v710h139v-257c38 36 89 57 146 57c144 0 250 -111 250 -260s-106 -260 -250 -260z" glyph-name="b" horiz-adv-x="654" unicode="b"/>
<glyph d="M308 -10c-157 0 -270 111 -270 260s116 260 270 260c139 0 241 -91 254 -211h-138c-14 49 -57 85 -116 85c-76 0 -131 -58 -131 -134s55 -134 131 -134c59 0 103 36 116 86h138c-14 -121 -118 -212 -254 -212z" glyph-name="c" horiz-adv-x="598" unicode="c"/>
<glyph d="M308 -10c-157 0 -270 111 -270 260s116 260 270 260c139 0 241 -91 254 -211h-138c-14 49 -57 85 -116 85c-76 0 -131 -58 -131 -134s55 -134 131 -134c59 0 103 36 116 86h138c-14 -121 -118 -212 -254 -212zM248 585l66 160h136l-67 -160h-135z" glyph-name="cacute" horiz-adv-x="598" unicode="ć"/>
<glyph d="M308 -10c-157 0 -270 111 -270 260s116 260 270 260c139 0 241 -91 254 -211h-138c-14 49 -57 85 -116 85c-76 0 -131 -58 -131 -134s55 -134 131 -134c59 0 103 36 116 86h138c-14 -121 -118 -212 -254 -212zM119 745h131l56 -81l56 81h131l-114 -160h-146z" glyph-name="ccaron" horiz-adv-x="598" unicode="č"/>
<glyph d="M374 -85l-66 -160h-136l67 160h135zM308 -10c-157 0 -270 111 -270 260s116 260 270 260c139 0 241 -91 254 -211h-138c-14 49 -57 85 -116 85c-76 0 -131 -58 -131 -134s55 -134 131 -134c59 0 103 36 116 86h138c-14 -121 -118 -212 -254 -212z" glyph-name="ccedilla" horiz-adv-x="598" unicode="ç"/>
<glyph d="M308 -10c-157 0 -270 111 -270 260s116 260 270 260c139 0 241 -91 254 -211h-138c-14 49 -57 85 -116 85c-76 0 -131 -58 -131 -134s55 -134 131 -134c59 0 103 36 116 86h138c-14 -121 -118 -212 -254 -212zM301 557l-90 188h190l-90 -188h-10z" glyph-name="cdotaccent" horiz-adv-x="598" unicode="ċ"/>
<glyph d="M309 118c72 0 128 57 128 132s-56 132 -128 132c-73 0 -129 -57 -129 -132s56 -132 129 -132zM287 -10c-143 0 -249 111 -249 260s106 260 249 260c58 0 109 -21 147 -57v257h139v-710h-128v57c-39 -42 -94 -67 -158 -67z" glyph-name="d" horiz-adv-x="655" unicode="d"/>
<glyph d="M312 119c74 0 131 57 131 131s-57 132 -131 132c-75 0 -132 -58 -132 -132s57 -131 132 -131zM310 -10c-156 0 -272 110 -272 257c0 144 109 256 260 256c13 0 25 -2 36 -5c-3 5 -7 10 -10 16l-21 31h-152v96h93l-44 69h154l44 -69h128v-96h-68l44 -64 c31 -53 84 -132 84 -231c0 -149 -114 -260 -276 -260z" glyph-name="eth" horiz-adv-x="623" unicode="ð"/>
<glyph d="M309 118c72 0 128 57 128 132s-56 132 -128 132c-73 0 -129 -57 -129 -132s56 -132 129 -132zM636 550v160h125l-8 -160h-117zM287 -10c-143 0 -249 111 -249 260s106 260 249 260c58 0 109 -21 147 -57v257h139v-710h-128v57c-39 -42 -94 -67 -158 -67z" glyph-name="dcaron" horiz-adv-x="655" unicode="ď"/>
<glyph d="M309 118c72 0 128 57 128 132s-56 132 -128 132c-73 0 -129 -57 -129 -132s56 -132 129 -132zM638 644v-96h-65v-548h-128v57c-39 -42 -94 -67 -158 -67c-143 0 -249 111 -249 260s106 260 249 260c58 0 109 -21 147 -57v95h-147v96h147v66h139v-66h65z" glyph-name="dcroat" horiz-adv-x="655" unicode="đ"/>
<glyph d="M438 301c-16 59 -65 95 -130 95c-62 0 -116 -37 -132 -95h262zM311 -10c-162 0 -273 105 -273 256c0 154 121 264 273 264c150 0 264 -108 264 -258c0 -15 -1 -28 -3 -42h-399c12 -59 64 -107 141 -107c46 0 87 18 106 48h139c-18 -83 -110 -161 -248 -161z" glyph-name="e" horiz-adv-x="608" unicode="e"/>
<glyph d="M438 301c-16 59 -65 95 -130 95c-62 0 -116 -37 -132 -95h262zM311 -10c-162 0 -273 105 -273 256c0 154 121 264 273 264c150 0 264 -108 264 -258c0 -15 -1 -28 -3 -42h-399c12 -59 64 -107 141 -107c46 0 87 18 106 48h139c-18 -83 -110 -161 -248 -161zM244 585 l66 160h136l-67 -160h-135z" glyph-name="eacute" horiz-adv-x="608" unicode="é"/>
<glyph d="M438 301c-16 59 -65 95 -130 95c-62 0 -116 -37 -132 -95h262zM311 -10c-162 0 -273 105 -273 256c0 154 121 264 273 264c150 0 264 -108 264 -258c0 -15 -1 -28 -3 -42h-399c12 -59 64 -107 141 -107c46 0 87 18 106 48h139c-18 -83 -110 -161 -248 -161zM115 745h131 l56 -81l56 81h131l-114 -160h-146z" glyph-name="ecaron" horiz-adv-x="608" unicode="ě"/>
<glyph d="M438 301c-16 59 -65 95 -130 95c-62 0 -116 -37 -132 -95h262zM311 -10c-162 0 -273 105 -273 256c0 154 121 264 273 264c150 0 264 -108 264 -258c0 -15 -1 -28 -3 -42h-399c12 -59 64 -107 141 -107c46 0 87 18 106 48h139c-18 -83 -110 -161 -248 -161zM489 585h-131 l-56 81l-56 -81h-131l114 160h146z" glyph-name="ecircumflex" horiz-adv-x="608" unicode="ê"/>
<glyph d="M176 301h262c-16 59 -65 95 -130 95c-62 0 -116 -37 -132 -95zM575 252c0 -15 -1 -28 -3 -42h-399c12 -59 64 -107 141 -107c46 0 87 18 106 48h139c-18 -83 -110 -161 -248 -161c-162 0 -273 105 -273 256c0 154 121 264 273 264c150 0 264 -108 264 -258zM223 557h-9 l-80 188h336l-81 -188h-9l-78 183z" glyph-name="edieresis" horiz-adv-x="608" unicode="ë"/>
<glyph d="M438 301c-16 59 -65 95 -130 95c-62 0 -116 -37 -132 -95h262zM311 -10c-162 0 -273 105 -273 256c0 154 121 264 273 264c150 0 264 -108 264 -258c0 -15 -1 -28 -3 -42h-399c12 -59 64 -107 141 -107c46 0 87 18 106 48h139c-18 -83 -110 -161 -248 -161zM297 557 l-90 188h190l-90 -188h-10z" glyph-name="edotaccent" horiz-adv-x="608" unicode="ė"/>
<glyph d="M438 301c-16 59 -65 95 -130 95c-62 0 -116 -37 -132 -95h262zM311 -10c-162 0 -273 105 -273 256c0 154 121 264 273 264c150 0 264 -108 264 -258c0 -15 -1 -28 -3 -42h-399c12 -59 64 -107 141 -107c46 0 87 18 106 48h139c-18 -83 -110 -161 -248 -161zM360 585h-134 l-67 160h135z" glyph-name="egrave" horiz-adv-x="608" unicode="è"/>
<glyph d="M438 301c-16 59 -65 95 -130 95c-62 0 -116 -37 -132 -95h262zM311 -10c-162 0 -273 105 -273 256c0 154 121 264 273 264c150 0 264 -108 264 -258c0 -15 -1 -28 -3 -42h-399c12 -59 64 -107 141 -107c46 0 87 18 106 48h139c-18 -83 -110 -161 -248 -161zM142 723h320 v-106h-320v106z" glyph-name="emacron" horiz-adv-x="608" unicode="ē"/>
<glyph d="M492 -85l-66 -160h-135l67 160h134zM438 301c-16 59 -65 95 -130 95c-62 0 -116 -37 -132 -95h262zM311 -10c-162 0 -273 105 -273 256c0 154 121 264 273 264c150 0 264 -108 264 -258c0 -15 -1 -28 -3 -42h-399c12 -59 64 -107 141 -107c46 0 87 18 106 48h139 c-18 -83 -110 -161 -248 -161z" glyph-name="eogonek" horiz-adv-x="608" unicode="ę"/>
<glyph d="M129 0v374h-93v126h93v50c0 113 84 190 211 190c119 0 209 -65 209 -183h-131v8c-1 36 -35 58 -78 58c-45 0 -81 -22 -81 -72c0 -17 2 -32 4 -51h212v-126h-207v-374h-139z" glyph-name="f" horiz-adv-x="482" unicode="f"/>
<glyph d="M348 -101c98 0 152 22 152 63c0 43 -54 66 -152 66s-151 -23 -151 -66c0 -41 53 -63 151 -63zM360 274c84 0 134 26 134 69s-50 69 -134 69c-85 0 -135 -26 -135 -69s50 -69 135 -69zM346 -210c-186 0 -292 57 -292 156c0 48 29 86 79 108c-80 20 -127 67 -127 133 c0 34 26 82 85 89l10 1c-12 18 -18 40 -18 64c0 91 74 149 202 164v125h143v-124c132 -15 210 -73 210 -165c0 -103 -108 -163 -278 -163c-129 0 -151 35 -195 35c-19 0 -30 -12 -30 -26c0 -49 76 -59 223 -61c178 -2 286 -56 286 -167c0 -104 -114 -169 -298 -169z" glyph-name="g" horiz-adv-x="660" unicode="g"/>
<glyph d="M348 -101c98 0 152 22 152 63c0 43 -54 66 -152 66s-151 -23 -151 -66c0 -41 53 -63 151 -63zM360 274c84 0 134 26 134 69s-50 69 -134 69c-85 0 -135 -26 -135 -69s50 -69 135 -69zM346 -210c-186 0 -292 57 -292 156c0 48 29 86 79 108c-80 20 -127 67 -127 133 c0 34 26 82 85 89l10 1c-12 18 -18 40 -18 64c0 98 91 169 273 169c191 0 282 -71 282 -169c0 -103 -108 -163 -278 -163c-129 0 -151 35 -195 35c-19 0 -30 -12 -30 -26c0 -49 76 -59 223 -61c178 -2 286 -56 286 -167c0 -104 -114 -169 -298 -169zM351 554 c-121 0 -200 78 -200 183v8h115v-7c0 -47 34 -80 85 -80s85 33 85 80v7h115v-8c0 -105 -79 -183 -200 -183z" glyph-name="gbreve" horiz-adv-x="660" unicode="ğ"/>
<glyph d="M348 -101c98 0 152 22 152 63c0 43 -54 66 -152 66s-151 -23 -151 -66c0 -41 53 -63 151 -63zM360 274c84 0 134 26 134 69s-50 69 -134 69c-85 0 -135 -26 -135 -69s50 -69 135 -69zM346 -210c-186 0 -292 57 -292 156c0 48 29 86 79 108c-80 20 -127 67 -127 133 c0 34 26 82 85 89l10 1c-12 18 -18 40 -18 64c0 98 91 169 273 169c191 0 282 -71 282 -169c0 -103 -108 -163 -278 -163c-129 0 -151 35 -195 35c-19 0 -30 -12 -30 -26c0 -49 76 -59 223 -61c178 -2 286 -56 286 -167c0 -104 -114 -169 -298 -169zM335 751h75 c-14 -16 -29 -45 -32 -59c39 -3 58 -33 58 -58c0 -35 -35 -67 -85 -67c-48 0 -88 25 -88 73c0 44 35 87 72 111z" glyph-name="uni0123" horiz-adv-x="660" unicode="ģ"/>
<glyph d="M348 -101c98 0 152 22 152 63c0 43 -54 66 -152 66s-151 -23 -151 -66c0 -41 53 -63 151 -63zM360 274c84 0 134 26 134 69s-50 69 -134 69c-85 0 -135 -26 -135 -69s50 -69 135 -69zM346 -210c-186 0 -292 57 -292 156c0 48 29 86 79 108c-80 20 -127 67 -127 133 c0 34 26 82 85 89l10 1c-12 18 -18 40 -18 64c0 98 91 169 273 169c191 0 282 -71 282 -169c0 -103 -108 -163 -278 -163c-129 0 -151 35 -195 35c-19 0 -30 -12 -30 -26c0 -49 76 -59 223 -61c178 -2 286 -56 286 -167c0 -104 -114 -169 -298 -169zM346 557l-90 188h190 l-90 -188h-10z" glyph-name="gdotaccent" horiz-adv-x="660" unicode="ġ"/>
<glyph d="M82 0v710h139v-256c38 36 89 56 149 56c130 0 218 -90 218 -227v-283h-140v261c-1 74 -42 120 -107 120c-69 0 -120 -51 -120 -120v-261h-139z" glyph-name="h" horiz-adv-x="660" unicode="h"/>
<glyph d="M370 510c130 0 218 -90 218 -227v-283h-140v261c-1 74 -42 120 -107 120c-69 0 -120 -51 -120 -120v-261h-139v548h-62v96h62v66h139v-66h150v-96h-150v-94c38 36 89 56 149 56z" glyph-name="hbar" horiz-adv-x="660" unicode="ħ"/>
<glyph d="M82 0v500h139v-500h-139zM147 557l-90 188h190l-90 -188h-10z" glyph-name="i" horiz-adv-x="303" unicode="i"/>
<glyph d="M82 0v500h139v-500h-139z" glyph-name="dotlessi" horiz-adv-x="303" unicode="ı"/>
<glyph d="M82 0v500h139v-500h-139zM94 585l66 160h136l-67 -160h-135z" glyph-name="iacute" horiz-adv-x="303" unicode="í"/>
<glyph d="M82 0v500h139v-500h-139zM-35 745h131l56 -81l56 81h131l-114 -160h-146z" glyph-name="uni01D0" horiz-adv-x="303" unicode="ǐ"/>
<glyph d="M82 0v500h139v-500h-139zM339 585h-131l-56 81l-56 -81h-131l114 160h146z" glyph-name="icircumflex" horiz-adv-x="303" unicode="î"/>
<glyph d="M82 0v500h139v-500h-139zM320 745l-81 -188h-9l-78 183l-79 -183h-9l-80 188h336z" glyph-name="idieresis" horiz-adv-x="303" unicode="ï"/>
<glyph d="M82 0v500h139v-500h-139zM147 557l-90 188h190l-90 -188h-10z" glyph-name="i.loclTRK" horiz-adv-x="303"/>
<glyph d="M82 0v500h139v-500h-139zM210 585h-134l-67 160h135z" glyph-name="igrave" horiz-adv-x="303" unicode="ì"/>
<glyph d="M82 0v500h139v-500h-139zM-8 723h320v-106h-320v106z" glyph-name="imacron" horiz-adv-x="303" unicode="ī"/>
<glyph d="M225 -85l-66 -160h-135l67 160h134zM82 0v500h139v-500h-139zM147 557l-90 188h190l-90 -188h-10z" glyph-name="iogonek" horiz-adv-x="303" unicode="į"/>
<glyph d="M20 -210c-119 0 -196 66 -196 153h134v-1c0 -28 25 -42 62 -42c46 0 78 24 78 90c0 24 -8 56 -8 106v404h139v-489c0 -147 -76 -221 -209 -221zM155 557l-90 188h190l-90 -188h-10z" glyph-name="j" horiz-adv-x="303" unicode="j"/>
<glyph d="M20 -210c-119 0 -196 66 -196 153h134v-1c0 -28 25 -42 62 -42c46 0 78 24 78 90c0 24 -8 56 -8 106v404h139v-489c0 -147 -76 -221 -209 -221z" glyph-name="uni0237" horiz-adv-x="303" unicode="ȷ"/>
<glyph d="M82 0v710h139v-395h65l137 185h154l-179 -241l189 -259h-166l-137 186h-63v-186h-139z" glyph-name="k" horiz-adv-x="600" unicode="k"/>
<glyph d="M316 -245h-75c14 16 29 45 32 59c-39 3 -58 33 -58 58c0 35 35 67 85 67c48 0 88 -25 88 -73c0 -44 -35 -87 -72 -111zM82 0v710h139v-395h65l137 185h154l-179 -241l189 -259h-166l-137 186h-63v-186h-139z" glyph-name="uni0137" horiz-adv-x="600" unicode="ķ"/>
<glyph d="M82 0v710h139v-710h-139z" glyph-name="l" horiz-adv-x="303" unicode="l"/>
<glyph d="M82 0v710h139v-710h-139zM94 785l66 160h136l-67 -160h-135z" glyph-name="lacute" horiz-adv-x="303" unicode="ĺ"/>
<glyph d="M284 550v160h125l-8 -160h-117zM82 0v710h139v-710h-139z" glyph-name="lcaron" horiz-adv-x="303" unicode="ľ"/>
<glyph d="M168 -245h-75c14 16 29 45 32 59c-39 3 -58 33 -58 58c0 35 35 67 85 67c48 0 88 -25 88 -73c0 -44 -35 -87 -72 -111zM82 0v710h139v-710h-139z" glyph-name="uni013C" horiz-adv-x="303" unicode="ļ"/>
<glyph d="M322 507v-136l-94 -55v-316h-139v235l-75 -44v137l75 43v339h139v-258z" glyph-name="lslash" horiz-adv-x="317" unicode="ł"/>
<glyph d="M82 0v500h127v-58c37 43 90 68 151 68c71 0 129 -29 165 -79c40 49 100 79 169 79c134 0 222 -87 222 -221v-289h-140v267c0 69 -41 115 -101 115c-61 0 -107 -52 -107 -121v-261h-139v267c-1 69 -41 115 -102 115c-60 0 -106 -52 -106 -121v-261h-139z" glyph-name="m" horiz-adv-x="988" unicode="m"/>
<glyph d="M82 0v500h127v-57c39 42 95 67 161 67c130 0 218 -90 218 -227v-283h-140v261c-1 74 -42 120 -107 120c-69 0 -120 -51 -120 -120v-261h-139z" glyph-name="n" horiz-adv-x="660" unicode="n"/>
<glyph d="M82 0v500h127v-57c39 42 95 67 161 67c130 0 218 -90 218 -227v-283h-140v261c-1 74 -42 120 -107 120c-69 0 -120 -51 -120 -120v-261h-139zM280 585l66 160h136l-67 -160h-135z" glyph-name="nacute" horiz-adv-x="660" unicode="ń"/>
<glyph d="M82 0v500h127v-57c39 42 95 67 161 67c130 0 218 -90 218 -227v-283h-140v261c-1 74 -42 120 -107 120c-69 0 -120 -51 -120 -120v-261h-139zM151 745h131l56 -81l56 81h131l-114 -160h-146z" glyph-name="ncaron" horiz-adv-x="660" unicode="ň"/>
<glyph d="M354 -245h-75c14 16 29 45 32 59c-39 3 -58 33 -58 58c0 35 35 67 85 67c48 0 88 -25 88 -73c0 -44 -35 -87 -72 -111zM82 0v500h127v-57c39 42 95 67 161 67c130 0 218 -90 218 -227v-283h-140v261c-1 74 -42 120 -107 120c-69 0 -120 -51 -120 -120v-261h-139z" glyph-name="uni0146" horiz-adv-x="660" unicode="ņ"/>
<glyph d="M379 -210c-119 0 -196 66 -196 153h134v-1c0 -28 25 -42 62 -42c46 0 78 24 78 90c0 24 -8 56 -8 106v165c-1 74 -42 120 -108 120c-69 0 -120 -51 -120 -120v-261h-139v500h127v-57c39 42 95 67 161 67c130 0 218 -90 218 -227v-272c0 -147 -76 -221 -209 -221z" glyph-name="eng" horiz-adv-x="660" unicode="ŋ"/>
<glyph d="M82 0v500h127v-57c39 42 95 67 161 67c130 0 218 -90 218 -227v-283h-140v261c-1 74 -42 120 -107 120c-69 0 -120 -51 -120 -120v-261h-139zM140 591c0 104 46 147 113 147c65 0 104 -43 140 -43c20 0 33 14 33 41h110c0 -105 -46 -148 -113 -148c-65 0 -104 44 -140 44 c-20 0 -33 -14 -33 -41h-110z" glyph-name="ntilde" horiz-adv-x="660" unicode="ñ"/>
<glyph d="M312 118c76 0 132 55 132 132s-56 132 -132 132c-77 0 -132 -55 -132 -132s56 -132 132 -132zM312 -10c-157 0 -274 111 -274 260s117 260 274 260s274 -111 274 -260c0 -148 -118 -260 -274 -260z" glyph-name="o" horiz-adv-x="623" unicode="o"/>
<glyph d="M312 118c76 0 132 55 132 132s-56 132 -132 132c-77 0 -132 -55 -132 -132s56 -132 132 -132zM312 -10c-157 0 -274 111 -274 260s117 260 274 260s274 -111 274 -260c0 -148 -118 -260 -274 -260zM254 585l66 160h136l-67 -160h-135z" glyph-name="oacute" horiz-adv-x="623" unicode="ó"/>
<glyph d="M312 118c76 0 132 55 132 132s-56 132 -132 132c-77 0 -132 -55 -132 -132s56 -132 132 -132zM312 -10c-157 0 -274 111 -274 260s117 260 274 260s274 -111 274 -260c0 -148 -118 -260 -274 -260zM499 585h-131l-56 81l-56 -81h-131l114 160h146z" glyph-name="ocircumflex" horiz-adv-x="623" unicode="ô"/>
<glyph d="M312 118c76 0 132 55 132 132s-56 132 -132 132c-77 0 -132 -55 -132 -132s56 -132 132 -132zM312 510c157 0 274 -111 274 -260c0 -148 -118 -260 -274 -260c-157 0 -274 111 -274 260s117 260 274 260zM233 557h-9l-80 188h336l-81 -188h-9l-78 183z" glyph-name="odieresis" horiz-adv-x="623" unicode="ö"/>
<glyph d="M312 118c76 0 132 55 132 132s-56 132 -132 132c-77 0 -132 -55 -132 -132s56 -132 132 -132zM312 -10c-157 0 -274 111 -274 260s117 260 274 260s274 -111 274 -260c0 -148 -118 -260 -274 -260zM370 585h-134l-67 160h135z" glyph-name="ograve" horiz-adv-x="623" unicode="ò"/>
<glyph d="M312 118c76 0 132 55 132 132s-56 132 -132 132c-77 0 -132 -55 -132 -132s56 -132 132 -132zM312 -10c-157 0 -274 111 -274 260s117 260 274 260s274 -111 274 -260c0 -148 -118 -260 -274 -260zM346 585l59 160h122l-60 -160h-121zM169 585l59 160h122l-60 -160h-121z " glyph-name="ohungarumlaut" horiz-adv-x="623" unicode="ő"/>
<glyph d="M312 118c76 0 132 55 132 132s-56 132 -132 132c-77 0 -132 -55 -132 -132s56 -132 132 -132zM312 -10c-157 0 -274 111 -274 260s117 260 274 260s274 -111 274 -260c0 -148 -118 -260 -274 -260zM152 723h320v-106h-320v106z" glyph-name="omacron" horiz-adv-x="623" unicode="ō"/>
<glyph d="M312 106c84 0 146 61 146 144c0 28 -7 53 -21 74l-173 -209c14 -6 30 -9 48 -9zM186 176l174 209c-14 6 -31 9 -48 9c-85 0 -146 -60 -146 -144c0 -28 7 -53 20 -74zM312 -10c-47 0 -91 10 -129 29l-15 -19h-128l63 76c-41 46 -65 106 -65 174c0 149 117 260 274 260 c48 0 91 -10 129 -29l15 19h128l-64 -76c41 -46 66 -106 66 -174c0 -148 -118 -260 -274 -260z" glyph-name="oslash" horiz-adv-x="623" unicode="ø"/>
<glyph d="M312 118c76 0 132 55 132 132s-56 132 -132 132c-77 0 -132 -55 -132 -132s56 -132 132 -132zM312 -10c-157 0 -274 111 -274 260s117 260 274 260s274 -111 274 -260c0 -148 -118 -260 -274 -260zM114 591c0 104 46 147 113 147c65 0 104 -43 140 -43c20 0 33 14 33 41 h110c0 -105 -46 -148 -113 -148c-65 0 -104 44 -140 44c-20 0 -33 -14 -33 -41h-110z" glyph-name="otilde" horiz-adv-x="623" unicode="õ"/>
<glyph d="M312 118c76 0 132 55 132 132s-56 132 -132 132c-77 0 -132 -55 -132 -132s56 -132 132 -132zM578 301h262c-16 59 -65 95 -130 95c-63 0 -116 -37 -132 -95zM312 -10c-157 0 -274 111 -274 260s117 260 274 260c83 0 154 -34 201 -91c47 57 118 91 199 91 c151 0 264 -108 264 -258c0 -15 -1 -28 -2 -42h-399c12 -59 64 -107 141 -107c46 0 87 18 106 48h138c-17 -83 -109 -161 -247 -161c-87 0 -158 34 -203 88c-47 -54 -117 -88 -198 -88z" glyph-name="oe" horiz-adv-x="1010" unicode="œ"/>
<glyph d="M346 118c73 0 129 57 129 132s-56 132 -129 132s-128 -57 -128 -132s55 -132 128 -132zM82 -200v700h127v-57c40 42 94 67 158 67c144 0 250 -111 250 -260s-106 -260 -250 -260c-57 0 -108 21 -146 57v-247h-139z" glyph-name="p" horiz-adv-x="654" unicode="p"/>
<glyph d="M346 118c73 0 129 57 129 132s-56 132 -129 132s-128 -57 -128 -132s55 -132 128 -132zM82 -200v910h139v-257c38 36 89 57 146 57c144 0 250 -111 250 -260s-106 -260 -250 -260c-57 0 -108 21 -146 57v-247h-139z" glyph-name="thorn" horiz-adv-x="654" unicode="þ"/>
<glyph d="M309 118c72 0 128 57 128 132s-56 132 -128 132c-73 0 -129 -57 -129 -132s56 -132 129 -132zM573 -200h-139v247c-38 -36 -89 -57 -147 -57c-143 0 -249 111 -249 260s106 260 249 260c64 0 119 -25 158 -67v57h128v-700z" glyph-name="q" horiz-adv-x="655" unicode="q"/>
<glyph d="M82 0v500h127v-57c36 42 89 67 148 67c107 0 186 -71 186 -190v-34h-139v20c0 49 -33 74 -81 74c-57 0 -102 -48 -102 -110v-270h-139z" glyph-name="r" horiz-adv-x="539" unicode="r"/>
<glyph d="M82 0v500h127v-57c36 42 89 67 148 67c107 0 186 -71 186 -190v-34h-139v20c0 49 -33 74 -81 74c-57 0 -102 -48 -102 -110v-270h-139zM259 585l66 160h136l-67 -160h-135z" glyph-name="racute" horiz-adv-x="539" unicode="ŕ"/>
<glyph d="M82 0v500h127v-57c36 42 89 67 148 67c107 0 186 -71 186 -190v-34h-139v20c0 49 -33 74 -81 74c-57 0 -102 -48 -102 -110v-270h-139zM130 745h131l56 -81l56 81h131l-114 -160h-146z" glyph-name="rcaron" horiz-adv-x="539" unicode="ř"/>
<glyph d="M168 -245h-75c14 16 29 45 32 59c-39 3 -58 33 -58 58c0 35 35 67 85 67c48 0 88 -25 88 -73c0 -44 -35 -87 -72 -111zM82 0v500h127v-57c36 42 89 67 148 67c107 0 186 -71 186 -190v-34h-139v20c0 49 -33 74 -81 74c-57 0 -102 -48 -102 -110v-270h-139z" glyph-name="uni0157" horiz-adv-x="539" unicode="ŗ"/>
<glyph d="M289 -14c-133 0 -250 57 -265 186h142c10 -47 57 -78 124 -78c39 0 95 10 95 49c0 33 -39 36 -125 53c-113 23 -216 51 -216 161c0 115 124 157 233 157c119 0 235 -49 250 -181h-142c-14 48 -65 69 -120 69c-34 0 -83 -9 -83 -45s50 -41 130 -57 c116 -23 216 -52 216 -153c0 -107 -110 -161 -239 -161z" glyph-name="s" horiz-adv-x="563" unicode="s"/>
<glyph d="M289 -14c-133 0 -250 57 -265 186h142c10 -47 57 -78 124 -78c39 0 95 10 95 49c0 33 -39 36 -125 53c-113 23 -216 51 -216 161c0 115 124 157 233 157c119 0 235 -49 250 -181h-142c-14 48 -65 69 -120 69c-34 0 -83 -9 -83 -45s50 -41 130 -57 c116 -23 216 -52 216 -153c0 -107 -110 -161 -239 -161zM215 585l66 160h136l-67 -160h-135z" glyph-name="sacute" horiz-adv-x="563" unicode="ś"/>
<glyph d="M289 -14c-133 0 -250 57 -265 186h142c10 -47 57 -78 124 -78c39 0 95 10 95 49c0 33 -39 36 -125 53c-113 23 -216 51 -216 161c0 115 124 157 233 157c119 0 235 -49 250 -181h-142c-14 48 -65 69 -120 69c-34 0 -83 -9 -83 -45s50 -41 130 -57 c116 -23 216 -52 216 -153c0 -107 -110 -161 -239 -161zM86 745h131l56 -81l56 81h131l-114 -160h-146z" glyph-name="scaron" horiz-adv-x="563" unicode="š"/>
<glyph d="M363 -85l-66 -160h-136l67 160h135zM289 -14c-133 0 -250 57 -265 186h142c10 -47 57 -78 124 -78c39 0 95 10 95 49c0 33 -39 36 -125 53c-113 23 -216 51 -216 161c0 115 124 157 233 157c119 0 235 -49 250 -181h-142c-14 48 -65 69 -120 69c-34 0 -83 -9 -83 -45 s50 -41 130 -57c116 -23 216 -52 216 -153c0 -107 -110 -161 -239 -161z" glyph-name="scedilla" horiz-adv-x="563" unicode="ş"/>
<glyph d="M311 -245h-75c14 16 29 45 32 59c-39 3 -58 33 -58 58c0 35 35 67 85 67c48 0 88 -25 88 -73c0 -44 -35 -87 -72 -111zM289 -14c-133 0 -250 57 -265 186h142c10 -47 57 -78 124 -78c39 0 95 10 95 49c0 33 -39 36 -125 53c-113 23 -216 51 -216 161 c0 115 124 157 233 157c119 0 235 -49 250 -181h-142c-14 48 -65 69 -120 69c-34 0 -83 -9 -83 -45s50 -41 130 -57c116 -23 216 -52 216 -153c0 -107 -110 -161 -239 -161z" glyph-name="uni0219" horiz-adv-x="563" unicode="ș"/>
<glyph d="M129 -200v574h-93v126h93v39c0 113 96 201 259 201c152 0 261 -78 261 -203v-132c-37 2 -61 4 -82 4c-41 0 -102 -8 -102 -46c0 -35 48 -40 117 -55c111 -25 196 -61 196 -156c0 -111 -103 -166 -220 -166s-208 55 -221 179h123c8 -45 48 -71 101 -71c34 0 84 11 84 51 c0 34 -35 39 -114 56c-93 20 -191 54 -191 159c0 106 103 144 175 151v23c0 54 -59 81 -127 81c-69 0 -129 -29 -129 -97c0 -24 9 -48 9 -121v-597h-139z" glyph-name="germandbls" horiz-adv-x="792" unicode="ß"/>
<glyph d="M321 -10c-133 0 -192 60 -192 167v217h-113v126h62c40 0 62 22 62 63v57h128v-120h180v-126h-180v-190c0 -48 20 -66 74 -66c34 0 69 3 106 10v-125c-38 -7 -90 -13 -127 -13z" glyph-name="t" horiz-adv-x="487" unicode="t"/>
<glyph d="M448 387h-180v-83h180v-99h-180v-26c2 -45 22 -61 74 -61c34 0 69 3 106 10v-125c-38 -7 -90 -13 -127 -13c-133 0 -192 60 -192 167v48h-113v99h113v83h-113v113h62c40 0 62 22 62 63v57h128v-120h180v-113z" glyph-name="tbar" horiz-adv-x="488" unicode="ŧ"/>
<glyph d="M321 -10c-133 0 -192 60 -192 167v217h-113v126h62c40 0 62 22 62 63v57h128v-120h180v-126h-180v-190c0 -48 20 -66 74 -66c34 0 69 3 106 10v-125c-38 -7 -90 -13 -127 -13zM331 540v160h125l-8 -160h-117z" glyph-name="tcaron" horiz-adv-x="487" unicode="ť"/>
<glyph d="M380 -85l-66 -160h-136l67 160h135zM321 -10c-133 0 -192 60 -192 167v217h-113v126h62c40 0 62 22 62 63v57h128v-120h180v-126h-180v-190c0 -48 20 -66 74 -66c34 0 69 3 106 10v-125c-38 -7 -90 -13 -127 -13z" glyph-name="uni0163" horiz-adv-x="487" unicode="ţ"/>
<glyph d="M328 -245h-75c14 16 29 45 32 59c-39 3 -58 33 -58 58c0 35 35 67 85 67c48 0 88 -25 88 -73c0 -44 -35 -87 -72 -111zM321 -10c-133 0 -192 60 -192 167v217h-113v126h62c40 0 62 22 62 63v57h128v-120h180v-126h-180v-190c0 -48 20 -66 74 -66c34 0 69 3 106 10v-125 c-38 -7 -90 -13 -127 -13z" glyph-name="uni021B" horiz-adv-x="487" unicode="ț"/>
<glyph d="M290 -10c-130 0 -218 90 -218 227v283h140l1 -261c0 -74 41 -120 106 -120c69 0 120 51 120 120v261h139v-500h-127v57c-39 -42 -95 -67 -161 -67z" glyph-name="u" horiz-adv-x="660" unicode="u"/>
<glyph d="M290 -10c-130 0 -218 90 -218 227v283h140l1 -261c0 -74 41 -120 106 -120c69 0 120 51 120 120v261h139v-500h-127v57c-39 -42 -95 -67 -161 -67zM261 585l66 160h136l-67 -160h-135z" glyph-name="uacute" horiz-adv-x="660" unicode="ú"/>
<glyph d="M290 -10c-130 0 -218 90 -218 227v283h140l1 -261c0 -74 41 -120 106 -120c69 0 120 51 120 120v261h139v-500h-127v57c-39 -42 -95 -67 -161 -67zM506 585h-131l-56 81l-56 -81h-131l114 160h146z" glyph-name="ucircumflex" horiz-adv-x="660" unicode="û"/>
<glyph d="M439 500h139v-500h-127v57c-39 -42 -95 -67 -161 -67c-130 0 -218 90 -218 227v283h140l1 -261c0 -74 41 -120 106 -120c69 0 120 51 120 120v261zM240 557h-9l-80 188h336l-81 -188h-9l-78 183z" glyph-name="udieresis" horiz-adv-x="660" unicode="ü"/>
<glyph d="M290 -10c-130 0 -218 90 -218 227v283h140l1 -261c0 -74 41 -120 106 -120c69 0 120 51 120 120v261h139v-500h-127v57c-39 -42 -95 -67 -161 -67zM377 585h-134l-67 160h135z" glyph-name="ugrave" horiz-adv-x="660" unicode="ù"/>
<glyph d="M290 -10c-130 0 -218 90 -218 227v283h140l1 -261c0 -74 41 -120 106 -120c69 0 120 51 120 120v261h139v-500h-127v57c-39 -42 -95 -67 -161 -67zM353 585l59 160h122l-60 -160h-121zM176 585l59 160h122l-60 -160h-121z" glyph-name="uhungarumlaut" horiz-adv-x="660" unicode="ű"/>
<glyph d="M290 -10c-130 0 -218 90 -218 227v283h140l1 -261c0 -74 41 -120 106 -120c69 0 120 51 120 120v261h139v-500h-127v57c-39 -42 -95 -67 -161 -67zM159 723h320v-106h-320v106z" glyph-name="umacron" horiz-adv-x="660" unicode="ū"/>
<glyph d="M582 -85l-66 -160h-135l67 160h134zM290 -10c-130 0 -218 90 -218 227v283h140l1 -261c0 -74 41 -120 106 -120c69 0 120 51 120 120v261h139v-500h-127v57c-39 -42 -95 -67 -161 -67z" glyph-name="uogonek" horiz-adv-x="660" unicode="ų"/>
<glyph d="M290 -10c-130 0 -218 90 -218 227v283h140l1 -261c0 -74 41 -120 106 -120c69 0 120 51 120 120v261h139v-500h-127v57c-39 -42 -95 -67 -161 -67zM319 647c25 0 45 20 45 45c0 24 -20 44 -45 44s-45 -20 -45 -44c0 -26 20 -45 45 -45zM318 554c-76 0 -137 61 -137 137 s61 138 137 138c77 0 139 -62 139 -138s-62 -137 -139 -137z" glyph-name="uring" horiz-adv-x="660" unicode="ů"/>
<glyph d="M203 0l-196 500h153l136 -378h8l136 378h150l-197 -500h-190z" glyph-name="v" horiz-adv-x="596" unicode="v"/>
<glyph d="M148 0l-127 500h138l90 -355l93 355h144l92 -352l88 352h137l-127 -500h-172l-92 348l-92 -348h-172z" glyph-name="w" horiz-adv-x="824" unicode="w"/>
<glyph d="M148 0l-127 500h138l90 -355l93 355h144l92 -352l88 352h137l-127 -500h-172l-92 348l-92 -348h-172zM354 585l66 160h136l-67 -160h-135z" glyph-name="wacute" horiz-adv-x="824" unicode="ẃ"/>
<glyph d="M148 0l-127 500h138l90 -355l93 355h144l92 -352l88 352h137l-127 -500h-172l-92 348l-92 -348h-172zM599 585h-131l-56 81l-56 -81h-131l114 160h146z" glyph-name="wcircumflex" horiz-adv-x="824" unicode="ŵ"/>
<glyph d="M666 500h137l-127 -500h-172l-92 348l-92 -348h-172l-127 500h138l90 -355l93 355h144l92 -352zM333 557h-9l-80 188h336l-81 -188h-9l-78 183z" glyph-name="wdieresis" horiz-adv-x="824" unicode="ẅ"/>
<glyph d="M148 0l-127 500h138l90 -355l93 355h144l92 -352l88 352h137l-127 -500h-172l-92 348l-92 -348h-172zM470 585h-134l-67 160h135z" glyph-name="wgrave" horiz-adv-x="824" unicode="ẁ"/>
<glyph d="M3 0l197 254l-189 246h164l118 -153l120 153h159l-191 -242l199 -258h-163l-128 167l-129 -167h-157z" glyph-name="x" horiz-adv-x="583" unicode="x"/>
<glyph d="M210 -210c-96 0 -192 58 -192 198v26h129v-37c0 -45 30 -70 64 -70c35 0 58 24 58 59v6c0 21 -1 36 -11 54l-250 474h157l151 -307c2 -3 6 -15 7 -20c1 6 4 14 5 17l121 310h144l-180 -432c-9 -22 -12 -35 -12 -64v-34c0 -115 -87 -180 -191 -180z" glyph-name="y" horiz-adv-x="600" unicode="y"/>
<glyph d="M210 -210c-96 0 -192 58 -192 198v26h129v-37c0 -45 30 -70 64 -70c35 0 58 24 58 59v6c0 21 -1 36 -11 54l-250 474h157l151 -307c2 -3 6 -15 7 -20c1 6 4 14 5 17l121 310h144l-180 -432c-9 -22 -12 -35 -12 -64v-34c0 -115 -87 -180 -191 -180zM247 585l66 160h136 l-67 -160h-135z" glyph-name="yacute" horiz-adv-x="600" unicode="ý"/>
<glyph d="M210 -210c-96 0 -192 58 -192 198v26h129v-37c0 -45 30 -70 64 -70c35 0 58 24 58 59v6c0 21 -1 36 -11 54l-250 474h157l151 -307c2 -3 6 -15 7 -20c1 6 4 14 5 17l121 310h144l-180 -432c-9 -22 -12 -35 -12 -64v-34c0 -115 -87 -180 -191 -180zM492 585h-131l-56 81 l-56 -81h-131l114 160h146z" glyph-name="ycircumflex" horiz-adv-x="600" unicode="ŷ"/>
<glyph d="M449 500h144l-180 -432c-9 -22 -12 -35 -12 -64v-34c0 -115 -87 -180 -191 -180c-96 0 -192 58 -192 198v26h129v-37c0 -45 30 -70 64 -70c35 0 58 24 58 59v6c0 21 -1 36 -11 54l-250 474h157l151 -307c2 -3 6 -15 7 -20c1 6 4 14 5 17zM226 557h-9l-80 188h336 l-81 -188h-9l-78 183z" glyph-name="ydieresis" horiz-adv-x="600" unicode="ÿ"/>
<glyph d="M210 -210c-96 0 -192 58 -192 198v26h129v-37c0 -45 30 -70 64 -70c35 0 58 24 58 59v6c0 21 -1 36 -11 54l-250 474h157l151 -307c2 -3 6 -15 7 -20c1 6 4 14 5 17l121 310h144l-180 -432c-9 -22 -12 -35 -12 -64v-34c0 -115 -87 -180 -191 -180zM363 585h-134l-67 160 h135z" glyph-name="ygrave" horiz-adv-x="600" unicode="ỳ"/>
<glyph d="M44 0v108l272 266h-260v126h442v-107l-271 -267h272v-126h-455z" glyph-name="z" horiz-adv-x="545" unicode="z"/>
<glyph d="M44 0v108l272 266h-260v126h442v-107l-271 -267h272v-126h-455zM242 585l66 160h136l-67 -160h-135z" glyph-name="zacute" horiz-adv-x="545" unicode="ź"/>
<glyph d="M44 0v108l272 266h-260v126h442v-107l-271 -267h272v-126h-455zM113 745h131l56 -81l56 81h131l-114 -160h-146z" glyph-name="zcaron" horiz-adv-x="545" unicode="ž"/>
<glyph d="M44 0v108l272 266h-260v126h442v-107l-271 -267h272v-126h-455zM295 557l-90 188h190l-90 -188h-10z" glyph-name="zdotaccent" horiz-adv-x="545" unicode="ż"/>
<glyph d="M348 -101c98 0 152 22 152 63c0 43 -54 66 -152 66s-151 -23 -151 -66c0 -41 53 -63 151 -63zM360 274c84 0 134 26 134 69s-50 69 -134 69c-85 0 -135 -26 -135 -69s50 -69 135 -69zM346 -210c-186 0 -292 57 -292 156c0 48 29 86 79 108c-80 20 -127 67 -127 133 c0 34 26 82 85 89l10 1c-12 18 -18 40 -18 64c0 98 91 169 273 169c191 0 282 -71 282 -169c0 -103 -108 -163 -278 -163c-129 0 -151 35 -195 35c-19 0 -30 -12 -30 -26c0 -49 76 -59 223 -61c178 -2 286 -56 286 -167c0 -104 -114 -169 -298 -169z" glyph-name="g.alt" horiz-adv-x="660"/>
<glyph d="M129 0v374h-93v126h93v50c0 113 76 190 206 190c109 0 191 -65 191 -183h-132v8c-1 38 -28 61 -63 61c-42 0 -74 -24 -74 -77c0 -16 3 -31 5 -49h322v-126h-316v-374h-139z" glyph-name="f.long" horiz-adv-x="485"/>
<glyph d="M82 0v500h751v-500h-139v375h-167v-375h-139v375h-167v-375h-139z" glyph-name="m.ss03" horiz-adv-x="915"/>
<glyph d="M82 0v500h490v-500h-139v371h-212v-371h-139z" glyph-name="n.ss03" horiz-adv-x="654"/>
<glyph d="M82 0v500h490v-500h-139v371h-212v-371h-139zM269 585l66 160h136l-67 -160h-135z" glyph-name="nacute.ss03" horiz-adv-x="654"/>
<glyph d="M82 0v500h490v-500h-139v371h-212v-371h-139zM140 745h131l56 -81l56 81h131l-114 -160h-146z" glyph-name="ncaron.ss03" horiz-adv-x="654"/>
<glyph d="M343 -245h-75c14 16 29 45 32 59c-39 3 -58 33 -58 58c0 35 35 67 85 67c48 0 88 -25 88 -73c0 -44 -35 -87 -72 -111zM82 0v500h490v-500h-139v371h-212v-371h-139z" glyph-name="uni0146.ss03" horiz-adv-x="654"/>
<glyph d="M363 -210c-119 0 -196 66 -196 153h134v-1c0 -28 25 -42 62 -42c46 0 78 24 78 90c0 24 -8 56 -8 106v275h-212v-371h-139v500h490v-489c0 -147 -76 -221 -209 -221z" glyph-name="eng.ss03" horiz-adv-x="654"/>
<glyph d="M82 0v500h490v-500h-139v371h-212v-371h-139zM129 591c0 104 46 147 113 147c65 0 104 -43 140 -43c20 0 33 14 33 41h110c0 -105 -46 -148 -113 -148c-65 0 -104 44 -140 44c-20 0 -33 -14 -33 -41h-110z" glyph-name="ntilde.ss03" horiz-adv-x="654"/>
<glyph d="M82 0v500h393v-131h-254v-369h-139z" glyph-name="r.ss03" horiz-adv-x="494"/>
<glyph d="M82 0v500h393v-131h-254v-369h-139zM227 585l66 160h136l-67 -160h-135z" glyph-name="racute.ss03" horiz-adv-x="494"/>
<glyph d="M82 0v500h393v-131h-254v-369h-139zM98 745h131l56 -81l56 81h131l-114 -160h-146z" glyph-name="rcaron.ss03" horiz-adv-x="494"/>
<glyph d="M168 -245h-75c14 16 29 45 32 59c-39 3 -58 33 -58 58c0 35 35 67 85 67c48 0 88 -25 88 -73c0 -44 -35 -87 -72 -111zM82 0v500h393v-131h-254v-369h-139z" glyph-name="uni0157.ss03" horiz-adv-x="494"/>
<glyph d="M42 0v125h272l-264 268v107h435v-125h-253l265 -267v-108h-455z" glyph-name="s.ss03" horiz-adv-x="541"/>
<glyph d="M42 0v125h272l-264 268v107h435v-125h-253l265 -267v-108h-455zM211 585l66 160h136l-67 -160h-135z" glyph-name="sacute.ss03" horiz-adv-x="540"/>
<glyph d="M42 0v125h272l-264 268v107h435v-125h-253l265 -267v-108h-455zM82 745h131l56 -81l56 81h131l-114 -160h-146z" glyph-name="scaron.ss03" horiz-adv-x="540"/>
<glyph d="M337 -85l-66 -160h-136l67 160h135zM42 0v125h272l-264 268v107h435v-125h-253l265 -267v-108h-455z" glyph-name="scedilla.ss03" horiz-adv-x="540"/>
<glyph d="M285 -245h-75c14 16 29 45 32 59c-39 3 -58 33 -58 58c0 35 35 67 85 67c48 0 88 -25 88 -73c0 -44 -35 -87 -72 -111zM42 0v125h272l-264 268v107h435v-125h-253l265 -267v-108h-455z" glyph-name="uni0219.ss03" horiz-adv-x="540"/>
<glyph d="M129 -200v574h-93v126h93v39c0 113 99 201 267 201c157 0 269 -78 269 -203v-158h-138l244 -271v-108h-431v125h253l-245 268v107h183v34c0 54 -63 81 -135 81c-73 0 -137 -29 -137 -97c0 -24 9 -48 9 -121v-597h-139z" glyph-name="germandbls.ss03" horiz-adv-x="789"/>
<glyph d="M572 500v-500h-490v500h139v-371h212v371h139z" glyph-name="u.ss03" horiz-adv-x="654"/>
<glyph d="M572 500v-500h-490v500h139v-371h212v371h139zM269 585l66 160h136l-67 -160h-135z" glyph-name="uacute.ss03" horiz-adv-x="654"/>
<glyph d="M572 500v-500h-490v500h139v-371h212v371h139zM514 585h-131l-56 81l-56 -81h-131l114 160h146z" glyph-name="ucircumflex.ss03" horiz-adv-x="654"/>
<glyph d="M433 500h139v-500h-490v500h139v-371h212v371zM248 557h-9l-80 188h336l-81 -188h-9l-78 183z" glyph-name="udieresis.ss03" horiz-adv-x="654"/>
<glyph d="M572 500v-500h-490v500h139v-371h212v371h139zM385 585h-134l-67 160h135z" glyph-name="ugrave.ss03" horiz-adv-x="654"/>
<glyph d="M572 500v-500h-490v500h139v-371h212v371h139zM361 585l59 160h122l-60 -160h-121zM184 585l59 160h122l-60 -160h-121z" glyph-name="uhungarumlaut.ss03" horiz-adv-x="654"/>
<glyph d="M572 500v-500h-490v500h139v-371h212v371h139zM167 723h320v-106h-320v106z" glyph-name="umacron.ss03" horiz-adv-x="654"/>
<glyph d="M576 -85l-66 -160h-135l67 160h134zM572 500v-500h-490v500h139v-371h212v371h139z" glyph-name="uogonek.ss03" horiz-adv-x="654"/>
<glyph d="M572 500v-500h-490v500h139v-371h212v371h139zM327 647c25 0 45 20 45 45c0 24 -20 44 -45 44s-45 -20 -45 -44c0 -26 20 -45 45 -45zM326 554c-76 0 -137 61 -137 137s61 138 137 138c77 0 139 -62 139 -138s-62 -137 -139 -137z" glyph-name="uring.ss03" horiz-adv-x="654"/>
<glyph d="M82 0v500h139v-376h167v376h139v-376h167v376h139v-500h-751z" glyph-name="w.ss03" horiz-adv-x="915"/>
<glyph d="M82 0v500h139v-376h167v376h139v-376h167v376h139v-500h-751zM400 585l66 160h136l-67 -160h-135z" glyph-name="wacute.ss03" horiz-adv-x="915"/>
<glyph d="M82 0v500h139v-376h167v376h139v-376h167v376h139v-500h-751zM645 585h-131l-56 81l-56 -81h-131l114 160h146z" glyph-name="wcircumflex.ss03" horiz-adv-x="915"/>
<glyph d="M694 500h139v-500h-751v500h139v-376h167v376h139v-376h167v376zM379 557h-9l-80 188h336l-80 -188h-10l-78 183z" glyph-name="wdieresis.ss03" horiz-adv-x="915"/>
<glyph d="M82 0v500h139v-376h167v376h139v-376h167v376h139v-500h-751zM516 585h-134l-67 160h135z" glyph-name="wgrave.ss03" horiz-adv-x="915"/>
<glyph d="M229 -200v200l-222 500h146l147 -363l146 363h144l-222 -500v-200h-139z" glyph-name="y.ss04" horiz-adv-x="596"/>
<glyph d="M229 -200v200l-222 500h146l147 -363l146 363h144l-222 -500v-200h-139zM241 585l66 160h136l-67 -160h-135z" glyph-name="yacute.ss04" horiz-adv-x="596"/>
<glyph d="M229 -200v200l-222 500h146l147 -363l146 363h144l-222 -500v-200h-139zM486 585h-131l-56 81l-56 -81h-131l114 160h146z" glyph-name="ycircumflex.ss04" horiz-adv-x="596"/>
<glyph d="M446 500h144l-222 -500v-200h-139v200l-222 500h146l147 -363zM220 557h-9l-80 188h336l-81 -188h-9l-78 183z" glyph-name="ydieresis.ss04" horiz-adv-x="596"/>
<glyph d="M229 -200v200l-222 500h146l147 -363l146 363h144l-222 -500v-200h-139zM357 585h-134l-67 160h135z" glyph-name="ygrave.ss04" horiz-adv-x="596"/>
<glyph d="M279 275h210l-102 287h-6zM17 0l265 700h209l265 -700h-171l-52 147h-297l-52 -147h-167z" glyph-name="uni0410" horiz-adv-x="773" unicode="А"/>
<glyph d="M251 131h158c65 0 105 33 105 83s-40 82 -105 82h-158v-165zM98 0v700h527v-140h-374v-137h170c156 0 253 -80 253 -211s-97 -212 -253 -212h-323z" glyph-name="uni0411" horiz-adv-x="719" unicode="Б"/>
<glyph d="M253 133h186c57 0 93 30 93 77s-37 77 -93 77h-186v-154zM253 417h168c56 0 91 30 91 75s-35 75 -91 75h-168v-150zM98 0v700h329c150 0 243 -72 243 -190c0 -64 -26 -113 -76 -146v-7c62 -33 98 -90 98 -161c0 -118 -97 -196 -242 -196h-352z" glyph-name="uni0412" horiz-adv-x="736" unicode="В"/>
<glyph d="M98 0v700h504v-152h-344v-548h-160z" glyph-name="uni0413" horiz-adv-x="624" unicode="Г"/>
<glyph d="M449 839h153v-291h-344v-548h-160v700h351v139z" glyph-name="uni0490" horiz-adv-x="624" unicode="Ґ"/>
<glyph d="M254 146h285v411h-250v-35c-1 -159 -11 -265 -35 -376zM19 -146v297h81c23 111 32 216 32 391v35v123h564v-549h96v-297h-153v146h-467v-146h-153z" glyph-name="uni0414" horiz-adv-x="827" unicode="Д"/>
<glyph d="M98 0v700h483v-140h-326v-143h222v-134h-222v-143h355v-140h-512z" glyph-name="uni0415" horiz-adv-x="658" unicode="Е"/>
<glyph d="M255 140h355v-140h-512v700h483v-140h-326v-143h222v-134h-222v-143zM258 757h-9l-80 188h336l-81 -188h-9l-78 183z" glyph-name="uni0401" horiz-adv-x="658" unicode="Ё"/>
<glyph d="M16 0l228 362l-213 338h175l175 -274h102v274h160v-274h103l175 274h174l-214 -338l229 -362h-189l-174 274h-104v-274h-160v274h-104l-175 -274h-188z" glyph-name="uni0416" horiz-adv-x="1126" unicode="Ж"/>
<glyph d="M376 -15c-177 0 -331 96 -343 289h156c12 -94 77 -152 183 -152c87 0 145 34 145 90c0 48 -41 77 -112 77h-90v124h90c57 0 95 30 95 75c0 54 -55 88 -134 88c-91 0 -155 -47 -168 -126h-156c25 182 170 265 330 265c157 0 288 -78 288 -210c0 -65 -31 -116 -84 -147 c63 -31 102 -86 102 -158c0 -134 -131 -215 -302 -215z" glyph-name="uni0417" horiz-adv-x="717" unicode="З"/>
<glyph d="M98 0v700h158v-462l318 462h168v-700h-158v464l-319 -464h-167z" glyph-name="uni0418" horiz-adv-x="840" unicode="И"/>
<glyph d="M98 0v700h158v-462l318 462h168v-700h-158v464l-319 -464h-167zM420 754c-121 0 -200 78 -200 183v8h115v-7c0 -47 34 -80 85 -80s85 33 85 80v7h115v-8c0 -105 -79 -183 -200 -183z" glyph-name="uni0419" horiz-adv-x="840" unicode="Й"/>
<glyph d="M98 0v700h159v-274h105l188 274h176l-230 -337l247 -363h-194l-188 274h-104v-274h-159z" glyph-name="uni041A" horiz-adv-x="758" unicode="К"/>
<glyph d="M104 -14c-45 0 -75 9 -89 14v154c23 -3 43 -5 69 -5c24 0 42 15 51 50c20 70 25 225 25 389v112h554v-700h-160v546h-241v-29c-1 -157 -11 -355 -52 -437c-31 -62 -79 -94 -157 -94z" glyph-name="uni041B" horiz-adv-x="812" unicode="Л"/>
<glyph d="M98 0v700h267l162 -508l161 508h264v-700h-156v573l-180 -573h-183l-179 573v-573h-156z" glyph-name="uni041C" horiz-adv-x="1050" unicode="М"/>
<glyph d="M98 0v700h160v-274h304v274h160v-700h-160v274h-304v-274h-160z" glyph-name="uni041D" horiz-adv-x="820" unicode="Н"/>
<glyph d="M416 138c117 0 204 91 204 212s-87 212 -204 212s-204 -91 -204 -212s87 -212 204 -212zM416 -15c-210 0 -367 156 -367 365s157 365 367 365s367 -156 367 -365s-157 -365 -367 -365z" glyph-name="uni041E" horiz-adv-x="832" unicode="О"/>
<glyph d="M98 0v700h624v-700h-160v548h-304v-548h-160z" glyph-name="uni041F" horiz-adv-x="820" unicode="П"/>
<glyph d="M256 371h123c71 0 115 38 115 96s-44 96 -115 96h-123v-192zM98 0v700h279c172 0 277 -86 277 -228c0 -141 -105 -228 -277 -228h-121v-244h-158z" glyph-name="uni0420" horiz-adv-x="693" unicode="Р"/>
<glyph d="M410 -15c-209 0 -361 153 -361 366c0 211 151 364 361 364c186 0 328 -127 343 -301h-162c-19 89 -89 148 -182 148c-115 0 -196 -88 -196 -212s81 -212 196 -212c94 0 164 59 182 148h162c-16 -175 -158 -301 -343 -301z" glyph-name="uni0421" horiz-adv-x="792" unicode="С"/>
<glyph d="M279 0v547h-252v153h663v-153h-251v-547h-160z" glyph-name="uni0422" horiz-adv-x="717" unicode="Т"/>
<glyph d="M298 -15c-133 0 -230 88 -230 219v36h157v-39c0 -48 28 -81 71 -81c34 0 55 19 55 49c0 17 -5 36 -18 56l-313 475h191l210 -350c6 -10 12 -22 16 -35l115 385h164l-174 -509c-47 -137 -123 -206 -244 -206z" glyph-name="uni0423" horiz-adv-x="733" unicode="У"/>
<glyph d="M298 -15c-133 0 -230 88 -230 219v36h157v-39c0 -48 28 -81 71 -81c34 0 55 19 55 49c0 17 -5 36 -18 56l-313 475h191l210 -350c6 -10 12 -22 16 -35l115 385h164l-174 -509c-47 -137 -123 -206 -244 -206zM379 754c-121 0 -200 78 -200 183v8h115v-7 c0 -47 34 -80 85 -80s85 33 85 80v7h115v-8c0 -105 -79 -183 -200 -183z" glyph-name="uni040E" horiz-adv-x="733" unicode="Ў"/>
<glyph d="M598 227h75c101 0 155 47 155 130c0 82 -54 129 -155 129h-75v-259zM363 227h75v259h-75c-101 0 -154 -47 -154 -129c0 -83 53 -130 154 -130zM438 0v87h-76c-196 0 -317 104 -317 270c0 165 121 269 317 269h76v84h160v-84h76c196 0 317 -104 317 -269 c0 -166 -121 -270 -317 -270h-76v-87h-160z" glyph-name="uni0424" horiz-adv-x="1036" unicode="Ф"/>
<glyph d="M15 0l250 358l-240 342h188l165 -235l165 235h183l-242 -340l253 -360h-190l-173 247l-176 -247h-183z" glyph-name="uni0425" horiz-adv-x="751" unicode="Х"/>
<glyph d="M504 0v245h-163c-169 0 -272 86 -272 228v227h160v-218c0 -52 33 -89 112 -89h163v307h160v-700h-160z" glyph-name="uni0427" horiz-adv-x="762" unicode="Ч"/>
<glyph d="M654 -146v146h-556v700h160v-549h304v549h160v-549h85v-297h-153z" glyph-name="uni0426" horiz-adv-x="842" unicode="Ц"/>
<glyph d="M98 0v700h160v-549h233v549h160v-549h233v549h160v-700h-946z" glyph-name="uni0428" horiz-adv-x="1142" unicode="Ш"/>
<glyph d="M980 -146v146h-882v700h160v-549h233v549h160v-549h233v549h160v-549h89v-297h-153z" glyph-name="uni0429" horiz-adv-x="1168" unicode="Щ"/>
<glyph d="M255 138h127c70 0 114 38 114 96s-44 95 -114 95h-127v-191zM98 0v700h157v-244h129c168 0 272 -86 272 -228c0 -141 -104 -228 -272 -228h-286z" glyph-name="uni042C" unicode="Ь"/>
<glyph d="M496 138c70 0 114 38 114 96s-44 95 -114 95h-127v-191h127zM498 456c168 0 272 -86 272 -228c0 -141 -104 -228 -272 -228h-286v548h-185v152h342v-244h129z" glyph-name="uni042A" horiz-adv-x="814" unicode="Ъ"/>
<glyph d="M255 138h127c70 0 114 38 114 96s-44 95 -114 95h-127v-191zM771 0v700h160v-700h-160zM98 0v700h157v-244h129c168 0 272 -86 272 -228c0 -141 -104 -228 -272 -228h-286z" glyph-name="uni042B" horiz-adv-x="1029" unicode="Ы"/>
<glyph d="M408 -15c-206 0 -359 155 -359 365c0 211 153 365 359 365c188 0 329 -124 346 -298h-160c-19 92 -91 153 -189 153c-97 0 -174 -62 -193 -156h240v-128h-240c19 -94 96 -156 193 -156c98 0 170 61 189 153h159c-16 -174 -157 -298 -345 -298z" glyph-name="uni0404" horiz-adv-x="794" unicode="Є"/>
<glyph d="M378 -15c-183 0 -328 124 -345 298h157c19 -92 91 -154 187 -154c98 0 174 63 193 157h-235v128h235c-19 94 -95 157 -192 157s-169 -62 -188 -154h-157c17 174 165 298 345 298c207 0 360 -154 360 -364c0 -211 -153 -366 -360 -366z" glyph-name="uni042D" horiz-adv-x="787" unicode="Э"/>
<glyph d="M98 0v700h160v-700h-160z" glyph-name="uni0406" horiz-adv-x="356" unicode="І"/>
<glyph d="M98 0v700h160v-700h-160zM346 945l-81 -188h-9l-78 183l-79 -183h-9l-80 188h336z" glyph-name="uni0407" horiz-adv-x="356" unicode="Ї"/>
<glyph d="M735 138c114 0 198 91 198 212s-84 212 -198 212c-113 0 -198 -91 -198 -212s85 -212 198 -212zM735 -15c-180 0 -320 119 -352 288h-125v-273h-160v700h160v-273h125c32 169 172 288 352 288c207 0 361 -156 361 -365s-154 -365 -361 -365z" glyph-name="uni042E" horiz-adv-x="1145" unicode="Ю"/>
<glyph d="M337 376h147v184h-147c-69 0 -113 -36 -113 -92c0 -55 44 -92 113 -92zM13 0l190 272c-88 34 -139 105 -139 203c0 140 106 225 278 225h300v-700h-158v248h-118l-173 -248h-180z" glyph-name="uni042F" horiz-adv-x="740" unicode="Я"/>
<glyph d="M98 0v700h168l327 -470v470h149v-700h-168l-325 471v-471h-151z" glyph-name="uni041D.ss02" horiz-adv-x="840"/>
<glyph d="M505 -153v153h-455v132l377 421h-363v147h571v-132l-377 -421h400v-300h-153z" glyph-name="uni0417.ss03" horiz-adv-x="693"/>
<glyph d="M49 0v132l143 222l-136 214v132h563v-147h-380l131 -203l-130 -203h393v-147h-584z" glyph-name="uni0421.ss03" horiz-adv-x="676"/>
<glyph d="M98 0v700h946v-700h-160v547h-233v-547h-160v547h-233v-547h-160z" glyph-name="uni0422.ss03" horiz-adv-x="1142"/>
<glyph d="M296 0v245l-291 455h188l188 -301l184 301h181l-290 -455v-245h-160z" glyph-name="uni0423.ss04" horiz-adv-x="751"/>
<glyph d="M296 0v245l-291 455h188l188 -301l184 301h181l-290 -455v-245h-160zM376 754c-121 0 -200 78 -200 183v8h115v-7c0 -47 34 -80 85 -80s85 33 85 80v7h115v-8c0 -105 -79 -183 -200 -183z" glyph-name="uni040E.ss04" horiz-adv-x="751"/>
<glyph d="M238 96c79 0 149 61 149 130v6c-11 -9 -50 -20 -95 -24c-86 -7 -118 -28 -118 -64c0 -31 23 -48 64 -48zM205 -11c-107 0 -172 54 -172 141c0 99 86 153 252 163c69 5 96 17 96 44c0 36 -39 62 -92 62c-55 0 -93 -27 -104 -73h-130c16 112 109 184 240 184 c134 0 219 -80 219 -204v-184h58v-122l-174 -1v63c-42 -45 -115 -73 -193 -73z" glyph-name="uni0430" horiz-adv-x="605" unicode="а"/>
<glyph d="M323 108c75 0 132 51 132 120s-57 121 -132 121s-132 -52 -132 -121s57 -120 132 -120zM331 -10c-158 0 -283 96 -283 284v95c1 190 123 288 272 288h100v53h125v-177h-234c-90 0 -141 -43 -141 -127v-23c42 51 109 78 184 78c140 0 243 -99 243 -228 c0 -139 -113 -243 -266 -243z" glyph-name="uni0431" horiz-adv-x="638" unicode="б"/>
<glyph d="M216 101h131c43 0 69 20 69 53c0 32 -27 52 -70 52h-130v-105zM216 297h117c41 0 68 20 68 51s-26 51 -66 51h-119v-102zM82 0v500h280c110 0 177 -49 177 -131c0 -48 -24 -86 -66 -107v-4c54 -23 83 -63 83 -119c0 -87 -71 -139 -190 -139h-284z" glyph-name="uni0432" horiz-adv-x="593" unicode="в"/>
<glyph d="M82 0v500h393v-131h-254v-369h-139z" glyph-name="uni0433" horiz-adv-x="494" unicode="г"/>
<glyph d="M82 -200v700h260v106h133v-237h-254v-569h-139z" glyph-name="uni0491" horiz-adv-x="494" unicode="ґ"/>
<glyph d="M207 121h196v258h-175v-15c0 -101 -7 -172 -21 -243zM16 -109v233h60c14 74 19 147 19 263v51v62h446v-376h75v-233h-134v109h-333v-109h-133z" glyph-name="uni0434" horiz-adv-x="643" unicode="д"/>
<glyph d="M438 301c-16 59 -65 95 -130 95c-62 0 -116 -37 -132 -95h262zM311 -10c-162 0 -273 105 -273 256c0 154 121 264 273 264c150 0 264 -108 264 -258c0 -15 -1 -28 -3 -42h-399c12 -59 64 -107 141 -107c46 0 87 18 106 48h139c-18 -83 -110 -161 -248 -161z" glyph-name="uni0435" horiz-adv-x="608" unicode="е"/>
<glyph d="M176 301h262c-16 59 -65 95 -130 95c-62 0 -116 -37 -132 -95zM575 252c0 -15 -1 -28 -3 -42h-399c12 -59 64 -107 141 -107c46 0 87 18 106 48h139c-18 -83 -110 -161 -248 -161c-162 0 -273 105 -273 256c0 154 121 264 273 264c150 0 264 -108 264 -258zM223 557h-9 l-80 188h336l-81 -188h-9l-78 183z" glyph-name="uni0451" horiz-adv-x="608" unicode="ё"/>
<glyph d="M11 0l171 257l-165 243h152l124 -186h69v396h139v-396h71l123 186h151l-165 -244l171 -256h-162l-123 186h-66v-186h-139v186h-66l-123 -186h-162z" glyph-name="uni0436" horiz-adv-x="863" unicode="ж"/>
<glyph d="M291 -14c-130 0 -250 67 -267 208h134c13 -58 59 -97 135 -97c67 0 105 24 105 59c0 29 -28 48 -83 48h-68v93h66c43 0 74 19 74 49c0 33 -39 57 -99 57c-70 0 -114 -36 -126 -96h-132c10 117 107 207 263 207c154 0 232 -73 232 -154c0 -42 -23 -79 -65 -103 c53 -22 80 -62 80 -111c0 -100 -107 -160 -249 -160z" glyph-name="uni0437" horiz-adv-x="574" unicode="з"/>
<glyph d="M82 0v500h137v-312l226 312h143v-500h-138v312l-225 -312h-143z" glyph-name="uni0438" horiz-adv-x="670" unicode="и"/>
<glyph d="M82 0v500h137v-312l226 312h143v-500h-138v312l-225 -312h-143zM337 554c-121 0 -200 78 -200 183v8h115v-7c0 -47 34 -80 85 -80s85 33 85 80v7h115v-8c0 -105 -79 -183 -200 -183z" glyph-name="uni0439" horiz-adv-x="670" unicode="й"/>
<glyph d="M82 0v710h139v-395h65l137 185h154l-179 -241l189 -259h-166l-137 186h-63v-186h-139z" glyph-name="uni043A" horiz-adv-x="600" unicode="к"/>
<glyph d="M83 -9c-32 0 -59 6 -71 10v125c15 -2 30 -3 44 -3c21 0 37 7 46 29c16 41 20 151 20 266v82h439v-500h-139v371h-172v-21c-1 -127 -6 -236 -42 -297c-25 -40 -65 -62 -125 -62z" glyph-name="uni043B" horiz-adv-x="643" unicode="л"/>
<glyph d="M82 0v500h221l117 -339l116 339h218v-500h-136v369l-130 -369h-139l-131 370v-370h-136z" glyph-name="uni043C" horiz-adv-x="836" unicode="м"/>
<glyph d="M82 0v500h139v-186h212v186h139v-500h-139v186h-212v-186h-139z" glyph-name="uni043D" horiz-adv-x="654" unicode="н"/>
<glyph d="M312 118c76 0 132 55 132 132s-56 132 -132 132c-77 0 -132 -55 -132 -132s56 -132 132 -132zM312 -10c-157 0 -274 111 -274 260s117 260 274 260s274 -111 274 -260c0 -148 -118 -260 -274 -260z" glyph-name="uni043E" horiz-adv-x="623" unicode="о"/>
<glyph d="M82 0v500h490v-500h-139v371h-212v-371h-139z" glyph-name="uni043F" horiz-adv-x="654" unicode="п"/>
<glyph d="M346 118c73 0 129 57 129 132s-56 132 -129 132s-128 -57 -128 -132s55 -132 128 -132zM82 -200v700h127v-57c40 42 94 67 158 67c144 0 250 -111 250 -260s-106 -260 -250 -260c-57 0 -108 21 -146 57v-247h-139z" glyph-name="uni0440" horiz-adv-x="654" unicode="р"/>
<glyph d="M308 -10c-157 0 -270 111 -270 260s116 260 270 260c139 0 241 -91 254 -211h-138c-14 49 -57 85 -116 85c-76 0 -131 -58 -131 -134s55 -134 131 -134c59 0 103 36 116 86h138c-14 -121 -118 -212 -254 -212z" glyph-name="uni0441" horiz-adv-x="598" unicode="с"/>
<glyph d="M216 0v369h-189v131h518v-131h-190v-369h-139z" glyph-name="uni0442" horiz-adv-x="571" unicode="т"/>
<glyph d="M210 -210c-96 0 -192 58 -192 198v26h129v-37c0 -45 30 -70 64 -70c35 0 58 24 58 59v6c0 21 -1 36 -11 54l-250 474h157l151 -307c2 -3 6 -15 7 -20c1 6 4 14 5 17l121 310h144l-180 -432c-9 -22 -12 -35 -12 -64v-34c0 -115 -87 -180 -191 -180z" glyph-name="uni0443" horiz-adv-x="600" unicode="у"/>
<glyph d="M210 -210c-96 0 -192 58 -192 198v26h129v-37c0 -45 30 -70 64 -70c35 0 58 24 58 59v6c0 21 -1 36 -11 54l-250 474h157l151 -307c2 -3 6 -15 7 -20c1 6 4 14 5 17l121 310h144l-180 -432c-9 -22 -12 -35 -12 -64v-34c0 -115 -87 -180 -191 -180zM305 554 c-121 0 -200 78 -200 183v8h115v-7c0 -47 34 -80 85 -80s85 33 85 80v7h115v-8c0 -105 -79 -183 -200 -183z" glyph-name="uni045E" horiz-adv-x="600" unicode="ў"/>
<glyph d="M646 119c64 0 112 56 112 131c0 76 -48 132 -112 132c-65 0 -114 -56 -114 -132c0 -75 49 -131 114 -131zM293 119c64 0 113 56 113 131c0 76 -49 132 -113 132s-113 -56 -113 -132c0 -75 49 -131 113 -131zM399 -200v245c-33 -34 -78 -55 -132 -55 c-133 0 -229 110 -229 260s96 260 229 260c54 0 99 -21 132 -55v255h139v-256c34 35 80 56 134 56c132 0 229 -110 229 -260s-97 -260 -229 -260c-54 0 -100 21 -134 56v-246h-139z" glyph-name="uni0444" horiz-adv-x="938" unicode="ф"/>
<glyph d="M3 0l197 254l-189 246h164l118 -153l120 153h159l-191 -242l199 -258h-163l-128 167l-129 -167h-157z" glyph-name="uni0445" horiz-adv-x="583" unicode="х"/>
<glyph d="M374 0v161h-119c-130 0 -209 62 -209 162v177h139v-152c0 -39 22 -60 81 -60h108v212h139v-500h-139z" glyph-name="uni0447" horiz-adv-x="595" unicode="ч"/>
<glyph d="M511 -109v109h-429v500h139v-376h211v376h139v-376h74v-233h-134z" glyph-name="uni0446" horiz-adv-x="672" unicode="ц"/>
<glyph d="M82 0v500h139v-376h167v376h139v-376h167v376h139v-500h-751z" glyph-name="uni0448" horiz-adv-x="915" unicode="ш"/>
<glyph d="M767 -109v109h-692v500h139v-376h167v376h139v-376h167v376h139v-376h75v-233h-134z" glyph-name="uni0449" horiz-adv-x="929" unicode="щ"/>
<glyph d="M222 108h96c45 0 73 22 73 57s-29 57 -73 57h-97zM82 0v500h138l1 -173h100c131 0 211 -62 211 -164c0 -101 -80 -163 -211 -163h-239z" glyph-name="uni044C" horiz-adv-x="566" unicode="ь"/>
<glyph d="M412 108c45 0 73 22 73 57s-29 57 -73 57h-97l1 -114h96zM415 327c131 0 211 -62 211 -164c0 -101 -80 -163 -211 -163h-239v372h-156v128h294l1 -173h100z" glyph-name="uni044A" horiz-adv-x="660" unicode="ъ"/>
<glyph d="M222 108h96c45 0 73 22 73 57s-29 57 -73 57h-97zM610 0v500h139v-500h-139zM82 0v500h138l1 -173h100c131 0 211 -62 211 -164c0 -101 -80 -163 -211 -163h-239z" glyph-name="uni044B" horiz-adv-x="831" unicode="ы"/>
<glyph d="M310 -10c-157 0 -272 109 -272 260c0 152 115 260 272 260c138 0 246 -92 262 -211h-135c-14 54 -61 94 -136 94c-62 0 -112 -40 -129 -95h163v-96h-163c17 -55 67 -95 129 -95c75 0 123 40 136 95h135c-15 -119 -123 -212 -262 -212z" glyph-name="uni0454" horiz-adv-x="608" unicode="є"/>
<glyph d="M297 -10c-139 0 -247 93 -262 212h132c14 -55 62 -95 137 -95c62 0 112 40 129 95h-162v96h162c-17 55 -67 95 -129 95c-75 0 -122 -40 -137 -94h-132c15 119 124 211 262 211c157 0 272 -108 272 -260c0 -151 -115 -260 -272 -260z" glyph-name="uni044D" horiz-adv-x="607" unicode="э"/>
<glyph d="M82 0v500h139v-500h-139zM147 557l-90 188h190l-90 -188h-10z" glyph-name="uni0456" horiz-adv-x="303" unicode="і"/>
<glyph d="M82 0v500h139v-500h-139zM320 745l-81 -188h-9l-78 183l-79 -183h-9l-80 188h336z" glyph-name="uni0457" horiz-adv-x="303" unicode="ї"/>
<glyph d="M568 119c70 0 125 57 125 131s-55 132 -125 132c-71 0 -125 -58 -125 -132s54 -131 125 -131zM567 -10c-129 0 -229 80 -255 196h-91v-186h-139v500h139v-186h91c27 116 127 196 255 196c154 0 268 -111 268 -260s-114 -260 -268 -260z" glyph-name="uni044E" horiz-adv-x="872" unicode="ю"/>
<glyph d="M264 260h104v128h-104c-47 0 -78 -26 -78 -64s31 -64 78 -64zM9 0l129 183c-58 28 -91 79 -91 145c0 107 84 172 222 172h237v-500h-138v156h-98l-104 -156h-157z" glyph-name="uni044F" horiz-adv-x="588" unicode="я"/>
<glyph d="M82 0v500h260v106h133v-237h-254v-369h-139z" glyph-name="uni0491.ss01" horiz-adv-x="494"/>
<glyph d="M11 0l171 257l-165 243h152l124 -186h69v186h139v-186h71l123 186h151l-165 -244l171 -256h-162l-123 186h-66v-186h-139v186h-66l-123 -186h-162z" glyph-name="uni0436.ss01" horiz-adv-x="863"/>
<glyph d="M82 0v500h139v-185h65l137 185h154l-179 -240l189 -260h-166l-137 186h-63v-186h-139z" glyph-name="uni043A.ss01" horiz-adv-x="600"/>
<glyph d="M82 0v500h143l225 -307v307h138v-500h-143l-226 308v-308h-137z" glyph-name="uni043D.ss02" horiz-adv-x="670"/>
<glyph d="M385 -109v109h-341v108l272 268h-260v124h442v-107l-271 -269h291v-233h-133z" glyph-name="uni0437.ss03" horiz-adv-x="555"/>
<glyph d="M49 0v101l122 149l-122 150v100h433v-124h-260l99 -126l-98 -126h272v-124h-446z" glyph-name="uni0441.ss03" horiz-adv-x="531"/>
<glyph d="M82 0v500h751v-500h-139v375h-167v-375h-139v375h-167v-375h-139z" glyph-name="uni0442.ss03" horiz-adv-x="915"/>
<glyph d="M229 -200v200l-222 500h146l147 -363l146 363h144l-222 -500v-200h-139z" glyph-name="uni0443.ss04" horiz-adv-x="596"/>
<glyph d="M229 -200v200l-222 500h146l147 -363l146 363h144l-222 -500v-200h-139zM299 554c-121 0 -200 78 -200 183v8h115v-7c0 -47 34 -80 85 -80s85 33 85 80v7h115v-8c0 -105 -79 -183 -200 -183z" glyph-name="uni045E.ss04" horiz-adv-x="596"/>
<glyph d="M316 188h180l-90 141zM17 0l309 467v86h-283v147h726v-147h-283v-86l309 -467h-181l-41 66h-334l-42 -66h-180z" glyph-name="uni04220410.dlig" horiz-adv-x="812"/>
<glyph d="M242 95c81 0 153 60 153 125v7c-14 -10 -51 -20 -98 -24c-85 -8 -122 -25 -122 -61c0 -30 25 -47 67 -47zM212 -11c-110 0 -176 52 -176 138c0 94 87 147 252 156c72 4 100 16 100 40c0 35 -40 59 -95 59c-56 0 -96 -25 -108 -69h-131c15 91 83 147 174 165v104h-192v128 h518v-128h-187v-106c95 -21 153 -88 153 -185v-171h58v-121h-176v59c-42 -42 -115 -69 -190 -69z" glyph-name="uni04420430.dlig" horiz-adv-x="611"/>
<glyph d="M361 124c96 0 158 89 158 226c0 138 -62 226 -158 226s-158 -88 -158 -226c0 -137 62 -226 158 -226zM361 -15c-186 0 -315 151 -315 365c0 215 129 365 315 365s315 -150 315 -365c0 -214 -129 -365 -315 -365z" glyph-name="zero" horiz-adv-x="721" unicode="0"/>
<glyph d="M208 0v523l-170 -105v164l192 118h127v-700h-149z" glyph-name="one" horiz-adv-x="463" unicode="1"/>
<glyph d="M326 373c82 0 138 43 138 106s-56 107 -138 107c-80 0 -136 -44 -136 -107s56 -106 136 -106zM50 0v123l228 136c10 6 18 12 25 18c-9 -5 -22 -7 -36 -7c-146 10 -229 111 -229 216c0 119 105 229 289 229c167 0 289 -97 289 -232c0 -100 -68 -189 -167 -247l-163 -98 h335v-138h-571z" glyph-name="two" horiz-adv-x="649" unicode="2"/>
<glyph d="M302 -15c-170 0 -285 98 -290 242h150c5 -67 60 -114 137 -114c76 0 132 48 132 116c0 66 -49 112 -118 112c-29 0 -58 -9 -79 -24l-13 -10l-72 91l204 167h-315v135h523v-129l-172 -140c4 2 9 2 13 2c108 -11 184 -97 184 -206c0 -142 -116 -242 -284 -242z" glyph-name="three" horiz-adv-x="612" unicode="3"/>
<glyph d="M176 274h209v277zM385 0v146h-361v128l317 426h197v-426h121v-128h-121v-146h-153z" glyph-name="four" horiz-adv-x="668" unicode="4"/>
<glyph d="M316 -15c-162 0 -275 94 -283 219h154c9 -57 63 -93 132 -93c85 0 138 59 138 130c0 67 -49 121 -135 121c-59 0 -109 -26 -127 -70h-141l48 408h473v-135h-347l-16 -125c36 23 85 35 138 35c141 0 262 -80 262 -234c0 -152 -120 -256 -296 -256z" glyph-name="five" horiz-adv-x="654" unicode="5"/>
<glyph d="M360 114c79 0 137 49 137 115c0 69 -56 117 -136 117c-82 0 -139 -48 -139 -114c0 -58 53 -118 138 -118zM364 -15c-210 0 -314 167 -314 365c0 196 107 365 312 365c151 0 260 -89 279 -212h-164c-15 46 -61 73 -119 73c-90 0 -163 -72 -163 -179v-8 c46 48 115 74 190 74c141 0 268 -83 268 -234c0 -125 -106 -244 -289 -244z" glyph-name="six" horiz-adv-x="691" unicode="6"/>
<glyph d="M168 0c28 196 137 414 263 559h-421v141h580v-128c-122 -131 -236 -372 -259 -572h-163z" glyph-name="seven" horiz-adv-x="599" unicode="7"/>
<glyph d="M342 104c86 0 145 42 145 99s-59 97 -145 97s-145 -40 -145 -97s59 -99 145 -99zM342 413c80 0 135 38 135 92c0 53 -55 91 -135 91s-135 -38 -135 -91c0 -54 55 -92 135 -92zM342 -15c-180 0 -301 85 -301 211c0 74 48 133 125 164c-68 30 -110 84 -110 153 c0 120 115 201 286 201s286 -81 286 -201c0 -69 -43 -123 -112 -153c79 -31 128 -90 128 -164c0 -126 -121 -211 -302 -211z" glyph-name="eight" horiz-adv-x="684" unicode="8"/>
<glyph d="M331 586c-79 0 -137 -49 -137 -115c0 -69 56 -117 136 -117c82 0 139 48 139 114c0 58 -53 118 -138 118zM327 715c210 0 314 -167 314 -365c0 -196 -107 -365 -312 -365c-151 0 -260 89 -279 212h164c15 -46 61 -73 119 -73c90 0 163 72 163 179v8 c-46 -48 -115 -74 -190 -74c-141 0 -268 83 -268 234c0 125 106 244 289 244z" glyph-name="nine" horiz-adv-x="691" unicode="9"/>
<glyph d="M361 124c96 0 158 89 158 226c0 138 -62 226 -158 226s-158 -88 -158 -226c0 -137 62 -226 158 -226zM361 -15c-186 0 -315 151 -315 365c0 215 129 365 315 365s315 -150 315 -365c0 -214 -129 -365 -315 -365z" glyph-name="zero.lf" horiz-adv-x="735"/>
<glyph d="M208 0v523l-170 -105v164l192 118h127v-700h-149z" glyph-name="one.lf" horiz-adv-x="463"/>
<glyph d="M326 373c82 0 138 43 138 106s-56 107 -138 107c-80 0 -136 -44 -136 -107s56 -106 136 -106zM50 0v123l228 136c10 6 18 12 25 18c-9 -5 -22 -7 -36 -7c-146 10 -229 111 -229 216c0 119 105 229 289 229c167 0 289 -97 289 -232c0 -100 -68 -189 -167 -247l-163 -98 h335v-138h-571z" glyph-name="two.lf" horiz-adv-x="649"/>
<glyph d="M302 -15c-170 0 -285 98 -290 242h150c5 -67 60 -114 137 -114c76 0 132 48 132 116c0 66 -49 112 -118 112c-29 0 -58 -9 -79 -24l-13 -10l-72 91l204 167h-315v135h523v-129l-172 -140c4 2 9 2 13 2c108 -11 184 -97 184 -206c0 -142 -116 -242 -284 -242z" glyph-name="three.lf" horiz-adv-x="612"/>
<glyph d="M176 274h209v277zM385 0v146h-361v128l317 426h197v-426h121v-128h-121v-146h-153z" glyph-name="four.lf" horiz-adv-x="668"/>
<glyph d="M316 -15c-162 0 -275 94 -283 219h154c9 -57 63 -93 132 -93c85 0 138 59 138 130c0 67 -49 121 -135 121c-59 0 -109 -26 -127 -70h-141l48 408h473v-135h-347l-16 -125c36 23 85 35 138 35c141 0 262 -80 262 -234c0 -152 -120 -256 -296 -256z" glyph-name="five.lf" horiz-adv-x="654"/>
<glyph d="M360 114c79 0 137 49 137 115c0 69 -56 117 -136 117c-82 0 -139 -48 -139 -114c0 -58 53 -118 138 -118zM364 -15c-210 0 -314 167 -314 365c0 196 107 365 312 365c151 0 260 -89 279 -212h-164c-15 46 -61 73 -119 73c-90 0 -163 -72 -163 -179v-8 c46 48 115 74 190 74c141 0 268 -83 268 -234c0 -125 -106 -244 -289 -244z" glyph-name="six.lf" horiz-adv-x="691"/>
<glyph d="M168 0c28 196 137 414 263 559h-421v141h580v-128c-122 -131 -236 -372 -259 -572h-163z" glyph-name="seven.lf" horiz-adv-x="599"/>
<glyph d="M342 104c86 0 145 42 145 99s-59 97 -145 97s-145 -40 -145 -97s59 -99 145 -99zM342 413c80 0 135 38 135 92c0 53 -55 91 -135 91s-135 -38 -135 -91c0 -54 55 -92 135 -92zM342 -15c-180 0 -301 85 -301 211c0 74 48 133 125 164c-68 30 -110 84 -110 153 c0 120 115 201 286 201s286 -81 286 -201c0 -69 -43 -123 -112 -153c79 -31 128 -90 128 -164c0 -126 -121 -211 -302 -211z" glyph-name="eight.lf" horiz-adv-x="684"/>
<glyph d="M331 586c-79 0 -137 -49 -137 -115c0 -69 56 -117 136 -117c82 0 139 48 139 114c0 58 -53 118 -138 118zM327 715c210 0 314 -167 314 -365c0 -196 -107 -365 -312 -365c-151 0 -260 89 -279 212h164c15 -46 61 -73 119 -73c90 0 163 72 163 179v8 c-46 -48 -115 -74 -190 -74c-141 0 -268 83 -268 234c0 125 106 244 289 244z" glyph-name="nine.lf" horiz-adv-x="691"/>
<glyph d="M357 124c93 0 158 73 158 176s-65 176 -158 176s-158 -73 -158 -176s65 -176 158 -176zM357 -15c-182 0 -314 133 -314 315s132 315 314 315s315 -133 315 -315s-133 -315 -315 -315z" glyph-name="zero.osf" horiz-adv-x="714"/>
<glyph d="M217 0v421l-170 -105v166l192 118h127v-600h-149z" glyph-name="one.osf" horiz-adv-x="471"/>
<glyph d="M323 289c81 0 138 42 138 100c0 60 -56 102 -138 102c-80 0 -136 -42 -136 -102c0 -58 56 -100 136 -100zM38 0v113l200 101c-5 0 -7 1 -11 1c-106 11 -195 93 -195 192c0 122 121 209 292 209c177 0 295 -86 295 -211c0 -94 -67 -157 -177 -211l-121 -63h322v-131h-605z " glyph-name="two.osf" horiz-adv-x="656"/>
<glyph d="M302 -15c-170 0 -285 98 -290 242h150c5 -67 60 -114 137 -114c76 0 132 48 132 116c0 66 -49 112 -118 112c-29 0 -58 -9 -79 -24l-13 -10l-72 91l204 167h-315v135h523v-129l-172 -140c4 2 9 2 13 2c108 -11 184 -97 184 -206c0 -142 -116 -242 -284 -242z" glyph-name="three.osf" horiz-adv-x="618"/>
<glyph d="M174 174h209v277zM383 -100v146h-360v128l316 426h197v-426h121v-128h-121v-146h-153z" glyph-name="four.osf" horiz-adv-x="665"/>
<glyph d="M316 -115c-162 0 -275 94 -283 219h154c9 -57 63 -93 132 -93c85 0 138 59 138 130c0 67 -49 121 -135 121c-59 0 -109 -26 -127 -70h-141l48 408h473v-135h-347l-16 -125c36 23 85 35 138 35c141 0 262 -80 262 -234c0 -152 -120 -256 -296 -256z" glyph-name="five.osf" horiz-adv-x="654"/>
<glyph d="M360 114c79 0 137 49 137 115c0 69 -56 117 -136 117c-82 0 -139 -48 -139 -114c0 -58 53 -118 138 -118zM364 -15c-210 0 -314 167 -314 365c0 196 107 365 312 365c151 0 260 -89 279 -212h-164c-15 46 -61 73 -119 73c-90 0 -163 -72 -163 -179v-8 c46 48 115 74 190 74c141 0 268 -83 268 -234c0 -125 -106 -244 -289 -244z" glyph-name="six.osf" horiz-adv-x="691"/>
<glyph d="M166 -100c29 196 137 414 263 559h-421v141h580v-128c-122 -131 -236 -372 -259 -572h-163z" glyph-name="seven.osf" horiz-adv-x="596"/>
<glyph d="M342 104c86 0 145 42 145 99s-59 97 -145 97s-145 -40 -145 -97s59 -99 145 -99zM342 413c80 0 135 38 135 92c0 53 -55 91 -135 91s-135 -38 -135 -91c0 -54 55 -92 135 -92zM342 -15c-180 0 -301 85 -301 211c0 74 48 133 125 164c-68 30 -110 84 -110 153 c0 120 115 201 286 201s286 -81 286 -201c0 -69 -43 -123 -112 -153c79 -31 128 -90 128 -164c0 -126 -121 -211 -302 -211z" glyph-name="eight.osf" horiz-adv-x="684"/>
<glyph d="M331 486c-79 0 -137 -49 -137 -115c0 -69 56 -117 136 -117c82 0 139 48 139 114c0 58 -53 118 -138 118zM327 615c210 0 314 -167 314 -365c0 -196 -107 -365 -312 -365c-151 0 -260 89 -279 212h164c15 -46 61 -73 119 -73c90 0 163 72 163 179v8 c-46 -48 -115 -74 -190 -74c-141 0 -268 83 -268 234c0 125 106 244 289 244z" glyph-name="nine.osf" horiz-adv-x="691"/>
<glyph d="M350 124c96 0 158 89 158 226c0 138 -62 226 -158 226s-158 -88 -158 -226c0 -137 62 -226 158 -226zM350 -15c-186 0 -315 151 -315 365c0 215 129 365 315 365s315 -150 315 -365c0 -214 -129 -365 -315 -365z" glyph-name="zero.tf"/>
<glyph d="M78 0v136h214v383l-179 -111v168l201 124h127v-564h209v-136h-572z" glyph-name="one.tf"/>
<glyph d="M345 373c81 0 138 43 138 106s-57 107 -138 107s-137 -44 -137 -107s56 -106 137 -106zM68 0v123l229 136c9 6 18 12 24 18c-9 -5 -21 -7 -36 -7c-145 10 -229 111 -229 216c0 119 105 229 289 229c167 0 290 -97 290 -232c0 -100 -69 -189 -168 -247l-163 -98h335v-138 h-571z" glyph-name="two.tf"/>
<glyph d="M338 -15c-170 0 -285 98 -290 242h150c5 -67 60 -114 137 -114s132 48 132 116c0 66 -49 112 -118 112c-29 0 -58 -9 -78 -24l-14 -10l-72 91l205 167h-316v135h523v-129l-172 -140c4 2 9 2 13 2c108 -11 184 -97 184 -206c0 -142 -115 -242 -284 -242z" glyph-name="three.tf"/>
<glyph d="M182 274h209v277zM391 0v146h-360v128l316 426h197v-426h122v-128h-122v-146h-153z" glyph-name="four.tf"/>
<glyph d="M340 -15c-163 0 -276 94 -284 219h154c9 -57 64 -93 132 -93c85 0 138 59 138 130c0 67 -49 121 -135 121c-59 0 -109 -26 -127 -70h-141l48 408h473v-135h-346l-16 -125c35 23 84 35 137 35c141 0 262 -80 262 -234c0 -152 -119 -256 -295 -256z" glyph-name="five.tf"/>
<glyph d="M360 114c79 0 137 49 137 115c0 69 -56 117 -136 117c-82 0 -139 -48 -139 -114c0 -58 54 -118 138 -118zM364 -15c-209 0 -314 167 -314 365c0 196 108 365 313 365c150 0 259 -89 278 -212h-164c-15 46 -61 73 -119 73c-90 0 -162 -72 -162 -179v-8 c45 48 114 74 189 74c141 0 268 -83 268 -234c0 -125 -106 -244 -289 -244z" glyph-name="six.tf"/>
<glyph d="M216 0c31 197 145 416 283 561h-453v139h599v-128c-125 -131 -242 -372 -267 -572h-162z" glyph-name="seven.tf"/>
<glyph d="M350 104c86 0 145 42 145 99s-59 97 -145 97s-145 -40 -145 -97s59 -99 145 -99zM350 413c80 0 135 38 135 92c0 53 -55 91 -135 91s-135 -38 -135 -91c0 -54 55 -92 135 -92zM350 -15c-180 0 -301 85 -301 211c0 74 48 133 125 164c-68 30 -110 84 -110 153 c0 120 115 201 286 201s286 -81 286 -201c0 -69 -43 -123 -112 -153c79 -31 128 -90 128 -164c0 -126 -121 -211 -302 -211z" glyph-name="eight.tf"/>
<glyph d="M334 586c-79 0 -137 -49 -137 -115c0 -69 56 -117 136 -117c82 0 139 48 139 114c0 58 -54 118 -138 118zM330 715c209 0 314 -167 314 -365c0 -196 -108 -365 -313 -365c-150 0 -259 89 -278 212h164c15 -46 61 -73 119 -73c90 0 162 72 162 179v8 c-45 -48 -114 -74 -189 -74c-141 0 -268 83 -268 234c0 125 106 244 289 244z" glyph-name="nine.tf"/>
<glyph d="M350 124c93 0 158 73 158 176s-65 176 -158 176s-158 -73 -158 -176s65 -176 158 -176zM350 -15c-182 0 -314 133 -314 315s132 315 314 315s315 -133 315 -315s-133 -315 -315 -315z" glyph-name="zero.tosf"/>
<glyph d="M84 0v136h214v282l-179 -110v168l202 124h127v-464h201v-136h-565z" glyph-name="one.tosf"/>
<glyph d="M338 289c81 0 138 42 138 100c0 60 -57 102 -138 102c-80 0 -137 -42 -137 -102c0 -58 57 -100 137 -100zM53 0v113l200 101c-5 0 -7 1 -11 1c-106 11 -196 93 -196 192c0 122 122 209 293 209c177 0 295 -86 295 -211c0 -94 -67 -157 -178 -211l-120 -63h321v-131h-604z " glyph-name="two.tosf"/>
<glyph d="M335 -15c-169 0 -284 98 -289 242h150c4 -67 60 -114 137 -114c76 0 131 48 131 116c0 66 -48 112 -117 112c-29 0 -58 -9 -79 -24l-14 -10l-72 91l205 167h-316v135h523v-129l-172 -140c4 2 9 2 13 2c108 -11 184 -97 184 -206c0 -142 -115 -242 -284 -242z" glyph-name="three.tosf"/>
<glyph d="M192 174h208v277zM400 -100v146h-360v128l317 426h196v-426h122v-128h-122v-146h-153z" glyph-name="four.tosf"/>
<glyph d="M350 -115c-163 0 -276 94 -284 219h154c9 -57 64 -93 132 -93c85 0 138 59 138 130c0 67 -49 121 -135 121c-59 0 -109 -26 -127 -70h-141l48 408h473v-135h-346l-16 -125c35 23 84 35 137 35c141 0 262 -80 262 -234c0 -152 -119 -256 -295 -256z" glyph-name="five.tosf"/>
<glyph d="M360 114c79 0 137 49 137 115c0 69 -55 117 -136 117s-139 -48 -139 -114c0 -58 54 -118 138 -118zM364 -15c-209 0 -314 167 -314 365c0 196 108 365 313 365c150 0 259 -89 278 -212h-164c-15 46 -60 73 -119 73c-90 0 -162 -72 -162 -179v-8c45 48 115 74 190 74 c141 0 268 -83 268 -234c0 -125 -107 -244 -290 -244z" glyph-name="six.tosf"/>
<glyph d="M219 -100c31 197 145 416 283 561h-453v139h599v-128c-125 -131 -242 -372 -267 -572h-162z" glyph-name="seven.tosf"/>
<glyph d="M357 104c86 0 145 42 145 99s-59 97 -145 97s-145 -40 -145 -97s59 -99 145 -99zM357 413c80 0 135 38 135 92c0 53 -55 91 -135 91s-135 -38 -135 -91c0 -54 55 -92 135 -92zM357 -15c-180 0 -301 85 -301 211c0 74 48 133 125 164c-68 30 -110 84 -110 153 c0 120 115 201 286 201s286 -81 286 -201c0 -69 -43 -123 -112 -153c79 -31 128 -90 128 -164c0 -126 -121 -211 -302 -211z" glyph-name="eight.tosf"/>
<glyph d="M334 486c-79 0 -138 -49 -138 -115c0 -69 56 -117 136 -117c82 0 140 48 140 114c0 58 -54 118 -138 118zM329 615c210 0 314 -167 314 -365c0 -196 -107 -365 -312 -365c-151 0 -259 89 -279 212h164c16 -46 61 -73 119 -73c91 0 163 72 163 179v8 c-46 -48 -115 -74 -190 -74c-141 0 -268 83 -268 234c0 125 106 244 289 244z" glyph-name="nine.tosf"/>
<glyph d="M152 -10c-54 0 -95 41 -95 95s41 95 95 95s95 -41 95 -95s-41 -95 -95 -95z" glyph-name="period" horiz-adv-x="304" unicode="."/>
<glyph d="M166 -99h-77c17 26 32 60 40 94h-1c-50 14 -71 51 -71 89c0 48 35 96 94 96c49 0 97 -33 97 -99c0 -59 -39 -142 -82 -180z" glyph-name="comma" horiz-adv-x="304" unicode=","/>
<glyph d="M152 -10c-54 0 -95 41 -95 95s41 95 95 95s95 -41 95 -95s-41 -95 -95 -95zM152 306c-54 0 -95 41 -95 95s41 95 95 95s95 -41 95 -95s-41 -95 -95 -95z" glyph-name="colon" horiz-adv-x="304" unicode=":"/>
<glyph d="M166 -99h-77c17 26 32 60 40 94h-1c-50 14 -71 51 -71 89c0 48 35 96 94 96c49 0 97 -33 97 -99c0 -59 -39 -142 -82 -180zM152 306c-54 0 -95 41 -95 95s41 95 95 95s95 -41 95 -95s-41 -95 -95 -95z" glyph-name="semicolon" horiz-adv-x="305" unicode=";"/>
<glyph d="M688 -10c-54 0 -95 41 -95 95s41 95 95 95s95 -41 95 -95s-41 -95 -95 -95zM420 -10c-54 0 -95 41 -95 95s41 95 95 95s95 -41 95 -95s-41 -95 -95 -95zM152 -10c-54 0 -95 41 -95 95s41 95 95 95s95 -41 95 -95s-41 -95 -95 -95z" glyph-name="ellipsis" horiz-adv-x="840" unicode="…"/>
<glyph d="M172 -10c-54 0 -95 41 -95 95s41 95 95 95s95 -41 95 -95s-41 -95 -95 -95zM110 250l-28 450h174l-29 -450h-117z" glyph-name="exclam" horiz-adv-x="344" unicode="!"/>
<glyph d="M234 250l28 -450h-174l29 450h117zM172 510c54 0 95 -41 95 -95s-41 -95 -95 -95s-95 41 -95 95s41 95 95 95z" glyph-name="exclamdown" horiz-adv-x="344" unicode="¡"/>
<glyph d="M300 -10c-54 0 -95 41 -95 95s41 95 95 95s95 -41 95 -95s-41 -95 -95 -95zM230 250c-2 10 -2 20 -2 29c0 78 48 118 116 146c51 22 79 49 79 87c0 45 -49 71 -110 71c-81 0 -123 -40 -134 -108h-154c15 147 125 240 292 240c156 0 265 -75 265 -198 c0 -81 -51 -128 -138 -170c-62 -31 -84 -49 -84 -97h-130z" glyph-name="question" horiz-adv-x="621" unicode="?"/>
<glyph d="M390 250c3 -10 3 -20 3 -29c0 -78 -48 -118 -117 -146c-49 -22 -78 -48 -78 -85c0 -47 48 -73 110 -73c80 0 122 40 134 108h154c-15 -147 -125 -240 -293 -240c-155 0 -264 75 -264 198c0 81 51 128 138 170c62 31 83 49 83 97h130zM321 510c53 0 95 -41 95 -95 s-42 -95 -95 -95c-54 0 -95 41 -95 95s41 95 95 95z" glyph-name="questiondown" horiz-adv-x="621" unicode="¿"/>
<glyph d="M152 207c-54 0 -95 41 -95 95s41 95 95 95s95 -41 95 -95s-41 -95 -95 -95z" glyph-name="periodcentered" horiz-adv-x="304" unicode="·"/>
<glyph d="M302 165c-76 0 -135 59 -135 135s59 135 135 135s135 -59 135 -135s-59 -135 -135 -135z" glyph-name="bullet" horiz-adv-x="604" unicode="•"/>
<glyph d="M176 454l9 100l-77 -69l-69 20l19 69h119l-147 45v69l64 17l88 -105l-50 141l63 53l63 -53l-50 -141l88 105l64 -17v-69l-148 -45h119l19 -69l-68 -20l-78 69l9 -100h-37z" glyph-name="asterisk" horiz-adv-x="390" unicode="*"/>
<glyph d="M285 266h131v169h-131v-169zM160 -15v145h-112v136h112v169h-112v135h112v145h125v-145h131v145h125v-145h111v-135h-111v-169h111v-136h-111v-145h-125v145h-131v-145h-125z" glyph-name="numbersign" unicode="#"/>
<glyph d="M15 0l338 700h136l-338 -700h-136z" glyph-name="slash" horiz-adv-x="504" unicode="/"/>
<glyph d="M353 0l-338 700h136l338 -700h-136z" glyph-name="backslash" horiz-adv-x="504" unicode="\"/>
<glyph d="M152 99c-54 0 -95 41 -95 95s41 95 95 95s95 -41 95 -95s-41 -95 -95 -95zM152 415c-54 0 -95 41 -95 95s41 95 95 95s95 -41 95 -95s-41 -95 -95 -95z" glyph-name="colon.case" horiz-adv-x="304"/>
<glyph d="M234 450l28 -450h-174l29 450h117zM172 710c54 0 95 -41 95 -95s-41 -95 -95 -95s-95 41 -95 95s41 95 95 95z" glyph-name="exclamdown.case" horiz-adv-x="344"/>
<glyph d="M391 450c2 -10 2 -20 2 -29c0 -78 -48 -118 -116 -146c-51 -22 -79 -49 -79 -87c0 -45 49 -71 110 -71c81 0 123 40 134 108h154c-15 -147 -125 -240 -292 -240c-156 0 -265 75 -265 198c0 81 51 128 138 170c62 31 84 49 84 97h130zM321 710c54 0 95 -41 95 -95 s-41 -95 -95 -95s-95 41 -95 95s41 95 95 95z" glyph-name="questiondown.case" horiz-adv-x="621"/>
<glyph d="M486 -39l22 250l-194 -173l-171 51l48 172h297l-368 113v173l160 41l220 -263l-126 353l158 133l158 -133l-126 -353l220 263l160 -41v-173l-368 -113h297l48 -172l-171 -51l-194 173l22 -250h-92z" glyph-name="asterisk.case" horiz-adv-x="1064"/>
<glyph d="M486 -39l22 250l-194 -173l-171 51l48 172h297l-368 113v173l160 41l220 -263l-126 353l158 133l158 -133l-126 -353l220 263l160 -41v-173l-368 -113h297l48 -172l-171 -51l-194 173l22 -250h-92z" glyph-name="bullet.ss01" horiz-adv-x="1064"/>
<glyph d="M163 357v111l-96 -55l-38 65l97 56l-97 55l38 65l96 -55v111h76v-111l97 55l38 -65l-97 -55l97 -56l-38 -65l-97 55v-111h-76z" glyph-name="asterisk.ss01" horiz-adv-x="403"/>
<glyph d="M399 -115c-180 0 -301 188 -301 465c0 278 121 465 301 465v-125c-102 0 -171 -137 -171 -340s69 -340 171 -340v-125z" glyph-name="parenleft" horiz-adv-x="500" unicode="("/>
<glyph d="M101 815c180 0 301 -188 301 -465c0 -278 -121 -465 -301 -465v125c102 0 171 137 171 340s-69 340 -171 340v125z" glyph-name="parenright" horiz-adv-x="500" unicode=")"/>
<glyph d="M304 -115c-87 0 -157 37 -157 149c0 61 27 147 27 194c0 41 -19 60 -52 60h-46v125h46c33 0 52 18 52 60c0 46 -27 132 -27 193c0 112 70 149 157 149c36 0 74 -5 112 -15v-126c-28 10 -54 15 -76 15c-36 0 -62 -17 -62 -59c0 -36 19 -104 19 -158 c0 -69 -22 -106 -71 -122c49 -16 71 -53 71 -121c0 -55 -19 -123 -19 -159c0 -42 26 -59 62 -59c22 0 48 5 76 15v-126c-38 -10 -76 -15 -112 -15z" glyph-name="braceleft" horiz-adv-x="500" unicode="{"/>
<glyph d="M196 815c87 0 157 -37 157 -149c0 -61 -27 -147 -27 -194c0 -41 19 -60 52 -60h46v-125h-46c-33 0 -52 -18 -52 -60c0 -46 27 -132 27 -193c0 -112 -70 -149 -157 -149c-36 0 -74 5 -112 15v126c28 -10 54 -15 76 -15c36 0 62 17 62 59c0 36 -19 104 -19 158 c0 69 22 106 71 122c-49 16 -71 53 -71 121c0 55 19 123 19 159c0 42 -26 59 -62 59c-22 0 -48 -5 -76 -15v126c38 10 76 15 112 15z" glyph-name="braceright" horiz-adv-x="500" unicode="}"/>
<glyph d="M132 -100v900h286v-125h-161v-650h161v-125h-286z" glyph-name="bracketleft" horiz-adv-x="500" unicode="["/>
<glyph d="M368 800v-900h-286v125h161v650h-161v125h286z" glyph-name="bracketright" horiz-adv-x="500" unicode="]"/>
<glyph d="M399 -15c-180 0 -301 147 -301 365s121 365 301 365v-125c-102 0 -171 -96 -171 -240s69 -240 171 -240v-125z" glyph-name="parenleft.case" horiz-adv-x="500"/>
<glyph d="M101 715c180 0 301 -147 301 -365s-121 -365 -301 -365v125c102 0 171 96 171 240s-69 240 -171 240v125z" glyph-name="parenright.case" horiz-adv-x="500"/>
<glyph d="M304 -15c-88 0 -157 42 -157 136c0 49 22 97 22 129c0 34 -14 50 -47 50h-46v100h46c33 0 47 16 47 50c0 32 -22 80 -22 129c0 94 69 136 157 136c35 0 73 -5 112 -13v-123c-27 6 -56 11 -76 11c-41 0 -62 -19 -62 -57c0 -30 17 -68 17 -101c0 -46 -21 -71 -67 -82 c46 -11 67 -36 67 -81c0 -34 -17 -72 -17 -101c0 -39 21 -57 62 -57c20 0 49 4 76 10v-123c-39 -8 -77 -13 -112 -13z" glyph-name="braceleft.case" horiz-adv-x="500"/>
<glyph d="M196 715c88 0 157 -42 157 -136c0 -49 -22 -97 -22 -129c0 -34 14 -50 47 -50h46v-100h-46c-33 0 -47 -16 -47 -50c0 -32 22 -80 22 -129c0 -94 -69 -136 -157 -136c-35 0 -73 5 -112 13v123c27 -6 56 -11 76 -11c41 0 62 19 62 57c0 30 -17 68 -17 101c0 46 21 71 67 82 c-46 11 -67 36 -67 81c0 34 17 72 17 101c0 39 -21 57 -62 57c-20 0 -49 -4 -76 -10v123c39 8 77 13 112 13z" glyph-name="braceright.case" horiz-adv-x="500"/>
<glyph d="M132 0v700h286v-125h-161v-450h161v-125h-286z" glyph-name="bracketleft.case" horiz-adv-x="500"/>
<glyph d="M368 700v-700h-286v125h161v450h-161v125h286z" glyph-name="bracketright.case" horiz-adv-x="500"/>
<glyph d="M66 238v125h282v-125h-282z" glyph-name="hyphen" horiz-adv-x="414" unicode="-"/>
<glyph d="M66 238v125h422v-125h-422z" glyph-name="endash" horiz-adv-x="554" unicode="–"/>
<glyph d="M66 238v125h582v-125h-582z" glyph-name="emdash" horiz-adv-x="714" unicode="—"/>
<glyph d="M30 -125v125h422v-125h-422z" glyph-name="underscore" horiz-adv-x="482" unicode="_"/>
<glyph d="M66 288v125h282v-125h-282z" glyph-name="hyphen.case" horiz-adv-x="414"/>
<glyph d="M66 288v125h422v-125h-422z" glyph-name="endash.case" horiz-adv-x="554"/>
<glyph d="M66 288v125h582v-125h-582z" glyph-name="emdash.case" horiz-adv-x="714"/>
<glyph d="M140 -99h-78c17 26 33 60 41 94h-1c-50 14 -71 51 -71 89c0 48 35 96 94 96c49 0 97 -33 97 -99c0 -59 -39 -142 -82 -180z" glyph-name="quotesinglbase" horiz-adv-x="248" unicode="‚"/>
<glyph d="M376 -99h-78c17 26 33 60 41 94h-1c-50 14 -71 51 -71 89c0 48 34 96 94 96c49 0 97 -33 97 -99c0 -59 -39 -142 -82 -180zM140 -99h-78c17 26 33 60 41 94h-1c-50 14 -71 51 -71 89c0 48 35 96 94 96c49 0 97 -33 97 -99c0 -59 -39 -142 -82 -180z" glyph-name="quotedblbase" horiz-adv-x="484" unicode="„"/>
<glyph d="M340 719h78c-17 -26 -33 -60 -41 -94h1c50 -14 71 -51 71 -89c0 -48 -35 -96 -94 -96c-49 0 -97 33 -97 99c0 59 39 142 82 180zM104 719h78c-17 -26 -33 -60 -41 -94h1c50 -14 71 -51 71 -89c0 -48 -34 -96 -94 -96c-49 0 -97 33 -97 99c0 59 39 142 82 180z" glyph-name="quotedblleft" horiz-adv-x="484" unicode="“"/>
<glyph d="M376 437h-78c17 27 33 61 41 94h-1c-50 15 -71 52 -71 89c0 48 34 97 94 97c49 0 97 -34 97 -100c0 -59 -39 -141 -82 -180zM140 437h-78c17 27 33 61 41 94h-1c-50 15 -71 52 -71 89c0 48 35 97 94 97c49 0 97 -34 97 -100c0 -59 -39 -141 -82 -180z" glyph-name="quotedblright" horiz-adv-x="484" unicode="”"/>
<glyph d="M113 719h77c-17 -26 -33 -60 -40 -94c51 -14 72 -51 72 -89c0 -48 -35 -96 -94 -96c-49 0 -97 33 -97 99c0 59 38 142 82 180z" glyph-name="quoteleft" horiz-adv-x="248" unicode="‘"/>
<glyph d="M140 437h-78c17 27 33 61 41 94h-1c-50 15 -71 52 -71 89c0 48 35 97 94 97c49 0 97 -34 97 -100c0 -59 -39 -141 -82 -180z" glyph-name="quoteright" horiz-adv-x="248" unicode="’"/>
<glyph d="M582 500l-109 -200l109 -200h-152l-106 194v12l106 194h152zM324 500l-109 -200l109 -200h-152l-106 194v12l106 194h152z" glyph-name="guillemotleft" horiz-adv-x="630" unicode="«"/>
<glyph d="M306 100l109 200l-109 200h152l106 -194v-12l-106 -194h-152zM48 100l109 200l-109 200h152l106 -194v-12l-106 -194h-152z" glyph-name="guillemotright" horiz-adv-x="612" unicode="»"/>
<glyph d="M306 500l-109 -200l109 -200h-152l-106 194v12l106 194h152z" glyph-name="guilsinglleft" horiz-adv-x="354" unicode="‹"/>
<glyph d="M48 100l109 200l-109 200h152l106 -194v-12l-106 -194h-152z" glyph-name="guilsinglright" horiz-adv-x="354" unicode="›"/>
<glyph d="M351 703l-77 -244h-10l-73 234l-74 -234h-10l-76 244h320z" glyph-name="quotedbl" horiz-adv-x="381" unicode='"'/>
<glyph d="M107 459l-76 244h163l-77 -244h-10z" glyph-name="quotesingle" horiz-adv-x="224" unicode="'"/>
<glyph d="M564 550l-109 -200l109 -200h-152l-106 194v12l106 194h152zM306 550l-109 -200l109 -200h-152l-106 194v12l106 194h152z" glyph-name="guillemotleft.case" horiz-adv-x="612"/>
<glyph d="M306 150l109 200l-109 200h152l106 -194v-12l-106 -194h-152zM48 150l109 200l-109 200h152l106 -194v-12l-106 -194h-152z" glyph-name="guillemotright.case" horiz-adv-x="612"/>
<glyph d="M306 550l-109 -200l109 -200h-152l-106 194v12l106 194h152z" glyph-name="guilsinglleft.case" horiz-adv-x="354"/>
<glyph d="M48 150l109 200l-109 200h152l106 -194v-12l-106 -194h-152z" glyph-name="guilsinglright.case" horiz-adv-x="354"/>
<glyph glyph-name="uni00A0" horiz-adv-x="250" unicode=" "/>
<glyph d="M348 218c59 0 103 36 117 86h137c-12 -106 -93 -188 -204 -208v-126h-104v127c-128 22 -216 124 -216 255s90 232 216 255v123h104v-122c113 -20 193 -102 204 -207h-137c-14 49 -58 85 -117 85c-76 0 -131 -58 -131 -134s55 -134 131 -134z" glyph-name="cent" unicode="¢"/>
<glyph d="M350 230c68 0 121 53 121 120c0 68 -53 121 -121 121c-67 0 -120 -53 -120 -121c0 -67 53 -120 120 -120zM129 31l-98 98l93 93c-21 37 -33 81 -33 128s12 91 33 128l-93 93l98 98l93 -93c37 21 81 34 128 34s91 -13 128 -34l93 93l98 -98l-93 -93c21 -37 34 -81 34 -128 s-13 -91 -34 -128l93 -93l-98 -98l-93 93c-37 -21 -81 -33 -128 -33s-91 12 -128 33z" glyph-name="currency" unicode="¤"/>
<glyph d="M293 -130v119c-138 20 -242 103 -255 253h155c14 -79 76 -124 168 -124c77 0 134 23 134 73c0 58 -55 69 -163 92c-128 28 -277 65 -277 221c0 131 112 195 238 209v117h104v-118c133 -15 246 -90 261 -247h-162c-14 76 -75 115 -157 115c-58 0 -123 -21 -123 -74 c0 -58 67 -70 165 -91c143 -31 276 -73 276 -221c0 -118 -94 -197 -260 -207v-117h-104z" glyph-name="dollar" unicode="$"/>
<glyph d="M391 -15c-133 0 -256 87 -297 246h-74v90h60v29v29h-60v90h74c41 159 164 246 297 246c140 0 271 -95 292 -276h-157c-14 97 -69 142 -140 142c-65 0 -112 -40 -134 -112h177v-90h-192c-1 -9 -1 -19 -1 -29s0 -20 1 -29h192v-90h-177c22 -72 69 -112 134 -112 c71 0 126 45 140 142h157c-21 -181 -152 -276 -292 -276z" glyph-name="Euro" unicode="€"/>
<glyph d="M336 -15c-156 0 -248 67 -248 175c0 26 6 49 19 71h-77v90h161c38 21 86 39 128 58h-289v90h406c14 14 22 31 22 49c0 46 -42 76 -106 76c-58 0 -99 -25 -119 -73h-152c31 121 134 194 283 194c154 0 247 -67 247 -175c0 -26 -6 -49 -20 -71h80v-90h-166 c-41 -20 -90 -37 -131 -58h297v-90h-413c-13 -14 -21 -31 -21 -49c0 -49 44 -77 110 -77c58 0 105 25 125 75h160c-30 -121 -132 -195 -296 -195z" glyph-name="uni20B4" unicode="₴"/>
<glyph d="M293 375h115c71 0 116 36 116 90c0 58 -45 96 -116 96h-115v-186zM138 0v142h-106v91h106v52h-106v90h106v325h276c157 0 252 -79 252 -207c0 -130 -95 -208 -252 -208h-121v-52h321v-91h-321v-142h-155z" glyph-name="uni20BD" unicode="₽"/>
<glyph d="M147 76c19 0 43 11 59 35c-27 18 -49 31 -64 31c-20 0 -33 -13 -33 -32c0 -21 15 -34 38 -34zM141 -15c-72 0 -135 45 -135 125c0 69 47 126 132 126c24 0 48 -5 71 -14c-11 35 -25 59 -37 83h-122v90h79c-11 30 -18 63 -18 99c0 134 103 222 252 222 c160 0 260 -100 268 -240h-149c-8 75 -59 115 -120 115c-62 0 -107 -41 -107 -112c0 -28 7 -56 18 -84h235v-90h-201c15 -37 26 -74 26 -115c0 -9 0 -17 -1 -25c48 -26 95 -51 138 -51c47 0 71 28 71 88c0 14 -1 27 -3 41h132c4 -23 5 -46 5 -62c0 -152 -103 -196 -186 -196 c-76 0 -145 34 -203 70c-37 -46 -91 -70 -145 -70z" glyph-name="sterling" unicode="£"/>
<glyph d="M270 0v152h-227v90h222v16l-24 42h-198v90h146l-179 310h187l155 -280l155 280h183l-179 -310h152v-90h-204l-24 -42v-16h228v-90h-233v-152h-160z" glyph-name="yen" unicode="¥"/>
<glyph d="M494 413v-125h-151v-152h-125v152h-152v125h152v151h125v-151h151z" glyph-name="plus" horiz-adv-x="560" unicode="+"/>
<glyph d="M66 288v125h428v-125h-428z" glyph-name="minus" horiz-adv-x="560" unicode="−"/>
<glyph d="M149 131l-88 88l131 131l-131 131l88 89l131 -131l131 131l89 -89l-131 -131l131 -131l-89 -88l-131 131z" glyph-name="multiply" horiz-adv-x="560" unicode="×"/>
<glyph d="M280 45c-46 0 -82 36 -82 83c0 46 36 82 82 82s83 -36 83 -82c0 -47 -37 -83 -83 -83zM51 288v125h458v-125h-458zM280 490c-46 0 -82 36 -82 83s36 82 82 82c47 0 83 -35 83 -82s-36 -83 -83 -83z" glyph-name="divide" horiz-adv-x="560" unicode="÷"/>
<glyph d="M66 170v125h428v-125h-428zM66 406v125h428v-125h-428z" glyph-name="equal" horiz-adv-x="560" unicode="="/>
<glyph d="M494 406h-130l-46 -111h176v-125h-227l-37 -90h-121l37 90h-80v125h131l46 111h-177v125h228l37 89h120l-37 -89h80v-125z" glyph-name="notequal" horiz-adv-x="560" unicode="≠"/>
<glyph d="M66 112v131l224 104l-224 103v139l428 -198v-82z" glyph-name="greater" horiz-adv-x="560" unicode="&gt;"/>
<glyph d="M494 588v-131l-224 -104l224 -103v-139l-428 198v82z" glyph-name="less" horiz-adv-x="560" unicode="&lt;"/>
<glyph d="M66 33v125h428v-125h-428zM66 194v131l224 104l-224 103v139l428 -198v-82z" glyph-name="greaterequal" horiz-adv-x="560" unicode="≥"/>
<glyph d="M66 33v125h428v-125h-428zM494 670v-131l-224 -104l224 -103v-139l-428 198v82z" glyph-name="lessequal" horiz-adv-x="560" unicode="≤"/>
<glyph d="M66 33v125h428v-125h-428zM343 498h151v-125h-151v-152h-125v152h-152v125h152v151h125v-151z" glyph-name="plusminus" horiz-adv-x="560" unicode="±"/>
<glyph d="M63 163c0 113 50 167 121 167c44 0 73 -17 97 -31c18 -10 36 -19 55 -19c22 0 37 16 37 40h125c0 -112 -49 -166 -120 -166c-44 0 -73 16 -97 30c-19 10 -36 19 -55 19c-22 0 -38 -16 -38 -40h-125zM63 385c0 113 50 167 121 167c44 0 73 -17 97 -31 c18 -10 36 -19 55 -19c22 0 37 16 37 40h125c0 -112 -49 -166 -120 -166c-44 0 -73 16 -97 30c-19 10 -36 19 -55 19c-22 0 -38 -16 -38 -40h-125z" glyph-name="approxequal" horiz-adv-x="560" unicode="≈"/>
<glyph d="M63 274c0 113 50 167 121 167c44 0 73 -17 97 -31c18 -10 36 -19 55 -19c22 0 37 16 37 40h125c0 -112 -49 -166 -120 -166c-44 0 -73 16 -97 30c-19 10 -36 19 -55 19c-22 0 -38 -16 -38 -40h-125z" glyph-name="asciitilde" horiz-adv-x="560" unicode="~"/>
<glyph d="M494 413v-277h-125v152h-303v125h428z" glyph-name="logicalnot" horiz-adv-x="560" unicode="¬"/>
<glyph d="M41 368l191 332h96l191 -332h-138l-101 177l-102 -177h-137z" glyph-name="asciicircum" horiz-adv-x="560" unicode="^"/>
<glyph d="M628 99c41 0 74 33 74 74s-33 73 -74 73s-73 -32 -73 -73s32 -74 73 -74zM628 -5c-100 0 -177 78 -177 178s77 177 177 177s178 -77 178 -177s-78 -178 -178 -178zM203 454c41 0 74 33 74 74s-33 73 -74 73s-73 -32 -73 -73s32 -74 73 -74zM129 0l454 700h120l-454 -700 h-120zM203 350c-100 0 -177 78 -177 178s77 177 177 177s178 -77 178 -177s-78 -178 -178 -178z" glyph-name="percent" horiz-adv-x="831" unicode="%"/>
<glyph d="M1025 99c41 0 74 33 74 74s-33 73 -74 73s-73 -32 -73 -73s32 -74 73 -74zM628 99c41 0 74 33 74 74s-33 73 -74 73s-73 -32 -73 -73s32 -74 73 -74zM1025 -5c-100 0 -177 78 -177 178s77 177 177 177s178 -77 178 -177s-78 -178 -178 -178zM628 -5 c-100 0 -177 78 -177 178s77 177 177 177s178 -77 178 -177s-78 -178 -178 -178zM203 454c41 0 74 33 74 74s-33 73 -74 73s-73 -32 -73 -73s32 -74 73 -74zM129 0l454 700h120l-454 -700h-120zM203 350c-100 0 -177 78 -177 178s77 177 177 177s178 -77 178 -177 s-78 -178 -178 -178z" glyph-name="perthousand" horiz-adv-x="1229" unicode="‰"/>
<glyph d="M287 0v435h-2l-121 -181l-95 75l272 371h18l272 -371l-95 -75l-121 181h-3v-435h-125z" glyph-name="arrowup" unicode="↑"/>
<glyph d="M146 60l-88 88l308 307l-2 2l-214 -43l-14 121l455 70l13 -13l-70 -455l-121 14l43 214l-2 2z" glyph-name="uni2197" unicode="↗"/>
<glyph d="M329 69l-75 95l181 121v3h-435v125h435v2l-181 121l75 95l371 -272v-18z" glyph-name="arrowright" unicode="→"/>
<glyph d="M591 96l-455 70l14 121l214 -43l2 2l-307 308l88 88l307 -308l2 2l-43 214l121 14l70 -455z" glyph-name="uni2198" unicode="↘"/>
<glyph d="M341 0l-272 371l95 75l121 -181h3v435h125v-435h2l121 181l95 -75l-272 -371h-18z" glyph-name="arrowdown" unicode="↓"/>
<glyph d="M109 96l-13 13l70 455l121 -14l-43 -214l2 -2l308 307l88 -88l-308 -307l2 -2l214 43l14 -121z" glyph-name="uni2199" unicode="↙"/>
<glyph d="M371 70l-371 272v18l371 272l75 -95l-181 -121v-3h435v-125h-435v-2l181 -121z" glyph-name="arrowleft" unicode="←"/>
<glyph d="M553 59l-307 308l-2 -2l43 -214l-121 -14l-70 455l13 13l455 -70l-14 -121l-214 43l-2 -2l307 -308z" glyph-name="uni2196" unicode="↖"/>
<glyph d="M339 90l-346 251v18l346 251l76 -95l-166 -107v-3h423v3l-166 107l75 95l346 -251v-18l-346 -251l-75 95l166 107v2h-423v-2l166 -107z" glyph-name="arrowboth" horiz-adv-x="920" unicode="↔"/>
<glyph d="M341 -117l-251 346l95 76l107 -166h3v423h-3l-107 -166l-95 75l251 346h18l251 -346l-95 -75l-107 166h-2v-423h2l107 166l95 -76l-251 -346h-18z" glyph-name="arrowupdn" unicode="↕"/>
<glyph d="M575 0v287h-310v-2l181 -121l-75 -95l-371 272v18l371 272l75 -95l-181 -121v-3h435v-412h-125z" glyph-name="uni21B0" horiz-adv-x="730" unicode="↰"/>
<glyph d="M30 0v412h435v3l-181 121l75 95l371 -272v-18l-371 -272l-75 95l181 121v2h-310v-287h-125z" glyph-name="uni21B1" horiz-adv-x="730" unicode="↱"/>
<glyph d="M371 69l-371 272v18l371 272l75 -95l-181 -121v-2h310v287h125v-412h-435v-3l181 -121z" glyph-name="uni21B2" horiz-adv-x="730" unicode="↲"/>
<glyph d="M359 69l-75 95l181 121v3h-435v412h125v-287h310v2l-181 121l75 95l371 -272v-18z" glyph-name="uni21B3" horiz-adv-x="730" unicode="↳"/>
<glyph d="M486 -39l22 250l-194 -173l-171 51l48 172h297l-368 113v173l160 41l220 -263l-126 353l158 133l158 -133l-126 -353l220 263l160 -41v-173l-368 -113h297l48 -172l-171 -51l-194 173l22 -250h-92z" glyph-name="uni2605" horiz-adv-x="1064" unicode="★"/>
<glyph d="M380 79c62 0 117 47 117 101v7c-12 -9 -43 -16 -77 -19c-69 -7 -95 -21 -95 -47c0 -27 20 -42 55 -42zM410 -167c-206 0 -365 159 -365 365s159 365 365 365s365 -159 365 -365c0 -73 -20 -141 -56 -198h-216v55c-34 -40 -93 -64 -156 -64c-87 0 -141 45 -141 114 c0 83 66 126 206 134c59 3 81 11 81 30c0 31 -29 54 -77 54s-82 -22 -92 -60h-106c12 92 88 151 194 151c116 0 190 -65 190 -165v-155h88c13 32 20 67 20 104c0 169 -131 300 -300 300s-299 -131 -299 -300s130 -299 299 -299c86 0 149 25 202 70l44 -48 c-63 -56 -142 -88 -246 -88z" glyph-name="at" horiz-adv-x="820" unicode="@"/>
<glyph d="M298 114c56 0 101 14 135 39l-126 149h-23c-67 0 -111 -34 -111 -86c0 -61 51 -102 125 -102zM302 -15c-170 0 -281 86 -281 217c0 112 76 189 198 204l-137 160v134h545v-140h-355l254 -298c16 41 26 87 29 131h151c-4 -99 -32 -183 -78 -250l122 -143h-185l-41 47 c-60 -40 -136 -62 -222 -62z" glyph-name="ampersand" horiz-adv-x="763" unicode="&amp;"/>
<glyph d="M290 -200v500h-9c-125 0 -221 87 -221 200s96 200 221 200h162v-900h-153z" glyph-name="paragraph" horiz-adv-x="575" unicode="¶"/>
<glyph d="M393 240c40 1 97 20 97 63c0 53 -77 60 -183 75c-42 -1 -95 -19 -95 -62c0 -51 82 -65 181 -76zM355 -100c-133 0 -255 63 -269 206h146c7 -54 59 -88 123 -88c42 0 100 12 100 54c0 44 -40 52 -122 66c-142 26 -261 51 -264 171c0 62 45 102 104 123 c-41 23 -68 58 -70 115c0 126 127 172 240 172c124 0 243 -54 258 -201h-145c-12 57 -63 81 -117 81c-40 0 -93 -11 -93 -57c0 -41 51 -51 126 -64c146 -25 265 -52 265 -165c0 -61 -44 -103 -103 -128c41 -23 68 -56 68 -113c0 -111 -113 -172 -247 -172z" glyph-name="section" unicode="§"/>
<glyph d="M415 142c-125 0 -216 89 -216 208s91 208 216 208c111 0 192 -72 204 -169h-112c-11 40 -45 67 -92 67c-60 0 -103 -45 -103 -106s43 -106 103 -106c47 0 81 28 92 67h112c-12 -96 -93 -169 -204 -169zM410 51c169 0 300 130 300 299s-131 300 -300 300 s-299 -131 -299 -300s130 -299 299 -299zM410 -15c-206 0 -365 159 -365 365s159 365 365 365s365 -159 365 -365s-159 -365 -365 -365z" glyph-name="copyright" horiz-adv-x="820" unicode="©"/>
<glyph d="M189 549h40c18 0 30 9 30 25c0 13 -12 23 -30 23h-40v-48zM140 438v204h88c50 0 81 -25 81 -66c0 -27 -13 -49 -37 -59l55 -79h-59l-49 70h-30v-70h-49zM223 374c92 0 161 70 161 161c0 92 -69 161 -161 161c-91 0 -161 -69 -161 -161c0 -91 70 -161 161 -161zM223 355 c-102 0 -180 78 -180 180s78 180 180 180s180 -78 180 -180s-78 -180 -180 -180z" glyph-name="registered" horiz-adv-x="440" unicode="®"/>
<glyph d="M384 400v300h134l69 -200l69 200h132v-300h-82v222l-77 -222h-85l-77 220v-220h-83zM132 400v219h-113v81h311v-81h-113v-219h-85z" glyph-name="trademark" horiz-adv-x="857" unicode="™"/>
<glyph d="M180 514c30 0 53 23 53 53s-23 53 -53 53s-53 -23 -53 -53s23 -53 53 -53zM180 419c-84 0 -148 65 -148 148s64 148 148 148c83 0 148 -65 148 -148s-65 -148 -148 -148z" glyph-name="degree" horiz-adv-x="359" unicode="°"/>
<glyph d="M132 -100v900h125v-900h-125z" glyph-name="bar" horiz-adv-x="389" unicode="|"/>
<glyph d="M132 -100v380h125v-380h-125zM132 420v380h125v-380h-125z" glyph-name="brokenbar" horiz-adv-x="389" unicode="¦"/>
<glyph d="M144 357v168h-128v90h128v95h97v-95h128v-90h-128v-168h-97z" glyph-name="dagger" horiz-adv-x="385" unicode="†"/>
<glyph d="M144 357v69h-128v83h128v49h-128v83h128v69h97v-69h128v-83h-128v-49h128v-83h-128v-69h-97z" glyph-name="daggerdbl" horiz-adv-x="385" unicode="‡"/>
<glyph d="M1030 449c42 0 74 33 74 74s-32 73 -74 73c-41 0 -73 -32 -73 -73s32 -74 73 -74zM1030 345c-99 0 -177 78 -177 178s78 177 177 177c100 0 178 -77 178 -177s-78 -178 -178 -178zM98 0v700h168l327 -470v470h149v-700h-168l-325 471v-471h-151z" glyph-name="uni2116" horiz-adv-x="1242" unicode="№"/>
<glyph d="M380 231c62 0 117 47 117 101v7c-12 -9 -43 -16 -77 -19c-69 -7 -95 -21 -95 -47c0 -27 20 -42 55 -42zM410 -15c-206 0 -365 159 -365 365s159 365 365 365s365 -159 365 -365c0 -73 -20 -141 -56 -198h-216v55c-34 -40 -93 -64 -156 -64c-87 0 -141 45 -141 114 c0 83 66 126 206 134c59 3 81 11 81 30c0 31 -29 54 -77 54s-82 -22 -92 -60h-106c12 92 88 151 194 151c116 0 190 -65 190 -165v-155h88c13 32 20 67 20 104c0 169 -131 300 -300 300s-299 -131 -299 -300s130 -299 299 -299c86 0 149 25 202 70l44 -48 c-63 -56 -142 -88 -246 -88z" glyph-name="at.case" horiz-adv-x="820"/>
<glyph d="M132 0v700h125v-700h-125z" glyph-name="bar.case" horiz-adv-x="389"/>
<glyph d="M132 0v280h125v-280h-125zM132 420v280h125v-280h-125z" glyph-name="brokenbar.case" horiz-adv-x="389"/>
<glyph d="M176 291h261c-17 55 -65 89 -129 89c-62 0 -115 -35 -132 -89zM311 -10c-162 0 -273 101 -273 245c0 120 81 213 194 241v106h-189v128h518v-128h-190v-103c119 -23 204 -116 204 -239c0 -14 -1 -26 -3 -40h-399c12 -55 64 -99 141 -99c42 0 81 16 99 43h146 c-17 -79 -110 -154 -248 -154z" glyph-name="ampersand.ss02" horiz-adv-x="608"/>
<glyph d="M140 437h-78c17 27 33 61 41 94h-1c-50 15 -71 52 -71 89c0 48 35 97 94 97c49 0 97 -34 97 -100c0 -59 -39 -141 -82 -180z" glyph-name="uni02BC" horiz-adv-x="248" unicode="ʼ"/>
<glyph d="M-132 745l-80 -188h-10l-78 183l-79 -183h-9l-80 188h336z" glyph-name="uni0308" horiz-adv-x="0" unicode="̈"/>
<glyph d="M-305 557l-90 188h190l-90 -188h-10z" glyph-name="uni0307" horiz-adv-x="0" unicode="̇"/>
<glyph d="M-242 585h-134l-67 160h135z" glyph-name="gravecomb" horiz-adv-x="0" unicode="̀"/>
<glyph d="M-358 585l66 160h136l-67 -160h-135z" glyph-name="acutecomb" horiz-adv-x="0" unicode="́"/>
<glyph d="M-266 585l59 160h122l-60 -160h-121zM-443 585l59 160h122l-60 -160h-121z" glyph-name="uni030B" horiz-adv-x="0" unicode="̋"/>
<glyph d="M-237 540v160h125l-8 -160h-117z" glyph-name="uni030C.alt" horiz-adv-x="0"/>
<glyph d="M-113 585h-131l-56 81l-56 -81h-131l114 160h146z" glyph-name="uni0302" horiz-adv-x="0" unicode="̂"/>
<glyph d="M-487 745h131l56 -81l56 81h131l-114 -160h-146z" glyph-name="uni030C" horiz-adv-x="0" unicode="̌"/>
<glyph d="M-300 554c-121 0 -200 78 -200 183v8h115v-7c0 -47 34 -80 85 -80s85 33 85 80v7h115v-8c0 -105 -79 -183 -200 -183z" glyph-name="uni0306" horiz-adv-x="0" unicode="̆"/>
<glyph d="M-300 647c25 0 45 20 45 45c0 24 -20 44 -45 44s-45 -20 -45 -44c0 -26 20 -45 45 -45zM-301 554c-76 0 -137 61 -137 137s61 138 137 138c77 0 139 -62 139 -138s-62 -137 -139 -137z" glyph-name="uni030A" horiz-adv-x="0" unicode="̊"/>
<glyph d="M-498 591c0 104 46 147 113 147c65 0 104 -43 140 -43c20 0 33 14 33 41h110c0 -105 -46 -148 -113 -148c-65 0 -104 44 -140 44c-20 0 -33 -14 -33 -41h-110z" glyph-name="tildecomb" horiz-adv-x="0" unicode="̃"/>
<glyph d="M-460 723h320v-106h-320v106z" glyph-name="uni0304" horiz-adv-x="0" unicode="̄"/>
<glyph d="M-316 751h75c-14 -16 -29 -45 -32 -59c39 -3 58 -33 58 -58c0 -35 -35 -67 -85 -67c-48 0 -88 25 -88 73c0 44 35 87 72 111z" glyph-name="uni0312" horiz-adv-x="0" unicode="̒"/>
<glyph d="M-284 -245h-75c14 16 29 45 32 59c-39 3 -58 33 -58 58c0 35 35 67 85 67c48 0 88 -25 88 -73c0 -44 -35 -87 -72 -111z" glyph-name="uni0326" horiz-adv-x="0" unicode="̦"/>
<glyph d="M-232 -85l-66 -160h-136l67 160h135z" glyph-name="uni0327" horiz-adv-x="0" unicode="̧"/>
<glyph d="M-296 -85l-66 -160h-135l67 160h134z" glyph-name="uni0328" horiz-adv-x="0" unicode="̨"/>
<glyph d="M-475 648h351v-96h-351v96z" glyph-name="uni0335" horiz-adv-x="0" unicode="̵"/>
<glyph d="M-132 745l-80 -188h-10l-78 183l-79 -183h-9l-80 188h336z" glyph-name="uni0308.cv01" horiz-adv-x="0"/>
<glyph d="M-305 557l-90 188h190l-90 -188h-10z" glyph-name="uni0307.cv01" horiz-adv-x="0"/>
<glyph d="M-300 554c-121 0 -200 78 -200 183v8h115v-7c0 -47 34 -80 85 -80s85 33 85 80v7h115v-8c0 -105 -79 -183 -200 -183z" glyph-name="brevecombcy" horiz-adv-x="0"/>
</font>
</defs>
</svg>
