<?xml version="1.0" encoding="UTF-8"?>
<!DOCTYPE svg  PUBLIC '-//W3C//DTD SVG 1.1//EN'  'http://www.w3.org/Graphics/SVG/1.1/DTD/svg11.dtd'>
<svg version="1.1" xmlns="http://www.w3.org/2000/svg">
<defs>
<font id="KyivTypeSans-Black" horiz-adv-x="820">
<font-face font-family="KyivType_Sans_Black" font-weight="900" ascent="800" bbox="-543 -245 1255 1030" cap-height="700" descent="-200" panose-1="0 0 10 0 0 0 0 0 0 0" stemh="212" stemv="220" underline-position="-100" underline-thickness="50" unicode-range="U+000D-2605" units-per-em="1000" x-height="500"/>
<missing-glyph d="M486 -40l22 250l-194 -173l-171 51l48 172h297l-368 113v173l160 41l220 -263l-126 353l158 133l158 -133l-126 -353l220 263l160 -41v-173l-368 -113h297l48 -172l-171 -51l-194 173l22 -250h-92z" horiz-adv-x="1064"/>
<glyph d="M486 -40l22 250l-194 -173l-171 51l48 172h297l-368 113v173l160 41l220 -263l-126 353l158 133l158 -133l-126 -353l220 263l160 -41v-173l-368 -113h297l48 -172l-171 -51l-194 173l22 -250h-92z" glyph-name=".notdef" horiz-adv-x="1064"/>
<glyph glyph-name=".null" horiz-adv-x="0"/>
<glyph glyph-name="CR" horiz-adv-x="250" unicode="
"/>
<glyph glyph-name="space" horiz-adv-x="250" unicode=" "/>
<glyph d="M334 286h147l-68 224h-11zM20 0l248 700h284l248 -700h-232l-34 111h-253l-33 -111h-228z" glyph-name="A" unicode="A"/>
<glyph d="M334 286h147l-68 224h-11zM20 0l248 700h284l248 -700h-232l-34 111h-253l-33 -111h-228zM327 785l66 160h184l-67 -160h-183z" glyph-name="Aacute" unicode="Á"/>
<glyph d="M334 286h147l-68 224h-11zM20 0l248 700h284l248 -700h-232l-34 111h-253l-33 -111h-228zM410 741c-129 0 -213 85 -213 195v9h154v-7c0 -34 25 -61 59 -61s59 27 59 61v7h154v-9c0 -110 -84 -195 -213 -195z" glyph-name="Abreve" unicode="Ă"/>
<glyph d="M334 286h147l-68 224h-11zM20 0l248 700h284l248 -700h-232l-34 111h-253l-33 -111h-228zM642 785h-193l-39 56l-39 -56h-193l114 160h236z" glyph-name="Acircumflex" unicode="Â"/>
<glyph d="M334 286h147l-68 224h-11zM552 700l248 -700h-232l-34 111h-253l-33 -111h-228l248 700h284zM323 745h-9l-104 200h400l-103 -200h-9l-88 169z" glyph-name="Adieresis" unicode="Ä"/>
<glyph d="M334 286h147l-68 224h-11zM20 0l248 700h284l248 -700h-232l-34 111h-253l-33 -111h-228zM493 785h-183l-67 160h184z" glyph-name="Agrave" unicode="À"/>
<glyph d="M334 286h147l-68 224h-11zM20 0l248 700h284l248 -700h-232l-34 111h-253l-33 -111h-228zM250 935h320v-130h-320v130z" glyph-name="Amacron" unicode="Ā"/>
<glyph d="M808 -85l-66 -160h-184l67 160h183zM334 286h147l-68 224h-11zM20 0l248 700h284l248 -700h-232l-34 111h-253l-33 -111h-228z" glyph-name="Aogonek" unicode="Ą"/>
<glyph d="M334 286h147l-68 224h-11zM20 0l248 700h284l248 -700h-232l-34 111h-253l-33 -111h-228zM410 860c14 0 25 11 25 25s-11 25 -25 25s-25 -11 -25 -25s11 -25 25 -25zM410 740c-81 0 -145 65 -145 145s64 145 145 145c80 0 145 -65 145 -145s-65 -145 -145 -145z" glyph-name="Aring" unicode="Å"/>
<glyph d="M334 286h147l-68 224h-11zM20 0l248 700h284l248 -700h-232l-34 111h-253l-33 -111h-228zM205 774c0 131 48 186 121 186c60 0 90 -42 113 -42c14 0 21 11 21 33h155c0 -131 -48 -186 -121 -186c-60 0 -90 42 -113 42c-14 0 -21 -11 -21 -33h-155z" glyph-name="Atilde" unicode="Ã"/>
<glyph d="M334 286h147l-68 224h-11zM734 190h314v-190h-480l-34 111h-253l-33 -111h-228l248 700h760v-190h-391l22 -73h271v-174h-218z" glyph-name="AE" horiz-adv-x="1107" unicode="Æ"/>
<glyph d="M288 176h160c29 0 50 19 50 46s-21 46 -50 46h-160v-92zM288 436h145c28 0 48 19 48 44s-20 44 -48 44h-145v-88zM80 0v700h369c154 0 249 -74 249 -195c0 -59 -22 -106 -63 -140v-6c52 -36 83 -91 83 -156c0 -121 -102 -203 -249 -203h-389z" glyph-name="B" horiz-adv-x="753" unicode="B"/>
<glyph d="M403 -15c-210 0 -363 154 -363 365s153 365 363 365c188 0 336 -134 345 -310h-222c-16 57 -64 95 -125 95c-79 0 -136 -63 -136 -150s57 -150 136 -150c61 0 109 38 125 95h222c-9 -176 -157 -310 -345 -310z" glyph-name="C" horiz-adv-x="777" unicode="C"/>
<glyph d="M403 -15c-210 0 -363 154 -363 365s153 365 363 365c188 0 336 -134 345 -310h-222c-16 57 -64 95 -125 95c-79 0 -136 -63 -136 -150s57 -150 136 -150c61 0 109 38 125 95h222c-9 -176 -157 -310 -345 -310zM319 785l66 160h184l-67 -160h-183z" glyph-name="Cacute" horiz-adv-x="777" unicode="Ć"/>
<glyph d="M403 -15c-210 0 -363 154 -363 365s153 365 363 365c188 0 336 -134 345 -310h-222c-16 57 -64 95 -125 95c-79 0 -136 -63 -136 -150s57 -150 136 -150c61 0 109 38 125 95h222c-9 -176 -157 -310 -345 -310zM170 945h193l39 -56l39 56h193l-114 -160h-236z" glyph-name="Ccaron" horiz-adv-x="777" unicode="Č"/>
<glyph d="M495 -85l-66 -160h-184l67 160h183zM403 -15c-210 0 -363 154 -363 365s153 365 363 365c188 0 336 -134 345 -310h-222c-16 57 -64 95 -125 95c-79 0 -136 -63 -136 -150s57 -150 136 -150c61 0 109 38 125 95h222c-9 -176 -157 -310 -345 -310z" glyph-name="Ccedilla" horiz-adv-x="777" unicode="Ç"/>
<glyph d="M403 -15c-210 0 -363 154 -363 365s153 365 363 365c188 0 336 -134 345 -310h-222c-16 57 -64 95 -125 95c-79 0 -136 -63 -136 -150s57 -150 136 -150c61 0 109 38 125 95h222c-9 -176 -157 -310 -345 -310zM397 745l-115 200h240l-115 -200h-10z" glyph-name="Cdotaccent" horiz-adv-x="777" unicode="Ċ"/>
<glyph d="M300 195h31c113 0 170 56 170 155s-57 155 -170 155h-31v-310zM80 0v700h250c243 0 400 -138 400 -350s-157 -350 -400 -350h-250z" glyph-name="D" horiz-adv-x="770" unicode="D"/>
<glyph d="M331 195c113 0 170 56 170 155s-57 155 -170 155h-31v-95h97v-120h-97v-95h31zM330 700c243 0 400 -138 400 -350s-157 -350 -400 -350h-250v290h-51v120h51v290h250z" glyph-name="Eth" horiz-adv-x="770" unicode="Ð"/>
<glyph d="M300 195h31c113 0 170 56 170 155s-57 155 -170 155h-31v-310zM80 0v700h250c243 0 400 -138 400 -350s-157 -350 -400 -350h-250zM108 945h193l39 -56l39 56h193l-114 -160h-236z" glyph-name="Dcaron" horiz-adv-x="770" unicode="Ď"/>
<glyph d="M331 195c113 0 170 56 170 155s-57 155 -170 155h-31v-95h97v-120h-97v-95h31zM330 700c243 0 400 -138 400 -350s-157 -350 -400 -350h-250v290h-51v120h51v290h250z" glyph-name="Dcroat" horiz-adv-x="770" unicode="Đ"/>
<glyph d="M80 0v700h531v-190h-316v-73h205v-174h-205v-73h336v-190h-551z" glyph-name="E" horiz-adv-x="690" unicode="E"/>
<glyph d="M80 0v700h531v-190h-316v-73h205v-174h-205v-73h336v-190h-551zM258 785l66 160h184l-67 -160h-183z" glyph-name="Eacute" horiz-adv-x="690" unicode="É"/>
<glyph d="M80 0v700h531v-190h-316v-73h205v-174h-205v-73h336v-190h-551zM109 945h193l39 -56l39 56h193l-114 -160h-236z" glyph-name="Ecaron" horiz-adv-x="690" unicode="Ě"/>
<glyph d="M80 0v700h531v-190h-316v-73h205v-174h-205v-73h336v-190h-551zM573 785h-193l-39 56l-39 -56h-193l114 160h236z" glyph-name="Ecircumflex" horiz-adv-x="690" unicode="Ê"/>
<glyph d="M295 190h336v-190h-551v700h531v-190h-316v-73h205v-174h-205v-73zM254 745h-9l-104 200h400l-103 -200h-9l-88 169z" glyph-name="Edieresis" horiz-adv-x="690" unicode="Ë"/>
<glyph d="M80 0v700h531v-190h-316v-73h205v-174h-205v-73h336v-190h-551zM336 745l-115 200h240l-115 -200h-10z" glyph-name="Edotaccent" horiz-adv-x="690" unicode="Ė"/>
<glyph d="M80 0v700h531v-190h-316v-73h205v-174h-205v-73h336v-190h-551zM424 785h-183l-67 160h184z" glyph-name="Egrave" horiz-adv-x="690" unicode="È"/>
<glyph d="M80 0v700h531v-190h-316v-73h205v-174h-205v-73h336v-190h-551zM181 935h320v-130h-320v130z" glyph-name="Emacron" horiz-adv-x="690" unicode="Ē"/>
<glyph d="M638 -85l-66 -160h-184l67 160h183zM80 0v700h531v-190h-316v-73h205v-174h-205v-73h336v-190h-551z" glyph-name="Eogonek" horiz-adv-x="690" unicode="Ę"/>
<glyph d="M80 0v700h540v-205h-320v-82h220v-190h-220v-223h-220z" glyph-name="F" horiz-adv-x="650" unicode="F"/>
<glyph d="M379 -15c-192 0 -339 154 -339 364c0 212 153 366 359 366c178 0 316 -114 345 -270h-231c-20 40 -58 64 -107 64c-85 0 -142 -70 -142 -166c0 -101 62 -172 150 -172c43 0 80 17 107 44h-120v165h347v-380h-183v46c-47 -39 -109 -61 -186 -61z" glyph-name="G" horiz-adv-x="813" unicode="G"/>
<glyph d="M379 -15c-192 0 -339 154 -339 364c0 212 153 366 359 366c178 0 316 -114 345 -270h-231c-20 40 -58 64 -107 64c-85 0 -142 -70 -142 -166c0 -101 62 -172 150 -172c43 0 80 17 107 44h-120v165h347v-380h-183v46c-47 -39 -109 -61 -186 -61zM409 741 c-129 0 -213 85 -213 195v9h154v-7c0 -34 25 -61 59 -61s59 27 59 61v7h154v-9c0 -110 -84 -195 -213 -195z" glyph-name="Gbreve" horiz-adv-x="813" unicode="Ğ"/>
<glyph d="M464 -245h-108c12 12 25 30 33 48c-42 7 -58 37 -58 65c0 35 44 71 106 71c61 0 111 -26 111 -77c0 -37 -38 -84 -84 -107zM379 -15c-192 0 -339 154 -339 364c0 212 153 366 359 366c178 0 316 -114 345 -270h-231c-20 40 -58 64 -107 64c-85 0 -142 -70 -142 -166 c0 -101 62 -172 150 -172c43 0 80 17 107 44h-120v165h347v-380h-183v46c-47 -39 -109 -61 -186 -61z" glyph-name="uni0122" horiz-adv-x="813" unicode="Ģ"/>
<glyph d="M379 -15c-192 0 -339 154 -339 364c0 212 153 366 359 366c178 0 316 -114 345 -270h-231c-20 40 -58 64 -107 64c-85 0 -142 -70 -142 -166c0 -101 62 -172 150 -172c43 0 80 17 107 44h-120v165h347v-380h-183v46c-47 -39 -109 -61 -186 -61zM404 745l-115 200h240 l-115 -200h-10z" glyph-name="Gdotaccent" horiz-adv-x="813" unicode="Ġ"/>
<glyph d="M80 0v700h220v-244h220v244h220v-700h-220v244h-220v-244h-220z" glyph-name="H" unicode="H"/>
<glyph d="M520 456v52h-220v-52h220zM798 652v-144h-58v-508h-220v244h-220v-244h-220v508h-58v144h58v48h220v-48h220v48h220v-48h58z" glyph-name="Hbar" unicode="Ħ"/>
<glyph d="M80 0v700h220v-700h-220z" glyph-name="I" horiz-adv-x="380" unicode="I"/>
<glyph d="M80 0v700h220v-700h-220zM107 785l66 160h184l-67 -160h-183z" glyph-name="Iacute" horiz-adv-x="380" unicode="Í"/>
<glyph d="M80 0v700h220v-700h-220zM422 785h-193l-39 56l-39 -56h-193l114 160h236z" glyph-name="Icircumflex" horiz-adv-x="380" unicode="Î"/>
<glyph d="M80 0v700h220v-700h-220zM103 745h-9l-104 200h400l-103 -200h-9l-88 169z" glyph-name="Idieresis" horiz-adv-x="380" unicode="Ï"/>
<glyph d="M80 0v700h220v-700h-220zM185 745l-115 200h240l-115 -200h-10z" glyph-name="Idotaccent" horiz-adv-x="380" unicode="İ"/>
<glyph d="M80 0v700h220v-700h-220zM273 785h-183l-67 160h184z" glyph-name="Igrave" horiz-adv-x="380" unicode="Ì"/>
<glyph d="M80 0v700h220v-700h-220zM30 935h320v-130h-320v130z" glyph-name="Imacron" horiz-adv-x="380" unicode="Ī"/>
<glyph d="M307 -85l-66 -160h-184l67 160h183zM80 0v700h220v-700h-220z" glyph-name="Iogonek" horiz-adv-x="380" unicode="Į"/>
<glyph d="M318 -15c-177 0 -298 110 -298 278v87h216v-72c0 -47 32 -80 78 -80c45 0 77 33 77 80v422h220v-437c0 -168 -115 -278 -293 -278z" glyph-name="J" horiz-adv-x="686" unicode="J"/>
<glyph d="M80 0v700h218v-244h83l149 244h238l-202 -332l224 -368h-261l-149 244h-82v-244h-218z" glyph-name="K" horiz-adv-x="799" unicode="K"/>
<glyph d="M445 -245h-108c12 12 25 30 33 48c-42 7 -58 37 -58 65c0 35 44 71 106 71c61 0 111 -26 111 -77c0 -37 -38 -84 -84 -107zM80 0v700h218v-244h83l149 244h238l-202 -332l224 -368h-261l-149 244h-82v-244h-218z" glyph-name="uni0136" horiz-adv-x="799" unicode="Ķ"/>
<glyph d="M80 0v700h220v-488h330v-212h-550z" glyph-name="L" horiz-adv-x="660" unicode="L"/>
<glyph d="M80 0v700h220v-488h330v-212h-550zM107 785l66 160h184l-67 -160h-183z" glyph-name="Lacute" horiz-adv-x="660" unicode="Ĺ"/>
<glyph d="M360 540v160h170l-10 -160h-160zM80 0v700h220v-488h330v-212h-550z" glyph-name="Lcaron" horiz-adv-x="660" unicode="Ľ"/>
<glyph d="M415 -245h-108c12 12 25 30 33 48c-42 7 -58 37 -58 65c0 35 44 71 106 71c61 0 111 -26 111 -77c0 -37 -38 -84 -84 -107zM80 0v700h220v-488h330v-212h-550z" glyph-name="uni013B" horiz-adv-x="660" unicode="Ļ"/>
<glyph d="M300 212h330v-212h-550v188l-65 -38v194l65 38v318h220v-188l140 83v-195l-140 -82v-106z" glyph-name="Lslash" horiz-adv-x="660" unicode="Ł"/>
<glyph d="M80 0v700h368l95 -426l95 426h364v-700h-214v527l-122 -527h-250l-122 527v-527h-214z" glyph-name="M" horiz-adv-x="1082" unicode="M"/>
<glyph d="M80 0v700h230l245 -385v385h205v-700h-230l-245 385v-385h-205z" glyph-name="N" horiz-adv-x="840" unicode="N"/>
<glyph d="M80 0v700h230l245 -385v385h205v-700h-230l-245 385v-385h-205zM337 785l66 160h184l-67 -160h-183z" glyph-name="Nacute" horiz-adv-x="840" unicode="Ń"/>
<glyph d="M80 0v700h230l245 -385v385h205v-700h-230l-245 385v-385h-205zM188 945h193l39 -56l39 56h193l-114 -160h-236z" glyph-name="Ncaron" horiz-adv-x="840" unicode="Ň"/>
<glyph d="M446 -245h-108c12 12 25 30 33 48c-42 7 -58 37 -58 65c0 35 44 71 106 71c61 0 111 -26 111 -77c0 -37 -38 -84 -84 -107zM80 0v700h230l245 -385v385h205v-700h-230l-245 385v-385h-205z" glyph-name="uni0145" horiz-adv-x="840" unicode="Ņ"/>
<glyph d="M516 -210c-120 0 -207 71 -207 170h169v-1c0 -17 21 -30 42 -30c36 0 53 22 53 46c0 12 -4 25 -12 36l-276 374v-385h-205v700h230l245 -352v352h205v-667c0 -172 -89 -243 -244 -243z" glyph-name="Eng" horiz-adv-x="840" unicode="Ŋ"/>
<glyph d="M80 0v700h230l245 -385v385h205v-700h-230l-245 385v-385h-205zM215 774c0 131 48 186 121 186c60 0 90 -42 113 -42c14 0 21 11 21 33h155c0 -131 -48 -186 -121 -186c-60 0 -90 42 -113 42c-14 0 -21 -11 -21 -33h-155z" glyph-name="Ntilde" horiz-adv-x="840" unicode="Ñ"/>
<glyph d="M410 200c83 0 145 64 145 150s-62 150 -145 150s-145 -64 -145 -150s62 -150 145 -150zM410 -15c-212 0 -370 156 -370 365s158 365 370 365s370 -156 370 -365s-158 -365 -370 -365z" glyph-name="O" unicode="O"/>
<glyph d="M410 200c83 0 145 64 145 150s-62 150 -145 150s-145 -64 -145 -150s62 -150 145 -150zM410 -15c-212 0 -370 156 -370 365s158 365 370 365s370 -156 370 -365s-158 -365 -370 -365zM327 785l66 160h184l-67 -160h-183z" glyph-name="Oacute" unicode="Ó"/>
<glyph d="M410 200c83 0 145 64 145 150s-62 150 -145 150s-145 -64 -145 -150s62 -150 145 -150zM410 -15c-212 0 -370 156 -370 365s158 365 370 365s370 -156 370 -365s-158 -365 -370 -365zM642 785h-193l-39 56l-39 -56h-193l114 160h236z" glyph-name="Ocircumflex" unicode="Ô"/>
<glyph d="M410 200c83 0 145 64 145 150s-62 150 -145 150s-145 -64 -145 -150s62 -150 145 -150zM410 715c212 0 370 -156 370 -365s-158 -365 -370 -365s-370 156 -370 365s158 365 370 365zM323 745h-9l-104 200h400l-103 -200h-9l-88 169z" glyph-name="Odieresis" unicode="Ö"/>
<glyph d="M410 200c83 0 145 64 145 150s-62 150 -145 150s-145 -64 -145 -150s62 -150 145 -150zM410 -15c-212 0 -370 156 -370 365s158 365 370 365s370 -156 370 -365s-158 -365 -370 -365zM493 785h-183l-67 160h184z" glyph-name="Ograve" unicode="Ò"/>
<glyph d="M410 200c83 0 145 64 145 150s-62 150 -145 150s-145 -64 -145 -150s62 -150 145 -150zM410 -15c-212 0 -370 156 -370 365s158 365 370 365s370 -156 370 -365s-158 -365 -370 -365zM427 785l60 160h165l-60 -160h-165zM223 785l60 160h165l-60 -160h-165z" glyph-name="Ohungarumlaut" unicode="Ő"/>
<glyph d="M410 200c83 0 145 64 145 150s-62 150 -145 150s-145 -64 -145 -150s62 -150 145 -150zM410 -15c-212 0 -370 156 -370 365s158 365 370 365s370 -156 370 -365s-158 -365 -370 -365zM250 935h320v-130h-320v130z" glyph-name="Omacron" unicode="Ō"/>
<glyph d="M410 190c92 0 160 68 160 160c0 20 -3 38 -9 55l-166 -214c5 -1 10 -1 15 -1zM259 295l166 214c-5 1 -10 1 -15 1c-92 0 -160 -68 -160 -160c0 -20 3 -38 9 -55zM410 -15c-55 0 -106 10 -152 29l-11 -14h-217l90 117c-50 62 -80 142 -80 233c0 209 158 365 370 365 c55 0 106 -10 152 -29l11 14h217l-90 -117c50 -62 80 -142 80 -233c0 -209 -158 -365 -370 -365z" glyph-name="Oslash" unicode="Ø"/>
<glyph d="M410 200c83 0 145 64 145 150s-62 150 -145 150s-145 -64 -145 -150s62 -150 145 -150zM410 -15c-212 0 -370 156 -370 365s158 365 370 365s370 -156 370 -365s-158 -365 -370 -365zM205 774c0 131 48 186 121 186c60 0 90 -42 113 -42c14 0 21 11 21 33h155 c0 -131 -48 -186 -121 -186c-60 0 -90 42 -113 42c-14 0 -21 -11 -21 -33h-155z" glyph-name="Otilde" unicode="Õ"/>
<glyph d="M439 195h31v310h-31c-113 0 -170 -56 -170 -155s57 -155 170 -155zM440 0c-243 0 -400 138 -400 350s157 350 400 350h531v-190h-290v-73h179v-174h-179v-73h310v-190h-551z" glyph-name="OE" horiz-adv-x="1050" unicode="Œ"/>
<glyph d="M296 390h109c38 0 65 25 65 60s-27 60 -65 60h-109v-120zM80 0v700h323c178 0 287 -91 287 -240s-109 -240 -287 -240h-107v-220h-216z" glyph-name="P" horiz-adv-x="720" unicode="P"/>
<glyph d="M296 290h104c38 0 65 25 65 60s-27 60 -65 60h-104v-120zM80 0v700h216v-100h103c177 0 286 -93 286 -245s-109 -245 -286 -245h-103v-110h-216z" glyph-name="Thorn" horiz-adv-x="705" unicode="Þ"/>
<glyph d="M410 200c83 0 145 64 145 150s-62 150 -145 150s-145 -64 -145 -150s62 -150 145 -150zM300 -200v200c-154 44 -260 179 -260 350c0 209 158 365 370 365s370 -156 370 -365c0 -171 -106 -306 -260 -350v-200h-220z" glyph-name="Q" unicode="Q"/>
<glyph d="M296 398h132c36 0 62 23 62 55s-26 55 -62 55h-132v-110zM80 0v700h342c178 0 288 -90 288 -238c0 -96 -46 -167 -127 -206l161 -256h-242l-141 224h-65v-224h-216z" glyph-name="R" horiz-adv-x="765" unicode="R"/>
<glyph d="M296 398h132c36 0 62 23 62 55s-26 55 -62 55h-132v-110zM80 0v700h342c178 0 288 -90 288 -238c0 -96 -46 -167 -127 -206l161 -256h-242l-141 224h-65v-224h-216zM286 785l66 160h184l-67 -160h-183z" glyph-name="Racute" horiz-adv-x="765" unicode="Ŕ"/>
<glyph d="M296 398h132c36 0 62 23 62 55s-26 55 -62 55h-132v-110zM80 0v700h342c178 0 288 -90 288 -238c0 -96 -46 -167 -127 -206l161 -256h-242l-141 224h-65v-224h-216zM137 945h193l39 -56l39 56h193l-114 -160h-236z" glyph-name="Rcaron" horiz-adv-x="765" unicode="Ř"/>
<glyph d="M430 -245h-108c12 12 25 30 33 48c-42 7 -58 37 -58 65c0 35 44 71 106 71c61 0 111 -26 111 -77c0 -37 -38 -84 -84 -107zM296 398h132c36 0 62 23 62 55s-26 55 -62 55h-132v-110zM80 0v700h342c178 0 288 -90 288 -238c0 -96 -46 -167 -127 -206l161 -256h-242 l-141 224h-65v-224h-216z" glyph-name="uni0156" horiz-adv-x="765" unicode="Ŗ"/>
<glyph d="M371 -15c-179 0 -333 76 -347 265h220c13 -58 62 -86 130 -86c51 0 96 9 96 41c0 30 -27 36 -133 60c-136 31 -296 72 -296 230c0 163 169 220 318 220c158 0 326 -64 345 -257h-230c-13 52 -62 75 -123 75c-23 0 -82 -3 -82 -38c0 -34 48 -42 139 -63 c154 -35 292 -76 292 -228c0 -131 -118 -219 -329 -219z" glyph-name="S" horiz-adv-x="734" unicode="S"/>
<glyph d="M371 -15c-179 0 -333 76 -347 265h220c13 -58 62 -86 130 -86c51 0 96 9 96 41c0 30 -27 36 -133 60c-136 31 -296 72 -296 230c0 163 169 220 318 220c158 0 326 -64 345 -257h-230c-13 52 -62 75 -123 75c-23 0 -82 -3 -82 -38c0 -34 48 -42 139 -63 c154 -35 292 -76 292 -228c0 -131 -118 -219 -329 -219zM274 785l66 160h184l-67 -160h-183z" glyph-name="Sacute" horiz-adv-x="734" unicode="Ś"/>
<glyph d="M371 -15c-179 0 -333 76 -347 265h220c13 -58 62 -86 130 -86c51 0 96 9 96 41c0 30 -27 36 -133 60c-136 31 -296 72 -296 230c0 163 169 220 318 220c158 0 326 -64 345 -257h-230c-13 52 -62 75 -123 75c-23 0 -82 -3 -82 -38c0 -34 48 -42 139 -63 c154 -35 292 -76 292 -228c0 -131 -118 -219 -329 -219zM125 945h193l39 -56l39 56h193l-114 -160h-236z" glyph-name="Scaron" horiz-adv-x="734" unicode="Š"/>
<glyph d="M461 -85l-66 -160h-184l67 160h183zM371 -15c-179 0 -333 76 -347 265h220c13 -58 62 -86 130 -86c51 0 96 9 96 41c0 30 -27 36 -133 60c-136 31 -296 72 -296 230c0 163 169 220 318 220c158 0 326 -64 345 -257h-230c-13 52 -62 75 -123 75c-23 0 -82 -3 -82 -38 c0 -34 48 -42 139 -63c154 -35 292 -76 292 -228c0 -131 -118 -219 -329 -219z" glyph-name="Scedilla" horiz-adv-x="734" unicode="Ş"/>
<glyph d="M394 -245h-108c12 12 25 30 33 48c-42 7 -58 37 -58 65c0 35 44 71 106 71c61 0 111 -26 111 -77c0 -37 -38 -84 -84 -107zM371 -15c-179 0 -333 76 -347 265h220c13 -58 62 -86 130 -86c51 0 96 9 96 41c0 30 -27 36 -133 60c-136 31 -296 72 -296 230 c0 163 169 220 318 220c158 0 326 -64 345 -257h-230c-13 52 -62 75 -123 75c-23 0 -82 -3 -82 -38c0 -34 48 -42 139 -63c154 -35 292 -76 292 -228c0 -131 -118 -219 -329 -219z" glyph-name="uni0218" horiz-adv-x="734" unicode="Ș"/>
<glyph d="M570 -15c-139 0 -243 102 -243 225h187c0 -31 21 -51 53 -51c33 0 51 29 51 58c0 27 -27 55 -69 55h-191h-6v115l157 128h-219v-515h-210v700h678v-173l-132 -114h1c119 -8 195 -102 195 -187c0 -142 -102 -241 -252 -241z" glyph-name="uni1E9E" horiz-adv-x="847" unicode="ẞ"/>
<glyph d="M265 0v488h-235v212h690v-212h-235v-488h-220z" glyph-name="T" horiz-adv-x="750" unicode="T"/>
<glyph d="M720 488h-235v-106h134v-144h-134v-238h-220v238h-134v144h134v106h-235v212h690v-212z" glyph-name="Tbar" horiz-adv-x="750" unicode="Ŧ"/>
<glyph d="M265 0v488h-235v212h690v-212h-235v-488h-220zM143 945h193l39 -56l39 56h193l-114 -160h-236z" glyph-name="Tcaron" horiz-adv-x="750" unicode="Ť"/>
<glyph d="M468 -85l-66 -160h-184l67 160h183zM265 0v488h-235v212h690v-212h-235v-488h-220z" glyph-name="uni0162" horiz-adv-x="750" unicode="Ţ"/>
<glyph d="M401 -245h-108c12 12 25 30 33 48c-42 7 -58 37 -58 65c0 35 44 71 106 71c61 0 111 -26 111 -77c0 -37 -38 -84 -84 -107zM265 0v488h-235v212h690v-212h-235v-488h-220z" glyph-name="uni021A" horiz-adv-x="750" unicode="Ț"/>
<glyph d="M408 -15c-205 0 -338 129 -338 326v389h220v-377c0 -82 40 -126 118 -126s118 44 118 126v377h220v-389c0 -197 -133 -326 -338 -326z" glyph-name="U" horiz-adv-x="816" unicode="U"/>
<glyph d="M408 -15c-205 0 -338 129 -338 326v389h220v-377c0 -82 40 -126 118 -126s118 44 118 126v377h220v-389c0 -197 -133 -326 -338 -326zM325 785l66 160h184l-67 -160h-183z" glyph-name="Uacute" horiz-adv-x="816" unicode="Ú"/>
<glyph d="M408 -15c-205 0 -338 129 -338 326v389h220v-377c0 -82 40 -126 118 -126s118 44 118 126v377h220v-389c0 -197 -133 -326 -338 -326zM640 785h-193l-39 56l-39 -56h-193l114 160h236z" glyph-name="Ucircumflex" horiz-adv-x="816" unicode="Û"/>
<glyph d="M526 700h220v-389c0 -197 -133 -326 -338 -326s-338 129 -338 326v389h220v-377c0 -82 40 -126 118 -126s118 44 118 126v377zM321 745h-9l-104 200h400l-103 -200h-9l-88 169z" glyph-name="Udieresis" horiz-adv-x="816" unicode="Ü"/>
<glyph d="M408 -15c-205 0 -338 129 -338 326v389h220v-377c0 -82 40 -126 118 -126s118 44 118 126v377h220v-389c0 -197 -133 -326 -338 -326zM491 785h-183l-67 160h184z" glyph-name="Ugrave" horiz-adv-x="816" unicode="Ù"/>
<glyph d="M408 -15c-205 0 -338 129 -338 326v389h220v-377c0 -82 40 -126 118 -126s118 44 118 126v377h220v-389c0 -197 -133 -326 -338 -326zM425 785l60 160h165l-60 -160h-165zM221 785l60 160h165l-60 -160h-165z" glyph-name="Uhungarumlaut" horiz-adv-x="816" unicode="Ű"/>
<glyph d="M408 -15c-205 0 -338 129 -338 326v389h220v-377c0 -82 40 -126 118 -126s118 44 118 126v377h220v-389c0 -197 -133 -326 -338 -326zM248 935h320v-130h-320v130z" glyph-name="Umacron" horiz-adv-x="816" unicode="Ū"/>
<glyph d="M684 -85l-66 -160h-184l67 160h183zM408 -15c-205 0 -338 129 -338 326v389h220v-377c0 -82 40 -126 118 -126s118 44 118 126v377h220v-389c0 -197 -133 -326 -338 -326z" glyph-name="Uogonek" horiz-adv-x="816" unicode="Ų"/>
<glyph d="M408 -15c-205 0 -338 129 -338 326v389h220v-377c0 -82 40 -126 118 -126s118 44 118 126v377h220v-389c0 -197 -133 -326 -338 -326zM408 860c14 0 25 11 25 25s-11 25 -25 25s-25 -11 -25 -25s11 -25 25 -25zM408 740c-81 0 -145 65 -145 145s64 145 145 145 c80 0 145 -65 145 -145s-65 -145 -145 -145z" glyph-name="Uring" horiz-adv-x="816" unicode="Ů"/>
<glyph d="M275 0l-255 700h237l163 -510h4l164 510h232l-255 -700h-290z" glyph-name="V" horiz-adv-x="840" unicode="V"/>
<glyph d="M176 0l-146 700h227l86 -442l86 442h222l86 -442l86 442h223l-146 -700h-281l-82 423l-82 -423h-279z" glyph-name="W" horiz-adv-x="1076" unicode="W"/>
<glyph d="M176 0l-146 700h227l86 -442l86 442h222l86 -442l86 442h223l-146 -700h-281l-82 423l-82 -423h-279zM455 785l66 160h184l-67 -160h-183z" glyph-name="Wacute" horiz-adv-x="1076" unicode="Ẃ"/>
<glyph d="M176 0l-146 700h227l86 -442l86 442h222l86 -442l86 442h223l-146 -700h-281l-82 423l-82 -423h-279zM770 785h-193l-39 56l-39 -56h-193l114 160h236z" glyph-name="Wcircumflex" horiz-adv-x="1076" unicode="Ŵ"/>
<glyph d="M823 700h223l-146 -700h-281l-82 423l-82 -423h-279l-146 700h227l86 -442l86 442h222l86 -442zM451 745h-9l-104 200h400l-103 -200h-9l-88 169z" glyph-name="Wdieresis" horiz-adv-x="1076" unicode="Ẅ"/>
<glyph d="M176 0l-146 700h227l86 -442l86 442h222l86 -442l86 442h223l-146 -700h-281l-82 423l-82 -423h-279zM621 785h-183l-67 160h184z" glyph-name="Wgrave" horiz-adv-x="1076" unicode="Ẁ"/>
<glyph d="M10 0l227 362l-217 338h255l123 -204l123 204h248l-218 -337l229 -363h-257l-130 216l-133 -216h-250z" glyph-name="X" horiz-adv-x="790" unicode="X"/>
<glyph d="M288 0v233l-283 467h256l145 -262l139 262h246l-283 -467v-233h-220z" glyph-name="Y" horiz-adv-x="796" unicode="Y"/>
<glyph d="M288 0v233l-283 467h256l145 -262l139 262h246l-283 -467v-233h-220zM315 785l66 160h184l-67 -160h-183z" glyph-name="Yacute" horiz-adv-x="796" unicode="Ý"/>
<glyph d="M288 0v233l-283 467h256l145 -262l139 262h246l-283 -467v-233h-220zM630 785h-193l-39 56l-39 -56h-193l114 160h236z" glyph-name="Ycircumflex" horiz-adv-x="796" unicode="Ŷ"/>
<glyph d="M545 700h246l-283 -467v-233h-220v233l-283 467h256l145 -262zM311 745h-9l-104 200h400l-103 -200h-9l-88 169z" glyph-name="Ydieresis" horiz-adv-x="796" unicode="Ÿ"/>
<glyph d="M288 0v233l-283 467h256l145 -262l139 262h246l-283 -467v-233h-220zM481 785h-183l-67 160h184z" glyph-name="Ygrave" horiz-adv-x="796" unicode="Ỳ"/>
<glyph d="M50 0v180l320 320h-310v200h598v-180l-320 -320h325v-200h-613z" glyph-name="Z" horiz-adv-x="723" unicode="Z"/>
<glyph d="M50 0v180l320 320h-310v200h598v-180l-320 -320h325v-200h-613zM304 785l66 160h184l-67 -160h-183z" glyph-name="Zacute" horiz-adv-x="723" unicode="Ź"/>
<glyph d="M50 0v180l320 320h-310v200h598v-180l-320 -320h325v-200h-613zM155 945h193l39 -56l39 56h193l-114 -160h-236z" glyph-name="Zcaron" horiz-adv-x="723" unicode="Ž"/>
<glyph d="M50 0v180l320 320h-310v200h598v-180l-320 -320h325v-200h-613zM382 745l-115 200h240l-115 -200h-10z" glyph-name="Zdotaccent" horiz-adv-x="723" unicode="Ż"/>
<glyph d="M1080 700v-700h-220v490h-170v-490h-220v490h-170v-490h-220v700h1000z" glyph-name="M.ss03" horiz-adv-x="1160"/>
<glyph d="M80 0v700h660v-700h-220v488h-220v-488h-220z" glyph-name="N.ss03"/>
<glyph d="M80 0v700h660v-700h-220v488h-220v-488h-220zM327 785l66 160h184l-67 -160h-183z" glyph-name="Nacute.ss03"/>
<glyph d="M80 0v700h660v-700h-220v488h-220v-488h-220zM178 945h193l39 -56l39 56h193l-114 -160h-236z" glyph-name="Ncaron.ss03"/>
<glyph d="M436 -245h-108c12 12 25 30 33 48c-42 7 -58 37 -58 65c0 35 44 71 106 71c61 0 111 -26 111 -77c0 -37 -38 -84 -84 -107zM80 0v700h660v-700h-220v488h-220v-488h-220z" glyph-name="uni0145.ss03"/>
<glyph d="M494 -210c-116 0 -205 74 -205 170h178v-1c0 -17 17 -30 34 -30c18 0 35 14 35 52c0 31 -16 56 -16 108v399h-220v-488h-220v700h660v-667c0 -172 -90 -243 -246 -243z" glyph-name="Eng.ss03"/>
<glyph d="M80 0v700h660v-700h-220v488h-220v-488h-220zM205 774c0 131 48 186 121 186c60 0 90 -42 113 -42c14 0 21 11 21 33h155c0 -131 -48 -186 -121 -186c-60 0 -90 42 -113 42c-14 0 -21 -11 -21 -33h-155z" glyph-name="Ntilde.ss03"/>
<glyph d="M40 0v200h320l-292 320v180h575v-200h-282l292 -320v-180h-613z" glyph-name="S.ss03" horiz-adv-x="703"/>
<glyph d="M40 0v200h320l-292 320v180h575v-200h-282l292 -320v-180h-613zM271 785l66 160h184l-67 -160h-183z" glyph-name="Sacute.ss03" horiz-adv-x="703"/>
<glyph d="M40 0v200h320l-292 320v180h575v-200h-282l292 -320v-180h-613zM122 945h193l39 -56l39 56h193l-114 -160h-236z" glyph-name="Scaron.ss03" horiz-adv-x="703"/>
<glyph d="M466 -85l-66 -160h-184l67 160h183zM40 0v200h320l-292 320v180h575v-200h-282l292 -320v-180h-613z" glyph-name="Scedilla.ss03" horiz-adv-x="703"/>
<glyph d="M399 -245h-108c12 12 25 30 33 48c-42 7 -58 37 -58 65c0 35 44 71 106 71c61 0 111 -26 111 -77c0 -37 -38 -84 -84 -107zM40 0v200h320l-292 320v180h575v-200h-282l292 -320v-180h-613z" glyph-name="uni0218.ss03" horiz-adv-x="703"/>
<glyph d="M740 700v-700h-660v700h220v-488h220v488h220z" glyph-name="U.ss03"/>
<glyph d="M740 700v-700h-660v700h220v-488h220v488h220zM327 785l66 160h184l-67 -160h-183z" glyph-name="Uacute.ss03"/>
<glyph d="M740 700v-700h-660v700h220v-488h220v488h220zM642 785h-193l-39 56l-39 -56h-193l114 160h236z" glyph-name="Ucircumflex.ss03"/>
<glyph d="M520 700h220v-700h-660v700h220v-488h220v488zM323 745h-9l-104 200h400l-103 -200h-9l-88 169z" glyph-name="Udieresis.ss03"/>
<glyph d="M740 700v-700h-660v700h220v-488h220v488h220zM493 785h-183l-67 160h184z" glyph-name="Ugrave.ss03"/>
<glyph d="M740 700v-700h-660v700h220v-488h220v488h220zM427 785l60 160h165l-60 -160h-165zM223 785l60 160h165l-60 -160h-165z" glyph-name="Uhungarumlaut.ss03"/>
<glyph d="M740 700v-700h-660v700h220v-488h220v488h220zM250 935h320v-130h-320v130z" glyph-name="Umacron.ss03"/>
<glyph d="M747 -85l-66 -160h-184l67 160h183zM740 700v-700h-660v700h220v-488h220v488h220z" glyph-name="Uogonek.ss03"/>
<glyph d="M740 700v-700h-660v700h220v-488h220v488h220zM410 860c14 0 25 11 25 25s-11 25 -25 25s-25 -11 -25 -25s11 -25 25 -25zM410 740c-81 0 -145 65 -145 145s64 145 145 145c80 0 145 -65 145 -145s-65 -145 -145 -145z" glyph-name="Uring.ss03"/>
<glyph d="M80 0v700h220v-490h170v490h220v-490h170v490h220v-700h-1000z" glyph-name="W.ss03" horiz-adv-x="1160"/>
<glyph d="M80 0v700h220v-490h170v490h220v-490h170v490h220v-700h-1000zM497 785l66 160h184l-67 -160h-183z" glyph-name="Wacute.ss03" horiz-adv-x="1160"/>
<glyph d="M80 0v700h220v-490h170v490h220v-490h170v490h220v-700h-1000zM812 785h-193l-39 56l-39 -56h-193l114 160h236z" glyph-name="Wcircumflex.ss03" horiz-adv-x="1160"/>
<glyph d="M860 700h220v-700h-1000v700h220v-490h170v490h220v-490h170v490zM493 745h-9l-104 200h400l-103 -200h-9l-88 169z" glyph-name="Wdieresis.ss03" horiz-adv-x="1160"/>
<glyph d="M80 0v700h220v-490h170v490h220v-490h170v490h220v-700h-1000zM663 785h-183l-67 160h184z" glyph-name="Wgrave.ss03" horiz-adv-x="1160"/>
<glyph d="M249 132c53 0 104 42 104 84v5c-12 -7 -44 -17 -71 -20c-53 -5 -67 -22 -67 -44c0 -16 12 -25 34 -25zM195 -10c-108 0 -173 54 -173 141c0 101 83 154 243 164c57 4 79 14 79 34c0 19 -20 30 -55 30c-33 0 -56 -13 -64 -37h-177c15 114 114 188 252 188 s226 -81 226 -206v-139h48v-165h-206v43c-46 -34 -108 -53 -173 -53z" glyph-name="a" horiz-adv-x="604" unicode="a"/>
<glyph d="M249 132c53 0 104 42 104 84v5c-12 -7 -44 -17 -71 -20c-53 -5 -67 -22 -67 -44c0 -16 12 -25 34 -25zM195 -10c-108 0 -173 54 -173 141c0 101 83 154 243 164c57 4 79 14 79 34c0 19 -20 30 -55 30c-33 0 -56 -13 -64 -37h-177c15 114 114 188 252 188 s226 -81 226 -206v-139h48v-165h-206v43c-46 -34 -108 -53 -173 -53zM217 585l66 160h184l-67 -160h-183z" glyph-name="aacute" horiz-adv-x="604" unicode="á"/>
<glyph d="M249 132c53 0 104 42 104 84v5c-12 -7 -44 -17 -71 -20c-53 -5 -67 -22 -67 -44c0 -16 12 -25 34 -25zM195 -10c-108 0 -173 54 -173 141c0 101 83 154 243 164c57 4 79 14 79 34c0 19 -20 30 -55 30c-33 0 -56 -13 -64 -37h-177c15 114 114 188 252 188 s226 -81 226 -206v-139h48v-165h-206v43c-46 -34 -108 -53 -173 -53zM300 541c-129 0 -213 85 -213 195v9h154v-7c0 -34 25 -61 59 -61s59 27 59 61v7h154v-9c0 -110 -84 -195 -213 -195z" glyph-name="abreve" horiz-adv-x="604" unicode="ă"/>
<glyph d="M249 132c53 0 104 42 104 84v5c-12 -7 -44 -17 -71 -20c-53 -5 -67 -22 -67 -44c0 -16 12 -25 34 -25zM195 -10c-108 0 -173 54 -173 141c0 101 83 154 243 164c57 4 79 14 79 34c0 19 -20 30 -55 30c-33 0 -56 -13 -64 -37h-177c15 114 114 188 252 188 s226 -81 226 -206v-139h48v-165h-206v43c-46 -34 -108 -53 -173 -53zM532 585h-193l-39 56l-39 -56h-193l114 160h236z" glyph-name="acircumflex" horiz-adv-x="604" unicode="â"/>
<glyph d="M353 216v5c-12 -7 -44 -17 -71 -20c-53 -5 -67 -22 -67 -44c0 -16 12 -25 34 -25c53 0 104 42 104 84zM526 165h48v-165h-206v43c-46 -34 -108 -53 -173 -53c-108 0 -173 54 -173 141c0 101 83 154 243 164c57 4 79 14 79 34c0 19 -20 30 -55 30c-33 0 -56 -13 -64 -37 h-177c15 114 114 188 252 188s226 -81 226 -206v-139zM213 545h-9l-104 200h400l-103 -200h-9l-88 169z" glyph-name="adieresis" horiz-adv-x="604" unicode="ä"/>
<glyph d="M249 132c53 0 104 42 104 84v5c-12 -7 -44 -17 -71 -20c-53 -5 -67 -22 -67 -44c0 -16 12 -25 34 -25zM195 -10c-108 0 -173 54 -173 141c0 101 83 154 243 164c57 4 79 14 79 34c0 19 -20 30 -55 30c-33 0 -56 -13 -64 -37h-177c15 114 114 188 252 188 s226 -81 226 -206v-139h48v-165h-206v43c-46 -34 -108 -53 -173 -53zM383 585h-183l-67 160h184z" glyph-name="agrave" horiz-adv-x="604" unicode="à"/>
<glyph d="M249 132c53 0 104 42 104 84v5c-12 -7 -44 -17 -71 -20c-53 -5 -67 -22 -67 -44c0 -16 12 -25 34 -25zM195 -10c-108 0 -173 54 -173 141c0 101 83 154 243 164c57 4 79 14 79 34c0 19 -20 30 -55 30c-33 0 -56 -13 -64 -37h-177c15 114 114 188 252 188 s226 -81 226 -206v-139h48v-165h-206v43c-46 -34 -108 -53 -173 -53zM140 735h320v-130h-320v130z" glyph-name="amacron" horiz-adv-x="604" unicode="ā"/>
<glyph d="M581 -85l-66 -160h-184l67 160h183zM249 132c53 0 104 42 104 84v5c-12 -7 -44 -17 -71 -20c-53 -5 -67 -22 -67 -44c0 -16 12 -25 34 -25zM195 -10c-108 0 -173 54 -173 141c0 101 83 154 243 164c57 4 79 14 79 34c0 19 -20 30 -55 30c-33 0 -56 -13 -64 -37h-177 c15 114 114 188 252 188s226 -81 226 -206v-139h48v-165h-206v43c-46 -34 -108 -53 -173 -53z" glyph-name="aogonek" horiz-adv-x="604" unicode="ą"/>
<glyph d="M249 132c53 0 104 42 104 84v5c-12 -7 -44 -17 -71 -20c-53 -5 -67 -22 -67 -44c0 -16 12 -25 34 -25zM195 -10c-108 0 -173 54 -173 141c0 101 83 154 243 164c57 4 79 14 79 34c0 19 -20 30 -55 30c-33 0 -56 -13 -64 -37h-177c15 114 114 188 252 188 s226 -81 226 -206v-139h48v-165h-206v43c-46 -34 -108 -53 -173 -53zM300 660c14 0 25 11 25 25s-11 25 -25 25s-25 -11 -25 -25s11 -25 25 -25zM300 540c-81 0 -145 65 -145 145s64 145 145 145c80 0 145 -65 145 -145s-65 -145 -145 -145z" glyph-name="aring" horiz-adv-x="604" unicode="å"/>
<glyph d="M249 132c53 0 104 42 104 84v5c-12 -7 -44 -17 -71 -20c-53 -5 -67 -22 -67 -44c0 -16 12 -25 34 -25zM195 -10c-108 0 -173 54 -173 141c0 101 83 154 243 164c57 4 79 14 79 34c0 19 -20 30 -55 30c-33 0 -56 -13 -64 -37h-177c15 114 114 188 252 188 s226 -81 226 -206v-139h48v-165h-206v43c-46 -34 -108 -53 -173 -53zM95 574c0 131 48 186 121 186c60 0 90 -42 113 -42c14 0 21 11 21 33h155c0 -131 -48 -186 -121 -186c-60 0 -90 42 -113 42c-14 0 -21 -11 -21 -33h-155z" glyph-name="atilde" horiz-adv-x="604" unicode="ã"/>
<glyph d="M249 132c53 0 104 42 104 84v5c-12 -7 -44 -17 -71 -20c-53 -5 -67 -22 -67 -44c0 -16 12 -25 34 -25zM528 302h178c-13 39 -46 60 -91 60c-39 0 -73 -22 -87 -60zM215 -10c-120 0 -193 54 -193 141c0 101 83 154 243 164c57 4 79 14 79 34c0 19 -20 30 -55 30 c-33 0 -56 -13 -64 -37h-177c14 114 109 188 240 188c66 0 119 -20 157 -55c47 36 108 55 175 55c155 0 270 -106 270 -261c0 -15 -1 -31 -4 -47h-360c12 -36 43 -63 94 -63c29 0 51 5 67 16h190c-13 -77 -102 -165 -258 -165c-86 0 -158 27 -206 75 c-39 -41 -106 -75 -198 -75z" glyph-name="ae" horiz-adv-x="917" unicode="æ"/>
<glyph d="M340 165c48 0 85 37 85 85s-37 85 -85 85s-85 -37 -85 -85s37 -85 85 -85zM371 -10c-49 0 -93 16 -128 44v-34h-173v710h190v-232c32 21 70 32 111 32c144 0 249 -110 249 -260s-105 -260 -249 -260z" glyph-name="b" horiz-adv-x="650" unicode="b"/>
<glyph d="M306 -10c-160 0 -276 110 -276 260s116 260 276 260c143 0 251 -100 259 -220h-188c-10 26 -38 49 -71 49c-51 0 -86 -38 -86 -89s35 -89 86 -89c33 0 61 23 71 49h188c-8 -120 -116 -220 -259 -220z" glyph-name="c" horiz-adv-x="595" unicode="c"/>
<glyph d="M306 -10c-160 0 -276 110 -276 260s116 260 276 260c143 0 251 -100 259 -220h-188c-10 26 -38 49 -71 49c-51 0 -86 -38 -86 -89s35 -89 86 -89c33 0 61 23 71 49h188c-8 -120 -116 -220 -259 -220zM220 585l66 160h184l-67 -160h-183z" glyph-name="cacute" horiz-adv-x="595" unicode="ć"/>
<glyph d="M306 -10c-160 0 -276 110 -276 260s116 260 276 260c143 0 251 -100 259 -220h-188c-10 26 -38 49 -71 49c-51 0 -86 -38 -86 -89s35 -89 86 -89c33 0 61 23 71 49h188c-8 -120 -116 -220 -259 -220zM71 745h193l39 -56l39 56h193l-114 -160h-236z" glyph-name="ccaron" horiz-adv-x="595" unicode="č"/>
<glyph d="M396 -85l-66 -160h-184l67 160h183zM306 -10c-160 0 -276 110 -276 260s116 260 276 260c143 0 251 -100 259 -220h-188c-10 26 -38 49 -71 49c-51 0 -86 -38 -86 -89s35 -89 86 -89c33 0 61 23 71 49h188c-8 -120 -116 -220 -259 -220z" glyph-name="ccedilla" horiz-adv-x="595" unicode="ç"/>
<glyph d="M306 -10c-160 0 -276 110 -276 260s116 260 276 260c143 0 251 -100 259 -220h-188c-10 26 -38 49 -71 49c-51 0 -86 -38 -86 -89s35 -89 86 -89c33 0 61 23 71 49h188c-8 -120 -116 -220 -259 -220zM298 545l-115 200h240l-115 -200h-10z" glyph-name="cdotaccent" horiz-adv-x="595" unicode="ċ"/>
<glyph d="M310 165c48 0 85 37 85 85s-37 85 -85 85s-85 -37 -85 -85s37 -85 85 -85zM279 -10c-144 0 -249 110 -249 260s105 260 249 260c41 0 79 -11 111 -32v232h190v-710h-173v34c-35 -28 -79 -44 -128 -44z" glyph-name="d" horiz-adv-x="650" unicode="d"/>
<glyph d="M310 165c48 0 85 37 85 85s-37 85 -85 85s-85 -37 -85 -85s37 -85 85 -85zM308 -10c-161 0 -278 108 -278 255c0 141 104 255 255 255c-3 6 -7 13 -10 19l-6 11h-133v120h68l-33 60h209l34 -60h117v-120h-50l11 -20c31 -56 98 -145 98 -260c0 -150 -114 -260 -282 -260z " glyph-name="eth" horiz-adv-x="620" unicode="ð"/>
<glyph d="M310 165c48 0 85 37 85 85s-37 85 -85 85s-85 -37 -85 -85s37 -85 85 -85zM640 550v160h170l-10 -160h-160zM279 -10c-144 0 -249 110 -249 260s105 260 249 260c41 0 79 -11 111 -32v232h190v-710h-173v34c-35 -28 -79 -44 -128 -44z" glyph-name="dcaron" horiz-adv-x="650" unicode="ď"/>
<glyph d="M310 165c48 0 85 37 85 85s-37 85 -85 85s-85 -37 -85 -85s37 -85 85 -85zM639 650v-120h-59v-530h-173v34c-35 -28 -79 -44 -128 -44c-144 0 -249 110 -249 260s105 260 249 260c41 0 79 -11 111 -32v52h-111v120h111v60h190v-60h59z" glyph-name="dcroat" horiz-adv-x="650" unicode="đ"/>
<glyph d="M393 302c-13 39 -46 60 -91 60c-39 0 -73 -22 -87 -60h178zM306 -10c-164 0 -276 98 -276 254c0 160 122 266 277 266s270 -106 270 -261c0 -15 -1 -31 -4 -47h-360c12 -36 43 -63 94 -63c29 0 51 5 67 16h190c-13 -77 -102 -165 -258 -165z" glyph-name="e" horiz-adv-x="604" unicode="e"/>
<glyph d="M393 302c-13 39 -46 60 -91 60c-39 0 -73 -22 -87 -60h178zM306 -10c-164 0 -276 98 -276 254c0 160 122 266 277 266s270 -106 270 -261c0 -15 -1 -31 -4 -47h-360c12 -36 43 -63 94 -63c29 0 51 5 67 16h190c-13 -77 -102 -165 -258 -165zM217 585l66 160h184l-67 -160 h-183z" glyph-name="eacute" horiz-adv-x="604" unicode="é"/>
<glyph d="M393 302c-13 39 -46 60 -91 60c-39 0 -73 -22 -87 -60h178zM306 -10c-164 0 -276 98 -276 254c0 160 122 266 277 266s270 -106 270 -261c0 -15 -1 -31 -4 -47h-360c12 -36 43 -63 94 -63c29 0 51 5 67 16h190c-13 -77 -102 -165 -258 -165zM68 745h193l39 -56l39 56h193 l-114 -160h-236z" glyph-name="ecaron" horiz-adv-x="604" unicode="ě"/>
<glyph d="M393 302c-13 39 -46 60 -91 60c-39 0 -73 -22 -87 -60h178zM306 -10c-164 0 -276 98 -276 254c0 160 122 266 277 266s270 -106 270 -261c0 -15 -1 -31 -4 -47h-360c12 -36 43 -63 94 -63c29 0 51 5 67 16h190c-13 -77 -102 -165 -258 -165zM532 585h-193l-39 56l-39 -56 h-193l114 160h236z" glyph-name="ecircumflex" horiz-adv-x="604" unicode="ê"/>
<glyph d="M215 302h178c-13 39 -46 60 -91 60c-39 0 -73 -22 -87 -60zM577 249c0 -15 -1 -31 -4 -47h-360c12 -36 43 -63 94 -63c29 0 51 5 67 16h190c-13 -77 -102 -165 -258 -165c-164 0 -276 98 -276 254c0 160 122 266 277 266s270 -106 270 -261zM213 545h-9l-104 200h400 l-103 -200h-9l-88 169z" glyph-name="edieresis" horiz-adv-x="604" unicode="ë"/>
<glyph d="M393 302c-13 39 -46 60 -91 60c-39 0 -73 -22 -87 -60h178zM306 -10c-164 0 -276 98 -276 254c0 160 122 266 277 266s270 -106 270 -261c0 -15 -1 -31 -4 -47h-360c12 -36 43 -63 94 -63c29 0 51 5 67 16h190c-13 -77 -102 -165 -258 -165zM295 545l-115 200h240 l-115 -200h-10z" glyph-name="edotaccent" horiz-adv-x="604" unicode="ė"/>
<glyph d="M393 302c-13 39 -46 60 -91 60c-39 0 -73 -22 -87 -60h178zM306 -10c-164 0 -276 98 -276 254c0 160 122 266 277 266s270 -106 270 -261c0 -15 -1 -31 -4 -47h-360c12 -36 43 -63 94 -63c29 0 51 5 67 16h190c-13 -77 -102 -165 -258 -165zM383 585h-183l-67 160h184z " glyph-name="egrave" horiz-adv-x="604" unicode="è"/>
<glyph d="M393 302c-13 39 -46 60 -91 60c-39 0 -73 -22 -87 -60h178zM306 -10c-164 0 -276 98 -276 254c0 160 122 266 277 266s270 -106 270 -261c0 -15 -1 -31 -4 -47h-360c12 -36 43 -63 94 -63c29 0 51 5 67 16h190c-13 -77 -102 -165 -258 -165zM140 735h320v-130h-320v130z " glyph-name="emacron" horiz-adv-x="604" unicode="ē"/>
<glyph d="M492 -85l-66 -160h-184l67 160h183zM393 302c-13 39 -46 60 -91 60c-39 0 -73 -22 -87 -60h178zM306 -10c-164 0 -276 98 -276 254c0 160 122 266 277 266s270 -106 270 -261c0 -15 -1 -31 -4 -47h-360c12 -36 43 -63 94 -63c29 0 51 5 67 16h190 c-13 -77 -102 -165 -258 -165z" glyph-name="eogonek" horiz-adv-x="604" unicode="ę"/>
<glyph d="M115 0v330h-85v170h85v42c0 116 82 198 224 198c129 0 227 -68 227 -200h-178v11c0 25 -25 38 -49 38c-25 0 -50 -13 -50 -48c0 -14 3 -27 6 -41h200v-170h-190v-330h-190z" glyph-name="f" horiz-adv-x="505" unicode="f"/>
<glyph d="M347 -69c65 0 103 16 103 44c0 29 -38 46 -103 46s-103 -16 -103 -46c0 -28 38 -44 103 -44zM359 290c60 0 94 17 94 46c0 31 -34 48 -94 48s-94 -17 -94 -48c0 -29 34 -46 94 -46zM344 -210c-193 0 -298 55 -298 155c0 44 24 78 64 98c-77 20 -110 74 -110 127 c0 33 19 83 84 101l4 1c-11 18 -17 40 -17 65c0 88 67 146 187 165v128h200v-127c122 -20 191 -78 191 -166c0 -106 -112 -166 -290 -166c-115 0 -128 20 -161 20c-14 0 -22 -9 -22 -21c0 -27 37 -36 184 -36c190 0 289 -65 289 -170c0 -108 -116 -174 -305 -174z" glyph-name="g" horiz-adv-x="659" unicode="g"/>
<glyph d="M347 -69c65 0 103 16 103 44c0 29 -38 46 -103 46s-103 -16 -103 -46c0 -28 38 -44 103 -44zM359 290c60 0 94 17 94 46c0 31 -34 48 -94 48s-94 -17 -94 -48c0 -29 34 -46 94 -46zM344 -210c-193 0 -298 55 -298 155c0 44 24 78 64 98c-77 20 -110 74 -110 127 c0 33 19 83 84 101l4 1c-11 18 -17 40 -17 65c0 88 75 173 279 173c226 0 299 -85 299 -173c0 -106 -112 -166 -290 -166c-115 0 -128 20 -161 20c-14 0 -22 -9 -22 -21c0 -27 37 -36 184 -36c190 0 289 -65 289 -170c0 -108 -116 -174 -305 -174zM350 541 c-129 0 -213 85 -213 195v9h154v-7c0 -34 25 -61 59 -61s59 27 59 61v7h154v-9c0 -110 -84 -195 -213 -195z" glyph-name="gbreve" horiz-adv-x="659" unicode="ğ"/>
<glyph d="M347 -69c65 0 103 16 103 44c0 29 -38 46 -103 46s-103 -16 -103 -46c0 -28 38 -44 103 -44zM359 290c60 0 94 17 94 46c0 31 -34 48 -94 48s-94 -17 -94 -48c0 -29 34 -46 94 -46zM344 -210c-193 0 -298 55 -298 155c0 44 24 78 64 98c-77 20 -110 74 -110 127 c0 33 19 83 84 101l4 1c-11 18 -17 40 -17 65c0 88 75 173 279 173c226 0 299 -85 299 -173c0 -106 -112 -166 -290 -166c-115 0 -128 20 -161 20c-14 0 -22 -9 -22 -21c0 -27 37 -36 184 -36c190 0 289 -65 289 -170c0 -108 -116 -174 -305 -174zM324 745h108 c-12 -12 -25 -30 -33 -48c42 -7 58 -37 58 -65c0 -35 -44 -71 -106 -71c-61 0 -111 26 -111 77c0 37 38 84 84 107z" glyph-name="uni0123" horiz-adv-x="659" unicode="ģ"/>
<glyph d="M347 -69c65 0 103 16 103 44c0 29 -38 46 -103 46s-103 -16 -103 -46c0 -28 38 -44 103 -44zM359 290c60 0 94 17 94 46c0 31 -34 48 -94 48s-94 -17 -94 -48c0 -29 34 -46 94 -46zM344 -210c-193 0 -298 55 -298 155c0 44 24 78 64 98c-77 20 -110 74 -110 127 c0 33 19 83 84 101l4 1c-11 18 -17 40 -17 65c0 88 75 173 279 173c226 0 299 -85 299 -173c0 -106 -112 -166 -290 -166c-115 0 -128 20 -161 20c-14 0 -22 -9 -22 -21c0 -27 37 -36 184 -36c190 0 289 -65 289 -170c0 -108 -116 -174 -305 -174zM345 545l-115 200h240 l-115 -200h-10z" glyph-name="gdotaccent" horiz-adv-x="659" unicode="ġ"/>
<glyph d="M70 0v710h190v-234c34 22 75 34 121 34c130 0 219 -89 219 -217v-293h-192v261c-1 42 -32 73 -74 73c-43 0 -74 -31 -74 -73v-261h-190z" glyph-name="h" horiz-adv-x="660" unicode="h"/>
<glyph d="M381 510c130 0 219 -89 219 -217v-293h-192v261c-1 42 -32 73 -74 73c-43 0 -74 -31 -74 -73v-261h-190v530h-55v120h55v60h190v-60h115v-120h-115v-54c34 22 75 34 121 34z" glyph-name="hbar" horiz-adv-x="660" unicode="ħ"/>
<glyph d="M70 0v500h190v-500h-190zM160 545l-115 200h240l-115 -200h-10z" glyph-name="i" horiz-adv-x="330" unicode="i"/>
<glyph d="M70 0v500h190v-500h-190z" glyph-name="dotlessi" horiz-adv-x="330" unicode="ı"/>
<glyph d="M70 0v500h190v-500h-190zM82 585l66 160h184l-67 -160h-183z" glyph-name="iacute" horiz-adv-x="330" unicode="í"/>
<glyph d="M70 0v500h190v-500h-190zM-67 745h193l39 -56l39 56h193l-114 -160h-236z" glyph-name="uni01D0" horiz-adv-x="330" unicode="ǐ"/>
<glyph d="M70 0v500h190v-500h-190zM397 585h-193l-39 56l-39 -56h-193l114 160h236z" glyph-name="icircumflex" horiz-adv-x="330" unicode="î"/>
<glyph d="M70 0v500h190v-500h-190zM365 745l-103 -200h-9l-88 169l-87 -169h-9l-104 200h400z" glyph-name="idieresis" horiz-adv-x="330" unicode="ï"/>
<glyph d="M70 0v500h190v-500h-190zM160 545l-115 200h240l-115 -200h-10z" glyph-name="i.loclTRK" horiz-adv-x="330"/>
<glyph d="M70 0v500h190v-500h-190zM248 585h-183l-67 160h184z" glyph-name="igrave" horiz-adv-x="330" unicode="ì"/>
<glyph d="M70 0v500h190v-500h-190zM5 735h320v-130h-320v130z" glyph-name="imacron" horiz-adv-x="330" unicode="ī"/>
<glyph d="M267 -85l-66 -160h-184l67 160h183zM70 0v500h190v-500h-190zM160 545l-115 200h240l-115 -200h-10z" glyph-name="iogonek" horiz-adv-x="330" unicode="į"/>
<glyph d="M23 -210c-127 0 -224 74 -224 170h178v-1c0 -17 24 -30 47 -30c26 0 52 14 52 52c0 31 -16 56 -16 108v411h190v-467c0 -172 -83 -243 -227 -243zM150 545l-115 200h240l-115 -200h-10z" glyph-name="j" horiz-adv-x="300" unicode="j"/>
<glyph d="M23 -210c-127 0 -224 74 -224 170h178v-1c0 -17 24 -30 47 -30c26 0 52 14 52 52c0 31 -16 56 -16 108v411h190v-467c0 -172 -83 -243 -227 -243z" glyph-name="uni0237" horiz-adv-x="300" unicode="ȷ"/>
<glyph d="M70 0v710h190v-373h43l107 163h199l-157 -235l173 -265h-220l-105 163h-40v-163h-190z" glyph-name="k" horiz-adv-x="633" unicode="k"/>
<glyph d="M326 -245h-108c12 12 25 30 33 48c-42 7 -58 37 -58 65c0 35 44 71 106 71c61 0 111 -26 111 -77c0 -37 -38 -84 -84 -107zM70 0v710h190v-373h43l107 163h199l-157 -235l173 -265h-220l-105 163h-40v-163h-190z" glyph-name="uni0137" horiz-adv-x="633" unicode="ķ"/>
<glyph d="M70 0v710h190v-710h-190z" glyph-name="l" horiz-adv-x="330" unicode="l"/>
<glyph d="M70 0v710h190v-710h-190zM82 785l66 160h184l-67 -160h-183z" glyph-name="lacute" horiz-adv-x="330" unicode="ĺ"/>
<glyph d="M320 550v160h170l-10 -160h-160zM70 0v710h190v-710h-190z" glyph-name="lcaron" horiz-adv-x="330" unicode="ľ"/>
<glyph d="M191 -245h-108c12 12 25 30 33 48c-42 7 -58 37 -58 65c0 35 44 71 106 71c61 0 111 -26 111 -77c0 -37 -38 -84 -84 -107zM70 0v710h190v-710h-190z" glyph-name="uni013C" horiz-adv-x="330" unicode="ļ"/>
<glyph d="M360 515v-184l-90 -52v-279h-190v168l-70 -41v185l70 41v357h190v-247z" glyph-name="lslash" horiz-adv-x="350" unicode="ł"/>
<glyph d="M70 0v500h173v-37c35 30 81 47 133 47c65 0 119 -23 157 -63c40 40 96 63 160 63c139 0 227 -85 227 -217v-293h-192v261c-1 42 -30 73 -69 73c-40 0 -69 -31 -69 -73v-261h-192v261c-1 42 -30 73 -69 73c-40 0 -69 -31 -69 -73v-261h-190z" glyph-name="m" horiz-adv-x="980" unicode="m"/>
<glyph d="M70 0v500h173v-37c37 30 84 47 138 47c130 0 219 -89 219 -217v-293h-192v261c-1 42 -32 73 -74 73c-43 0 -74 -31 -74 -73v-261h-190z" glyph-name="n" horiz-adv-x="660" unicode="n"/>
<glyph d="M70 0v500h173v-37c37 30 84 47 138 47c130 0 219 -89 219 -217v-293h-192v261c-1 42 -32 73 -74 73c-43 0 -74 -31 -74 -73v-261h-190zM251 585l66 160h184l-67 -160h-183z" glyph-name="nacute" horiz-adv-x="660" unicode="ń"/>
<glyph d="M70 0v500h173v-37c37 30 84 47 138 47c130 0 219 -89 219 -217v-293h-192v261c-1 42 -32 73 -74 73c-43 0 -74 -31 -74 -73v-261h-190zM102 745h193l39 -56l39 56h193l-114 -160h-236z" glyph-name="ncaron" horiz-adv-x="660" unicode="ň"/>
<glyph d="M360 -245h-108c12 12 25 30 33 48c-42 7 -58 37 -58 65c0 35 44 71 106 71c61 0 111 -26 111 -77c0 -37 -38 -84 -84 -107zM70 0v500h173v-37c37 30 84 47 138 47c130 0 219 -89 219 -217v-293h-192v261c-1 42 -32 73 -74 73c-43 0 -74 -31 -74 -73v-261h-190z" glyph-name="uni0146" horiz-adv-x="660" unicode="ņ"/>
<glyph d="M373 -210c-127 0 -224 74 -224 170h178v-1c0 -17 24 -30 47 -30c26 0 52 14 52 52c0 31 -16 56 -16 108v172c-2 42 -33 73 -76 73s-74 -31 -74 -73v-261h-190v500h173v-37c37 30 84 47 138 47c130 0 219 -89 219 -217v-260c0 -172 -83 -243 -227 -243z" glyph-name="eng" horiz-adv-x="660" unicode="ŋ"/>
<glyph d="M70 0v500h173v-37c37 30 84 47 138 47c130 0 219 -89 219 -217v-293h-192v261c-1 42 -32 73 -74 73c-43 0 -74 -31 -74 -73v-261h-190zM129 574c0 131 48 186 121 186c60 0 90 -42 113 -42c14 0 21 11 21 33h155c0 -131 -48 -186 -121 -186c-60 0 -90 42 -113 42 c-14 0 -21 -11 -21 -33h-155z" glyph-name="ntilde" horiz-adv-x="660" unicode="ñ"/>
<glyph d="M310 165c48 0 85 37 85 85s-37 85 -85 85s-85 -37 -85 -85s37 -85 85 -85zM310 -10c-162 0 -280 110 -280 260s118 260 280 260s280 -110 280 -260s-118 -260 -280 -260z" glyph-name="o" horiz-adv-x="620" unicode="o"/>
<glyph d="M310 165c48 0 85 37 85 85s-37 85 -85 85s-85 -37 -85 -85s37 -85 85 -85zM310 -10c-162 0 -280 110 -280 260s118 260 280 260s280 -110 280 -260s-118 -260 -280 -260zM227 585l66 160h184l-67 -160h-183z" glyph-name="oacute" horiz-adv-x="620" unicode="ó"/>
<glyph d="M310 165c48 0 85 37 85 85s-37 85 -85 85s-85 -37 -85 -85s37 -85 85 -85zM310 -10c-162 0 -280 110 -280 260s118 260 280 260s280 -110 280 -260s-118 -260 -280 -260zM542 585h-193l-39 56l-39 -56h-193l114 160h236z" glyph-name="ocircumflex" horiz-adv-x="620" unicode="ô"/>
<glyph d="M310 165c48 0 85 37 85 85s-37 85 -85 85s-85 -37 -85 -85s37 -85 85 -85zM310 510c162 0 280 -110 280 -260s-118 -260 -280 -260s-280 110 -280 260s118 260 280 260zM223 545h-9l-104 200h400l-103 -200h-9l-88 169z" glyph-name="odieresis" horiz-adv-x="620" unicode="ö"/>
<glyph d="M310 165c48 0 85 37 85 85s-37 85 -85 85s-85 -37 -85 -85s37 -85 85 -85zM310 -10c-162 0 -280 110 -280 260s118 260 280 260s280 -110 280 -260s-118 -260 -280 -260zM393 585h-183l-67 160h184z" glyph-name="ograve" horiz-adv-x="620" unicode="ò"/>
<glyph d="M310 165c48 0 85 37 85 85s-37 85 -85 85s-85 -37 -85 -85s37 -85 85 -85zM310 -10c-162 0 -280 110 -280 260s118 260 280 260s280 -110 280 -260s-118 -260 -280 -260zM327 585l60 160h165l-60 -160h-165zM123 585l60 160h165l-60 -160h-165z" glyph-name="ohungarumlaut" horiz-adv-x="620" unicode="ő"/>
<glyph d="M310 165c48 0 85 37 85 85s-37 85 -85 85s-85 -37 -85 -85s37 -85 85 -85zM310 -10c-162 0 -280 110 -280 260s118 260 280 260s280 -110 280 -260s-118 -260 -280 -260zM150 735h320v-130h-320v130z" glyph-name="omacron" horiz-adv-x="620" unicode="ō"/>
<glyph d="M310 140c65 0 115 48 115 110c0 12 -2 24 -5 34l-120 -144h10zM200 216l120 144h-10c-65 0 -115 -48 -115 -110c0 -12 2 -24 5 -34zM310 -10c-43 0 -82 8 -117 22l-10 -12h-162l69 83c-38 45 -60 102 -60 167c0 150 118 260 280 260c43 0 82 -8 117 -22l10 12h162 l-69 -83c38 -45 60 -102 60 -167c0 -150 -118 -260 -280 -260z" glyph-name="oslash" horiz-adv-x="620" unicode="ø"/>
<glyph d="M310 165c48 0 85 37 85 85s-37 85 -85 85s-85 -37 -85 -85s37 -85 85 -85zM310 -10c-162 0 -280 110 -280 260s118 260 280 260s280 -110 280 -260s-118 -260 -280 -260zM105 574c0 131 48 186 121 186c60 0 90 -42 113 -42c14 0 21 11 21 33h155 c0 -131 -48 -186 -121 -186c-60 0 -90 42 -113 42c-14 0 -21 -11 -21 -33h-155z" glyph-name="otilde" horiz-adv-x="620" unicode="õ"/>
<glyph d="M310 165c48 0 85 37 85 85s-37 85 -85 85s-85 -37 -85 -85s37 -85 85 -85zM576 302h178c-13 39 -46 60 -91 60c-39 0 -73 -22 -87 -60zM310 -10c-162 0 -280 110 -280 260s118 260 280 260c71 0 133 -23 180 -63c47 40 109 63 178 63c155 0 270 -106 270 -261 c0 -15 -1 -31 -4 -47h-360c12 -36 43 -63 94 -63c29 0 51 5 67 16h190c-13 -77 -102 -165 -258 -165c-73 0 -136 21 -182 59c-46 -37 -106 -59 -175 -59z" glyph-name="oe" horiz-adv-x="965" unicode="œ"/>
<glyph d="M340 165c48 0 85 37 85 85s-37 85 -85 85s-85 -37 -85 -85s37 -85 85 -85zM70 -200v700h173v-34c35 28 79 44 128 44c144 0 249 -110 249 -260s-105 -260 -249 -260c-41 0 -79 11 -111 32v-222h-190z" glyph-name="p" horiz-adv-x="650" unicode="p"/>
<glyph d="M340 165c48 0 85 37 85 85s-37 85 -85 85s-85 -37 -85 -85s37 -85 85 -85zM70 -200v910h190v-232c32 21 70 32 111 32c144 0 249 -110 249 -260s-105 -260 -249 -260c-41 0 -79 11 -111 32v-222h-190z" glyph-name="thorn" horiz-adv-x="650" unicode="þ"/>
<glyph d="M310 165c48 0 85 37 85 85s-37 85 -85 85s-85 -37 -85 -85s37 -85 85 -85zM580 -200h-190v222c-32 -21 -70 -32 -111 -32c-144 0 -249 110 -249 260s105 260 249 260c49 0 93 -16 128 -44v34h173v-700z" glyph-name="q" horiz-adv-x="650" unicode="q"/>
<glyph d="M70 0v500h173v-38c34 30 81 48 136 48c110 0 189 -70 189 -194v-41h-190v12c0 31 -26 44 -57 44c-38 0 -61 -26 -61 -62v-269h-190z" glyph-name="r" horiz-adv-x="553" unicode="r"/>
<glyph d="M70 0v500h173v-38c34 30 81 48 136 48c110 0 189 -70 189 -194v-41h-190v12c0 31 -26 44 -57 44c-38 0 -61 -26 -61 -62v-269h-190zM242 585l66 160h184l-67 -160h-183z" glyph-name="racute" horiz-adv-x="553" unicode="ŕ"/>
<glyph d="M70 0v500h173v-38c34 30 81 48 136 48c110 0 189 -70 189 -194v-41h-190v12c0 31 -26 44 -57 44c-38 0 -61 -26 -61 -62v-269h-190zM93 745h193l39 -56l39 56h193l-114 -160h-236z" glyph-name="rcaron" horiz-adv-x="553" unicode="ř"/>
<glyph d="M191 -245h-108c12 12 25 30 33 48c-42 7 -58 37 -58 65c0 35 44 71 106 71c61 0 111 -26 111 -77c0 -37 -38 -84 -84 -107zM70 0v500h173v-38c34 30 81 48 136 48c110 0 189 -70 189 -194v-41h-190v12c0 31 -26 44 -57 44c-38 0 -61 -26 -61 -62v-269h-190z" glyph-name="uni0157" horiz-adv-x="553" unicode="ŗ"/>
<glyph d="M297 -15c-145 0 -268 59 -280 192h194c3 -27 35 -51 88 -51c26 0 61 6 61 28c0 15 -18 17 -108 36c-113 24 -213 48 -216 165c0 118 131 160 251 160c127 0 252 -47 266 -187h-192c-11 30 -45 44 -88 44c-16 0 -49 -2 -49 -23s35 -24 116 -41c116 -24 213 -53 213 -153 c0 -106 -107 -170 -256 -170z" glyph-name="s" horiz-adv-x="578" unicode="s"/>
<glyph d="M297 -15c-145 0 -268 59 -280 192h194c3 -27 35 -51 88 -51c26 0 61 6 61 28c0 15 -18 17 -108 36c-113 24 -213 48 -216 165c0 118 131 160 251 160c127 0 252 -47 266 -187h-192c-11 30 -45 44 -88 44c-16 0 -49 -2 -49 -23s35 -24 116 -41c116 -24 213 -53 213 -153 c0 -106 -107 -170 -256 -170zM198 585l66 160h184l-67 -160h-183z" glyph-name="sacute" horiz-adv-x="578" unicode="ś"/>
<glyph d="M297 -15c-145 0 -268 59 -280 192h194c3 -27 35 -51 88 -51c26 0 61 6 61 28c0 15 -18 17 -108 36c-113 24 -213 48 -216 165c0 118 131 160 251 160c127 0 252 -47 266 -187h-192c-11 30 -45 44 -88 44c-16 0 -49 -2 -49 -23s35 -24 116 -41c116 -24 213 -53 213 -153 c0 -106 -107 -170 -256 -170zM49 745h193l39 -56l39 56h193l-114 -160h-236z" glyph-name="scaron" horiz-adv-x="578" unicode="š"/>
<glyph d="M396 -85l-66 -160h-184l67 160h183zM297 -15c-145 0 -268 59 -280 192h194c3 -27 35 -51 88 -51c26 0 61 6 61 28c0 15 -18 17 -108 36c-113 24 -213 48 -216 165c0 118 131 160 251 160c127 0 252 -47 266 -187h-192c-11 30 -45 44 -88 44c-16 0 -49 -2 -49 -23 s35 -24 116 -41c116 -24 213 -53 213 -153c0 -106 -107 -170 -256 -170z" glyph-name="scedilla" horiz-adv-x="578" unicode="ş"/>
<glyph d="M329 -245h-108c12 12 25 30 33 48c-42 7 -58 37 -58 65c0 35 44 71 106 71c61 0 111 -26 111 -77c0 -37 -38 -84 -84 -107zM297 -15c-145 0 -268 59 -280 192h194c3 -27 35 -51 88 -51c26 0 61 6 61 28c0 15 -18 17 -108 36c-113 24 -213 48 -216 165 c0 118 131 160 251 160c127 0 252 -47 266 -187h-192c-11 30 -45 44 -88 44c-16 0 -49 -2 -49 -23s35 -24 116 -41c116 -24 213 -53 213 -153c0 -106 -107 -170 -256 -170z" glyph-name="uni0219" horiz-adv-x="578" unicode="ș"/>
<glyph d="M115 -200v530h-85v170h85v26c0 116 105 214 283 214c165 0 288 -83 288 -216v-155c-43 3 -69 5 -97 5c-22 0 -68 -2 -68 -24c0 -18 33 -20 90 -33c114 -27 192 -68 192 -163c0 -105 -97 -169 -228 -169c-123 0 -206 56 -218 182h159c4 -24 24 -43 62 -43c21 0 48 6 48 28 c0 15 -12 19 -75 34c-103 24 -196 49 -196 164c0 99 81 143 149 158v12c0 34 -53 51 -105 51c-54 0 -110 -19 -110 -69c0 -29 16 -52 16 -145v-557h-190z" glyph-name="germandbls" horiz-adv-x="811" unicode="ß"/>
<glyph d="M319 -9c-141 0 -204 59 -204 169v170h-105v170h43c55 0 85 30 85 85v35h167v-120h150v-170h-150v-120c0 -33 15 -44 60 -44c22 0 51 1 90 4v-170c-42 -5 -97 -9 -136 -9z" glyph-name="t" horiz-adv-x="495" unicode="t"/>
<glyph d="M455 350h-150v-29h150v-124h-149c4 -23 21 -31 59 -31c22 0 51 1 90 4v-170c-42 -5 -97 -9 -136 -9c-141 0 -204 59 -204 169v37h-106v124h106v29h-105v150h43c55 0 85 30 85 85v35h167v-120h150v-150z" glyph-name="tbar" horiz-adv-x="495" unicode="ŧ"/>
<glyph d="M319 -9c-141 0 -204 59 -204 169v170h-105v170h43c55 0 85 30 85 85v35h167v-120h150v-170h-150v-120c0 -33 15 -44 60 -44c22 0 51 1 90 4v-170c-42 -5 -97 -9 -136 -9zM365 540v160h170l-10 -160h-160z" glyph-name="tcaron" horiz-adv-x="495" unicode="ť"/>
<glyph d="M410 -85l-66 -160h-184l67 160h183zM319 -9c-141 0 -204 59 -204 169v170h-105v170h43c55 0 85 30 85 85v35h167v-120h150v-170h-150v-120c0 -33 15 -44 60 -44c22 0 51 1 90 4v-170c-42 -5 -97 -9 -136 -9z" glyph-name="uni0163" horiz-adv-x="495" unicode="ţ"/>
<glyph d="M343 -245h-108c12 12 25 30 33 48c-42 7 -58 37 -58 65c0 35 44 71 106 71c61 0 111 -26 111 -77c0 -37 -38 -84 -84 -107zM319 -9c-141 0 -204 59 -204 169v170h-105v170h43c55 0 85 30 85 85v35h167v-120h150v-170h-150v-120c0 -33 15 -44 60 -44c22 0 51 1 90 4v-170 c-42 -5 -97 -9 -136 -9z" glyph-name="uni021B" horiz-adv-x="495" unicode="ț"/>
<glyph d="M279 -10c-130 0 -219 89 -219 217v293h192l1 -261c0 -42 31 -73 73 -73c43 0 74 31 74 73v261h190v-500h-173v37c-37 -30 -84 -47 -138 -47z" glyph-name="u" horiz-adv-x="660" unicode="u"/>
<glyph d="M279 -10c-130 0 -219 89 -219 217v293h192l1 -261c0 -42 31 -73 73 -73c43 0 74 31 74 73v261h190v-500h-173v37c-37 -30 -84 -47 -138 -47zM243 585l66 160h184l-67 -160h-183z" glyph-name="uacute" horiz-adv-x="660" unicode="ú"/>
<glyph d="M279 -10c-130 0 -219 89 -219 217v293h192l1 -261c0 -42 31 -73 73 -73c43 0 74 31 74 73v261h190v-500h-173v37c-37 -30 -84 -47 -138 -47zM558 585h-193l-39 56l-39 -56h-193l114 160h236z" glyph-name="ucircumflex" horiz-adv-x="660" unicode="û"/>
<glyph d="M400 500h190v-500h-173v37c-37 -30 -84 -47 -138 -47c-130 0 -219 89 -219 217v293h192l1 -261c0 -42 31 -73 73 -73c43 0 74 31 74 73v261zM239 545h-9l-104 200h400l-103 -200h-9l-88 169z" glyph-name="udieresis" horiz-adv-x="660" unicode="ü"/>
<glyph d="M279 -10c-130 0 -219 89 -219 217v293h192l1 -261c0 -42 31 -73 73 -73c43 0 74 31 74 73v261h190v-500h-173v37c-37 -30 -84 -47 -138 -47zM409 585h-183l-67 160h184z" glyph-name="ugrave" horiz-adv-x="660" unicode="ù"/>
<glyph d="M279 -10c-130 0 -219 89 -219 217v293h192l1 -261c0 -42 31 -73 73 -73c43 0 74 31 74 73v261h190v-500h-173v37c-37 -30 -84 -47 -138 -47zM343 585l60 160h165l-60 -160h-165zM139 585l60 160h165l-60 -160h-165z" glyph-name="uhungarumlaut" horiz-adv-x="660" unicode="ű"/>
<glyph d="M279 -10c-130 0 -219 89 -219 217v293h192l1 -261c0 -42 31 -73 73 -73c43 0 74 31 74 73v261h190v-500h-173v37c-37 -30 -84 -47 -138 -47zM166 735h320v-130h-320v130z" glyph-name="umacron" horiz-adv-x="660" unicode="ū"/>
<glyph d="M597 -85l-66 -160h-184l67 160h183zM279 -10c-130 0 -219 89 -219 217v293h192l1 -261c0 -42 31 -73 73 -73c43 0 74 31 74 73v261h190v-500h-173v37c-37 -30 -84 -47 -138 -47z" glyph-name="uogonek" horiz-adv-x="660" unicode="ų"/>
<glyph d="M279 -10c-130 0 -219 89 -219 217v293h192l1 -261c0 -42 31 -73 73 -73c43 0 74 31 74 73v261h190v-500h-173v37c-37 -30 -84 -47 -138 -47zM326 660c14 0 25 11 25 25s-11 25 -25 25s-25 -11 -25 -25s11 -25 25 -25zM326 540c-81 0 -145 65 -145 145s64 145 145 145 c80 0 145 -65 145 -145s-65 -145 -145 -145z" glyph-name="uring" horiz-adv-x="660" unicode="ů"/>
<glyph d="M185 0l-180 500h200l106 -336h12l106 336h196l-180 -500h-260z" glyph-name="v" horiz-adv-x="630" unicode="v"/>
<glyph d="M124 0l-104 500h188l58 -302l58 302h196l56 -294l57 294h187l-104 -500h-237l-59 301l-59 -301h-237z" glyph-name="w" horiz-adv-x="840" unicode="w"/>
<glyph d="M124 0l-104 500h188l58 -302l58 302h196l56 -294l57 294h187l-104 -500h-237l-59 301l-59 -301h-237zM337 585l66 160h184l-67 -160h-183z" glyph-name="wacute" horiz-adv-x="840" unicode="ẃ"/>
<glyph d="M124 0l-104 500h188l58 -302l58 302h196l56 -294l57 294h187l-104 -500h-237l-59 301l-59 -301h-237zM652 585h-193l-39 56l-39 -56h-193l114 160h236z" glyph-name="wcircumflex" horiz-adv-x="840" unicode="ŵ"/>
<glyph d="M633 500h187l-104 -500h-237l-59 301l-59 -301h-237l-104 500h188l58 -302l58 302h196l56 -294zM333 545h-9l-104 200h400l-103 -200h-9l-88 169z" glyph-name="wdieresis" horiz-adv-x="840" unicode="ẅ"/>
<glyph d="M124 0l-104 500h188l58 -302l58 302h196l56 -294l57 294h187l-104 -500h-237l-59 301l-59 -301h-237zM503 585h-183l-67 160h184z" glyph-name="wgrave" horiz-adv-x="840" unicode="ẁ"/>
<glyph d="M0 0l183 255l-175 245h220l85 -122l84 122h215l-176 -243l184 -257h-220l-93 140l-95 -140h-212z" glyph-name="x" horiz-adv-x="620" unicode="x"/>
<glyph d="M230 -210c-103 0 -219 59 -219 221v25h179v-41c0 -32 22 -47 40 -47c21 0 34 14 34 32v1c0 13 -3 22 -10 35l-249 484h211l119 -257l92 257h197l-173 -421c-7 -18 -9 -27 -9 -54v-40c0 -126 -100 -195 -212 -195z" glyph-name="y" horiz-adv-x="629" unicode="y"/>
<glyph d="M230 -210c-103 0 -219 59 -219 221v25h179v-41c0 -32 22 -47 40 -47c21 0 34 14 34 32v1c0 13 -3 22 -10 35l-249 484h211l119 -257l92 257h197l-173 -421c-7 -18 -9 -27 -9 -54v-40c0 -126 -100 -195 -212 -195zM234 585l66 160h184l-67 -160h-183z" glyph-name="yacute" horiz-adv-x="629" unicode="ý"/>
<glyph d="M230 -210c-103 0 -219 59 -219 221v25h179v-41c0 -32 22 -47 40 -47c21 0 34 14 34 32v1c0 13 -3 22 -10 35l-249 484h211l119 -257l92 257h197l-173 -421c-7 -18 -9 -27 -9 -54v-40c0 -126 -100 -195 -212 -195zM549 585h-193l-39 56l-39 -56h-193l114 160h236z" glyph-name="ycircumflex" horiz-adv-x="629" unicode="ŷ"/>
<glyph d="M427 500h197l-173 -421c-7 -18 -9 -27 -9 -54v-40c0 -126 -100 -195 -212 -195c-103 0 -219 59 -219 221v25h179v-41c0 -32 22 -47 40 -47c21 0 34 14 34 32v1c0 13 -3 22 -10 35l-249 484h211l119 -257zM230 545h-9l-104 200h400l-103 -200h-9l-88 169z" glyph-name="ydieresis" horiz-adv-x="629" unicode="ÿ"/>
<glyph d="M230 -210c-103 0 -219 59 -219 221v25h179v-41c0 -32 22 -47 40 -47c21 0 34 14 34 32v1c0 13 -3 22 -10 35l-249 484h211l119 -257l92 257h197l-173 -421c-7 -18 -9 -27 -9 -54v-40c0 -126 -100 -195 -212 -195zM400 585h-183l-67 160h184z" glyph-name="ygrave" horiz-adv-x="629" unicode="ỳ"/>
<glyph d="M45 0v145l221 185h-211v170h460v-145l-220 -185h220v-170h-470z" glyph-name="z" horiz-adv-x="560" unicode="z"/>
<glyph d="M45 0v145l221 185h-211v170h460v-145l-220 -185h220v-170h-470zM217 585l66 160h184l-67 -160h-183z" glyph-name="zacute" horiz-adv-x="560" unicode="ź"/>
<glyph d="M45 0v145l221 185h-211v170h460v-145l-220 -185h220v-170h-470zM68 745h193l39 -56l39 56h193l-114 -160h-236z" glyph-name="zcaron" horiz-adv-x="560" unicode="ž"/>
<glyph d="M45 0v145l221 185h-211v170h460v-145l-220 -185h220v-170h-470zM295 545l-115 200h240l-115 -200h-10z" glyph-name="zdotaccent" horiz-adv-x="560" unicode="ż"/>
<glyph d="M347 -69c65 0 103 16 103 44c0 29 -38 46 -103 46s-103 -16 -103 -46c0 -28 38 -44 103 -44zM359 290c60 0 94 17 94 46c0 31 -34 48 -94 48s-94 -17 -94 -48c0 -29 34 -46 94 -46zM344 -210c-193 0 -298 55 -298 155c0 44 24 78 64 98c-77 20 -110 74 -110 127 c0 33 19 83 84 101l4 1c-11 18 -17 40 -17 65c0 88 75 173 279 173c226 0 299 -85 299 -173c0 -106 -112 -166 -290 -166c-115 0 -128 20 -161 20c-14 0 -22 -9 -22 -21c0 -27 37 -36 184 -36c190 0 289 -65 289 -170c0 -108 -116 -174 -305 -174z" glyph-name="g.alt" horiz-adv-x="659"/>
<glyph d="M115 0v330h-85v170h85v42c0 116 82 198 224 198c118 0 207 -68 207 -200h-178v11c0 25 -18 38 -35 38c-22 0 -44 -13 -44 -48c0 -14 3 -27 6 -41h300v-170h-290v-330h-190z" glyph-name="f.long" horiz-adv-x="505"/>
<glyph d="M70 0v500h800v-500h-190v330h-115v-330h-190v330h-115v-330h-190z" glyph-name="m.ss03" horiz-adv-x="940"/>
<glyph d="M70 0v500h520v-500h-190v324h-140v-324h-190z" glyph-name="n.ss03" horiz-adv-x="660"/>
<glyph d="M70 0v500h520v-500h-190v324h-140v-324h-190zM247 585l66 160h184l-67 -160h-183z" glyph-name="nacute.ss03" horiz-adv-x="660"/>
<glyph d="M70 0v500h520v-500h-190v324h-140v-324h-190zM98 745h193l39 -56l39 56h193l-114 -160h-236z" glyph-name="ncaron.ss03" horiz-adv-x="660"/>
<glyph d="M356 -245h-108c12 12 25 30 33 48c-42 7 -58 37 -58 65c0 35 44 71 106 71c61 0 111 -26 111 -77c0 -37 -38 -84 -84 -107zM70 0v500h520v-500h-190v324h-140v-324h-190z" glyph-name="uni0146.ss03" horiz-adv-x="660"/>
<glyph d="M363 -210c-127 0 -224 74 -224 170h178v-1c0 -17 24 -30 47 -30c26 0 52 14 52 52c0 31 -16 56 -16 108v235h-140v-324h-190v500h520v-467c0 -172 -83 -243 -227 -243z" glyph-name="eng.ss03" horiz-adv-x="660"/>
<glyph d="M70 0v500h520v-500h-190v324h-140v-324h-190zM125 574c0 131 48 186 121 186c60 0 90 -42 113 -42c14 0 21 11 21 33h155c0 -131 -48 -186 -121 -186c-60 0 -90 42 -113 42c-14 0 -21 -11 -21 -33h-155z" glyph-name="ntilde.ss03" horiz-adv-x="660"/>
<glyph d="M70 0v500h420v-180h-230v-320h-190z" glyph-name="r.ss03" horiz-adv-x="515"/>
<glyph d="M70 0v500h420v-180h-230v-320h-190zM203 585l66 160h184l-67 -160h-183z" glyph-name="racute.ss03" horiz-adv-x="515"/>
<glyph d="M70 0v500h420v-180h-230v-320h-190zM54 745h193l39 -56l39 56h193l-114 -160h-236z" glyph-name="rcaron.ss03" horiz-adv-x="515"/>
<glyph d="M191 -245h-108c12 12 25 30 33 48c-42 7 -58 37 -58 65c0 35 44 71 106 71c61 0 111 -26 111 -77c0 -37 -38 -84 -84 -107zM70 0v500h420v-180h-230v-320h-190z" glyph-name="uni0157.ss03" horiz-adv-x="515"/>
<glyph d="M45 0v170h220l-210 185v145h450v-170h-201l211 -185v-145h-470z" glyph-name="s.ss03" horiz-adv-x="560"/>
<glyph d="M45 0v170h220l-210 185v145h450v-170h-201l211 -185v-145h-470zM195 585l66 160h184l-67 -160h-183z" glyph-name="sacute.ss03" horiz-adv-x="560"/>
<glyph d="M45 0v170h220l-210 185v145h450v-170h-201l211 -185v-145h-470zM46 745h193l39 -56l39 56h193l-114 -160h-236z" glyph-name="scaron.ss03" horiz-adv-x="560"/>
<glyph d="M371 -85l-66 -160h-184l67 160h183zM45 0v170h220l-210 185v145h450v-170h-201l211 -185v-145h-470z" glyph-name="scedilla.ss03" horiz-adv-x="560"/>
<glyph d="M304 -245h-108c12 12 25 30 33 48c-42 7 -58 37 -58 65c0 35 44 71 106 71c61 0 111 -26 111 -77c0 -37 -38 -84 -84 -107zM45 0v170h220l-210 185v145h450v-170h-201l211 -185v-145h-470z" glyph-name="uni0219.ss03" horiz-adv-x="560"/>
<glyph d="M115 -200v530h-85v170h85v26c0 116 112 214 303 214c176 0 308 -83 308 -216v-184h-120l190 -195v-145h-440v170h200l-190 185v145h178v20c0 34 -63 51 -125 51c-64 0 -130 -19 -130 -69c0 -29 16 -52 16 -145v-557h-190z" glyph-name="germandbls.ss03" horiz-adv-x="818"/>
<glyph d="M590 500v-500h-520v500h190v-324h140v324h190z" glyph-name="u.ss03" horiz-adv-x="660"/>
<glyph d="M590 500v-500h-520v500h190v-324h140v324h190zM247 585l66 160h184l-67 -160h-183z" glyph-name="uacute.ss03" horiz-adv-x="660"/>
<glyph d="M590 500v-500h-520v500h190v-324h140v324h190zM562 585h-193l-39 56l-39 -56h-193l114 160h236z" glyph-name="ucircumflex.ss03" horiz-adv-x="660"/>
<glyph d="M400 500h190v-500h-520v500h190v-324h140v324zM243 545h-9l-104 200h400l-103 -200h-9l-88 169z" glyph-name="udieresis.ss03" horiz-adv-x="660"/>
<glyph d="M590 500v-500h-520v500h190v-324h140v324h190zM413 585h-183l-67 160h184z" glyph-name="ugrave.ss03" horiz-adv-x="660"/>
<glyph d="M590 500v-500h-520v500h190v-324h140v324h190zM347 585l60 160h165l-60 -160h-165zM143 585l60 160h165l-60 -160h-165z" glyph-name="uhungarumlaut.ss03" horiz-adv-x="660"/>
<glyph d="M590 500v-500h-520v500h190v-324h140v324h190zM170 735h320v-130h-320v130z" glyph-name="umacron.ss03" horiz-adv-x="660"/>
<glyph d="M597 -85l-66 -160h-184l67 160h183zM590 500v-500h-520v500h190v-324h140v324h190z" glyph-name="uogonek.ss03" horiz-adv-x="660"/>
<glyph d="M590 500v-500h-520v500h190v-324h140v324h190zM330 660c14 0 25 11 25 25s-11 25 -25 25s-25 -11 -25 -25s11 -25 25 -25zM330 540c-81 0 -145 65 -145 145s64 145 145 145c80 0 145 -65 145 -145s-65 -145 -145 -145z" glyph-name="uring.ss03" horiz-adv-x="660"/>
<glyph d="M70 0v500h190v-330h115v330h190v-330h115v330h190v-500h-800z" glyph-name="w.ss03" horiz-adv-x="940"/>
<glyph d="M70 0v500h190v-330h115v330h190v-330h115v330h190v-500h-800zM387 585l66 160h184l-67 -160h-183z" glyph-name="wacute.ss03" horiz-adv-x="940"/>
<glyph d="M70 0v500h190v-330h115v330h190v-330h115v330h190v-500h-800zM702 585h-193l-39 56l-39 -56h-193l114 160h236z" glyph-name="wcircumflex.ss03" horiz-adv-x="940"/>
<glyph d="M680 500h190v-500h-800v500h190v-330h115v330h190v-330h115v330zM383 545h-9l-104 200h400l-103 -200h-9l-88 169z" glyph-name="wdieresis.ss03" horiz-adv-x="940"/>
<glyph d="M70 0v500h190v-330h115v330h190v-330h115v330h190v-500h-800zM553 585h-183l-67 160h184z" glyph-name="wgrave.ss03" horiz-adv-x="940"/>
<glyph d="M220 -200v200l-215 500h200l112 -316l112 316h196l-215 -500v-200h-190z" glyph-name="y.ss04" horiz-adv-x="630"/>
<glyph d="M220 -200v200l-215 500h200l112 -316l112 316h196l-215 -500v-200h-190zM232 585l66 160h184l-67 -160h-183z" glyph-name="yacute.ss04" horiz-adv-x="630"/>
<glyph d="M220 -200v200l-215 500h200l112 -316l112 316h196l-215 -500v-200h-190zM547 585h-193l-39 56l-39 -56h-193l114 160h236z" glyph-name="ycircumflex.ss04" horiz-adv-x="630"/>
<glyph d="M429 500h196l-215 -500v-200h-190v200l-215 500h200l112 -316zM228 545h-9l-104 200h400l-103 -200h-9l-88 169z" glyph-name="ydieresis.ss04" horiz-adv-x="630"/>
<glyph d="M220 -200v200l-215 500h200l112 -316l112 316h196l-215 -500v-200h-190zM398 585h-183l-67 160h184z" glyph-name="ygrave.ss04" horiz-adv-x="630"/>
<glyph d="M334 286h147l-68 224h-11zM20 0l248 700h284l248 -700h-232l-34 111h-253l-33 -111h-228z" glyph-name="uni0410" unicode="А"/>
<glyph d="M290 174h139c32 0 54 21 54 50s-22 50 -54 50h-139v-100zM80 0v700h568v-190h-358v-72h157c158 0 256 -83 256 -219s-98 -219 -256 -219h-367z" glyph-name="uni0411" horiz-adv-x="733" unicode="Б"/>
<glyph d="M288 176h160c29 0 50 19 50 46s-21 46 -50 46h-160v-92zM288 436h145c28 0 48 19 48 44s-20 44 -48 44h-145v-88zM80 0v700h369c154 0 249 -74 249 -195c0 -59 -22 -106 -63 -140v-6c52 -36 83 -91 83 -156c0 -121 -102 -203 -249 -203h-389z" glyph-name="uni0412" horiz-adv-x="753" unicode="В"/>
<glyph d="M80 0v700h540v-212h-320v-488h-220z" glyph-name="uni0413" horiz-adv-x="645" unicode="Г"/>
<glyph d="M410 825h210v-337h-320v-488h-220v700h330v125z" glyph-name="uni0490" horiz-adv-x="645" unicode="Ґ"/>
<glyph d="M318 196h201v308h-175c-2 -127 -10 -216 -26 -308zM20 -135v345h87c15 93 22 187 22 343v32v115h606v-490h100v-345h-210v135h-395v-135h-210z" glyph-name="uni0414" horiz-adv-x="860" unicode="Д"/>
<glyph d="M80 0v700h531v-190h-316v-73h205v-174h-205v-73h336v-190h-551z" glyph-name="uni0415" horiz-adv-x="690" unicode="Е"/>
<glyph d="M295 190h336v-190h-551v700h531v-190h-316v-73h205v-174h-205v-73zM254 745h-9l-104 200h400l-103 -200h-9l-88 169z" glyph-name="uni0401" horiz-adv-x="690" unicode="Ё"/>
<glyph d="M9 0l212 368l-191 332h234l140 -244h84v244h220v-244h84l140 244h234l-191 -332l212 -368h-256l-140 244h-83v-244h-220v244h-83l-140 -244h-256z" glyph-name="uni0416" horiz-adv-x="1196" unicode="Ж"/>
<glyph d="M393 -15c-180 0 -353 95 -362 310h214c9 -77 59 -123 146 -123c59 0 98 21 98 55c0 29 -27 46 -73 46h-97v157h97c32 0 53 17 53 42c0 32 -37 51 -90 51c-67 0 -118 -31 -131 -86h-214c31 199 192 278 352 278s304 -79 304 -220c0 -57 -23 -102 -63 -133 c53 -33 85 -82 85 -146c0 -146 -143 -231 -319 -231z" glyph-name="uni0417" horiz-adv-x="751" unicode="З"/>
<glyph d="M80 0v700h215v-370l235 370h230v-700h-215v370l-235 -370h-230z" glyph-name="uni0418" horiz-adv-x="840" unicode="И"/>
<glyph d="M80 0v700h215v-370l235 370h230v-700h-215v370l-235 -370h-230zM420 741c-129 0 -213 85 -213 195v9h154v-7c0 -34 25 -61 59 -61s59 27 59 61v7h154v-9c0 -110 -84 -195 -213 -195z" glyph-name="uni0419" horiz-adv-x="840" unicode="Й"/>
<glyph d="M80 0v700h218v-244h83l149 244h238l-202 -332l224 -368h-261l-149 244h-82v-244h-218z" glyph-name="uni041A" horiz-adv-x="799" unicode="К"/>
<glyph d="M127 -15c-54 0 -93 11 -107 15v210h73c14 0 24 6 31 31c17 56 19 206 19 348v111h599v-700h-220v488h-168c-4 -162 -17 -349 -59 -420c-32 -55 -89 -83 -168 -83z" glyph-name="uni041B" horiz-adv-x="822" unicode="Л"/>
<glyph d="M80 0v700h368l95 -426l95 426h364v-700h-214v527l-122 -527h-250l-122 527v-527h-214z" glyph-name="uni041C" horiz-adv-x="1082" unicode="М"/>
<glyph d="M80 0v700h220v-244h220v244h220v-700h-220v244h-220v-244h-220z" glyph-name="uni041D" unicode="Н"/>
<glyph d="M410 200c83 0 145 64 145 150s-62 150 -145 150s-145 -64 -145 -150s62 -150 145 -150zM410 -15c-212 0 -370 156 -370 365s158 365 370 365s370 -156 370 -365s-158 -365 -370 -365z" glyph-name="uni041E" unicode="О"/>
<glyph d="M80 0v700h660v-700h-220v488h-220v-488h-220z" glyph-name="uni041F" unicode="П"/>
<glyph d="M296 390h109c38 0 65 25 65 60s-27 60 -65 60h-109v-120zM80 0v700h323c178 0 287 -91 287 -240s-109 -240 -287 -240h-107v-220h-216z" glyph-name="uni0420" horiz-adv-x="720" unicode="Р"/>
<glyph d="M403 -15c-210 0 -363 154 -363 365s153 365 363 365c188 0 336 -134 345 -310h-222c-16 57 -64 95 -125 95c-79 0 -136 -63 -136 -150s57 -150 136 -150c61 0 109 38 125 95h222c-9 -176 -157 -310 -345 -310z" glyph-name="uni0421" horiz-adv-x="777" unicode="С"/>
<glyph d="M265 0v488h-235v212h690v-212h-235v-488h-220z" glyph-name="uni0422" horiz-adv-x="750" unicode="Т"/>
<glyph d="M319 -15c-157 0 -267 101 -267 243v41h220v-45c0 -31 18 -49 44 -49c22 0 33 12 33 29c0 11 -4 23 -13 35l-317 461h268l176 -293l73 293h230l-162 -482c-54 -160 -142 -233 -285 -233z" glyph-name="uni0423" horiz-adv-x="786" unicode="У"/>
<glyph d="M319 -15c-157 0 -267 101 -267 243v41h220v-45c0 -31 18 -49 44 -49c22 0 33 12 33 29c0 11 -4 23 -13 35l-317 461h268l176 -293l73 293h230l-162 -482c-54 -160 -142 -233 -285 -233zM400 741c-129 0 -213 85 -213 195v9h154v-7c0 -34 25 -61 59 -61s59 27 59 61v7h154 v-9c0 -110 -84 -195 -213 -195z" glyph-name="uni040E" horiz-adv-x="786" unicode="Ў"/>
<glyph d="M640 267h69c64 0 96 32 96 88s-32 88 -96 88h-69v-176zM351 267h69v176h-69c-64 0 -96 -32 -96 -88s32 -88 96 -88zM420 0v77h-71c-194 0 -319 110 -319 278s125 278 319 278h71v77h220v-77h71c194 0 319 -110 319 -278s-125 -278 -319 -278h-71v-77h-220z" glyph-name="uni0424" horiz-adv-x="1060" unicode="Ф"/>
<glyph d="M10 0l227 362l-217 338h255l123 -204l123 204h248l-218 -337l229 -363h-257l-130 216l-133 -216h-250z" glyph-name="uni0425" horiz-adv-x="790" unicode="Х"/>
<glyph d="M480 0v221h-140c-174 0 -280 91 -280 240v239h220v-217c0 -35 25 -60 60 -60h140v277h220v-700h-220z" glyph-name="uni0427" horiz-adv-x="780" unicode="Ч"/>
<glyph d="M615 -135v135h-535v700h220v-490h220v490h220v-490h85v-345h-210z" glyph-name="uni0426" horiz-adv-x="850" unicode="Ц"/>
<glyph d="M80 0v700h220v-490h170v490h220v-490h170v490h220v-700h-1000z" glyph-name="uni0428" horiz-adv-x="1160" unicode="Ш"/>
<glyph d="M960 -135v135h-880v700h220v-490h170v490h220v-490h170v490h220v-490h90v-345h-210z" glyph-name="uni0429" horiz-adv-x="1195" unicode="Щ"/>
<glyph d="M296 190h109c38 0 65 25 65 60s-27 60 -65 60h-109v-120zM80 0v700h216v-220h113c174 0 281 -91 281 -240s-107 -240 -281 -240h-329z" glyph-name="uni042C" horiz-adv-x="720" unicode="Ь"/>
<glyph d="M525 190c38 0 65 25 65 60s-27 60 -65 60h-109v-120h109zM529 480c174 0 281 -91 281 -240s-107 -240 -281 -240h-329v488h-170v212h386v-220h113z" glyph-name="uni042A" horiz-adv-x="840" unicode="Ъ"/>
<glyph d="M296 190h109c38 0 65 25 65 60s-27 60 -65 60h-109v-120zM780 0v700h220v-700h-220zM80 0v700h216v-220h113c174 0 281 -91 281 -240s-107 -240 -281 -240h-329z" glyph-name="uni042B" horiz-adv-x="1080" unicode="Ы"/>
<glyph d="M404 -15c-208 0 -364 156 -364 365s156 365 364 365c190 0 336 -132 345 -310h-222c-15 65 -65 110 -132 110c-59 0 -110 -33 -132 -85h200v-160h-200c22 -52 73 -85 132 -85c67 0 117 45 132 110h222c-9 -178 -155 -310 -345 -310z" glyph-name="uni0404" horiz-adv-x="778" unicode="Є"/>
<glyph d="M376 -15c-190 0 -336 132 -345 310h215c15 -64 65 -108 132 -108c56 0 105 32 127 83h-188v160h188c-22 51 -71 83 -127 83c-67 0 -117 -44 -132 -108h-215c9 178 155 310 345 310c208 0 364 -156 364 -365s-156 -365 -364 -365z" glyph-name="uni042D" horiz-adv-x="780" unicode="Э"/>
<glyph d="M80 0v700h220v-700h-220z" glyph-name="uni0406" horiz-adv-x="380" unicode="І"/>
<glyph d="M80 0v700h220v-700h-220zM103 745h-9l-104 200h400l-103 -200h-9l-88 169z" glyph-name="uni0407" horiz-adv-x="380" unicode="Ї"/>
<glyph d="M750 200c80 0 140 64 140 150s-60 150 -140 150s-140 -64 -140 -150s60 -150 140 -150zM750 -15c-172 0 -308 105 -351 259h-99v-244h-220v700h220v-244h99c43 154 179 259 351 259c209 0 365 -156 365 -365s-156 -365 -365 -365z" glyph-name="uni042E" horiz-adv-x="1155" unicode="Ю"/>
<glyph d="M338 396h141v110h-141c-36 0 -62 -23 -62 -55s26 -55 62 -55zM10 0l170 257c-79 39 -124 110 -124 205c0 148 110 238 288 238h351v-700h-216v224h-79l-148 -224h-242z" glyph-name="uni042F" horiz-adv-x="775" unicode="Я"/>
<glyph d="M80 0v700h230l245 -385v385h205v-700h-230l-245 385v-385h-205z" glyph-name="uni041D.ss02" horiz-adv-x="840"/>
<glyph d="M472 -145v145h-422v180l320 320h-310v200h598v-180l-320 -320h344v-345h-210z" glyph-name="uni0417.ss03" horiz-adv-x="723"/>
<glyph d="M50 0v180l125 176l-115 164v180h583v-200h-337l107 -150l-106 -150h346v-200h-603z" glyph-name="uni0421.ss03" horiz-adv-x="712"/>
<glyph d="M80 0v700h1000v-700h-220v490h-170v-490h-220v490h-170v-490h-220z" glyph-name="uni0422.ss03" horiz-adv-x="1160"/>
<glyph d="M288 0v233l-283 467h256l145 -262l139 262h246l-283 -467v-233h-220z" glyph-name="uni0423.ss04" horiz-adv-x="796"/>
<glyph d="M288 0v233l-283 467h256l145 -262l139 262h246l-283 -467v-233h-220zM398 741c-129 0 -213 85 -213 195v9h154v-7c0 -34 25 -61 59 -61s59 27 59 61v7h154v-9c0 -110 -84 -195 -213 -195z" glyph-name="uni040E.ss04" horiz-adv-x="796"/>
<glyph d="M249 132c53 0 104 42 104 84v5c-12 -7 -44 -17 -71 -20c-53 -5 -67 -22 -67 -44c0 -16 12 -25 34 -25zM195 -10c-108 0 -173 54 -173 141c0 101 83 154 243 164c57 4 79 14 79 34c0 19 -20 30 -55 30c-33 0 -56 -13 -64 -37h-177c15 114 114 188 252 188 s226 -81 226 -206v-139h48v-165h-206v43c-46 -34 -108 -53 -173 -53z" glyph-name="uni0430" horiz-adv-x="604" unicode="а"/>
<glyph d="M326 149c52 0 90 33 90 78s-38 78 -90 78s-90 -33 -90 -78s38 -78 90 -78zM338 -10c-166 0 -298 92 -298 303v72c0 193 123 301 273 301h75v44h170v-210h-258c-59 0 -93 -25 -93 -80v-29c46 45 103 65 167 65c137 0 237 -96 237 -222c0 -141 -116 -244 -273 -244z" glyph-name="uni0431" horiz-adv-x="646" unicode="б"/>
<glyph d="M250 132h100c23 0 39 14 39 33s-16 33 -39 33h-100v-66zM250 306h89c21 0 37 13 37 31c0 19 -16 33 -37 33h-89v-64zM70 0v500h315c110 0 179 -50 179 -132c0 -45 -21 -81 -57 -104v-4c46 -24 72 -64 72 -117c0 -89 -74 -143 -196 -143h-313z" glyph-name="uni0432" horiz-adv-x="614" unicode="в"/>
<glyph d="M70 0v500h420v-180h-230v-320h-190z" glyph-name="uni0433" horiz-adv-x="515" unicode="г"/>
<glyph d="M70 -200v700h238v100h182v-280h-230v-520h-190z" glyph-name="uni0491" horiz-adv-x="515" unicode="ґ"/>
<glyph d="M256 162h132v176h-118c-1 -69 -6 -123 -14 -176zM15 -100v270h66c8 60 12 125 12 225v49v56h483v-330h78v-270h-182v100h-275v-100h-182z" glyph-name="uni0434" horiz-adv-x="674" unicode="д"/>
<glyph d="M393 302c-13 39 -46 60 -91 60c-39 0 -73 -22 -87 -60h178zM306 -10c-164 0 -276 98 -276 254c0 160 122 266 277 266s270 -106 270 -261c0 -15 -1 -31 -4 -47h-360c12 -36 43 -63 94 -63c29 0 51 5 67 16h190c-13 -77 -102 -165 -258 -165z" glyph-name="uni0435" horiz-adv-x="604" unicode="е"/>
<glyph d="M215 302h178c-13 39 -46 60 -91 60c-39 0 -73 -22 -87 -60zM577 249c0 -15 -1 -31 -4 -47h-360c12 -36 43 -63 94 -63c29 0 51 5 67 16h190c-13 -77 -102 -165 -258 -165c-164 0 -276 98 -276 254c0 160 122 266 277 266s270 -106 270 -261zM213 545h-9l-104 200h400 l-103 -200h-9l-88 169z" glyph-name="uni0451" horiz-adv-x="604" unicode="ё"/>
<glyph d="M6 0l155 259l-146 241h201l95 -163h47v373h190v-373h47l95 163h201l-146 -241l155 -259h-217l-94 163h-41v-163h-190v163h-41l-94 -163h-217z" glyph-name="uni0436" horiz-adv-x="906" unicode="ж"/>
<glyph d="M304 -15c-136 0 -266 66 -284 225h184c11 -46 45 -76 106 -76c44 0 66 15 66 35c0 19 -22 28 -54 28h-71v107h70c27 0 47 10 47 27c0 20 -27 34 -67 34c-53 0 -86 -28 -97 -75h-181c8 124 111 225 281 225c174 0 252 -78 252 -161c0 -36 -17 -70 -53 -94 c48 -24 69 -63 69 -107c0 -108 -115 -168 -268 -168z" glyph-name="uni0437" horiz-adv-x="602" unicode="з"/>
<glyph d="M70 0v500h186v-237l159 237h193v-500h-186v237l-159 -237h-193z" glyph-name="uni0438" horiz-adv-x="678" unicode="и"/>
<glyph d="M70 0v500h186v-237l159 237h193v-500h-186v237l-159 -237h-193zM344 541c-129 0 -213 85 -213 195v9h154v-7c0 -34 25 -61 59 -61s59 27 59 61v7h154v-9c0 -110 -84 -195 -213 -195z" glyph-name="uni0439" horiz-adv-x="678" unicode="й"/>
<glyph d="M70 0v710h190v-373h43l107 163h199l-157 -235l173 -265h-220l-105 163h-40v-163h-190z" glyph-name="uni043A" horiz-adv-x="633" unicode="к"/>
<glyph d="M108 -12c-44 0 -80 9 -92 12v170h53c11 0 19 4 25 21c13 37 15 136 15 230v79h475v-500h-190v324h-110c-4 -121 -11 -225 -42 -275c-25 -41 -71 -61 -134 -61z" glyph-name="uni043B" horiz-adv-x="654" unicode="л"/>
<glyph d="M70 0v500h301l64 -280l64 280h297v-500h-185v319l-83 -319h-189l-84 321v-321h-185z" glyph-name="uni043C" horiz-adv-x="866" unicode="м"/>
<glyph d="M70 0v500h190v-163h140v163h190v-500h-190v163h-140v-163h-190z" glyph-name="uni043D" horiz-adv-x="660" unicode="н"/>
<glyph d="M310 165c48 0 85 37 85 85s-37 85 -85 85s-85 -37 -85 -85s37 -85 85 -85zM310 -10c-162 0 -280 110 -280 260s118 260 280 260s280 -110 280 -260s-118 -260 -280 -260z" glyph-name="uni043E" horiz-adv-x="620" unicode="о"/>
<glyph d="M70 0v500h520v-500h-190v324h-140v-324h-190z" glyph-name="uni043F" horiz-adv-x="660" unicode="п"/>
<glyph d="M340 165c48 0 85 37 85 85s-37 85 -85 85s-85 -37 -85 -85s37 -85 85 -85zM70 -200v700h173v-34c35 28 79 44 128 44c144 0 249 -110 249 -260s-105 -260 -249 -260c-41 0 -79 11 -111 32v-222h-190z" glyph-name="uni0440" horiz-adv-x="650" unicode="р"/>
<glyph d="M306 -10c-160 0 -276 110 -276 260s116 260 276 260c143 0 251 -100 259 -220h-188c-10 26 -38 49 -71 49c-51 0 -86 -38 -86 -89s35 -89 86 -89c33 0 61 23 71 49h188c-8 -120 -116 -220 -259 -220z" glyph-name="uni0441" horiz-adv-x="595" unicode="с"/>
<glyph d="M200 0v320h-175v180h540v-180h-175v-320h-190z" glyph-name="uni0442" horiz-adv-x="590" unicode="т"/>
<glyph d="M230 -210c-103 0 -219 59 -219 221v25h179v-41c0 -32 22 -47 40 -47c21 0 34 14 34 32v1c0 13 -3 22 -10 35l-249 484h211l119 -257l92 257h197l-173 -421c-7 -18 -9 -27 -9 -54v-40c0 -126 -100 -195 -212 -195z" glyph-name="uni0443" horiz-adv-x="629" unicode="у"/>
<glyph d="M230 -210c-103 0 -219 59 -219 221v25h179v-41c0 -32 22 -47 40 -47c21 0 34 14 34 32v1c0 13 -3 22 -10 35l-249 484h211l119 -257l92 257h197l-173 -421c-7 -18 -9 -27 -9 -54v-40c0 -126 -100 -195 -212 -195zM317 541c-129 0 -213 85 -213 195v9h154v-7 c0 -34 25 -61 59 -61s59 27 59 61v7h154v-9c0 -110 -84 -195 -213 -195z" glyph-name="uni045E" horiz-adv-x="629" unicode="ў"/>
<glyph d="M628 165c43 0 77 37 77 85s-34 85 -77 85s-77 -37 -77 -85s34 -85 77 -85zM302 165c43 0 77 37 77 85s-34 85 -77 85s-77 -37 -77 -85s34 -85 77 -85zM370 -200v221c-30 -20 -65 -31 -105 -31c-136 0 -235 110 -235 260s99 260 235 260c40 0 75 -11 105 -31v231h190v-231 c30 20 65 31 105 31c136 0 235 -110 235 -260s-99 -260 -235 -260c-40 0 -75 11 -105 31v-221h-190z" glyph-name="uni0444" horiz-adv-x="930" unicode="ф"/>
<glyph d="M0 0l183 255l-175 245h220l85 -122l84 122h215l-176 -243l184 -257h-220l-93 140l-95 -140h-212z" glyph-name="uni0445" horiz-adv-x="620" unicode="х"/>
<glyph d="M350 0v138h-94c-137 0 -221 65 -221 171v191h190v-147c0 -25 19 -43 47 -43h78v190h190v-500h-190z" glyph-name="uni0447" horiz-adv-x="610" unicode="ч"/>
<glyph d="M486 -100v100h-416v500h190v-330h140v330h190v-330h78v-270h-182z" glyph-name="uni0446" horiz-adv-x="688" unicode="ц"/>
<glyph d="M70 0v500h190v-330h115v330h190v-330h115v330h190v-500h-800z" glyph-name="uni0448" horiz-adv-x="940" unicode="ш"/>
<glyph d="M756 -100v100h-696v500h190v-330h115v330h190v-330h115v330h190v-330h78v-270h-182z" glyph-name="uni0449" horiz-adv-x="958" unicode="щ"/>
<glyph d="M259 136h62c26 0 45 16 45 38s-19 37 -45 37h-62v-75zM70 0v500h187l1 -157h80c137 0 222 -65 222 -172c0 -106 -85 -171 -222 -171h-268z" glyph-name="uni044C" horiz-adv-x="585" unicode="ь"/>
<glyph d="M421 136c26 0 45 16 45 38s-19 37 -45 37h-62v-75h62zM438 343c137 0 222 -65 222 -172c0 -106 -85 -171 -222 -171h-268v326h-150v174h337l1 -157h80z" glyph-name="uni044A" horiz-adv-x="685" unicode="ъ"/>
<glyph d="M259 136h62c26 0 45 16 45 38s-19 37 -45 37h-62v-75zM616 0v500h190v-500h-190zM70 0v500h187l1 -157h80c137 0 222 -65 222 -172c0 -106 -85 -171 -222 -171h-268z" glyph-name="uni044B" horiz-adv-x="876" unicode="ы"/>
<glyph d="M309 -10c-161 0 -279 107 -279 260s118 260 279 260c142 0 260 -103 270 -220h-183c-10 33 -43 63 -99 63c-37 0 -67 -20 -83 -50h132v-106h-132c16 -30 46 -50 83 -50c56 0 89 30 99 63h183c-10 -117 -128 -220 -270 -220z" glyph-name="uni0454" horiz-adv-x="609" unicode="є"/>
<glyph d="M297 -10c-142 0 -260 103 -270 220h183c10 -33 43 -63 99 -63c37 0 67 20 83 50h-132v106h132c-16 30 -46 50 -83 50c-56 0 -89 -30 -99 -63h-183c10 117 128 220 270 220c161 0 279 -107 279 -260s-118 -260 -279 -260z" glyph-name="uni044D" horiz-adv-x="606" unicode="э"/>
<glyph d="M70 0v500h190v-500h-190zM160 545l-115 200h240l-115 -200h-10z" glyph-name="uni0456" horiz-adv-x="330" unicode="і"/>
<glyph d="M70 0v500h190v-500h-190zM365 745l-103 -200h-9l-88 169l-87 -169h-9l-104 200h400z" glyph-name="uni0457" horiz-adv-x="330" unicode="ї"/>
<glyph d="M585 165c45 0 80 37 80 85s-35 85 -80 85s-80 -37 -80 -85s35 -85 80 -85zM585 -10c-124 0 -221 69 -255 173h-70v-163h-190v500h190v-163h70c34 104 131 173 255 173c159 0 275 -110 275 -260s-116 -260 -275 -260z" glyph-name="uni044E" horiz-adv-x="890" unicode="ю"/>
<glyph d="M270 272h82v78h-82c-27 0 -46 -17 -46 -39s19 -39 46 -39zM0 0l117 176c-53 31 -83 80 -83 144c0 112 91 180 240 180h265v-500h-187v140h-57l-85 -140h-210z" glyph-name="uni044F" horiz-adv-x="609" unicode="я"/>
<glyph d="M70 0v500h238v100h182v-280h-230v-320h-190z" glyph-name="uni0491.ss01" horiz-adv-x="515"/>
<glyph d="M6 0l155 259l-146 241h201l95 -163h47v163h190v-163h47l95 163h201l-146 -241l155 -259h-217l-94 163h-41v-163h-190v163h-41l-94 -163h-217z" glyph-name="uni0436.ss01" horiz-adv-x="906"/>
<glyph d="M70 0v500h190v-163h43l107 163h199l-157 -235l173 -265h-220l-105 163h-40v-163h-190z" glyph-name="uni043A.ss01" horiz-adv-x="633"/>
<glyph d="M70 0v500h193l158 -236v236h187v-500h-193l-158 236v-236h-187z" glyph-name="uni043D.ss02" horiz-adv-x="678"/>
<glyph d="M361 -100v100h-316v145l221 185h-211v170h460v-145l-220 -185h248v-270h-182z" glyph-name="uni0437.ss03" horiz-adv-x="583"/>
<glyph d="M50 0v135l115 115l-115 115v135h460v-170h-227l81 -80l-80 -80h236v-170h-470z" glyph-name="uni0441.ss03" horiz-adv-x="565"/>
<glyph d="M70 0v500h800v-500h-190v330h-115v-330h-190v330h-115v-330h-190z" glyph-name="uni0442.ss03" horiz-adv-x="940"/>
<glyph d="M220 -200v200l-215 500h200l112 -316l112 316h196l-215 -500v-200h-190z" glyph-name="uni0443.ss04" horiz-adv-x="630"/>
<glyph d="M220 -200v200l-215 500h200l112 -316l112 316h196l-215 -500v-200h-190zM315 541c-129 0 -213 85 -213 195v9h154v-7c0 -34 25 -61 59 -61s59 27 59 61v7h154v-9c0 -110 -84 -195 -213 -195z" glyph-name="uni045E.ss04" horiz-adv-x="630"/>
<glyph d="M385 189h110l-55 90zM20 0l310 450v50h-280v200h780v-200h-280v-50l310 -450h-248l-25 40h-294l-25 -40h-248z" glyph-name="uni04220410.dlig" horiz-adv-x="880"/>
<glyph d="M255 135c56 0 112 43 112 86v5c-20 -10 -46 -17 -80 -21c-48 -6 -74 -17 -74 -42c0 -18 15 -28 42 -28zM207 -10c-116 0 -185 52 -185 143c0 94 87 145 244 155c63 4 90 13 90 33s-23 30 -62 30c-38 0 -66 -14 -75 -36h-180c15 91 85 140 164 159v62h-175v174h540v-174 h-175v-64c89 -27 143 -91 143 -183v-119h48v-170h-212v42c-45 -33 -107 -52 -165 -52z" glyph-name="uni04420430.dlig" horiz-adv-x="614"/>
<glyph d="M365 175c70 0 110 64 110 175s-40 175 -110 175s-110 -64 -110 -175s40 -175 110 -175zM365 -15c-193 0 -325 149 -325 365s132 365 325 365s325 -149 325 -365s-132 -365 -325 -365z" glyph-name="zero" horiz-adv-x="730" unicode="0"/>
<glyph d="M215 0v451l-170 -105v231l200 123h175v-700h-205z" glyph-name="one" horiz-adv-x="510" unicode="1"/>
<glyph d="M336 392c56 0 93 29 93 74c0 44 -37 73 -93 73c-55 0 -91 -29 -91 -73c0 -45 36 -74 91 -74zM50 0v167l193 99c-3 0 -6 1 -10 2c-141 25 -196 116 -196 210c0 117 102 237 300 237c174 0 301 -101 301 -241c0 -98 -59 -181 -166 -236l-103 -53h275v-185h-594z" glyph-name="two" horiz-adv-x="671" unicode="2"/>
<glyph d="M313 -15c-181 0 -301 102 -307 254h208c6 -48 44 -80 95 -80c52 0 88 33 88 79s-36 79 -84 79c-22 0 -43 -7 -60 -19l-15 -11l-96 123l146 105h-257v185h547v-173l-130 -95l4 -1c99 -27 160 -103 160 -205c0 -142 -120 -241 -299 -241z" glyph-name="three" horiz-adv-x="636" unicode="3"/>
<glyph d="M225 297h138v202zM363 0v123h-335v174l275 403h270v-403h100v-174h-100v-123h-210z" glyph-name="four" horiz-adv-x="683" unicode="4"/>
<glyph d="M323 -15c-170 0 -287 100 -293 227h211c8 -35 46 -55 85 -55c60 0 93 45 93 89c0 41 -30 82 -93 82c-37 0 -73 -17 -87 -49h-191l44 421h498v-185h-325l-7 -66c37 16 80 24 122 24c130 0 254 -71 254 -228c0 -154 -126 -260 -311 -260z" glyph-name="five" horiz-adv-x="674" unicode="5"/>
<glyph d="M365 161c55 0 91 29 91 73c0 45 -36 74 -91 74c-56 0 -93 -29 -93 -74c0 -44 37 -73 93 -73zM371 -15c-222 0 -326 177 -326 364s104 366 321 366c160 0 273 -94 294 -225h-227c-14 24 -41 35 -74 35c-59 0 -115 -44 -115 -125v-5c43 41 107 62 173 62 c129 0 257 -73 257 -226c0 -122 -102 -246 -303 -246z" glyph-name="six" horiz-adv-x="704" unicode="6"/>
<glyph d="M148 0c31 168 123 367 238 510h-376v190h594v-172c-109 -122 -209 -354 -232 -528h-224z" glyph-name="seven" horiz-adv-x="614" unicode="7"/>
<glyph d="M345 147c61 0 100 28 100 70c0 41 -39 68 -100 68s-100 -27 -100 -68c0 -42 39 -70 100 -70zM345 429c55 0 91 25 91 63s-36 63 -91 63s-91 -25 -91 -63s36 -63 91 -63zM345 -15c-191 0 -315 86 -315 219c0 68 40 123 110 157c-59 33 -93 83 -93 145 c0 127 117 209 298 209s298 -82 298 -209c0 -62 -34 -112 -93 -145c70 -34 110 -89 110 -157c0 -133 -124 -219 -315 -219z" glyph-name="eight" horiz-adv-x="690" unicode="8"/>
<glyph d="M339 539c-55 0 -91 -29 -91 -73c0 -45 36 -74 91 -74c56 0 93 29 93 74c0 44 -37 73 -93 73zM333 715c222 0 326 -177 326 -364s-104 -366 -321 -366c-160 0 -273 94 -294 225h227c14 -24 41 -35 74 -35c59 0 115 44 115 125v5c-43 -41 -107 -62 -173 -62 c-129 0 -257 73 -257 226c0 122 102 246 303 246z" glyph-name="nine" horiz-adv-x="704" unicode="9"/>
<glyph d="M365 175c70 0 110 64 110 175s-40 175 -110 175s-110 -64 -110 -175s40 -175 110 -175zM365 -15c-193 0 -325 149 -325 365s132 365 325 365s325 -149 325 -365s-132 -365 -325 -365z" glyph-name="zero.lf" horiz-adv-x="750"/>
<glyph d="M215 0v451l-170 -105v231l200 123h175v-700h-205z" glyph-name="one.lf" horiz-adv-x="510"/>
<glyph d="M336 392c56 0 93 29 93 74c0 44 -37 73 -93 73c-55 0 -91 -29 -91 -73c0 -45 36 -74 91 -74zM50 0v167l193 99c-3 0 -6 1 -10 2c-141 25 -196 116 -196 210c0 117 102 237 300 237c174 0 301 -101 301 -241c0 -98 -59 -181 -166 -236l-103 -53h275v-185h-594z" glyph-name="two.lf" horiz-adv-x="671"/>
<glyph d="M313 -15c-181 0 -301 102 -307 254h208c6 -48 44 -80 95 -80c52 0 88 33 88 79s-36 79 -84 79c-22 0 -43 -7 -60 -19l-15 -11l-96 123l146 105h-257v185h547v-173l-130 -95l4 -1c99 -27 160 -103 160 -205c0 -142 -120 -241 -299 -241z" glyph-name="three.lf" horiz-adv-x="636"/>
<glyph d="M225 297h138v202zM363 0v123h-335v174l275 403h270v-403h100v-174h-100v-123h-210z" glyph-name="four.lf" horiz-adv-x="683"/>
<glyph d="M323 -15c-170 0 -287 100 -293 227h211c8 -35 46 -55 85 -55c60 0 93 45 93 89c0 41 -30 82 -93 82c-37 0 -73 -17 -87 -49h-191l44 421h498v-185h-325l-7 -66c37 16 80 24 122 24c130 0 254 -71 254 -228c0 -154 -126 -260 -311 -260z" glyph-name="five.lf" horiz-adv-x="674"/>
<glyph d="M365 161c55 0 91 29 91 73c0 45 -36 74 -91 74c-56 0 -93 -29 -93 -74c0 -44 37 -73 93 -73zM371 -15c-222 0 -326 177 -326 364s104 366 321 366c160 0 273 -94 294 -225h-227c-14 24 -41 35 -74 35c-59 0 -115 -44 -115 -125v-5c43 41 107 62 173 62 c129 0 257 -73 257 -226c0 -122 -102 -246 -303 -246z" glyph-name="six.lf" horiz-adv-x="704"/>
<glyph d="M148 0c31 168 123 367 238 510h-376v190h594v-172c-109 -122 -209 -354 -232 -528h-224z" glyph-name="seven.lf" horiz-adv-x="614"/>
<glyph d="M345 147c61 0 100 28 100 70c0 41 -39 68 -100 68s-100 -27 -100 -68c0 -42 39 -70 100 -70zM345 429c55 0 91 25 91 63s-36 63 -91 63s-91 -25 -91 -63s36 -63 91 -63zM345 -15c-191 0 -315 86 -315 219c0 68 40 123 110 157c-59 33 -93 83 -93 145 c0 127 117 209 298 209s298 -82 298 -209c0 -62 -34 -112 -93 -145c70 -34 110 -89 110 -157c0 -133 -124 -219 -315 -219z" glyph-name="eight.lf" horiz-adv-x="690"/>
<glyph d="M339 539c-55 0 -91 -29 -91 -73c0 -45 36 -74 91 -74c56 0 93 29 93 74c0 44 -37 73 -93 73zM333 715c222 0 326 -177 326 -364s-104 -366 -321 -366c-160 0 -273 94 -294 225h227c14 -24 41 -35 74 -35c59 0 115 44 115 125v5c-43 -41 -107 -62 -173 -62 c-129 0 -257 73 -257 226c0 122 102 246 303 246z" glyph-name="nine.lf" horiz-adv-x="704"/>
<glyph d="M360 175c65 0 110 51 110 125s-45 125 -110 125s-110 -51 -110 -125s45 -125 110 -125zM360 -15c-188 0 -325 133 -325 315s137 315 325 315s325 -133 325 -315s-137 -315 -325 -315z" glyph-name="zero.osf" horiz-adv-x="720"/>
<glyph d="M215 0v351l-170 -105v231l200 123h175v-600h-205z" glyph-name="one.osf" horiz-adv-x="510"/>
<glyph d="M328 299c55 0 93 30 93 73s-38 73 -93 73c-54 0 -91 -30 -91 -73s37 -73 91 -73zM29 0v152l164 69c-4 1 -8 2 -13 3c-100 28 -158 92 -158 178c0 125 127 213 307 213c189 0 312 -86 312 -215c0 -92 -55 -157 -179 -208l-45 -19h243v-173h-631z" glyph-name="two.osf" horiz-adv-x="670"/>
<glyph d="M313 -15c-181 0 -301 102 -307 254h208c6 -48 44 -80 95 -80c52 0 88 33 88 79s-36 79 -84 79c-22 0 -43 -7 -60 -19l-15 -11l-96 123l146 105h-257v185h547v-173l-130 -95l4 -1c99 -27 160 -103 160 -205c0 -142 -120 -241 -299 -241z" glyph-name="three.osf" horiz-adv-x="636"/>
<glyph d="M225 197h138v202zM363 -100v123h-335v174l275 403h270v-403h100v-174h-100v-123h-210z" glyph-name="four.osf" horiz-adv-x="683"/>
<glyph d="M323 -115c-170 0 -287 100 -293 227h211c8 -35 46 -55 85 -55c60 0 93 45 93 89c0 41 -30 82 -93 82c-37 0 -73 -17 -87 -49h-191l44 421h498v-185h-325l-7 -66c37 16 80 24 122 24c130 0 254 -71 254 -228c0 -154 -126 -260 -311 -260z" glyph-name="five.osf" horiz-adv-x="674"/>
<glyph d="M365 161c55 0 91 29 91 73c0 45 -36 74 -91 74c-56 0 -93 -29 -93 -74c0 -44 37 -73 93 -73zM371 -15c-222 0 -326 177 -326 364s104 366 321 366c160 0 273 -94 294 -225h-227c-14 24 -41 35 -74 35c-59 0 -115 -44 -115 -125v-5c43 41 107 62 173 62 c129 0 257 -73 257 -226c0 -122 -102 -246 -303 -246z" glyph-name="six.osf" horiz-adv-x="704"/>
<glyph d="M148 -100c31 168 123 367 238 510h-376v190h594v-172c-109 -122 -209 -354 -232 -528h-224z" glyph-name="seven.osf" horiz-adv-x="614"/>
<glyph d="M345 147c61 0 100 28 100 70c0 41 -39 68 -100 68s-100 -27 -100 -68c0 -42 39 -70 100 -70zM345 429c55 0 91 25 91 63s-36 63 -91 63s-91 -25 -91 -63s36 -63 91 -63zM345 -15c-191 0 -315 86 -315 219c0 68 40 123 110 157c-59 33 -93 83 -93 145 c0 127 117 209 298 209s298 -82 298 -209c0 -62 -34 -112 -93 -145c70 -34 110 -89 110 -157c0 -133 -124 -219 -315 -219z" glyph-name="eight.osf" horiz-adv-x="690"/>
<glyph d="M339 439c-55 0 -91 -29 -91 -73c0 -45 36 -74 91 -74c56 0 93 29 93 74c0 44 -37 73 -93 73zM333 615c222 0 326 -177 326 -364s-104 -366 -321 -366c-160 0 -273 94 -294 225h227c14 -24 41 -35 74 -35c59 0 115 44 115 125v5c-43 -41 -107 -62 -173 -62 c-129 0 -257 73 -257 226c0 122 102 246 303 246z" glyph-name="nine.osf" horiz-adv-x="704"/>
<glyph d="M350 175c70 0 110 64 110 175s-40 175 -110 175s-110 -64 -110 -175s40 -175 110 -175zM350 -15c-193 0 -325 149 -325 365s132 365 325 365s325 -149 325 -365s-132 -365 -325 -365z" glyph-name="zero.tf" horiz-adv-x="700"/>
<glyph d="M72 0v185h195v266l-170 -105v231l200 123h175v-515h185v-185h-585z" glyph-name="one.tf" horiz-adv-x="700"/>
<glyph d="M344 392c56 0 93 29 93 74c0 44 -37 73 -93 73c-55 0 -91 -29 -91 -73c0 -45 36 -74 91 -74zM58 0v167l193 99c-3 0 -6 1 -10 2c-141 25 -196 116 -196 210c0 117 102 237 300 237c174 0 301 -101 301 -241c0 -98 -59 -181 -166 -236l-103 -53h275v-185h-594z" glyph-name="two.tf" horiz-adv-x="700"/>
<glyph d="M342 -15c-181 0 -301 102 -307 254h208c6 -48 44 -80 95 -80c52 0 88 33 88 79s-36 79 -84 79c-22 0 -43 -7 -60 -19l-15 -11l-96 123l146 105h-257v185h547v-173l-130 -95l4 -1c99 -27 160 -103 160 -205c0 -142 -120 -241 -299 -241z" glyph-name="three.tf" horiz-adv-x="700"/>
<glyph d="M223 297h138v202zM361 0v123h-335v174l275 403h270v-403h100v-174h-100v-123h-210z" glyph-name="four.tf" horiz-adv-x="700"/>
<glyph d="M339 -15c-170 0 -287 100 -293 227h211c8 -35 46 -55 85 -55c60 0 93 45 93 89c0 41 -30 82 -93 82c-37 0 -73 -17 -87 -49h-191l44 421h498v-185h-325l-7 -66c37 16 80 24 122 24c130 0 254 -71 254 -228c0 -154 -126 -260 -311 -260z" glyph-name="five.tf" horiz-adv-x="700"/>
<glyph d="M361 161c55 0 91 29 91 73c0 45 -36 74 -91 74c-56 0 -93 -29 -93 -74c0 -44 37 -73 93 -73zM367 -15c-222 0 -326 177 -326 364s104 366 321 366c160 0 273 -94 294 -225h-227c-14 24 -41 35 -74 35c-59 0 -115 -44 -115 -125v-5c43 41 107 62 173 62 c129 0 257 -73 257 -226c0 -122 -102 -246 -303 -246z" glyph-name="six.tf" horiz-adv-x="700"/>
<glyph d="M191 0c34 168 133 367 265 510h-414v190h614v-172c-114 -122 -217 -354 -242 -528h-223z" glyph-name="seven.tf" horiz-adv-x="700"/>
<glyph d="M350 147c61 0 100 28 100 70c0 41 -39 68 -100 68s-100 -27 -100 -68c0 -42 39 -70 100 -70zM350 429c55 0 91 25 91 63s-36 63 -91 63s-91 -25 -91 -63s36 -63 91 -63zM350 -15c-191 0 -315 86 -315 219c0 68 40 123 110 157c-59 33 -93 83 -93 145 c0 127 117 209 298 209s298 -82 298 -209c0 -62 -34 -112 -93 -145c70 -34 110 -89 110 -157c0 -133 -124 -219 -315 -219z" glyph-name="eight.tf" horiz-adv-x="700"/>
<glyph d="M339 539c-55 0 -91 -29 -91 -73c0 -45 36 -74 91 -74c56 0 93 29 93 74c0 44 -37 73 -93 73zM333 715c222 0 326 -177 326 -364s-104 -366 -321 -366c-160 0 -273 94 -294 225h227c14 -24 41 -35 74 -35c59 0 115 44 115 125v5c-43 -41 -107 -62 -173 -62 c-129 0 -257 73 -257 226c0 122 102 246 303 246z" glyph-name="nine.tf" horiz-adv-x="700"/>
<glyph d="M350 175c65 0 110 51 110 125s-45 125 -110 125s-110 -51 -110 -125s45 -125 110 -125zM350 -15c-188 0 -325 133 -325 315s137 315 325 315s325 -133 325 -315s-137 -315 -325 -315z" glyph-name="zero.tosf" horiz-adv-x="700"/>
<glyph d="M82 0v185h196v166l-170 -105v231l200 123h175v-415h174v-185h-575z" glyph-name="one.tosf" horiz-adv-x="700"/>
<glyph d="M338 299c55 0 93 30 93 73s-38 73 -93 73c-54 0 -91 -30 -91 -73s37 -73 91 -73zM39 0v152l164 69c-4 1 -8 2 -13 3c-100 28 -158 92 -158 178c0 125 127 213 307 213c189 0 312 -86 312 -215c0 -92 -55 -157 -179 -208l-45 -19h243v-173h-631z" glyph-name="two.tosf" horiz-adv-x="700"/>
<glyph d="M342 -15c-181 0 -301 102 -307 254h208c6 -48 44 -80 95 -80c52 0 88 33 88 79s-36 79 -84 79c-22 0 -43 -7 -60 -19l-15 -11l-96 123l146 105h-257v185h547v-173l-130 -95l4 -1c99 -27 160 -103 160 -205c0 -142 -120 -241 -299 -241z" glyph-name="three.tosf" horiz-adv-x="700"/>
<glyph d="M233 197h138v202zM371 -100v123h-335v174l275 403h270v-403h100v-174h-100v-123h-210z" glyph-name="four.tosf" horiz-adv-x="700"/>
<glyph d="M352 -115c-170 0 -287 100 -293 227h211c8 -35 46 -55 85 -55c60 0 93 45 93 89c0 41 -30 82 -93 82c-37 0 -73 -17 -87 -49h-191l44 421h498v-185h-325l-7 -66c37 16 80 24 122 24c130 0 254 -71 254 -228c0 -154 -126 -260 -311 -260z" glyph-name="five.tosf" horiz-adv-x="700"/>
<glyph d="M359 161c55 0 91 29 91 73c0 45 -36 74 -91 74c-56 0 -93 -29 -93 -74c0 -44 37 -73 93 -73zM365 -15c-222 0 -326 177 -326 364s104 366 321 366c160 0 273 -94 294 -225h-227c-14 24 -41 35 -74 35c-59 0 -115 -44 -115 -125v-5c43 41 107 62 173 62 c129 0 257 -73 257 -226c0 -122 -102 -246 -303 -246z" glyph-name="six.tosf" horiz-adv-x="700"/>
<glyph d="M194 -100c34 168 133 367 265 510h-414v190h614v-172c-114 -122 -217 -354 -242 -528h-223z" glyph-name="seven.tosf" horiz-adv-x="700"/>
<glyph d="M360 147c61 0 100 28 100 70c0 41 -39 68 -100 68s-100 -27 -100 -68c0 -42 39 -70 100 -70zM360 429c55 0 91 25 91 63s-36 63 -91 63s-91 -25 -91 -63s36 -63 91 -63zM360 -15c-191 0 -315 86 -315 219c0 68 40 123 110 157c-59 33 -93 83 -93 145 c0 127 117 209 298 209s298 -82 298 -209c0 -62 -34 -112 -93 -145c70 -34 110 -89 110 -157c0 -133 -124 -219 -315 -219z" glyph-name="eight.tosf" horiz-adv-x="700"/>
<glyph d="M339 439c-55 0 -91 -29 -91 -73c0 -45 36 -74 91 -74c56 0 93 29 93 74c0 44 -37 73 -93 73zM333 615c222 0 326 -177 326 -364s-104 -366 -321 -366c-160 0 -273 94 -294 225h227c14 -24 41 -35 74 -35c59 0 115 44 115 125v5c-43 -41 -107 -62 -173 -62 c-129 0 -257 73 -257 226c0 122 102 246 303 246z" glyph-name="nine.tosf" horiz-adv-x="700"/>
<glyph d="M170 -12c-71 0 -125 54 -125 125s54 125 125 125s125 -54 125 -125s-54 -125 -125 -125z" glyph-name="period" horiz-adv-x="340" unicode="."/>
<glyph d="M199 -90h-102c14 22 28 53 38 85c-64 21 -90 68 -90 116c0 62 45 127 123 127c64 0 128 -43 128 -127c0 -69 -44 -158 -97 -201z" glyph-name="comma" horiz-adv-x="340" unicode=","/>
<glyph d="M170 -12c-71 0 -125 54 -125 125s54 125 125 125s125 -54 125 -125s-54 -125 -125 -125zM170 268c-71 0 -125 54 -125 125s54 125 125 125s125 -54 125 -125s-54 -125 -125 -125z" glyph-name="colon" horiz-adv-x="340" unicode=":"/>
<glyph d="M199 -90h-102c14 22 28 53 38 85c-64 21 -90 68 -90 116c0 62 45 127 123 127c64 0 128 -43 128 -127c0 -69 -44 -158 -97 -201zM170 268c-71 0 -125 54 -125 125s54 125 125 125s125 -54 125 -125s-54 -125 -125 -125z" glyph-name="semicolon" horiz-adv-x="341" unicode=";"/>
<glyph d="M730 -12c-71 0 -125 54 -125 125s54 125 125 125s125 -54 125 -125s-54 -125 -125 -125zM450 -12c-71 0 -125 54 -125 125s54 125 125 125s125 -54 125 -125s-54 -125 -125 -125zM170 -12c-71 0 -125 54 -125 125s54 125 125 125s125 -54 125 -125s-54 -125 -125 -125z " glyph-name="ellipsis" horiz-adv-x="900" unicode="…"/>
<glyph d="M190 -12c-71 0 -125 54 -125 125s54 125 125 125s125 -54 125 -125s-54 -125 -125 -125zM105 280l-40 420h240l-40 -420h-160z" glyph-name="exclam" horiz-adv-x="380" unicode="!"/>
<glyph d="M275 220l40 -420h-240l40 420h160zM190 512c71 0 125 -54 125 -125s-54 -125 -125 -125s-125 54 -125 125s54 125 125 125z" glyph-name="exclamdown" horiz-adv-x="380" unicode="¡"/>
<glyph d="M315 -12c-71 0 -125 54 -125 125s54 125 125 125s125 -54 125 -125s-54 -125 -125 -125zM222 280c-3 14 -4 27 -4 40c0 62 36 101 130 131c48 15 57 31 57 45c0 23 -28 37 -74 37c-53 0 -89 -22 -104 -60h-217c23 150 145 242 326 242c179 0 291 -80 291 -206 c0 -77 -51 -135 -156 -172c-63 -22 -71 -29 -71 -57h-178z" glyph-name="question" horiz-adv-x="652" unicode="?"/>
<glyph d="M430 220c3 -14 4 -27 4 -40c0 -62 -36 -101 -130 -131c-48 -15 -57 -31 -57 -45c0 -23 28 -37 74 -37c53 0 89 22 104 60h217c-23 -150 -145 -242 -326 -242c-179 0 -291 80 -291 206c0 77 51 135 156 172c63 22 71 29 71 57h178zM337 512c71 0 125 -54 125 -125 s-54 -125 -125 -125s-125 54 -125 125s54 125 125 125z" glyph-name="questiondown" horiz-adv-x="652" unicode="¿"/>
<glyph d="M170 178c-71 0 -125 54 -125 125s54 125 125 125s125 -54 125 -125s-54 -125 -125 -125z" glyph-name="periodcentered" horiz-adv-x="340" unicode="·"/>
<glyph d="M335 135c-93 0 -165 72 -165 165s72 165 165 165s165 -72 165 -165s-72 -165 -165 -165z" glyph-name="bullet" horiz-adv-x="670" unicode="•"/>
<glyph d="M176 454l9 100l-77 -69l-69 20l19 69h119l-147 45v69l64 17l88 -105l-50 141l63 53l63 -53l-50 -141l88 105l64 -17v-69l-148 -45h119l19 -69l-68 -20l-78 69l9 -100h-37z" glyph-name="asterisk" horiz-adv-x="390" unicode="*"/>
<glyph d="M295 285h110v130h-110v-130zM125 -15v115h-95v185h95v130h-95v185h95v115h170v-115h110v115h170v-115h95v-185h-95v-130h95v-185h-95v-115h-170v115h-110v-115h-170z" glyph-name="numbersign" horiz-adv-x="700" unicode="#"/>
<glyph d="M0 0l338 700h186l-338 -700h-186z" glyph-name="slash" horiz-adv-x="524" unicode="/"/>
<glyph d="M338 0l-338 700h186l338 -700h-186z" glyph-name="backslash" horiz-adv-x="524" unicode="\"/>
<glyph d="M170 88c-71 0 -125 54 -125 125s54 125 125 125s125 -54 125 -125s-54 -125 -125 -125zM170 368c-71 0 -125 54 -125 125s54 125 125 125s125 -54 125 -125s-54 -125 -125 -125z" glyph-name="colon.case" horiz-adv-x="340"/>
<glyph d="M275 420l40 -420h-240l40 420h160zM190 712c71 0 125 -54 125 -125s-54 -125 -125 -125s-125 54 -125 125s54 125 125 125z" glyph-name="exclamdown.case" horiz-adv-x="380"/>
<glyph d="M430 420c3 -14 4 -27 4 -40c0 -62 -36 -101 -130 -131c-48 -15 -57 -31 -57 -45c0 -23 28 -37 74 -37c53 0 89 22 104 60h217c-23 -150 -145 -242 -326 -242c-179 0 -291 80 -291 206c0 77 51 135 156 172c63 22 71 29 71 57h178zM337 712c71 0 125 -54 125 -125 s-54 -125 -125 -125s-125 54 -125 125s54 125 125 125z" glyph-name="questiondown.case" horiz-adv-x="652"/>
<glyph d="M486 -39l22 250l-194 -173l-171 51l48 172h297l-368 113v173l160 41l220 -263l-126 353l158 133l158 -133l-126 -353l220 263l160 -41v-173l-368 -113h297l48 -172l-171 -51l-194 173l22 -250h-92z" glyph-name="asterisk.case" horiz-adv-x="1064"/>
<glyph d="M486 -39l22 250l-194 -173l-171 51l48 172h297l-368 113v173l160 41l220 -263l-126 353l158 133l158 -133l-126 -353l220 263l160 -41v-173l-368 -113h297l48 -172l-171 -51l-194 173l22 -250h-92z" glyph-name="bullet.ss01" horiz-adv-x="1064"/>
<glyph d="M173 330v104l-90 -52l-50 86l90 52l-90 52l50 86l90 -52v104h100v-104l90 52l50 -86l-90 -52l90 -52l-50 -86l-90 52v-104h-100z" glyph-name="asterisk.ss01" horiz-adv-x="446"/>
<glyph d="M415 -115c-193 0 -325 189 -325 465s132 465 325 465v-170c-87 0 -147 -120 -147 -295s60 -295 147 -295v-170z" glyph-name="parenleft" horiz-adv-x="500" unicode="("/>
<glyph d="M85 815c193 0 325 -189 325 -465s-132 -465 -325 -465v170c87 0 147 120 147 295s-60 295 -147 295v170z" glyph-name="parenright" horiz-adv-x="500" unicode=")"/>
<glyph d="M304 -115c-98 0 -171 33 -171 144c0 67 27 142 27 189c0 35 -15 47 -44 47h-51v170h51c29 0 44 12 44 47c0 47 -27 122 -27 189c0 111 73 144 171 144c40 0 81 -6 126 -15v-170c-29 8 -55 13 -74 13c-29 0 -45 -11 -45 -40c0 -27 14 -72 14 -123 c0 -75 -30 -113 -100 -130c70 -17 100 -55 100 -130c0 -51 -14 -96 -14 -123c0 -29 16 -40 45 -40c19 0 45 5 74 13v-170c-45 -9 -86 -15 -126 -15z" glyph-name="braceleft" horiz-adv-x="500" unicode="{"/>
<glyph d="M196 815c98 0 171 -33 171 -144c0 -67 -27 -142 -27 -189c0 -35 15 -47 44 -47h51v-170h-51c-29 0 -44 -12 -44 -47c0 -47 27 -122 27 -189c0 -111 -73 -144 -171 -144c-40 0 -81 6 -126 15v170c29 -8 55 -13 74 -13c29 0 45 11 45 40c0 27 -14 72 -14 123 c0 75 30 113 100 130c-70 17 -100 55 -100 130c0 51 14 96 14 123c0 29 -16 40 -45 40c-19 0 -45 -5 -74 -13v170c45 9 86 15 126 15z" glyph-name="braceright" horiz-adv-x="500" unicode="}"/>
<glyph d="M120 -100v900h310v-170h-140v-560h140v-170h-310z" glyph-name="bracketleft" horiz-adv-x="500" unicode="["/>
<glyph d="M380 800v-900h-310v170h140v560h-140v170h310z" glyph-name="bracketright" horiz-adv-x="500" unicode="]"/>
<glyph d="M415 -15c-193 0 -325 148 -325 365s132 365 325 365v-170c-87 0 -147 -80 -147 -195s60 -195 147 -195v-170z" glyph-name="parenleft.case" horiz-adv-x="500"/>
<glyph d="M85 715c193 0 325 -148 325 -365s-132 -365 -325 -365v170c87 0 147 80 147 195s-60 195 -147 195v170z" glyph-name="parenright.case" horiz-adv-x="500"/>
<glyph d="M304 -15c-99 0 -171 45 -171 143c0 55 23 89 23 120c0 25 -9 35 -40 35h-51v134h51c31 0 40 10 40 35c0 31 -23 65 -23 120c0 98 72 143 171 143c39 0 81 -5 126 -12v-167c-29 5 -57 8 -74 8c-31 0 -45 -10 -45 -39c0 -28 14 -47 14 -79c0 -45 -27 -66 -90 -76 c63 -10 90 -31 90 -76c0 -32 -14 -51 -14 -79c0 -29 14 -39 45 -39c17 0 45 3 74 8v-167c-45 -7 -87 -12 -126 -12z" glyph-name="braceleft.case" horiz-adv-x="500"/>
<glyph d="M196 715c99 0 171 -45 171 -143c0 -55 -23 -89 -23 -120c0 -25 9 -35 40 -35h51v-134h-51c-31 0 -40 -10 -40 -35c0 -31 23 -65 23 -120c0 -98 -72 -143 -171 -143c-39 0 -81 5 -126 12v167c29 -5 57 -8 74 -8c31 0 45 10 45 39c0 28 -14 47 -14 79c0 45 27 66 90 76 c-63 10 -90 31 -90 76c0 32 14 51 14 79c0 29 -14 39 -45 39c-17 0 -45 -3 -74 -8v167c45 7 87 12 126 12z" glyph-name="braceright.case" horiz-adv-x="500"/>
<glyph d="M120 0v700h310v-170h-140v-360h140v-170h-310z" glyph-name="bracketleft.case" horiz-adv-x="500"/>
<glyph d="M380 700v-700h-310v170h140v360h-140v170h310z" glyph-name="bracketright.case" horiz-adv-x="500"/>
<glyph d="M60 215v170h300v-170h-300z" glyph-name="hyphen" horiz-adv-x="420" unicode="-"/>
<glyph d="M60 215v170h440v-170h-440z" glyph-name="endash" horiz-adv-x="560" unicode="–"/>
<glyph d="M60 215v170h600v-170h-600z" glyph-name="emdash" horiz-adv-x="720" unicode="—"/>
<glyph d="M30 -170v170h440v-170h-440z" glyph-name="underscore" horiz-adv-x="500" unicode="_"/>
<glyph d="M60 265v170h300v-170h-300z" glyph-name="hyphen.case" horiz-adv-x="420"/>
<glyph d="M60 265v170h440v-170h-440z" glyph-name="endash.case" horiz-adv-x="560"/>
<glyph d="M60 265v170h600v-170h-600z" glyph-name="emdash.case" horiz-adv-x="720"/>
<glyph d="M174 -90h-102c14 22 28 53 38 85c-64 21 -90 68 -90 116c0 62 45 127 123 127c64 0 128 -43 128 -127c0 -69 -44 -158 -97 -201z" glyph-name="quotesinglbase" horiz-adv-x="291" unicode="‚"/>
<glyph d="M459 -90h-102c14 22 28 53 38 85c-64 21 -90 68 -90 116c0 62 45 127 123 127c64 0 128 -43 128 -127c0 -69 -44 -158 -97 -201zM174 -90h-102c14 22 28 53 38 85c-64 21 -90 68 -90 116c0 62 45 127 123 127c64 0 128 -43 128 -127c0 -69 -44 -158 -97 -201z" glyph-name="quotedblbase" horiz-adv-x="576" unicode="„"/>
<glyph d="M402 710h102c-14 -22 -28 -53 -38 -85c64 -21 90 -68 90 -116c0 -62 -45 -127 -123 -127c-64 0 -128 43 -128 127c0 69 44 158 97 201zM117 710h102c-14 -22 -28 -53 -38 -85c64 -21 90 -68 90 -116c0 -62 -45 -127 -123 -127c-64 0 -128 43 -128 127c0 69 44 158 97 201 z" glyph-name="quotedblleft" horiz-adv-x="576" unicode="“"/>
<glyph d="M459 390h-102c14 22 28 53 38 85c-64 21 -90 68 -90 116c0 62 45 127 123 127c64 0 128 -43 128 -127c0 -69 -44 -158 -97 -201zM174 390h-102c14 22 28 53 38 85c-64 21 -90 68 -90 116c0 62 45 127 123 127c64 0 128 -43 128 -127c0 -69 -44 -158 -97 -201z" glyph-name="quotedblright" horiz-adv-x="576" unicode="”"/>
<glyph d="M117 710h102c-14 -22 -28 -53 -38 -85c64 -21 90 -68 90 -116c0 -62 -45 -127 -123 -127c-64 0 -128 43 -128 127c0 69 44 158 97 201z" glyph-name="quoteleft" horiz-adv-x="291" unicode="‘"/>
<glyph d="M174 390h-102c14 22 28 53 38 85c-64 21 -90 68 -90 116c0 62 45 127 123 127c64 0 128 -43 128 -127c0 -69 -44 -158 -97 -201z" glyph-name="quoteright" horiz-adv-x="291" unicode="’"/>
<glyph d="M644 500l-109 -200l109 -200h-208l-106 194v12l106 194h208zM344 500l-109 -200l109 -200h-208l-106 194v12l106 194h208z" glyph-name="guillemotleft" horiz-adv-x="674" unicode="«"/>
<glyph d="M330 100l109 200l-109 200h208l106 -194v-12l-106 -194h-208zM30 100l109 200l-109 200h208l106 -194v-12l-106 -194h-208z" glyph-name="guillemotright" horiz-adv-x="674" unicode="»"/>
<glyph d="M344 500l-109 -200l109 -200h-208l-106 194v12l106 194h208z" glyph-name="guilsinglleft" horiz-adv-x="374" unicode="‹"/>
<glyph d="M30 100l109 200l-109 200h208l106 -194v-12l-106 -194h-208z" glyph-name="guilsinglright" horiz-adv-x="374" unicode="›"/>
<glyph d="M400 700l-105 -280h-10l-75 200l-75 -200h-10l-105 280h380z" glyph-name="quotedbl" horiz-adv-x="420" unicode='"'/>
<glyph d="M125 420l-105 280h220l-105 -280h-10z" glyph-name="quotesingle" horiz-adv-x="260" unicode="'"/>
<glyph d="M644 550l-109 -200l109 -200h-208l-106 194v12l106 194h208zM344 550l-109 -200l109 -200h-208l-106 194v12l106 194h208z" glyph-name="guillemotleft.case" horiz-adv-x="674"/>
<glyph d="M330 150l109 200l-109 200h208l106 -194v-12l-106 -194h-208zM30 150l109 200l-109 200h208l106 -194v-12l-106 -194h-208z" glyph-name="guillemotright.case" horiz-adv-x="674"/>
<glyph d="M344 550l-109 -200l109 -200h-208l-106 194v12l106 194h208z" glyph-name="guilsinglleft.case" horiz-adv-x="374"/>
<glyph d="M30 150l109 200l-109 200h208l106 -194v-12l-106 -194h-208z" glyph-name="guilsinglright.case" horiz-adv-x="374"/>
<glyph glyph-name="uni00A0" horiz-adv-x="250" unicode=" "/>
<glyph d="M350 263c33 0 61 23 71 49h188c-7 -100 -83 -186 -191 -212v-130h-140v130c-122 28 -204 126 -204 252s82 224 204 252v126h140v-126c108 -26 184 -112 191 -212h-188c-10 26 -38 49 -71 49c-51 0 -86 -38 -86 -89s35 -89 86 -89z" glyph-name="cent" horiz-adv-x="700" unicode="¢"/>
<glyph d="M350 255c54 0 95 41 95 95s-41 95 -95 95s-95 -41 -95 -95s41 -95 95 -95zM131 -3l-134 134l95 95c-17 37 -27 79 -27 124s10 87 27 124l-95 95l134 134l95 -95c37 17 79 27 124 27s87 -10 124 -27l95 95l134 -134l-95 -95c17 -37 27 -79 27 -124s-10 -87 -27 -124 l95 -95l-134 -134l-95 95c-37 -17 -79 -27 -124 -27s-87 10 -124 27z" glyph-name="currency" horiz-adv-x="700" unicode="¤"/>
<glyph d="M280 -130v120c-141 19 -252 98 -264 260h212c13 -58 60 -86 126 -86c49 0 92 9 92 41c0 30 -26 36 -128 60c-131 31 -285 72 -285 230c0 141 121 203 247 217v118h140v-121c125 -21 237 -92 252 -251h-222c-12 52 -60 75 -119 75c-22 0 -79 -3 -79 -38 c0 -34 47 -42 134 -63c149 -35 282 -76 282 -228c0 -115 -88 -197 -248 -215v-119h-140z" glyph-name="dollar" horiz-adv-x="700" unicode="$"/>
<glyph d="M395 -15c-129 0 -256 77 -302 233h-73v112h55v20v20h-55v112h73c46 156 173 233 302 233c142 0 277 -90 300 -281h-215c-11 74 -43 98 -92 98c-36 0 -62 -16 -78 -50h123v-112h-143v-20v-20h143v-112h-123c16 -34 42 -50 78 -50c49 0 81 24 92 98h215 c-23 -191 -158 -281 -300 -281z" glyph-name="Euro" horiz-adv-x="700" unicode="€"/>
<glyph d="M336 -15c-166 0 -258 62 -258 167c0 24 6 45 20 66h-78v112h188l78 40h-266v112h375c9 9 14 19 14 29c0 24 -23 39 -60 39c-29 0 -50 -9 -65 -28h-210c31 120 138 193 292 193c162 0 256 -62 256 -166c0 -24 -6 -46 -20 -67h78v-112h-176l-78 -40h254v-112h-374 c-9 -9 -14 -19 -14 -29c0 -28 24 -41 60 -41c24 0 48 8 63 30h227c-31 -120 -135 -193 -306 -193z" glyph-name="uni20B4" horiz-adv-x="700" unicode="₴"/>
<glyph d="M336 390h106c38 0 65 25 65 60s-27 60 -65 60h-106v-120zM120 0v126h-100v112h100v40h-100v112h100v310h318c157 0 252 -80 252 -211s-95 -211 -252 -211h-102v-40h301v-112h-301v-126h-216z" glyph-name="uni20BD" horiz-adv-x="700" unicode="₽"/>
<glyph d="M150 94c18 0 41 9 57 28c-24 18 -44 30 -61 30s-29 -12 -29 -29s12 -29 33 -29zM151 -15c-77 0 -148 48 -148 139c0 75 49 141 147 141c19 0 37 -2 55 -6c-11 20 -16 27 -20 35h-131v112h71c-11 29 -19 61 -19 96c0 131 108 213 260 213c171 0 274 -104 282 -249h-205 c-7 57 -43 79 -77 79c-35 0 -66 -23 -66 -71c0 -21 6 -44 15 -68h191v-112h-153c7 -25 11 -52 11 -81c0 -7 0 -14 -1 -21c36 -18 69 -32 98 -32c31 0 44 16 44 58c0 12 -1 22 -2 32h180c4 -23 5 -46 5 -61c0 -171 -123 -204 -200 -204c-74 0 -135 30 -187 65 c-41 -43 -97 -65 -150 -65z" glyph-name="sterling" horiz-adv-x="700" unicode="£"/>
<glyph d="M240 0v148h-220v112h208l-21 40h-187v112h129l-149 288h256l96 -227l96 227h252l-149 -288h129v-112h-187l-21 -40h208v-112h-220v-148h-220z" glyph-name="yen" horiz-adv-x="700" unicode="¥"/>
<glyph d="M500 435v-170h-135v-135h-170v135h-135v170h135v135h170v-135h135z" glyph-name="plus" horiz-adv-x="560" unicode="+"/>
<glyph d="M60 265v170h440v-170h-440z" glyph-name="minus" horiz-adv-x="560" unicode="−"/>
<glyph d="M156 106l-120 120l124 124l-124 124l120 120l124 -124l124 124l120 -120l-124 -124l124 -124l-120 -120l-124 124z" glyph-name="multiply" horiz-adv-x="560" unicode="×"/>
<glyph d="M280 0c-59 0 -105 46 -105 105s46 105 105 105s105 -46 105 -105s-46 -105 -105 -105zM38 265v170h484v-170h-484zM280 490c-59 0 -105 46 -105 105c0 60 46 105 105 105c60 0 105 -45 105 -105c0 -59 -45 -105 -105 -105z" glyph-name="divide" horiz-adv-x="560" unicode="÷"/>
<glyph d="M60 135v170h440v-170h-440zM60 395v170h440v-170h-440z" glyph-name="equal" horiz-adv-x="560" unicode="="/>
<glyph d="M500 395h-121l-35 -90h156v-170h-221l-32 -85h-164l33 85h-56v170h121l35 90h-156v170h221l33 85h162l-32 -85h56v-170z" glyph-name="notequal" horiz-adv-x="560" unicode="≠"/>
<glyph d="M60 95v178l159 72l-159 72v188l440 -201v-108z" glyph-name="greater" horiz-adv-x="560" unicode="&gt;"/>
<glyph d="M500 605v-178l-159 -72l159 -72v-188l-440 201v108z" glyph-name="less" horiz-adv-x="560" unicode="&lt;"/>
<glyph d="M60 0v170h440v-170h-440zM60 190v178l159 72l-159 72v188l440 -201v-108z" glyph-name="greaterequal" horiz-adv-x="560" unicode="≥"/>
<glyph d="M60 0v170h440v-170h-440zM500 700v-178l-159 -72l159 -72v-188l-440 201v108z" glyph-name="lessequal" horiz-adv-x="560" unicode="≤"/>
<glyph d="M60 0v170h440v-170h-440zM365 535h135v-170h-135v-135h-170v135h-135v170h135v135h170v-135z" glyph-name="plusminus" horiz-adv-x="560" unicode="±"/>
<glyph d="M56 139c0 143 53 204 133 204c46 0 71 -17 90 -31c12 -8 22 -15 34 -15c15 0 23 11 23 32h170c0 -143 -53 -204 -133 -204c-46 0 -71 17 -90 31c-12 8 -22 15 -34 15c-15 0 -23 -11 -23 -32h-170zM56 379c0 143 53 204 133 204c46 0 71 -17 90 -31c12 -8 22 -15 34 -15 c15 0 23 11 23 32h170c0 -143 -53 -204 -133 -204c-46 0 -71 17 -90 31c-12 8 -22 15 -34 15c-15 0 -23 -11 -23 -32h-170z" glyph-name="approxequal" horiz-adv-x="560" unicode="≈"/>
<glyph d="M56 259c0 143 53 204 133 204c46 0 71 -17 90 -31c12 -8 22 -15 34 -15c15 0 23 11 23 32h170c0 -143 -53 -204 -133 -204c-46 0 -71 17 -90 31c-12 8 -22 15 -34 15c-15 0 -23 -11 -23 -32h-170z" glyph-name="asciitilde" horiz-adv-x="560" unicode="~"/>
<glyph d="M500 435v-305h-170v135h-270v170h440z" glyph-name="logicalnot" horiz-adv-x="560" unicode="¬"/>
<glyph d="M15 350l201 350h128l201 -350h-187l-79 139l-79 -139h-185z" glyph-name="asciicircum" horiz-adv-x="560" unicode="^"/>
<glyph d="M665 135c25 0 45 20 45 45s-20 45 -45 45s-45 -20 -45 -45s20 -45 45 -45zM665 -5c-104 0 -185 81 -185 185s81 185 185 185s185 -81 185 -185s-81 -185 -185 -185zM205 475c25 0 45 20 45 45s-20 45 -45 45s-45 -20 -45 -45s20 -45 45 -45zM115 0l478 700h162l-478 -700 h-162zM205 335c-104 0 -185 81 -185 185s81 185 185 185s185 -81 185 -185s-81 -185 -185 -185z" glyph-name="percent" horiz-adv-x="870" unicode="%"/>
<glyph d="M1070 135c25 0 45 20 45 45s-20 45 -45 45s-45 -20 -45 -45s20 -45 45 -45zM665 135c25 0 45 20 45 45s-20 45 -45 45s-45 -20 -45 -45s20 -45 45 -45zM1070 -5c-104 0 -185 81 -185 185s81 185 185 185s185 -81 185 -185s-81 -185 -185 -185zM665 -5 c-104 0 -185 81 -185 185s81 185 185 185s185 -81 185 -185s-81 -185 -185 -185zM205 475c25 0 45 20 45 45s-20 45 -45 45s-45 -20 -45 -45s20 -45 45 -45zM115 0l478 700h162l-478 -700h-162zM205 335c-104 0 -185 81 -185 185s81 185 185 185s185 -81 185 -185 s-81 -185 -185 -185z" glyph-name="perthousand" horiz-adv-x="1275" unicode="‰"/>
<glyph d="M265 0v345h-2l-105 -129l-128 104l310 380h20l310 -380l-128 -104l-105 129h-2v-345h-170z" glyph-name="arrowup" horiz-adv-x="700" unicode="↑"/>
<glyph d="M163 43l-121 121l244 244l-1 1l-166 -17l-16 164l487 50l15 -15l-50 -488l-164 17l17 166l-1 1z" glyph-name="uni2197" horiz-adv-x="700" unicode="↗"/>
<glyph d="M320 30l-104 128l129 105v2h-345v170h345v2l-129 105l104 128l380 -310v-20z" glyph-name="arrowright" horiz-adv-x="700" unicode="→"/>
<glyph d="M590 95l-488 50l17 164l166 -17l1 1l-244 244l121 121l244 -244l1 1l-17 166l164 16l50 -487z" glyph-name="uni2198" horiz-adv-x="700" unicode="↘"/>
<glyph d="M340 0l-310 380l128 104l105 -129h2v345h170v-345h2l105 129l128 -104l-310 -380h-20z" glyph-name="arrowdown" horiz-adv-x="700" unicode="↓"/>
<glyph d="M110 95l-15 15l50 488l164 -17l-17 -166l1 -1l244 244l121 -121l-244 -244l1 -1l166 17l16 -164z" glyph-name="uni2199" horiz-adv-x="700" unicode="↙"/>
<glyph d="M380 31l-380 310v20l380 310l104 -128l-129 -105v-2h345v-170h-345v-2l129 -105z" glyph-name="arrowleft" horiz-adv-x="700" unicode="←"/>
<glyph d="M537 43l-244 244l-1 -1l17 -166l-164 -16l-50 487l15 15l488 -50l-17 -164l-166 17l-1 -1l244 -244z" glyph-name="uni2196" horiz-adv-x="700" unicode="↖"/>
<glyph d="M334 60l-344 280v20l344 280l104 -128l-107 -85v-2h258v2l-107 85l104 128l344 -280v-20l-344 -280l-104 128l107 85v2h-258v-2l107 -85z" glyph-name="arrowboth" horiz-adv-x="920" unicode="↔"/>
<glyph d="M340 -120l-280 344l128 104l85 -107h2v258h-2l-85 -107l-128 104l280 344h20l280 -344l-128 -104l-85 107h-2v-258h2l85 107l128 -104l-280 -344h-20z" glyph-name="arrowupdn" horiz-adv-x="700" unicode="↕"/>
<glyph d="M530 0v265h-175v-2l129 -105l-104 -128l-380 310v20l380 310l104 -128l-129 -105v-2h345v-435h-170z" glyph-name="uni21B0" horiz-adv-x="730" unicode="↰"/>
<glyph d="M30 0v435h345v2l-129 105l104 128l380 -310v-20l-380 -310l-104 128l129 105v2h-175v-265h-170z" glyph-name="uni21B1" horiz-adv-x="730" unicode="↱"/>
<glyph d="M380 30l-380 310v20l380 310l104 -128l-129 -105v-2h175v265h170v-435h-345v-2l129 -105z" glyph-name="uni21B2" horiz-adv-x="730" unicode="↲"/>
<glyph d="M350 30l-104 128l129 105v2h-345v435h170v-265h175v2l-129 105l104 128l380 -310v-20z" glyph-name="uni21B3" horiz-adv-x="730" unicode="↳"/>
<glyph d="M486 -39l22 250l-194 -173l-171 51l48 172h297l-368 113v173l160 41l220 -263l-126 353l158 133l158 -133l-126 -353l220 263l160 -41v-173l-368 -113h297l48 -172l-171 -51l-194 173l22 -250h-92z" glyph-name="uni2605" horiz-adv-x="1064" unicode="★"/>
<glyph d="M384 104c45 0 90 36 90 71v5c-9 -6 -40 -14 -65 -17c-47 -6 -60 -18 -60 -35c0 -16 12 -24 35 -24zM410 -167c-206 0 -365 159 -365 365s159 365 365 365s365 -159 365 -365c0 -74 -21 -141 -56 -198h-241v35c-36 -28 -86 -43 -136 -43c-91 0 -146 46 -146 118 c0 80 67 123 195 130c54 3 74 11 74 27s-17 25 -48 25c-34 0 -58 -11 -66 -30h-143c12 92 91 152 202 152c123 0 201 -66 201 -167v-113h72c5 20 7 42 7 64c0 158 -122 280 -280 280s-280 -122 -280 -280s122 -280 280 -280c83 0 135 21 185 59l56 -64 c-62 -50 -135 -80 -241 -80z" glyph-name="at" unicode="@"/>
<glyph d="M305 161c32 0 60 4 84 12l-90 103h-14c-39 0 -64 -22 -64 -53c0 -37 36 -62 84 -62zM310 -15c-180 0 -297 85 -297 217c0 105 68 178 178 198l-105 120v180h574v-192h-311l170 -193c9 32 13 65 14 92h208c-2 -102 -30 -189 -78 -257l131 -150h-254l-24 28 c-59 -28 -129 -43 -206 -43z" glyph-name="ampersand" horiz-adv-x="794" unicode="&amp;"/>
<glyph d="M290 -200v500h-9c-125 0 -221 87 -221 200s96 200 221 200h219v-900h-210z" glyph-name="paragraph" horiz-adv-x="620" unicode="¶"/>
<glyph d="M401 264c26 0 56 13 56 37c0 38 -81 45 -163 54c-26 0 -56 -13 -56 -37c0 -38 81 -45 163 -54zM348 -100c-143 0 -271 67 -284 217h200c3 -30 36 -58 85 -58c32 0 67 6 67 25c0 22 -18 30 -91 43c-156 28 -278 56 -282 181c0 55 34 94 84 119c-27 26 -42 62 -44 112 c0 133 136 181 258 181c133 0 262 -53 277 -212h-198c-11 35 -47 50 -82 50c-26 0 -60 -2 -60 -27c0 -23 36 -30 104 -42c158 -27 276 -60 276 -174c0 -52 -30 -94 -82 -124c27 -26 42 -60 42 -107c0 -112 -111 -184 -270 -184z" glyph-name="section" horiz-adv-x="700" unicode="§"/>
<glyph d="M416 142c-128 0 -221 88 -221 208s93 208 221 208c114 0 200 -80 208 -176h-151c-9 21 -31 39 -57 39c-41 0 -69 -30 -69 -71s28 -71 69 -71c26 0 48 18 57 39h151c-8 -96 -94 -176 -208 -176zM410 70c158 0 280 122 280 280s-122 280 -280 280s-280 -122 -280 -280 s122 -280 280 -280zM410 -15c-206 0 -365 159 -365 365s159 365 365 365s365 -159 365 -365s-159 -365 -365 -365z" glyph-name="copyright" unicode="©"/>
<glyph d="M193 554h39c10 0 18 6 18 16c0 9 -8 16 -18 16h-39v-32zM130 438v204h100c52 0 84 -26 84 -69c0 -26 -12 -47 -33 -58l48 -77h-73l-41 65h-22v-65h-63zM220 375c91 0 160 69 160 160s-69 160 -160 160s-160 -69 -160 -160s69 -160 160 -160zM220 355 c-102 0 -180 78 -180 180s78 180 180 180s180 -78 180 -180s-78 -180 -180 -180z" glyph-name="registered" horiz-adv-x="440" unicode="®"/>
<glyph d="M387 400v299h180l38 -167l39 167h177v-299h-110v193l-50 -193h-113l-50 193v-193h-111zM125 400v192h-105v107h323v-107h-105v-192h-113z" glyph-name="trademark" horiz-adv-x="881" unicode="™"/>
<glyph d="M190 505c28 0 50 22 50 50s-22 50 -50 50s-50 -22 -50 -50s22 -50 50 -50zM190 395c-90 0 -160 70 -160 160s70 160 160 160s160 -70 160 -160s-70 -160 -160 -160z" glyph-name="degree" horiz-adv-x="380" unicode="°"/>
<glyph d="M120 -100v900h170v-900h-170z" glyph-name="bar" horiz-adv-x="410" unicode="|"/>
<glyph d="M120 -100v380h170v-380h-170zM120 420v380h170v-380h-170z" glyph-name="brokenbar" horiz-adv-x="410" unicode="¦"/>
<glyph d="M145 330v169h-125v120h125v91h130v-91h125v-120h-125v-169h-130z" glyph-name="dagger" horiz-adv-x="420" unicode="†"/>
<glyph d="M145 330v60h-125v110h125v40h-125v110h125v60h130v-60h125v-110h-125v-40h125v-110h-125v-60h-130z" glyph-name="daggerdbl" horiz-adv-x="420" unicode="‡"/>
<glyph d="M1040 470c25 0 45 20 45 45s-20 45 -45 45s-45 -20 -45 -45s20 -45 45 -45zM1040 330c-104 0 -185 81 -185 185s81 185 185 185s185 -81 185 -185s-81 -185 -185 -185zM80 0v700h230l245 -385v385h205v-700h-230l-245 385v-385h-205z" glyph-name="uni2116" horiz-adv-x="1260" unicode="№"/>
<glyph d="M384 256c45 0 90 36 90 71v5c-9 -6 -40 -14 -65 -17c-47 -6 -60 -18 -60 -35c0 -16 12 -24 35 -24zM410 -15c-206 0 -365 159 -365 365s159 365 365 365s365 -159 365 -365c0 -74 -21 -141 -56 -198h-241v35c-36 -28 -86 -43 -136 -43c-91 0 -146 46 -146 118 c0 80 67 123 195 130c54 3 74 11 74 27s-17 25 -48 25c-34 0 -58 -11 -66 -30h-143c12 92 91 152 202 152c123 0 201 -66 201 -167v-113h72c5 20 7 42 7 64c0 158 -122 280 -280 280s-280 -122 -280 -280s122 -280 280 -280c83 0 135 21 185 59l56 -64 c-62 -50 -135 -80 -241 -80z" glyph-name="at.case"/>
<glyph d="M120 0v700h170v-700h-170z" glyph-name="bar.case" horiz-adv-x="410"/>
<glyph d="M120 0v280h170v-280h-170zM120 420v280h170v-280h-170z" glyph-name="brokenbar.case" horiz-adv-x="410"/>
<glyph d="M217 297h174c-15 34 -46 53 -89 53c-37 0 -69 -19 -85 -53zM306 -10c-164 0 -276 94 -276 242c0 118 72 206 176 239v65h-175v174h540v-174h-175v-64c108 -32 181 -119 181 -235c0 -14 -1 -30 -4 -45h-359c12 -34 43 -59 93 -59c22 0 38 5 50 14h208 c-12 -73 -102 -157 -259 -157z" glyph-name="ampersand.ss02" horiz-adv-x="604"/>
<glyph d="M174 390h-102c14 22 28 53 38 85c-64 21 -90 68 -90 116c0 62 45 127 123 127c64 0 128 -43 128 -127c0 -69 -44 -158 -97 -201z" glyph-name="uni02BC" horiz-adv-x="291" unicode="ʼ"/>
<glyph d="M-100 745l-103 -200h-9l-88 169l-87 -169h-9l-104 200h400z" glyph-name="uni0308" horiz-adv-x="0" unicode="̈"/>
<glyph d="M-305 545l-115 200h240l-115 -200h-10z" glyph-name="uni0307" horiz-adv-x="0" unicode="̇"/>
<glyph d="M-217 585h-183l-67 160h184z" glyph-name="gravecomb" horiz-adv-x="0" unicode="̀"/>
<glyph d="M-383 585l66 160h184l-67 -160h-183z" glyph-name="acutecomb" horiz-adv-x="0" unicode="́"/>
<glyph d="M-283 585l60 160h165l-60 -160h-165zM-487 585l60 160h165l-60 -160h-165z" glyph-name="uni030B" horiz-adv-x="0" unicode="̋"/>
<glyph d="M-240 540v160h170l-10 -160h-160z" glyph-name="uni030C.alt" horiz-adv-x="0"/>
<glyph d="M-68 585h-193l-39 56l-39 -56h-193l114 160h236z" glyph-name="uni0302" horiz-adv-x="0" unicode="̂"/>
<glyph d="M-532 745h193l39 -56l39 56h193l-114 -160h-236z" glyph-name="uni030C" horiz-adv-x="0" unicode="̌"/>
<glyph d="M-300 541c-129 0 -213 85 -213 195v9h154v-7c0 -34 25 -61 59 -61s59 27 59 61v7h154v-9c0 -110 -84 -195 -213 -195z" glyph-name="uni0306" horiz-adv-x="0" unicode="̆"/>
<glyph d="M-300 660c14 0 25 11 25 25s-11 25 -25 25s-25 -11 -25 -25s11 -25 25 -25zM-300 540c-81 0 -145 65 -145 145s64 145 145 145c80 0 145 -65 145 -145s-65 -145 -145 -145z" glyph-name="uni030A" horiz-adv-x="0" unicode="̊"/>
<glyph d="M-505 574c0 131 48 186 121 186c60 0 90 -42 113 -42c14 0 21 11 21 33h155c0 -131 -48 -186 -121 -186c-60 0 -90 42 -113 42c-14 0 -21 -11 -21 -33h-155z" glyph-name="tildecomb" horiz-adv-x="0" unicode="̃"/>
<glyph d="M-460 735h320v-130h-320v130z" glyph-name="uni0304" horiz-adv-x="0" unicode="̄"/>
<glyph d="M-326 745h108c-12 -12 -25 -30 -33 -48c42 -7 58 -37 58 -65c0 -35 -44 -71 -106 -71c-61 0 -111 26 -111 77c0 37 38 84 84 107z" glyph-name="uni0312" horiz-adv-x="0" unicode="̒"/>
<glyph d="M-274 -245h-108c12 12 25 30 33 48c-42 7 -58 37 -58 65c0 35 44 71 106 71c61 0 111 -26 111 -77c0 -37 -38 -84 -84 -107z" glyph-name="uni0326" horiz-adv-x="0" unicode="̦"/>
<glyph d="M-207 -85l-66 -160h-184l67 160h183z" glyph-name="uni0327" horiz-adv-x="0" unicode="̧"/>
<glyph d="M-293 -85l-66 -160h-184l67 160h183z" glyph-name="uni0328" horiz-adv-x="0" unicode="̨"/>
<glyph d="M-480 660h360v-120h-360v120z" glyph-name="uni0335" horiz-adv-x="0" unicode="̵"/>
<glyph d="M-100 745l-103 -200h-9l-88 169l-87 -169h-9l-104 200h400z" glyph-name="uni0308.cv01" horiz-adv-x="0"/>
<glyph d="M-305 545l-115 200h240l-115 -200h-10z" glyph-name="uni0307.cv01" horiz-adv-x="0"/>
<glyph d="M-300 541c-129 0 -213 85 -213 195v9h154v-7c0 -34 25 -61 59 -61s59 27 59 61v7h154v-9c0 -110 -84 -195 -213 -195z" glyph-name="brevecombcy" horiz-adv-x="0"/>
</font>
</defs>
</svg>
