<svg width="20" height="20" viewBox="0 0 20 20" fill="none" xmlns="http://www.w3.org/2000/svg">
<path d="M7.07031 11.25L4.17969 15H15.8203L12.0703 10L9.17969 13.75L7.07031 11.25ZM17.5 15.8203C17.5 16.263 17.3307 16.6536 16.9922 16.9922C16.6536 17.3307 16.263 17.5 15.8203 17.5H4.17969C3.73698 17.5 3.34635 17.3307 3.00781 16.9922C2.66927 16.6536 2.5 16.263 2.5 15.8203V4.17969C2.5 3.73698 2.66927 3.34635 3.00781 3.00781C3.34635 2.66927 3.73698 2.5 4.17969 2.5H15.8203C16.263 2.5 16.6536 2.66927 16.9922 3.00781C17.3307 3.34635 17.5 3.73698 17.5 4.17969V15.8203Z" fill="#0A0C10"/>
</svg>
