<svg width="20" height="20" viewBox="0 0 20 20" fill="none" xmlns="http://www.w3.org/2000/svg">
<path d="M8.24219 8.24219C8.73698 7.7474 9.32292 7.5 10 7.5C10.6771 7.5 11.263 7.7474 11.7578 8.24219C12.2526 8.73698 12.5 9.32292 12.5 10C12.5 10.6771 12.2526 11.263 11.7578 11.7578C11.263 12.2526 10.6771 12.5 10 12.5C9.32292 12.5 8.73698 12.2526 8.24219 11.7578C7.7474 11.263 7.5 10.6771 7.5 10C7.5 9.32292 7.7474 8.73698 8.24219 8.24219ZM7.03125 12.9688C7.86458 13.776 8.85417 14.1797 10 14.1797C11.1458 14.1797 12.1224 13.776 12.9297 12.9688C13.763 12.1354 14.1797 11.1458 14.1797 10C14.1797 8.85417 13.763 7.8776 12.9297 7.07031C12.1224 6.23698 11.1458 5.82031 10 5.82031C8.85417 5.82031 7.86458 6.23698 7.03125 7.07031C6.22396 7.8776 5.82031 8.85417 5.82031 10C5.82031 11.1458 6.22396 12.1354 7.03125 12.9688ZM4.41406 5.46875C6.08073 4.32292 7.94271 3.75 10 3.75C12.0573 3.75 13.9193 4.32292 15.5859 5.46875C17.2526 6.61458 18.4505 8.125 19.1797 10C18.4505 11.875 17.2526 13.3854 15.5859 14.5312C13.9193 15.6771 12.0573 16.25 10 16.25C7.94271 16.25 6.08073 15.6771 4.41406 14.5312C2.7474 13.3854 1.54948 11.875 0.820312 10C1.54948 8.125 2.7474 6.61458 4.41406 5.46875Z" fill="#0A0C10"/>
</svg>
