<svg width="20" height="20" viewBox="0 0 20 20" fill="none" xmlns="http://www.w3.org/2000/svg">
<path d="M12.5 7.5V4.17969H4.17969V7.5H12.5ZM8.24219 15.0781C8.73698 15.5729 9.32292 15.8203 10 15.8203C10.6771 15.8203 11.263 15.5729 11.7578 15.0781C12.2526 14.5833 12.5 13.9974 12.5 13.3203C12.5 12.6432 12.2526 12.0573 11.7578 11.5625C11.263 11.0677 10.6771 10.8203 10 10.8203C9.32292 10.8203 8.73698 11.0677 8.24219 11.5625C7.7474 12.0573 7.5 12.6432 7.5 13.3203C7.5 13.9974 7.7474 14.5833 8.24219 15.0781ZM14.1797 2.5L17.5 5.82031V15.8203C17.5 16.263 17.3307 16.6536 16.9922 16.9922C16.6536 17.3307 16.263 17.5 15.8203 17.5H4.17969C3.71094 17.5 3.30729 17.3438 2.96875 17.0312C2.65625 16.6927 2.5 16.2891 2.5 15.8203V4.17969C2.5 3.71094 2.65625 3.32031 2.96875 3.00781C3.30729 2.66927 3.71094 2.5 4.17969 2.5H14.1797Z" fill="#0A0C10"/>
</svg>
