<svg width="20" height="20" viewBox="0 0 20 20" fill="none" xmlns="http://www.w3.org/2000/svg">
<path d="M8.82812 8.82812C9.16667 8.48958 9.55729 8.32031 10 8.32031C10.4427 8.32031 10.8333 8.48958 11.1719 8.82812C11.5104 9.16667 11.6797 9.55729 11.6797 10C11.6797 10.4427 11.5104 10.8333 11.1719 11.1719C10.8333 11.5104 10.4427 11.6797 10 11.6797C9.55729 11.6797 9.16667 11.5104 8.82812 11.1719C8.48958 10.8333 8.32031 10.4427 8.32031 10C8.32031 9.55729 8.48958 9.16667 8.82812 8.82812ZM13.8281 8.82812C14.1667 8.48958 14.5573 8.32031 15 8.32031C15.4427 8.32031 15.8333 8.48958 16.1719 8.82812C16.5104 9.16667 16.6797 9.55729 16.6797 10C16.6797 10.4427 16.5104 10.8333 16.1719 11.1719C15.8333 11.5104 15.4427 11.6797 15 11.6797C14.5573 11.6797 14.1667 11.5104 13.8281 11.1719C13.4896 10.8333 13.3203 10.4427 13.3203 10C13.3203 9.55729 13.4896 9.16667 13.8281 8.82812ZM3.82812 8.82812C4.16667 8.48958 4.55729 8.32031 5 8.32031C5.44271 8.32031 5.83333 8.48958 6.17188 8.82812C6.51042 9.16667 6.67969 9.55729 6.67969 10C6.67969 10.4427 6.51042 10.8333 6.17188 11.1719C5.83333 11.5104 5.44271 11.6797 5 11.6797C4.55729 11.6797 4.16667 11.5104 3.82812 11.1719C3.48958 10.8333 3.32031 10.4427 3.32031 10C3.32031 9.55729 3.48958 9.16667 3.82812 8.82812Z" fill="#0A0C10"/>
</svg>
