<svg width="20" height="20" viewBox="0 0 20 20" fill="none" xmlns="http://www.w3.org/2000/svg">
<path d="M14.1797 5.82031C15.3255 5.82031 16.3021 6.23698 17.1094 7.07031C17.9167 7.8776 18.3203 8.85417 18.3203 10C18.3203 11.1458 17.9167 12.1354 17.1094 12.9688C16.3021 13.776 15.3255 14.1797 14.1797 14.1797H10.8203V12.5781H14.1797C14.8828 12.5781 15.4818 12.3307 15.9766 11.8359C16.4974 11.3151 16.7578 10.7031 16.7578 10C16.7578 9.29688 16.4974 8.69792 15.9766 8.20312C15.4818 7.68229 14.8828 7.42188 14.1797 7.42188H10.8203V5.82031H14.1797ZM6.67969 10.8203V9.17969H13.3203V10.8203H6.67969ZM3.98438 8.20312C3.48958 8.69792 3.24219 9.29688 3.24219 10C3.24219 10.7031 3.48958 11.3151 3.98438 11.8359C4.50521 12.3307 5.11719 12.5781 5.82031 12.5781H9.17969V14.1797H5.82031C4.67448 14.1797 3.69792 13.776 2.89062 12.9688C2.08333 12.1354 1.67969 11.1458 1.67969 10C1.67969 8.85417 2.08333 7.8776 2.89062 7.07031C3.69792 6.23698 4.67448 5.82031 5.82031 5.82031H9.17969V7.42188H5.82031C5.11719 7.42188 4.50521 7.68229 3.98438 8.20312Z" fill="#0A0C10"/>
</svg>
