<svg width="20" height="20" viewBox="0 0 20 20" fill="none" xmlns="http://www.w3.org/2000/svg">
<path fill-rule="evenodd" clip-rule="evenodd" d="M4.14 12.57V15.5C4.14 15.6988 4.30118 15.86 4.5 15.86H9.18V12.57H4.14ZM4.14 10.93H9.18V7.5H4.14V10.93ZM10.82 12.57V15.86H15.5C15.6988 15.86 15.86 15.6988 15.86 15.5V12.57H10.82ZM15.86 10.93H10.82V7.5H15.86V10.93ZM2.5 4.5C2.5 3.39543 3.39543 2.5 4.5 2.5H15.5C16.6046 2.5 17.5 3.39543 17.5 4.5V15.5C17.5 16.6046 16.6046 17.5 15.5 17.5H4.5C3.39543 17.5 2.5 16.6046 2.5 15.5V4.5Z" fill="#0A0C10"/>
</svg>
