<svg width="20" height="20" viewBox="0 0 20 20" fill="none" xmlns="http://www.w3.org/2000/svg">
<path d="M15.8203 2.5H18.3203V3.32031L12.5 9.17969L10.8203 7.5L15.8203 2.5ZM9.57031 10C9.57031 10.2865 9.71354 10.4297 10 10.4297C10.2865 10.4297 10.4297 10.2865 10.4297 10C10.4297 9.71354 10.2865 9.57031 10 9.57031C9.71354 9.57031 9.57031 9.71354 9.57031 10ZM3.82812 16.2109C4.16667 16.5234 4.55729 16.6797 5 16.6797C5.44271 16.6797 5.83333 16.5234 6.17188 16.2109C6.51042 15.8724 6.67969 15.4688 6.67969 15C6.67969 14.5312 6.51042 14.1406 6.17188 13.8281C5.83333 13.4896 5.44271 13.3203 5 13.3203C4.55729 13.3203 4.16667 13.4896 3.82812 13.8281C3.48958 14.1406 3.32031 14.5312 3.32031 15C3.32031 15.4688 3.48958 15.8724 3.82812 16.2109ZM3.82812 6.21094C4.16667 6.52344 4.55729 6.67969 5 6.67969C5.44271 6.67969 5.83333 6.52344 6.17188 6.21094C6.51042 5.8724 6.67969 5.46875 6.67969 5C6.67969 4.53125 6.51042 4.14062 6.17188 3.82812C5.83333 3.48958 5.44271 3.32031 5 3.32031C4.55729 3.32031 4.16667 3.48958 3.82812 3.82812C3.48958 4.14062 3.32031 4.53125 3.32031 5C3.32031 5.46875 3.48958 5.8724 3.82812 6.21094ZM8.04688 6.36719L18.3203 16.6797V17.5H15.8203L10 11.6797L8.04688 13.6328C8.22917 14.0234 8.32031 14.4792 8.32031 15C8.32031 15.9115 7.99479 16.6927 7.34375 17.3438C6.69271 17.9948 5.91146 18.3203 5 18.3203C4.08854 18.3203 3.30729 17.9948 2.65625 17.3438C2.00521 16.6927 1.67969 15.9115 1.67969 15C1.67969 14.0885 2.00521 13.3073 2.65625 12.6562C3.30729 12.0052 4.08854 11.6797 5 11.6797C5.52083 11.6797 5.97656 11.7708 6.36719 11.9531L8.32031 10L6.36719 8.04688C5.97656 8.22917 5.52083 8.32031 5 8.32031C4.08854 8.32031 3.30729 7.99479 2.65625 7.34375C2.00521 6.69271 1.67969 5.91146 1.67969 5C1.67969 4.08854 2.00521 3.30729 2.65625 2.65625C3.30729 2.00521 4.08854 1.67969 5 1.67969C5.91146 1.67969 6.69271 2.00521 7.34375 2.65625C7.99479 3.30729 8.32031 4.08854 8.32031 5C8.32031 5.52083 8.22917 5.97656 8.04688 6.36719Z" fill="#2994E0"/>
</svg>
