<svg width="20" height="20" viewBox="0 0 20 20" fill="none" xmlns="http://www.w3.org/2000/svg">
<path d="M16.9922 6.99219L12.9688 2.96875C12.6562 2.65625 12.2656 2.5 11.7969 2.5H4.17969C3.71094 2.5 3.30729 2.66927 2.96875 3.00781C2.65625 3.32031 2.5 3.71094 2.5 4.17969V15.8203C2.5 16.2891 2.65625 16.6927 2.96875 17.0312C3.30729 17.3438 3.71094 17.5 4.17969 17.5H15.8203C16.2891 17.5 16.6797 17.3438 16.9922 17.0312C17.3307 16.6927 17.5 16.2891 17.5 15.8203V8.20312C17.5 7.73438 17.3307 7.33073 16.9922 6.99219ZM5.82031 5.82031H11.6797V7.5H5.82031V5.82031ZM14.1797 14.1797H5.82031V12.5H14.1797V14.1797ZM14.1797 10.8203H5.82031V9.17969H14.1797V10.8203Z" fill="#2994E0"/>
</svg>
