<svg width="20" height="20" viewBox="0 0 20 20" fill="none" xmlns="http://www.w3.org/2000/svg">
<path d="M16.6797 3.32031H3.32031C2.8776 3.32031 2.48698 3.48958 2.14844 3.82812C1.83594 4.14062 1.67969 4.53125 1.67969 5V15C1.67969 15.4688 1.83594 15.8724 2.14844 16.2109C2.48698 16.5234 2.8776 16.6797 3.32031 16.6797H16.6797C17.1224 16.6797 17.5 16.5234 17.8125 16.2109C18.151 15.8724 18.3203 15.4688 18.3203 15V5C18.3203 4.53125 18.151 4.14062 17.8125 3.82812C17.5 3.48958 17.1224 3.32031 16.6797 3.32031ZM7.92969 13.75V6.25L13.75 10L7.92969 13.75Z" fill="#0A0C10"/>
</svg>
