<svg width="20" height="20" viewBox="0 0 20 20" fill="none" xmlns="http://www.w3.org/2000/svg">
<path d="M15.8203 17.5V5.82031H6.67969V17.5H15.8203ZM15.8203 4.17969C16.263 4.17969 16.6536 4.34896 16.9922 4.6875C17.3307 5 17.5 5.3776 17.5 5.82031V17.5C17.5 17.9427 17.3307 18.3333 16.9922 18.6719C16.6536 19.0104 16.263 19.1797 15.8203 19.1797H6.67969C6.23698 19.1797 5.84635 19.0104 5.50781 18.6719C5.16927 18.3333 5 17.9427 5 17.5V5.82031C5 5.3776 5.16927 5 5.50781 4.6875C5.84635 4.34896 6.23698 4.17969 6.67969 4.17969H15.8203ZM13.3203 0.820312V2.5H3.32031V14.1797H1.67969V2.5C1.67969 2.05729 1.83594 1.66667 2.14844 1.32812C2.48698 0.989583 2.8776 0.820312 3.32031 0.820312H13.3203Z" fill="#2994E0"/>
</svg>
