<svg width="20" height="20" viewBox="0 0 20 20" fill="none" xmlns="http://www.w3.org/2000/svg">
<path d="M5.58594 12.6172C7.1224 11.9922 8.59375 11.6797 10 11.6797C11.4062 11.6797 12.8646 11.9922 14.375 12.6172C15.9115 13.2161 16.6797 14.0104 16.6797 15V16.6797H3.32031V15C3.32031 14.0104 4.07552 13.2161 5.58594 12.6172ZM12.3438 9.02344C11.6927 9.67448 10.9115 10 10 10C9.08854 10 8.30729 9.67448 7.65625 9.02344C7.00521 8.3724 6.67969 7.59115 6.67969 6.67969C6.67969 5.76823 7.00521 4.98698 7.65625 4.33594C8.30729 3.65885 9.08854 3.32031 10 3.32031C10.9115 3.32031 11.6927 3.65885 12.3438 4.33594C12.9948 4.98698 13.3203 5.76823 13.3203 6.67969C13.3203 7.59115 12.9948 8.3724 12.3438 9.02344Z" fill="#2994E0"/>
</svg>
