<svg width="20" height="20" viewBox="0 0 20 20" fill="none" xmlns="http://www.w3.org/2000/svg">
<path d="M14.1797 4.17969H12.5V2.5H14.1797V4.17969ZM12.5 17.5H14.1797V15.3516L16.3281 17.5L17.5 16.3281L15.3516 14.1797H17.5V12.5H12.5V17.5ZM15.8203 7.5H17.5V5.82031H15.8203V7.5ZM15.8203 10.8203H17.5V9.17969H15.8203V10.8203ZM9.17969 17.5H10.8203V15.8203H9.17969V17.5ZM5.82031 4.17969H7.5V2.5H5.82031V4.17969ZM2.5 14.1797H4.17969V12.5H2.5V14.1797ZM4.17969 17.5V15.8203H2.5C2.5 16.2891 2.65625 16.6927 2.96875 17.0312C3.30729 17.3438 3.71094 17.5 4.17969 17.5ZM15.8203 2.5V4.17969H17.5C17.5 3.71094 17.3307 3.32031 16.9922 3.00781C16.6797 2.66927 16.2891 2.5 15.8203 2.5ZM9.17969 4.17969H10.8203V2.5H9.17969V4.17969ZM2.5 7.5H4.17969V5.82031H2.5V7.5ZM5.82031 17.5H7.5V15.8203H5.82031V17.5ZM2.5 10.8203H4.17969V9.17969H2.5V10.8203ZM2.5 4.17969H4.17969V2.5C3.71094 2.5 3.30729 2.66927 2.96875 3.00781C2.65625 3.32031 2.5 3.71094 2.5 4.17969Z" fill="#2994E0"/>
</svg>
