<svg width="20" height="20" viewBox="0 0 20 20" fill="none" xmlns="http://www.w3.org/2000/svg">
<path d="M15.8203 16.6797V3.32031H14.1797V5.82031H5.82031V3.32031H4.17969V16.6797H15.8203ZM10.5859 1.91406C10.4297 1.75781 10.2344 1.67969 10 1.67969C9.76562 1.67969 9.57031 1.75781 9.41406 1.91406C9.25781 2.07031 9.17969 2.26562 9.17969 2.5C9.17969 2.73438 9.25781 2.92969 9.41406 3.08594C9.57031 3.24219 9.76562 3.32031 10 3.32031C10.2344 3.32031 10.4297 3.24219 10.5859 3.08594C10.7422 2.92969 10.8203 2.73438 10.8203 2.5C10.8203 2.26562 10.7422 2.07031 10.5859 1.91406ZM15.8203 1.67969C16.263 1.67969 16.6536 1.84896 16.9922 2.1875C17.3307 2.5 17.5 2.8776 17.5 3.32031V16.6797C17.5 17.1224 17.3307 17.513 16.9922 17.8516C16.6536 18.1641 16.263 18.3203 15.8203 18.3203H4.17969C3.73698 18.3203 3.34635 18.1641 3.00781 17.8516C2.66927 17.513 2.5 17.1224 2.5 16.6797V3.32031C2.5 2.8776 2.66927 2.5 3.00781 2.1875C3.34635 1.84896 3.73698 1.67969 4.17969 1.67969H7.65625C7.83854 1.1849 8.13802 0.78125 8.55469 0.46875C8.97135 0.15625 9.45312 0 10 0C10.5469 0 11.0286 0.15625 11.4453 0.46875C11.862 0.78125 12.1615 1.1849 12.3438 1.67969H15.8203Z" fill="#0A0C10"/>
</svg>
